%TF.GenerationSoftware,KiCad,Pcbnew,8.0.7*%
%TF.CreationDate,2025-01-10T22:24:24-05:00*%
%TF.ProjectId,front panel,66726f6e-7420-4706-916e-656c2e6b6963,B*%
%TF.SameCoordinates,Original*%
%TF.FileFunction,Legend,Top*%
%TF.FilePolarity,Positive*%
%FSLAX46Y46*%
G04 Gerber Fmt 4.6, Leading zero omitted, Abs format (unit mm)*
G04 Created by KiCad (PCBNEW 8.0.7) date 2025-01-10 22:24:24*
%MOMM*%
%LPD*%
G01*
G04 APERTURE LIST*
%ADD10C,0.100000*%
G04 APERTURE END LIST*
D10*
X97218666Y-164295419D02*
X96885333Y-163819228D01*
X96647238Y-164295419D02*
X96647238Y-163295419D01*
X96647238Y-163295419D02*
X97028190Y-163295419D01*
X97028190Y-163295419D02*
X97123428Y-163343038D01*
X97123428Y-163343038D02*
X97171047Y-163390657D01*
X97171047Y-163390657D02*
X97218666Y-163485895D01*
X97218666Y-163485895D02*
X97218666Y-163628752D01*
X97218666Y-163628752D02*
X97171047Y-163723990D01*
X97171047Y-163723990D02*
X97123428Y-163771609D01*
X97123428Y-163771609D02*
X97028190Y-163819228D01*
X97028190Y-163819228D02*
X96647238Y-163819228D01*
X97647238Y-163771609D02*
X97980571Y-163771609D01*
X98123428Y-164295419D02*
X97647238Y-164295419D01*
X97647238Y-164295419D02*
X97647238Y-163295419D01*
X97647238Y-163295419D02*
X98123428Y-163295419D01*
X98885333Y-163771609D02*
X98552000Y-163771609D01*
X98552000Y-164295419D02*
X98552000Y-163295419D01*
X98552000Y-163295419D02*
X99028190Y-163295419D01*
X99552000Y-163295419D02*
X99552000Y-163533514D01*
X99313905Y-163438276D02*
X99552000Y-163533514D01*
X99552000Y-163533514D02*
X99790095Y-163438276D01*
X99409143Y-163723990D02*
X99552000Y-163533514D01*
X99552000Y-163533514D02*
X99694857Y-163723990D01*
X100313905Y-163295419D02*
X100313905Y-163533514D01*
X100075810Y-163438276D02*
X100313905Y-163533514D01*
X100313905Y-163533514D02*
X100552000Y-163438276D01*
X100171048Y-163723990D02*
X100313905Y-163533514D01*
X100313905Y-163533514D02*
X100456762Y-163723990D01*
X100266666Y-67140419D02*
X99933333Y-66664228D01*
X99695238Y-67140419D02*
X99695238Y-66140419D01*
X99695238Y-66140419D02*
X100076190Y-66140419D01*
X100076190Y-66140419D02*
X100171428Y-66188038D01*
X100171428Y-66188038D02*
X100219047Y-66235657D01*
X100219047Y-66235657D02*
X100266666Y-66330895D01*
X100266666Y-66330895D02*
X100266666Y-66473752D01*
X100266666Y-66473752D02*
X100219047Y-66568990D01*
X100219047Y-66568990D02*
X100171428Y-66616609D01*
X100171428Y-66616609D02*
X100076190Y-66664228D01*
X100076190Y-66664228D02*
X99695238Y-66664228D01*
X100695238Y-66616609D02*
X101028571Y-66616609D01*
X101171428Y-67140419D02*
X100695238Y-67140419D01*
X100695238Y-67140419D02*
X100695238Y-66140419D01*
X100695238Y-66140419D02*
X101171428Y-66140419D01*
X101933333Y-66616609D02*
X101600000Y-66616609D01*
X101600000Y-67140419D02*
X101600000Y-66140419D01*
X101600000Y-66140419D02*
X102076190Y-66140419D01*
X102600000Y-66140419D02*
X102600000Y-66378514D01*
X102361905Y-66283276D02*
X102600000Y-66378514D01*
X102600000Y-66378514D02*
X102838095Y-66283276D01*
X102457143Y-66568990D02*
X102600000Y-66378514D01*
X102600000Y-66378514D02*
X102742857Y-66568990D01*
X103361905Y-66140419D02*
X103361905Y-66378514D01*
X103123810Y-66283276D02*
X103361905Y-66378514D01*
X103361905Y-66378514D02*
X103600000Y-66283276D01*
X103219048Y-66568990D02*
X103361905Y-66378514D01*
X103361905Y-66378514D02*
X103504762Y-66568990D01*
X112966666Y-164295419D02*
X112633333Y-163819228D01*
X112395238Y-164295419D02*
X112395238Y-163295419D01*
X112395238Y-163295419D02*
X112776190Y-163295419D01*
X112776190Y-163295419D02*
X112871428Y-163343038D01*
X112871428Y-163343038D02*
X112919047Y-163390657D01*
X112919047Y-163390657D02*
X112966666Y-163485895D01*
X112966666Y-163485895D02*
X112966666Y-163628752D01*
X112966666Y-163628752D02*
X112919047Y-163723990D01*
X112919047Y-163723990D02*
X112871428Y-163771609D01*
X112871428Y-163771609D02*
X112776190Y-163819228D01*
X112776190Y-163819228D02*
X112395238Y-163819228D01*
X113395238Y-163771609D02*
X113728571Y-163771609D01*
X113871428Y-164295419D02*
X113395238Y-164295419D01*
X113395238Y-164295419D02*
X113395238Y-163295419D01*
X113395238Y-163295419D02*
X113871428Y-163295419D01*
X114633333Y-163771609D02*
X114300000Y-163771609D01*
X114300000Y-164295419D02*
X114300000Y-163295419D01*
X114300000Y-163295419D02*
X114776190Y-163295419D01*
X115300000Y-163295419D02*
X115300000Y-163533514D01*
X115061905Y-163438276D02*
X115300000Y-163533514D01*
X115300000Y-163533514D02*
X115538095Y-163438276D01*
X115157143Y-163723990D02*
X115300000Y-163533514D01*
X115300000Y-163533514D02*
X115442857Y-163723990D01*
X116061905Y-163295419D02*
X116061905Y-163533514D01*
X115823810Y-163438276D02*
X116061905Y-163533514D01*
X116061905Y-163533514D02*
X116300000Y-163438276D01*
X115919048Y-163723990D02*
X116061905Y-163533514D01*
X116061905Y-163533514D02*
X116204762Y-163723990D01*
X129730666Y-53678419D02*
X129397333Y-53202228D01*
X129159238Y-53678419D02*
X129159238Y-52678419D01*
X129159238Y-52678419D02*
X129540190Y-52678419D01*
X129540190Y-52678419D02*
X129635428Y-52726038D01*
X129635428Y-52726038D02*
X129683047Y-52773657D01*
X129683047Y-52773657D02*
X129730666Y-52868895D01*
X129730666Y-52868895D02*
X129730666Y-53011752D01*
X129730666Y-53011752D02*
X129683047Y-53106990D01*
X129683047Y-53106990D02*
X129635428Y-53154609D01*
X129635428Y-53154609D02*
X129540190Y-53202228D01*
X129540190Y-53202228D02*
X129159238Y-53202228D01*
X130159238Y-53154609D02*
X130492571Y-53154609D01*
X130635428Y-53678419D02*
X130159238Y-53678419D01*
X130159238Y-53678419D02*
X130159238Y-52678419D01*
X130159238Y-52678419D02*
X130635428Y-52678419D01*
X131397333Y-53154609D02*
X131064000Y-53154609D01*
X131064000Y-53678419D02*
X131064000Y-52678419D01*
X131064000Y-52678419D02*
X131540190Y-52678419D01*
X132064000Y-52678419D02*
X132064000Y-52916514D01*
X131825905Y-52821276D02*
X132064000Y-52916514D01*
X132064000Y-52916514D02*
X132302095Y-52821276D01*
X131921143Y-53106990D02*
X132064000Y-52916514D01*
X132064000Y-52916514D02*
X132206857Y-53106990D01*
X132825905Y-52678419D02*
X132825905Y-52916514D01*
X132587810Y-52821276D02*
X132825905Y-52916514D01*
X132825905Y-52916514D02*
X133064000Y-52821276D01*
X132683048Y-53106990D02*
X132825905Y-52916514D01*
X132825905Y-52916514D02*
X132968762Y-53106990D01*
X129730666Y-176106419D02*
X129397333Y-175630228D01*
X129159238Y-176106419D02*
X129159238Y-175106419D01*
X129159238Y-175106419D02*
X129540190Y-175106419D01*
X129540190Y-175106419D02*
X129635428Y-175154038D01*
X129635428Y-175154038D02*
X129683047Y-175201657D01*
X129683047Y-175201657D02*
X129730666Y-175296895D01*
X129730666Y-175296895D02*
X129730666Y-175439752D01*
X129730666Y-175439752D02*
X129683047Y-175534990D01*
X129683047Y-175534990D02*
X129635428Y-175582609D01*
X129635428Y-175582609D02*
X129540190Y-175630228D01*
X129540190Y-175630228D02*
X129159238Y-175630228D01*
X130159238Y-175582609D02*
X130492571Y-175582609D01*
X130635428Y-176106419D02*
X130159238Y-176106419D01*
X130159238Y-176106419D02*
X130159238Y-175106419D01*
X130159238Y-175106419D02*
X130635428Y-175106419D01*
X131397333Y-175582609D02*
X131064000Y-175582609D01*
X131064000Y-176106419D02*
X131064000Y-175106419D01*
X131064000Y-175106419D02*
X131540190Y-175106419D01*
X132064000Y-175106419D02*
X132064000Y-175344514D01*
X131825905Y-175249276D02*
X132064000Y-175344514D01*
X132064000Y-175344514D02*
X132302095Y-175249276D01*
X131921143Y-175534990D02*
X132064000Y-175344514D01*
X132064000Y-175344514D02*
X132206857Y-175534990D01*
X132825905Y-175106419D02*
X132825905Y-175344514D01*
X132587810Y-175249276D02*
X132825905Y-175344514D01*
X132825905Y-175344514D02*
X133064000Y-175249276D01*
X132683048Y-175534990D02*
X132825905Y-175344514D01*
X132825905Y-175344514D02*
X132968762Y-175534990D01*
X125666666Y-117940419D02*
X125333333Y-117464228D01*
X125095238Y-117940419D02*
X125095238Y-116940419D01*
X125095238Y-116940419D02*
X125476190Y-116940419D01*
X125476190Y-116940419D02*
X125571428Y-116988038D01*
X125571428Y-116988038D02*
X125619047Y-117035657D01*
X125619047Y-117035657D02*
X125666666Y-117130895D01*
X125666666Y-117130895D02*
X125666666Y-117273752D01*
X125666666Y-117273752D02*
X125619047Y-117368990D01*
X125619047Y-117368990D02*
X125571428Y-117416609D01*
X125571428Y-117416609D02*
X125476190Y-117464228D01*
X125476190Y-117464228D02*
X125095238Y-117464228D01*
X126095238Y-117416609D02*
X126428571Y-117416609D01*
X126571428Y-117940419D02*
X126095238Y-117940419D01*
X126095238Y-117940419D02*
X126095238Y-116940419D01*
X126095238Y-116940419D02*
X126571428Y-116940419D01*
X127333333Y-117416609D02*
X127000000Y-117416609D01*
X127000000Y-117940419D02*
X127000000Y-116940419D01*
X127000000Y-116940419D02*
X127476190Y-116940419D01*
X128000000Y-116940419D02*
X128000000Y-117178514D01*
X127761905Y-117083276D02*
X128000000Y-117178514D01*
X128000000Y-117178514D02*
X128238095Y-117083276D01*
X127857143Y-117368990D02*
X128000000Y-117178514D01*
X128000000Y-117178514D02*
X128142857Y-117368990D01*
X128761905Y-116940419D02*
X128761905Y-117178514D01*
X128523810Y-117083276D02*
X128761905Y-117178514D01*
X128761905Y-117178514D02*
X129000000Y-117083276D01*
X128619048Y-117368990D02*
X128761905Y-117178514D01*
X128761905Y-117178514D02*
X128904762Y-117368990D01*
X125666666Y-92540419D02*
X125333333Y-92064228D01*
X125095238Y-92540419D02*
X125095238Y-91540419D01*
X125095238Y-91540419D02*
X125476190Y-91540419D01*
X125476190Y-91540419D02*
X125571428Y-91588038D01*
X125571428Y-91588038D02*
X125619047Y-91635657D01*
X125619047Y-91635657D02*
X125666666Y-91730895D01*
X125666666Y-91730895D02*
X125666666Y-91873752D01*
X125666666Y-91873752D02*
X125619047Y-91968990D01*
X125619047Y-91968990D02*
X125571428Y-92016609D01*
X125571428Y-92016609D02*
X125476190Y-92064228D01*
X125476190Y-92064228D02*
X125095238Y-92064228D01*
X126095238Y-92016609D02*
X126428571Y-92016609D01*
X126571428Y-92540419D02*
X126095238Y-92540419D01*
X126095238Y-92540419D02*
X126095238Y-91540419D01*
X126095238Y-91540419D02*
X126571428Y-91540419D01*
X127333333Y-92016609D02*
X127000000Y-92016609D01*
X127000000Y-92540419D02*
X127000000Y-91540419D01*
X127000000Y-91540419D02*
X127476190Y-91540419D01*
X128000000Y-91540419D02*
X128000000Y-91778514D01*
X127761905Y-91683276D02*
X128000000Y-91778514D01*
X128000000Y-91778514D02*
X128238095Y-91683276D01*
X127857143Y-91968990D02*
X128000000Y-91778514D01*
X128000000Y-91778514D02*
X128142857Y-91968990D01*
X128761905Y-91540419D02*
X128761905Y-91778514D01*
X128523810Y-91683276D02*
X128761905Y-91778514D01*
X128761905Y-91778514D02*
X129000000Y-91683276D01*
X128619048Y-91968990D02*
X128761905Y-91778514D01*
X128761905Y-91778514D02*
X128904762Y-91968990D01*
X112966666Y-137447619D02*
X112633333Y-136971428D01*
X112395238Y-137447619D02*
X112395238Y-136447619D01*
X112395238Y-136447619D02*
X112776190Y-136447619D01*
X112776190Y-136447619D02*
X112871428Y-136495238D01*
X112871428Y-136495238D02*
X112919047Y-136542857D01*
X112919047Y-136542857D02*
X112966666Y-136638095D01*
X112966666Y-136638095D02*
X112966666Y-136780952D01*
X112966666Y-136780952D02*
X112919047Y-136876190D01*
X112919047Y-136876190D02*
X112871428Y-136923809D01*
X112871428Y-136923809D02*
X112776190Y-136971428D01*
X112776190Y-136971428D02*
X112395238Y-136971428D01*
X113395238Y-136923809D02*
X113728571Y-136923809D01*
X113871428Y-137447619D02*
X113395238Y-137447619D01*
X113395238Y-137447619D02*
X113395238Y-136447619D01*
X113395238Y-136447619D02*
X113871428Y-136447619D01*
X114633333Y-136923809D02*
X114300000Y-136923809D01*
X114300000Y-137447619D02*
X114300000Y-136447619D01*
X114300000Y-136447619D02*
X114776190Y-136447619D01*
X115300000Y-136447619D02*
X115300000Y-136685714D01*
X115061905Y-136590476D02*
X115300000Y-136685714D01*
X115300000Y-136685714D02*
X115538095Y-136590476D01*
X115157143Y-136876190D02*
X115300000Y-136685714D01*
X115300000Y-136685714D02*
X115442857Y-136876190D01*
X116061905Y-136447619D02*
X116061905Y-136685714D01*
X115823810Y-136590476D02*
X116061905Y-136685714D01*
X116061905Y-136685714D02*
X116300000Y-136590476D01*
X115919048Y-136876190D02*
X116061905Y-136685714D01*
X116061905Y-136685714D02*
X116204762Y-136876190D01*
X128714666Y-151595419D02*
X128381333Y-151119228D01*
X128143238Y-151595419D02*
X128143238Y-150595419D01*
X128143238Y-150595419D02*
X128524190Y-150595419D01*
X128524190Y-150595419D02*
X128619428Y-150643038D01*
X128619428Y-150643038D02*
X128667047Y-150690657D01*
X128667047Y-150690657D02*
X128714666Y-150785895D01*
X128714666Y-150785895D02*
X128714666Y-150928752D01*
X128714666Y-150928752D02*
X128667047Y-151023990D01*
X128667047Y-151023990D02*
X128619428Y-151071609D01*
X128619428Y-151071609D02*
X128524190Y-151119228D01*
X128524190Y-151119228D02*
X128143238Y-151119228D01*
X129143238Y-151071609D02*
X129476571Y-151071609D01*
X129619428Y-151595419D02*
X129143238Y-151595419D01*
X129143238Y-151595419D02*
X129143238Y-150595419D01*
X129143238Y-150595419D02*
X129619428Y-150595419D01*
X130381333Y-151071609D02*
X130048000Y-151071609D01*
X130048000Y-151595419D02*
X130048000Y-150595419D01*
X130048000Y-150595419D02*
X130524190Y-150595419D01*
X131048000Y-150595419D02*
X131048000Y-150833514D01*
X130809905Y-150738276D02*
X131048000Y-150833514D01*
X131048000Y-150833514D02*
X131286095Y-150738276D01*
X130905143Y-151023990D02*
X131048000Y-150833514D01*
X131048000Y-150833514D02*
X131190857Y-151023990D01*
X131809905Y-150595419D02*
X131809905Y-150833514D01*
X131571810Y-150738276D02*
X131809905Y-150833514D01*
X131809905Y-150833514D02*
X132048000Y-150738276D01*
X131667048Y-151023990D02*
X131809905Y-150833514D01*
X131809905Y-150833514D02*
X131952762Y-151023990D01*
X100266666Y-92540419D02*
X99933333Y-92064228D01*
X99695238Y-92540419D02*
X99695238Y-91540419D01*
X99695238Y-91540419D02*
X100076190Y-91540419D01*
X100076190Y-91540419D02*
X100171428Y-91588038D01*
X100171428Y-91588038D02*
X100219047Y-91635657D01*
X100219047Y-91635657D02*
X100266666Y-91730895D01*
X100266666Y-91730895D02*
X100266666Y-91873752D01*
X100266666Y-91873752D02*
X100219047Y-91968990D01*
X100219047Y-91968990D02*
X100171428Y-92016609D01*
X100171428Y-92016609D02*
X100076190Y-92064228D01*
X100076190Y-92064228D02*
X99695238Y-92064228D01*
X100695238Y-92016609D02*
X101028571Y-92016609D01*
X101171428Y-92540419D02*
X100695238Y-92540419D01*
X100695238Y-92540419D02*
X100695238Y-91540419D01*
X100695238Y-91540419D02*
X101171428Y-91540419D01*
X101933333Y-92016609D02*
X101600000Y-92016609D01*
X101600000Y-92540419D02*
X101600000Y-91540419D01*
X101600000Y-91540419D02*
X102076190Y-91540419D01*
X102600000Y-91540419D02*
X102600000Y-91778514D01*
X102361905Y-91683276D02*
X102600000Y-91778514D01*
X102600000Y-91778514D02*
X102838095Y-91683276D01*
X102457143Y-91968990D02*
X102600000Y-91778514D01*
X102600000Y-91778514D02*
X102742857Y-91968990D01*
X103361905Y-91540419D02*
X103361905Y-91778514D01*
X103123810Y-91683276D02*
X103361905Y-91778514D01*
X103361905Y-91778514D02*
X103600000Y-91683276D01*
X103219048Y-91968990D02*
X103361905Y-91778514D01*
X103361905Y-91778514D02*
X103504762Y-91968990D01*
X128714666Y-164295419D02*
X128381333Y-163819228D01*
X128143238Y-164295419D02*
X128143238Y-163295419D01*
X128143238Y-163295419D02*
X128524190Y-163295419D01*
X128524190Y-163295419D02*
X128619428Y-163343038D01*
X128619428Y-163343038D02*
X128667047Y-163390657D01*
X128667047Y-163390657D02*
X128714666Y-163485895D01*
X128714666Y-163485895D02*
X128714666Y-163628752D01*
X128714666Y-163628752D02*
X128667047Y-163723990D01*
X128667047Y-163723990D02*
X128619428Y-163771609D01*
X128619428Y-163771609D02*
X128524190Y-163819228D01*
X128524190Y-163819228D02*
X128143238Y-163819228D01*
X129143238Y-163771609D02*
X129476571Y-163771609D01*
X129619428Y-164295419D02*
X129143238Y-164295419D01*
X129143238Y-164295419D02*
X129143238Y-163295419D01*
X129143238Y-163295419D02*
X129619428Y-163295419D01*
X130381333Y-163771609D02*
X130048000Y-163771609D01*
X130048000Y-164295419D02*
X130048000Y-163295419D01*
X130048000Y-163295419D02*
X130524190Y-163295419D01*
X131048000Y-163295419D02*
X131048000Y-163533514D01*
X130809905Y-163438276D02*
X131048000Y-163533514D01*
X131048000Y-163533514D02*
X131286095Y-163438276D01*
X130905143Y-163723990D02*
X131048000Y-163533514D01*
X131048000Y-163533514D02*
X131190857Y-163723990D01*
X131809905Y-163295419D02*
X131809905Y-163533514D01*
X131571810Y-163438276D02*
X131809905Y-163533514D01*
X131809905Y-163533514D02*
X132048000Y-163438276D01*
X131667048Y-163723990D02*
X131809905Y-163533514D01*
X131809905Y-163533514D02*
X131952762Y-163723990D01*
X96202666Y-176106419D02*
X95869333Y-175630228D01*
X95631238Y-176106419D02*
X95631238Y-175106419D01*
X95631238Y-175106419D02*
X96012190Y-175106419D01*
X96012190Y-175106419D02*
X96107428Y-175154038D01*
X96107428Y-175154038D02*
X96155047Y-175201657D01*
X96155047Y-175201657D02*
X96202666Y-175296895D01*
X96202666Y-175296895D02*
X96202666Y-175439752D01*
X96202666Y-175439752D02*
X96155047Y-175534990D01*
X96155047Y-175534990D02*
X96107428Y-175582609D01*
X96107428Y-175582609D02*
X96012190Y-175630228D01*
X96012190Y-175630228D02*
X95631238Y-175630228D01*
X96631238Y-175582609D02*
X96964571Y-175582609D01*
X97107428Y-176106419D02*
X96631238Y-176106419D01*
X96631238Y-176106419D02*
X96631238Y-175106419D01*
X96631238Y-175106419D02*
X97107428Y-175106419D01*
X97869333Y-175582609D02*
X97536000Y-175582609D01*
X97536000Y-176106419D02*
X97536000Y-175106419D01*
X97536000Y-175106419D02*
X98012190Y-175106419D01*
X98536000Y-175106419D02*
X98536000Y-175344514D01*
X98297905Y-175249276D02*
X98536000Y-175344514D01*
X98536000Y-175344514D02*
X98774095Y-175249276D01*
X98393143Y-175534990D02*
X98536000Y-175344514D01*
X98536000Y-175344514D02*
X98678857Y-175534990D01*
X99297905Y-175106419D02*
X99297905Y-175344514D01*
X99059810Y-175249276D02*
X99297905Y-175344514D01*
X99297905Y-175344514D02*
X99536000Y-175249276D01*
X99155048Y-175534990D02*
X99297905Y-175344514D01*
X99297905Y-175344514D02*
X99440762Y-175534990D01*
X125666666Y-67140419D02*
X125333333Y-66664228D01*
X125095238Y-67140419D02*
X125095238Y-66140419D01*
X125095238Y-66140419D02*
X125476190Y-66140419D01*
X125476190Y-66140419D02*
X125571428Y-66188038D01*
X125571428Y-66188038D02*
X125619047Y-66235657D01*
X125619047Y-66235657D02*
X125666666Y-66330895D01*
X125666666Y-66330895D02*
X125666666Y-66473752D01*
X125666666Y-66473752D02*
X125619047Y-66568990D01*
X125619047Y-66568990D02*
X125571428Y-66616609D01*
X125571428Y-66616609D02*
X125476190Y-66664228D01*
X125476190Y-66664228D02*
X125095238Y-66664228D01*
X126095238Y-66616609D02*
X126428571Y-66616609D01*
X126571428Y-67140419D02*
X126095238Y-67140419D01*
X126095238Y-67140419D02*
X126095238Y-66140419D01*
X126095238Y-66140419D02*
X126571428Y-66140419D01*
X127333333Y-66616609D02*
X127000000Y-66616609D01*
X127000000Y-67140419D02*
X127000000Y-66140419D01*
X127000000Y-66140419D02*
X127476190Y-66140419D01*
X128000000Y-66140419D02*
X128000000Y-66378514D01*
X127761905Y-66283276D02*
X128000000Y-66378514D01*
X128000000Y-66378514D02*
X128238095Y-66283276D01*
X127857143Y-66568990D02*
X128000000Y-66378514D01*
X128000000Y-66378514D02*
X128142857Y-66568990D01*
X128761905Y-66140419D02*
X128761905Y-66378514D01*
X128523810Y-66283276D02*
X128761905Y-66378514D01*
X128761905Y-66378514D02*
X129000000Y-66283276D01*
X128619048Y-66568990D02*
X128761905Y-66378514D01*
X128761905Y-66378514D02*
X128904762Y-66568990D01*
X112966666Y-151595419D02*
X112633333Y-151119228D01*
X112395238Y-151595419D02*
X112395238Y-150595419D01*
X112395238Y-150595419D02*
X112776190Y-150595419D01*
X112776190Y-150595419D02*
X112871428Y-150643038D01*
X112871428Y-150643038D02*
X112919047Y-150690657D01*
X112919047Y-150690657D02*
X112966666Y-150785895D01*
X112966666Y-150785895D02*
X112966666Y-150928752D01*
X112966666Y-150928752D02*
X112919047Y-151023990D01*
X112919047Y-151023990D02*
X112871428Y-151071609D01*
X112871428Y-151071609D02*
X112776190Y-151119228D01*
X112776190Y-151119228D02*
X112395238Y-151119228D01*
X113395238Y-151071609D02*
X113728571Y-151071609D01*
X113871428Y-151595419D02*
X113395238Y-151595419D01*
X113395238Y-151595419D02*
X113395238Y-150595419D01*
X113395238Y-150595419D02*
X113871428Y-150595419D01*
X114633333Y-151071609D02*
X114300000Y-151071609D01*
X114300000Y-151595419D02*
X114300000Y-150595419D01*
X114300000Y-150595419D02*
X114776190Y-150595419D01*
X115300000Y-150595419D02*
X115300000Y-150833514D01*
X115061905Y-150738276D02*
X115300000Y-150833514D01*
X115300000Y-150833514D02*
X115538095Y-150738276D01*
X115157143Y-151023990D02*
X115300000Y-150833514D01*
X115300000Y-150833514D02*
X115442857Y-151023990D01*
X116061905Y-150595419D02*
X116061905Y-150833514D01*
X115823810Y-150738276D02*
X116061905Y-150833514D01*
X116061905Y-150833514D02*
X116300000Y-150738276D01*
X115919048Y-151023990D02*
X116061905Y-150833514D01*
X116061905Y-150833514D02*
X116204762Y-151023990D01*
X97218666Y-151595419D02*
X96885333Y-151119228D01*
X96647238Y-151595419D02*
X96647238Y-150595419D01*
X96647238Y-150595419D02*
X97028190Y-150595419D01*
X97028190Y-150595419D02*
X97123428Y-150643038D01*
X97123428Y-150643038D02*
X97171047Y-150690657D01*
X97171047Y-150690657D02*
X97218666Y-150785895D01*
X97218666Y-150785895D02*
X97218666Y-150928752D01*
X97218666Y-150928752D02*
X97171047Y-151023990D01*
X97171047Y-151023990D02*
X97123428Y-151071609D01*
X97123428Y-151071609D02*
X97028190Y-151119228D01*
X97028190Y-151119228D02*
X96647238Y-151119228D01*
X97647238Y-151071609D02*
X97980571Y-151071609D01*
X98123428Y-151595419D02*
X97647238Y-151595419D01*
X97647238Y-151595419D02*
X97647238Y-150595419D01*
X97647238Y-150595419D02*
X98123428Y-150595419D01*
X98885333Y-151071609D02*
X98552000Y-151071609D01*
X98552000Y-151595419D02*
X98552000Y-150595419D01*
X98552000Y-150595419D02*
X99028190Y-150595419D01*
X99552000Y-150595419D02*
X99552000Y-150833514D01*
X99313905Y-150738276D02*
X99552000Y-150833514D01*
X99552000Y-150833514D02*
X99790095Y-150738276D01*
X99409143Y-151023990D02*
X99552000Y-150833514D01*
X99552000Y-150833514D02*
X99694857Y-151023990D01*
X100313905Y-150595419D02*
X100313905Y-150833514D01*
X100075810Y-150738276D02*
X100313905Y-150833514D01*
X100313905Y-150833514D02*
X100552000Y-150738276D01*
X100171048Y-151023990D02*
X100313905Y-150833514D01*
X100313905Y-150833514D02*
X100456762Y-151023990D01*
X100266666Y-117940419D02*
X99933333Y-117464228D01*
X99695238Y-117940419D02*
X99695238Y-116940419D01*
X99695238Y-116940419D02*
X100076190Y-116940419D01*
X100076190Y-116940419D02*
X100171428Y-116988038D01*
X100171428Y-116988038D02*
X100219047Y-117035657D01*
X100219047Y-117035657D02*
X100266666Y-117130895D01*
X100266666Y-117130895D02*
X100266666Y-117273752D01*
X100266666Y-117273752D02*
X100219047Y-117368990D01*
X100219047Y-117368990D02*
X100171428Y-117416609D01*
X100171428Y-117416609D02*
X100076190Y-117464228D01*
X100076190Y-117464228D02*
X99695238Y-117464228D01*
X100695238Y-117416609D02*
X101028571Y-117416609D01*
X101171428Y-117940419D02*
X100695238Y-117940419D01*
X100695238Y-117940419D02*
X100695238Y-116940419D01*
X100695238Y-116940419D02*
X101171428Y-116940419D01*
X101933333Y-117416609D02*
X101600000Y-117416609D01*
X101600000Y-117940419D02*
X101600000Y-116940419D01*
X101600000Y-116940419D02*
X102076190Y-116940419D01*
X102600000Y-116940419D02*
X102600000Y-117178514D01*
X102361905Y-117083276D02*
X102600000Y-117178514D01*
X102600000Y-117178514D02*
X102838095Y-117083276D01*
X102457143Y-117368990D02*
X102600000Y-117178514D01*
X102600000Y-117178514D02*
X102742857Y-117368990D01*
X103361905Y-116940419D02*
X103361905Y-117178514D01*
X103123810Y-117083276D02*
X103361905Y-117178514D01*
X103361905Y-117178514D02*
X103600000Y-117083276D01*
X103219048Y-117368990D02*
X103361905Y-117178514D01*
X103361905Y-117178514D02*
X103504762Y-117368990D01*
X96202666Y-53678419D02*
X95869333Y-53202228D01*
X95631238Y-53678419D02*
X95631238Y-52678419D01*
X95631238Y-52678419D02*
X96012190Y-52678419D01*
X96012190Y-52678419D02*
X96107428Y-52726038D01*
X96107428Y-52726038D02*
X96155047Y-52773657D01*
X96155047Y-52773657D02*
X96202666Y-52868895D01*
X96202666Y-52868895D02*
X96202666Y-53011752D01*
X96202666Y-53011752D02*
X96155047Y-53106990D01*
X96155047Y-53106990D02*
X96107428Y-53154609D01*
X96107428Y-53154609D02*
X96012190Y-53202228D01*
X96012190Y-53202228D02*
X95631238Y-53202228D01*
X96631238Y-53154609D02*
X96964571Y-53154609D01*
X97107428Y-53678419D02*
X96631238Y-53678419D01*
X96631238Y-53678419D02*
X96631238Y-52678419D01*
X96631238Y-52678419D02*
X97107428Y-52678419D01*
X97869333Y-53154609D02*
X97536000Y-53154609D01*
X97536000Y-53678419D02*
X97536000Y-52678419D01*
X97536000Y-52678419D02*
X98012190Y-52678419D01*
X98536000Y-52678419D02*
X98536000Y-52916514D01*
X98297905Y-52821276D02*
X98536000Y-52916514D01*
X98536000Y-52916514D02*
X98774095Y-52821276D01*
X98393143Y-53106990D02*
X98536000Y-52916514D01*
X98536000Y-52916514D02*
X98678857Y-53106990D01*
X99297905Y-52678419D02*
X99297905Y-52916514D01*
X99059810Y-52821276D02*
X99297905Y-52916514D01*
X99297905Y-52916514D02*
X99536000Y-52821276D01*
X99155048Y-53106990D02*
X99297905Y-52916514D01*
X99297905Y-52916514D02*
X99440762Y-53106990D01*
M02*
