%TF.GenerationSoftware,KiCad,Pcbnew,7.0.1*%
%TF.CreationDate,2024-09-15T16:09:11-04:00*%
%TF.ProjectId,output module,6f757470-7574-4206-9d6f-64756c652e6b,A*%
%TF.SameCoordinates,Original*%
%TF.FileFunction,Legend,Bot*%
%TF.FilePolarity,Positive*%
%FSLAX46Y46*%
G04 Gerber Fmt 4.6, Leading zero omitted, Abs format (unit mm)*
G04 Created by KiCad (PCBNEW 7.0.1) date 2024-09-15 16:09:11*
%MOMM*%
%LPD*%
G01*
G04 APERTURE LIST*
%ADD10C,0.150000*%
%ADD11C,0.100000*%
%ADD12C,0.120000*%
%ADD13C,1.000000*%
G04 APERTURE END LIST*
D10*
X73234619Y-53895571D02*
X73234619Y-54086047D01*
X73234619Y-54086047D02*
X73282238Y-54181285D01*
X73282238Y-54181285D02*
X73377476Y-54276523D01*
X73377476Y-54276523D02*
X73567952Y-54324142D01*
X73567952Y-54324142D02*
X73901285Y-54324142D01*
X73901285Y-54324142D02*
X74091761Y-54276523D01*
X74091761Y-54276523D02*
X74187000Y-54181285D01*
X74187000Y-54181285D02*
X74234619Y-54086047D01*
X74234619Y-54086047D02*
X74234619Y-53895571D01*
X74234619Y-53895571D02*
X74187000Y-53800333D01*
X74187000Y-53800333D02*
X74091761Y-53705095D01*
X74091761Y-53705095D02*
X73901285Y-53657476D01*
X73901285Y-53657476D02*
X73567952Y-53657476D01*
X73567952Y-53657476D02*
X73377476Y-53705095D01*
X73377476Y-53705095D02*
X73282238Y-53800333D01*
X73282238Y-53800333D02*
X73234619Y-53895571D01*
X73234619Y-54752714D02*
X74044142Y-54752714D01*
X74044142Y-54752714D02*
X74139380Y-54800333D01*
X74139380Y-54800333D02*
X74187000Y-54847952D01*
X74187000Y-54847952D02*
X74234619Y-54943190D01*
X74234619Y-54943190D02*
X74234619Y-55133666D01*
X74234619Y-55133666D02*
X74187000Y-55228904D01*
X74187000Y-55228904D02*
X74139380Y-55276523D01*
X74139380Y-55276523D02*
X74044142Y-55324142D01*
X74044142Y-55324142D02*
X73234619Y-55324142D01*
X73234619Y-55657476D02*
X73234619Y-56228904D01*
X74234619Y-55943190D02*
X73234619Y-55943190D01*
X74234619Y-56562238D02*
X73234619Y-56562238D01*
X73234619Y-56562238D02*
X73234619Y-56943190D01*
X73234619Y-56943190D02*
X73282238Y-57038428D01*
X73282238Y-57038428D02*
X73329857Y-57086047D01*
X73329857Y-57086047D02*
X73425095Y-57133666D01*
X73425095Y-57133666D02*
X73567952Y-57133666D01*
X73567952Y-57133666D02*
X73663190Y-57086047D01*
X73663190Y-57086047D02*
X73710809Y-57038428D01*
X73710809Y-57038428D02*
X73758428Y-56943190D01*
X73758428Y-56943190D02*
X73758428Y-56562238D01*
X73234619Y-57562238D02*
X74044142Y-57562238D01*
X74044142Y-57562238D02*
X74139380Y-57609857D01*
X74139380Y-57609857D02*
X74187000Y-57657476D01*
X74187000Y-57657476D02*
X74234619Y-57752714D01*
X74234619Y-57752714D02*
X74234619Y-57943190D01*
X74234619Y-57943190D02*
X74187000Y-58038428D01*
X74187000Y-58038428D02*
X74139380Y-58086047D01*
X74139380Y-58086047D02*
X74044142Y-58133666D01*
X74044142Y-58133666D02*
X73234619Y-58133666D01*
X73234619Y-58467000D02*
X73234619Y-59038428D01*
X74234619Y-58752714D02*
X73234619Y-58752714D01*
X74234619Y-60133667D02*
X73234619Y-60133667D01*
X73234619Y-60133667D02*
X73948904Y-60467000D01*
X73948904Y-60467000D02*
X73234619Y-60800333D01*
X73234619Y-60800333D02*
X74234619Y-60800333D01*
X73234619Y-61467000D02*
X73234619Y-61657476D01*
X73234619Y-61657476D02*
X73282238Y-61752714D01*
X73282238Y-61752714D02*
X73377476Y-61847952D01*
X73377476Y-61847952D02*
X73567952Y-61895571D01*
X73567952Y-61895571D02*
X73901285Y-61895571D01*
X73901285Y-61895571D02*
X74091761Y-61847952D01*
X74091761Y-61847952D02*
X74187000Y-61752714D01*
X74187000Y-61752714D02*
X74234619Y-61657476D01*
X74234619Y-61657476D02*
X74234619Y-61467000D01*
X74234619Y-61467000D02*
X74187000Y-61371762D01*
X74187000Y-61371762D02*
X74091761Y-61276524D01*
X74091761Y-61276524D02*
X73901285Y-61228905D01*
X73901285Y-61228905D02*
X73567952Y-61228905D01*
X73567952Y-61228905D02*
X73377476Y-61276524D01*
X73377476Y-61276524D02*
X73282238Y-61371762D01*
X73282238Y-61371762D02*
X73234619Y-61467000D01*
X74234619Y-62324143D02*
X73234619Y-62324143D01*
X73234619Y-62324143D02*
X73234619Y-62562238D01*
X73234619Y-62562238D02*
X73282238Y-62705095D01*
X73282238Y-62705095D02*
X73377476Y-62800333D01*
X73377476Y-62800333D02*
X73472714Y-62847952D01*
X73472714Y-62847952D02*
X73663190Y-62895571D01*
X73663190Y-62895571D02*
X73806047Y-62895571D01*
X73806047Y-62895571D02*
X73996523Y-62847952D01*
X73996523Y-62847952D02*
X74091761Y-62800333D01*
X74091761Y-62800333D02*
X74187000Y-62705095D01*
X74187000Y-62705095D02*
X74234619Y-62562238D01*
X74234619Y-62562238D02*
X74234619Y-62324143D01*
X73234619Y-63324143D02*
X74044142Y-63324143D01*
X74044142Y-63324143D02*
X74139380Y-63371762D01*
X74139380Y-63371762D02*
X74187000Y-63419381D01*
X74187000Y-63419381D02*
X74234619Y-63514619D01*
X74234619Y-63514619D02*
X74234619Y-63705095D01*
X74234619Y-63705095D02*
X74187000Y-63800333D01*
X74187000Y-63800333D02*
X74139380Y-63847952D01*
X74139380Y-63847952D02*
X74044142Y-63895571D01*
X74044142Y-63895571D02*
X73234619Y-63895571D01*
X74234619Y-64847952D02*
X74234619Y-64371762D01*
X74234619Y-64371762D02*
X73234619Y-64371762D01*
X73710809Y-65181286D02*
X73710809Y-65514619D01*
X74234619Y-65657476D02*
X74234619Y-65181286D01*
X74234619Y-65181286D02*
X73234619Y-65181286D01*
X73234619Y-65181286D02*
X73234619Y-65657476D01*
X75854619Y-53705095D02*
X74854619Y-53705095D01*
X75807000Y-54133666D02*
X75854619Y-54276523D01*
X75854619Y-54276523D02*
X75854619Y-54514618D01*
X75854619Y-54514618D02*
X75807000Y-54609856D01*
X75807000Y-54609856D02*
X75759380Y-54657475D01*
X75759380Y-54657475D02*
X75664142Y-54705094D01*
X75664142Y-54705094D02*
X75568904Y-54705094D01*
X75568904Y-54705094D02*
X75473666Y-54657475D01*
X75473666Y-54657475D02*
X75426047Y-54609856D01*
X75426047Y-54609856D02*
X75378428Y-54514618D01*
X75378428Y-54514618D02*
X75330809Y-54324142D01*
X75330809Y-54324142D02*
X75283190Y-54228904D01*
X75283190Y-54228904D02*
X75235571Y-54181285D01*
X75235571Y-54181285D02*
X75140333Y-54133666D01*
X75140333Y-54133666D02*
X75045095Y-54133666D01*
X75045095Y-54133666D02*
X74949857Y-54181285D01*
X74949857Y-54181285D02*
X74902238Y-54228904D01*
X74902238Y-54228904D02*
X74854619Y-54324142D01*
X74854619Y-54324142D02*
X74854619Y-54562237D01*
X74854619Y-54562237D02*
X74902238Y-54705094D01*
X75807000Y-55086047D02*
X75854619Y-55228904D01*
X75854619Y-55228904D02*
X75854619Y-55466999D01*
X75854619Y-55466999D02*
X75807000Y-55562237D01*
X75807000Y-55562237D02*
X75759380Y-55609856D01*
X75759380Y-55609856D02*
X75664142Y-55657475D01*
X75664142Y-55657475D02*
X75568904Y-55657475D01*
X75568904Y-55657475D02*
X75473666Y-55609856D01*
X75473666Y-55609856D02*
X75426047Y-55562237D01*
X75426047Y-55562237D02*
X75378428Y-55466999D01*
X75378428Y-55466999D02*
X75330809Y-55276523D01*
X75330809Y-55276523D02*
X75283190Y-55181285D01*
X75283190Y-55181285D02*
X75235571Y-55133666D01*
X75235571Y-55133666D02*
X75140333Y-55086047D01*
X75140333Y-55086047D02*
X75045095Y-55086047D01*
X75045095Y-55086047D02*
X74949857Y-55133666D01*
X74949857Y-55133666D02*
X74902238Y-55181285D01*
X74902238Y-55181285D02*
X74854619Y-55276523D01*
X74854619Y-55276523D02*
X74854619Y-55514618D01*
X74854619Y-55514618D02*
X74902238Y-55657475D01*
X75473666Y-56086047D02*
X75473666Y-56847952D01*
X75568904Y-57276523D02*
X75568904Y-57752713D01*
X75854619Y-57181285D02*
X74854619Y-57514618D01*
X74854619Y-57514618D02*
X75854619Y-57847951D01*
X77427000Y-53657476D02*
X77474619Y-53800333D01*
X77474619Y-53800333D02*
X77474619Y-54038428D01*
X77474619Y-54038428D02*
X77427000Y-54133666D01*
X77427000Y-54133666D02*
X77379380Y-54181285D01*
X77379380Y-54181285D02*
X77284142Y-54228904D01*
X77284142Y-54228904D02*
X77188904Y-54228904D01*
X77188904Y-54228904D02*
X77093666Y-54181285D01*
X77093666Y-54181285D02*
X77046047Y-54133666D01*
X77046047Y-54133666D02*
X76998428Y-54038428D01*
X76998428Y-54038428D02*
X76950809Y-53847952D01*
X76950809Y-53847952D02*
X76903190Y-53752714D01*
X76903190Y-53752714D02*
X76855571Y-53705095D01*
X76855571Y-53705095D02*
X76760333Y-53657476D01*
X76760333Y-53657476D02*
X76665095Y-53657476D01*
X76665095Y-53657476D02*
X76569857Y-53705095D01*
X76569857Y-53705095D02*
X76522238Y-53752714D01*
X76522238Y-53752714D02*
X76474619Y-53847952D01*
X76474619Y-53847952D02*
X76474619Y-54086047D01*
X76474619Y-54086047D02*
X76522238Y-54228904D01*
X76474619Y-54514619D02*
X77474619Y-54847952D01*
X77474619Y-54847952D02*
X76474619Y-55181285D01*
X76522238Y-56038428D02*
X76474619Y-55943190D01*
X76474619Y-55943190D02*
X76474619Y-55800333D01*
X76474619Y-55800333D02*
X76522238Y-55657476D01*
X76522238Y-55657476D02*
X76617476Y-55562238D01*
X76617476Y-55562238D02*
X76712714Y-55514619D01*
X76712714Y-55514619D02*
X76903190Y-55467000D01*
X76903190Y-55467000D02*
X77046047Y-55467000D01*
X77046047Y-55467000D02*
X77236523Y-55514619D01*
X77236523Y-55514619D02*
X77331761Y-55562238D01*
X77331761Y-55562238D02*
X77427000Y-55657476D01*
X77427000Y-55657476D02*
X77474619Y-55800333D01*
X77474619Y-55800333D02*
X77474619Y-55895571D01*
X77474619Y-55895571D02*
X77427000Y-56038428D01*
X77427000Y-56038428D02*
X77379380Y-56086047D01*
X77379380Y-56086047D02*
X77046047Y-56086047D01*
X77046047Y-56086047D02*
X77046047Y-55895571D01*
X77427000Y-57228905D02*
X77474619Y-57371762D01*
X77474619Y-57371762D02*
X77474619Y-57609857D01*
X77474619Y-57609857D02*
X77427000Y-57705095D01*
X77427000Y-57705095D02*
X77379380Y-57752714D01*
X77379380Y-57752714D02*
X77284142Y-57800333D01*
X77284142Y-57800333D02*
X77188904Y-57800333D01*
X77188904Y-57800333D02*
X77093666Y-57752714D01*
X77093666Y-57752714D02*
X77046047Y-57705095D01*
X77046047Y-57705095D02*
X76998428Y-57609857D01*
X76998428Y-57609857D02*
X76950809Y-57419381D01*
X76950809Y-57419381D02*
X76903190Y-57324143D01*
X76903190Y-57324143D02*
X76855571Y-57276524D01*
X76855571Y-57276524D02*
X76760333Y-57228905D01*
X76760333Y-57228905D02*
X76665095Y-57228905D01*
X76665095Y-57228905D02*
X76569857Y-57276524D01*
X76569857Y-57276524D02*
X76522238Y-57324143D01*
X76522238Y-57324143D02*
X76474619Y-57419381D01*
X76474619Y-57419381D02*
X76474619Y-57657476D01*
X76474619Y-57657476D02*
X76522238Y-57800333D01*
X76998428Y-58419381D02*
X77474619Y-58419381D01*
X76474619Y-58086048D02*
X76998428Y-58419381D01*
X76998428Y-58419381D02*
X76474619Y-58752714D01*
X77474619Y-59086048D02*
X76474619Y-59086048D01*
X76474619Y-59086048D02*
X77474619Y-59657476D01*
X77474619Y-59657476D02*
X76474619Y-59657476D01*
X76474619Y-59990810D02*
X76474619Y-60562238D01*
X77474619Y-60276524D02*
X76474619Y-60276524D01*
X77474619Y-60895572D02*
X76474619Y-60895572D01*
X76950809Y-60895572D02*
X76950809Y-61467000D01*
X77474619Y-61467000D02*
X76474619Y-61467000D01*
X76950809Y-61943191D02*
X76950809Y-62276524D01*
X77474619Y-62419381D02*
X77474619Y-61943191D01*
X77474619Y-61943191D02*
X76474619Y-61943191D01*
X76474619Y-61943191D02*
X76474619Y-62419381D01*
X77427000Y-62800334D02*
X77474619Y-62943191D01*
X77474619Y-62943191D02*
X77474619Y-63181286D01*
X77474619Y-63181286D02*
X77427000Y-63276524D01*
X77427000Y-63276524D02*
X77379380Y-63324143D01*
X77379380Y-63324143D02*
X77284142Y-63371762D01*
X77284142Y-63371762D02*
X77188904Y-63371762D01*
X77188904Y-63371762D02*
X77093666Y-63324143D01*
X77093666Y-63324143D02*
X77046047Y-63276524D01*
X77046047Y-63276524D02*
X76998428Y-63181286D01*
X76998428Y-63181286D02*
X76950809Y-62990810D01*
X76950809Y-62990810D02*
X76903190Y-62895572D01*
X76903190Y-62895572D02*
X76855571Y-62847953D01*
X76855571Y-62847953D02*
X76760333Y-62800334D01*
X76760333Y-62800334D02*
X76665095Y-62800334D01*
X76665095Y-62800334D02*
X76569857Y-62847953D01*
X76569857Y-62847953D02*
X76522238Y-62895572D01*
X76522238Y-62895572D02*
X76474619Y-62990810D01*
X76474619Y-62990810D02*
X76474619Y-63228905D01*
X76474619Y-63228905D02*
X76522238Y-63371762D01*
X77474619Y-63800334D02*
X76474619Y-63800334D01*
X77427000Y-64228905D02*
X77474619Y-64371762D01*
X77474619Y-64371762D02*
X77474619Y-64609857D01*
X77474619Y-64609857D02*
X77427000Y-64705095D01*
X77427000Y-64705095D02*
X77379380Y-64752714D01*
X77379380Y-64752714D02*
X77284142Y-64800333D01*
X77284142Y-64800333D02*
X77188904Y-64800333D01*
X77188904Y-64800333D02*
X77093666Y-64752714D01*
X77093666Y-64752714D02*
X77046047Y-64705095D01*
X77046047Y-64705095D02*
X76998428Y-64609857D01*
X76998428Y-64609857D02*
X76950809Y-64419381D01*
X76950809Y-64419381D02*
X76903190Y-64324143D01*
X76903190Y-64324143D02*
X76855571Y-64276524D01*
X76855571Y-64276524D02*
X76760333Y-64228905D01*
X76760333Y-64228905D02*
X76665095Y-64228905D01*
X76665095Y-64228905D02*
X76569857Y-64276524D01*
X76569857Y-64276524D02*
X76522238Y-64324143D01*
X76522238Y-64324143D02*
X76474619Y-64419381D01*
X76474619Y-64419381D02*
X76474619Y-64657476D01*
X76474619Y-64657476D02*
X76522238Y-64800333D01*
%TO.C,U2*%
X94487904Y-148439619D02*
X94487904Y-149249142D01*
X94487904Y-149249142D02*
X94440285Y-149344380D01*
X94440285Y-149344380D02*
X94392666Y-149392000D01*
X94392666Y-149392000D02*
X94297428Y-149439619D01*
X94297428Y-149439619D02*
X94106952Y-149439619D01*
X94106952Y-149439619D02*
X94011714Y-149392000D01*
X94011714Y-149392000D02*
X93964095Y-149344380D01*
X93964095Y-149344380D02*
X93916476Y-149249142D01*
X93916476Y-149249142D02*
X93916476Y-148439619D01*
X93487904Y-148534857D02*
X93440285Y-148487238D01*
X93440285Y-148487238D02*
X93345047Y-148439619D01*
X93345047Y-148439619D02*
X93106952Y-148439619D01*
X93106952Y-148439619D02*
X93011714Y-148487238D01*
X93011714Y-148487238D02*
X92964095Y-148534857D01*
X92964095Y-148534857D02*
X92916476Y-148630095D01*
X92916476Y-148630095D02*
X92916476Y-148725333D01*
X92916476Y-148725333D02*
X92964095Y-148868190D01*
X92964095Y-148868190D02*
X93535523Y-149439619D01*
X93535523Y-149439619D02*
X92916476Y-149439619D01*
%TO.C,C11*%
X99194857Y-149846380D02*
X99242476Y-149894000D01*
X99242476Y-149894000D02*
X99385333Y-149941619D01*
X99385333Y-149941619D02*
X99480571Y-149941619D01*
X99480571Y-149941619D02*
X99623428Y-149894000D01*
X99623428Y-149894000D02*
X99718666Y-149798761D01*
X99718666Y-149798761D02*
X99766285Y-149703523D01*
X99766285Y-149703523D02*
X99813904Y-149513047D01*
X99813904Y-149513047D02*
X99813904Y-149370190D01*
X99813904Y-149370190D02*
X99766285Y-149179714D01*
X99766285Y-149179714D02*
X99718666Y-149084476D01*
X99718666Y-149084476D02*
X99623428Y-148989238D01*
X99623428Y-148989238D02*
X99480571Y-148941619D01*
X99480571Y-148941619D02*
X99385333Y-148941619D01*
X99385333Y-148941619D02*
X99242476Y-148989238D01*
X99242476Y-148989238D02*
X99194857Y-149036857D01*
X98242476Y-149941619D02*
X98813904Y-149941619D01*
X98528190Y-149941619D02*
X98528190Y-148941619D01*
X98528190Y-148941619D02*
X98623428Y-149084476D01*
X98623428Y-149084476D02*
X98718666Y-149179714D01*
X98718666Y-149179714D02*
X98813904Y-149227333D01*
X97290095Y-149941619D02*
X97861523Y-149941619D01*
X97575809Y-149941619D02*
X97575809Y-148941619D01*
X97575809Y-148941619D02*
X97671047Y-149084476D01*
X97671047Y-149084476D02*
X97766285Y-149179714D01*
X97766285Y-149179714D02*
X97861523Y-149227333D01*
%TO.C,R27*%
X98940857Y-107650619D02*
X99274190Y-107174428D01*
X99512285Y-107650619D02*
X99512285Y-106650619D01*
X99512285Y-106650619D02*
X99131333Y-106650619D01*
X99131333Y-106650619D02*
X99036095Y-106698238D01*
X99036095Y-106698238D02*
X98988476Y-106745857D01*
X98988476Y-106745857D02*
X98940857Y-106841095D01*
X98940857Y-106841095D02*
X98940857Y-106983952D01*
X98940857Y-106983952D02*
X98988476Y-107079190D01*
X98988476Y-107079190D02*
X99036095Y-107126809D01*
X99036095Y-107126809D02*
X99131333Y-107174428D01*
X99131333Y-107174428D02*
X99512285Y-107174428D01*
X98559904Y-106745857D02*
X98512285Y-106698238D01*
X98512285Y-106698238D02*
X98417047Y-106650619D01*
X98417047Y-106650619D02*
X98178952Y-106650619D01*
X98178952Y-106650619D02*
X98083714Y-106698238D01*
X98083714Y-106698238D02*
X98036095Y-106745857D01*
X98036095Y-106745857D02*
X97988476Y-106841095D01*
X97988476Y-106841095D02*
X97988476Y-106936333D01*
X97988476Y-106936333D02*
X98036095Y-107079190D01*
X98036095Y-107079190D02*
X98607523Y-107650619D01*
X98607523Y-107650619D02*
X97988476Y-107650619D01*
X97655142Y-106650619D02*
X96988476Y-106650619D01*
X96988476Y-106650619D02*
X97417047Y-107650619D01*
%TO.C,J4*%
X106494619Y-147621666D02*
X107208904Y-147621666D01*
X107208904Y-147621666D02*
X107351761Y-147574047D01*
X107351761Y-147574047D02*
X107447000Y-147478809D01*
X107447000Y-147478809D02*
X107494619Y-147335952D01*
X107494619Y-147335952D02*
X107494619Y-147240714D01*
X106827952Y-148526428D02*
X107494619Y-148526428D01*
X106447000Y-148288333D02*
X107161285Y-148050238D01*
X107161285Y-148050238D02*
X107161285Y-148669285D01*
%TO.C,R26*%
X99093257Y-98887619D02*
X99426590Y-98411428D01*
X99664685Y-98887619D02*
X99664685Y-97887619D01*
X99664685Y-97887619D02*
X99283733Y-97887619D01*
X99283733Y-97887619D02*
X99188495Y-97935238D01*
X99188495Y-97935238D02*
X99140876Y-97982857D01*
X99140876Y-97982857D02*
X99093257Y-98078095D01*
X99093257Y-98078095D02*
X99093257Y-98220952D01*
X99093257Y-98220952D02*
X99140876Y-98316190D01*
X99140876Y-98316190D02*
X99188495Y-98363809D01*
X99188495Y-98363809D02*
X99283733Y-98411428D01*
X99283733Y-98411428D02*
X99664685Y-98411428D01*
X98712304Y-97982857D02*
X98664685Y-97935238D01*
X98664685Y-97935238D02*
X98569447Y-97887619D01*
X98569447Y-97887619D02*
X98331352Y-97887619D01*
X98331352Y-97887619D02*
X98236114Y-97935238D01*
X98236114Y-97935238D02*
X98188495Y-97982857D01*
X98188495Y-97982857D02*
X98140876Y-98078095D01*
X98140876Y-98078095D02*
X98140876Y-98173333D01*
X98140876Y-98173333D02*
X98188495Y-98316190D01*
X98188495Y-98316190D02*
X98759923Y-98887619D01*
X98759923Y-98887619D02*
X98140876Y-98887619D01*
X97283733Y-97887619D02*
X97474209Y-97887619D01*
X97474209Y-97887619D02*
X97569447Y-97935238D01*
X97569447Y-97935238D02*
X97617066Y-97982857D01*
X97617066Y-97982857D02*
X97712304Y-98125714D01*
X97712304Y-98125714D02*
X97759923Y-98316190D01*
X97759923Y-98316190D02*
X97759923Y-98697142D01*
X97759923Y-98697142D02*
X97712304Y-98792380D01*
X97712304Y-98792380D02*
X97664685Y-98840000D01*
X97664685Y-98840000D02*
X97569447Y-98887619D01*
X97569447Y-98887619D02*
X97378971Y-98887619D01*
X97378971Y-98887619D02*
X97283733Y-98840000D01*
X97283733Y-98840000D02*
X97236114Y-98792380D01*
X97236114Y-98792380D02*
X97188495Y-98697142D01*
X97188495Y-98697142D02*
X97188495Y-98459047D01*
X97188495Y-98459047D02*
X97236114Y-98363809D01*
X97236114Y-98363809D02*
X97283733Y-98316190D01*
X97283733Y-98316190D02*
X97378971Y-98268571D01*
X97378971Y-98268571D02*
X97569447Y-98268571D01*
X97569447Y-98268571D02*
X97664685Y-98316190D01*
X97664685Y-98316190D02*
X97712304Y-98363809D01*
X97712304Y-98363809D02*
X97759923Y-98459047D01*
%TO.C,R16*%
X94666619Y-93349142D02*
X94190428Y-93015809D01*
X94666619Y-92777714D02*
X93666619Y-92777714D01*
X93666619Y-92777714D02*
X93666619Y-93158666D01*
X93666619Y-93158666D02*
X93714238Y-93253904D01*
X93714238Y-93253904D02*
X93761857Y-93301523D01*
X93761857Y-93301523D02*
X93857095Y-93349142D01*
X93857095Y-93349142D02*
X93999952Y-93349142D01*
X93999952Y-93349142D02*
X94095190Y-93301523D01*
X94095190Y-93301523D02*
X94142809Y-93253904D01*
X94142809Y-93253904D02*
X94190428Y-93158666D01*
X94190428Y-93158666D02*
X94190428Y-92777714D01*
X94666619Y-94301523D02*
X94666619Y-93730095D01*
X94666619Y-94015809D02*
X93666619Y-94015809D01*
X93666619Y-94015809D02*
X93809476Y-93920571D01*
X93809476Y-93920571D02*
X93904714Y-93825333D01*
X93904714Y-93825333D02*
X93952333Y-93730095D01*
X93666619Y-95158666D02*
X93666619Y-94968190D01*
X93666619Y-94968190D02*
X93714238Y-94872952D01*
X93714238Y-94872952D02*
X93761857Y-94825333D01*
X93761857Y-94825333D02*
X93904714Y-94730095D01*
X93904714Y-94730095D02*
X94095190Y-94682476D01*
X94095190Y-94682476D02*
X94476142Y-94682476D01*
X94476142Y-94682476D02*
X94571380Y-94730095D01*
X94571380Y-94730095D02*
X94619000Y-94777714D01*
X94619000Y-94777714D02*
X94666619Y-94872952D01*
X94666619Y-94872952D02*
X94666619Y-95063428D01*
X94666619Y-95063428D02*
X94619000Y-95158666D01*
X94619000Y-95158666D02*
X94571380Y-95206285D01*
X94571380Y-95206285D02*
X94476142Y-95253904D01*
X94476142Y-95253904D02*
X94238047Y-95253904D01*
X94238047Y-95253904D02*
X94142809Y-95206285D01*
X94142809Y-95206285D02*
X94095190Y-95158666D01*
X94095190Y-95158666D02*
X94047571Y-95063428D01*
X94047571Y-95063428D02*
X94047571Y-94872952D01*
X94047571Y-94872952D02*
X94095190Y-94777714D01*
X94095190Y-94777714D02*
X94142809Y-94730095D01*
X94142809Y-94730095D02*
X94238047Y-94682476D01*
%TO.C,R19*%
X101427619Y-93337142D02*
X100951428Y-93003809D01*
X101427619Y-92765714D02*
X100427619Y-92765714D01*
X100427619Y-92765714D02*
X100427619Y-93146666D01*
X100427619Y-93146666D02*
X100475238Y-93241904D01*
X100475238Y-93241904D02*
X100522857Y-93289523D01*
X100522857Y-93289523D02*
X100618095Y-93337142D01*
X100618095Y-93337142D02*
X100760952Y-93337142D01*
X100760952Y-93337142D02*
X100856190Y-93289523D01*
X100856190Y-93289523D02*
X100903809Y-93241904D01*
X100903809Y-93241904D02*
X100951428Y-93146666D01*
X100951428Y-93146666D02*
X100951428Y-92765714D01*
X101427619Y-94289523D02*
X101427619Y-93718095D01*
X101427619Y-94003809D02*
X100427619Y-94003809D01*
X100427619Y-94003809D02*
X100570476Y-93908571D01*
X100570476Y-93908571D02*
X100665714Y-93813333D01*
X100665714Y-93813333D02*
X100713333Y-93718095D01*
X101427619Y-94765714D02*
X101427619Y-94956190D01*
X101427619Y-94956190D02*
X101380000Y-95051428D01*
X101380000Y-95051428D02*
X101332380Y-95099047D01*
X101332380Y-95099047D02*
X101189523Y-95194285D01*
X101189523Y-95194285D02*
X100999047Y-95241904D01*
X100999047Y-95241904D02*
X100618095Y-95241904D01*
X100618095Y-95241904D02*
X100522857Y-95194285D01*
X100522857Y-95194285D02*
X100475238Y-95146666D01*
X100475238Y-95146666D02*
X100427619Y-95051428D01*
X100427619Y-95051428D02*
X100427619Y-94860952D01*
X100427619Y-94860952D02*
X100475238Y-94765714D01*
X100475238Y-94765714D02*
X100522857Y-94718095D01*
X100522857Y-94718095D02*
X100618095Y-94670476D01*
X100618095Y-94670476D02*
X100856190Y-94670476D01*
X100856190Y-94670476D02*
X100951428Y-94718095D01*
X100951428Y-94718095D02*
X100999047Y-94765714D01*
X100999047Y-94765714D02*
X101046666Y-94860952D01*
X101046666Y-94860952D02*
X101046666Y-95051428D01*
X101046666Y-95051428D02*
X100999047Y-95146666D01*
X100999047Y-95146666D02*
X100951428Y-95194285D01*
X100951428Y-95194285D02*
X100856190Y-95241904D01*
%TO.C,R39*%
X74937857Y-101046619D02*
X75271190Y-100570428D01*
X75509285Y-101046619D02*
X75509285Y-100046619D01*
X75509285Y-100046619D02*
X75128333Y-100046619D01*
X75128333Y-100046619D02*
X75033095Y-100094238D01*
X75033095Y-100094238D02*
X74985476Y-100141857D01*
X74985476Y-100141857D02*
X74937857Y-100237095D01*
X74937857Y-100237095D02*
X74937857Y-100379952D01*
X74937857Y-100379952D02*
X74985476Y-100475190D01*
X74985476Y-100475190D02*
X75033095Y-100522809D01*
X75033095Y-100522809D02*
X75128333Y-100570428D01*
X75128333Y-100570428D02*
X75509285Y-100570428D01*
X74604523Y-100046619D02*
X73985476Y-100046619D01*
X73985476Y-100046619D02*
X74318809Y-100427571D01*
X74318809Y-100427571D02*
X74175952Y-100427571D01*
X74175952Y-100427571D02*
X74080714Y-100475190D01*
X74080714Y-100475190D02*
X74033095Y-100522809D01*
X74033095Y-100522809D02*
X73985476Y-100618047D01*
X73985476Y-100618047D02*
X73985476Y-100856142D01*
X73985476Y-100856142D02*
X74033095Y-100951380D01*
X74033095Y-100951380D02*
X74080714Y-100999000D01*
X74080714Y-100999000D02*
X74175952Y-101046619D01*
X74175952Y-101046619D02*
X74461666Y-101046619D01*
X74461666Y-101046619D02*
X74556904Y-100999000D01*
X74556904Y-100999000D02*
X74604523Y-100951380D01*
X73509285Y-101046619D02*
X73318809Y-101046619D01*
X73318809Y-101046619D02*
X73223571Y-100999000D01*
X73223571Y-100999000D02*
X73175952Y-100951380D01*
X73175952Y-100951380D02*
X73080714Y-100808523D01*
X73080714Y-100808523D02*
X73033095Y-100618047D01*
X73033095Y-100618047D02*
X73033095Y-100237095D01*
X73033095Y-100237095D02*
X73080714Y-100141857D01*
X73080714Y-100141857D02*
X73128333Y-100094238D01*
X73128333Y-100094238D02*
X73223571Y-100046619D01*
X73223571Y-100046619D02*
X73414047Y-100046619D01*
X73414047Y-100046619D02*
X73509285Y-100094238D01*
X73509285Y-100094238D02*
X73556904Y-100141857D01*
X73556904Y-100141857D02*
X73604523Y-100237095D01*
X73604523Y-100237095D02*
X73604523Y-100475190D01*
X73604523Y-100475190D02*
X73556904Y-100570428D01*
X73556904Y-100570428D02*
X73509285Y-100618047D01*
X73509285Y-100618047D02*
X73414047Y-100665666D01*
X73414047Y-100665666D02*
X73223571Y-100665666D01*
X73223571Y-100665666D02*
X73128333Y-100618047D01*
X73128333Y-100618047D02*
X73080714Y-100570428D01*
X73080714Y-100570428D02*
X73033095Y-100475190D01*
%TO.C,D4*%
X107650619Y-108862905D02*
X106650619Y-108862905D01*
X106650619Y-108862905D02*
X106650619Y-109101000D01*
X106650619Y-109101000D02*
X106698238Y-109243857D01*
X106698238Y-109243857D02*
X106793476Y-109339095D01*
X106793476Y-109339095D02*
X106888714Y-109386714D01*
X106888714Y-109386714D02*
X107079190Y-109434333D01*
X107079190Y-109434333D02*
X107222047Y-109434333D01*
X107222047Y-109434333D02*
X107412523Y-109386714D01*
X107412523Y-109386714D02*
X107507761Y-109339095D01*
X107507761Y-109339095D02*
X107603000Y-109243857D01*
X107603000Y-109243857D02*
X107650619Y-109101000D01*
X107650619Y-109101000D02*
X107650619Y-108862905D01*
X106983952Y-110291476D02*
X107650619Y-110291476D01*
X106603000Y-110053381D02*
X107317285Y-109815286D01*
X107317285Y-109815286D02*
X107317285Y-110434333D01*
%TO.C,J6*%
X104473333Y-66772619D02*
X104473333Y-67486904D01*
X104473333Y-67486904D02*
X104520952Y-67629761D01*
X104520952Y-67629761D02*
X104616190Y-67725000D01*
X104616190Y-67725000D02*
X104759047Y-67772619D01*
X104759047Y-67772619D02*
X104854285Y-67772619D01*
X103568571Y-66772619D02*
X103759047Y-66772619D01*
X103759047Y-66772619D02*
X103854285Y-66820238D01*
X103854285Y-66820238D02*
X103901904Y-66867857D01*
X103901904Y-66867857D02*
X103997142Y-67010714D01*
X103997142Y-67010714D02*
X104044761Y-67201190D01*
X104044761Y-67201190D02*
X104044761Y-67582142D01*
X104044761Y-67582142D02*
X103997142Y-67677380D01*
X103997142Y-67677380D02*
X103949523Y-67725000D01*
X103949523Y-67725000D02*
X103854285Y-67772619D01*
X103854285Y-67772619D02*
X103663809Y-67772619D01*
X103663809Y-67772619D02*
X103568571Y-67725000D01*
X103568571Y-67725000D02*
X103520952Y-67677380D01*
X103520952Y-67677380D02*
X103473333Y-67582142D01*
X103473333Y-67582142D02*
X103473333Y-67344047D01*
X103473333Y-67344047D02*
X103520952Y-67248809D01*
X103520952Y-67248809D02*
X103568571Y-67201190D01*
X103568571Y-67201190D02*
X103663809Y-67153571D01*
X103663809Y-67153571D02*
X103854285Y-67153571D01*
X103854285Y-67153571D02*
X103949523Y-67201190D01*
X103949523Y-67201190D02*
X103997142Y-67248809D01*
X103997142Y-67248809D02*
X104044761Y-67344047D01*
D11*
X106559523Y-73355000D02*
X106416666Y-73402619D01*
X106416666Y-73402619D02*
X106178571Y-73402619D01*
X106178571Y-73402619D02*
X106083333Y-73355000D01*
X106083333Y-73355000D02*
X106035714Y-73307380D01*
X106035714Y-73307380D02*
X105988095Y-73212142D01*
X105988095Y-73212142D02*
X105988095Y-73116904D01*
X105988095Y-73116904D02*
X106035714Y-73021666D01*
X106035714Y-73021666D02*
X106083333Y-72974047D01*
X106083333Y-72974047D02*
X106178571Y-72926428D01*
X106178571Y-72926428D02*
X106369047Y-72878809D01*
X106369047Y-72878809D02*
X106464285Y-72831190D01*
X106464285Y-72831190D02*
X106511904Y-72783571D01*
X106511904Y-72783571D02*
X106559523Y-72688333D01*
X106559523Y-72688333D02*
X106559523Y-72593095D01*
X106559523Y-72593095D02*
X106511904Y-72497857D01*
X106511904Y-72497857D02*
X106464285Y-72450238D01*
X106464285Y-72450238D02*
X106369047Y-72402619D01*
X106369047Y-72402619D02*
X106130952Y-72402619D01*
X106130952Y-72402619D02*
X105988095Y-72450238D01*
X105702380Y-72402619D02*
X105130952Y-72402619D01*
X105416666Y-73402619D02*
X105416666Y-72402619D01*
X104226190Y-73402619D02*
X104559523Y-72926428D01*
X104797618Y-73402619D02*
X104797618Y-72402619D01*
X104797618Y-72402619D02*
X104416666Y-72402619D01*
X104416666Y-72402619D02*
X104321428Y-72450238D01*
X104321428Y-72450238D02*
X104273809Y-72497857D01*
X104273809Y-72497857D02*
X104226190Y-72593095D01*
X104226190Y-72593095D02*
X104226190Y-72735952D01*
X104226190Y-72735952D02*
X104273809Y-72831190D01*
X104273809Y-72831190D02*
X104321428Y-72878809D01*
X104321428Y-72878809D02*
X104416666Y-72926428D01*
X104416666Y-72926428D02*
X104797618Y-72926428D01*
X103797618Y-73402619D02*
X103797618Y-72402619D01*
X103321428Y-73402619D02*
X103321428Y-72402619D01*
X103321428Y-72402619D02*
X102940476Y-72402619D01*
X102940476Y-72402619D02*
X102845238Y-72450238D01*
X102845238Y-72450238D02*
X102797619Y-72497857D01*
X102797619Y-72497857D02*
X102750000Y-72593095D01*
X102750000Y-72593095D02*
X102750000Y-72735952D01*
X102750000Y-72735952D02*
X102797619Y-72831190D01*
X102797619Y-72831190D02*
X102845238Y-72878809D01*
X102845238Y-72878809D02*
X102940476Y-72926428D01*
X102940476Y-72926428D02*
X103321428Y-72926428D01*
X102321428Y-72878809D02*
X101988095Y-72878809D01*
X101845238Y-73402619D02*
X102321428Y-73402619D01*
X102321428Y-73402619D02*
X102321428Y-72402619D01*
X102321428Y-72402619D02*
X101845238Y-72402619D01*
D10*
%TO.C,R46*%
X96019857Y-104475619D02*
X96353190Y-103999428D01*
X96591285Y-104475619D02*
X96591285Y-103475619D01*
X96591285Y-103475619D02*
X96210333Y-103475619D01*
X96210333Y-103475619D02*
X96115095Y-103523238D01*
X96115095Y-103523238D02*
X96067476Y-103570857D01*
X96067476Y-103570857D02*
X96019857Y-103666095D01*
X96019857Y-103666095D02*
X96019857Y-103808952D01*
X96019857Y-103808952D02*
X96067476Y-103904190D01*
X96067476Y-103904190D02*
X96115095Y-103951809D01*
X96115095Y-103951809D02*
X96210333Y-103999428D01*
X96210333Y-103999428D02*
X96591285Y-103999428D01*
X95162714Y-103808952D02*
X95162714Y-104475619D01*
X95400809Y-103428000D02*
X95638904Y-104142285D01*
X95638904Y-104142285D02*
X95019857Y-104142285D01*
X94210333Y-103475619D02*
X94400809Y-103475619D01*
X94400809Y-103475619D02*
X94496047Y-103523238D01*
X94496047Y-103523238D02*
X94543666Y-103570857D01*
X94543666Y-103570857D02*
X94638904Y-103713714D01*
X94638904Y-103713714D02*
X94686523Y-103904190D01*
X94686523Y-103904190D02*
X94686523Y-104285142D01*
X94686523Y-104285142D02*
X94638904Y-104380380D01*
X94638904Y-104380380D02*
X94591285Y-104428000D01*
X94591285Y-104428000D02*
X94496047Y-104475619D01*
X94496047Y-104475619D02*
X94305571Y-104475619D01*
X94305571Y-104475619D02*
X94210333Y-104428000D01*
X94210333Y-104428000D02*
X94162714Y-104380380D01*
X94162714Y-104380380D02*
X94115095Y-104285142D01*
X94115095Y-104285142D02*
X94115095Y-104047047D01*
X94115095Y-104047047D02*
X94162714Y-103951809D01*
X94162714Y-103951809D02*
X94210333Y-103904190D01*
X94210333Y-103904190D02*
X94305571Y-103856571D01*
X94305571Y-103856571D02*
X94496047Y-103856571D01*
X94496047Y-103856571D02*
X94591285Y-103904190D01*
X94591285Y-103904190D02*
X94638904Y-103951809D01*
X94638904Y-103951809D02*
X94686523Y-104047047D01*
%TO.C,U5*%
X99538619Y-87122095D02*
X100348142Y-87122095D01*
X100348142Y-87122095D02*
X100443380Y-87169714D01*
X100443380Y-87169714D02*
X100491000Y-87217333D01*
X100491000Y-87217333D02*
X100538619Y-87312571D01*
X100538619Y-87312571D02*
X100538619Y-87503047D01*
X100538619Y-87503047D02*
X100491000Y-87598285D01*
X100491000Y-87598285D02*
X100443380Y-87645904D01*
X100443380Y-87645904D02*
X100348142Y-87693523D01*
X100348142Y-87693523D02*
X99538619Y-87693523D01*
X99538619Y-88645904D02*
X99538619Y-88169714D01*
X99538619Y-88169714D02*
X100014809Y-88122095D01*
X100014809Y-88122095D02*
X99967190Y-88169714D01*
X99967190Y-88169714D02*
X99919571Y-88264952D01*
X99919571Y-88264952D02*
X99919571Y-88503047D01*
X99919571Y-88503047D02*
X99967190Y-88598285D01*
X99967190Y-88598285D02*
X100014809Y-88645904D01*
X100014809Y-88645904D02*
X100110047Y-88693523D01*
X100110047Y-88693523D02*
X100348142Y-88693523D01*
X100348142Y-88693523D02*
X100443380Y-88645904D01*
X100443380Y-88645904D02*
X100491000Y-88598285D01*
X100491000Y-88598285D02*
X100538619Y-88503047D01*
X100538619Y-88503047D02*
X100538619Y-88264952D01*
X100538619Y-88264952D02*
X100491000Y-88169714D01*
X100491000Y-88169714D02*
X100443380Y-88122095D01*
%TO.C,R33*%
X112984619Y-118483142D02*
X112508428Y-118149809D01*
X112984619Y-117911714D02*
X111984619Y-117911714D01*
X111984619Y-117911714D02*
X111984619Y-118292666D01*
X111984619Y-118292666D02*
X112032238Y-118387904D01*
X112032238Y-118387904D02*
X112079857Y-118435523D01*
X112079857Y-118435523D02*
X112175095Y-118483142D01*
X112175095Y-118483142D02*
X112317952Y-118483142D01*
X112317952Y-118483142D02*
X112413190Y-118435523D01*
X112413190Y-118435523D02*
X112460809Y-118387904D01*
X112460809Y-118387904D02*
X112508428Y-118292666D01*
X112508428Y-118292666D02*
X112508428Y-117911714D01*
X111984619Y-118816476D02*
X111984619Y-119435523D01*
X111984619Y-119435523D02*
X112365571Y-119102190D01*
X112365571Y-119102190D02*
X112365571Y-119245047D01*
X112365571Y-119245047D02*
X112413190Y-119340285D01*
X112413190Y-119340285D02*
X112460809Y-119387904D01*
X112460809Y-119387904D02*
X112556047Y-119435523D01*
X112556047Y-119435523D02*
X112794142Y-119435523D01*
X112794142Y-119435523D02*
X112889380Y-119387904D01*
X112889380Y-119387904D02*
X112937000Y-119340285D01*
X112937000Y-119340285D02*
X112984619Y-119245047D01*
X112984619Y-119245047D02*
X112984619Y-118959333D01*
X112984619Y-118959333D02*
X112937000Y-118864095D01*
X112937000Y-118864095D02*
X112889380Y-118816476D01*
X111984619Y-119768857D02*
X111984619Y-120387904D01*
X111984619Y-120387904D02*
X112365571Y-120054571D01*
X112365571Y-120054571D02*
X112365571Y-120197428D01*
X112365571Y-120197428D02*
X112413190Y-120292666D01*
X112413190Y-120292666D02*
X112460809Y-120340285D01*
X112460809Y-120340285D02*
X112556047Y-120387904D01*
X112556047Y-120387904D02*
X112794142Y-120387904D01*
X112794142Y-120387904D02*
X112889380Y-120340285D01*
X112889380Y-120340285D02*
X112937000Y-120292666D01*
X112937000Y-120292666D02*
X112984619Y-120197428D01*
X112984619Y-120197428D02*
X112984619Y-119911714D01*
X112984619Y-119911714D02*
X112937000Y-119816476D01*
X112937000Y-119816476D02*
X112889380Y-119768857D01*
%TO.C,R11*%
X107490619Y-86352142D02*
X107014428Y-86018809D01*
X107490619Y-85780714D02*
X106490619Y-85780714D01*
X106490619Y-85780714D02*
X106490619Y-86161666D01*
X106490619Y-86161666D02*
X106538238Y-86256904D01*
X106538238Y-86256904D02*
X106585857Y-86304523D01*
X106585857Y-86304523D02*
X106681095Y-86352142D01*
X106681095Y-86352142D02*
X106823952Y-86352142D01*
X106823952Y-86352142D02*
X106919190Y-86304523D01*
X106919190Y-86304523D02*
X106966809Y-86256904D01*
X106966809Y-86256904D02*
X107014428Y-86161666D01*
X107014428Y-86161666D02*
X107014428Y-85780714D01*
X107490619Y-87304523D02*
X107490619Y-86733095D01*
X107490619Y-87018809D02*
X106490619Y-87018809D01*
X106490619Y-87018809D02*
X106633476Y-86923571D01*
X106633476Y-86923571D02*
X106728714Y-86828333D01*
X106728714Y-86828333D02*
X106776333Y-86733095D01*
X107490619Y-88256904D02*
X107490619Y-87685476D01*
X107490619Y-87971190D02*
X106490619Y-87971190D01*
X106490619Y-87971190D02*
X106633476Y-87875952D01*
X106633476Y-87875952D02*
X106728714Y-87780714D01*
X106728714Y-87780714D02*
X106776333Y-87685476D01*
%TO.C,C2*%
X87796666Y-72376380D02*
X87844285Y-72424000D01*
X87844285Y-72424000D02*
X87987142Y-72471619D01*
X87987142Y-72471619D02*
X88082380Y-72471619D01*
X88082380Y-72471619D02*
X88225237Y-72424000D01*
X88225237Y-72424000D02*
X88320475Y-72328761D01*
X88320475Y-72328761D02*
X88368094Y-72233523D01*
X88368094Y-72233523D02*
X88415713Y-72043047D01*
X88415713Y-72043047D02*
X88415713Y-71900190D01*
X88415713Y-71900190D02*
X88368094Y-71709714D01*
X88368094Y-71709714D02*
X88320475Y-71614476D01*
X88320475Y-71614476D02*
X88225237Y-71519238D01*
X88225237Y-71519238D02*
X88082380Y-71471619D01*
X88082380Y-71471619D02*
X87987142Y-71471619D01*
X87987142Y-71471619D02*
X87844285Y-71519238D01*
X87844285Y-71519238D02*
X87796666Y-71566857D01*
X87415713Y-71566857D02*
X87368094Y-71519238D01*
X87368094Y-71519238D02*
X87272856Y-71471619D01*
X87272856Y-71471619D02*
X87034761Y-71471619D01*
X87034761Y-71471619D02*
X86939523Y-71519238D01*
X86939523Y-71519238D02*
X86891904Y-71566857D01*
X86891904Y-71566857D02*
X86844285Y-71662095D01*
X86844285Y-71662095D02*
X86844285Y-71757333D01*
X86844285Y-71757333D02*
X86891904Y-71900190D01*
X86891904Y-71900190D02*
X87463332Y-72471619D01*
X87463332Y-72471619D02*
X86844285Y-72471619D01*
%TO.C,R31*%
X100919619Y-118610142D02*
X100443428Y-118276809D01*
X100919619Y-118038714D02*
X99919619Y-118038714D01*
X99919619Y-118038714D02*
X99919619Y-118419666D01*
X99919619Y-118419666D02*
X99967238Y-118514904D01*
X99967238Y-118514904D02*
X100014857Y-118562523D01*
X100014857Y-118562523D02*
X100110095Y-118610142D01*
X100110095Y-118610142D02*
X100252952Y-118610142D01*
X100252952Y-118610142D02*
X100348190Y-118562523D01*
X100348190Y-118562523D02*
X100395809Y-118514904D01*
X100395809Y-118514904D02*
X100443428Y-118419666D01*
X100443428Y-118419666D02*
X100443428Y-118038714D01*
X99919619Y-118943476D02*
X99919619Y-119562523D01*
X99919619Y-119562523D02*
X100300571Y-119229190D01*
X100300571Y-119229190D02*
X100300571Y-119372047D01*
X100300571Y-119372047D02*
X100348190Y-119467285D01*
X100348190Y-119467285D02*
X100395809Y-119514904D01*
X100395809Y-119514904D02*
X100491047Y-119562523D01*
X100491047Y-119562523D02*
X100729142Y-119562523D01*
X100729142Y-119562523D02*
X100824380Y-119514904D01*
X100824380Y-119514904D02*
X100872000Y-119467285D01*
X100872000Y-119467285D02*
X100919619Y-119372047D01*
X100919619Y-119372047D02*
X100919619Y-119086333D01*
X100919619Y-119086333D02*
X100872000Y-118991095D01*
X100872000Y-118991095D02*
X100824380Y-118943476D01*
X100919619Y-120514904D02*
X100919619Y-119943476D01*
X100919619Y-120229190D02*
X99919619Y-120229190D01*
X99919619Y-120229190D02*
X100062476Y-120133952D01*
X100062476Y-120133952D02*
X100157714Y-120038714D01*
X100157714Y-120038714D02*
X100205333Y-119943476D01*
%TO.C,C23*%
X108478180Y-72686942D02*
X108525800Y-72639323D01*
X108525800Y-72639323D02*
X108573419Y-72496466D01*
X108573419Y-72496466D02*
X108573419Y-72401228D01*
X108573419Y-72401228D02*
X108525800Y-72258371D01*
X108525800Y-72258371D02*
X108430561Y-72163133D01*
X108430561Y-72163133D02*
X108335323Y-72115514D01*
X108335323Y-72115514D02*
X108144847Y-72067895D01*
X108144847Y-72067895D02*
X108001990Y-72067895D01*
X108001990Y-72067895D02*
X107811514Y-72115514D01*
X107811514Y-72115514D02*
X107716276Y-72163133D01*
X107716276Y-72163133D02*
X107621038Y-72258371D01*
X107621038Y-72258371D02*
X107573419Y-72401228D01*
X107573419Y-72401228D02*
X107573419Y-72496466D01*
X107573419Y-72496466D02*
X107621038Y-72639323D01*
X107621038Y-72639323D02*
X107668657Y-72686942D01*
X107668657Y-73067895D02*
X107621038Y-73115514D01*
X107621038Y-73115514D02*
X107573419Y-73210752D01*
X107573419Y-73210752D02*
X107573419Y-73448847D01*
X107573419Y-73448847D02*
X107621038Y-73544085D01*
X107621038Y-73544085D02*
X107668657Y-73591704D01*
X107668657Y-73591704D02*
X107763895Y-73639323D01*
X107763895Y-73639323D02*
X107859133Y-73639323D01*
X107859133Y-73639323D02*
X108001990Y-73591704D01*
X108001990Y-73591704D02*
X108573419Y-73020276D01*
X108573419Y-73020276D02*
X108573419Y-73639323D01*
X107573419Y-73972657D02*
X107573419Y-74591704D01*
X107573419Y-74591704D02*
X107954371Y-74258371D01*
X107954371Y-74258371D02*
X107954371Y-74401228D01*
X107954371Y-74401228D02*
X108001990Y-74496466D01*
X108001990Y-74496466D02*
X108049609Y-74544085D01*
X108049609Y-74544085D02*
X108144847Y-74591704D01*
X108144847Y-74591704D02*
X108382942Y-74591704D01*
X108382942Y-74591704D02*
X108478180Y-74544085D01*
X108478180Y-74544085D02*
X108525800Y-74496466D01*
X108525800Y-74496466D02*
X108573419Y-74401228D01*
X108573419Y-74401228D02*
X108573419Y-74115514D01*
X108573419Y-74115514D02*
X108525800Y-74020276D01*
X108525800Y-74020276D02*
X108478180Y-73972657D01*
%TO.C,R14*%
X116466857Y-114856619D02*
X116800190Y-114380428D01*
X117038285Y-114856619D02*
X117038285Y-113856619D01*
X117038285Y-113856619D02*
X116657333Y-113856619D01*
X116657333Y-113856619D02*
X116562095Y-113904238D01*
X116562095Y-113904238D02*
X116514476Y-113951857D01*
X116514476Y-113951857D02*
X116466857Y-114047095D01*
X116466857Y-114047095D02*
X116466857Y-114189952D01*
X116466857Y-114189952D02*
X116514476Y-114285190D01*
X116514476Y-114285190D02*
X116562095Y-114332809D01*
X116562095Y-114332809D02*
X116657333Y-114380428D01*
X116657333Y-114380428D02*
X117038285Y-114380428D01*
X115514476Y-114856619D02*
X116085904Y-114856619D01*
X115800190Y-114856619D02*
X115800190Y-113856619D01*
X115800190Y-113856619D02*
X115895428Y-113999476D01*
X115895428Y-113999476D02*
X115990666Y-114094714D01*
X115990666Y-114094714D02*
X116085904Y-114142333D01*
X114657333Y-114189952D02*
X114657333Y-114856619D01*
X114895428Y-113809000D02*
X115133523Y-114523285D01*
X115133523Y-114523285D02*
X114514476Y-114523285D01*
%TO.C,D9*%
X84536619Y-108862905D02*
X83536619Y-108862905D01*
X83536619Y-108862905D02*
X83536619Y-109101000D01*
X83536619Y-109101000D02*
X83584238Y-109243857D01*
X83584238Y-109243857D02*
X83679476Y-109339095D01*
X83679476Y-109339095D02*
X83774714Y-109386714D01*
X83774714Y-109386714D02*
X83965190Y-109434333D01*
X83965190Y-109434333D02*
X84108047Y-109434333D01*
X84108047Y-109434333D02*
X84298523Y-109386714D01*
X84298523Y-109386714D02*
X84393761Y-109339095D01*
X84393761Y-109339095D02*
X84489000Y-109243857D01*
X84489000Y-109243857D02*
X84536619Y-109101000D01*
X84536619Y-109101000D02*
X84536619Y-108862905D01*
X84536619Y-109910524D02*
X84536619Y-110101000D01*
X84536619Y-110101000D02*
X84489000Y-110196238D01*
X84489000Y-110196238D02*
X84441380Y-110243857D01*
X84441380Y-110243857D02*
X84298523Y-110339095D01*
X84298523Y-110339095D02*
X84108047Y-110386714D01*
X84108047Y-110386714D02*
X83727095Y-110386714D01*
X83727095Y-110386714D02*
X83631857Y-110339095D01*
X83631857Y-110339095D02*
X83584238Y-110291476D01*
X83584238Y-110291476D02*
X83536619Y-110196238D01*
X83536619Y-110196238D02*
X83536619Y-110005762D01*
X83536619Y-110005762D02*
X83584238Y-109910524D01*
X83584238Y-109910524D02*
X83631857Y-109862905D01*
X83631857Y-109862905D02*
X83727095Y-109815286D01*
X83727095Y-109815286D02*
X83965190Y-109815286D01*
X83965190Y-109815286D02*
X84060428Y-109862905D01*
X84060428Y-109862905D02*
X84108047Y-109910524D01*
X84108047Y-109910524D02*
X84155666Y-110005762D01*
X84155666Y-110005762D02*
X84155666Y-110196238D01*
X84155666Y-110196238D02*
X84108047Y-110291476D01*
X84108047Y-110291476D02*
X84060428Y-110339095D01*
X84060428Y-110339095D02*
X83965190Y-110386714D01*
%TO.C,R8*%
X81954666Y-136987619D02*
X82287999Y-136511428D01*
X82526094Y-136987619D02*
X82526094Y-135987619D01*
X82526094Y-135987619D02*
X82145142Y-135987619D01*
X82145142Y-135987619D02*
X82049904Y-136035238D01*
X82049904Y-136035238D02*
X82002285Y-136082857D01*
X82002285Y-136082857D02*
X81954666Y-136178095D01*
X81954666Y-136178095D02*
X81954666Y-136320952D01*
X81954666Y-136320952D02*
X82002285Y-136416190D01*
X82002285Y-136416190D02*
X82049904Y-136463809D01*
X82049904Y-136463809D02*
X82145142Y-136511428D01*
X82145142Y-136511428D02*
X82526094Y-136511428D01*
X81383237Y-136416190D02*
X81478475Y-136368571D01*
X81478475Y-136368571D02*
X81526094Y-136320952D01*
X81526094Y-136320952D02*
X81573713Y-136225714D01*
X81573713Y-136225714D02*
X81573713Y-136178095D01*
X81573713Y-136178095D02*
X81526094Y-136082857D01*
X81526094Y-136082857D02*
X81478475Y-136035238D01*
X81478475Y-136035238D02*
X81383237Y-135987619D01*
X81383237Y-135987619D02*
X81192761Y-135987619D01*
X81192761Y-135987619D02*
X81097523Y-136035238D01*
X81097523Y-136035238D02*
X81049904Y-136082857D01*
X81049904Y-136082857D02*
X81002285Y-136178095D01*
X81002285Y-136178095D02*
X81002285Y-136225714D01*
X81002285Y-136225714D02*
X81049904Y-136320952D01*
X81049904Y-136320952D02*
X81097523Y-136368571D01*
X81097523Y-136368571D02*
X81192761Y-136416190D01*
X81192761Y-136416190D02*
X81383237Y-136416190D01*
X81383237Y-136416190D02*
X81478475Y-136463809D01*
X81478475Y-136463809D02*
X81526094Y-136511428D01*
X81526094Y-136511428D02*
X81573713Y-136606666D01*
X81573713Y-136606666D02*
X81573713Y-136797142D01*
X81573713Y-136797142D02*
X81526094Y-136892380D01*
X81526094Y-136892380D02*
X81478475Y-136940000D01*
X81478475Y-136940000D02*
X81383237Y-136987619D01*
X81383237Y-136987619D02*
X81192761Y-136987619D01*
X81192761Y-136987619D02*
X81097523Y-136940000D01*
X81097523Y-136940000D02*
X81049904Y-136892380D01*
X81049904Y-136892380D02*
X81002285Y-136797142D01*
X81002285Y-136797142D02*
X81002285Y-136606666D01*
X81002285Y-136606666D02*
X81049904Y-136511428D01*
X81049904Y-136511428D02*
X81097523Y-136463809D01*
X81097523Y-136463809D02*
X81192761Y-136416190D01*
%TO.C,R22*%
X103586619Y-89146142D02*
X103110428Y-88812809D01*
X103586619Y-88574714D02*
X102586619Y-88574714D01*
X102586619Y-88574714D02*
X102586619Y-88955666D01*
X102586619Y-88955666D02*
X102634238Y-89050904D01*
X102634238Y-89050904D02*
X102681857Y-89098523D01*
X102681857Y-89098523D02*
X102777095Y-89146142D01*
X102777095Y-89146142D02*
X102919952Y-89146142D01*
X102919952Y-89146142D02*
X103015190Y-89098523D01*
X103015190Y-89098523D02*
X103062809Y-89050904D01*
X103062809Y-89050904D02*
X103110428Y-88955666D01*
X103110428Y-88955666D02*
X103110428Y-88574714D01*
X102681857Y-89527095D02*
X102634238Y-89574714D01*
X102634238Y-89574714D02*
X102586619Y-89669952D01*
X102586619Y-89669952D02*
X102586619Y-89908047D01*
X102586619Y-89908047D02*
X102634238Y-90003285D01*
X102634238Y-90003285D02*
X102681857Y-90050904D01*
X102681857Y-90050904D02*
X102777095Y-90098523D01*
X102777095Y-90098523D02*
X102872333Y-90098523D01*
X102872333Y-90098523D02*
X103015190Y-90050904D01*
X103015190Y-90050904D02*
X103586619Y-89479476D01*
X103586619Y-89479476D02*
X103586619Y-90098523D01*
X102681857Y-90479476D02*
X102634238Y-90527095D01*
X102634238Y-90527095D02*
X102586619Y-90622333D01*
X102586619Y-90622333D02*
X102586619Y-90860428D01*
X102586619Y-90860428D02*
X102634238Y-90955666D01*
X102634238Y-90955666D02*
X102681857Y-91003285D01*
X102681857Y-91003285D02*
X102777095Y-91050904D01*
X102777095Y-91050904D02*
X102872333Y-91050904D01*
X102872333Y-91050904D02*
X103015190Y-91003285D01*
X103015190Y-91003285D02*
X103586619Y-90431857D01*
X103586619Y-90431857D02*
X103586619Y-91050904D01*
%TO.C,R7*%
X83478666Y-133812619D02*
X83811999Y-133336428D01*
X84050094Y-133812619D02*
X84050094Y-132812619D01*
X84050094Y-132812619D02*
X83669142Y-132812619D01*
X83669142Y-132812619D02*
X83573904Y-132860238D01*
X83573904Y-132860238D02*
X83526285Y-132907857D01*
X83526285Y-132907857D02*
X83478666Y-133003095D01*
X83478666Y-133003095D02*
X83478666Y-133145952D01*
X83478666Y-133145952D02*
X83526285Y-133241190D01*
X83526285Y-133241190D02*
X83573904Y-133288809D01*
X83573904Y-133288809D02*
X83669142Y-133336428D01*
X83669142Y-133336428D02*
X84050094Y-133336428D01*
X83145332Y-132812619D02*
X82478666Y-132812619D01*
X82478666Y-132812619D02*
X82907237Y-133812619D01*
%TO.C,R35*%
X74937857Y-102697619D02*
X75271190Y-102221428D01*
X75509285Y-102697619D02*
X75509285Y-101697619D01*
X75509285Y-101697619D02*
X75128333Y-101697619D01*
X75128333Y-101697619D02*
X75033095Y-101745238D01*
X75033095Y-101745238D02*
X74985476Y-101792857D01*
X74985476Y-101792857D02*
X74937857Y-101888095D01*
X74937857Y-101888095D02*
X74937857Y-102030952D01*
X74937857Y-102030952D02*
X74985476Y-102126190D01*
X74985476Y-102126190D02*
X75033095Y-102173809D01*
X75033095Y-102173809D02*
X75128333Y-102221428D01*
X75128333Y-102221428D02*
X75509285Y-102221428D01*
X74604523Y-101697619D02*
X73985476Y-101697619D01*
X73985476Y-101697619D02*
X74318809Y-102078571D01*
X74318809Y-102078571D02*
X74175952Y-102078571D01*
X74175952Y-102078571D02*
X74080714Y-102126190D01*
X74080714Y-102126190D02*
X74033095Y-102173809D01*
X74033095Y-102173809D02*
X73985476Y-102269047D01*
X73985476Y-102269047D02*
X73985476Y-102507142D01*
X73985476Y-102507142D02*
X74033095Y-102602380D01*
X74033095Y-102602380D02*
X74080714Y-102650000D01*
X74080714Y-102650000D02*
X74175952Y-102697619D01*
X74175952Y-102697619D02*
X74461666Y-102697619D01*
X74461666Y-102697619D02*
X74556904Y-102650000D01*
X74556904Y-102650000D02*
X74604523Y-102602380D01*
X73080714Y-101697619D02*
X73556904Y-101697619D01*
X73556904Y-101697619D02*
X73604523Y-102173809D01*
X73604523Y-102173809D02*
X73556904Y-102126190D01*
X73556904Y-102126190D02*
X73461666Y-102078571D01*
X73461666Y-102078571D02*
X73223571Y-102078571D01*
X73223571Y-102078571D02*
X73128333Y-102126190D01*
X73128333Y-102126190D02*
X73080714Y-102173809D01*
X73080714Y-102173809D02*
X73033095Y-102269047D01*
X73033095Y-102269047D02*
X73033095Y-102507142D01*
X73033095Y-102507142D02*
X73080714Y-102602380D01*
X73080714Y-102602380D02*
X73128333Y-102650000D01*
X73128333Y-102650000D02*
X73223571Y-102697619D01*
X73223571Y-102697619D02*
X73461666Y-102697619D01*
X73461666Y-102697619D02*
X73556904Y-102650000D01*
X73556904Y-102650000D02*
X73604523Y-102602380D01*
%TO.C,R40*%
X74937857Y-96093619D02*
X75271190Y-95617428D01*
X75509285Y-96093619D02*
X75509285Y-95093619D01*
X75509285Y-95093619D02*
X75128333Y-95093619D01*
X75128333Y-95093619D02*
X75033095Y-95141238D01*
X75033095Y-95141238D02*
X74985476Y-95188857D01*
X74985476Y-95188857D02*
X74937857Y-95284095D01*
X74937857Y-95284095D02*
X74937857Y-95426952D01*
X74937857Y-95426952D02*
X74985476Y-95522190D01*
X74985476Y-95522190D02*
X75033095Y-95569809D01*
X75033095Y-95569809D02*
X75128333Y-95617428D01*
X75128333Y-95617428D02*
X75509285Y-95617428D01*
X74080714Y-95426952D02*
X74080714Y-96093619D01*
X74318809Y-95046000D02*
X74556904Y-95760285D01*
X74556904Y-95760285D02*
X73937857Y-95760285D01*
X73366428Y-95093619D02*
X73271190Y-95093619D01*
X73271190Y-95093619D02*
X73175952Y-95141238D01*
X73175952Y-95141238D02*
X73128333Y-95188857D01*
X73128333Y-95188857D02*
X73080714Y-95284095D01*
X73080714Y-95284095D02*
X73033095Y-95474571D01*
X73033095Y-95474571D02*
X73033095Y-95712666D01*
X73033095Y-95712666D02*
X73080714Y-95903142D01*
X73080714Y-95903142D02*
X73128333Y-95998380D01*
X73128333Y-95998380D02*
X73175952Y-96046000D01*
X73175952Y-96046000D02*
X73271190Y-96093619D01*
X73271190Y-96093619D02*
X73366428Y-96093619D01*
X73366428Y-96093619D02*
X73461666Y-96046000D01*
X73461666Y-96046000D02*
X73509285Y-95998380D01*
X73509285Y-95998380D02*
X73556904Y-95903142D01*
X73556904Y-95903142D02*
X73604523Y-95712666D01*
X73604523Y-95712666D02*
X73604523Y-95474571D01*
X73604523Y-95474571D02*
X73556904Y-95284095D01*
X73556904Y-95284095D02*
X73509285Y-95188857D01*
X73509285Y-95188857D02*
X73461666Y-95141238D01*
X73461666Y-95141238D02*
X73366428Y-95093619D01*
%TO.C,C14*%
X105142380Y-89146142D02*
X105190000Y-89098523D01*
X105190000Y-89098523D02*
X105237619Y-88955666D01*
X105237619Y-88955666D02*
X105237619Y-88860428D01*
X105237619Y-88860428D02*
X105190000Y-88717571D01*
X105190000Y-88717571D02*
X105094761Y-88622333D01*
X105094761Y-88622333D02*
X104999523Y-88574714D01*
X104999523Y-88574714D02*
X104809047Y-88527095D01*
X104809047Y-88527095D02*
X104666190Y-88527095D01*
X104666190Y-88527095D02*
X104475714Y-88574714D01*
X104475714Y-88574714D02*
X104380476Y-88622333D01*
X104380476Y-88622333D02*
X104285238Y-88717571D01*
X104285238Y-88717571D02*
X104237619Y-88860428D01*
X104237619Y-88860428D02*
X104237619Y-88955666D01*
X104237619Y-88955666D02*
X104285238Y-89098523D01*
X104285238Y-89098523D02*
X104332857Y-89146142D01*
X105237619Y-90098523D02*
X105237619Y-89527095D01*
X105237619Y-89812809D02*
X104237619Y-89812809D01*
X104237619Y-89812809D02*
X104380476Y-89717571D01*
X104380476Y-89717571D02*
X104475714Y-89622333D01*
X104475714Y-89622333D02*
X104523333Y-89527095D01*
X104570952Y-90955666D02*
X105237619Y-90955666D01*
X104190000Y-90717571D02*
X104904285Y-90479476D01*
X104904285Y-90479476D02*
X104904285Y-91098523D01*
%TO.C,R20*%
X99769619Y-93283142D02*
X99293428Y-92949809D01*
X99769619Y-92711714D02*
X98769619Y-92711714D01*
X98769619Y-92711714D02*
X98769619Y-93092666D01*
X98769619Y-93092666D02*
X98817238Y-93187904D01*
X98817238Y-93187904D02*
X98864857Y-93235523D01*
X98864857Y-93235523D02*
X98960095Y-93283142D01*
X98960095Y-93283142D02*
X99102952Y-93283142D01*
X99102952Y-93283142D02*
X99198190Y-93235523D01*
X99198190Y-93235523D02*
X99245809Y-93187904D01*
X99245809Y-93187904D02*
X99293428Y-93092666D01*
X99293428Y-93092666D02*
X99293428Y-92711714D01*
X98864857Y-93664095D02*
X98817238Y-93711714D01*
X98817238Y-93711714D02*
X98769619Y-93806952D01*
X98769619Y-93806952D02*
X98769619Y-94045047D01*
X98769619Y-94045047D02*
X98817238Y-94140285D01*
X98817238Y-94140285D02*
X98864857Y-94187904D01*
X98864857Y-94187904D02*
X98960095Y-94235523D01*
X98960095Y-94235523D02*
X99055333Y-94235523D01*
X99055333Y-94235523D02*
X99198190Y-94187904D01*
X99198190Y-94187904D02*
X99769619Y-93616476D01*
X99769619Y-93616476D02*
X99769619Y-94235523D01*
X98769619Y-94854571D02*
X98769619Y-94949809D01*
X98769619Y-94949809D02*
X98817238Y-95045047D01*
X98817238Y-95045047D02*
X98864857Y-95092666D01*
X98864857Y-95092666D02*
X98960095Y-95140285D01*
X98960095Y-95140285D02*
X99150571Y-95187904D01*
X99150571Y-95187904D02*
X99388666Y-95187904D01*
X99388666Y-95187904D02*
X99579142Y-95140285D01*
X99579142Y-95140285D02*
X99674380Y-95092666D01*
X99674380Y-95092666D02*
X99722000Y-95045047D01*
X99722000Y-95045047D02*
X99769619Y-94949809D01*
X99769619Y-94949809D02*
X99769619Y-94854571D01*
X99769619Y-94854571D02*
X99722000Y-94759333D01*
X99722000Y-94759333D02*
X99674380Y-94711714D01*
X99674380Y-94711714D02*
X99579142Y-94664095D01*
X99579142Y-94664095D02*
X99388666Y-94616476D01*
X99388666Y-94616476D02*
X99150571Y-94616476D01*
X99150571Y-94616476D02*
X98960095Y-94664095D01*
X98960095Y-94664095D02*
X98864857Y-94711714D01*
X98864857Y-94711714D02*
X98817238Y-94759333D01*
X98817238Y-94759333D02*
X98769619Y-94854571D01*
%TO.C,C10*%
X98792380Y-141978142D02*
X98840000Y-141930523D01*
X98840000Y-141930523D02*
X98887619Y-141787666D01*
X98887619Y-141787666D02*
X98887619Y-141692428D01*
X98887619Y-141692428D02*
X98840000Y-141549571D01*
X98840000Y-141549571D02*
X98744761Y-141454333D01*
X98744761Y-141454333D02*
X98649523Y-141406714D01*
X98649523Y-141406714D02*
X98459047Y-141359095D01*
X98459047Y-141359095D02*
X98316190Y-141359095D01*
X98316190Y-141359095D02*
X98125714Y-141406714D01*
X98125714Y-141406714D02*
X98030476Y-141454333D01*
X98030476Y-141454333D02*
X97935238Y-141549571D01*
X97935238Y-141549571D02*
X97887619Y-141692428D01*
X97887619Y-141692428D02*
X97887619Y-141787666D01*
X97887619Y-141787666D02*
X97935238Y-141930523D01*
X97935238Y-141930523D02*
X97982857Y-141978142D01*
X98887619Y-142930523D02*
X98887619Y-142359095D01*
X98887619Y-142644809D02*
X97887619Y-142644809D01*
X97887619Y-142644809D02*
X98030476Y-142549571D01*
X98030476Y-142549571D02*
X98125714Y-142454333D01*
X98125714Y-142454333D02*
X98173333Y-142359095D01*
X97887619Y-143549571D02*
X97887619Y-143644809D01*
X97887619Y-143644809D02*
X97935238Y-143740047D01*
X97935238Y-143740047D02*
X97982857Y-143787666D01*
X97982857Y-143787666D02*
X98078095Y-143835285D01*
X98078095Y-143835285D02*
X98268571Y-143882904D01*
X98268571Y-143882904D02*
X98506666Y-143882904D01*
X98506666Y-143882904D02*
X98697142Y-143835285D01*
X98697142Y-143835285D02*
X98792380Y-143787666D01*
X98792380Y-143787666D02*
X98840000Y-143740047D01*
X98840000Y-143740047D02*
X98887619Y-143644809D01*
X98887619Y-143644809D02*
X98887619Y-143549571D01*
X98887619Y-143549571D02*
X98840000Y-143454333D01*
X98840000Y-143454333D02*
X98792380Y-143406714D01*
X98792380Y-143406714D02*
X98697142Y-143359095D01*
X98697142Y-143359095D02*
X98506666Y-143311476D01*
X98506666Y-143311476D02*
X98268571Y-143311476D01*
X98268571Y-143311476D02*
X98078095Y-143359095D01*
X98078095Y-143359095D02*
X97982857Y-143406714D01*
X97982857Y-143406714D02*
X97935238Y-143454333D01*
X97935238Y-143454333D02*
X97887619Y-143549571D01*
%TO.C,R23*%
X98940857Y-105999619D02*
X99274190Y-105523428D01*
X99512285Y-105999619D02*
X99512285Y-104999619D01*
X99512285Y-104999619D02*
X99131333Y-104999619D01*
X99131333Y-104999619D02*
X99036095Y-105047238D01*
X99036095Y-105047238D02*
X98988476Y-105094857D01*
X98988476Y-105094857D02*
X98940857Y-105190095D01*
X98940857Y-105190095D02*
X98940857Y-105332952D01*
X98940857Y-105332952D02*
X98988476Y-105428190D01*
X98988476Y-105428190D02*
X99036095Y-105475809D01*
X99036095Y-105475809D02*
X99131333Y-105523428D01*
X99131333Y-105523428D02*
X99512285Y-105523428D01*
X98559904Y-105094857D02*
X98512285Y-105047238D01*
X98512285Y-105047238D02*
X98417047Y-104999619D01*
X98417047Y-104999619D02*
X98178952Y-104999619D01*
X98178952Y-104999619D02*
X98083714Y-105047238D01*
X98083714Y-105047238D02*
X98036095Y-105094857D01*
X98036095Y-105094857D02*
X97988476Y-105190095D01*
X97988476Y-105190095D02*
X97988476Y-105285333D01*
X97988476Y-105285333D02*
X98036095Y-105428190D01*
X98036095Y-105428190D02*
X98607523Y-105999619D01*
X98607523Y-105999619D02*
X97988476Y-105999619D01*
X97655142Y-104999619D02*
X97036095Y-104999619D01*
X97036095Y-104999619D02*
X97369428Y-105380571D01*
X97369428Y-105380571D02*
X97226571Y-105380571D01*
X97226571Y-105380571D02*
X97131333Y-105428190D01*
X97131333Y-105428190D02*
X97083714Y-105475809D01*
X97083714Y-105475809D02*
X97036095Y-105571047D01*
X97036095Y-105571047D02*
X97036095Y-105809142D01*
X97036095Y-105809142D02*
X97083714Y-105904380D01*
X97083714Y-105904380D02*
X97131333Y-105952000D01*
X97131333Y-105952000D02*
X97226571Y-105999619D01*
X97226571Y-105999619D02*
X97512285Y-105999619D01*
X97512285Y-105999619D02*
X97607523Y-105952000D01*
X97607523Y-105952000D02*
X97655142Y-105904380D01*
%TO.C,C13*%
X87764857Y-86981380D02*
X87812476Y-87029000D01*
X87812476Y-87029000D02*
X87955333Y-87076619D01*
X87955333Y-87076619D02*
X88050571Y-87076619D01*
X88050571Y-87076619D02*
X88193428Y-87029000D01*
X88193428Y-87029000D02*
X88288666Y-86933761D01*
X88288666Y-86933761D02*
X88336285Y-86838523D01*
X88336285Y-86838523D02*
X88383904Y-86648047D01*
X88383904Y-86648047D02*
X88383904Y-86505190D01*
X88383904Y-86505190D02*
X88336285Y-86314714D01*
X88336285Y-86314714D02*
X88288666Y-86219476D01*
X88288666Y-86219476D02*
X88193428Y-86124238D01*
X88193428Y-86124238D02*
X88050571Y-86076619D01*
X88050571Y-86076619D02*
X87955333Y-86076619D01*
X87955333Y-86076619D02*
X87812476Y-86124238D01*
X87812476Y-86124238D02*
X87764857Y-86171857D01*
X86812476Y-87076619D02*
X87383904Y-87076619D01*
X87098190Y-87076619D02*
X87098190Y-86076619D01*
X87098190Y-86076619D02*
X87193428Y-86219476D01*
X87193428Y-86219476D02*
X87288666Y-86314714D01*
X87288666Y-86314714D02*
X87383904Y-86362333D01*
X86479142Y-86076619D02*
X85860095Y-86076619D01*
X85860095Y-86076619D02*
X86193428Y-86457571D01*
X86193428Y-86457571D02*
X86050571Y-86457571D01*
X86050571Y-86457571D02*
X85955333Y-86505190D01*
X85955333Y-86505190D02*
X85907714Y-86552809D01*
X85907714Y-86552809D02*
X85860095Y-86648047D01*
X85860095Y-86648047D02*
X85860095Y-86886142D01*
X85860095Y-86886142D02*
X85907714Y-86981380D01*
X85907714Y-86981380D02*
X85955333Y-87029000D01*
X85955333Y-87029000D02*
X86050571Y-87076619D01*
X86050571Y-87076619D02*
X86336285Y-87076619D01*
X86336285Y-87076619D02*
X86431523Y-87029000D01*
X86431523Y-87029000D02*
X86479142Y-86981380D01*
%TO.C,R2*%
X90209666Y-69296619D02*
X90542999Y-68820428D01*
X90781094Y-69296619D02*
X90781094Y-68296619D01*
X90781094Y-68296619D02*
X90400142Y-68296619D01*
X90400142Y-68296619D02*
X90304904Y-68344238D01*
X90304904Y-68344238D02*
X90257285Y-68391857D01*
X90257285Y-68391857D02*
X90209666Y-68487095D01*
X90209666Y-68487095D02*
X90209666Y-68629952D01*
X90209666Y-68629952D02*
X90257285Y-68725190D01*
X90257285Y-68725190D02*
X90304904Y-68772809D01*
X90304904Y-68772809D02*
X90400142Y-68820428D01*
X90400142Y-68820428D02*
X90781094Y-68820428D01*
X89828713Y-68391857D02*
X89781094Y-68344238D01*
X89781094Y-68344238D02*
X89685856Y-68296619D01*
X89685856Y-68296619D02*
X89447761Y-68296619D01*
X89447761Y-68296619D02*
X89352523Y-68344238D01*
X89352523Y-68344238D02*
X89304904Y-68391857D01*
X89304904Y-68391857D02*
X89257285Y-68487095D01*
X89257285Y-68487095D02*
X89257285Y-68582333D01*
X89257285Y-68582333D02*
X89304904Y-68725190D01*
X89304904Y-68725190D02*
X89876332Y-69296619D01*
X89876332Y-69296619D02*
X89257285Y-69296619D01*
%TO.C,C6*%
X97956666Y-128637380D02*
X98004285Y-128685000D01*
X98004285Y-128685000D02*
X98147142Y-128732619D01*
X98147142Y-128732619D02*
X98242380Y-128732619D01*
X98242380Y-128732619D02*
X98385237Y-128685000D01*
X98385237Y-128685000D02*
X98480475Y-128589761D01*
X98480475Y-128589761D02*
X98528094Y-128494523D01*
X98528094Y-128494523D02*
X98575713Y-128304047D01*
X98575713Y-128304047D02*
X98575713Y-128161190D01*
X98575713Y-128161190D02*
X98528094Y-127970714D01*
X98528094Y-127970714D02*
X98480475Y-127875476D01*
X98480475Y-127875476D02*
X98385237Y-127780238D01*
X98385237Y-127780238D02*
X98242380Y-127732619D01*
X98242380Y-127732619D02*
X98147142Y-127732619D01*
X98147142Y-127732619D02*
X98004285Y-127780238D01*
X98004285Y-127780238D02*
X97956666Y-127827857D01*
X97099523Y-127732619D02*
X97289999Y-127732619D01*
X97289999Y-127732619D02*
X97385237Y-127780238D01*
X97385237Y-127780238D02*
X97432856Y-127827857D01*
X97432856Y-127827857D02*
X97528094Y-127970714D01*
X97528094Y-127970714D02*
X97575713Y-128161190D01*
X97575713Y-128161190D02*
X97575713Y-128542142D01*
X97575713Y-128542142D02*
X97528094Y-128637380D01*
X97528094Y-128637380D02*
X97480475Y-128685000D01*
X97480475Y-128685000D02*
X97385237Y-128732619D01*
X97385237Y-128732619D02*
X97194761Y-128732619D01*
X97194761Y-128732619D02*
X97099523Y-128685000D01*
X97099523Y-128685000D02*
X97051904Y-128637380D01*
X97051904Y-128637380D02*
X97004285Y-128542142D01*
X97004285Y-128542142D02*
X97004285Y-128304047D01*
X97004285Y-128304047D02*
X97051904Y-128208809D01*
X97051904Y-128208809D02*
X97099523Y-128161190D01*
X97099523Y-128161190D02*
X97194761Y-128113571D01*
X97194761Y-128113571D02*
X97385237Y-128113571D01*
X97385237Y-128113571D02*
X97480475Y-128161190D01*
X97480475Y-128161190D02*
X97528094Y-128208809D01*
X97528094Y-128208809D02*
X97575713Y-128304047D01*
%TO.C,C7*%
X94908666Y-140321380D02*
X94956285Y-140369000D01*
X94956285Y-140369000D02*
X95099142Y-140416619D01*
X95099142Y-140416619D02*
X95194380Y-140416619D01*
X95194380Y-140416619D02*
X95337237Y-140369000D01*
X95337237Y-140369000D02*
X95432475Y-140273761D01*
X95432475Y-140273761D02*
X95480094Y-140178523D01*
X95480094Y-140178523D02*
X95527713Y-139988047D01*
X95527713Y-139988047D02*
X95527713Y-139845190D01*
X95527713Y-139845190D02*
X95480094Y-139654714D01*
X95480094Y-139654714D02*
X95432475Y-139559476D01*
X95432475Y-139559476D02*
X95337237Y-139464238D01*
X95337237Y-139464238D02*
X95194380Y-139416619D01*
X95194380Y-139416619D02*
X95099142Y-139416619D01*
X95099142Y-139416619D02*
X94956285Y-139464238D01*
X94956285Y-139464238D02*
X94908666Y-139511857D01*
X94575332Y-139416619D02*
X93908666Y-139416619D01*
X93908666Y-139416619D02*
X94337237Y-140416619D01*
%TO.C,C24*%
X120022857Y-99427380D02*
X120070476Y-99475000D01*
X120070476Y-99475000D02*
X120213333Y-99522619D01*
X120213333Y-99522619D02*
X120308571Y-99522619D01*
X120308571Y-99522619D02*
X120451428Y-99475000D01*
X120451428Y-99475000D02*
X120546666Y-99379761D01*
X120546666Y-99379761D02*
X120594285Y-99284523D01*
X120594285Y-99284523D02*
X120641904Y-99094047D01*
X120641904Y-99094047D02*
X120641904Y-98951190D01*
X120641904Y-98951190D02*
X120594285Y-98760714D01*
X120594285Y-98760714D02*
X120546666Y-98665476D01*
X120546666Y-98665476D02*
X120451428Y-98570238D01*
X120451428Y-98570238D02*
X120308571Y-98522619D01*
X120308571Y-98522619D02*
X120213333Y-98522619D01*
X120213333Y-98522619D02*
X120070476Y-98570238D01*
X120070476Y-98570238D02*
X120022857Y-98617857D01*
X119641904Y-98617857D02*
X119594285Y-98570238D01*
X119594285Y-98570238D02*
X119499047Y-98522619D01*
X119499047Y-98522619D02*
X119260952Y-98522619D01*
X119260952Y-98522619D02*
X119165714Y-98570238D01*
X119165714Y-98570238D02*
X119118095Y-98617857D01*
X119118095Y-98617857D02*
X119070476Y-98713095D01*
X119070476Y-98713095D02*
X119070476Y-98808333D01*
X119070476Y-98808333D02*
X119118095Y-98951190D01*
X119118095Y-98951190D02*
X119689523Y-99522619D01*
X119689523Y-99522619D02*
X119070476Y-99522619D01*
X118213333Y-98855952D02*
X118213333Y-99522619D01*
X118451428Y-98475000D02*
X118689523Y-99189285D01*
X118689523Y-99189285D02*
X118070476Y-99189285D01*
%TO.C,D11*%
X86822619Y-107878714D02*
X85822619Y-107878714D01*
X85822619Y-107878714D02*
X85822619Y-108116809D01*
X85822619Y-108116809D02*
X85870238Y-108259666D01*
X85870238Y-108259666D02*
X85965476Y-108354904D01*
X85965476Y-108354904D02*
X86060714Y-108402523D01*
X86060714Y-108402523D02*
X86251190Y-108450142D01*
X86251190Y-108450142D02*
X86394047Y-108450142D01*
X86394047Y-108450142D02*
X86584523Y-108402523D01*
X86584523Y-108402523D02*
X86679761Y-108354904D01*
X86679761Y-108354904D02*
X86775000Y-108259666D01*
X86775000Y-108259666D02*
X86822619Y-108116809D01*
X86822619Y-108116809D02*
X86822619Y-107878714D01*
X86822619Y-109402523D02*
X86822619Y-108831095D01*
X86822619Y-109116809D02*
X85822619Y-109116809D01*
X85822619Y-109116809D02*
X85965476Y-109021571D01*
X85965476Y-109021571D02*
X86060714Y-108926333D01*
X86060714Y-108926333D02*
X86108333Y-108831095D01*
X86822619Y-110354904D02*
X86822619Y-109783476D01*
X86822619Y-110069190D02*
X85822619Y-110069190D01*
X85822619Y-110069190D02*
X85965476Y-109973952D01*
X85965476Y-109973952D02*
X86060714Y-109878714D01*
X86060714Y-109878714D02*
X86108333Y-109783476D01*
%TO.C,R43*%
X87584619Y-118483142D02*
X87108428Y-118149809D01*
X87584619Y-117911714D02*
X86584619Y-117911714D01*
X86584619Y-117911714D02*
X86584619Y-118292666D01*
X86584619Y-118292666D02*
X86632238Y-118387904D01*
X86632238Y-118387904D02*
X86679857Y-118435523D01*
X86679857Y-118435523D02*
X86775095Y-118483142D01*
X86775095Y-118483142D02*
X86917952Y-118483142D01*
X86917952Y-118483142D02*
X87013190Y-118435523D01*
X87013190Y-118435523D02*
X87060809Y-118387904D01*
X87060809Y-118387904D02*
X87108428Y-118292666D01*
X87108428Y-118292666D02*
X87108428Y-117911714D01*
X86917952Y-119340285D02*
X87584619Y-119340285D01*
X86537000Y-119102190D02*
X87251285Y-118864095D01*
X87251285Y-118864095D02*
X87251285Y-119483142D01*
X86584619Y-119768857D02*
X86584619Y-120387904D01*
X86584619Y-120387904D02*
X86965571Y-120054571D01*
X86965571Y-120054571D02*
X86965571Y-120197428D01*
X86965571Y-120197428D02*
X87013190Y-120292666D01*
X87013190Y-120292666D02*
X87060809Y-120340285D01*
X87060809Y-120340285D02*
X87156047Y-120387904D01*
X87156047Y-120387904D02*
X87394142Y-120387904D01*
X87394142Y-120387904D02*
X87489380Y-120340285D01*
X87489380Y-120340285D02*
X87537000Y-120292666D01*
X87537000Y-120292666D02*
X87584619Y-120197428D01*
X87584619Y-120197428D02*
X87584619Y-119911714D01*
X87584619Y-119911714D02*
X87537000Y-119816476D01*
X87537000Y-119816476D02*
X87489380Y-119768857D01*
%TO.C,R18*%
X98125619Y-93337142D02*
X97649428Y-93003809D01*
X98125619Y-92765714D02*
X97125619Y-92765714D01*
X97125619Y-92765714D02*
X97125619Y-93146666D01*
X97125619Y-93146666D02*
X97173238Y-93241904D01*
X97173238Y-93241904D02*
X97220857Y-93289523D01*
X97220857Y-93289523D02*
X97316095Y-93337142D01*
X97316095Y-93337142D02*
X97458952Y-93337142D01*
X97458952Y-93337142D02*
X97554190Y-93289523D01*
X97554190Y-93289523D02*
X97601809Y-93241904D01*
X97601809Y-93241904D02*
X97649428Y-93146666D01*
X97649428Y-93146666D02*
X97649428Y-92765714D01*
X98125619Y-94289523D02*
X98125619Y-93718095D01*
X98125619Y-94003809D02*
X97125619Y-94003809D01*
X97125619Y-94003809D02*
X97268476Y-93908571D01*
X97268476Y-93908571D02*
X97363714Y-93813333D01*
X97363714Y-93813333D02*
X97411333Y-93718095D01*
X97554190Y-94860952D02*
X97506571Y-94765714D01*
X97506571Y-94765714D02*
X97458952Y-94718095D01*
X97458952Y-94718095D02*
X97363714Y-94670476D01*
X97363714Y-94670476D02*
X97316095Y-94670476D01*
X97316095Y-94670476D02*
X97220857Y-94718095D01*
X97220857Y-94718095D02*
X97173238Y-94765714D01*
X97173238Y-94765714D02*
X97125619Y-94860952D01*
X97125619Y-94860952D02*
X97125619Y-95051428D01*
X97125619Y-95051428D02*
X97173238Y-95146666D01*
X97173238Y-95146666D02*
X97220857Y-95194285D01*
X97220857Y-95194285D02*
X97316095Y-95241904D01*
X97316095Y-95241904D02*
X97363714Y-95241904D01*
X97363714Y-95241904D02*
X97458952Y-95194285D01*
X97458952Y-95194285D02*
X97506571Y-95146666D01*
X97506571Y-95146666D02*
X97554190Y-95051428D01*
X97554190Y-95051428D02*
X97554190Y-94860952D01*
X97554190Y-94860952D02*
X97601809Y-94765714D01*
X97601809Y-94765714D02*
X97649428Y-94718095D01*
X97649428Y-94718095D02*
X97744666Y-94670476D01*
X97744666Y-94670476D02*
X97935142Y-94670476D01*
X97935142Y-94670476D02*
X98030380Y-94718095D01*
X98030380Y-94718095D02*
X98078000Y-94765714D01*
X98078000Y-94765714D02*
X98125619Y-94860952D01*
X98125619Y-94860952D02*
X98125619Y-95051428D01*
X98125619Y-95051428D02*
X98078000Y-95146666D01*
X98078000Y-95146666D02*
X98030380Y-95194285D01*
X98030380Y-95194285D02*
X97935142Y-95241904D01*
X97935142Y-95241904D02*
X97744666Y-95241904D01*
X97744666Y-95241904D02*
X97649428Y-95194285D01*
X97649428Y-95194285D02*
X97601809Y-95146666D01*
X97601809Y-95146666D02*
X97554190Y-95051428D01*
%TO.C,R28*%
X120022857Y-97871619D02*
X120356190Y-97395428D01*
X120594285Y-97871619D02*
X120594285Y-96871619D01*
X120594285Y-96871619D02*
X120213333Y-96871619D01*
X120213333Y-96871619D02*
X120118095Y-96919238D01*
X120118095Y-96919238D02*
X120070476Y-96966857D01*
X120070476Y-96966857D02*
X120022857Y-97062095D01*
X120022857Y-97062095D02*
X120022857Y-97204952D01*
X120022857Y-97204952D02*
X120070476Y-97300190D01*
X120070476Y-97300190D02*
X120118095Y-97347809D01*
X120118095Y-97347809D02*
X120213333Y-97395428D01*
X120213333Y-97395428D02*
X120594285Y-97395428D01*
X119641904Y-96966857D02*
X119594285Y-96919238D01*
X119594285Y-96919238D02*
X119499047Y-96871619D01*
X119499047Y-96871619D02*
X119260952Y-96871619D01*
X119260952Y-96871619D02*
X119165714Y-96919238D01*
X119165714Y-96919238D02*
X119118095Y-96966857D01*
X119118095Y-96966857D02*
X119070476Y-97062095D01*
X119070476Y-97062095D02*
X119070476Y-97157333D01*
X119070476Y-97157333D02*
X119118095Y-97300190D01*
X119118095Y-97300190D02*
X119689523Y-97871619D01*
X119689523Y-97871619D02*
X119070476Y-97871619D01*
X118499047Y-97300190D02*
X118594285Y-97252571D01*
X118594285Y-97252571D02*
X118641904Y-97204952D01*
X118641904Y-97204952D02*
X118689523Y-97109714D01*
X118689523Y-97109714D02*
X118689523Y-97062095D01*
X118689523Y-97062095D02*
X118641904Y-96966857D01*
X118641904Y-96966857D02*
X118594285Y-96919238D01*
X118594285Y-96919238D02*
X118499047Y-96871619D01*
X118499047Y-96871619D02*
X118308571Y-96871619D01*
X118308571Y-96871619D02*
X118213333Y-96919238D01*
X118213333Y-96919238D02*
X118165714Y-96966857D01*
X118165714Y-96966857D02*
X118118095Y-97062095D01*
X118118095Y-97062095D02*
X118118095Y-97109714D01*
X118118095Y-97109714D02*
X118165714Y-97204952D01*
X118165714Y-97204952D02*
X118213333Y-97252571D01*
X118213333Y-97252571D02*
X118308571Y-97300190D01*
X118308571Y-97300190D02*
X118499047Y-97300190D01*
X118499047Y-97300190D02*
X118594285Y-97347809D01*
X118594285Y-97347809D02*
X118641904Y-97395428D01*
X118641904Y-97395428D02*
X118689523Y-97490666D01*
X118689523Y-97490666D02*
X118689523Y-97681142D01*
X118689523Y-97681142D02*
X118641904Y-97776380D01*
X118641904Y-97776380D02*
X118594285Y-97824000D01*
X118594285Y-97824000D02*
X118499047Y-97871619D01*
X118499047Y-97871619D02*
X118308571Y-97871619D01*
X118308571Y-97871619D02*
X118213333Y-97824000D01*
X118213333Y-97824000D02*
X118165714Y-97776380D01*
X118165714Y-97776380D02*
X118118095Y-97681142D01*
X118118095Y-97681142D02*
X118118095Y-97490666D01*
X118118095Y-97490666D02*
X118165714Y-97395428D01*
X118165714Y-97395428D02*
X118213333Y-97347809D01*
X118213333Y-97347809D02*
X118308571Y-97300190D01*
%TO.C,R13*%
X105237619Y-114292142D02*
X104761428Y-113958809D01*
X105237619Y-113720714D02*
X104237619Y-113720714D01*
X104237619Y-113720714D02*
X104237619Y-114101666D01*
X104237619Y-114101666D02*
X104285238Y-114196904D01*
X104285238Y-114196904D02*
X104332857Y-114244523D01*
X104332857Y-114244523D02*
X104428095Y-114292142D01*
X104428095Y-114292142D02*
X104570952Y-114292142D01*
X104570952Y-114292142D02*
X104666190Y-114244523D01*
X104666190Y-114244523D02*
X104713809Y-114196904D01*
X104713809Y-114196904D02*
X104761428Y-114101666D01*
X104761428Y-114101666D02*
X104761428Y-113720714D01*
X105237619Y-115244523D02*
X105237619Y-114673095D01*
X105237619Y-114958809D02*
X104237619Y-114958809D01*
X104237619Y-114958809D02*
X104380476Y-114863571D01*
X104380476Y-114863571D02*
X104475714Y-114768333D01*
X104475714Y-114768333D02*
X104523333Y-114673095D01*
X104237619Y-115577857D02*
X104237619Y-116196904D01*
X104237619Y-116196904D02*
X104618571Y-115863571D01*
X104618571Y-115863571D02*
X104618571Y-116006428D01*
X104618571Y-116006428D02*
X104666190Y-116101666D01*
X104666190Y-116101666D02*
X104713809Y-116149285D01*
X104713809Y-116149285D02*
X104809047Y-116196904D01*
X104809047Y-116196904D02*
X105047142Y-116196904D01*
X105047142Y-116196904D02*
X105142380Y-116149285D01*
X105142380Y-116149285D02*
X105190000Y-116101666D01*
X105190000Y-116101666D02*
X105237619Y-116006428D01*
X105237619Y-116006428D02*
X105237619Y-115720714D01*
X105237619Y-115720714D02*
X105190000Y-115625476D01*
X105190000Y-115625476D02*
X105142380Y-115577857D01*
%TO.C,R17*%
X93045619Y-93464142D02*
X92569428Y-93130809D01*
X93045619Y-92892714D02*
X92045619Y-92892714D01*
X92045619Y-92892714D02*
X92045619Y-93273666D01*
X92045619Y-93273666D02*
X92093238Y-93368904D01*
X92093238Y-93368904D02*
X92140857Y-93416523D01*
X92140857Y-93416523D02*
X92236095Y-93464142D01*
X92236095Y-93464142D02*
X92378952Y-93464142D01*
X92378952Y-93464142D02*
X92474190Y-93416523D01*
X92474190Y-93416523D02*
X92521809Y-93368904D01*
X92521809Y-93368904D02*
X92569428Y-93273666D01*
X92569428Y-93273666D02*
X92569428Y-92892714D01*
X93045619Y-94416523D02*
X93045619Y-93845095D01*
X93045619Y-94130809D02*
X92045619Y-94130809D01*
X92045619Y-94130809D02*
X92188476Y-94035571D01*
X92188476Y-94035571D02*
X92283714Y-93940333D01*
X92283714Y-93940333D02*
X92331333Y-93845095D01*
X92045619Y-94749857D02*
X92045619Y-95416523D01*
X92045619Y-95416523D02*
X93045619Y-94987952D01*
%TO.C,R10*%
X116466857Y-64056619D02*
X116800190Y-63580428D01*
X117038285Y-64056619D02*
X117038285Y-63056619D01*
X117038285Y-63056619D02*
X116657333Y-63056619D01*
X116657333Y-63056619D02*
X116562095Y-63104238D01*
X116562095Y-63104238D02*
X116514476Y-63151857D01*
X116514476Y-63151857D02*
X116466857Y-63247095D01*
X116466857Y-63247095D02*
X116466857Y-63389952D01*
X116466857Y-63389952D02*
X116514476Y-63485190D01*
X116514476Y-63485190D02*
X116562095Y-63532809D01*
X116562095Y-63532809D02*
X116657333Y-63580428D01*
X116657333Y-63580428D02*
X117038285Y-63580428D01*
X115514476Y-64056619D02*
X116085904Y-64056619D01*
X115800190Y-64056619D02*
X115800190Y-63056619D01*
X115800190Y-63056619D02*
X115895428Y-63199476D01*
X115895428Y-63199476D02*
X115990666Y-63294714D01*
X115990666Y-63294714D02*
X116085904Y-63342333D01*
X114895428Y-63056619D02*
X114800190Y-63056619D01*
X114800190Y-63056619D02*
X114704952Y-63104238D01*
X114704952Y-63104238D02*
X114657333Y-63151857D01*
X114657333Y-63151857D02*
X114609714Y-63247095D01*
X114609714Y-63247095D02*
X114562095Y-63437571D01*
X114562095Y-63437571D02*
X114562095Y-63675666D01*
X114562095Y-63675666D02*
X114609714Y-63866142D01*
X114609714Y-63866142D02*
X114657333Y-63961380D01*
X114657333Y-63961380D02*
X114704952Y-64009000D01*
X114704952Y-64009000D02*
X114800190Y-64056619D01*
X114800190Y-64056619D02*
X114895428Y-64056619D01*
X114895428Y-64056619D02*
X114990666Y-64009000D01*
X114990666Y-64009000D02*
X115038285Y-63961380D01*
X115038285Y-63961380D02*
X115085904Y-63866142D01*
X115085904Y-63866142D02*
X115133523Y-63675666D01*
X115133523Y-63675666D02*
X115133523Y-63437571D01*
X115133523Y-63437571D02*
X115085904Y-63247095D01*
X115085904Y-63247095D02*
X115038285Y-63151857D01*
X115038285Y-63151857D02*
X114990666Y-63104238D01*
X114990666Y-63104238D02*
X114895428Y-63056619D01*
%TO.C,C5*%
X75604666Y-136892380D02*
X75652285Y-136940000D01*
X75652285Y-136940000D02*
X75795142Y-136987619D01*
X75795142Y-136987619D02*
X75890380Y-136987619D01*
X75890380Y-136987619D02*
X76033237Y-136940000D01*
X76033237Y-136940000D02*
X76128475Y-136844761D01*
X76128475Y-136844761D02*
X76176094Y-136749523D01*
X76176094Y-136749523D02*
X76223713Y-136559047D01*
X76223713Y-136559047D02*
X76223713Y-136416190D01*
X76223713Y-136416190D02*
X76176094Y-136225714D01*
X76176094Y-136225714D02*
X76128475Y-136130476D01*
X76128475Y-136130476D02*
X76033237Y-136035238D01*
X76033237Y-136035238D02*
X75890380Y-135987619D01*
X75890380Y-135987619D02*
X75795142Y-135987619D01*
X75795142Y-135987619D02*
X75652285Y-136035238D01*
X75652285Y-136035238D02*
X75604666Y-136082857D01*
X74699904Y-135987619D02*
X75176094Y-135987619D01*
X75176094Y-135987619D02*
X75223713Y-136463809D01*
X75223713Y-136463809D02*
X75176094Y-136416190D01*
X75176094Y-136416190D02*
X75080856Y-136368571D01*
X75080856Y-136368571D02*
X74842761Y-136368571D01*
X74842761Y-136368571D02*
X74747523Y-136416190D01*
X74747523Y-136416190D02*
X74699904Y-136463809D01*
X74699904Y-136463809D02*
X74652285Y-136559047D01*
X74652285Y-136559047D02*
X74652285Y-136797142D01*
X74652285Y-136797142D02*
X74699904Y-136892380D01*
X74699904Y-136892380D02*
X74747523Y-136940000D01*
X74747523Y-136940000D02*
X74842761Y-136987619D01*
X74842761Y-136987619D02*
X75080856Y-136987619D01*
X75080856Y-136987619D02*
X75176094Y-136940000D01*
X75176094Y-136940000D02*
X75223713Y-136892380D01*
%TO.C,U1*%
X83565904Y-74794619D02*
X83565904Y-75604142D01*
X83565904Y-75604142D02*
X83518285Y-75699380D01*
X83518285Y-75699380D02*
X83470666Y-75747000D01*
X83470666Y-75747000D02*
X83375428Y-75794619D01*
X83375428Y-75794619D02*
X83184952Y-75794619D01*
X83184952Y-75794619D02*
X83089714Y-75747000D01*
X83089714Y-75747000D02*
X83042095Y-75699380D01*
X83042095Y-75699380D02*
X82994476Y-75604142D01*
X82994476Y-75604142D02*
X82994476Y-74794619D01*
X81994476Y-75794619D02*
X82565904Y-75794619D01*
X82280190Y-75794619D02*
X82280190Y-74794619D01*
X82280190Y-74794619D02*
X82375428Y-74937476D01*
X82375428Y-74937476D02*
X82470666Y-75032714D01*
X82470666Y-75032714D02*
X82565904Y-75080333D01*
%TO.C,D2*%
X109936619Y-108862905D02*
X108936619Y-108862905D01*
X108936619Y-108862905D02*
X108936619Y-109101000D01*
X108936619Y-109101000D02*
X108984238Y-109243857D01*
X108984238Y-109243857D02*
X109079476Y-109339095D01*
X109079476Y-109339095D02*
X109174714Y-109386714D01*
X109174714Y-109386714D02*
X109365190Y-109434333D01*
X109365190Y-109434333D02*
X109508047Y-109434333D01*
X109508047Y-109434333D02*
X109698523Y-109386714D01*
X109698523Y-109386714D02*
X109793761Y-109339095D01*
X109793761Y-109339095D02*
X109889000Y-109243857D01*
X109889000Y-109243857D02*
X109936619Y-109101000D01*
X109936619Y-109101000D02*
X109936619Y-108862905D01*
X109031857Y-109815286D02*
X108984238Y-109862905D01*
X108984238Y-109862905D02*
X108936619Y-109958143D01*
X108936619Y-109958143D02*
X108936619Y-110196238D01*
X108936619Y-110196238D02*
X108984238Y-110291476D01*
X108984238Y-110291476D02*
X109031857Y-110339095D01*
X109031857Y-110339095D02*
X109127095Y-110386714D01*
X109127095Y-110386714D02*
X109222333Y-110386714D01*
X109222333Y-110386714D02*
X109365190Y-110339095D01*
X109365190Y-110339095D02*
X109936619Y-109767667D01*
X109936619Y-109767667D02*
X109936619Y-110386714D01*
%TO.C,R41*%
X95638857Y-107650619D02*
X95972190Y-107174428D01*
X96210285Y-107650619D02*
X96210285Y-106650619D01*
X96210285Y-106650619D02*
X95829333Y-106650619D01*
X95829333Y-106650619D02*
X95734095Y-106698238D01*
X95734095Y-106698238D02*
X95686476Y-106745857D01*
X95686476Y-106745857D02*
X95638857Y-106841095D01*
X95638857Y-106841095D02*
X95638857Y-106983952D01*
X95638857Y-106983952D02*
X95686476Y-107079190D01*
X95686476Y-107079190D02*
X95734095Y-107126809D01*
X95734095Y-107126809D02*
X95829333Y-107174428D01*
X95829333Y-107174428D02*
X96210285Y-107174428D01*
X94781714Y-106983952D02*
X94781714Y-107650619D01*
X95019809Y-106603000D02*
X95257904Y-107317285D01*
X95257904Y-107317285D02*
X94638857Y-107317285D01*
X93734095Y-107650619D02*
X94305523Y-107650619D01*
X94019809Y-107650619D02*
X94019809Y-106650619D01*
X94019809Y-106650619D02*
X94115047Y-106793476D01*
X94115047Y-106793476D02*
X94210285Y-106888714D01*
X94210285Y-106888714D02*
X94305523Y-106936333D01*
%TO.C,R25*%
X120022857Y-101203619D02*
X120356190Y-100727428D01*
X120594285Y-101203619D02*
X120594285Y-100203619D01*
X120594285Y-100203619D02*
X120213333Y-100203619D01*
X120213333Y-100203619D02*
X120118095Y-100251238D01*
X120118095Y-100251238D02*
X120070476Y-100298857D01*
X120070476Y-100298857D02*
X120022857Y-100394095D01*
X120022857Y-100394095D02*
X120022857Y-100536952D01*
X120022857Y-100536952D02*
X120070476Y-100632190D01*
X120070476Y-100632190D02*
X120118095Y-100679809D01*
X120118095Y-100679809D02*
X120213333Y-100727428D01*
X120213333Y-100727428D02*
X120594285Y-100727428D01*
X119641904Y-100298857D02*
X119594285Y-100251238D01*
X119594285Y-100251238D02*
X119499047Y-100203619D01*
X119499047Y-100203619D02*
X119260952Y-100203619D01*
X119260952Y-100203619D02*
X119165714Y-100251238D01*
X119165714Y-100251238D02*
X119118095Y-100298857D01*
X119118095Y-100298857D02*
X119070476Y-100394095D01*
X119070476Y-100394095D02*
X119070476Y-100489333D01*
X119070476Y-100489333D02*
X119118095Y-100632190D01*
X119118095Y-100632190D02*
X119689523Y-101203619D01*
X119689523Y-101203619D02*
X119070476Y-101203619D01*
X118165714Y-100203619D02*
X118641904Y-100203619D01*
X118641904Y-100203619D02*
X118689523Y-100679809D01*
X118689523Y-100679809D02*
X118641904Y-100632190D01*
X118641904Y-100632190D02*
X118546666Y-100584571D01*
X118546666Y-100584571D02*
X118308571Y-100584571D01*
X118308571Y-100584571D02*
X118213333Y-100632190D01*
X118213333Y-100632190D02*
X118165714Y-100679809D01*
X118165714Y-100679809D02*
X118118095Y-100775047D01*
X118118095Y-100775047D02*
X118118095Y-101013142D01*
X118118095Y-101013142D02*
X118165714Y-101108380D01*
X118165714Y-101108380D02*
X118213333Y-101156000D01*
X118213333Y-101156000D02*
X118308571Y-101203619D01*
X118308571Y-101203619D02*
X118546666Y-101203619D01*
X118546666Y-101203619D02*
X118641904Y-101156000D01*
X118641904Y-101156000D02*
X118689523Y-101108380D01*
%TO.C,C21*%
X112529857Y-55612380D02*
X112577476Y-55660000D01*
X112577476Y-55660000D02*
X112720333Y-55707619D01*
X112720333Y-55707619D02*
X112815571Y-55707619D01*
X112815571Y-55707619D02*
X112958428Y-55660000D01*
X112958428Y-55660000D02*
X113053666Y-55564761D01*
X113053666Y-55564761D02*
X113101285Y-55469523D01*
X113101285Y-55469523D02*
X113148904Y-55279047D01*
X113148904Y-55279047D02*
X113148904Y-55136190D01*
X113148904Y-55136190D02*
X113101285Y-54945714D01*
X113101285Y-54945714D02*
X113053666Y-54850476D01*
X113053666Y-54850476D02*
X112958428Y-54755238D01*
X112958428Y-54755238D02*
X112815571Y-54707619D01*
X112815571Y-54707619D02*
X112720333Y-54707619D01*
X112720333Y-54707619D02*
X112577476Y-54755238D01*
X112577476Y-54755238D02*
X112529857Y-54802857D01*
X112148904Y-54802857D02*
X112101285Y-54755238D01*
X112101285Y-54755238D02*
X112006047Y-54707619D01*
X112006047Y-54707619D02*
X111767952Y-54707619D01*
X111767952Y-54707619D02*
X111672714Y-54755238D01*
X111672714Y-54755238D02*
X111625095Y-54802857D01*
X111625095Y-54802857D02*
X111577476Y-54898095D01*
X111577476Y-54898095D02*
X111577476Y-54993333D01*
X111577476Y-54993333D02*
X111625095Y-55136190D01*
X111625095Y-55136190D02*
X112196523Y-55707619D01*
X112196523Y-55707619D02*
X111577476Y-55707619D01*
X110625095Y-55707619D02*
X111196523Y-55707619D01*
X110910809Y-55707619D02*
X110910809Y-54707619D01*
X110910809Y-54707619D02*
X111006047Y-54850476D01*
X111006047Y-54850476D02*
X111101285Y-54945714D01*
X111101285Y-54945714D02*
X111196523Y-54993333D01*
%TO.C,C25*%
X106560857Y-93839380D02*
X106608476Y-93887000D01*
X106608476Y-93887000D02*
X106751333Y-93934619D01*
X106751333Y-93934619D02*
X106846571Y-93934619D01*
X106846571Y-93934619D02*
X106989428Y-93887000D01*
X106989428Y-93887000D02*
X107084666Y-93791761D01*
X107084666Y-93791761D02*
X107132285Y-93696523D01*
X107132285Y-93696523D02*
X107179904Y-93506047D01*
X107179904Y-93506047D02*
X107179904Y-93363190D01*
X107179904Y-93363190D02*
X107132285Y-93172714D01*
X107132285Y-93172714D02*
X107084666Y-93077476D01*
X107084666Y-93077476D02*
X106989428Y-92982238D01*
X106989428Y-92982238D02*
X106846571Y-92934619D01*
X106846571Y-92934619D02*
X106751333Y-92934619D01*
X106751333Y-92934619D02*
X106608476Y-92982238D01*
X106608476Y-92982238D02*
X106560857Y-93029857D01*
X106179904Y-93029857D02*
X106132285Y-92982238D01*
X106132285Y-92982238D02*
X106037047Y-92934619D01*
X106037047Y-92934619D02*
X105798952Y-92934619D01*
X105798952Y-92934619D02*
X105703714Y-92982238D01*
X105703714Y-92982238D02*
X105656095Y-93029857D01*
X105656095Y-93029857D02*
X105608476Y-93125095D01*
X105608476Y-93125095D02*
X105608476Y-93220333D01*
X105608476Y-93220333D02*
X105656095Y-93363190D01*
X105656095Y-93363190D02*
X106227523Y-93934619D01*
X106227523Y-93934619D02*
X105608476Y-93934619D01*
X104703714Y-92934619D02*
X105179904Y-92934619D01*
X105179904Y-92934619D02*
X105227523Y-93410809D01*
X105227523Y-93410809D02*
X105179904Y-93363190D01*
X105179904Y-93363190D02*
X105084666Y-93315571D01*
X105084666Y-93315571D02*
X104846571Y-93315571D01*
X104846571Y-93315571D02*
X104751333Y-93363190D01*
X104751333Y-93363190D02*
X104703714Y-93410809D01*
X104703714Y-93410809D02*
X104656095Y-93506047D01*
X104656095Y-93506047D02*
X104656095Y-93744142D01*
X104656095Y-93744142D02*
X104703714Y-93839380D01*
X104703714Y-93839380D02*
X104751333Y-93887000D01*
X104751333Y-93887000D02*
X104846571Y-93934619D01*
X104846571Y-93934619D02*
X105084666Y-93934619D01*
X105084666Y-93934619D02*
X105179904Y-93887000D01*
X105179904Y-93887000D02*
X105227523Y-93839380D01*
%TO.C,R38*%
X95765857Y-98887619D02*
X96099190Y-98411428D01*
X96337285Y-98887619D02*
X96337285Y-97887619D01*
X96337285Y-97887619D02*
X95956333Y-97887619D01*
X95956333Y-97887619D02*
X95861095Y-97935238D01*
X95861095Y-97935238D02*
X95813476Y-97982857D01*
X95813476Y-97982857D02*
X95765857Y-98078095D01*
X95765857Y-98078095D02*
X95765857Y-98220952D01*
X95765857Y-98220952D02*
X95813476Y-98316190D01*
X95813476Y-98316190D02*
X95861095Y-98363809D01*
X95861095Y-98363809D02*
X95956333Y-98411428D01*
X95956333Y-98411428D02*
X96337285Y-98411428D01*
X95432523Y-97887619D02*
X94813476Y-97887619D01*
X94813476Y-97887619D02*
X95146809Y-98268571D01*
X95146809Y-98268571D02*
X95003952Y-98268571D01*
X95003952Y-98268571D02*
X94908714Y-98316190D01*
X94908714Y-98316190D02*
X94861095Y-98363809D01*
X94861095Y-98363809D02*
X94813476Y-98459047D01*
X94813476Y-98459047D02*
X94813476Y-98697142D01*
X94813476Y-98697142D02*
X94861095Y-98792380D01*
X94861095Y-98792380D02*
X94908714Y-98840000D01*
X94908714Y-98840000D02*
X95003952Y-98887619D01*
X95003952Y-98887619D02*
X95289666Y-98887619D01*
X95289666Y-98887619D02*
X95384904Y-98840000D01*
X95384904Y-98840000D02*
X95432523Y-98792380D01*
X94242047Y-98316190D02*
X94337285Y-98268571D01*
X94337285Y-98268571D02*
X94384904Y-98220952D01*
X94384904Y-98220952D02*
X94432523Y-98125714D01*
X94432523Y-98125714D02*
X94432523Y-98078095D01*
X94432523Y-98078095D02*
X94384904Y-97982857D01*
X94384904Y-97982857D02*
X94337285Y-97935238D01*
X94337285Y-97935238D02*
X94242047Y-97887619D01*
X94242047Y-97887619D02*
X94051571Y-97887619D01*
X94051571Y-97887619D02*
X93956333Y-97935238D01*
X93956333Y-97935238D02*
X93908714Y-97982857D01*
X93908714Y-97982857D02*
X93861095Y-98078095D01*
X93861095Y-98078095D02*
X93861095Y-98125714D01*
X93861095Y-98125714D02*
X93908714Y-98220952D01*
X93908714Y-98220952D02*
X93956333Y-98268571D01*
X93956333Y-98268571D02*
X94051571Y-98316190D01*
X94051571Y-98316190D02*
X94242047Y-98316190D01*
X94242047Y-98316190D02*
X94337285Y-98363809D01*
X94337285Y-98363809D02*
X94384904Y-98411428D01*
X94384904Y-98411428D02*
X94432523Y-98506666D01*
X94432523Y-98506666D02*
X94432523Y-98697142D01*
X94432523Y-98697142D02*
X94384904Y-98792380D01*
X94384904Y-98792380D02*
X94337285Y-98840000D01*
X94337285Y-98840000D02*
X94242047Y-98887619D01*
X94242047Y-98887619D02*
X94051571Y-98887619D01*
X94051571Y-98887619D02*
X93956333Y-98840000D01*
X93956333Y-98840000D02*
X93908714Y-98792380D01*
X93908714Y-98792380D02*
X93861095Y-98697142D01*
X93861095Y-98697142D02*
X93861095Y-98506666D01*
X93861095Y-98506666D02*
X93908714Y-98411428D01*
X93908714Y-98411428D02*
X93956333Y-98363809D01*
X93956333Y-98363809D02*
X94051571Y-98316190D01*
%TO.C,C9*%
X91225666Y-141083380D02*
X91273285Y-141131000D01*
X91273285Y-141131000D02*
X91416142Y-141178619D01*
X91416142Y-141178619D02*
X91511380Y-141178619D01*
X91511380Y-141178619D02*
X91654237Y-141131000D01*
X91654237Y-141131000D02*
X91749475Y-141035761D01*
X91749475Y-141035761D02*
X91797094Y-140940523D01*
X91797094Y-140940523D02*
X91844713Y-140750047D01*
X91844713Y-140750047D02*
X91844713Y-140607190D01*
X91844713Y-140607190D02*
X91797094Y-140416714D01*
X91797094Y-140416714D02*
X91749475Y-140321476D01*
X91749475Y-140321476D02*
X91654237Y-140226238D01*
X91654237Y-140226238D02*
X91511380Y-140178619D01*
X91511380Y-140178619D02*
X91416142Y-140178619D01*
X91416142Y-140178619D02*
X91273285Y-140226238D01*
X91273285Y-140226238D02*
X91225666Y-140273857D01*
X90749475Y-141178619D02*
X90558999Y-141178619D01*
X90558999Y-141178619D02*
X90463761Y-141131000D01*
X90463761Y-141131000D02*
X90416142Y-141083380D01*
X90416142Y-141083380D02*
X90320904Y-140940523D01*
X90320904Y-140940523D02*
X90273285Y-140750047D01*
X90273285Y-140750047D02*
X90273285Y-140369095D01*
X90273285Y-140369095D02*
X90320904Y-140273857D01*
X90320904Y-140273857D02*
X90368523Y-140226238D01*
X90368523Y-140226238D02*
X90463761Y-140178619D01*
X90463761Y-140178619D02*
X90654237Y-140178619D01*
X90654237Y-140178619D02*
X90749475Y-140226238D01*
X90749475Y-140226238D02*
X90797094Y-140273857D01*
X90797094Y-140273857D02*
X90844713Y-140369095D01*
X90844713Y-140369095D02*
X90844713Y-140607190D01*
X90844713Y-140607190D02*
X90797094Y-140702428D01*
X90797094Y-140702428D02*
X90749475Y-140750047D01*
X90749475Y-140750047D02*
X90654237Y-140797666D01*
X90654237Y-140797666D02*
X90463761Y-140797666D01*
X90463761Y-140797666D02*
X90368523Y-140750047D01*
X90368523Y-140750047D02*
X90320904Y-140702428D01*
X90320904Y-140702428D02*
X90273285Y-140607190D01*
%TO.C,D3*%
X112222619Y-108862905D02*
X111222619Y-108862905D01*
X111222619Y-108862905D02*
X111222619Y-109101000D01*
X111222619Y-109101000D02*
X111270238Y-109243857D01*
X111270238Y-109243857D02*
X111365476Y-109339095D01*
X111365476Y-109339095D02*
X111460714Y-109386714D01*
X111460714Y-109386714D02*
X111651190Y-109434333D01*
X111651190Y-109434333D02*
X111794047Y-109434333D01*
X111794047Y-109434333D02*
X111984523Y-109386714D01*
X111984523Y-109386714D02*
X112079761Y-109339095D01*
X112079761Y-109339095D02*
X112175000Y-109243857D01*
X112175000Y-109243857D02*
X112222619Y-109101000D01*
X112222619Y-109101000D02*
X112222619Y-108862905D01*
X111222619Y-109767667D02*
X111222619Y-110386714D01*
X111222619Y-110386714D02*
X111603571Y-110053381D01*
X111603571Y-110053381D02*
X111603571Y-110196238D01*
X111603571Y-110196238D02*
X111651190Y-110291476D01*
X111651190Y-110291476D02*
X111698809Y-110339095D01*
X111698809Y-110339095D02*
X111794047Y-110386714D01*
X111794047Y-110386714D02*
X112032142Y-110386714D01*
X112032142Y-110386714D02*
X112127380Y-110339095D01*
X112127380Y-110339095D02*
X112175000Y-110291476D01*
X112175000Y-110291476D02*
X112222619Y-110196238D01*
X112222619Y-110196238D02*
X112222619Y-109910524D01*
X112222619Y-109910524D02*
X112175000Y-109815286D01*
X112175000Y-109815286D02*
X112127380Y-109767667D01*
%TO.C,U4*%
X110108904Y-102840619D02*
X110108904Y-103650142D01*
X110108904Y-103650142D02*
X110061285Y-103745380D01*
X110061285Y-103745380D02*
X110013666Y-103793000D01*
X110013666Y-103793000D02*
X109918428Y-103840619D01*
X109918428Y-103840619D02*
X109727952Y-103840619D01*
X109727952Y-103840619D02*
X109632714Y-103793000D01*
X109632714Y-103793000D02*
X109585095Y-103745380D01*
X109585095Y-103745380D02*
X109537476Y-103650142D01*
X109537476Y-103650142D02*
X109537476Y-102840619D01*
X108632714Y-103173952D02*
X108632714Y-103840619D01*
X108870809Y-102793000D02*
X109108904Y-103507285D01*
X109108904Y-103507285D02*
X108489857Y-103507285D01*
%TO.C,R30*%
X98940857Y-97236619D02*
X99274190Y-96760428D01*
X99512285Y-97236619D02*
X99512285Y-96236619D01*
X99512285Y-96236619D02*
X99131333Y-96236619D01*
X99131333Y-96236619D02*
X99036095Y-96284238D01*
X99036095Y-96284238D02*
X98988476Y-96331857D01*
X98988476Y-96331857D02*
X98940857Y-96427095D01*
X98940857Y-96427095D02*
X98940857Y-96569952D01*
X98940857Y-96569952D02*
X98988476Y-96665190D01*
X98988476Y-96665190D02*
X99036095Y-96712809D01*
X99036095Y-96712809D02*
X99131333Y-96760428D01*
X99131333Y-96760428D02*
X99512285Y-96760428D01*
X98607523Y-96236619D02*
X97988476Y-96236619D01*
X97988476Y-96236619D02*
X98321809Y-96617571D01*
X98321809Y-96617571D02*
X98178952Y-96617571D01*
X98178952Y-96617571D02*
X98083714Y-96665190D01*
X98083714Y-96665190D02*
X98036095Y-96712809D01*
X98036095Y-96712809D02*
X97988476Y-96808047D01*
X97988476Y-96808047D02*
X97988476Y-97046142D01*
X97988476Y-97046142D02*
X98036095Y-97141380D01*
X98036095Y-97141380D02*
X98083714Y-97189000D01*
X98083714Y-97189000D02*
X98178952Y-97236619D01*
X98178952Y-97236619D02*
X98464666Y-97236619D01*
X98464666Y-97236619D02*
X98559904Y-97189000D01*
X98559904Y-97189000D02*
X98607523Y-97141380D01*
X97369428Y-96236619D02*
X97274190Y-96236619D01*
X97274190Y-96236619D02*
X97178952Y-96284238D01*
X97178952Y-96284238D02*
X97131333Y-96331857D01*
X97131333Y-96331857D02*
X97083714Y-96427095D01*
X97083714Y-96427095D02*
X97036095Y-96617571D01*
X97036095Y-96617571D02*
X97036095Y-96855666D01*
X97036095Y-96855666D02*
X97083714Y-97046142D01*
X97083714Y-97046142D02*
X97131333Y-97141380D01*
X97131333Y-97141380D02*
X97178952Y-97189000D01*
X97178952Y-97189000D02*
X97274190Y-97236619D01*
X97274190Y-97236619D02*
X97369428Y-97236619D01*
X97369428Y-97236619D02*
X97464666Y-97189000D01*
X97464666Y-97189000D02*
X97512285Y-97141380D01*
X97512285Y-97141380D02*
X97559904Y-97046142D01*
X97559904Y-97046142D02*
X97607523Y-96855666D01*
X97607523Y-96855666D02*
X97607523Y-96617571D01*
X97607523Y-96617571D02*
X97559904Y-96427095D01*
X97559904Y-96427095D02*
X97512285Y-96331857D01*
X97512285Y-96331857D02*
X97464666Y-96284238D01*
X97464666Y-96284238D02*
X97369428Y-96236619D01*
%TO.C,R44*%
X81615619Y-118483142D02*
X81139428Y-118149809D01*
X81615619Y-117911714D02*
X80615619Y-117911714D01*
X80615619Y-117911714D02*
X80615619Y-118292666D01*
X80615619Y-118292666D02*
X80663238Y-118387904D01*
X80663238Y-118387904D02*
X80710857Y-118435523D01*
X80710857Y-118435523D02*
X80806095Y-118483142D01*
X80806095Y-118483142D02*
X80948952Y-118483142D01*
X80948952Y-118483142D02*
X81044190Y-118435523D01*
X81044190Y-118435523D02*
X81091809Y-118387904D01*
X81091809Y-118387904D02*
X81139428Y-118292666D01*
X81139428Y-118292666D02*
X81139428Y-117911714D01*
X80948952Y-119340285D02*
X81615619Y-119340285D01*
X80568000Y-119102190D02*
X81282285Y-118864095D01*
X81282285Y-118864095D02*
X81282285Y-119483142D01*
X80948952Y-120292666D02*
X81615619Y-120292666D01*
X80568000Y-120054571D02*
X81282285Y-119816476D01*
X81282285Y-119816476D02*
X81282285Y-120435523D01*
%TO.C,C22*%
X87256857Y-55739380D02*
X87304476Y-55787000D01*
X87304476Y-55787000D02*
X87447333Y-55834619D01*
X87447333Y-55834619D02*
X87542571Y-55834619D01*
X87542571Y-55834619D02*
X87685428Y-55787000D01*
X87685428Y-55787000D02*
X87780666Y-55691761D01*
X87780666Y-55691761D02*
X87828285Y-55596523D01*
X87828285Y-55596523D02*
X87875904Y-55406047D01*
X87875904Y-55406047D02*
X87875904Y-55263190D01*
X87875904Y-55263190D02*
X87828285Y-55072714D01*
X87828285Y-55072714D02*
X87780666Y-54977476D01*
X87780666Y-54977476D02*
X87685428Y-54882238D01*
X87685428Y-54882238D02*
X87542571Y-54834619D01*
X87542571Y-54834619D02*
X87447333Y-54834619D01*
X87447333Y-54834619D02*
X87304476Y-54882238D01*
X87304476Y-54882238D02*
X87256857Y-54929857D01*
X86875904Y-54929857D02*
X86828285Y-54882238D01*
X86828285Y-54882238D02*
X86733047Y-54834619D01*
X86733047Y-54834619D02*
X86494952Y-54834619D01*
X86494952Y-54834619D02*
X86399714Y-54882238D01*
X86399714Y-54882238D02*
X86352095Y-54929857D01*
X86352095Y-54929857D02*
X86304476Y-55025095D01*
X86304476Y-55025095D02*
X86304476Y-55120333D01*
X86304476Y-55120333D02*
X86352095Y-55263190D01*
X86352095Y-55263190D02*
X86923523Y-55834619D01*
X86923523Y-55834619D02*
X86304476Y-55834619D01*
X85923523Y-54929857D02*
X85875904Y-54882238D01*
X85875904Y-54882238D02*
X85780666Y-54834619D01*
X85780666Y-54834619D02*
X85542571Y-54834619D01*
X85542571Y-54834619D02*
X85447333Y-54882238D01*
X85447333Y-54882238D02*
X85399714Y-54929857D01*
X85399714Y-54929857D02*
X85352095Y-55025095D01*
X85352095Y-55025095D02*
X85352095Y-55120333D01*
X85352095Y-55120333D02*
X85399714Y-55263190D01*
X85399714Y-55263190D02*
X85971142Y-55834619D01*
X85971142Y-55834619D02*
X85352095Y-55834619D01*
%TO.C,C18*%
X85351857Y-79488380D02*
X85399476Y-79536000D01*
X85399476Y-79536000D02*
X85542333Y-79583619D01*
X85542333Y-79583619D02*
X85637571Y-79583619D01*
X85637571Y-79583619D02*
X85780428Y-79536000D01*
X85780428Y-79536000D02*
X85875666Y-79440761D01*
X85875666Y-79440761D02*
X85923285Y-79345523D01*
X85923285Y-79345523D02*
X85970904Y-79155047D01*
X85970904Y-79155047D02*
X85970904Y-79012190D01*
X85970904Y-79012190D02*
X85923285Y-78821714D01*
X85923285Y-78821714D02*
X85875666Y-78726476D01*
X85875666Y-78726476D02*
X85780428Y-78631238D01*
X85780428Y-78631238D02*
X85637571Y-78583619D01*
X85637571Y-78583619D02*
X85542333Y-78583619D01*
X85542333Y-78583619D02*
X85399476Y-78631238D01*
X85399476Y-78631238D02*
X85351857Y-78678857D01*
X84399476Y-79583619D02*
X84970904Y-79583619D01*
X84685190Y-79583619D02*
X84685190Y-78583619D01*
X84685190Y-78583619D02*
X84780428Y-78726476D01*
X84780428Y-78726476D02*
X84875666Y-78821714D01*
X84875666Y-78821714D02*
X84970904Y-78869333D01*
X83828047Y-79012190D02*
X83923285Y-78964571D01*
X83923285Y-78964571D02*
X83970904Y-78916952D01*
X83970904Y-78916952D02*
X84018523Y-78821714D01*
X84018523Y-78821714D02*
X84018523Y-78774095D01*
X84018523Y-78774095D02*
X83970904Y-78678857D01*
X83970904Y-78678857D02*
X83923285Y-78631238D01*
X83923285Y-78631238D02*
X83828047Y-78583619D01*
X83828047Y-78583619D02*
X83637571Y-78583619D01*
X83637571Y-78583619D02*
X83542333Y-78631238D01*
X83542333Y-78631238D02*
X83494714Y-78678857D01*
X83494714Y-78678857D02*
X83447095Y-78774095D01*
X83447095Y-78774095D02*
X83447095Y-78821714D01*
X83447095Y-78821714D02*
X83494714Y-78916952D01*
X83494714Y-78916952D02*
X83542333Y-78964571D01*
X83542333Y-78964571D02*
X83637571Y-79012190D01*
X83637571Y-79012190D02*
X83828047Y-79012190D01*
X83828047Y-79012190D02*
X83923285Y-79059809D01*
X83923285Y-79059809D02*
X83970904Y-79107428D01*
X83970904Y-79107428D02*
X84018523Y-79202666D01*
X84018523Y-79202666D02*
X84018523Y-79393142D01*
X84018523Y-79393142D02*
X83970904Y-79488380D01*
X83970904Y-79488380D02*
X83923285Y-79536000D01*
X83923285Y-79536000D02*
X83828047Y-79583619D01*
X83828047Y-79583619D02*
X83637571Y-79583619D01*
X83637571Y-79583619D02*
X83542333Y-79536000D01*
X83542333Y-79536000D02*
X83494714Y-79488380D01*
X83494714Y-79488380D02*
X83447095Y-79393142D01*
X83447095Y-79393142D02*
X83447095Y-79202666D01*
X83447095Y-79202666D02*
X83494714Y-79107428D01*
X83494714Y-79107428D02*
X83542333Y-79059809D01*
X83542333Y-79059809D02*
X83637571Y-79012190D01*
%TO.C,R12*%
X111046619Y-86352142D02*
X110570428Y-86018809D01*
X111046619Y-85780714D02*
X110046619Y-85780714D01*
X110046619Y-85780714D02*
X110046619Y-86161666D01*
X110046619Y-86161666D02*
X110094238Y-86256904D01*
X110094238Y-86256904D02*
X110141857Y-86304523D01*
X110141857Y-86304523D02*
X110237095Y-86352142D01*
X110237095Y-86352142D02*
X110379952Y-86352142D01*
X110379952Y-86352142D02*
X110475190Y-86304523D01*
X110475190Y-86304523D02*
X110522809Y-86256904D01*
X110522809Y-86256904D02*
X110570428Y-86161666D01*
X110570428Y-86161666D02*
X110570428Y-85780714D01*
X111046619Y-87304523D02*
X111046619Y-86733095D01*
X111046619Y-87018809D02*
X110046619Y-87018809D01*
X110046619Y-87018809D02*
X110189476Y-86923571D01*
X110189476Y-86923571D02*
X110284714Y-86828333D01*
X110284714Y-86828333D02*
X110332333Y-86733095D01*
X110141857Y-87685476D02*
X110094238Y-87733095D01*
X110094238Y-87733095D02*
X110046619Y-87828333D01*
X110046619Y-87828333D02*
X110046619Y-88066428D01*
X110046619Y-88066428D02*
X110094238Y-88161666D01*
X110094238Y-88161666D02*
X110141857Y-88209285D01*
X110141857Y-88209285D02*
X110237095Y-88256904D01*
X110237095Y-88256904D02*
X110332333Y-88256904D01*
X110332333Y-88256904D02*
X110475190Y-88209285D01*
X110475190Y-88209285D02*
X111046619Y-87637857D01*
X111046619Y-87637857D02*
X111046619Y-88256904D01*
%TO.C,R5*%
X90082666Y-75646619D02*
X90415999Y-75170428D01*
X90654094Y-75646619D02*
X90654094Y-74646619D01*
X90654094Y-74646619D02*
X90273142Y-74646619D01*
X90273142Y-74646619D02*
X90177904Y-74694238D01*
X90177904Y-74694238D02*
X90130285Y-74741857D01*
X90130285Y-74741857D02*
X90082666Y-74837095D01*
X90082666Y-74837095D02*
X90082666Y-74979952D01*
X90082666Y-74979952D02*
X90130285Y-75075190D01*
X90130285Y-75075190D02*
X90177904Y-75122809D01*
X90177904Y-75122809D02*
X90273142Y-75170428D01*
X90273142Y-75170428D02*
X90654094Y-75170428D01*
X89177904Y-74646619D02*
X89654094Y-74646619D01*
X89654094Y-74646619D02*
X89701713Y-75122809D01*
X89701713Y-75122809D02*
X89654094Y-75075190D01*
X89654094Y-75075190D02*
X89558856Y-75027571D01*
X89558856Y-75027571D02*
X89320761Y-75027571D01*
X89320761Y-75027571D02*
X89225523Y-75075190D01*
X89225523Y-75075190D02*
X89177904Y-75122809D01*
X89177904Y-75122809D02*
X89130285Y-75218047D01*
X89130285Y-75218047D02*
X89130285Y-75456142D01*
X89130285Y-75456142D02*
X89177904Y-75551380D01*
X89177904Y-75551380D02*
X89225523Y-75599000D01*
X89225523Y-75599000D02*
X89320761Y-75646619D01*
X89320761Y-75646619D02*
X89558856Y-75646619D01*
X89558856Y-75646619D02*
X89654094Y-75599000D01*
X89654094Y-75599000D02*
X89701713Y-75551380D01*
%TO.C,D8*%
X95607094Y-100792619D02*
X95607094Y-99792619D01*
X95607094Y-99792619D02*
X95368999Y-99792619D01*
X95368999Y-99792619D02*
X95226142Y-99840238D01*
X95226142Y-99840238D02*
X95130904Y-99935476D01*
X95130904Y-99935476D02*
X95083285Y-100030714D01*
X95083285Y-100030714D02*
X95035666Y-100221190D01*
X95035666Y-100221190D02*
X95035666Y-100364047D01*
X95035666Y-100364047D02*
X95083285Y-100554523D01*
X95083285Y-100554523D02*
X95130904Y-100649761D01*
X95130904Y-100649761D02*
X95226142Y-100745000D01*
X95226142Y-100745000D02*
X95368999Y-100792619D01*
X95368999Y-100792619D02*
X95607094Y-100792619D01*
X94464237Y-100221190D02*
X94559475Y-100173571D01*
X94559475Y-100173571D02*
X94607094Y-100125952D01*
X94607094Y-100125952D02*
X94654713Y-100030714D01*
X94654713Y-100030714D02*
X94654713Y-99983095D01*
X94654713Y-99983095D02*
X94607094Y-99887857D01*
X94607094Y-99887857D02*
X94559475Y-99840238D01*
X94559475Y-99840238D02*
X94464237Y-99792619D01*
X94464237Y-99792619D02*
X94273761Y-99792619D01*
X94273761Y-99792619D02*
X94178523Y-99840238D01*
X94178523Y-99840238D02*
X94130904Y-99887857D01*
X94130904Y-99887857D02*
X94083285Y-99983095D01*
X94083285Y-99983095D02*
X94083285Y-100030714D01*
X94083285Y-100030714D02*
X94130904Y-100125952D01*
X94130904Y-100125952D02*
X94178523Y-100173571D01*
X94178523Y-100173571D02*
X94273761Y-100221190D01*
X94273761Y-100221190D02*
X94464237Y-100221190D01*
X94464237Y-100221190D02*
X94559475Y-100268809D01*
X94559475Y-100268809D02*
X94607094Y-100316428D01*
X94607094Y-100316428D02*
X94654713Y-100411666D01*
X94654713Y-100411666D02*
X94654713Y-100602142D01*
X94654713Y-100602142D02*
X94607094Y-100697380D01*
X94607094Y-100697380D02*
X94559475Y-100745000D01*
X94559475Y-100745000D02*
X94464237Y-100792619D01*
X94464237Y-100792619D02*
X94273761Y-100792619D01*
X94273761Y-100792619D02*
X94178523Y-100745000D01*
X94178523Y-100745000D02*
X94130904Y-100697380D01*
X94130904Y-100697380D02*
X94083285Y-100602142D01*
X94083285Y-100602142D02*
X94083285Y-100411666D01*
X94083285Y-100411666D02*
X94130904Y-100316428D01*
X94130904Y-100316428D02*
X94178523Y-100268809D01*
X94178523Y-100268809D02*
X94273761Y-100221190D01*
%TO.C,C1*%
X74207666Y-76948380D02*
X74255285Y-76996000D01*
X74255285Y-76996000D02*
X74398142Y-77043619D01*
X74398142Y-77043619D02*
X74493380Y-77043619D01*
X74493380Y-77043619D02*
X74636237Y-76996000D01*
X74636237Y-76996000D02*
X74731475Y-76900761D01*
X74731475Y-76900761D02*
X74779094Y-76805523D01*
X74779094Y-76805523D02*
X74826713Y-76615047D01*
X74826713Y-76615047D02*
X74826713Y-76472190D01*
X74826713Y-76472190D02*
X74779094Y-76281714D01*
X74779094Y-76281714D02*
X74731475Y-76186476D01*
X74731475Y-76186476D02*
X74636237Y-76091238D01*
X74636237Y-76091238D02*
X74493380Y-76043619D01*
X74493380Y-76043619D02*
X74398142Y-76043619D01*
X74398142Y-76043619D02*
X74255285Y-76091238D01*
X74255285Y-76091238D02*
X74207666Y-76138857D01*
X73255285Y-77043619D02*
X73826713Y-77043619D01*
X73540999Y-77043619D02*
X73540999Y-76043619D01*
X73540999Y-76043619D02*
X73636237Y-76186476D01*
X73636237Y-76186476D02*
X73731475Y-76281714D01*
X73731475Y-76281714D02*
X73826713Y-76329333D01*
%TO.C,R37*%
X95765857Y-105999619D02*
X96099190Y-105523428D01*
X96337285Y-105999619D02*
X96337285Y-104999619D01*
X96337285Y-104999619D02*
X95956333Y-104999619D01*
X95956333Y-104999619D02*
X95861095Y-105047238D01*
X95861095Y-105047238D02*
X95813476Y-105094857D01*
X95813476Y-105094857D02*
X95765857Y-105190095D01*
X95765857Y-105190095D02*
X95765857Y-105332952D01*
X95765857Y-105332952D02*
X95813476Y-105428190D01*
X95813476Y-105428190D02*
X95861095Y-105475809D01*
X95861095Y-105475809D02*
X95956333Y-105523428D01*
X95956333Y-105523428D02*
X96337285Y-105523428D01*
X95432523Y-104999619D02*
X94813476Y-104999619D01*
X94813476Y-104999619D02*
X95146809Y-105380571D01*
X95146809Y-105380571D02*
X95003952Y-105380571D01*
X95003952Y-105380571D02*
X94908714Y-105428190D01*
X94908714Y-105428190D02*
X94861095Y-105475809D01*
X94861095Y-105475809D02*
X94813476Y-105571047D01*
X94813476Y-105571047D02*
X94813476Y-105809142D01*
X94813476Y-105809142D02*
X94861095Y-105904380D01*
X94861095Y-105904380D02*
X94908714Y-105952000D01*
X94908714Y-105952000D02*
X95003952Y-105999619D01*
X95003952Y-105999619D02*
X95289666Y-105999619D01*
X95289666Y-105999619D02*
X95384904Y-105952000D01*
X95384904Y-105952000D02*
X95432523Y-105904380D01*
X94480142Y-104999619D02*
X93813476Y-104999619D01*
X93813476Y-104999619D02*
X94242047Y-105999619D01*
%TO.C,C19*%
X93458380Y-83050142D02*
X93506000Y-83002523D01*
X93506000Y-83002523D02*
X93553619Y-82859666D01*
X93553619Y-82859666D02*
X93553619Y-82764428D01*
X93553619Y-82764428D02*
X93506000Y-82621571D01*
X93506000Y-82621571D02*
X93410761Y-82526333D01*
X93410761Y-82526333D02*
X93315523Y-82478714D01*
X93315523Y-82478714D02*
X93125047Y-82431095D01*
X93125047Y-82431095D02*
X92982190Y-82431095D01*
X92982190Y-82431095D02*
X92791714Y-82478714D01*
X92791714Y-82478714D02*
X92696476Y-82526333D01*
X92696476Y-82526333D02*
X92601238Y-82621571D01*
X92601238Y-82621571D02*
X92553619Y-82764428D01*
X92553619Y-82764428D02*
X92553619Y-82859666D01*
X92553619Y-82859666D02*
X92601238Y-83002523D01*
X92601238Y-83002523D02*
X92648857Y-83050142D01*
X93553619Y-84002523D02*
X93553619Y-83431095D01*
X93553619Y-83716809D02*
X92553619Y-83716809D01*
X92553619Y-83716809D02*
X92696476Y-83621571D01*
X92696476Y-83621571D02*
X92791714Y-83526333D01*
X92791714Y-83526333D02*
X92839333Y-83431095D01*
X93553619Y-84478714D02*
X93553619Y-84669190D01*
X93553619Y-84669190D02*
X93506000Y-84764428D01*
X93506000Y-84764428D02*
X93458380Y-84812047D01*
X93458380Y-84812047D02*
X93315523Y-84907285D01*
X93315523Y-84907285D02*
X93125047Y-84954904D01*
X93125047Y-84954904D02*
X92744095Y-84954904D01*
X92744095Y-84954904D02*
X92648857Y-84907285D01*
X92648857Y-84907285D02*
X92601238Y-84859666D01*
X92601238Y-84859666D02*
X92553619Y-84764428D01*
X92553619Y-84764428D02*
X92553619Y-84573952D01*
X92553619Y-84573952D02*
X92601238Y-84478714D01*
X92601238Y-84478714D02*
X92648857Y-84431095D01*
X92648857Y-84431095D02*
X92744095Y-84383476D01*
X92744095Y-84383476D02*
X92982190Y-84383476D01*
X92982190Y-84383476D02*
X93077428Y-84431095D01*
X93077428Y-84431095D02*
X93125047Y-84478714D01*
X93125047Y-84478714D02*
X93172666Y-84573952D01*
X93172666Y-84573952D02*
X93172666Y-84764428D01*
X93172666Y-84764428D02*
X93125047Y-84859666D01*
X93125047Y-84859666D02*
X93077428Y-84907285D01*
X93077428Y-84907285D02*
X92982190Y-84954904D01*
%TO.C,U3*%
X84835904Y-102713619D02*
X84835904Y-103523142D01*
X84835904Y-103523142D02*
X84788285Y-103618380D01*
X84788285Y-103618380D02*
X84740666Y-103666000D01*
X84740666Y-103666000D02*
X84645428Y-103713619D01*
X84645428Y-103713619D02*
X84454952Y-103713619D01*
X84454952Y-103713619D02*
X84359714Y-103666000D01*
X84359714Y-103666000D02*
X84312095Y-103618380D01*
X84312095Y-103618380D02*
X84264476Y-103523142D01*
X84264476Y-103523142D02*
X84264476Y-102713619D01*
X83883523Y-102713619D02*
X83264476Y-102713619D01*
X83264476Y-102713619D02*
X83597809Y-103094571D01*
X83597809Y-103094571D02*
X83454952Y-103094571D01*
X83454952Y-103094571D02*
X83359714Y-103142190D01*
X83359714Y-103142190D02*
X83312095Y-103189809D01*
X83312095Y-103189809D02*
X83264476Y-103285047D01*
X83264476Y-103285047D02*
X83264476Y-103523142D01*
X83264476Y-103523142D02*
X83312095Y-103618380D01*
X83312095Y-103618380D02*
X83359714Y-103666000D01*
X83359714Y-103666000D02*
X83454952Y-103713619D01*
X83454952Y-103713619D02*
X83740666Y-103713619D01*
X83740666Y-103713619D02*
X83835904Y-103666000D01*
X83835904Y-103666000D02*
X83883523Y-103618380D01*
%TO.C,D10*%
X82377619Y-107878714D02*
X81377619Y-107878714D01*
X81377619Y-107878714D02*
X81377619Y-108116809D01*
X81377619Y-108116809D02*
X81425238Y-108259666D01*
X81425238Y-108259666D02*
X81520476Y-108354904D01*
X81520476Y-108354904D02*
X81615714Y-108402523D01*
X81615714Y-108402523D02*
X81806190Y-108450142D01*
X81806190Y-108450142D02*
X81949047Y-108450142D01*
X81949047Y-108450142D02*
X82139523Y-108402523D01*
X82139523Y-108402523D02*
X82234761Y-108354904D01*
X82234761Y-108354904D02*
X82330000Y-108259666D01*
X82330000Y-108259666D02*
X82377619Y-108116809D01*
X82377619Y-108116809D02*
X82377619Y-107878714D01*
X82377619Y-109402523D02*
X82377619Y-108831095D01*
X82377619Y-109116809D02*
X81377619Y-109116809D01*
X81377619Y-109116809D02*
X81520476Y-109021571D01*
X81520476Y-109021571D02*
X81615714Y-108926333D01*
X81615714Y-108926333D02*
X81663333Y-108831095D01*
X81377619Y-110021571D02*
X81377619Y-110116809D01*
X81377619Y-110116809D02*
X81425238Y-110212047D01*
X81425238Y-110212047D02*
X81472857Y-110259666D01*
X81472857Y-110259666D02*
X81568095Y-110307285D01*
X81568095Y-110307285D02*
X81758571Y-110354904D01*
X81758571Y-110354904D02*
X81996666Y-110354904D01*
X81996666Y-110354904D02*
X82187142Y-110307285D01*
X82187142Y-110307285D02*
X82282380Y-110259666D01*
X82282380Y-110259666D02*
X82330000Y-110212047D01*
X82330000Y-110212047D02*
X82377619Y-110116809D01*
X82377619Y-110116809D02*
X82377619Y-110021571D01*
X82377619Y-110021571D02*
X82330000Y-109926333D01*
X82330000Y-109926333D02*
X82282380Y-109878714D01*
X82282380Y-109878714D02*
X82187142Y-109831095D01*
X82187142Y-109831095D02*
X81996666Y-109783476D01*
X81996666Y-109783476D02*
X81758571Y-109783476D01*
X81758571Y-109783476D02*
X81568095Y-109831095D01*
X81568095Y-109831095D02*
X81472857Y-109878714D01*
X81472857Y-109878714D02*
X81425238Y-109926333D01*
X81425238Y-109926333D02*
X81377619Y-110021571D01*
%TO.C,R42*%
X95765857Y-97363619D02*
X96099190Y-96887428D01*
X96337285Y-97363619D02*
X96337285Y-96363619D01*
X96337285Y-96363619D02*
X95956333Y-96363619D01*
X95956333Y-96363619D02*
X95861095Y-96411238D01*
X95861095Y-96411238D02*
X95813476Y-96458857D01*
X95813476Y-96458857D02*
X95765857Y-96554095D01*
X95765857Y-96554095D02*
X95765857Y-96696952D01*
X95765857Y-96696952D02*
X95813476Y-96792190D01*
X95813476Y-96792190D02*
X95861095Y-96839809D01*
X95861095Y-96839809D02*
X95956333Y-96887428D01*
X95956333Y-96887428D02*
X96337285Y-96887428D01*
X94908714Y-96696952D02*
X94908714Y-97363619D01*
X95146809Y-96316000D02*
X95384904Y-97030285D01*
X95384904Y-97030285D02*
X94765857Y-97030285D01*
X94432523Y-96458857D02*
X94384904Y-96411238D01*
X94384904Y-96411238D02*
X94289666Y-96363619D01*
X94289666Y-96363619D02*
X94051571Y-96363619D01*
X94051571Y-96363619D02*
X93956333Y-96411238D01*
X93956333Y-96411238D02*
X93908714Y-96458857D01*
X93908714Y-96458857D02*
X93861095Y-96554095D01*
X93861095Y-96554095D02*
X93861095Y-96649333D01*
X93861095Y-96649333D02*
X93908714Y-96792190D01*
X93908714Y-96792190D02*
X94480142Y-97363619D01*
X94480142Y-97363619D02*
X93861095Y-97363619D01*
%TO.C,C12*%
X86621857Y-149084380D02*
X86669476Y-149132000D01*
X86669476Y-149132000D02*
X86812333Y-149179619D01*
X86812333Y-149179619D02*
X86907571Y-149179619D01*
X86907571Y-149179619D02*
X87050428Y-149132000D01*
X87050428Y-149132000D02*
X87145666Y-149036761D01*
X87145666Y-149036761D02*
X87193285Y-148941523D01*
X87193285Y-148941523D02*
X87240904Y-148751047D01*
X87240904Y-148751047D02*
X87240904Y-148608190D01*
X87240904Y-148608190D02*
X87193285Y-148417714D01*
X87193285Y-148417714D02*
X87145666Y-148322476D01*
X87145666Y-148322476D02*
X87050428Y-148227238D01*
X87050428Y-148227238D02*
X86907571Y-148179619D01*
X86907571Y-148179619D02*
X86812333Y-148179619D01*
X86812333Y-148179619D02*
X86669476Y-148227238D01*
X86669476Y-148227238D02*
X86621857Y-148274857D01*
X85669476Y-149179619D02*
X86240904Y-149179619D01*
X85955190Y-149179619D02*
X85955190Y-148179619D01*
X85955190Y-148179619D02*
X86050428Y-148322476D01*
X86050428Y-148322476D02*
X86145666Y-148417714D01*
X86145666Y-148417714D02*
X86240904Y-148465333D01*
X85288523Y-148274857D02*
X85240904Y-148227238D01*
X85240904Y-148227238D02*
X85145666Y-148179619D01*
X85145666Y-148179619D02*
X84907571Y-148179619D01*
X84907571Y-148179619D02*
X84812333Y-148227238D01*
X84812333Y-148227238D02*
X84764714Y-148274857D01*
X84764714Y-148274857D02*
X84717095Y-148370095D01*
X84717095Y-148370095D02*
X84717095Y-148465333D01*
X84717095Y-148465333D02*
X84764714Y-148608190D01*
X84764714Y-148608190D02*
X85336142Y-149179619D01*
X85336142Y-149179619D02*
X84717095Y-149179619D01*
%TO.C,C4*%
X83351666Y-149846380D02*
X83399285Y-149894000D01*
X83399285Y-149894000D02*
X83542142Y-149941619D01*
X83542142Y-149941619D02*
X83637380Y-149941619D01*
X83637380Y-149941619D02*
X83780237Y-149894000D01*
X83780237Y-149894000D02*
X83875475Y-149798761D01*
X83875475Y-149798761D02*
X83923094Y-149703523D01*
X83923094Y-149703523D02*
X83970713Y-149513047D01*
X83970713Y-149513047D02*
X83970713Y-149370190D01*
X83970713Y-149370190D02*
X83923094Y-149179714D01*
X83923094Y-149179714D02*
X83875475Y-149084476D01*
X83875475Y-149084476D02*
X83780237Y-148989238D01*
X83780237Y-148989238D02*
X83637380Y-148941619D01*
X83637380Y-148941619D02*
X83542142Y-148941619D01*
X83542142Y-148941619D02*
X83399285Y-148989238D01*
X83399285Y-148989238D02*
X83351666Y-149036857D01*
X82494523Y-149274952D02*
X82494523Y-149941619D01*
X82732618Y-148894000D02*
X82970713Y-149608285D01*
X82970713Y-149608285D02*
X82351666Y-149608285D01*
%TO.C,R3*%
X74207666Y-71709619D02*
X74540999Y-71233428D01*
X74779094Y-71709619D02*
X74779094Y-70709619D01*
X74779094Y-70709619D02*
X74398142Y-70709619D01*
X74398142Y-70709619D02*
X74302904Y-70757238D01*
X74302904Y-70757238D02*
X74255285Y-70804857D01*
X74255285Y-70804857D02*
X74207666Y-70900095D01*
X74207666Y-70900095D02*
X74207666Y-71042952D01*
X74207666Y-71042952D02*
X74255285Y-71138190D01*
X74255285Y-71138190D02*
X74302904Y-71185809D01*
X74302904Y-71185809D02*
X74398142Y-71233428D01*
X74398142Y-71233428D02*
X74779094Y-71233428D01*
X73874332Y-70709619D02*
X73255285Y-70709619D01*
X73255285Y-70709619D02*
X73588618Y-71090571D01*
X73588618Y-71090571D02*
X73445761Y-71090571D01*
X73445761Y-71090571D02*
X73350523Y-71138190D01*
X73350523Y-71138190D02*
X73302904Y-71185809D01*
X73302904Y-71185809D02*
X73255285Y-71281047D01*
X73255285Y-71281047D02*
X73255285Y-71519142D01*
X73255285Y-71519142D02*
X73302904Y-71614380D01*
X73302904Y-71614380D02*
X73350523Y-71662000D01*
X73350523Y-71662000D02*
X73445761Y-71709619D01*
X73445761Y-71709619D02*
X73731475Y-71709619D01*
X73731475Y-71709619D02*
X73826713Y-71662000D01*
X73826713Y-71662000D02*
X73874332Y-71614380D01*
%TO.C,C27*%
X74937857Y-99173380D02*
X74985476Y-99221000D01*
X74985476Y-99221000D02*
X75128333Y-99268619D01*
X75128333Y-99268619D02*
X75223571Y-99268619D01*
X75223571Y-99268619D02*
X75366428Y-99221000D01*
X75366428Y-99221000D02*
X75461666Y-99125761D01*
X75461666Y-99125761D02*
X75509285Y-99030523D01*
X75509285Y-99030523D02*
X75556904Y-98840047D01*
X75556904Y-98840047D02*
X75556904Y-98697190D01*
X75556904Y-98697190D02*
X75509285Y-98506714D01*
X75509285Y-98506714D02*
X75461666Y-98411476D01*
X75461666Y-98411476D02*
X75366428Y-98316238D01*
X75366428Y-98316238D02*
X75223571Y-98268619D01*
X75223571Y-98268619D02*
X75128333Y-98268619D01*
X75128333Y-98268619D02*
X74985476Y-98316238D01*
X74985476Y-98316238D02*
X74937857Y-98363857D01*
X74556904Y-98363857D02*
X74509285Y-98316238D01*
X74509285Y-98316238D02*
X74414047Y-98268619D01*
X74414047Y-98268619D02*
X74175952Y-98268619D01*
X74175952Y-98268619D02*
X74080714Y-98316238D01*
X74080714Y-98316238D02*
X74033095Y-98363857D01*
X74033095Y-98363857D02*
X73985476Y-98459095D01*
X73985476Y-98459095D02*
X73985476Y-98554333D01*
X73985476Y-98554333D02*
X74033095Y-98697190D01*
X74033095Y-98697190D02*
X74604523Y-99268619D01*
X74604523Y-99268619D02*
X73985476Y-99268619D01*
X73652142Y-98268619D02*
X72985476Y-98268619D01*
X72985476Y-98268619D02*
X73414047Y-99268619D01*
%TO.C,D1*%
X99417094Y-100792619D02*
X99417094Y-99792619D01*
X99417094Y-99792619D02*
X99178999Y-99792619D01*
X99178999Y-99792619D02*
X99036142Y-99840238D01*
X99036142Y-99840238D02*
X98940904Y-99935476D01*
X98940904Y-99935476D02*
X98893285Y-100030714D01*
X98893285Y-100030714D02*
X98845666Y-100221190D01*
X98845666Y-100221190D02*
X98845666Y-100364047D01*
X98845666Y-100364047D02*
X98893285Y-100554523D01*
X98893285Y-100554523D02*
X98940904Y-100649761D01*
X98940904Y-100649761D02*
X99036142Y-100745000D01*
X99036142Y-100745000D02*
X99178999Y-100792619D01*
X99178999Y-100792619D02*
X99417094Y-100792619D01*
X97893285Y-100792619D02*
X98464713Y-100792619D01*
X98178999Y-100792619D02*
X98178999Y-99792619D01*
X98178999Y-99792619D02*
X98274237Y-99935476D01*
X98274237Y-99935476D02*
X98369475Y-100030714D01*
X98369475Y-100030714D02*
X98464713Y-100078333D01*
%TO.C,C20*%
X100664380Y-82796142D02*
X100712000Y-82748523D01*
X100712000Y-82748523D02*
X100759619Y-82605666D01*
X100759619Y-82605666D02*
X100759619Y-82510428D01*
X100759619Y-82510428D02*
X100712000Y-82367571D01*
X100712000Y-82367571D02*
X100616761Y-82272333D01*
X100616761Y-82272333D02*
X100521523Y-82224714D01*
X100521523Y-82224714D02*
X100331047Y-82177095D01*
X100331047Y-82177095D02*
X100188190Y-82177095D01*
X100188190Y-82177095D02*
X99997714Y-82224714D01*
X99997714Y-82224714D02*
X99902476Y-82272333D01*
X99902476Y-82272333D02*
X99807238Y-82367571D01*
X99807238Y-82367571D02*
X99759619Y-82510428D01*
X99759619Y-82510428D02*
X99759619Y-82605666D01*
X99759619Y-82605666D02*
X99807238Y-82748523D01*
X99807238Y-82748523D02*
X99854857Y-82796142D01*
X99854857Y-83177095D02*
X99807238Y-83224714D01*
X99807238Y-83224714D02*
X99759619Y-83319952D01*
X99759619Y-83319952D02*
X99759619Y-83558047D01*
X99759619Y-83558047D02*
X99807238Y-83653285D01*
X99807238Y-83653285D02*
X99854857Y-83700904D01*
X99854857Y-83700904D02*
X99950095Y-83748523D01*
X99950095Y-83748523D02*
X100045333Y-83748523D01*
X100045333Y-83748523D02*
X100188190Y-83700904D01*
X100188190Y-83700904D02*
X100759619Y-83129476D01*
X100759619Y-83129476D02*
X100759619Y-83748523D01*
X99759619Y-84367571D02*
X99759619Y-84462809D01*
X99759619Y-84462809D02*
X99807238Y-84558047D01*
X99807238Y-84558047D02*
X99854857Y-84605666D01*
X99854857Y-84605666D02*
X99950095Y-84653285D01*
X99950095Y-84653285D02*
X100140571Y-84700904D01*
X100140571Y-84700904D02*
X100378666Y-84700904D01*
X100378666Y-84700904D02*
X100569142Y-84653285D01*
X100569142Y-84653285D02*
X100664380Y-84605666D01*
X100664380Y-84605666D02*
X100712000Y-84558047D01*
X100712000Y-84558047D02*
X100759619Y-84462809D01*
X100759619Y-84462809D02*
X100759619Y-84367571D01*
X100759619Y-84367571D02*
X100712000Y-84272333D01*
X100712000Y-84272333D02*
X100664380Y-84224714D01*
X100664380Y-84224714D02*
X100569142Y-84177095D01*
X100569142Y-84177095D02*
X100378666Y-84129476D01*
X100378666Y-84129476D02*
X100140571Y-84129476D01*
X100140571Y-84129476D02*
X99950095Y-84177095D01*
X99950095Y-84177095D02*
X99854857Y-84224714D01*
X99854857Y-84224714D02*
X99807238Y-84272333D01*
X99807238Y-84272333D02*
X99759619Y-84367571D01*
%TO.C,C17*%
X81414857Y-79488380D02*
X81462476Y-79536000D01*
X81462476Y-79536000D02*
X81605333Y-79583619D01*
X81605333Y-79583619D02*
X81700571Y-79583619D01*
X81700571Y-79583619D02*
X81843428Y-79536000D01*
X81843428Y-79536000D02*
X81938666Y-79440761D01*
X81938666Y-79440761D02*
X81986285Y-79345523D01*
X81986285Y-79345523D02*
X82033904Y-79155047D01*
X82033904Y-79155047D02*
X82033904Y-79012190D01*
X82033904Y-79012190D02*
X81986285Y-78821714D01*
X81986285Y-78821714D02*
X81938666Y-78726476D01*
X81938666Y-78726476D02*
X81843428Y-78631238D01*
X81843428Y-78631238D02*
X81700571Y-78583619D01*
X81700571Y-78583619D02*
X81605333Y-78583619D01*
X81605333Y-78583619D02*
X81462476Y-78631238D01*
X81462476Y-78631238D02*
X81414857Y-78678857D01*
X80462476Y-79583619D02*
X81033904Y-79583619D01*
X80748190Y-79583619D02*
X80748190Y-78583619D01*
X80748190Y-78583619D02*
X80843428Y-78726476D01*
X80843428Y-78726476D02*
X80938666Y-78821714D01*
X80938666Y-78821714D02*
X81033904Y-78869333D01*
X80129142Y-78583619D02*
X79462476Y-78583619D01*
X79462476Y-78583619D02*
X79891047Y-79583619D01*
%TO.C,C8*%
X88345380Y-145502333D02*
X88393000Y-145454714D01*
X88393000Y-145454714D02*
X88440619Y-145311857D01*
X88440619Y-145311857D02*
X88440619Y-145216619D01*
X88440619Y-145216619D02*
X88393000Y-145073762D01*
X88393000Y-145073762D02*
X88297761Y-144978524D01*
X88297761Y-144978524D02*
X88202523Y-144930905D01*
X88202523Y-144930905D02*
X88012047Y-144883286D01*
X88012047Y-144883286D02*
X87869190Y-144883286D01*
X87869190Y-144883286D02*
X87678714Y-144930905D01*
X87678714Y-144930905D02*
X87583476Y-144978524D01*
X87583476Y-144978524D02*
X87488238Y-145073762D01*
X87488238Y-145073762D02*
X87440619Y-145216619D01*
X87440619Y-145216619D02*
X87440619Y-145311857D01*
X87440619Y-145311857D02*
X87488238Y-145454714D01*
X87488238Y-145454714D02*
X87535857Y-145502333D01*
X87869190Y-146073762D02*
X87821571Y-145978524D01*
X87821571Y-145978524D02*
X87773952Y-145930905D01*
X87773952Y-145930905D02*
X87678714Y-145883286D01*
X87678714Y-145883286D02*
X87631095Y-145883286D01*
X87631095Y-145883286D02*
X87535857Y-145930905D01*
X87535857Y-145930905D02*
X87488238Y-145978524D01*
X87488238Y-145978524D02*
X87440619Y-146073762D01*
X87440619Y-146073762D02*
X87440619Y-146264238D01*
X87440619Y-146264238D02*
X87488238Y-146359476D01*
X87488238Y-146359476D02*
X87535857Y-146407095D01*
X87535857Y-146407095D02*
X87631095Y-146454714D01*
X87631095Y-146454714D02*
X87678714Y-146454714D01*
X87678714Y-146454714D02*
X87773952Y-146407095D01*
X87773952Y-146407095D02*
X87821571Y-146359476D01*
X87821571Y-146359476D02*
X87869190Y-146264238D01*
X87869190Y-146264238D02*
X87869190Y-146073762D01*
X87869190Y-146073762D02*
X87916809Y-145978524D01*
X87916809Y-145978524D02*
X87964428Y-145930905D01*
X87964428Y-145930905D02*
X88059666Y-145883286D01*
X88059666Y-145883286D02*
X88250142Y-145883286D01*
X88250142Y-145883286D02*
X88345380Y-145930905D01*
X88345380Y-145930905D02*
X88393000Y-145978524D01*
X88393000Y-145978524D02*
X88440619Y-146073762D01*
X88440619Y-146073762D02*
X88440619Y-146264238D01*
X88440619Y-146264238D02*
X88393000Y-146359476D01*
X88393000Y-146359476D02*
X88345380Y-146407095D01*
X88345380Y-146407095D02*
X88250142Y-146454714D01*
X88250142Y-146454714D02*
X88059666Y-146454714D01*
X88059666Y-146454714D02*
X87964428Y-146407095D01*
X87964428Y-146407095D02*
X87916809Y-146359476D01*
X87916809Y-146359476D02*
X87869190Y-146264238D01*
%TO.C,R45*%
X75646619Y-118610142D02*
X75170428Y-118276809D01*
X75646619Y-118038714D02*
X74646619Y-118038714D01*
X74646619Y-118038714D02*
X74646619Y-118419666D01*
X74646619Y-118419666D02*
X74694238Y-118514904D01*
X74694238Y-118514904D02*
X74741857Y-118562523D01*
X74741857Y-118562523D02*
X74837095Y-118610142D01*
X74837095Y-118610142D02*
X74979952Y-118610142D01*
X74979952Y-118610142D02*
X75075190Y-118562523D01*
X75075190Y-118562523D02*
X75122809Y-118514904D01*
X75122809Y-118514904D02*
X75170428Y-118419666D01*
X75170428Y-118419666D02*
X75170428Y-118038714D01*
X74979952Y-119467285D02*
X75646619Y-119467285D01*
X74599000Y-119229190D02*
X75313285Y-118991095D01*
X75313285Y-118991095D02*
X75313285Y-119610142D01*
X74646619Y-120467285D02*
X74646619Y-119991095D01*
X74646619Y-119991095D02*
X75122809Y-119943476D01*
X75122809Y-119943476D02*
X75075190Y-119991095D01*
X75075190Y-119991095D02*
X75027571Y-120086333D01*
X75027571Y-120086333D02*
X75027571Y-120324428D01*
X75027571Y-120324428D02*
X75075190Y-120419666D01*
X75075190Y-120419666D02*
X75122809Y-120467285D01*
X75122809Y-120467285D02*
X75218047Y-120514904D01*
X75218047Y-120514904D02*
X75456142Y-120514904D01*
X75456142Y-120514904D02*
X75551380Y-120467285D01*
X75551380Y-120467285D02*
X75599000Y-120419666D01*
X75599000Y-120419666D02*
X75646619Y-120324428D01*
X75646619Y-120324428D02*
X75646619Y-120086333D01*
X75646619Y-120086333D02*
X75599000Y-119991095D01*
X75599000Y-119991095D02*
X75551380Y-119943476D01*
%TO.C,C16*%
X95765857Y-102602380D02*
X95813476Y-102650000D01*
X95813476Y-102650000D02*
X95956333Y-102697619D01*
X95956333Y-102697619D02*
X96051571Y-102697619D01*
X96051571Y-102697619D02*
X96194428Y-102650000D01*
X96194428Y-102650000D02*
X96289666Y-102554761D01*
X96289666Y-102554761D02*
X96337285Y-102459523D01*
X96337285Y-102459523D02*
X96384904Y-102269047D01*
X96384904Y-102269047D02*
X96384904Y-102126190D01*
X96384904Y-102126190D02*
X96337285Y-101935714D01*
X96337285Y-101935714D02*
X96289666Y-101840476D01*
X96289666Y-101840476D02*
X96194428Y-101745238D01*
X96194428Y-101745238D02*
X96051571Y-101697619D01*
X96051571Y-101697619D02*
X95956333Y-101697619D01*
X95956333Y-101697619D02*
X95813476Y-101745238D01*
X95813476Y-101745238D02*
X95765857Y-101792857D01*
X94813476Y-102697619D02*
X95384904Y-102697619D01*
X95099190Y-102697619D02*
X95099190Y-101697619D01*
X95099190Y-101697619D02*
X95194428Y-101840476D01*
X95194428Y-101840476D02*
X95289666Y-101935714D01*
X95289666Y-101935714D02*
X95384904Y-101983333D01*
X93956333Y-101697619D02*
X94146809Y-101697619D01*
X94146809Y-101697619D02*
X94242047Y-101745238D01*
X94242047Y-101745238D02*
X94289666Y-101792857D01*
X94289666Y-101792857D02*
X94384904Y-101935714D01*
X94384904Y-101935714D02*
X94432523Y-102126190D01*
X94432523Y-102126190D02*
X94432523Y-102507142D01*
X94432523Y-102507142D02*
X94384904Y-102602380D01*
X94384904Y-102602380D02*
X94337285Y-102650000D01*
X94337285Y-102650000D02*
X94242047Y-102697619D01*
X94242047Y-102697619D02*
X94051571Y-102697619D01*
X94051571Y-102697619D02*
X93956333Y-102650000D01*
X93956333Y-102650000D02*
X93908714Y-102602380D01*
X93908714Y-102602380D02*
X93861095Y-102507142D01*
X93861095Y-102507142D02*
X93861095Y-102269047D01*
X93861095Y-102269047D02*
X93908714Y-102173809D01*
X93908714Y-102173809D02*
X93956333Y-102126190D01*
X93956333Y-102126190D02*
X94051571Y-102078571D01*
X94051571Y-102078571D02*
X94242047Y-102078571D01*
X94242047Y-102078571D02*
X94337285Y-102126190D01*
X94337285Y-102126190D02*
X94384904Y-102173809D01*
X94384904Y-102173809D02*
X94432523Y-102269047D01*
%TO.C,R9*%
X103290666Y-64089619D02*
X103623999Y-63613428D01*
X103862094Y-64089619D02*
X103862094Y-63089619D01*
X103862094Y-63089619D02*
X103481142Y-63089619D01*
X103481142Y-63089619D02*
X103385904Y-63137238D01*
X103385904Y-63137238D02*
X103338285Y-63184857D01*
X103338285Y-63184857D02*
X103290666Y-63280095D01*
X103290666Y-63280095D02*
X103290666Y-63422952D01*
X103290666Y-63422952D02*
X103338285Y-63518190D01*
X103338285Y-63518190D02*
X103385904Y-63565809D01*
X103385904Y-63565809D02*
X103481142Y-63613428D01*
X103481142Y-63613428D02*
X103862094Y-63613428D01*
X102814475Y-64089619D02*
X102623999Y-64089619D01*
X102623999Y-64089619D02*
X102528761Y-64042000D01*
X102528761Y-64042000D02*
X102481142Y-63994380D01*
X102481142Y-63994380D02*
X102385904Y-63851523D01*
X102385904Y-63851523D02*
X102338285Y-63661047D01*
X102338285Y-63661047D02*
X102338285Y-63280095D01*
X102338285Y-63280095D02*
X102385904Y-63184857D01*
X102385904Y-63184857D02*
X102433523Y-63137238D01*
X102433523Y-63137238D02*
X102528761Y-63089619D01*
X102528761Y-63089619D02*
X102719237Y-63089619D01*
X102719237Y-63089619D02*
X102814475Y-63137238D01*
X102814475Y-63137238D02*
X102862094Y-63184857D01*
X102862094Y-63184857D02*
X102909713Y-63280095D01*
X102909713Y-63280095D02*
X102909713Y-63518190D01*
X102909713Y-63518190D02*
X102862094Y-63613428D01*
X102862094Y-63613428D02*
X102814475Y-63661047D01*
X102814475Y-63661047D02*
X102719237Y-63708666D01*
X102719237Y-63708666D02*
X102528761Y-63708666D01*
X102528761Y-63708666D02*
X102433523Y-63661047D01*
X102433523Y-63661047D02*
X102385904Y-63613428D01*
X102385904Y-63613428D02*
X102338285Y-63518190D01*
%TO.C,R6*%
X74207666Y-69931619D02*
X74540999Y-69455428D01*
X74779094Y-69931619D02*
X74779094Y-68931619D01*
X74779094Y-68931619D02*
X74398142Y-68931619D01*
X74398142Y-68931619D02*
X74302904Y-68979238D01*
X74302904Y-68979238D02*
X74255285Y-69026857D01*
X74255285Y-69026857D02*
X74207666Y-69122095D01*
X74207666Y-69122095D02*
X74207666Y-69264952D01*
X74207666Y-69264952D02*
X74255285Y-69360190D01*
X74255285Y-69360190D02*
X74302904Y-69407809D01*
X74302904Y-69407809D02*
X74398142Y-69455428D01*
X74398142Y-69455428D02*
X74779094Y-69455428D01*
X73350523Y-68931619D02*
X73540999Y-68931619D01*
X73540999Y-68931619D02*
X73636237Y-68979238D01*
X73636237Y-68979238D02*
X73683856Y-69026857D01*
X73683856Y-69026857D02*
X73779094Y-69169714D01*
X73779094Y-69169714D02*
X73826713Y-69360190D01*
X73826713Y-69360190D02*
X73826713Y-69741142D01*
X73826713Y-69741142D02*
X73779094Y-69836380D01*
X73779094Y-69836380D02*
X73731475Y-69884000D01*
X73731475Y-69884000D02*
X73636237Y-69931619D01*
X73636237Y-69931619D02*
X73445761Y-69931619D01*
X73445761Y-69931619D02*
X73350523Y-69884000D01*
X73350523Y-69884000D02*
X73302904Y-69836380D01*
X73302904Y-69836380D02*
X73255285Y-69741142D01*
X73255285Y-69741142D02*
X73255285Y-69503047D01*
X73255285Y-69503047D02*
X73302904Y-69407809D01*
X73302904Y-69407809D02*
X73350523Y-69360190D01*
X73350523Y-69360190D02*
X73445761Y-69312571D01*
X73445761Y-69312571D02*
X73636237Y-69312571D01*
X73636237Y-69312571D02*
X73731475Y-69360190D01*
X73731475Y-69360190D02*
X73779094Y-69407809D01*
X73779094Y-69407809D02*
X73826713Y-69503047D01*
%TO.C,R24*%
X120086857Y-96220619D02*
X120420190Y-95744428D01*
X120658285Y-96220619D02*
X120658285Y-95220619D01*
X120658285Y-95220619D02*
X120277333Y-95220619D01*
X120277333Y-95220619D02*
X120182095Y-95268238D01*
X120182095Y-95268238D02*
X120134476Y-95315857D01*
X120134476Y-95315857D02*
X120086857Y-95411095D01*
X120086857Y-95411095D02*
X120086857Y-95553952D01*
X120086857Y-95553952D02*
X120134476Y-95649190D01*
X120134476Y-95649190D02*
X120182095Y-95696809D01*
X120182095Y-95696809D02*
X120277333Y-95744428D01*
X120277333Y-95744428D02*
X120658285Y-95744428D01*
X119705904Y-95315857D02*
X119658285Y-95268238D01*
X119658285Y-95268238D02*
X119563047Y-95220619D01*
X119563047Y-95220619D02*
X119324952Y-95220619D01*
X119324952Y-95220619D02*
X119229714Y-95268238D01*
X119229714Y-95268238D02*
X119182095Y-95315857D01*
X119182095Y-95315857D02*
X119134476Y-95411095D01*
X119134476Y-95411095D02*
X119134476Y-95506333D01*
X119134476Y-95506333D02*
X119182095Y-95649190D01*
X119182095Y-95649190D02*
X119753523Y-96220619D01*
X119753523Y-96220619D02*
X119134476Y-96220619D01*
X118277333Y-95553952D02*
X118277333Y-96220619D01*
X118515428Y-95173000D02*
X118753523Y-95887285D01*
X118753523Y-95887285D02*
X118134476Y-95887285D01*
%TO.C,R34*%
X98940857Y-104348619D02*
X99274190Y-103872428D01*
X99512285Y-104348619D02*
X99512285Y-103348619D01*
X99512285Y-103348619D02*
X99131333Y-103348619D01*
X99131333Y-103348619D02*
X99036095Y-103396238D01*
X99036095Y-103396238D02*
X98988476Y-103443857D01*
X98988476Y-103443857D02*
X98940857Y-103539095D01*
X98940857Y-103539095D02*
X98940857Y-103681952D01*
X98940857Y-103681952D02*
X98988476Y-103777190D01*
X98988476Y-103777190D02*
X99036095Y-103824809D01*
X99036095Y-103824809D02*
X99131333Y-103872428D01*
X99131333Y-103872428D02*
X99512285Y-103872428D01*
X98607523Y-103348619D02*
X97988476Y-103348619D01*
X97988476Y-103348619D02*
X98321809Y-103729571D01*
X98321809Y-103729571D02*
X98178952Y-103729571D01*
X98178952Y-103729571D02*
X98083714Y-103777190D01*
X98083714Y-103777190D02*
X98036095Y-103824809D01*
X98036095Y-103824809D02*
X97988476Y-103920047D01*
X97988476Y-103920047D02*
X97988476Y-104158142D01*
X97988476Y-104158142D02*
X98036095Y-104253380D01*
X98036095Y-104253380D02*
X98083714Y-104301000D01*
X98083714Y-104301000D02*
X98178952Y-104348619D01*
X98178952Y-104348619D02*
X98464666Y-104348619D01*
X98464666Y-104348619D02*
X98559904Y-104301000D01*
X98559904Y-104301000D02*
X98607523Y-104253380D01*
X97131333Y-103681952D02*
X97131333Y-104348619D01*
X97369428Y-103301000D02*
X97607523Y-104015285D01*
X97607523Y-104015285D02*
X96988476Y-104015285D01*
%TO.C,R1*%
X74207666Y-73487619D02*
X74540999Y-73011428D01*
X74779094Y-73487619D02*
X74779094Y-72487619D01*
X74779094Y-72487619D02*
X74398142Y-72487619D01*
X74398142Y-72487619D02*
X74302904Y-72535238D01*
X74302904Y-72535238D02*
X74255285Y-72582857D01*
X74255285Y-72582857D02*
X74207666Y-72678095D01*
X74207666Y-72678095D02*
X74207666Y-72820952D01*
X74207666Y-72820952D02*
X74255285Y-72916190D01*
X74255285Y-72916190D02*
X74302904Y-72963809D01*
X74302904Y-72963809D02*
X74398142Y-73011428D01*
X74398142Y-73011428D02*
X74779094Y-73011428D01*
X73255285Y-73487619D02*
X73826713Y-73487619D01*
X73540999Y-73487619D02*
X73540999Y-72487619D01*
X73540999Y-72487619D02*
X73636237Y-72630476D01*
X73636237Y-72630476D02*
X73731475Y-72725714D01*
X73731475Y-72725714D02*
X73826713Y-72773333D01*
%TO.C,R4*%
X74207666Y-75265619D02*
X74540999Y-74789428D01*
X74779094Y-75265619D02*
X74779094Y-74265619D01*
X74779094Y-74265619D02*
X74398142Y-74265619D01*
X74398142Y-74265619D02*
X74302904Y-74313238D01*
X74302904Y-74313238D02*
X74255285Y-74360857D01*
X74255285Y-74360857D02*
X74207666Y-74456095D01*
X74207666Y-74456095D02*
X74207666Y-74598952D01*
X74207666Y-74598952D02*
X74255285Y-74694190D01*
X74255285Y-74694190D02*
X74302904Y-74741809D01*
X74302904Y-74741809D02*
X74398142Y-74789428D01*
X74398142Y-74789428D02*
X74779094Y-74789428D01*
X73350523Y-74598952D02*
X73350523Y-75265619D01*
X73588618Y-74218000D02*
X73826713Y-74932285D01*
X73826713Y-74932285D02*
X73207666Y-74932285D01*
%TO.C,C15*%
X98940857Y-102602380D02*
X98988476Y-102650000D01*
X98988476Y-102650000D02*
X99131333Y-102697619D01*
X99131333Y-102697619D02*
X99226571Y-102697619D01*
X99226571Y-102697619D02*
X99369428Y-102650000D01*
X99369428Y-102650000D02*
X99464666Y-102554761D01*
X99464666Y-102554761D02*
X99512285Y-102459523D01*
X99512285Y-102459523D02*
X99559904Y-102269047D01*
X99559904Y-102269047D02*
X99559904Y-102126190D01*
X99559904Y-102126190D02*
X99512285Y-101935714D01*
X99512285Y-101935714D02*
X99464666Y-101840476D01*
X99464666Y-101840476D02*
X99369428Y-101745238D01*
X99369428Y-101745238D02*
X99226571Y-101697619D01*
X99226571Y-101697619D02*
X99131333Y-101697619D01*
X99131333Y-101697619D02*
X98988476Y-101745238D01*
X98988476Y-101745238D02*
X98940857Y-101792857D01*
X97988476Y-102697619D02*
X98559904Y-102697619D01*
X98274190Y-102697619D02*
X98274190Y-101697619D01*
X98274190Y-101697619D02*
X98369428Y-101840476D01*
X98369428Y-101840476D02*
X98464666Y-101935714D01*
X98464666Y-101935714D02*
X98559904Y-101983333D01*
X97083714Y-101697619D02*
X97559904Y-101697619D01*
X97559904Y-101697619D02*
X97607523Y-102173809D01*
X97607523Y-102173809D02*
X97559904Y-102126190D01*
X97559904Y-102126190D02*
X97464666Y-102078571D01*
X97464666Y-102078571D02*
X97226571Y-102078571D01*
X97226571Y-102078571D02*
X97131333Y-102126190D01*
X97131333Y-102126190D02*
X97083714Y-102173809D01*
X97083714Y-102173809D02*
X97036095Y-102269047D01*
X97036095Y-102269047D02*
X97036095Y-102507142D01*
X97036095Y-102507142D02*
X97083714Y-102602380D01*
X97083714Y-102602380D02*
X97131333Y-102650000D01*
X97131333Y-102650000D02*
X97226571Y-102697619D01*
X97226571Y-102697619D02*
X97464666Y-102697619D01*
X97464666Y-102697619D02*
X97559904Y-102650000D01*
X97559904Y-102650000D02*
X97607523Y-102602380D01*
%TO.C,R32*%
X107015619Y-118610142D02*
X106539428Y-118276809D01*
X107015619Y-118038714D02*
X106015619Y-118038714D01*
X106015619Y-118038714D02*
X106015619Y-118419666D01*
X106015619Y-118419666D02*
X106063238Y-118514904D01*
X106063238Y-118514904D02*
X106110857Y-118562523D01*
X106110857Y-118562523D02*
X106206095Y-118610142D01*
X106206095Y-118610142D02*
X106348952Y-118610142D01*
X106348952Y-118610142D02*
X106444190Y-118562523D01*
X106444190Y-118562523D02*
X106491809Y-118514904D01*
X106491809Y-118514904D02*
X106539428Y-118419666D01*
X106539428Y-118419666D02*
X106539428Y-118038714D01*
X106015619Y-118943476D02*
X106015619Y-119562523D01*
X106015619Y-119562523D02*
X106396571Y-119229190D01*
X106396571Y-119229190D02*
X106396571Y-119372047D01*
X106396571Y-119372047D02*
X106444190Y-119467285D01*
X106444190Y-119467285D02*
X106491809Y-119514904D01*
X106491809Y-119514904D02*
X106587047Y-119562523D01*
X106587047Y-119562523D02*
X106825142Y-119562523D01*
X106825142Y-119562523D02*
X106920380Y-119514904D01*
X106920380Y-119514904D02*
X106968000Y-119467285D01*
X106968000Y-119467285D02*
X107015619Y-119372047D01*
X107015619Y-119372047D02*
X107015619Y-119086333D01*
X107015619Y-119086333D02*
X106968000Y-118991095D01*
X106968000Y-118991095D02*
X106920380Y-118943476D01*
X106110857Y-119943476D02*
X106063238Y-119991095D01*
X106063238Y-119991095D02*
X106015619Y-120086333D01*
X106015619Y-120086333D02*
X106015619Y-120324428D01*
X106015619Y-120324428D02*
X106063238Y-120419666D01*
X106063238Y-120419666D02*
X106110857Y-120467285D01*
X106110857Y-120467285D02*
X106206095Y-120514904D01*
X106206095Y-120514904D02*
X106301333Y-120514904D01*
X106301333Y-120514904D02*
X106444190Y-120467285D01*
X106444190Y-120467285D02*
X107015619Y-119895857D01*
X107015619Y-119895857D02*
X107015619Y-120514904D01*
%TO.C,C26*%
X87129857Y-94474380D02*
X87177476Y-94522000D01*
X87177476Y-94522000D02*
X87320333Y-94569619D01*
X87320333Y-94569619D02*
X87415571Y-94569619D01*
X87415571Y-94569619D02*
X87558428Y-94522000D01*
X87558428Y-94522000D02*
X87653666Y-94426761D01*
X87653666Y-94426761D02*
X87701285Y-94331523D01*
X87701285Y-94331523D02*
X87748904Y-94141047D01*
X87748904Y-94141047D02*
X87748904Y-93998190D01*
X87748904Y-93998190D02*
X87701285Y-93807714D01*
X87701285Y-93807714D02*
X87653666Y-93712476D01*
X87653666Y-93712476D02*
X87558428Y-93617238D01*
X87558428Y-93617238D02*
X87415571Y-93569619D01*
X87415571Y-93569619D02*
X87320333Y-93569619D01*
X87320333Y-93569619D02*
X87177476Y-93617238D01*
X87177476Y-93617238D02*
X87129857Y-93664857D01*
X86748904Y-93664857D02*
X86701285Y-93617238D01*
X86701285Y-93617238D02*
X86606047Y-93569619D01*
X86606047Y-93569619D02*
X86367952Y-93569619D01*
X86367952Y-93569619D02*
X86272714Y-93617238D01*
X86272714Y-93617238D02*
X86225095Y-93664857D01*
X86225095Y-93664857D02*
X86177476Y-93760095D01*
X86177476Y-93760095D02*
X86177476Y-93855333D01*
X86177476Y-93855333D02*
X86225095Y-93998190D01*
X86225095Y-93998190D02*
X86796523Y-94569619D01*
X86796523Y-94569619D02*
X86177476Y-94569619D01*
X85320333Y-93569619D02*
X85510809Y-93569619D01*
X85510809Y-93569619D02*
X85606047Y-93617238D01*
X85606047Y-93617238D02*
X85653666Y-93664857D01*
X85653666Y-93664857D02*
X85748904Y-93807714D01*
X85748904Y-93807714D02*
X85796523Y-93998190D01*
X85796523Y-93998190D02*
X85796523Y-94379142D01*
X85796523Y-94379142D02*
X85748904Y-94474380D01*
X85748904Y-94474380D02*
X85701285Y-94522000D01*
X85701285Y-94522000D02*
X85606047Y-94569619D01*
X85606047Y-94569619D02*
X85415571Y-94569619D01*
X85415571Y-94569619D02*
X85320333Y-94522000D01*
X85320333Y-94522000D02*
X85272714Y-94474380D01*
X85272714Y-94474380D02*
X85225095Y-94379142D01*
X85225095Y-94379142D02*
X85225095Y-94141047D01*
X85225095Y-94141047D02*
X85272714Y-94045809D01*
X85272714Y-94045809D02*
X85320333Y-93998190D01*
X85320333Y-93998190D02*
X85415571Y-93950571D01*
X85415571Y-93950571D02*
X85606047Y-93950571D01*
X85606047Y-93950571D02*
X85701285Y-93998190D01*
X85701285Y-93998190D02*
X85748904Y-94045809D01*
X85748904Y-94045809D02*
X85796523Y-94141047D01*
%TO.C,C3*%
X74207666Y-68058380D02*
X74255285Y-68106000D01*
X74255285Y-68106000D02*
X74398142Y-68153619D01*
X74398142Y-68153619D02*
X74493380Y-68153619D01*
X74493380Y-68153619D02*
X74636237Y-68106000D01*
X74636237Y-68106000D02*
X74731475Y-68010761D01*
X74731475Y-68010761D02*
X74779094Y-67915523D01*
X74779094Y-67915523D02*
X74826713Y-67725047D01*
X74826713Y-67725047D02*
X74826713Y-67582190D01*
X74826713Y-67582190D02*
X74779094Y-67391714D01*
X74779094Y-67391714D02*
X74731475Y-67296476D01*
X74731475Y-67296476D02*
X74636237Y-67201238D01*
X74636237Y-67201238D02*
X74493380Y-67153619D01*
X74493380Y-67153619D02*
X74398142Y-67153619D01*
X74398142Y-67153619D02*
X74255285Y-67201238D01*
X74255285Y-67201238D02*
X74207666Y-67248857D01*
X73874332Y-67153619D02*
X73255285Y-67153619D01*
X73255285Y-67153619D02*
X73588618Y-67534571D01*
X73588618Y-67534571D02*
X73445761Y-67534571D01*
X73445761Y-67534571D02*
X73350523Y-67582190D01*
X73350523Y-67582190D02*
X73302904Y-67629809D01*
X73302904Y-67629809D02*
X73255285Y-67725047D01*
X73255285Y-67725047D02*
X73255285Y-67963142D01*
X73255285Y-67963142D02*
X73302904Y-68058380D01*
X73302904Y-68058380D02*
X73350523Y-68106000D01*
X73350523Y-68106000D02*
X73445761Y-68153619D01*
X73445761Y-68153619D02*
X73731475Y-68153619D01*
X73731475Y-68153619D02*
X73826713Y-68106000D01*
X73826713Y-68106000D02*
X73874332Y-68058380D01*
%TO.C,R36*%
X74937857Y-97744619D02*
X75271190Y-97268428D01*
X75509285Y-97744619D02*
X75509285Y-96744619D01*
X75509285Y-96744619D02*
X75128333Y-96744619D01*
X75128333Y-96744619D02*
X75033095Y-96792238D01*
X75033095Y-96792238D02*
X74985476Y-96839857D01*
X74985476Y-96839857D02*
X74937857Y-96935095D01*
X74937857Y-96935095D02*
X74937857Y-97077952D01*
X74937857Y-97077952D02*
X74985476Y-97173190D01*
X74985476Y-97173190D02*
X75033095Y-97220809D01*
X75033095Y-97220809D02*
X75128333Y-97268428D01*
X75128333Y-97268428D02*
X75509285Y-97268428D01*
X74604523Y-96744619D02*
X73985476Y-96744619D01*
X73985476Y-96744619D02*
X74318809Y-97125571D01*
X74318809Y-97125571D02*
X74175952Y-97125571D01*
X74175952Y-97125571D02*
X74080714Y-97173190D01*
X74080714Y-97173190D02*
X74033095Y-97220809D01*
X74033095Y-97220809D02*
X73985476Y-97316047D01*
X73985476Y-97316047D02*
X73985476Y-97554142D01*
X73985476Y-97554142D02*
X74033095Y-97649380D01*
X74033095Y-97649380D02*
X74080714Y-97697000D01*
X74080714Y-97697000D02*
X74175952Y-97744619D01*
X74175952Y-97744619D02*
X74461666Y-97744619D01*
X74461666Y-97744619D02*
X74556904Y-97697000D01*
X74556904Y-97697000D02*
X74604523Y-97649380D01*
X73128333Y-96744619D02*
X73318809Y-96744619D01*
X73318809Y-96744619D02*
X73414047Y-96792238D01*
X73414047Y-96792238D02*
X73461666Y-96839857D01*
X73461666Y-96839857D02*
X73556904Y-96982714D01*
X73556904Y-96982714D02*
X73604523Y-97173190D01*
X73604523Y-97173190D02*
X73604523Y-97554142D01*
X73604523Y-97554142D02*
X73556904Y-97649380D01*
X73556904Y-97649380D02*
X73509285Y-97697000D01*
X73509285Y-97697000D02*
X73414047Y-97744619D01*
X73414047Y-97744619D02*
X73223571Y-97744619D01*
X73223571Y-97744619D02*
X73128333Y-97697000D01*
X73128333Y-97697000D02*
X73080714Y-97649380D01*
X73080714Y-97649380D02*
X73033095Y-97554142D01*
X73033095Y-97554142D02*
X73033095Y-97316047D01*
X73033095Y-97316047D02*
X73080714Y-97220809D01*
X73080714Y-97220809D02*
X73128333Y-97173190D01*
X73128333Y-97173190D02*
X73223571Y-97125571D01*
X73223571Y-97125571D02*
X73414047Y-97125571D01*
X73414047Y-97125571D02*
X73509285Y-97173190D01*
X73509285Y-97173190D02*
X73556904Y-97220809D01*
X73556904Y-97220809D02*
X73604523Y-97316047D01*
%TO.C,R29*%
X120022857Y-102824619D02*
X120356190Y-102348428D01*
X120594285Y-102824619D02*
X120594285Y-101824619D01*
X120594285Y-101824619D02*
X120213333Y-101824619D01*
X120213333Y-101824619D02*
X120118095Y-101872238D01*
X120118095Y-101872238D02*
X120070476Y-101919857D01*
X120070476Y-101919857D02*
X120022857Y-102015095D01*
X120022857Y-102015095D02*
X120022857Y-102157952D01*
X120022857Y-102157952D02*
X120070476Y-102253190D01*
X120070476Y-102253190D02*
X120118095Y-102300809D01*
X120118095Y-102300809D02*
X120213333Y-102348428D01*
X120213333Y-102348428D02*
X120594285Y-102348428D01*
X119641904Y-101919857D02*
X119594285Y-101872238D01*
X119594285Y-101872238D02*
X119499047Y-101824619D01*
X119499047Y-101824619D02*
X119260952Y-101824619D01*
X119260952Y-101824619D02*
X119165714Y-101872238D01*
X119165714Y-101872238D02*
X119118095Y-101919857D01*
X119118095Y-101919857D02*
X119070476Y-102015095D01*
X119070476Y-102015095D02*
X119070476Y-102110333D01*
X119070476Y-102110333D02*
X119118095Y-102253190D01*
X119118095Y-102253190D02*
X119689523Y-102824619D01*
X119689523Y-102824619D02*
X119070476Y-102824619D01*
X118594285Y-102824619D02*
X118403809Y-102824619D01*
X118403809Y-102824619D02*
X118308571Y-102777000D01*
X118308571Y-102777000D02*
X118260952Y-102729380D01*
X118260952Y-102729380D02*
X118165714Y-102586523D01*
X118165714Y-102586523D02*
X118118095Y-102396047D01*
X118118095Y-102396047D02*
X118118095Y-102015095D01*
X118118095Y-102015095D02*
X118165714Y-101919857D01*
X118165714Y-101919857D02*
X118213333Y-101872238D01*
X118213333Y-101872238D02*
X118308571Y-101824619D01*
X118308571Y-101824619D02*
X118499047Y-101824619D01*
X118499047Y-101824619D02*
X118594285Y-101872238D01*
X118594285Y-101872238D02*
X118641904Y-101919857D01*
X118641904Y-101919857D02*
X118689523Y-102015095D01*
X118689523Y-102015095D02*
X118689523Y-102253190D01*
X118689523Y-102253190D02*
X118641904Y-102348428D01*
X118641904Y-102348428D02*
X118594285Y-102396047D01*
X118594285Y-102396047D02*
X118499047Y-102443666D01*
X118499047Y-102443666D02*
X118308571Y-102443666D01*
X118308571Y-102443666D02*
X118213333Y-102396047D01*
X118213333Y-102396047D02*
X118165714Y-102348428D01*
X118165714Y-102348428D02*
X118118095Y-102253190D01*
%TO.C,R15*%
X96347619Y-93476142D02*
X95871428Y-93142809D01*
X96347619Y-92904714D02*
X95347619Y-92904714D01*
X95347619Y-92904714D02*
X95347619Y-93285666D01*
X95347619Y-93285666D02*
X95395238Y-93380904D01*
X95395238Y-93380904D02*
X95442857Y-93428523D01*
X95442857Y-93428523D02*
X95538095Y-93476142D01*
X95538095Y-93476142D02*
X95680952Y-93476142D01*
X95680952Y-93476142D02*
X95776190Y-93428523D01*
X95776190Y-93428523D02*
X95823809Y-93380904D01*
X95823809Y-93380904D02*
X95871428Y-93285666D01*
X95871428Y-93285666D02*
X95871428Y-92904714D01*
X96347619Y-94428523D02*
X96347619Y-93857095D01*
X96347619Y-94142809D02*
X95347619Y-94142809D01*
X95347619Y-94142809D02*
X95490476Y-94047571D01*
X95490476Y-94047571D02*
X95585714Y-93952333D01*
X95585714Y-93952333D02*
X95633333Y-93857095D01*
X95347619Y-95333285D02*
X95347619Y-94857095D01*
X95347619Y-94857095D02*
X95823809Y-94809476D01*
X95823809Y-94809476D02*
X95776190Y-94857095D01*
X95776190Y-94857095D02*
X95728571Y-94952333D01*
X95728571Y-94952333D02*
X95728571Y-95190428D01*
X95728571Y-95190428D02*
X95776190Y-95285666D01*
X95776190Y-95285666D02*
X95823809Y-95333285D01*
X95823809Y-95333285D02*
X95919047Y-95380904D01*
X95919047Y-95380904D02*
X96157142Y-95380904D01*
X96157142Y-95380904D02*
X96252380Y-95333285D01*
X96252380Y-95333285D02*
X96300000Y-95285666D01*
X96300000Y-95285666D02*
X96347619Y-95190428D01*
X96347619Y-95190428D02*
X96347619Y-94952333D01*
X96347619Y-94952333D02*
X96300000Y-94857095D01*
X96300000Y-94857095D02*
X96252380Y-94809476D01*
%TO.C,R21*%
X87837857Y-88727619D02*
X88171190Y-88251428D01*
X88409285Y-88727619D02*
X88409285Y-87727619D01*
X88409285Y-87727619D02*
X88028333Y-87727619D01*
X88028333Y-87727619D02*
X87933095Y-87775238D01*
X87933095Y-87775238D02*
X87885476Y-87822857D01*
X87885476Y-87822857D02*
X87837857Y-87918095D01*
X87837857Y-87918095D02*
X87837857Y-88060952D01*
X87837857Y-88060952D02*
X87885476Y-88156190D01*
X87885476Y-88156190D02*
X87933095Y-88203809D01*
X87933095Y-88203809D02*
X88028333Y-88251428D01*
X88028333Y-88251428D02*
X88409285Y-88251428D01*
X87456904Y-87822857D02*
X87409285Y-87775238D01*
X87409285Y-87775238D02*
X87314047Y-87727619D01*
X87314047Y-87727619D02*
X87075952Y-87727619D01*
X87075952Y-87727619D02*
X86980714Y-87775238D01*
X86980714Y-87775238D02*
X86933095Y-87822857D01*
X86933095Y-87822857D02*
X86885476Y-87918095D01*
X86885476Y-87918095D02*
X86885476Y-88013333D01*
X86885476Y-88013333D02*
X86933095Y-88156190D01*
X86933095Y-88156190D02*
X87504523Y-88727619D01*
X87504523Y-88727619D02*
X86885476Y-88727619D01*
X85933095Y-88727619D02*
X86504523Y-88727619D01*
X86218809Y-88727619D02*
X86218809Y-87727619D01*
X86218809Y-87727619D02*
X86314047Y-87870476D01*
X86314047Y-87870476D02*
X86409285Y-87965714D01*
X86409285Y-87965714D02*
X86504523Y-88013333D01*
D12*
%TO.C,U2*%
X92591000Y-144567000D02*
X92116000Y-144567000D01*
X94861000Y-147787000D02*
X95336000Y-147787000D01*
X92591000Y-147787000D02*
X92116000Y-147787000D01*
X95336000Y-147787000D02*
X95336000Y-147312000D01*
X94861000Y-144567000D02*
X95336000Y-144567000D01*
X95336000Y-144567000D02*
X95336000Y-145042000D01*
X92116000Y-144567000D02*
X92116000Y-145042000D01*
%TO.C,C11*%
X99443000Y-147052420D02*
X99443000Y-147333580D01*
X98423000Y-147052420D02*
X98423000Y-147333580D01*
%TO.C,R27*%
X101456258Y-107710500D02*
X100981742Y-107710500D01*
X101456258Y-106665500D02*
X100981742Y-106665500D01*
%TO.C,J4*%
X115772000Y-146625000D02*
X115772000Y-149285000D01*
X110632000Y-146625000D02*
X115772000Y-146625000D01*
X110632000Y-146625000D02*
X110632000Y-149285000D01*
X109362000Y-146625000D02*
X108032000Y-146625000D01*
X108032000Y-146625000D02*
X108032000Y-147955000D01*
X110632000Y-149285000D02*
X115772000Y-149285000D01*
%TO.C,R26*%
X101007142Y-97902500D02*
X101481658Y-97902500D01*
X101007142Y-98947500D02*
X101481658Y-98947500D01*
%TO.C,R16*%
X93711500Y-91308258D02*
X93711500Y-90833742D01*
X94756500Y-91308258D02*
X94756500Y-90833742D01*
%TO.C,R19*%
X100442500Y-91296258D02*
X100442500Y-90821742D01*
X101487500Y-91296258D02*
X101487500Y-90821742D01*
%TO.C,R39*%
X77453258Y-101106500D02*
X76978742Y-101106500D01*
X77453258Y-100061500D02*
X76978742Y-100061500D01*
%TO.C,D4*%
X106338000Y-113751000D02*
X106338000Y-111091000D01*
X108038000Y-113751000D02*
X106338000Y-113751000D01*
X108038000Y-113751000D02*
X108038000Y-111091000D01*
D13*
%TO.C,J6*%
X106540000Y-75565000D02*
X101740000Y-75565000D01*
X101740000Y-75565000D02*
X103090000Y-74365000D01*
X101740000Y-75565000D02*
X103070000Y-76725000D01*
D11*
X100895000Y-52675000D02*
X92145000Y-52675000D01*
X92145000Y-52675000D02*
X92145000Y-80675000D01*
X92145000Y-80675000D02*
X100895000Y-80675000D01*
X100895000Y-80675000D02*
X100895000Y-52675000D01*
D12*
%TO.C,R46*%
X91964742Y-103363500D02*
X92439258Y-103363500D01*
X91964742Y-104408500D02*
X92439258Y-104408500D01*
%TO.C,U5*%
X94037000Y-84963000D02*
X94037000Y-87163000D01*
X94037000Y-84963000D02*
X94037000Y-82763000D01*
X99257000Y-84963000D02*
X99257000Y-88563000D01*
X99257000Y-84963000D02*
X99257000Y-82763000D01*
%TO.C,R33*%
X116166737Y-120608000D02*
X114719263Y-120608000D01*
X116166737Y-117898000D02*
X114719263Y-117898000D01*
%TO.C,R11*%
X108980500Y-86757742D02*
X108980500Y-87232258D01*
X107935500Y-86757742D02*
X107935500Y-87232258D01*
%TO.C,C2*%
X90056580Y-72519000D02*
X89775420Y-72519000D01*
X90056580Y-71499000D02*
X89775420Y-71499000D01*
%TO.C,R31*%
X104228737Y-120608000D02*
X102781263Y-120608000D01*
X104228737Y-117898000D02*
X102781263Y-117898000D01*
%TO.C,C23*%
X110125800Y-69704800D02*
X110125800Y-70329800D01*
X109813300Y-70017300D02*
X110438300Y-70017300D01*
X113506363Y-70569800D02*
X112870800Y-70569800D01*
X113506363Y-70569800D02*
X114570800Y-71634237D01*
X110115237Y-70569800D02*
X110750800Y-70569800D01*
X110115237Y-70569800D02*
X109050800Y-71634237D01*
X114570800Y-71634237D02*
X114570800Y-76089800D01*
X109050800Y-71634237D02*
X109050800Y-76089800D01*
X114570800Y-76089800D02*
X112870800Y-76089800D01*
X109050800Y-76089800D02*
X110750800Y-76089800D01*
%TO.C,R14*%
X116061258Y-116346500D02*
X115586742Y-116346500D01*
X116061258Y-115301500D02*
X115586742Y-115301500D01*
%TO.C,D9*%
X83224000Y-113751000D02*
X83224000Y-111091000D01*
X84924000Y-113751000D02*
X83224000Y-113751000D01*
X84924000Y-113751000D02*
X84924000Y-111091000D01*
%TO.C,R8*%
X84438258Y-137017500D02*
X83963742Y-137017500D01*
X84438258Y-135972500D02*
X83963742Y-135972500D01*
%TO.C,R22*%
X102601500Y-87105258D02*
X102601500Y-86630742D01*
X103646500Y-87105258D02*
X103646500Y-86630742D01*
%TO.C,R7*%
X84438258Y-135269500D02*
X83963742Y-135269500D01*
X84438258Y-134224500D02*
X83963742Y-134224500D01*
%TO.C,R35*%
X77453258Y-102757500D02*
X76978742Y-102757500D01*
X77453258Y-101712500D02*
X76978742Y-101712500D01*
%TO.C,R40*%
X77453258Y-96153500D02*
X76978742Y-96153500D01*
X77453258Y-95108500D02*
X76978742Y-95108500D01*
%TO.C,C14*%
X104265000Y-87008580D02*
X104265000Y-86727420D01*
X105285000Y-87008580D02*
X105285000Y-86727420D01*
%TO.C,R20*%
X98791500Y-91296258D02*
X98791500Y-90821742D01*
X99836500Y-91296258D02*
X99836500Y-90821742D01*
%TO.C,C10*%
X96518000Y-142761580D02*
X96518000Y-142480420D01*
X97538000Y-142761580D02*
X97538000Y-142480420D01*
%TO.C,R23*%
X101456258Y-106059500D02*
X100981742Y-106059500D01*
X101456258Y-105014500D02*
X100981742Y-105014500D01*
%TO.C,C13*%
X90183580Y-87124000D02*
X89902420Y-87124000D01*
X90183580Y-86104000D02*
X89902420Y-86104000D01*
%TO.C,R2*%
X90153258Y-70753500D02*
X89678742Y-70753500D01*
X90153258Y-69708500D02*
X89678742Y-69708500D01*
%TO.C,C6*%
X91022000Y-129075000D02*
X98462000Y-129075000D01*
X91022000Y-133815000D02*
X91022000Y-129075000D01*
X91022000Y-133815000D02*
X98462000Y-133815000D01*
X98462000Y-133815000D02*
X98462000Y-129075000D01*
%TO.C,C7*%
X91022000Y-134409000D02*
X98462000Y-134409000D01*
X91022000Y-139149000D02*
X91022000Y-134409000D01*
X91022000Y-139149000D02*
X98462000Y-139149000D01*
X98462000Y-139149000D02*
X98462000Y-134409000D01*
%TO.C,C24*%
X116318420Y-98550000D02*
X116599580Y-98550000D01*
X116318420Y-99570000D02*
X116599580Y-99570000D01*
%TO.C,D11*%
X85510000Y-113751000D02*
X85510000Y-111091000D01*
X87210000Y-113751000D02*
X85510000Y-113751000D01*
X87210000Y-113751000D02*
X87210000Y-111091000D01*
%TO.C,R43*%
X90766737Y-120608000D02*
X89319263Y-120608000D01*
X90766737Y-117898000D02*
X89319263Y-117898000D01*
%TO.C,R18*%
X97140500Y-91296258D02*
X97140500Y-90821742D01*
X98185500Y-91296258D02*
X98185500Y-90821742D01*
%TO.C,R28*%
X116221742Y-96886500D02*
X116696258Y-96886500D01*
X116221742Y-97931500D02*
X116696258Y-97931500D01*
%TO.C,R13*%
X105297500Y-111776742D02*
X105297500Y-112251258D01*
X104252500Y-111776742D02*
X104252500Y-112251258D01*
%TO.C,R17*%
X92060500Y-91296258D02*
X92060500Y-90821742D01*
X93105500Y-91296258D02*
X93105500Y-90821742D01*
%TO.C,R10*%
X116061258Y-65546500D02*
X115586742Y-65546500D01*
X116061258Y-64501500D02*
X115586742Y-64501500D01*
%TO.C,C5*%
X78697000Y-137250000D02*
X78697000Y-144690000D01*
X73957000Y-137250000D02*
X78697000Y-137250000D01*
X73957000Y-137250000D02*
X73957000Y-144690000D01*
X73957000Y-144690000D02*
X78697000Y-144690000D01*
%TO.C,U1*%
X82804000Y-69272000D02*
X80604000Y-69272000D01*
X82804000Y-69272000D02*
X85004000Y-69272000D01*
X82804000Y-74492000D02*
X79204000Y-74492000D01*
X82804000Y-74492000D02*
X85004000Y-74492000D01*
%TO.C,D2*%
X108624000Y-113751000D02*
X108624000Y-111091000D01*
X110324000Y-113751000D02*
X108624000Y-113751000D01*
X110324000Y-113751000D02*
X110324000Y-111091000D01*
%TO.C,R41*%
X92439258Y-107710500D02*
X91964742Y-107710500D01*
X92439258Y-106665500D02*
X91964742Y-106665500D01*
%TO.C,R25*%
X116221742Y-100188500D02*
X116696258Y-100188500D01*
X116221742Y-101233500D02*
X116696258Y-101233500D01*
%TO.C,C21*%
X111159000Y-62426000D02*
X111159000Y-61801000D01*
X111471500Y-62113500D02*
X110846500Y-62113500D01*
X107778437Y-61561000D02*
X108414000Y-61561000D01*
X107778437Y-61561000D02*
X106714000Y-60496563D01*
X111169563Y-61561000D02*
X110534000Y-61561000D01*
X111169563Y-61561000D02*
X112234000Y-60496563D01*
X106714000Y-60496563D02*
X106714000Y-56041000D01*
X112234000Y-60496563D02*
X112234000Y-56041000D01*
X106714000Y-56041000D02*
X108414000Y-56041000D01*
X112234000Y-56041000D02*
X110534000Y-56041000D01*
%TO.C,C25*%
X105777420Y-94359000D02*
X106058580Y-94359000D01*
X105777420Y-95379000D02*
X106058580Y-95379000D01*
%TO.C,R38*%
X92439258Y-98947500D02*
X91964742Y-98947500D01*
X92439258Y-97902500D02*
X91964742Y-97902500D01*
%TO.C,C9*%
X91326580Y-141603000D02*
X91045420Y-141603000D01*
X91326580Y-142623000D02*
X91045420Y-142623000D01*
%TO.C,D3*%
X110910000Y-113751000D02*
X110910000Y-111091000D01*
X112610000Y-113751000D02*
X110910000Y-113751000D01*
X112610000Y-113751000D02*
X112610000Y-111091000D01*
%TO.C,U4*%
X109474000Y-102432000D02*
X111674000Y-102432000D01*
X109474000Y-102432000D02*
X107274000Y-102432000D01*
X109474000Y-97212000D02*
X113074000Y-97212000D01*
X109474000Y-97212000D02*
X107274000Y-97212000D01*
%TO.C,R30*%
X100981742Y-96226100D02*
X101456258Y-96226100D01*
X100981742Y-97271100D02*
X101456258Y-97271100D01*
%TO.C,R44*%
X84797737Y-120608000D02*
X83350263Y-120608000D01*
X84797737Y-117898000D02*
X83350263Y-117898000D01*
%TO.C,C22*%
X85759000Y-62680000D02*
X85759000Y-62055000D01*
X86071500Y-62367500D02*
X85446500Y-62367500D01*
X82378437Y-61815000D02*
X83014000Y-61815000D01*
X82378437Y-61815000D02*
X81314000Y-60750563D01*
X85769563Y-61815000D02*
X85134000Y-61815000D01*
X85769563Y-61815000D02*
X86834000Y-60750563D01*
X81314000Y-60750563D02*
X81314000Y-56295000D01*
X86834000Y-60750563D02*
X86834000Y-56295000D01*
X81314000Y-56295000D02*
X83014000Y-56295000D01*
X86834000Y-56295000D02*
X85134000Y-56295000D01*
%TO.C,C18*%
X84849580Y-78234000D02*
X84568420Y-78234000D01*
X84849580Y-77214000D02*
X84568420Y-77214000D01*
%TO.C,R12*%
X112536500Y-86757742D02*
X112536500Y-87232258D01*
X111491500Y-86757742D02*
X111491500Y-87232258D01*
%TO.C,R5*%
X90153258Y-74309500D02*
X89678742Y-74309500D01*
X90153258Y-73264500D02*
X89678742Y-73264500D01*
%TO.C,D8*%
X93812000Y-101180000D02*
X91152000Y-101180000D01*
X93812000Y-99480000D02*
X93812000Y-101180000D01*
X93812000Y-99480000D02*
X91152000Y-99480000D01*
%TO.C,C1*%
X76594580Y-77091000D02*
X76313420Y-77091000D01*
X76594580Y-76071000D02*
X76313420Y-76071000D01*
%TO.C,R37*%
X91964742Y-105014500D02*
X92439258Y-105014500D01*
X91964742Y-106059500D02*
X92439258Y-106059500D01*
%TO.C,C19*%
X91184000Y-83833580D02*
X91184000Y-83552420D01*
X92204000Y-83833580D02*
X92204000Y-83552420D01*
%TO.C,U3*%
X84074000Y-102432000D02*
X86274000Y-102432000D01*
X84074000Y-102432000D02*
X81874000Y-102432000D01*
X84074000Y-97212000D02*
X87674000Y-97212000D01*
X84074000Y-97212000D02*
X81874000Y-97212000D01*
%TO.C,D10*%
X80938000Y-113751000D02*
X80938000Y-111091000D01*
X82638000Y-113751000D02*
X80938000Y-113751000D01*
X82638000Y-113751000D02*
X82638000Y-111091000D01*
%TO.C,R42*%
X92439258Y-97423500D02*
X91964742Y-97423500D01*
X92439258Y-96378500D02*
X91964742Y-96378500D01*
%TO.C,C12*%
X89040580Y-149354000D02*
X88759420Y-149354000D01*
X89040580Y-148334000D02*
X88759420Y-148334000D01*
%TO.C,C4*%
X74639000Y-145331000D02*
X82079000Y-145331000D01*
X74639000Y-150071000D02*
X74639000Y-145331000D01*
X74639000Y-150071000D02*
X82079000Y-150071000D01*
X82079000Y-150071000D02*
X82079000Y-145331000D01*
%TO.C,R3*%
X76691258Y-71769500D02*
X76216742Y-71769500D01*
X76691258Y-70724500D02*
X76216742Y-70724500D01*
%TO.C,C27*%
X77075420Y-98423000D02*
X77356580Y-98423000D01*
X77075420Y-99443000D02*
X77356580Y-99443000D01*
%TO.C,D1*%
X102829000Y-101180000D02*
X100169000Y-101180000D01*
X102829000Y-99480000D02*
X102829000Y-101180000D01*
X102829000Y-99480000D02*
X100169000Y-99480000D01*
%TO.C,C20*%
X102237000Y-83298420D02*
X102237000Y-83579580D01*
X101217000Y-83298420D02*
X101217000Y-83579580D01*
%TO.C,C17*%
X80912580Y-78234000D02*
X80631420Y-78234000D01*
X80912580Y-77214000D02*
X80631420Y-77214000D01*
%TO.C,C8*%
X89918000Y-145528420D02*
X89918000Y-145809580D01*
X88898000Y-145528420D02*
X88898000Y-145809580D01*
%TO.C,R45*%
X78767237Y-120608000D02*
X77319763Y-120608000D01*
X78767237Y-117898000D02*
X77319763Y-117898000D01*
%TO.C,C16*%
X92342580Y-102745000D02*
X92061420Y-102745000D01*
X92342580Y-101725000D02*
X92061420Y-101725000D01*
%TO.C,R9*%
X102886742Y-64501500D02*
X103361258Y-64501500D01*
X102886742Y-65546500D02*
X103361258Y-65546500D01*
%TO.C,R6*%
X76691258Y-69991500D02*
X76216742Y-69991500D01*
X76691258Y-68946500D02*
X76216742Y-68946500D01*
%TO.C,R24*%
X116221742Y-95235500D02*
X116696258Y-95235500D01*
X116221742Y-96280500D02*
X116696258Y-96280500D01*
%TO.C,R34*%
X100981742Y-103363500D02*
X101456258Y-103363500D01*
X100981742Y-104408500D02*
X101456258Y-104408500D01*
%TO.C,R1*%
X76691258Y-73547500D02*
X76216742Y-73547500D01*
X76691258Y-72502500D02*
X76216742Y-72502500D01*
%TO.C,R4*%
X76691258Y-75325500D02*
X76216742Y-75325500D01*
X76691258Y-74280500D02*
X76216742Y-74280500D01*
%TO.C,C15*%
X101359580Y-102745000D02*
X101078420Y-102745000D01*
X101359580Y-101725000D02*
X101078420Y-101725000D01*
%TO.C,R32*%
X110197737Y-120608000D02*
X108750263Y-120608000D01*
X110197737Y-117898000D02*
X108750263Y-117898000D01*
%TO.C,C26*%
X86346420Y-94994000D02*
X86627580Y-94994000D01*
X86346420Y-96014000D02*
X86627580Y-96014000D01*
%TO.C,C3*%
X76594580Y-68201000D02*
X76313420Y-68201000D01*
X76594580Y-67181000D02*
X76313420Y-67181000D01*
%TO.C,R36*%
X77453258Y-97804500D02*
X76978742Y-97804500D01*
X77453258Y-96759500D02*
X76978742Y-96759500D01*
%TO.C,R29*%
X116221742Y-101839500D02*
X116696258Y-101839500D01*
X116221742Y-102884500D02*
X116696258Y-102884500D01*
%TO.C,R15*%
X95362500Y-91308258D02*
X95362500Y-90833742D01*
X96407500Y-91308258D02*
X96407500Y-90833742D01*
%TO.C,R21*%
X90280258Y-88787500D02*
X89805742Y-88787500D01*
X90280258Y-87742500D02*
X89805742Y-87742500D01*
%TD*%
M02*
