%TF.GenerationSoftware,KiCad,Pcbnew,7.0.1*%
%TF.CreationDate,2024-09-15T16:09:11-04:00*%
%TF.ProjectId,output module,6f757470-7574-4206-9d6f-64756c652e6b,A*%
%TF.SameCoordinates,Original*%
%TF.FileFunction,Copper,L1,Top*%
%TF.FilePolarity,Positive*%
%FSLAX46Y46*%
G04 Gerber Fmt 4.6, Leading zero omitted, Abs format (unit mm)*
G04 Created by KiCad (PCBNEW 7.0.1) date 2024-09-15 16:09:11*
%MOMM*%
%LPD*%
G01*
G04 APERTURE LIST*
%TA.AperFunction,ComponentPad*%
%ADD10C,2.000000*%
%TD*%
%TA.AperFunction,ComponentPad*%
%ADD11O,2.720000X3.240000*%
%TD*%
%TA.AperFunction,ComponentPad*%
%ADD12R,1.800000X1.800000*%
%TD*%
%TA.AperFunction,ComponentPad*%
%ADD13C,1.800000*%
%TD*%
%TA.AperFunction,ComponentPad*%
%ADD14R,1.700000X1.700000*%
%TD*%
%TA.AperFunction,ComponentPad*%
%ADD15O,1.700000X1.700000*%
%TD*%
%TA.AperFunction,ComponentPad*%
%ADD16O,1.800000X1.800000*%
%TD*%
%TA.AperFunction,ComponentPad*%
%ADD17C,1.600000*%
%TD*%
%TA.AperFunction,ViaPad*%
%ADD18C,0.800000*%
%TD*%
%TA.AperFunction,Conductor*%
%ADD19C,0.250000*%
%TD*%
G04 APERTURE END LIST*
D10*
%TO.P,J3,TN*%
%TO.N,unconnected-(J3-PadTN)*%
X110191000Y-155194000D03*
%TO.P,J3,T*%
%TO.N,Net-(J3-PadT)*%
X118491000Y-155194000D03*
%TO.P,J3,S*%
%TO.N,GND*%
X107091000Y-155194000D03*
%TD*%
%TO.P,J1,TN*%
%TO.N,unconnected-(J1-PadTN)*%
X83484000Y-155194000D03*
%TO.P,J1,T*%
%TO.N,Net-(J1-PadT)*%
X75184000Y-155194000D03*
%TO.P,J1,S*%
%TO.N,GND*%
X86584000Y-155194000D03*
%TD*%
%TO.P,J2,TN*%
%TO.N,unconnected-(J2-PadTN)*%
X93394000Y-155194000D03*
%TO.P,J2,T*%
%TO.N,Net-(J2-PadT)*%
X101694000Y-155194000D03*
%TO.P,J2,S*%
%TO.N,GND*%
X90294000Y-155194000D03*
%TD*%
D11*
%TO.P,RV2,*%
%TO.N,*%
X79274000Y-82924000D03*
X88874000Y-82924000D03*
D12*
%TO.P,RV2,1,1*%
%TO.N,GND*%
X81574000Y-90424000D03*
D13*
%TO.P,RV2,2,2*%
%TO.N,Net-(R2-Pad1)*%
X84074000Y-90424000D03*
%TO.P,RV2,3,3*%
%TO.N,Net-(J2-PadT)*%
X86574000Y-90424000D03*
%TD*%
D11*
%TO.P,RV6,*%
%TO.N,*%
X104674000Y-82924000D03*
X114274000Y-82924000D03*
D12*
%TO.P,RV6,1,1*%
%TO.N,chan_2_left*%
X106974000Y-90424000D03*
D13*
%TO.P,RV6,2,2*%
%TO.N,GND*%
X109474000Y-90424000D03*
%TO.P,RV6,3,3*%
%TO.N,chan_2_right*%
X111974000Y-90424000D03*
%TD*%
D12*
%TO.P,D14,1,K*%
%TO.N,GND*%
X78105000Y-124714000D03*
D13*
%TO.P,D14,2,A*%
%TO.N,Net-(D14-A)*%
X78105000Y-122174000D03*
%TD*%
D11*
%TO.P,RV1,*%
%TO.N,*%
X79274000Y-57524000D03*
X88874000Y-57524000D03*
D12*
%TO.P,RV1,1,1*%
%TO.N,GND*%
X81574000Y-65024000D03*
D13*
%TO.P,RV1,2,2*%
%TO.N,Net-(R1-Pad1)*%
X84074000Y-65024000D03*
%TO.P,RV1,3,3*%
%TO.N,Net-(J1-PadT)*%
X86574000Y-65024000D03*
%TD*%
D12*
%TO.P,D13,1,K*%
%TO.N,GND*%
X84074000Y-124714000D03*
D13*
%TO.P,D13,2,A*%
%TO.N,Net-(D13-A)*%
X84074000Y-122174000D03*
%TD*%
D11*
%TO.P,RV5,*%
%TO.N,*%
X104674000Y-57524000D03*
X114274000Y-57524000D03*
D12*
%TO.P,RV5,1,1*%
%TO.N,chan_1_left*%
X106974000Y-65024000D03*
D13*
%TO.P,RV5,2,2*%
%TO.N,GND*%
X109474000Y-65024000D03*
%TO.P,RV5,3,3*%
%TO.N,chan_1_right*%
X111974000Y-65024000D03*
%TD*%
D11*
%TO.P,RV7,*%
%TO.N,*%
X104674000Y-108324000D03*
X114274000Y-108324000D03*
D12*
%TO.P,RV7,1,1*%
%TO.N,chan_3_left*%
X106974000Y-115824000D03*
D13*
%TO.P,RV7,2,2*%
%TO.N,GND*%
X109474000Y-115824000D03*
%TO.P,RV7,3,3*%
%TO.N,chan_3_right*%
X111974000Y-115824000D03*
%TD*%
D11*
%TO.P,RV3,*%
%TO.N,*%
X79274000Y-108324000D03*
X88874000Y-108324000D03*
D12*
%TO.P,RV3,1,1*%
%TO.N,GND*%
X81574000Y-115824000D03*
D13*
%TO.P,RV3,2,2*%
%TO.N,Net-(R3-Pad1)*%
X84074000Y-115824000D03*
%TO.P,RV3,3,3*%
%TO.N,Net-(J3-PadT)*%
X86574000Y-115824000D03*
%TD*%
D11*
%TO.P,RV4,*%
%TO.N,*%
X79324000Y-133724000D03*
X88824000Y-133724000D03*
D12*
%TO.P,RV4,1,1*%
%TO.N,GND*%
X81574000Y-141224000D03*
D13*
%TO.P,RV4,2,2*%
%TO.N,Net-(C4-Pad1)*%
X84074000Y-141224000D03*
%TO.P,RV4,3,3*%
%TO.N,left_mix*%
X86574000Y-141224000D03*
%TO.P,RV4,4,4*%
%TO.N,GND*%
X81574000Y-143724000D03*
%TO.P,RV4,5,5*%
%TO.N,Net-(C6-Pad1)*%
X84074000Y-143724000D03*
%TO.P,RV4,6,6*%
%TO.N,right_mix*%
X86574000Y-143724000D03*
%TD*%
D12*
%TO.P,D5,1,K*%
%TO.N,GND*%
X103505000Y-124714000D03*
D13*
%TO.P,D5,2,A*%
%TO.N,Net-(D5-A)*%
X103505000Y-122174000D03*
%TD*%
D12*
%TO.P,D12,1,K*%
%TO.N,GND*%
X90043000Y-124714000D03*
D13*
%TO.P,D12,2,A*%
%TO.N,Net-(D12-A)*%
X90043000Y-122174000D03*
%TD*%
D12*
%TO.P,D7,1,K*%
%TO.N,GND*%
X115443000Y-124714000D03*
D13*
%TO.P,D7,2,A*%
%TO.N,Net-(D7-A)*%
X115443000Y-122174000D03*
%TD*%
D12*
%TO.P,D6,1,K*%
%TO.N,GND*%
X109474000Y-124714000D03*
D13*
%TO.P,D6,2,A*%
%TO.N,Net-(D6-A)*%
X109474000Y-122174000D03*
%TD*%
D14*
%TO.P,J4,1,Pin_1*%
%TO.N,left_out*%
X109362000Y-147955000D03*
D15*
%TO.P,J4,2,Pin_2*%
%TO.N,right_out*%
X111902000Y-147955000D03*
%TO.P,J4,3,Pin_3*%
%TO.N,GND*%
X114442000Y-147955000D03*
%TD*%
D12*
%TO.P,J6,1,-12V*%
%TO.N,-12V*%
X97790000Y-75565000D03*
D16*
%TO.P,J6,2,-12V*%
X95250000Y-75565000D03*
%TO.P,J6,3,gnd*%
%TO.N,GND*%
X97790000Y-73025000D03*
%TO.P,J6,4,gnd*%
X95250000Y-73025000D03*
%TO.P,J6,5,gnd*%
X97790000Y-70485000D03*
%TO.P,J6,6,gnd*%
X95250000Y-70485000D03*
%TO.P,J6,7,gnd*%
X97790000Y-67945000D03*
%TO.P,J6,8,gnd*%
X95250000Y-67945000D03*
%TO.P,J6,9,+12V*%
%TO.N,+12V*%
X97790000Y-65405000D03*
%TO.P,J6,10,+12V*%
X95250000Y-65405000D03*
%TO.P,J6,11,+5V*%
%TO.N,+5V*%
X97790000Y-62865000D03*
%TO.P,J6,12,+5V*%
X95250000Y-62865000D03*
%TO.P,J6,13,cv*%
%TO.N,unconnected-(J6-cv-Pad13)*%
X97790000Y-60325000D03*
%TO.P,J6,14,cv*%
%TO.N,unconnected-(J6-cv-Pad14)*%
X95252858Y-60325000D03*
%TO.P,J6,15,gate*%
%TO.N,unconnected-(J6-gate-Pad15)*%
X97790000Y-57785000D03*
%TO.P,J6,16,gate*%
%TO.N,unconnected-(J6-gate-Pad16)*%
X95250000Y-57785000D03*
%TD*%
D17*
%TO.P,C6,1*%
%TO.N,Net-(C6-Pad1)*%
X92242000Y-131445000D03*
%TO.P,C6,2*%
%TO.N,Net-(U2-INR+)*%
X97242000Y-131445000D03*
%TD*%
%TO.P,C7,1*%
%TO.N,GND*%
X92242000Y-136779000D03*
%TO.P,C7,2*%
%TO.N,Net-(U2-INR-)*%
X97242000Y-136779000D03*
%TD*%
%TO.P,C5,1*%
%TO.N,GND*%
X76327000Y-138470000D03*
%TO.P,C5,2*%
%TO.N,Net-(U2-INL-)*%
X76327000Y-143470000D03*
%TD*%
%TO.P,C4,1*%
%TO.N,Net-(C4-Pad1)*%
X75859000Y-147701000D03*
%TO.P,C4,2*%
%TO.N,Net-(U2-INL+)*%
X80859000Y-147701000D03*
%TD*%
D18*
%TO.N,chan_1_right*%
X109791500Y-93535500D03*
%TO.N,+5V*%
X96393000Y-145034000D03*
%TO.N,GND*%
X97536000Y-140589000D03*
%TO.N,SHDN*%
X90297000Y-136398000D03*
X91821000Y-149098000D03*
%TO.N,+5V*%
X95504000Y-149225000D03*
X90487500Y-147637500D03*
%TO.N,GND*%
X87376000Y-147701000D03*
X90907022Y-145702500D03*
X97282000Y-148082000D03*
X93218000Y-142113000D03*
X89154000Y-142113000D03*
%TO.N,Net-(J3-PadT)*%
X78232000Y-157861000D03*
%TO.N,Net-(J2-PadT)*%
X90297000Y-115189000D03*
X98044000Y-115316000D03*
%TO.N,Net-(J1-PadT)*%
X74676000Y-63754000D03*
%TO.N,Net-(C6-Pad1)*%
X82804000Y-131572000D03*
%TO.N,GND*%
X83528500Y-137531306D03*
%TO.N,+5V*%
X84963000Y-133223000D03*
%TO.N,chan_3_left*%
X91313000Y-112776000D03*
X90805000Y-91821000D03*
%TO.N,GND*%
X97282000Y-89154000D03*
%TO.N,Net-(D10-K)*%
X79121000Y-116586000D03*
X79121000Y-113030000D03*
%TO.N,chan_3*%
X88332799Y-112200201D03*
X87503000Y-74168000D03*
%TO.N,left_mix*%
X85471000Y-98679000D03*
X85344000Y-88265000D03*
%TO.N,chan_2_left*%
X108077000Y-94488000D03*
%TO.N,chan_1_left*%
X106934000Y-88646000D03*
%TO.N,GND*%
X104214783Y-94958500D03*
%TO.N,right_mix*%
X105029000Y-99314000D03*
X106229506Y-85232191D03*
%TO.N,chan_3_right*%
X112014000Y-93091000D03*
%TO.N,Net-(D3-A)*%
X110998000Y-111887000D03*
X110871000Y-97917000D03*
%TO.N,GND*%
X100893577Y-108566412D03*
%TO.N,+12V*%
X109474000Y-106172000D03*
X109691088Y-99911500D03*
%TO.N,GND*%
X117221000Y-103632000D03*
X118872000Y-98298000D03*
%TO.N,Net-(D10-A)*%
X81153000Y-96647000D03*
X80772000Y-110236000D03*
%TO.N,left_peak*%
X82677000Y-97917000D03*
X83058000Y-100472000D03*
%TO.N,+5V*%
X96647000Y-104902000D03*
%TO.N,GND*%
X90043000Y-106299000D03*
X90297000Y-103886000D03*
X90170000Y-102235000D03*
X92202000Y-99441000D03*
X73459500Y-98368452D03*
X74908500Y-93912201D03*
X88523500Y-95504000D03*
%TO.N,Net-(D8-A)*%
X90406000Y-97872000D03*
X89789000Y-100330000D03*
%TO.N,+12V*%
X84455001Y-99371502D03*
X84455000Y-95504000D03*
%TO.N,Net-(R2-Pad1)*%
X84709000Y-75311000D03*
%TO.N,chan_1*%
X117983000Y-65024000D03*
X117094000Y-78359000D03*
%TO.N,chan_2*%
X92964000Y-80010000D03*
X92964000Y-68834000D03*
%TO.N,+12V*%
X94488000Y-106299000D03*
X93345000Y-94488000D03*
X94099520Y-84589480D03*
%TO.N,-12V*%
X97994498Y-84201000D03*
X98044000Y-95631000D03*
%TO.N,GND*%
X98806000Y-102997000D03*
X98679000Y-101219000D03*
X103759000Y-99314000D03*
X91643200Y-81762600D03*
X101752400Y-81407000D03*
X95820998Y-83344360D03*
X97280277Y-83394841D03*
X82448400Y-72872600D03*
X79959200Y-76631800D03*
X87913500Y-78394689D03*
X87426800Y-73025000D03*
X82702400Y-71094600D03*
%TO.N,+12V*%
X81613791Y-71827912D03*
X81584800Y-76276200D03*
X81584800Y-67437000D03*
%TO.N,+5V*%
X92160525Y-104715466D03*
X116460207Y-99925327D03*
X87376000Y-61696600D03*
%TO.N,Net-(R3-Pad1)*%
X76454000Y-114173000D03*
X76454000Y-72110600D03*
%TO.N,Net-(R1-Pad1)*%
X78333600Y-72720200D03*
X78333600Y-66471800D03*
%TO.N,GND*%
X113563400Y-71170800D03*
X109474000Y-53873400D03*
X84074000Y-54025800D03*
%TD*%
D19*
%TO.N,right_mix*%
X102761975Y-101581025D02*
X105029000Y-99314000D01*
X87139000Y-132766050D02*
X87799000Y-132106050D01*
X87139000Y-134681950D02*
X87139000Y-132766050D01*
X87799000Y-135341950D02*
X87139000Y-134681950D01*
X87799000Y-122685588D02*
X102761975Y-107722613D01*
X102761975Y-107722613D02*
X102761975Y-101581025D01*
X87799000Y-142499000D02*
X87799000Y-135341950D01*
X87799000Y-132106050D02*
X87799000Y-122685588D01*
X86574000Y-143724000D02*
X87799000Y-142499000D01*
%TO.N,chan_1_right*%
X110749000Y-92578000D02*
X109791500Y-93535500D01*
X110749000Y-66249000D02*
X110749000Y-92578000D01*
X111974000Y-65024000D02*
X110749000Y-66249000D01*
%TO.N,chan_2_left*%
X106974000Y-93385000D02*
X108077000Y-94488000D01*
X106974000Y-90424000D02*
X106974000Y-93385000D01*
%TO.N,Net-(J1-PadT)*%
X75057000Y-155194000D02*
X75184000Y-155194000D01*
X74184000Y-154321000D02*
X75057000Y-155194000D01*
%TO.N,Net-(J2-PadT)*%
X99822000Y-153322000D02*
X101694000Y-155194000D01*
X99822000Y-117094000D02*
X99822000Y-153322000D01*
%TO.N,SHDN*%
X91821000Y-137948991D02*
X90297000Y-136424991D01*
X91821000Y-149098000D02*
X91821000Y-137948991D01*
X90297000Y-136424991D02*
X90297000Y-136398000D01*
%TO.N,Net-(J2-PadT)*%
X99822000Y-117094000D02*
X98044000Y-115316000D01*
%TO.N,Net-(J3-PadT)*%
X78229000Y-157858000D02*
X78232000Y-157861000D01*
X78229000Y-142119000D02*
X78229000Y-157858000D01*
X81788000Y-138560000D02*
X78229000Y-142119000D01*
X81788000Y-127254000D02*
X81788000Y-138560000D01*
X81788000Y-120610000D02*
X81788000Y-127254000D01*
X86574000Y-115824000D02*
X81788000Y-120610000D01*
%TO.N,Net-(J2-PadT)*%
X86574000Y-111466000D02*
X86574000Y-90424000D01*
%TO.N,chan_3*%
X87189000Y-111056402D02*
X88332799Y-112200201D01*
X87189000Y-107366050D02*
X87189000Y-111056402D01*
X87799000Y-106756050D02*
X87189000Y-107366050D01*
X87799000Y-89916588D02*
X87799000Y-106756050D01*
X87189000Y-89306588D02*
X87799000Y-89916588D01*
X87189000Y-74482000D02*
X87189000Y-89306588D01*
X87503000Y-74168000D02*
X87189000Y-74482000D01*
%TO.N,Net-(J2-PadT)*%
X90297000Y-115189000D02*
X86574000Y-111466000D01*
%TO.N,Net-(J1-PadT)*%
X74184000Y-64246000D02*
X74676000Y-63754000D01*
%TO.N,Net-(R3-Pad1)*%
X77665501Y-93912189D02*
X76454000Y-95123690D01*
X77665501Y-93285811D02*
X77665501Y-93912189D01*
X76454000Y-72110600D02*
X76454000Y-92074310D01*
X76454000Y-92074310D02*
X77665501Y-93285811D01*
%TO.N,Net-(J1-PadT)*%
X74184000Y-154321000D02*
X74184000Y-64246000D01*
%TO.N,Net-(R3-Pad1)*%
X76454000Y-95123690D02*
X76454000Y-114173000D01*
%TO.N,Net-(C6-Pad1)*%
X82804000Y-142454000D02*
X82804000Y-131572000D01*
X84074000Y-143724000D02*
X82804000Y-142454000D01*
%TO.N,+12V*%
X84455000Y-99371501D02*
X84455001Y-99371502D01*
X84455000Y-95504000D02*
X84455000Y-99371501D01*
%TO.N,left_mix*%
X85471000Y-111760000D02*
X85471000Y-98679000D01*
X87799000Y-114088000D02*
X85471000Y-111760000D01*
X87799000Y-116331412D02*
X87799000Y-114088000D01*
X86574000Y-117556412D02*
X87799000Y-116331412D01*
X86574000Y-141224000D02*
X86574000Y-117556412D01*
%TO.N,chan_3_left*%
X91435525Y-112653475D02*
X91313000Y-112776000D01*
X90805000Y-91821000D02*
X91435525Y-92451525D01*
X91435525Y-92451525D02*
X91435525Y-112653475D01*
%TO.N,Net-(D10-K)*%
X79121000Y-113030000D02*
X79121000Y-116586000D01*
%TO.N,left_mix*%
X85344000Y-98552000D02*
X85471000Y-98679000D01*
X85344000Y-88265000D02*
X85344000Y-98552000D01*
%TO.N,chan_1_left*%
X106954006Y-88625994D02*
X106934000Y-88646000D01*
X106954006Y-65043994D02*
X106954006Y-88625994D01*
X106974000Y-65024000D02*
X106954006Y-65043994D01*
%TO.N,right_mix*%
X105029000Y-99314000D02*
X105749000Y-98594000D01*
X105749000Y-98594000D02*
X105749000Y-85712697D01*
X105749000Y-85712697D02*
X106229506Y-85232191D01*
%TO.N,chan_3_right*%
X111974000Y-93131000D02*
X112014000Y-93091000D01*
X111974000Y-115824000D02*
X111974000Y-93131000D01*
%TO.N,Net-(D3-A)*%
X110871000Y-97917000D02*
X110871000Y-111760000D01*
X110871000Y-111760000D02*
X110998000Y-111887000D01*
%TO.N,+12V*%
X109474000Y-100128588D02*
X109691088Y-99911500D01*
X109474000Y-106172000D02*
X109474000Y-100128588D01*
%TO.N,Net-(D10-A)*%
X81153000Y-109855000D02*
X80772000Y-110236000D01*
X81153000Y-96647000D02*
X81153000Y-109855000D01*
%TO.N,left_peak*%
X83058000Y-98298000D02*
X82677000Y-97917000D01*
X83058000Y-100472000D02*
X83058000Y-98298000D01*
%TO.N,Net-(D8-A)*%
X89789000Y-98489000D02*
X90406000Y-97872000D01*
X89789000Y-100330000D02*
X89789000Y-98489000D01*
%TO.N,Net-(R2-Pad1)*%
X84074000Y-75946000D02*
X84709000Y-75311000D01*
X84074000Y-90424000D02*
X84074000Y-75946000D01*
%TO.N,chan_1*%
X117094000Y-65913000D02*
X117983000Y-65024000D01*
X117094000Y-78359000D02*
X117094000Y-65913000D01*
%TO.N,chan_2*%
X92964000Y-68834000D02*
X92964000Y-80010000D01*
%TO.N,-12V*%
X98044000Y-83133966D02*
X98044000Y-95631000D01*
X97790000Y-75565000D02*
X97790000Y-82879966D01*
X97790000Y-82879966D02*
X98044000Y-83133966D01*
%TO.N,+12V*%
X94488000Y-95631000D02*
X94488000Y-106299000D01*
X93345000Y-94488000D02*
X94488000Y-95631000D01*
X94099520Y-93733480D02*
X93345000Y-94488000D01*
X94099520Y-84589480D02*
X94099520Y-93733480D01*
X94025000Y-84514960D02*
X94099520Y-84589480D01*
X95250000Y-65405000D02*
X94025000Y-66630000D01*
X94025000Y-66630000D02*
X94025000Y-84514960D01*
X81584800Y-67437000D02*
X81584800Y-71798921D01*
X81584800Y-71856903D02*
X81613791Y-71827912D01*
X81584800Y-76276200D02*
X81584800Y-71856903D01*
X81584800Y-71798921D02*
X81613791Y-71827912D01*
%TO.N,Net-(R1-Pad1)*%
X78333600Y-66624200D02*
X78333600Y-66471800D01*
X78333600Y-72720200D02*
X78333600Y-66624200D01*
%TD*%
M02*
