%TF.GenerationSoftware,KiCad,Pcbnew,7.0.1*%
%TF.CreationDate,2024-09-15T16:09:11-04:00*%
%TF.ProjectId,output module,6f757470-7574-4206-9d6f-64756c652e6b,A*%
%TF.SameCoordinates,Original*%
%TF.FileFunction,Copper,L4,Bot*%
%TF.FilePolarity,Positive*%
%FSLAX46Y46*%
G04 Gerber Fmt 4.6, Leading zero omitted, Abs format (unit mm)*
G04 Created by KiCad (PCBNEW 7.0.1) date 2024-09-15 16:09:11*
%MOMM*%
%LPD*%
G01*
G04 APERTURE LIST*
G04 Aperture macros list*
%AMRoundRect*
0 Rectangle with rounded corners*
0 $1 Rounding radius*
0 $2 $3 $4 $5 $6 $7 $8 $9 X,Y pos of 4 corners*
0 Add a 4 corners polygon primitive as box body*
4,1,4,$2,$3,$4,$5,$6,$7,$8,$9,$2,$3,0*
0 Add four circle primitives for the rounded corners*
1,1,$1+$1,$2,$3*
1,1,$1+$1,$4,$5*
1,1,$1+$1,$6,$7*
1,1,$1+$1,$8,$9*
0 Add four rect primitives between the rounded corners*
20,1,$1+$1,$2,$3,$4,$5,0*
20,1,$1+$1,$4,$5,$6,$7,0*
20,1,$1+$1,$6,$7,$8,$9,0*
20,1,$1+$1,$8,$9,$2,$3,0*%
G04 Aperture macros list end*
%TA.AperFunction,SMDPad,CuDef*%
%ADD10RoundRect,0.062500X-0.350000X-0.062500X0.350000X-0.062500X0.350000X0.062500X-0.350000X0.062500X0*%
%TD*%
%TA.AperFunction,SMDPad,CuDef*%
%ADD11RoundRect,0.062500X-0.062500X-0.350000X0.062500X-0.350000X0.062500X0.350000X-0.062500X0.350000X0*%
%TD*%
%TA.AperFunction,SMDPad,CuDef*%
%ADD12R,1.230000X1.230000*%
%TD*%
%TA.AperFunction,ComponentPad*%
%ADD13C,2.000000*%
%TD*%
%TA.AperFunction,SMDPad,CuDef*%
%ADD14RoundRect,0.225000X-0.250000X0.225000X-0.250000X-0.225000X0.250000X-0.225000X0.250000X0.225000X0*%
%TD*%
%TA.AperFunction,ComponentPad*%
%ADD15O,2.720000X3.240000*%
%TD*%
%TA.AperFunction,ComponentPad*%
%ADD16R,1.800000X1.800000*%
%TD*%
%TA.AperFunction,ComponentPad*%
%ADD17C,1.800000*%
%TD*%
%TA.AperFunction,SMDPad,CuDef*%
%ADD18RoundRect,0.200000X0.200000X0.275000X-0.200000X0.275000X-0.200000X-0.275000X0.200000X-0.275000X0*%
%TD*%
%TA.AperFunction,ComponentPad*%
%ADD19R,1.700000X1.700000*%
%TD*%
%TA.AperFunction,ComponentPad*%
%ADD20O,1.700000X1.700000*%
%TD*%
%TA.AperFunction,SMDPad,CuDef*%
%ADD21RoundRect,0.200000X-0.200000X-0.275000X0.200000X-0.275000X0.200000X0.275000X-0.200000X0.275000X0*%
%TD*%
%TA.AperFunction,SMDPad,CuDef*%
%ADD22RoundRect,0.200000X0.275000X-0.200000X0.275000X0.200000X-0.275000X0.200000X-0.275000X-0.200000X0*%
%TD*%
%TA.AperFunction,SMDPad,CuDef*%
%ADD23RoundRect,0.112500X0.112500X-0.187500X0.112500X0.187500X-0.112500X0.187500X-0.112500X-0.187500X0*%
%TD*%
%TA.AperFunction,ComponentPad*%
%ADD24O,1.800000X1.800000*%
%TD*%
%TA.AperFunction,SMDPad,CuDef*%
%ADD25RoundRect,0.100000X0.100000X-0.637500X0.100000X0.637500X-0.100000X0.637500X-0.100000X-0.637500X0*%
%TD*%
%TA.AperFunction,SMDPad,CuDef*%
%ADD26RoundRect,0.250000X0.312500X1.075000X-0.312500X1.075000X-0.312500X-1.075000X0.312500X-1.075000X0*%
%TD*%
%TA.AperFunction,SMDPad,CuDef*%
%ADD27RoundRect,0.200000X-0.275000X0.200000X-0.275000X-0.200000X0.275000X-0.200000X0.275000X0.200000X0*%
%TD*%
%TA.AperFunction,SMDPad,CuDef*%
%ADD28RoundRect,0.225000X0.225000X0.250000X-0.225000X0.250000X-0.225000X-0.250000X0.225000X-0.250000X0*%
%TD*%
%TA.AperFunction,SMDPad,CuDef*%
%ADD29RoundRect,0.250000X-0.550000X1.250000X-0.550000X-1.250000X0.550000X-1.250000X0.550000X1.250000X0*%
%TD*%
%TA.AperFunction,SMDPad,CuDef*%
%ADD30RoundRect,0.225000X0.250000X-0.225000X0.250000X0.225000X-0.250000X0.225000X-0.250000X-0.225000X0*%
%TD*%
%TA.AperFunction,ComponentPad*%
%ADD31C,1.600000*%
%TD*%
%TA.AperFunction,SMDPad,CuDef*%
%ADD32RoundRect,0.225000X-0.225000X-0.250000X0.225000X-0.250000X0.225000X0.250000X-0.225000X0.250000X0*%
%TD*%
%TA.AperFunction,SMDPad,CuDef*%
%ADD33RoundRect,0.100000X-0.637500X-0.100000X0.637500X-0.100000X0.637500X0.100000X-0.637500X0.100000X0*%
%TD*%
%TA.AperFunction,SMDPad,CuDef*%
%ADD34RoundRect,0.250000X0.550000X-1.250000X0.550000X1.250000X-0.550000X1.250000X-0.550000X-1.250000X0*%
%TD*%
%TA.AperFunction,SMDPad,CuDef*%
%ADD35RoundRect,0.100000X0.637500X0.100000X-0.637500X0.100000X-0.637500X-0.100000X0.637500X-0.100000X0*%
%TD*%
%TA.AperFunction,SMDPad,CuDef*%
%ADD36RoundRect,0.112500X0.187500X0.112500X-0.187500X0.112500X-0.187500X-0.112500X0.187500X-0.112500X0*%
%TD*%
%TA.AperFunction,ViaPad*%
%ADD37C,0.800000*%
%TD*%
%TA.AperFunction,Conductor*%
%ADD38C,0.250000*%
%TD*%
G04 APERTURE END LIST*
D10*
%TO.P,U2,1,PVDD*%
%TO.N,+5V*%
X92288500Y-146927000D03*
%TO.P,U2,2,C1P*%
%TO.N,Net-(U2-C1P)*%
X92288500Y-146427000D03*
%TO.P,U2,3,PGND*%
%TO.N,GND*%
X92288500Y-145927000D03*
%TO.P,U2,4,C1N*%
%TO.N,Net-(U2-C1N)*%
X92288500Y-145427000D03*
D11*
%TO.P,U2,5,PVSS*%
%TO.N,Net-(U2-PVSS)*%
X92976000Y-144739500D03*
%TO.P,U2,6,SGND*%
%TO.N,GND*%
X93476000Y-144739500D03*
%TO.P,U2,7,INR+*%
%TO.N,Net-(U2-INR+)*%
X93976000Y-144739500D03*
%TO.P,U2,8,INR-*%
%TO.N,Net-(U2-INR-)*%
X94476000Y-144739500D03*
D10*
%TO.P,U2,9,SVDD2*%
%TO.N,+5V*%
X95163500Y-145427000D03*
%TO.P,U2,10,OUTR*%
%TO.N,right_out*%
X95163500Y-145927000D03*
%TO.P,U2,11,BIAS*%
%TO.N,Net-(U2-BIAS)*%
X95163500Y-146427000D03*
%TO.P,U2,12,OUTL*%
%TO.N,left_out*%
X95163500Y-146927000D03*
D11*
%TO.P,U2,13,SVDD*%
%TO.N,+5V*%
X94476000Y-147614500D03*
%TO.P,U2,14,INL-*%
%TO.N,Net-(U2-INL-)*%
X93976000Y-147614500D03*
%TO.P,U2,15,INL+*%
%TO.N,Net-(U2-INL+)*%
X93476000Y-147614500D03*
%TO.P,U2,16,SHDN*%
%TO.N,SHDN*%
X92976000Y-147614500D03*
D12*
%TO.P,U2,17*%
%TO.N,N/C*%
X93726000Y-146177000D03*
%TD*%
D13*
%TO.P,J3,TN*%
%TO.N,unconnected-(J3-PadTN)*%
X110191000Y-155194000D03*
%TO.P,J3,T*%
%TO.N,Net-(J3-PadT)*%
X118491000Y-155194000D03*
%TO.P,J3,S*%
%TO.N,GND*%
X107091000Y-155194000D03*
%TD*%
%TO.P,J1,TN*%
%TO.N,unconnected-(J1-PadTN)*%
X83484000Y-155194000D03*
%TO.P,J1,T*%
%TO.N,Net-(J1-PadT)*%
X75184000Y-155194000D03*
%TO.P,J1,S*%
%TO.N,GND*%
X86584000Y-155194000D03*
%TD*%
%TO.P,J2,TN*%
%TO.N,unconnected-(J2-PadTN)*%
X93394000Y-155194000D03*
%TO.P,J2,T*%
%TO.N,Net-(J2-PadT)*%
X101694000Y-155194000D03*
%TO.P,J2,S*%
%TO.N,GND*%
X90294000Y-155194000D03*
%TD*%
D14*
%TO.P,C11,1*%
%TO.N,Net-(U2-BIAS)*%
X98933000Y-146418000D03*
%TO.P,C11,2*%
%TO.N,GND*%
X98933000Y-147968000D03*
%TD*%
D15*
%TO.P,RV2,*%
%TO.N,*%
X79274000Y-82924000D03*
X88874000Y-82924000D03*
D16*
%TO.P,RV2,1,1*%
%TO.N,GND*%
X81574000Y-90424000D03*
D17*
%TO.P,RV2,2,2*%
%TO.N,Net-(R2-Pad1)*%
X84074000Y-90424000D03*
%TO.P,RV2,3,3*%
%TO.N,Net-(J2-PadT)*%
X86574000Y-90424000D03*
%TD*%
D15*
%TO.P,RV6,*%
%TO.N,*%
X104674000Y-82924000D03*
X114274000Y-82924000D03*
D16*
%TO.P,RV6,1,1*%
%TO.N,chan_2_left*%
X106974000Y-90424000D03*
D17*
%TO.P,RV6,2,2*%
%TO.N,GND*%
X109474000Y-90424000D03*
%TO.P,RV6,3,3*%
%TO.N,chan_2_right*%
X111974000Y-90424000D03*
%TD*%
D16*
%TO.P,D14,1,K*%
%TO.N,GND*%
X78105000Y-124714000D03*
D17*
%TO.P,D14,2,A*%
%TO.N,Net-(D14-A)*%
X78105000Y-122174000D03*
%TD*%
D15*
%TO.P,RV1,*%
%TO.N,*%
X79274000Y-57524000D03*
X88874000Y-57524000D03*
D16*
%TO.P,RV1,1,1*%
%TO.N,GND*%
X81574000Y-65024000D03*
D17*
%TO.P,RV1,2,2*%
%TO.N,Net-(R1-Pad1)*%
X84074000Y-65024000D03*
%TO.P,RV1,3,3*%
%TO.N,Net-(J1-PadT)*%
X86574000Y-65024000D03*
%TD*%
D16*
%TO.P,D13,1,K*%
%TO.N,GND*%
X84074000Y-124714000D03*
D17*
%TO.P,D13,2,A*%
%TO.N,Net-(D13-A)*%
X84074000Y-122174000D03*
%TD*%
D15*
%TO.P,RV5,*%
%TO.N,*%
X104674000Y-57524000D03*
X114274000Y-57524000D03*
D16*
%TO.P,RV5,1,1*%
%TO.N,chan_1_left*%
X106974000Y-65024000D03*
D17*
%TO.P,RV5,2,2*%
%TO.N,GND*%
X109474000Y-65024000D03*
%TO.P,RV5,3,3*%
%TO.N,chan_1_right*%
X111974000Y-65024000D03*
%TD*%
D15*
%TO.P,RV7,*%
%TO.N,*%
X104674000Y-108324000D03*
X114274000Y-108324000D03*
D16*
%TO.P,RV7,1,1*%
%TO.N,chan_3_left*%
X106974000Y-115824000D03*
D17*
%TO.P,RV7,2,2*%
%TO.N,GND*%
X109474000Y-115824000D03*
%TO.P,RV7,3,3*%
%TO.N,chan_3_right*%
X111974000Y-115824000D03*
%TD*%
D15*
%TO.P,RV3,*%
%TO.N,*%
X79274000Y-108324000D03*
X88874000Y-108324000D03*
D16*
%TO.P,RV3,1,1*%
%TO.N,GND*%
X81574000Y-115824000D03*
D17*
%TO.P,RV3,2,2*%
%TO.N,Net-(R3-Pad1)*%
X84074000Y-115824000D03*
%TO.P,RV3,3,3*%
%TO.N,Net-(J3-PadT)*%
X86574000Y-115824000D03*
%TD*%
D15*
%TO.P,RV4,*%
%TO.N,*%
X79324000Y-133724000D03*
X88824000Y-133724000D03*
D16*
%TO.P,RV4,1,1*%
%TO.N,GND*%
X81574000Y-141224000D03*
D17*
%TO.P,RV4,2,2*%
%TO.N,Net-(C4-Pad1)*%
X84074000Y-141224000D03*
%TO.P,RV4,3,3*%
%TO.N,left_mix*%
X86574000Y-141224000D03*
%TO.P,RV4,4,4*%
%TO.N,GND*%
X81574000Y-143724000D03*
%TO.P,RV4,5,5*%
%TO.N,Net-(C6-Pad1)*%
X84074000Y-143724000D03*
%TO.P,RV4,6,6*%
%TO.N,right_mix*%
X86574000Y-143724000D03*
%TD*%
D16*
%TO.P,D5,1,K*%
%TO.N,GND*%
X103505000Y-124714000D03*
D17*
%TO.P,D5,2,A*%
%TO.N,Net-(D5-A)*%
X103505000Y-122174000D03*
%TD*%
D16*
%TO.P,D12,1,K*%
%TO.N,GND*%
X90043000Y-124714000D03*
D17*
%TO.P,D12,2,A*%
%TO.N,Net-(D12-A)*%
X90043000Y-122174000D03*
%TD*%
D16*
%TO.P,D7,1,K*%
%TO.N,GND*%
X115443000Y-124714000D03*
D17*
%TO.P,D7,2,A*%
%TO.N,Net-(D7-A)*%
X115443000Y-122174000D03*
%TD*%
D16*
%TO.P,D6,1,K*%
%TO.N,GND*%
X109474000Y-124714000D03*
D17*
%TO.P,D6,2,A*%
%TO.N,Net-(D6-A)*%
X109474000Y-122174000D03*
%TD*%
D18*
%TO.P,R27,1*%
%TO.N,Net-(U4C--)*%
X102044000Y-107188000D03*
%TO.P,R27,2*%
%TO.N,GND*%
X100394000Y-107188000D03*
%TD*%
D19*
%TO.P,J4,1,Pin_1*%
%TO.N,left_out*%
X109362000Y-147955000D03*
D20*
%TO.P,J4,2,Pin_2*%
%TO.N,right_out*%
X111902000Y-147955000D03*
%TO.P,J4,3,Pin_3*%
%TO.N,GND*%
X114442000Y-147955000D03*
%TD*%
D21*
%TO.P,R26,1*%
%TO.N,GND*%
X100419400Y-98425000D03*
%TO.P,R26,2*%
%TO.N,Net-(U4D--)*%
X102069400Y-98425000D03*
%TD*%
D22*
%TO.P,R16,1*%
%TO.N,chan_2_left*%
X94234000Y-91896000D03*
%TO.P,R16,2*%
%TO.N,Net-(U5B--)*%
X94234000Y-90246000D03*
%TD*%
%TO.P,R19,1*%
%TO.N,chan_2_right*%
X100965000Y-91884000D03*
%TO.P,R19,2*%
%TO.N,Net-(U5A--)*%
X100965000Y-90234000D03*
%TD*%
D18*
%TO.P,R39,1*%
%TO.N,Net-(U3C--)*%
X78041000Y-100584000D03*
%TO.P,R39,2*%
%TO.N,GND*%
X76391000Y-100584000D03*
%TD*%
D23*
%TO.P,D4,1,K*%
%TO.N,Net-(D4-K)*%
X107188000Y-113191000D03*
%TO.P,D4,2,A*%
%TO.N,Net-(D4-A)*%
X107188000Y-111091000D03*
%TD*%
D16*
%TO.P,J6,1,-12V*%
%TO.N,-12V*%
X97790000Y-75565000D03*
D24*
%TO.P,J6,2,-12V*%
X95250000Y-75565000D03*
%TO.P,J6,3,gnd*%
%TO.N,GND*%
X97790000Y-73025000D03*
%TO.P,J6,4,gnd*%
X95250000Y-73025000D03*
%TO.P,J6,5,gnd*%
X97790000Y-70485000D03*
%TO.P,J6,6,gnd*%
X95250000Y-70485000D03*
%TO.P,J6,7,gnd*%
X97790000Y-67945000D03*
%TO.P,J6,8,gnd*%
X95250000Y-67945000D03*
%TO.P,J6,9,+12V*%
%TO.N,+12V*%
X97790000Y-65405000D03*
%TO.P,J6,10,+12V*%
X95250000Y-65405000D03*
%TO.P,J6,11,+5V*%
%TO.N,+5V*%
X97790000Y-62865000D03*
%TO.P,J6,12,+5V*%
X95250000Y-62865000D03*
%TO.P,J6,13,cv*%
%TO.N,unconnected-(J6-cv-Pad13)*%
X97790000Y-60325000D03*
%TO.P,J6,14,cv*%
%TO.N,unconnected-(J6-cv-Pad14)*%
X95252858Y-60325000D03*
%TO.P,J6,15,gate*%
%TO.N,unconnected-(J6-gate-Pad15)*%
X97790000Y-57785000D03*
%TO.P,J6,16,gate*%
%TO.N,unconnected-(J6-gate-Pad16)*%
X95250000Y-57785000D03*
%TD*%
D21*
%TO.P,R46,1*%
%TO.N,GND*%
X91377000Y-103886000D03*
%TO.P,R46,2*%
%TO.N,left_peak*%
X93027000Y-103886000D03*
%TD*%
D25*
%TO.P,U5,1*%
%TO.N,right_mix*%
X98597000Y-87825500D03*
%TO.P,U5,2,-*%
%TO.N,Net-(U5A--)*%
X97947000Y-87825500D03*
%TO.P,U5,3,+*%
%TO.N,GND*%
X97297000Y-87825500D03*
%TO.P,U5,4,V+*%
%TO.N,+12V*%
X96647000Y-87825500D03*
%TO.P,U5,5,+*%
%TO.N,GND*%
X95997000Y-87825500D03*
%TO.P,U5,6,-*%
%TO.N,Net-(U5B--)*%
X95347000Y-87825500D03*
%TO.P,U5,7*%
%TO.N,left_mix*%
X94697000Y-87825500D03*
%TO.P,U5,8*%
%TO.N,Net-(U5C--)*%
X94697000Y-82100500D03*
%TO.P,U5,9,-*%
X95347000Y-82100500D03*
%TO.P,U5,10,+*%
%TO.N,GND*%
X95997000Y-82100500D03*
%TO.P,U5,11,V-*%
%TO.N,-12V*%
X96647000Y-82100500D03*
%TO.P,U5,12,+*%
%TO.N,GND*%
X97297000Y-82100500D03*
%TO.P,U5,13,-*%
%TO.N,Net-(U5D--)*%
X97947000Y-82100500D03*
%TO.P,U5,14*%
X98597000Y-82100500D03*
%TD*%
D26*
%TO.P,R33,1*%
%TO.N,Net-(D3-K)*%
X116905500Y-119253000D03*
%TO.P,R33,2*%
%TO.N,Net-(D7-A)*%
X113980500Y-119253000D03*
%TD*%
D27*
%TO.P,R11,1*%
%TO.N,chan_2*%
X108458000Y-86170000D03*
%TO.P,R11,2*%
%TO.N,chan_2_left*%
X108458000Y-87820000D03*
%TD*%
D28*
%TO.P,C2,1*%
%TO.N,Net-(U1C--)*%
X90691000Y-72009000D03*
%TO.P,C2,2*%
%TO.N,chan_3*%
X89141000Y-72009000D03*
%TD*%
D26*
%TO.P,R31,1*%
%TO.N,Net-(D4-K)*%
X104967500Y-119253000D03*
%TO.P,R31,2*%
%TO.N,Net-(D5-A)*%
X102042500Y-119253000D03*
%TD*%
D29*
%TO.P,C23,1*%
%TO.N,GND*%
X111810800Y-71129800D03*
%TO.P,C23,2*%
%TO.N,-12V*%
X111810800Y-75529800D03*
%TD*%
D18*
%TO.P,R14,1*%
%TO.N,chan_3*%
X116649000Y-115824000D03*
%TO.P,R14,2*%
%TO.N,chan_3_right*%
X114999000Y-115824000D03*
%TD*%
D23*
%TO.P,D9,1,K*%
%TO.N,Net-(D9-K)*%
X84074000Y-113191000D03*
%TO.P,D9,2,A*%
%TO.N,Net-(D9-A)*%
X84074000Y-111091000D03*
%TD*%
D18*
%TO.P,R8,1*%
%TO.N,SHDN*%
X85026000Y-136495000D03*
%TO.P,R8,2*%
%TO.N,GND*%
X83376000Y-136495000D03*
%TD*%
D22*
%TO.P,R22,1*%
%TO.N,Net-(U5A--)*%
X103124000Y-87693000D03*
%TO.P,R22,2*%
%TO.N,right_mix*%
X103124000Y-86043000D03*
%TD*%
D18*
%TO.P,R7,1*%
%TO.N,+5V*%
X85026000Y-134747000D03*
%TO.P,R7,2*%
%TO.N,SHDN*%
X83376000Y-134747000D03*
%TD*%
%TO.P,R35,1*%
%TO.N,Net-(U3C--)*%
X78041000Y-102235000D03*
%TO.P,R35,2*%
%TO.N,+12V*%
X76391000Y-102235000D03*
%TD*%
%TO.P,R40,1*%
%TO.N,Net-(U3D--)*%
X78041000Y-95631000D03*
%TO.P,R40,2*%
%TO.N,GND*%
X76391000Y-95631000D03*
%TD*%
D30*
%TO.P,C14,1*%
%TO.N,Net-(U5A--)*%
X104775000Y-87643000D03*
%TO.P,C14,2*%
%TO.N,right_mix*%
X104775000Y-86093000D03*
%TD*%
D22*
%TO.P,R20,1*%
%TO.N,chan_3_right*%
X99314000Y-91884000D03*
%TO.P,R20,2*%
%TO.N,Net-(U5A--)*%
X99314000Y-90234000D03*
%TD*%
D30*
%TO.P,C10,1*%
%TO.N,+5V*%
X97028000Y-143396000D03*
%TO.P,C10,2*%
%TO.N,GND*%
X97028000Y-141846000D03*
%TD*%
D18*
%TO.P,R23,1*%
%TO.N,Net-(U4C--)*%
X102044000Y-105537000D03*
%TO.P,R23,2*%
%TO.N,+12V*%
X100394000Y-105537000D03*
%TD*%
D28*
%TO.P,C13,1*%
%TO.N,Net-(U5B--)*%
X90818000Y-86614000D03*
%TO.P,C13,2*%
%TO.N,left_mix*%
X89268000Y-86614000D03*
%TD*%
D18*
%TO.P,R2,1*%
%TO.N,Net-(R2-Pad1)*%
X90741000Y-70231000D03*
%TO.P,R2,2*%
%TO.N,Net-(U1C--)*%
X89091000Y-70231000D03*
%TD*%
D31*
%TO.P,C6,1*%
%TO.N,Net-(C6-Pad1)*%
X92242000Y-131445000D03*
%TO.P,C6,2*%
%TO.N,Net-(U2-INR+)*%
X97242000Y-131445000D03*
%TD*%
%TO.P,C7,1*%
%TO.N,GND*%
X92242000Y-136779000D03*
%TO.P,C7,2*%
%TO.N,Net-(U2-INR-)*%
X97242000Y-136779000D03*
%TD*%
D32*
%TO.P,C24,1*%
%TO.N,+12V*%
X115684000Y-99060000D03*
%TO.P,C24,2*%
%TO.N,GND*%
X117234000Y-99060000D03*
%TD*%
D23*
%TO.P,D11,1,K*%
%TO.N,Net-(D11-K)*%
X86360000Y-113191000D03*
%TO.P,D11,2,A*%
%TO.N,Net-(D11-A)*%
X86360000Y-111091000D03*
%TD*%
D26*
%TO.P,R43,1*%
%TO.N,Net-(D11-K)*%
X91505500Y-119253000D03*
%TO.P,R43,2*%
%TO.N,Net-(D12-A)*%
X88580500Y-119253000D03*
%TD*%
D22*
%TO.P,R18,1*%
%TO.N,chan_1_right*%
X97663000Y-91884000D03*
%TO.P,R18,2*%
%TO.N,Net-(U5A--)*%
X97663000Y-90234000D03*
%TD*%
D21*
%TO.P,R28,1*%
%TO.N,Net-(U4A--)*%
X115634000Y-97409000D03*
%TO.P,R28,2*%
%TO.N,GND*%
X117284000Y-97409000D03*
%TD*%
D27*
%TO.P,R13,1*%
%TO.N,chan_3*%
X104775000Y-111189000D03*
%TO.P,R13,2*%
%TO.N,chan_3_left*%
X104775000Y-112839000D03*
%TD*%
D22*
%TO.P,R17,1*%
%TO.N,chan_3_left*%
X92583000Y-91884000D03*
%TO.P,R17,2*%
%TO.N,Net-(U5B--)*%
X92583000Y-90234000D03*
%TD*%
D18*
%TO.P,R10,1*%
%TO.N,chan_1*%
X116649000Y-65024000D03*
%TO.P,R10,2*%
%TO.N,chan_1_right*%
X114999000Y-65024000D03*
%TD*%
D31*
%TO.P,C5,1*%
%TO.N,GND*%
X76327000Y-138470000D03*
%TO.P,C5,2*%
%TO.N,Net-(U2-INL-)*%
X76327000Y-143470000D03*
%TD*%
D33*
%TO.P,U1,1*%
%TO.N,chan_1*%
X79941500Y-73832000D03*
%TO.P,U1,2,-*%
%TO.N,Net-(U1A--)*%
X79941500Y-73182000D03*
%TO.P,U1,3,+*%
%TO.N,GND*%
X79941500Y-72532000D03*
%TO.P,U1,4,V+*%
%TO.N,+12V*%
X79941500Y-71882000D03*
%TO.P,U1,5,+*%
%TO.N,GND*%
X79941500Y-71232000D03*
%TO.P,U1,6,-*%
%TO.N,Net-(U1B--)*%
X79941500Y-70582000D03*
%TO.P,U1,7*%
%TO.N,chan_2*%
X79941500Y-69932000D03*
%TO.P,U1,8*%
%TO.N,chan_3*%
X85666500Y-69932000D03*
%TO.P,U1,9,-*%
%TO.N,Net-(U1C--)*%
X85666500Y-70582000D03*
%TO.P,U1,10,+*%
%TO.N,GND*%
X85666500Y-71232000D03*
%TO.P,U1,11,V-*%
%TO.N,-12V*%
X85666500Y-71882000D03*
%TO.P,U1,12,+*%
%TO.N,GND*%
X85666500Y-72532000D03*
%TO.P,U1,13,-*%
%TO.N,Net-(U1D--)*%
X85666500Y-73182000D03*
%TO.P,U1,14*%
X85666500Y-73832000D03*
%TD*%
D23*
%TO.P,D2,1,K*%
%TO.N,Net-(D2-K)*%
X109474000Y-113191000D03*
%TO.P,D2,2,A*%
%TO.N,Net-(D2-A)*%
X109474000Y-111091000D03*
%TD*%
D18*
%TO.P,R41,1*%
%TO.N,Net-(U3B--)*%
X93027000Y-107188000D03*
%TO.P,R41,2*%
%TO.N,GND*%
X91377000Y-107188000D03*
%TD*%
D21*
%TO.P,R25,1*%
%TO.N,Net-(U4B--)*%
X115634000Y-100711000D03*
%TO.P,R25,2*%
%TO.N,+5V*%
X117284000Y-100711000D03*
%TD*%
D34*
%TO.P,C21,1*%
%TO.N,+12V*%
X109474000Y-61001000D03*
%TO.P,C21,2*%
%TO.N,GND*%
X109474000Y-56601000D03*
%TD*%
D32*
%TO.P,C25,1*%
%TO.N,GND*%
X105143000Y-94869000D03*
%TO.P,C25,2*%
%TO.N,-12V*%
X106693000Y-94869000D03*
%TD*%
D18*
%TO.P,R38,1*%
%TO.N,GND*%
X93027000Y-98425000D03*
%TO.P,R38,2*%
%TO.N,Net-(U3A--)*%
X91377000Y-98425000D03*
%TD*%
D28*
%TO.P,C9,2*%
%TO.N,GND*%
X90411000Y-142113000D03*
%TO.P,C9,1*%
%TO.N,Net-(U2-PVSS)*%
X91961000Y-142113000D03*
%TD*%
D23*
%TO.P,D3,1,K*%
%TO.N,Net-(D3-K)*%
X111760000Y-113191000D03*
%TO.P,D3,2,A*%
%TO.N,Net-(D3-A)*%
X111760000Y-111091000D03*
%TD*%
D35*
%TO.P,U4,1*%
%TO.N,Net-(D3-A)*%
X112336500Y-97872000D03*
%TO.P,U4,2,-*%
%TO.N,Net-(U4A--)*%
X112336500Y-98522000D03*
%TO.P,U4,3,+*%
%TO.N,right_peak*%
X112336500Y-99172000D03*
%TO.P,U4,4,V+*%
%TO.N,+12V*%
X112336500Y-99822000D03*
%TO.P,U4,5,+*%
%TO.N,right_peak*%
X112336500Y-100472000D03*
%TO.P,U4,6,-*%
%TO.N,Net-(U4B--)*%
X112336500Y-101122000D03*
%TO.P,U4,7*%
%TO.N,Net-(D4-A)*%
X112336500Y-101772000D03*
%TO.P,U4,8*%
%TO.N,Net-(D2-A)*%
X106611500Y-101772000D03*
%TO.P,U4,9,-*%
%TO.N,Net-(U4C--)*%
X106611500Y-101122000D03*
%TO.P,U4,10,+*%
%TO.N,right_peak*%
X106611500Y-100472000D03*
%TO.P,U4,11,V-*%
%TO.N,-12V*%
X106611500Y-99822000D03*
%TO.P,U4,12,+*%
%TO.N,right_mix*%
X106611500Y-99172000D03*
%TO.P,U4,13,-*%
%TO.N,Net-(U4D--)*%
X106611500Y-98522000D03*
%TO.P,U4,14*%
%TO.N,Net-(D1-A)*%
X106611500Y-97872000D03*
%TD*%
D21*
%TO.P,R30,1*%
%TO.N,Net-(U4D--)*%
X100394000Y-96748600D03*
%TO.P,R30,2*%
%TO.N,Net-(D1-A)*%
X102044000Y-96748600D03*
%TD*%
D26*
%TO.P,R44,1*%
%TO.N,Net-(D9-K)*%
X85536500Y-119253000D03*
%TO.P,R44,2*%
%TO.N,Net-(D13-A)*%
X82611500Y-119253000D03*
%TD*%
D34*
%TO.P,C22,1*%
%TO.N,+5V*%
X84074000Y-61255000D03*
%TO.P,C22,2*%
%TO.N,GND*%
X84074000Y-56855000D03*
%TD*%
D28*
%TO.P,C18,1*%
%TO.N,GND*%
X85484000Y-77724000D03*
%TO.P,C18,2*%
%TO.N,-12V*%
X83934000Y-77724000D03*
%TD*%
D27*
%TO.P,R12,1*%
%TO.N,chan_2*%
X112014000Y-86170000D03*
%TO.P,R12,2*%
%TO.N,chan_2_right*%
X112014000Y-87820000D03*
%TD*%
D18*
%TO.P,R5,1*%
%TO.N,Net-(U1C--)*%
X90741000Y-73787000D03*
%TO.P,R5,2*%
%TO.N,chan_3*%
X89091000Y-73787000D03*
%TD*%
D36*
%TO.P,D8,1,K*%
%TO.N,left_peak*%
X93252000Y-100330000D03*
%TO.P,D8,2,A*%
%TO.N,Net-(D8-A)*%
X91152000Y-100330000D03*
%TD*%
D28*
%TO.P,C1,1*%
%TO.N,Net-(U1A--)*%
X77229000Y-76581000D03*
%TO.P,C1,2*%
%TO.N,chan_1*%
X75679000Y-76581000D03*
%TD*%
D21*
%TO.P,R37,1*%
%TO.N,Net-(U3B--)*%
X91377000Y-105537000D03*
%TO.P,R37,2*%
%TO.N,+5V*%
X93027000Y-105537000D03*
%TD*%
D30*
%TO.P,C19,1*%
%TO.N,+12V*%
X91694000Y-84468000D03*
%TO.P,C19,2*%
%TO.N,GND*%
X91694000Y-82918000D03*
%TD*%
D35*
%TO.P,U3,1*%
%TO.N,Net-(D8-A)*%
X86936500Y-97872000D03*
%TO.P,U3,2,-*%
%TO.N,Net-(U3A--)*%
X86936500Y-98522000D03*
%TO.P,U3,3,+*%
%TO.N,left_mix*%
X86936500Y-99172000D03*
%TO.P,U3,4,V+*%
%TO.N,+12V*%
X86936500Y-99822000D03*
%TO.P,U3,5,+*%
%TO.N,left_peak*%
X86936500Y-100472000D03*
%TO.P,U3,6,-*%
%TO.N,Net-(U3B--)*%
X86936500Y-101122000D03*
%TO.P,U3,7*%
%TO.N,Net-(D11-A)*%
X86936500Y-101772000D03*
%TO.P,U3,8*%
%TO.N,Net-(D9-A)*%
X81211500Y-101772000D03*
%TO.P,U3,9,-*%
%TO.N,Net-(U3C--)*%
X81211500Y-101122000D03*
%TO.P,U3,10,+*%
%TO.N,left_peak*%
X81211500Y-100472000D03*
%TO.P,U3,11,V-*%
%TO.N,-12V*%
X81211500Y-99822000D03*
%TO.P,U3,12,+*%
%TO.N,left_peak*%
X81211500Y-99172000D03*
%TO.P,U3,13,-*%
%TO.N,Net-(U3D--)*%
X81211500Y-98522000D03*
%TO.P,U3,14*%
%TO.N,Net-(D10-A)*%
X81211500Y-97872000D03*
%TD*%
D23*
%TO.P,D10,1,K*%
%TO.N,Net-(D10-K)*%
X81788000Y-113191000D03*
%TO.P,D10,2,A*%
%TO.N,Net-(D10-A)*%
X81788000Y-111091000D03*
%TD*%
D18*
%TO.P,R42,1*%
%TO.N,Net-(U3A--)*%
X93027000Y-96901000D03*
%TO.P,R42,2*%
%TO.N,Net-(D8-A)*%
X91377000Y-96901000D03*
%TD*%
D28*
%TO.P,C12,1*%
%TO.N,+5V*%
X89675000Y-148844000D03*
%TO.P,C12,2*%
%TO.N,GND*%
X88125000Y-148844000D03*
%TD*%
D31*
%TO.P,C4,1*%
%TO.N,Net-(C4-Pad1)*%
X75859000Y-147701000D03*
%TO.P,C4,2*%
%TO.N,Net-(U2-INL+)*%
X80859000Y-147701000D03*
%TD*%
D18*
%TO.P,R3,1*%
%TO.N,Net-(R3-Pad1)*%
X77279000Y-71247000D03*
%TO.P,R3,2*%
%TO.N,Net-(U1B--)*%
X75629000Y-71247000D03*
%TD*%
D32*
%TO.P,C27,1*%
%TO.N,GND*%
X76441000Y-98933000D03*
%TO.P,C27,2*%
%TO.N,-12V*%
X77991000Y-98933000D03*
%TD*%
D36*
%TO.P,D1,1,K*%
%TO.N,right_peak*%
X102269000Y-100330000D03*
%TO.P,D1,2,A*%
%TO.N,Net-(D1-A)*%
X100169000Y-100330000D03*
%TD*%
D14*
%TO.P,C20,1*%
%TO.N,GND*%
X101727000Y-82664000D03*
%TO.P,C20,2*%
%TO.N,-12V*%
X101727000Y-84214000D03*
%TD*%
D28*
%TO.P,C17,1*%
%TO.N,+12V*%
X81547000Y-77724000D03*
%TO.P,C17,2*%
%TO.N,GND*%
X79997000Y-77724000D03*
%TD*%
D14*
%TO.P,C8,1*%
%TO.N,Net-(U2-C1N)*%
X89408000Y-144894000D03*
%TO.P,C8,2*%
%TO.N,Net-(U2-C1P)*%
X89408000Y-146444000D03*
%TD*%
D26*
%TO.P,R45,1*%
%TO.N,Net-(D10-K)*%
X79506000Y-119253000D03*
%TO.P,R45,2*%
%TO.N,Net-(D14-A)*%
X76581000Y-119253000D03*
%TD*%
D28*
%TO.P,C16,1*%
%TO.N,left_peak*%
X92977000Y-102235000D03*
%TO.P,C16,2*%
%TO.N,GND*%
X91427000Y-102235000D03*
%TD*%
D21*
%TO.P,R9,1*%
%TO.N,chan_1*%
X102299000Y-65024000D03*
%TO.P,R9,2*%
%TO.N,chan_1_left*%
X103949000Y-65024000D03*
%TD*%
D18*
%TO.P,R6,1*%
%TO.N,Net-(U1B--)*%
X77279000Y-69469000D03*
%TO.P,R6,2*%
%TO.N,chan_2*%
X75629000Y-69469000D03*
%TD*%
D21*
%TO.P,R24,1*%
%TO.N,Net-(U4A--)*%
X115634000Y-95758000D03*
%TO.P,R24,2*%
%TO.N,+12V*%
X117284000Y-95758000D03*
%TD*%
%TO.P,R34,1*%
%TO.N,GND*%
X100394000Y-103886000D03*
%TO.P,R34,2*%
%TO.N,right_peak*%
X102044000Y-103886000D03*
%TD*%
D18*
%TO.P,R1,1*%
%TO.N,Net-(R1-Pad1)*%
X77279000Y-73025000D03*
%TO.P,R1,2*%
%TO.N,Net-(U1A--)*%
X75629000Y-73025000D03*
%TD*%
%TO.P,R4,1*%
%TO.N,Net-(U1A--)*%
X77279000Y-74803000D03*
%TO.P,R4,2*%
%TO.N,chan_1*%
X75629000Y-74803000D03*
%TD*%
D28*
%TO.P,C15,1*%
%TO.N,right_peak*%
X101994000Y-102235000D03*
%TO.P,C15,2*%
%TO.N,GND*%
X100444000Y-102235000D03*
%TD*%
D26*
%TO.P,R32,1*%
%TO.N,Net-(D2-K)*%
X110936500Y-119253000D03*
%TO.P,R32,2*%
%TO.N,Net-(D6-A)*%
X108011500Y-119253000D03*
%TD*%
D32*
%TO.P,C26,1*%
%TO.N,+12V*%
X85712000Y-95504000D03*
%TO.P,C26,2*%
%TO.N,GND*%
X87262000Y-95504000D03*
%TD*%
D28*
%TO.P,C3,1*%
%TO.N,Net-(U1B--)*%
X77229000Y-67691000D03*
%TO.P,C3,2*%
%TO.N,chan_2*%
X75679000Y-67691000D03*
%TD*%
D18*
%TO.P,R36,1*%
%TO.N,Net-(U3D--)*%
X78041000Y-97282000D03*
%TO.P,R36,2*%
%TO.N,+12V*%
X76391000Y-97282000D03*
%TD*%
D21*
%TO.P,R29,1*%
%TO.N,Net-(U4B--)*%
X115634000Y-102362000D03*
%TO.P,R29,2*%
%TO.N,GND*%
X117284000Y-102362000D03*
%TD*%
D22*
%TO.P,R15,1*%
%TO.N,chan_1_left*%
X95885000Y-91896000D03*
%TO.P,R15,2*%
%TO.N,Net-(U5B--)*%
X95885000Y-90246000D03*
%TD*%
D18*
%TO.P,R21,1*%
%TO.N,Net-(U5B--)*%
X90868000Y-88265000D03*
%TO.P,R21,2*%
%TO.N,left_mix*%
X89218000Y-88265000D03*
%TD*%
D37*
%TO.N,chan_1_right*%
X109791500Y-93535500D03*
%TO.N,+5V*%
X96393000Y-145034000D03*
%TO.N,GND*%
X97536000Y-140589000D03*
%TO.N,SHDN*%
X90297000Y-136398000D03*
X91821000Y-149098000D03*
%TO.N,+5V*%
X95504000Y-149225000D03*
X90487500Y-147637500D03*
%TO.N,GND*%
X87376000Y-147701000D03*
X90907022Y-145702500D03*
X97282000Y-148082000D03*
X93218000Y-142113000D03*
X89154000Y-142113000D03*
%TO.N,Net-(J3-PadT)*%
X78232000Y-157861000D03*
%TO.N,Net-(J2-PadT)*%
X90297000Y-115189000D03*
X98044000Y-115316000D03*
%TO.N,Net-(J1-PadT)*%
X74676000Y-63754000D03*
%TO.N,Net-(C6-Pad1)*%
X82804000Y-131572000D03*
%TO.N,GND*%
X83528500Y-137531306D03*
%TO.N,+5V*%
X84963000Y-133223000D03*
%TO.N,chan_3_left*%
X91313000Y-112776000D03*
X90805000Y-91821000D03*
%TO.N,GND*%
X97282000Y-89154000D03*
%TO.N,Net-(D10-K)*%
X79121000Y-116586000D03*
X79121000Y-113030000D03*
%TO.N,chan_3*%
X88332799Y-112200201D03*
X87503000Y-74168000D03*
%TO.N,left_mix*%
X85471000Y-98679000D03*
X85344000Y-88265000D03*
%TO.N,chan_2_left*%
X108077000Y-94488000D03*
%TO.N,chan_1_left*%
X106934000Y-88646000D03*
%TO.N,GND*%
X104214783Y-94958500D03*
%TO.N,right_mix*%
X105029000Y-99314000D03*
X106229506Y-85232191D03*
%TO.N,chan_3_right*%
X112014000Y-93091000D03*
%TO.N,Net-(D3-A)*%
X110998000Y-111887000D03*
X110871000Y-97917000D03*
%TO.N,GND*%
X100893577Y-108566412D03*
%TO.N,+12V*%
X109474000Y-106172000D03*
X109691088Y-99911500D03*
%TO.N,GND*%
X117221000Y-103632000D03*
X118872000Y-98298000D03*
%TO.N,Net-(D10-A)*%
X81153000Y-96647000D03*
X80772000Y-110236000D03*
%TO.N,left_peak*%
X82677000Y-97917000D03*
X83058000Y-100472000D03*
%TO.N,+5V*%
X96647000Y-104902000D03*
%TO.N,GND*%
X90043000Y-106299000D03*
X90297000Y-103886000D03*
X90170000Y-102235000D03*
X92202000Y-99441000D03*
X73459500Y-98368452D03*
X74908500Y-93912201D03*
X88523500Y-95504000D03*
%TO.N,Net-(D8-A)*%
X90406000Y-97872000D03*
X89789000Y-100330000D03*
%TO.N,+12V*%
X84455001Y-99371502D03*
X84455000Y-95504000D03*
%TO.N,Net-(R2-Pad1)*%
X84709000Y-75311000D03*
%TO.N,chan_1*%
X117983000Y-65024000D03*
X117094000Y-78359000D03*
%TO.N,chan_2*%
X92964000Y-80010000D03*
X92964000Y-68834000D03*
%TO.N,+12V*%
X94488000Y-106299000D03*
X93345000Y-94488000D03*
X94099520Y-84589480D03*
%TO.N,-12V*%
X97994498Y-84201000D03*
X98044000Y-95631000D03*
%TO.N,GND*%
X98806000Y-102997000D03*
X98679000Y-101219000D03*
X103759000Y-99314000D03*
X91643200Y-81762600D03*
X101752400Y-81407000D03*
X95820998Y-83344360D03*
X97280277Y-83394841D03*
X82448400Y-72872600D03*
X79959200Y-76631800D03*
X87913500Y-78394689D03*
X87426800Y-73025000D03*
X82702400Y-71094600D03*
%TO.N,+12V*%
X81613791Y-71827912D03*
X81584800Y-76276200D03*
X81584800Y-67437000D03*
%TO.N,+5V*%
X92160525Y-104715466D03*
X116460207Y-99925327D03*
X87376000Y-61696600D03*
%TO.N,Net-(R3-Pad1)*%
X76454000Y-114173000D03*
X76454000Y-72110600D03*
%TO.N,Net-(R1-Pad1)*%
X78333600Y-72720200D03*
X78333600Y-66471800D03*
%TO.N,GND*%
X113563400Y-71170800D03*
X109474000Y-53873400D03*
X84074000Y-54025800D03*
%TD*%
D38*
%TO.N,chan_1_right*%
X109601000Y-93345000D02*
X109791500Y-93535500D01*
X97663000Y-91884000D02*
X99124000Y-93345000D01*
X99124000Y-93345000D02*
X109601000Y-93345000D01*
%TO.N,chan_2_left*%
X96407000Y-94069000D02*
X107658000Y-94069000D01*
X107658000Y-94069000D02*
X108077000Y-94488000D01*
X94234000Y-91896000D02*
X96407000Y-94069000D01*
%TO.N,chan_3_right*%
X111564998Y-92641998D02*
X100071998Y-92641998D01*
X112014000Y-93091000D02*
X111564998Y-92641998D01*
X100071998Y-92641998D02*
X99314000Y-91884000D01*
%TO.N,Net-(J3-PadT)*%
X115824000Y-157861000D02*
X118491000Y-155194000D01*
%TO.N,Net-(C4-Pad1)*%
X82849000Y-139999000D02*
X84074000Y-141224000D01*
X78187000Y-139999000D02*
X82849000Y-139999000D01*
X75059001Y-143126999D02*
X78187000Y-139999000D01*
X75059001Y-146901001D02*
X75059001Y-143126999D01*
X75859000Y-147701000D02*
X75059001Y-146901001D01*
%TO.N,Net-(U2-INL-)*%
X76327000Y-146578009D02*
X76327000Y-143470000D01*
X80878991Y-151130000D02*
X76327000Y-146578009D01*
X92202000Y-151130000D02*
X80878991Y-151130000D01*
X93976000Y-149356000D02*
X92202000Y-151130000D01*
X93976000Y-147614500D02*
X93976000Y-149356000D01*
%TO.N,GND*%
X87376000Y-148095000D02*
X87376000Y-147701000D01*
X88125000Y-148844000D02*
X87376000Y-148095000D01*
%TO.N,Net-(U2-INL+)*%
X83272000Y-150114000D02*
X80859000Y-147701000D01*
X92456000Y-150114000D02*
X83272000Y-150114000D01*
X93476000Y-149094000D02*
X92456000Y-150114000D01*
X93476000Y-147614500D02*
X93476000Y-149094000D01*
%TO.N,+5V*%
X97028000Y-144399000D02*
X97028000Y-143396000D01*
X96393000Y-145034000D02*
X97028000Y-144399000D01*
X96000000Y-145427000D02*
X96393000Y-145034000D01*
X95163500Y-145427000D02*
X96000000Y-145427000D01*
%TO.N,GND*%
X97028000Y-141097000D02*
X97536000Y-140589000D01*
X97028000Y-141846000D02*
X97028000Y-141097000D01*
%TO.N,SHDN*%
X90200000Y-136495000D02*
X90297000Y-136398000D01*
X85026000Y-136495000D02*
X90200000Y-136495000D01*
X92976000Y-147943000D02*
X91821000Y-149098000D01*
X92976000Y-147614500D02*
X92976000Y-147943000D01*
%TO.N,+5V*%
X94476000Y-147614500D02*
X94476000Y-148197000D01*
X94476000Y-148197000D02*
X95504000Y-149225000D01*
X92288500Y-146927000D02*
X91198000Y-146927000D01*
X91198000Y-146927000D02*
X90487500Y-147637500D01*
X89675000Y-148450000D02*
X90487500Y-147637500D01*
X89675000Y-148844000D02*
X89675000Y-148450000D01*
%TO.N,Net-(U2-C1N)*%
X91833000Y-145427000D02*
X91300000Y-144894000D01*
X92288500Y-145427000D02*
X91833000Y-145427000D01*
X91300000Y-144894000D02*
X89408000Y-144894000D01*
%TO.N,Net-(U2-C1P)*%
X89425000Y-146427000D02*
X89408000Y-146444000D01*
X92288500Y-146427000D02*
X89425000Y-146427000D01*
%TO.N,GND*%
X92288500Y-145927000D02*
X91131522Y-145927000D01*
X91131522Y-145927000D02*
X90907022Y-145702500D01*
X97396000Y-147968000D02*
X97282000Y-148082000D01*
X98933000Y-147968000D02*
X97396000Y-147968000D01*
%TO.N,Net-(U2-INR-)*%
X94476000Y-139545000D02*
X97242000Y-136779000D01*
X94476000Y-144739500D02*
X94476000Y-139545000D01*
%TO.N,GND*%
X93476000Y-142371000D02*
X93218000Y-142113000D01*
X93476000Y-144739500D02*
X93476000Y-142371000D01*
%TO.N,Net-(U2-INR+)*%
X93976000Y-134711000D02*
X97242000Y-131445000D01*
X93976000Y-144739500D02*
X93976000Y-134711000D01*
%TO.N,Net-(U2-PVSS)*%
X92976000Y-143128000D02*
X91961000Y-142113000D01*
X92976000Y-144739500D02*
X92976000Y-143128000D01*
%TO.N,GND*%
X90411000Y-142113000D02*
X89154000Y-142113000D01*
%TO.N,left_out*%
X97282000Y-146939000D02*
X95175500Y-146939000D01*
X95175500Y-146939000D02*
X95163500Y-146927000D01*
X100711000Y-147193000D02*
X97536000Y-147193000D01*
X101473000Y-147955000D02*
X100711000Y-147193000D01*
X97536000Y-147193000D02*
X97282000Y-146939000D01*
X109362000Y-147955000D02*
X101473000Y-147955000D01*
%TO.N,right_out*%
X109489000Y-145542000D02*
X111902000Y-147955000D01*
X98556183Y-145542000D02*
X109489000Y-145542000D01*
X95163500Y-145927000D02*
X98171183Y-145927000D01*
X98171183Y-145927000D02*
X98556183Y-145542000D01*
%TO.N,Net-(U2-BIAS)*%
X98924000Y-146427000D02*
X98933000Y-146418000D01*
X95163500Y-146427000D02*
X98924000Y-146427000D01*
%TO.N,Net-(J2-PadT)*%
X90297000Y-115189000D02*
X90424000Y-115316000D01*
X90424000Y-115316000D02*
X98044000Y-115316000D01*
%TO.N,Net-(J3-PadT)*%
X78232000Y-157861000D02*
X115824000Y-157861000D01*
%TO.N,chan_3*%
X88481500Y-112051500D02*
X88332799Y-112200201D01*
X103912500Y-112051500D02*
X88481500Y-112051500D01*
X104775000Y-111189000D02*
X103912500Y-112051500D01*
%TO.N,Net-(J1-PadT)*%
X74676000Y-63754000D02*
X85304000Y-63754000D01*
%TO.N,GND*%
X76391000Y-95394701D02*
X74908500Y-93912201D01*
X76391000Y-95631000D02*
X76391000Y-95394701D01*
X74024048Y-98933000D02*
X73459500Y-98368452D01*
X74175452Y-98368452D02*
X73459500Y-98368452D01*
X76441000Y-98933000D02*
X74024048Y-98933000D01*
X76391000Y-100584000D02*
X74175452Y-98368452D01*
%TO.N,Net-(J1-PadT)*%
X85304000Y-63754000D02*
X86574000Y-65024000D01*
%TO.N,Net-(C6-Pad1)*%
X82931000Y-131445000D02*
X82804000Y-131572000D01*
X92242000Y-131445000D02*
X82931000Y-131445000D01*
%TO.N,GND*%
X83376000Y-137378806D02*
X83528500Y-137531306D01*
X83376000Y-136495000D02*
X83376000Y-137378806D01*
X100394000Y-108066835D02*
X100893577Y-108566412D01*
X100394000Y-107188000D02*
X100394000Y-108066835D01*
%TO.N,SHDN*%
X83376000Y-134845000D02*
X85026000Y-136495000D01*
X83376000Y-134747000D02*
X83376000Y-134845000D01*
%TO.N,+5V*%
X85026000Y-133286000D02*
X84963000Y-133223000D01*
X85026000Y-134747000D02*
X85026000Y-133286000D01*
%TO.N,+12V*%
X86936500Y-99822000D02*
X84905499Y-99822000D01*
X84905499Y-99822000D02*
X84455001Y-99371502D01*
%TO.N,chan_3_left*%
X104712000Y-112776000D02*
X91313000Y-112776000D01*
X104775000Y-112839000D02*
X104712000Y-112776000D01*
X90868000Y-91884000D02*
X90805000Y-91821000D01*
X92583000Y-91884000D02*
X90868000Y-91884000D01*
%TO.N,GND*%
X97297000Y-89139000D02*
X97282000Y-89154000D01*
X97297000Y-87825500D02*
X97297000Y-89139000D01*
X95997000Y-87825500D02*
X95997000Y-88514041D01*
%TO.N,Net-(U5A--)*%
X98006500Y-89890500D02*
X97663000Y-90234000D01*
X98006500Y-87885000D02*
X98006500Y-89890500D01*
%TO.N,GND*%
X95997000Y-88514041D02*
X96636959Y-89154000D01*
%TO.N,Net-(U5A--)*%
X97947000Y-87825500D02*
X98006500Y-87885000D01*
%TO.N,GND*%
X96636959Y-89154000D02*
X97282000Y-89154000D01*
%TO.N,Net-(D10-K)*%
X79121000Y-118868000D02*
X79506000Y-119253000D01*
X79121000Y-116586000D02*
X79121000Y-118868000D01*
X79282000Y-113191000D02*
X79121000Y-113030000D01*
X81788000Y-113191000D02*
X79282000Y-113191000D01*
%TO.N,Net-(D9-K)*%
X85349000Y-119065500D02*
X85536500Y-119253000D01*
X85349000Y-114466000D02*
X85349000Y-119065500D01*
X84074000Y-113191000D02*
X85349000Y-114466000D01*
%TO.N,Net-(D11-K)*%
X91505500Y-118336500D02*
X86360000Y-113191000D01*
X91505500Y-119253000D02*
X91505500Y-118336500D01*
%TO.N,GND*%
X87262000Y-95504000D02*
X88523500Y-95504000D01*
%TO.N,chan_1*%
X88966473Y-78359000D02*
X117094000Y-78359000D01*
X88638000Y-78687473D02*
X88966473Y-78359000D01*
X88638000Y-78694787D02*
X88638000Y-78687473D01*
X88213598Y-79119189D02*
X88638000Y-78694787D01*
X75679000Y-76581000D02*
X78217189Y-79119189D01*
X78217189Y-79119189D02*
X88213598Y-79119189D01*
%TO.N,GND*%
X87242811Y-77724000D02*
X87913500Y-78394689D01*
X85484000Y-77724000D02*
X87242811Y-77724000D01*
%TO.N,chan_3*%
X87884000Y-73787000D02*
X87503000Y-74168000D01*
X89091000Y-73787000D02*
X87884000Y-73787000D01*
%TO.N,left_mix*%
X85471000Y-98679000D02*
X85964000Y-99172000D01*
X85964000Y-99172000D02*
X86936500Y-99172000D01*
X89218000Y-88265000D02*
X85344000Y-88265000D01*
%TO.N,-12V*%
X105879000Y-95683000D02*
X106693000Y-94869000D01*
X103914685Y-95683000D02*
X105879000Y-95683000D01*
X103730784Y-95499099D02*
X103914685Y-95683000D01*
X98175901Y-95499099D02*
X103730784Y-95499099D01*
X98044000Y-95631000D02*
X98175901Y-95499099D01*
%TO.N,GND*%
X105143000Y-94869000D02*
X104304283Y-94869000D01*
X104304283Y-94869000D02*
X104214783Y-94958500D01*
%TO.N,Net-(U5B--)*%
X90868000Y-88519000D02*
X92583000Y-90234000D01*
X90868000Y-88265000D02*
X90868000Y-88519000D01*
X92583000Y-90234000D02*
X95873000Y-90234000D01*
X95873000Y-90234000D02*
X95885000Y-90246000D01*
%TO.N,chan_1_left*%
X96722000Y-91059000D02*
X95885000Y-91896000D01*
X101357462Y-91059000D02*
X96722000Y-91059000D01*
X103770462Y-88646000D02*
X101357462Y-91059000D01*
X106934000Y-88646000D02*
X103770462Y-88646000D01*
%TO.N,right_mix*%
X105368697Y-86093000D02*
X106229506Y-85232191D01*
X104775000Y-86093000D02*
X105368697Y-86093000D01*
X105171000Y-99172000D02*
X106611500Y-99172000D01*
X105029000Y-99314000D02*
X105171000Y-99172000D01*
%TO.N,chan_2_right*%
X110514000Y-91884000D02*
X111974000Y-90424000D01*
X100965000Y-91884000D02*
X110514000Y-91884000D01*
%TO.N,chan_3*%
X105854000Y-112268000D02*
X104775000Y-111189000D01*
X109469718Y-112268000D02*
X105854000Y-112268000D01*
X111252000Y-112649000D02*
X109850718Y-112649000D01*
X113594152Y-112566000D02*
X111335000Y-112566000D01*
X111335000Y-112566000D02*
X111252000Y-112649000D01*
X109850718Y-112649000D02*
X109469718Y-112268000D01*
X116649000Y-115824000D02*
X116649000Y-115620848D01*
X116649000Y-115620848D02*
X113594152Y-112566000D01*
%TO.N,Net-(D3-K)*%
X115824000Y-118171500D02*
X116905500Y-119253000D01*
X115824000Y-115431538D02*
X115824000Y-118171500D01*
X113583462Y-113191000D02*
X115824000Y-115431538D01*
X111760000Y-113191000D02*
X113583462Y-113191000D01*
%TO.N,Net-(D2-K)*%
X110699000Y-119015500D02*
X110936500Y-119253000D01*
X110699000Y-114416000D02*
X110699000Y-119015500D01*
X109474000Y-113191000D02*
X110699000Y-114416000D01*
%TO.N,Net-(D4-K)*%
X107646000Y-117602000D02*
X106618500Y-117602000D01*
X108199000Y-114202000D02*
X108199000Y-117049000D01*
X108199000Y-117049000D02*
X107646000Y-117602000D01*
X107188000Y-113191000D02*
X108199000Y-114202000D01*
X106618500Y-117602000D02*
X104967500Y-119253000D01*
%TO.N,chan_3_left*%
X104775000Y-113625000D02*
X106974000Y-115824000D01*
X104775000Y-112839000D02*
X104775000Y-113625000D01*
%TO.N,Net-(D3-A)*%
X110998000Y-111887000D02*
X110998000Y-111853000D01*
X110998000Y-111853000D02*
X111760000Y-111091000D01*
X110916000Y-97872000D02*
X110871000Y-97917000D01*
X112336500Y-97872000D02*
X110916000Y-97872000D01*
%TO.N,Net-(D4-A)*%
X112336500Y-109147218D02*
X109767718Y-111716000D01*
X107813000Y-111716000D02*
X107188000Y-111091000D01*
X112336500Y-101772000D02*
X112336500Y-109147218D01*
X109767718Y-111716000D02*
X107813000Y-111716000D01*
%TO.N,Net-(D2-A)*%
X110236000Y-110329000D02*
X109474000Y-111091000D01*
X110236000Y-105156000D02*
X110236000Y-110329000D01*
X106852000Y-101772000D02*
X110236000Y-105156000D01*
X106611500Y-101772000D02*
X106852000Y-101772000D01*
%TO.N,right_peak*%
X112321500Y-99187000D02*
X112336500Y-99172000D01*
X110155186Y-100472000D02*
X112336500Y-100472000D01*
X109991186Y-100636000D02*
X110155186Y-100472000D01*
X108749000Y-100636000D02*
X109991186Y-100636000D01*
X108585000Y-100472000D02*
X108749000Y-100636000D01*
%TO.N,+12V*%
X109780588Y-99822000D02*
X109691088Y-99911500D01*
%TO.N,right_peak*%
X108585000Y-99187000D02*
X112321500Y-99187000D01*
X108585000Y-100472000D02*
X108585000Y-99187000D01*
%TO.N,+12V*%
X112336500Y-99822000D02*
X109780588Y-99822000D01*
%TO.N,right_peak*%
X106611500Y-100472000D02*
X108585000Y-100472000D01*
%TO.N,+12V*%
X101119000Y-106262000D02*
X100394000Y-105537000D01*
X101119000Y-107569000D02*
X101119000Y-106262000D01*
X101538000Y-107988000D02*
X101119000Y-107569000D01*
X102769000Y-107680462D02*
X102461462Y-107988000D01*
X102769000Y-106781000D02*
X102769000Y-107680462D01*
X103378000Y-106172000D02*
X102769000Y-106781000D01*
X109474000Y-106172000D02*
X103378000Y-106172000D01*
X102461462Y-107988000D02*
X101538000Y-107988000D01*
%TO.N,Net-(U4A--)*%
X113025041Y-98522000D02*
X114138041Y-97409000D01*
X112336500Y-98522000D02*
X113025041Y-98522000D01*
X114138041Y-97409000D02*
X115634000Y-97409000D01*
%TO.N,+12V*%
X116559000Y-98185000D02*
X115684000Y-99060000D01*
X116559000Y-96483000D02*
X116559000Y-98185000D01*
X117284000Y-95758000D02*
X116559000Y-96483000D01*
%TO.N,Net-(U4A--)*%
X115634000Y-95758000D02*
X115634000Y-97409000D01*
%TO.N,+12V*%
X114922000Y-99822000D02*
X115684000Y-99060000D01*
X112336500Y-99822000D02*
X114922000Y-99822000D01*
%TO.N,Net-(U4B--)*%
X115223000Y-101122000D02*
X115634000Y-100711000D01*
X112336500Y-101122000D02*
X115223000Y-101122000D01*
X115634000Y-102362000D02*
X115634000Y-100711000D01*
%TO.N,GND*%
X117284000Y-103569000D02*
X117221000Y-103632000D01*
X117284000Y-102362000D02*
X117284000Y-103569000D01*
X118110000Y-99060000D02*
X118872000Y-98298000D01*
X117234000Y-99060000D02*
X118110000Y-99060000D01*
X117234000Y-97459000D02*
X117284000Y-97409000D01*
X117234000Y-99060000D02*
X117234000Y-97459000D01*
%TO.N,right_mix*%
X98597000Y-86823000D02*
X99314000Y-86106000D01*
X99314000Y-86106000D02*
X103061000Y-86106000D01*
X98597000Y-87825500D02*
X98597000Y-86823000D01*
X103061000Y-86106000D02*
X103124000Y-86043000D01*
X103174000Y-86093000D02*
X103124000Y-86043000D01*
X104775000Y-86093000D02*
X103174000Y-86093000D01*
%TO.N,left_mix*%
X90068000Y-85814000D02*
X89268000Y-86614000D01*
X93561000Y-85814000D02*
X90068000Y-85814000D01*
X94697000Y-86950000D02*
X93561000Y-85814000D01*
X94697000Y-87825500D02*
X94697000Y-86950000D01*
X89268000Y-88215000D02*
X89218000Y-88265000D01*
X89268000Y-86614000D02*
X89268000Y-88215000D01*
%TO.N,Net-(D11-A)*%
X86936500Y-110514500D02*
X86360000Y-111091000D01*
X86936500Y-101772000D02*
X86936500Y-110514500D01*
%TO.N,Net-(D10-A)*%
X80933000Y-110236000D02*
X81788000Y-111091000D01*
X81211500Y-96705500D02*
X81153000Y-96647000D01*
X80772000Y-110236000D02*
X80933000Y-110236000D01*
X81211500Y-97872000D02*
X81211500Y-96705500D01*
%TO.N,Net-(D9-A)*%
X84074000Y-104634500D02*
X84074000Y-111091000D01*
X81211500Y-101772000D02*
X84074000Y-104634500D01*
%TO.N,left_peak*%
X81900041Y-99172000D02*
X82677000Y-98395041D01*
X81211500Y-99172000D02*
X81900041Y-99172000D01*
X82677000Y-98395041D02*
X82677000Y-97917000D01*
X81211500Y-100472000D02*
X86936500Y-100472000D01*
%TO.N,+5V*%
X93662000Y-104902000D02*
X96647000Y-104902000D01*
X93027000Y-105537000D02*
X93662000Y-104902000D01*
%TO.N,Net-(U3B--)*%
X90551000Y-105537000D02*
X91377000Y-105537000D01*
X89408000Y-104394000D02*
X90551000Y-105537000D01*
X87625041Y-101122000D02*
X89408000Y-102904959D01*
X86936500Y-101122000D02*
X87625041Y-101122000D01*
X89408000Y-102904959D02*
X89408000Y-104394000D01*
X93027000Y-107188000D02*
X93027000Y-107187000D01*
X93027000Y-107187000D02*
X91377000Y-105537000D01*
%TO.N,GND*%
X90932000Y-107188000D02*
X90043000Y-106299000D01*
X91377000Y-107188000D02*
X90932000Y-107188000D01*
X91377000Y-103886000D02*
X90297000Y-103886000D01*
X91427000Y-102235000D02*
X90170000Y-102235000D01*
%TO.N,left_peak*%
X92977000Y-102235000D02*
X92490000Y-101748000D01*
X92490000Y-101748000D02*
X92490000Y-101092000D01*
X93027000Y-103886000D02*
X93027000Y-102285000D01*
X93027000Y-102285000D02*
X92977000Y-102235000D01*
X89281000Y-101092000D02*
X92490000Y-101092000D01*
X92490000Y-101092000D02*
X93252000Y-100330000D01*
X88661000Y-100472000D02*
X89281000Y-101092000D01*
X86936500Y-100472000D02*
X88661000Y-100472000D01*
%TO.N,GND*%
X93027000Y-98425000D02*
X93027000Y-98616000D01*
X93027000Y-98616000D02*
X92202000Y-99441000D01*
%TO.N,+12V*%
X77216000Y-98107000D02*
X76391000Y-97282000D01*
X76391000Y-102235000D02*
X77216000Y-101410000D01*
X77216000Y-101410000D02*
X77216000Y-98107000D01*
X77116000Y-96557000D02*
X76391000Y-97282000D01*
X83782000Y-94831000D02*
X77508000Y-94831000D01*
X77508000Y-94831000D02*
X77116000Y-95223000D01*
X84455000Y-95504000D02*
X83782000Y-94831000D01*
X77116000Y-95223000D02*
X77116000Y-96557000D01*
%TO.N,Net-(U3C--)*%
X81211500Y-101122000D02*
X78579000Y-101122000D01*
X78579000Y-101122000D02*
X78041000Y-100584000D01*
X78041000Y-100584000D02*
X78041000Y-102235000D01*
%TO.N,Net-(U3D--)*%
X80522959Y-98522000D02*
X79282959Y-97282000D01*
X81211500Y-98522000D02*
X80522959Y-98522000D01*
X79282959Y-97282000D02*
X78041000Y-97282000D01*
X78041000Y-95631000D02*
X78041000Y-97282000D01*
%TO.N,Net-(D8-A)*%
X86936500Y-97872000D02*
X90406000Y-97872000D01*
%TO.N,Net-(U3A--)*%
X87011000Y-98596500D02*
X91205500Y-98596500D01*
X86936500Y-98522000D02*
X87011000Y-98596500D01*
X91205500Y-98596500D02*
X91377000Y-98425000D01*
%TO.N,Net-(D8-A)*%
X91152000Y-100330000D02*
X89789000Y-100330000D01*
%TO.N,Net-(U3A--)*%
X92901000Y-96901000D02*
X91377000Y-98425000D01*
X93027000Y-96901000D02*
X92901000Y-96901000D01*
%TO.N,Net-(D8-A)*%
X91377000Y-96901000D02*
X90406000Y-97872000D01*
%TO.N,+12V*%
X85712000Y-95504000D02*
X84455000Y-95504000D01*
%TO.N,Net-(R2-Pad1)*%
X91466000Y-70956000D02*
X90741000Y-70231000D01*
X91466000Y-74279462D02*
X91466000Y-70956000D01*
X90434462Y-75311000D02*
X91466000Y-74279462D01*
X84709000Y-75311000D02*
X90434462Y-75311000D01*
%TO.N,-12V*%
X85193000Y-76465000D02*
X83934000Y-77724000D01*
X95250000Y-75565000D02*
X94350000Y-76465000D01*
X94350000Y-76465000D02*
X85193000Y-76465000D01*
%TO.N,chan_1*%
X117983000Y-65024000D02*
X116649000Y-65024000D01*
%TO.N,chan_2*%
X108458000Y-84065050D02*
X108458000Y-86170000D01*
X104402950Y-80010000D02*
X108458000Y-84065050D01*
X92964000Y-80010000D02*
X104402950Y-80010000D01*
X92880600Y-68917400D02*
X92964000Y-68834000D01*
X80956100Y-68917400D02*
X92880600Y-68917400D01*
X79941500Y-69932000D02*
X80956100Y-68917400D01*
%TO.N,GND*%
X97297000Y-83378118D02*
X97280277Y-83394841D01*
X97297000Y-82100500D02*
X97297000Y-83378118D01*
%TO.N,Net-(U5A--)*%
X103124000Y-88075000D02*
X103124000Y-87693000D01*
X100965000Y-90234000D02*
X103124000Y-88075000D01*
X104725000Y-87693000D02*
X104775000Y-87643000D01*
X103124000Y-87693000D02*
X104725000Y-87693000D01*
%TO.N,Net-(U5B--)*%
X90868000Y-88265000D02*
X90868000Y-88531000D01*
X90818000Y-88215000D02*
X90868000Y-88265000D01*
X90818000Y-86614000D02*
X90818000Y-88215000D01*
X95347000Y-89708000D02*
X95885000Y-90246000D01*
X95347000Y-87825500D02*
X95347000Y-89708000D01*
%TO.N,Net-(U5A--)*%
X100965000Y-90234000D02*
X97663000Y-90234000D01*
%TO.N,chan_2_left*%
X108458000Y-88940000D02*
X106974000Y-90424000D01*
X108458000Y-87820000D02*
X108458000Y-88940000D01*
%TO.N,chan_2_right*%
X111974000Y-87860000D02*
X111974000Y-90424000D01*
X112014000Y-87820000D02*
X111974000Y-87860000D01*
%TO.N,chan_2*%
X108458000Y-86170000D02*
X112014000Y-86170000D01*
%TO.N,+12V*%
X99632000Y-106299000D02*
X100394000Y-105537000D01*
X94488000Y-106299000D02*
X99632000Y-106299000D01*
X93345000Y-94488000D02*
X86728000Y-94488000D01*
X86728000Y-94488000D02*
X85712000Y-95504000D01*
X94099520Y-84589480D02*
X96647000Y-87136959D01*
X93978041Y-84468000D02*
X94099520Y-84589480D01*
%TO.N,-12V*%
X80522959Y-99822000D02*
X81211500Y-99822000D01*
X79633959Y-98933000D02*
X80522959Y-99822000D01*
X77991000Y-98933000D02*
X79633959Y-98933000D01*
X84390000Y-97347000D02*
X81915000Y-99822000D01*
X81915000Y-99822000D02*
X81211500Y-99822000D01*
X89586538Y-97347000D02*
X84390000Y-97347000D01*
X91302538Y-95631000D02*
X89586538Y-97347000D01*
X98044000Y-95631000D02*
X91302538Y-95631000D01*
X107315000Y-99822000D02*
X106611500Y-99822000D01*
X107674000Y-95850000D02*
X107674000Y-99463000D01*
X107674000Y-99463000D02*
X107315000Y-99822000D01*
X106693000Y-94869000D02*
X107674000Y-95850000D01*
X96563389Y-82184111D02*
X96647000Y-82100500D01*
X96563389Y-83104525D02*
X96563389Y-82184111D01*
X96545498Y-83122416D02*
X96563389Y-83104525D01*
X96545498Y-83722612D02*
X96545498Y-83122416D01*
X96987791Y-84147014D02*
X96969900Y-84147014D01*
X97054777Y-84214000D02*
X96987791Y-84147014D01*
X101727000Y-84214000D02*
X97054777Y-84214000D01*
%TO.N,GND*%
X95997000Y-83168358D02*
X95820998Y-83344360D01*
%TO.N,-12V*%
X96969900Y-84147014D02*
X96545498Y-83722612D01*
%TO.N,GND*%
X95997000Y-82100500D02*
X95997000Y-83168358D01*
%TO.N,Net-(U4C--)*%
X102769000Y-104275959D02*
X102769000Y-104812000D01*
%TO.N,right_peak*%
X102044000Y-102285000D02*
X101994000Y-102235000D01*
%TO.N,Net-(D1-A)*%
X101244000Y-95948600D02*
X102044000Y-96748600D01*
X99669000Y-96256138D02*
X99976538Y-95948600D01*
%TO.N,right_peak*%
X102269000Y-100330000D02*
X102411000Y-100472000D01*
%TO.N,Net-(U4D--)*%
X102166400Y-98522000D02*
X102069400Y-98425000D01*
%TO.N,Net-(U4C--)*%
X102769000Y-104812000D02*
X102044000Y-105537000D01*
X105922959Y-101122000D02*
X102769000Y-104275959D01*
X106611500Y-101122000D02*
X105922959Y-101122000D01*
X102044000Y-107188000D02*
X102044000Y-105537000D01*
%TO.N,GND*%
X100394000Y-103886000D02*
X99695000Y-103886000D01*
X99695000Y-103886000D02*
X98806000Y-102997000D01*
%TO.N,right_peak*%
X102044000Y-103886000D02*
X102044000Y-102285000D01*
%TO.N,GND*%
X99695000Y-102235000D02*
X98679000Y-101219000D01*
X100444000Y-102235000D02*
X99695000Y-102235000D01*
%TO.N,right_peak*%
X102269000Y-101960000D02*
X101994000Y-102235000D01*
X102269000Y-100330000D02*
X102269000Y-101960000D01*
%TO.N,GND*%
X101308400Y-99314000D02*
X103759000Y-99314000D01*
X100419400Y-98425000D02*
X101308400Y-99314000D01*
%TO.N,Net-(D1-A)*%
X99976538Y-95948600D02*
X101244000Y-95948600D01*
X99669000Y-99830000D02*
X99669000Y-96256138D01*
X100169000Y-100330000D02*
X99669000Y-99830000D01*
%TO.N,right_peak*%
X102411000Y-100472000D02*
X106611500Y-100472000D01*
%TO.N,Net-(U4D--)*%
X106611500Y-98522000D02*
X102166400Y-98522000D01*
X100394000Y-96749600D02*
X102069400Y-98425000D01*
X100394000Y-96748600D02*
X100394000Y-96749600D01*
%TO.N,Net-(D1-A)*%
X103167400Y-97872000D02*
X102044000Y-96748600D01*
X106611500Y-97872000D02*
X103167400Y-97872000D01*
%TO.N,chan_1*%
X103524000Y-63799000D02*
X102299000Y-65024000D01*
X115424000Y-63799000D02*
X103524000Y-63799000D01*
X116649000Y-65024000D02*
X115424000Y-63799000D01*
%TO.N,chan_1_right*%
X111974000Y-65024000D02*
X114999000Y-65024000D01*
%TO.N,chan_1_left*%
X103949000Y-65024000D02*
X106974000Y-65024000D01*
%TO.N,+12V*%
X96647000Y-87136959D02*
X96647000Y-87825500D01*
X91694000Y-84468000D02*
X93978041Y-84468000D01*
%TO.N,GND*%
X91694000Y-81813400D02*
X91643200Y-81762600D01*
X91694000Y-82918000D02*
X91694000Y-81813400D01*
X101727000Y-81432400D02*
X101752400Y-81407000D01*
X101727000Y-82664000D02*
X101727000Y-81432400D01*
%TO.N,Net-(U5D--)*%
X97947000Y-82100500D02*
X98597000Y-82100500D01*
%TO.N,Net-(U5C--)*%
X94697000Y-82100500D02*
X95347000Y-82100500D01*
%TO.N,Net-(U1D--)*%
X85666500Y-73832000D02*
X85666500Y-73182000D01*
%TO.N,Net-(U1C--)*%
X88227400Y-69367400D02*
X89091000Y-70231000D01*
X84683600Y-69367400D02*
X88227400Y-69367400D01*
X84480400Y-70084441D02*
X84480400Y-69570600D01*
X84480400Y-69570600D02*
X84683600Y-69367400D01*
X84977959Y-70582000D02*
X84480400Y-70084441D01*
X85666500Y-70582000D02*
X84977959Y-70582000D01*
%TO.N,GND*%
X82128212Y-72552412D02*
X82448400Y-72872600D01*
X79961912Y-72552412D02*
X82128212Y-72552412D01*
X79941500Y-72532000D02*
X79961912Y-72552412D01*
%TO.N,+12V*%
X79941500Y-71882000D02*
X81559703Y-71882000D01*
X81559703Y-71882000D02*
X81613791Y-71827912D01*
%TO.N,GND*%
X79997000Y-76669600D02*
X79959200Y-76631800D01*
X79997000Y-77724000D02*
X79997000Y-76669600D01*
X86933800Y-72532000D02*
X87426800Y-73025000D01*
X85666500Y-72532000D02*
X86933800Y-72532000D01*
X82839800Y-71232000D02*
X82702400Y-71094600D01*
X85666500Y-71232000D02*
X82839800Y-71232000D01*
X80767441Y-71094600D02*
X82702400Y-71094600D01*
X80630041Y-71232000D02*
X80767441Y-71094600D01*
X79941500Y-71232000D02*
X80630041Y-71232000D01*
%TO.N,+12V*%
X81584800Y-77686200D02*
X81547000Y-77724000D01*
X81584800Y-76276200D02*
X81584800Y-77686200D01*
X93218000Y-67437000D02*
X81584800Y-67437000D01*
X95250000Y-65405000D02*
X93218000Y-67437000D01*
X102194000Y-61001000D02*
X109474000Y-61001000D01*
X97790000Y-65405000D02*
X102194000Y-61001000D01*
X95250000Y-65405000D02*
X97790000Y-65405000D01*
%TO.N,-12V*%
X111775600Y-75565000D02*
X111810800Y-75529800D01*
X97790000Y-75565000D02*
X111775600Y-75565000D01*
X95250000Y-75565000D02*
X97790000Y-75565000D01*
X83934000Y-72675959D02*
X84727959Y-71882000D01*
X84727959Y-71882000D02*
X85666500Y-71882000D01*
X83934000Y-77724000D02*
X83934000Y-72675959D01*
%TO.N,+5V*%
X92982059Y-105537000D02*
X92160525Y-104715466D01*
X93027000Y-105537000D02*
X92982059Y-105537000D01*
X117245880Y-100711000D02*
X116460207Y-99925327D01*
X117284000Y-100711000D02*
X117245880Y-100711000D01*
X84515600Y-61696600D02*
X87376000Y-61696600D01*
X84074000Y-61255000D02*
X84515600Y-61696600D01*
%TO.N,chan_3_right*%
X114999000Y-115824000D02*
X111974000Y-115824000D01*
%TO.N,Net-(D7-A)*%
X113980500Y-120711500D02*
X115443000Y-122174000D01*
X113980500Y-119253000D02*
X113980500Y-120711500D01*
%TO.N,Net-(D6-A)*%
X108011500Y-120711500D02*
X109474000Y-122174000D01*
X108011500Y-119253000D02*
X108011500Y-120711500D01*
%TO.N,Net-(D5-A)*%
X102042500Y-120711500D02*
X103505000Y-122174000D01*
X102042500Y-119253000D02*
X102042500Y-120711500D01*
%TO.N,Net-(D12-A)*%
X88580500Y-120711500D02*
X90043000Y-122174000D01*
X88580500Y-119253000D02*
X88580500Y-120711500D01*
%TO.N,Net-(D13-A)*%
X82611500Y-120711500D02*
X84074000Y-122174000D01*
X82611500Y-119253000D02*
X82611500Y-120711500D01*
%TO.N,Net-(D14-A)*%
X76581000Y-120650000D02*
X78105000Y-122174000D01*
X76581000Y-119253000D02*
X76581000Y-120650000D01*
%TO.N,Net-(R3-Pad1)*%
X82423000Y-114173000D02*
X84074000Y-115824000D01*
X76454000Y-114173000D02*
X82423000Y-114173000D01*
X77279000Y-71285600D02*
X76454000Y-72110600D01*
X77279000Y-71247000D02*
X77279000Y-71285600D01*
%TO.N,Net-(R1-Pad1)*%
X82626200Y-66471800D02*
X84074000Y-65024000D01*
X78333600Y-66471800D02*
X82626200Y-66471800D01*
X78028800Y-73025000D02*
X78333600Y-72720200D01*
X77279000Y-73025000D02*
X78028800Y-73025000D01*
%TO.N,Net-(U1A--)*%
X77279000Y-74803000D02*
X78900000Y-73182000D01*
X78900000Y-73182000D02*
X79941500Y-73182000D01*
%TO.N,chan_1*%
X76479000Y-77381000D02*
X75679000Y-76581000D01*
X77681817Y-77381000D02*
X76479000Y-77381000D01*
X78587600Y-76475217D02*
X77681817Y-77381000D01*
X78587600Y-74244200D02*
X78587600Y-76475217D01*
X78999800Y-73832000D02*
X78587600Y-74244200D01*
X79941500Y-73832000D02*
X78999800Y-73832000D01*
X75629000Y-76531000D02*
X75679000Y-76581000D01*
X75629000Y-74803000D02*
X75629000Y-76531000D01*
%TO.N,Net-(U1A--)*%
X75629000Y-73153000D02*
X77279000Y-74803000D01*
X75629000Y-73025000D02*
X75629000Y-73153000D01*
X77229000Y-74853000D02*
X77279000Y-74803000D01*
X77229000Y-76581000D02*
X77229000Y-74853000D01*
%TO.N,chan_3*%
X89091000Y-72059000D02*
X89141000Y-72009000D01*
X89091000Y-73787000D02*
X89091000Y-72059000D01*
X86355041Y-69932000D02*
X85666500Y-69932000D01*
X88432041Y-72009000D02*
X86355041Y-69932000D01*
X89141000Y-72009000D02*
X88432041Y-72009000D01*
%TO.N,Net-(U1C--)*%
X90741000Y-72059000D02*
X90691000Y-72009000D01*
X90741000Y-73787000D02*
X90741000Y-72059000D01*
X90691000Y-71831000D02*
X89091000Y-70231000D01*
X90691000Y-72009000D02*
X90691000Y-71831000D01*
%TO.N,Net-(U1B--)*%
X75629000Y-71119000D02*
X77279000Y-69469000D01*
X75629000Y-71247000D02*
X75629000Y-71119000D01*
%TO.N,chan_2*%
X76479000Y-66891000D02*
X75679000Y-67691000D01*
X78004000Y-67213183D02*
X77681817Y-66891000D01*
X77681817Y-66891000D02*
X76479000Y-66891000D01*
X78841600Y-69926200D02*
X78004000Y-69088600D01*
X78004000Y-69088600D02*
X78004000Y-67213183D01*
X79935700Y-69926200D02*
X78841600Y-69926200D01*
X79941500Y-69932000D02*
X79935700Y-69926200D01*
%TO.N,Net-(U1B--)*%
X78392000Y-70582000D02*
X79941500Y-70582000D01*
X77279000Y-69469000D02*
X78392000Y-70582000D01*
X77229000Y-69419000D02*
X77279000Y-69469000D01*
X77229000Y-67691000D02*
X77229000Y-69419000D01*
%TO.N,chan_2*%
X75679000Y-69419000D02*
X75629000Y-69469000D01*
X75679000Y-67691000D02*
X75679000Y-69419000D01*
%TO.N,GND*%
X111810800Y-71129800D02*
X113522400Y-71129800D01*
X113522400Y-71129800D02*
X113563400Y-71170800D01*
X109474000Y-56601000D02*
X109474000Y-53873400D01*
X84074000Y-56855000D02*
X84074000Y-54025800D01*
%TD*%
M02*
