%TF.GenerationSoftware,KiCad,Pcbnew,7.0.1*%
%TF.CreationDate,2024-09-15T16:09:11-04:00*%
%TF.ProjectId,output module,6f757470-7574-4206-9d6f-64756c652e6b,A*%
%TF.SameCoordinates,Original*%
%TF.FileFunction,Copper,L2,Inr*%
%TF.FilePolarity,Positive*%
%FSLAX46Y46*%
G04 Gerber Fmt 4.6, Leading zero omitted, Abs format (unit mm)*
G04 Created by KiCad (PCBNEW 7.0.1) date 2024-09-15 16:09:11*
%MOMM*%
%LPD*%
G01*
G04 APERTURE LIST*
%TA.AperFunction,ComponentPad*%
%ADD10C,2.000000*%
%TD*%
%TA.AperFunction,ComponentPad*%
%ADD11O,2.720000X3.240000*%
%TD*%
%TA.AperFunction,ComponentPad*%
%ADD12R,1.800000X1.800000*%
%TD*%
%TA.AperFunction,ComponentPad*%
%ADD13C,1.800000*%
%TD*%
%TA.AperFunction,ComponentPad*%
%ADD14R,1.700000X1.700000*%
%TD*%
%TA.AperFunction,ComponentPad*%
%ADD15O,1.700000X1.700000*%
%TD*%
%TA.AperFunction,ComponentPad*%
%ADD16O,1.800000X1.800000*%
%TD*%
%TA.AperFunction,ComponentPad*%
%ADD17C,1.600000*%
%TD*%
%TA.AperFunction,ViaPad*%
%ADD18C,0.800000*%
%TD*%
G04 APERTURE END LIST*
D10*
%TO.N,unconnected-(J3-PadTN)*%
%TO.C,J3*%
X110191000Y-155194000D03*
%TO.N,Net-(J3-PadT)*%
X118491000Y-155194000D03*
%TO.N,GND*%
X107091000Y-155194000D03*
%TD*%
%TO.N,unconnected-(J1-PadTN)*%
%TO.C,J1*%
X83484000Y-155194000D03*
%TO.N,Net-(J1-PadT)*%
X75184000Y-155194000D03*
%TO.N,GND*%
X86584000Y-155194000D03*
%TD*%
%TO.N,unconnected-(J2-PadTN)*%
%TO.C,J2*%
X93394000Y-155194000D03*
%TO.N,Net-(J2-PadT)*%
X101694000Y-155194000D03*
%TO.N,GND*%
X90294000Y-155194000D03*
%TD*%
D11*
%TO.N,*%
%TO.C,RV2*%
X79274000Y-82924000D03*
X88874000Y-82924000D03*
D12*
%TO.N,GND*%
X81574000Y-90424000D03*
D13*
%TO.N,Net-(R2-Pad1)*%
X84074000Y-90424000D03*
%TO.N,Net-(J2-PadT)*%
X86574000Y-90424000D03*
%TD*%
D11*
%TO.N,*%
%TO.C,RV6*%
X104674000Y-82924000D03*
X114274000Y-82924000D03*
D12*
%TO.N,chan_2_left*%
X106974000Y-90424000D03*
D13*
%TO.N,GND*%
X109474000Y-90424000D03*
%TO.N,chan_2_right*%
X111974000Y-90424000D03*
%TD*%
D12*
%TO.N,GND*%
%TO.C,D14*%
X78105000Y-124714000D03*
D13*
%TO.N,Net-(D14-A)*%
X78105000Y-122174000D03*
%TD*%
D11*
%TO.N,*%
%TO.C,RV1*%
X79274000Y-57524000D03*
X88874000Y-57524000D03*
D12*
%TO.N,GND*%
X81574000Y-65024000D03*
D13*
%TO.N,Net-(R1-Pad1)*%
X84074000Y-65024000D03*
%TO.N,Net-(J1-PadT)*%
X86574000Y-65024000D03*
%TD*%
D12*
%TO.N,GND*%
%TO.C,D13*%
X84074000Y-124714000D03*
D13*
%TO.N,Net-(D13-A)*%
X84074000Y-122174000D03*
%TD*%
D11*
%TO.N,*%
%TO.C,RV5*%
X104674000Y-57524000D03*
X114274000Y-57524000D03*
D12*
%TO.N,chan_1_left*%
X106974000Y-65024000D03*
D13*
%TO.N,GND*%
X109474000Y-65024000D03*
%TO.N,chan_1_right*%
X111974000Y-65024000D03*
%TD*%
D11*
%TO.N,*%
%TO.C,RV7*%
X104674000Y-108324000D03*
X114274000Y-108324000D03*
D12*
%TO.N,chan_3_left*%
X106974000Y-115824000D03*
D13*
%TO.N,GND*%
X109474000Y-115824000D03*
%TO.N,chan_3_right*%
X111974000Y-115824000D03*
%TD*%
D11*
%TO.N,*%
%TO.C,RV3*%
X79274000Y-108324000D03*
X88874000Y-108324000D03*
D12*
%TO.N,GND*%
X81574000Y-115824000D03*
D13*
%TO.N,Net-(R3-Pad1)*%
X84074000Y-115824000D03*
%TO.N,Net-(J3-PadT)*%
X86574000Y-115824000D03*
%TD*%
D11*
%TO.N,*%
%TO.C,RV4*%
X79324000Y-133724000D03*
X88824000Y-133724000D03*
D12*
%TO.N,GND*%
X81574000Y-141224000D03*
D13*
%TO.N,Net-(C4-Pad1)*%
X84074000Y-141224000D03*
%TO.N,left_mix*%
X86574000Y-141224000D03*
%TO.N,GND*%
X81574000Y-143724000D03*
%TO.N,Net-(C6-Pad1)*%
X84074000Y-143724000D03*
%TO.N,right_mix*%
X86574000Y-143724000D03*
%TD*%
D12*
%TO.N,GND*%
%TO.C,D5*%
X103505000Y-124714000D03*
D13*
%TO.N,Net-(D5-A)*%
X103505000Y-122174000D03*
%TD*%
D12*
%TO.N,GND*%
%TO.C,D12*%
X90043000Y-124714000D03*
D13*
%TO.N,Net-(D12-A)*%
X90043000Y-122174000D03*
%TD*%
D12*
%TO.N,GND*%
%TO.C,D7*%
X115443000Y-124714000D03*
D13*
%TO.N,Net-(D7-A)*%
X115443000Y-122174000D03*
%TD*%
D12*
%TO.N,GND*%
%TO.C,D6*%
X109474000Y-124714000D03*
D13*
%TO.N,Net-(D6-A)*%
X109474000Y-122174000D03*
%TD*%
D14*
%TO.N,left_out*%
%TO.C,J4*%
X109362000Y-147955000D03*
D15*
%TO.N,right_out*%
X111902000Y-147955000D03*
%TO.N,GND*%
X114442000Y-147955000D03*
%TD*%
D12*
%TO.N,-12V*%
%TO.C,J6*%
X97790000Y-75565000D03*
D16*
X95250000Y-75565000D03*
%TO.N,GND*%
X97790000Y-73025000D03*
X95250000Y-73025000D03*
X97790000Y-70485000D03*
X95250000Y-70485000D03*
X97790000Y-67945000D03*
X95250000Y-67945000D03*
%TO.N,+12V*%
X97790000Y-65405000D03*
X95250000Y-65405000D03*
%TO.N,+5V*%
X97790000Y-62865000D03*
X95250000Y-62865000D03*
%TO.N,unconnected-(J6-cv-Pad13)*%
X97790000Y-60325000D03*
%TO.N,unconnected-(J6-cv-Pad14)*%
X95252858Y-60325000D03*
%TO.N,unconnected-(J6-gate-Pad15)*%
X97790000Y-57785000D03*
%TO.N,unconnected-(J6-gate-Pad16)*%
X95250000Y-57785000D03*
%TD*%
D17*
%TO.N,Net-(C6-Pad1)*%
%TO.C,C6*%
X92242000Y-131445000D03*
%TO.N,Net-(U2-INR+)*%
X97242000Y-131445000D03*
%TD*%
%TO.N,GND*%
%TO.C,C7*%
X92242000Y-136779000D03*
%TO.N,Net-(U2-INR-)*%
X97242000Y-136779000D03*
%TD*%
%TO.N,GND*%
%TO.C,C5*%
X76327000Y-138470000D03*
%TO.N,Net-(U2-INL-)*%
X76327000Y-143470000D03*
%TD*%
%TO.N,Net-(C4-Pad1)*%
%TO.C,C4*%
X75859000Y-147701000D03*
%TO.N,Net-(U2-INL+)*%
X80859000Y-147701000D03*
%TD*%
D18*
%TO.N,chan_1_right*%
X109791500Y-93535500D03*
%TO.N,+5V*%
X96393000Y-145034000D03*
%TO.N,GND*%
X97536000Y-140589000D03*
%TO.N,SHDN*%
X90297000Y-136398000D03*
X91821000Y-149098000D03*
%TO.N,+5V*%
X95504000Y-149225000D03*
X90487500Y-147637500D03*
%TO.N,GND*%
X87376000Y-147701000D03*
X90907022Y-145702500D03*
X97282000Y-148082000D03*
X93218000Y-142113000D03*
X89154000Y-142113000D03*
%TO.N,Net-(J3-PadT)*%
X78232000Y-157861000D03*
%TO.N,Net-(J2-PadT)*%
X90297000Y-115189000D03*
X98044000Y-115316000D03*
%TO.N,Net-(J1-PadT)*%
X74676000Y-63754000D03*
%TO.N,Net-(C6-Pad1)*%
X82804000Y-131572000D03*
%TO.N,GND*%
X83528500Y-137531306D03*
%TO.N,+5V*%
X84963000Y-133223000D03*
%TO.N,chan_3_left*%
X91313000Y-112776000D03*
X90805000Y-91821000D03*
%TO.N,GND*%
X97282000Y-89154000D03*
%TO.N,Net-(D10-K)*%
X79121000Y-116586000D03*
X79121000Y-113030000D03*
%TO.N,chan_3*%
X88332799Y-112200201D03*
X87503000Y-74168000D03*
%TO.N,left_mix*%
X85471000Y-98679000D03*
X85344000Y-88265000D03*
%TO.N,chan_2_left*%
X108077000Y-94488000D03*
%TO.N,chan_1_left*%
X106934000Y-88646000D03*
%TO.N,GND*%
X104214783Y-94958500D03*
%TO.N,right_mix*%
X105029000Y-99314000D03*
X106229506Y-85232191D03*
%TO.N,chan_3_right*%
X112014000Y-93091000D03*
%TO.N,Net-(D3-A)*%
X110998000Y-111887000D03*
X110871000Y-97917000D03*
%TO.N,GND*%
X100893577Y-108566412D03*
%TO.N,+12V*%
X109474000Y-106172000D03*
X109691088Y-99911500D03*
%TO.N,GND*%
X117221000Y-103632000D03*
X118872000Y-98298000D03*
%TO.N,Net-(D10-A)*%
X81153000Y-96647000D03*
X80772000Y-110236000D03*
%TO.N,left_peak*%
X82677000Y-97917000D03*
X83058000Y-100472000D03*
%TO.N,+5V*%
X96647000Y-104902000D03*
%TO.N,GND*%
X90043000Y-106299000D03*
X90297000Y-103886000D03*
X90170000Y-102235000D03*
X92202000Y-99441000D03*
X73459500Y-98368452D03*
X74908500Y-93912201D03*
X88523500Y-95504000D03*
%TO.N,Net-(D8-A)*%
X90406000Y-97872000D03*
X89789000Y-100330000D03*
%TO.N,+12V*%
X84455001Y-99371502D03*
X84455000Y-95504000D03*
%TO.N,Net-(R2-Pad1)*%
X84709000Y-75311000D03*
%TO.N,chan_1*%
X117983000Y-65024000D03*
X117094000Y-78359000D03*
%TO.N,chan_2*%
X92964000Y-80010000D03*
X92964000Y-68834000D03*
%TO.N,+12V*%
X94488000Y-106299000D03*
X93345000Y-94488000D03*
X94099520Y-84589480D03*
%TO.N,-12V*%
X97994498Y-84201000D03*
X98044000Y-95631000D03*
%TO.N,GND*%
X98806000Y-102997000D03*
X98679000Y-101219000D03*
X103759000Y-99314000D03*
X91643200Y-81762600D03*
X101752400Y-81407000D03*
X95820998Y-83344360D03*
X97280277Y-83394841D03*
X82448400Y-72872600D03*
X79959200Y-76631800D03*
X87913500Y-78394689D03*
X87426800Y-73025000D03*
X82702400Y-71094600D03*
%TO.N,+12V*%
X81613791Y-71827912D03*
X81584800Y-76276200D03*
X81584800Y-67437000D03*
%TO.N,+5V*%
X92160525Y-104715466D03*
X116460207Y-99925327D03*
X87376000Y-61696600D03*
%TO.N,Net-(R3-Pad1)*%
X76454000Y-114173000D03*
X76454000Y-72110600D03*
%TO.N,Net-(R1-Pad1)*%
X78333600Y-72720200D03*
X78333600Y-66471800D03*
%TO.N,GND*%
X113563400Y-71170800D03*
X109474000Y-53873400D03*
X84074000Y-54025800D03*
%TD*%
%TA.AperFunction,Conductor*%
%TO.N,+5V*%
G36*
X121095500Y-52087113D02*
G01*
X121140887Y-52132500D01*
X121157500Y-52194500D01*
X121157500Y-127129500D01*
X121140887Y-127191500D01*
X121095500Y-127236887D01*
X121033500Y-127253500D01*
X100735760Y-127253500D01*
X100735554Y-127253459D01*
X100710998Y-127253459D01*
X100710807Y-127253538D01*
X100710619Y-127253615D01*
X100710615Y-127253618D01*
X100710459Y-127253999D01*
X100710476Y-127278616D01*
X100710471Y-127278616D01*
X100710500Y-127278760D01*
X100710500Y-144755240D01*
X100710459Y-144755446D01*
X100710459Y-144780000D01*
X100710500Y-144780099D01*
X100710617Y-144780383D01*
X100710618Y-144780384D01*
X100710808Y-144780462D01*
X100711000Y-144780541D01*
X100711002Y-144780539D01*
X100735616Y-144780524D01*
X100735616Y-144780528D01*
X100735760Y-144780500D01*
X121033500Y-144780500D01*
X121095500Y-144797113D01*
X121140887Y-144842500D01*
X121157500Y-144904500D01*
X121157500Y-159895500D01*
X121140887Y-159957500D01*
X121095500Y-160002887D01*
X121033500Y-160019500D01*
X72514500Y-160019500D01*
X72452500Y-160002887D01*
X72407113Y-159957500D01*
X72390500Y-159895500D01*
X72390500Y-157861000D01*
X77326540Y-157861000D01*
X77346326Y-158049257D01*
X77404820Y-158229284D01*
X77499466Y-158393216D01*
X77626129Y-158533889D01*
X77779269Y-158645151D01*
X77952197Y-158722144D01*
X78137352Y-158761500D01*
X78137354Y-158761500D01*
X78326646Y-158761500D01*
X78326648Y-158761500D01*
X78450083Y-158735262D01*
X78511803Y-158722144D01*
X78684730Y-158645151D01*
X78837871Y-158533888D01*
X78964533Y-158393216D01*
X79059179Y-158229284D01*
X79117674Y-158049256D01*
X79137460Y-157861000D01*
X79117674Y-157672744D01*
X79059179Y-157492716D01*
X79059179Y-157492715D01*
X78964533Y-157328783D01*
X78837870Y-157188110D01*
X78684730Y-157076848D01*
X78511802Y-156999855D01*
X78326648Y-156960500D01*
X78326646Y-156960500D01*
X78137354Y-156960500D01*
X78137352Y-156960500D01*
X77952197Y-156999855D01*
X77779269Y-157076848D01*
X77626129Y-157188110D01*
X77499466Y-157328783D01*
X77404820Y-157492715D01*
X77346326Y-157672742D01*
X77326540Y-157861000D01*
X72390500Y-157861000D01*
X72390500Y-155193999D01*
X73678356Y-155193999D01*
X73698891Y-155441816D01*
X73698891Y-155441819D01*
X73698892Y-155441821D01*
X73759937Y-155682881D01*
X73759938Y-155682883D01*
X73859825Y-155910604D01*
X73859827Y-155910607D01*
X73995836Y-156118785D01*
X74164256Y-156301738D01*
X74164259Y-156301740D01*
X74360485Y-156454470D01*
X74360487Y-156454471D01*
X74360491Y-156454474D01*
X74579190Y-156572828D01*
X74814386Y-156653571D01*
X75059665Y-156694500D01*
X75308335Y-156694500D01*
X75553614Y-156653571D01*
X75788810Y-156572828D01*
X76007509Y-156454474D01*
X76203744Y-156301738D01*
X76372164Y-156118785D01*
X76508173Y-155910607D01*
X76608063Y-155682881D01*
X76669108Y-155441821D01*
X76678773Y-155325182D01*
X78353500Y-155325182D01*
X78392604Y-155584615D01*
X78469937Y-155835323D01*
X78583772Y-156071704D01*
X78719766Y-156271170D01*
X78731571Y-156288485D01*
X78885587Y-156454474D01*
X78910019Y-156480805D01*
X79115143Y-156644386D01*
X79342357Y-156775568D01*
X79586584Y-156871420D01*
X79842370Y-156929802D01*
X79898408Y-156934001D01*
X80038501Y-156944500D01*
X80038506Y-156944500D01*
X80169494Y-156944500D01*
X80169499Y-156944500D01*
X80292078Y-156935313D01*
X80365630Y-156929802D01*
X80621416Y-156871420D01*
X80865643Y-156775568D01*
X81092857Y-156644386D01*
X81297981Y-156480805D01*
X81464129Y-156301740D01*
X81476428Y-156288485D01*
X81476429Y-156288482D01*
X81476433Y-156288479D01*
X81624228Y-156071704D01*
X81738063Y-155835323D01*
X81805790Y-155615755D01*
X81839510Y-155561808D01*
X81895546Y-155531682D01*
X81959146Y-155533310D01*
X82013568Y-155566262D01*
X82044485Y-155621866D01*
X82059936Y-155682878D01*
X82059937Y-155682881D01*
X82059938Y-155682883D01*
X82159825Y-155910604D01*
X82159827Y-155910607D01*
X82295836Y-156118785D01*
X82464256Y-156301738D01*
X82464259Y-156301740D01*
X82660485Y-156454470D01*
X82660487Y-156454471D01*
X82660491Y-156454474D01*
X82879190Y-156572828D01*
X83114386Y-156653571D01*
X83359665Y-156694500D01*
X83608335Y-156694500D01*
X83853614Y-156653571D01*
X84088810Y-156572828D01*
X84307509Y-156454474D01*
X84503744Y-156301738D01*
X84672164Y-156118785D01*
X84808173Y-155910607D01*
X84908063Y-155682881D01*
X84913794Y-155660246D01*
X84945597Y-155603735D01*
X85001577Y-155571002D01*
X85066423Y-155571002D01*
X85122403Y-155603735D01*
X85154205Y-155660246D01*
X85159937Y-155682881D01*
X85159938Y-155682883D01*
X85259825Y-155910604D01*
X85259827Y-155910607D01*
X85395836Y-156118785D01*
X85564256Y-156301738D01*
X85564259Y-156301740D01*
X85760485Y-156454470D01*
X85760487Y-156454471D01*
X85760491Y-156454474D01*
X85979190Y-156572828D01*
X86214386Y-156653571D01*
X86459665Y-156694500D01*
X86708335Y-156694500D01*
X86953614Y-156653571D01*
X87188810Y-156572828D01*
X87407509Y-156454474D01*
X87603744Y-156301738D01*
X87772164Y-156118785D01*
X87908173Y-155910607D01*
X88008063Y-155682881D01*
X88069108Y-155441821D01*
X88089643Y-155194000D01*
X88089643Y-155193999D01*
X88788356Y-155193999D01*
X88808891Y-155441816D01*
X88808891Y-155441819D01*
X88808892Y-155441821D01*
X88869937Y-155682881D01*
X88869938Y-155682883D01*
X88969825Y-155910604D01*
X88969827Y-155910607D01*
X89105836Y-156118785D01*
X89274256Y-156301738D01*
X89274259Y-156301740D01*
X89470485Y-156454470D01*
X89470487Y-156454471D01*
X89470491Y-156454474D01*
X89689190Y-156572828D01*
X89924386Y-156653571D01*
X90169665Y-156694500D01*
X90418335Y-156694500D01*
X90663614Y-156653571D01*
X90898810Y-156572828D01*
X91117509Y-156454474D01*
X91313744Y-156301738D01*
X91482164Y-156118785D01*
X91618173Y-155910607D01*
X91718063Y-155682881D01*
X91723794Y-155660246D01*
X91755597Y-155603735D01*
X91811577Y-155571002D01*
X91876423Y-155571002D01*
X91932403Y-155603735D01*
X91964205Y-155660246D01*
X91969937Y-155682881D01*
X91969938Y-155682883D01*
X92069825Y-155910604D01*
X92069827Y-155910607D01*
X92205836Y-156118785D01*
X92374256Y-156301738D01*
X92374259Y-156301740D01*
X92570485Y-156454470D01*
X92570487Y-156454471D01*
X92570491Y-156454474D01*
X92789190Y-156572828D01*
X93024386Y-156653571D01*
X93269665Y-156694500D01*
X93518335Y-156694500D01*
X93763614Y-156653571D01*
X93998810Y-156572828D01*
X94217509Y-156454474D01*
X94413744Y-156301738D01*
X94582164Y-156118785D01*
X94718173Y-155910607D01*
X94818063Y-155682881D01*
X94833514Y-155621863D01*
X94864430Y-155566263D01*
X94918852Y-155533310D01*
X94982452Y-155531682D01*
X95038489Y-155561808D01*
X95072210Y-155615757D01*
X95139937Y-155835323D01*
X95253772Y-156071704D01*
X95389766Y-156271170D01*
X95401571Y-156288485D01*
X95555587Y-156454474D01*
X95580019Y-156480805D01*
X95785143Y-156644386D01*
X96012357Y-156775568D01*
X96256584Y-156871420D01*
X96512370Y-156929802D01*
X96568408Y-156934001D01*
X96708501Y-156944500D01*
X96708506Y-156944500D01*
X96839494Y-156944500D01*
X96839499Y-156944500D01*
X96962078Y-156935313D01*
X97035630Y-156929802D01*
X97291416Y-156871420D01*
X97535643Y-156775568D01*
X97762857Y-156644386D01*
X97967981Y-156480805D01*
X98134129Y-156301740D01*
X98146428Y-156288485D01*
X98146429Y-156288482D01*
X98146433Y-156288479D01*
X98294228Y-156071704D01*
X98408063Y-155835323D01*
X98485396Y-155584615D01*
X98524500Y-155325182D01*
X98524500Y-155193999D01*
X100188356Y-155193999D01*
X100208891Y-155441816D01*
X100208891Y-155441819D01*
X100208892Y-155441821D01*
X100269937Y-155682881D01*
X100269938Y-155682883D01*
X100369825Y-155910604D01*
X100369827Y-155910607D01*
X100505836Y-156118785D01*
X100674256Y-156301738D01*
X100674259Y-156301740D01*
X100870485Y-156454470D01*
X100870487Y-156454471D01*
X100870491Y-156454474D01*
X101089190Y-156572828D01*
X101324386Y-156653571D01*
X101569665Y-156694500D01*
X101818335Y-156694500D01*
X102063614Y-156653571D01*
X102298810Y-156572828D01*
X102517509Y-156454474D01*
X102713744Y-156301738D01*
X102882164Y-156118785D01*
X103018173Y-155910607D01*
X103118063Y-155682881D01*
X103179108Y-155441821D01*
X103199643Y-155194000D01*
X103199643Y-155193999D01*
X105585356Y-155193999D01*
X105605891Y-155441816D01*
X105605891Y-155441819D01*
X105605892Y-155441821D01*
X105666937Y-155682881D01*
X105666938Y-155682883D01*
X105766825Y-155910604D01*
X105766827Y-155910607D01*
X105902836Y-156118785D01*
X106071256Y-156301738D01*
X106071259Y-156301740D01*
X106267485Y-156454470D01*
X106267487Y-156454471D01*
X106267491Y-156454474D01*
X106486190Y-156572828D01*
X106721386Y-156653571D01*
X106966665Y-156694500D01*
X107215335Y-156694500D01*
X107460614Y-156653571D01*
X107695810Y-156572828D01*
X107914509Y-156454474D01*
X108110744Y-156301738D01*
X108279164Y-156118785D01*
X108415173Y-155910607D01*
X108515063Y-155682881D01*
X108520794Y-155660246D01*
X108552597Y-155603735D01*
X108608577Y-155571002D01*
X108673423Y-155571002D01*
X108729403Y-155603735D01*
X108761205Y-155660246D01*
X108766937Y-155682881D01*
X108766938Y-155682883D01*
X108866825Y-155910604D01*
X108866827Y-155910607D01*
X109002836Y-156118785D01*
X109171256Y-156301738D01*
X109171259Y-156301740D01*
X109367485Y-156454470D01*
X109367487Y-156454471D01*
X109367491Y-156454474D01*
X109586190Y-156572828D01*
X109821386Y-156653571D01*
X110066665Y-156694500D01*
X110315335Y-156694500D01*
X110560614Y-156653571D01*
X110795810Y-156572828D01*
X111014509Y-156454474D01*
X111210744Y-156301738D01*
X111379164Y-156118785D01*
X111515173Y-155910607D01*
X111615063Y-155682881D01*
X111630514Y-155621863D01*
X111661430Y-155566263D01*
X111715852Y-155533310D01*
X111779452Y-155531682D01*
X111835489Y-155561808D01*
X111869210Y-155615757D01*
X111936937Y-155835323D01*
X112050772Y-156071704D01*
X112186766Y-156271170D01*
X112198571Y-156288485D01*
X112352587Y-156454474D01*
X112377019Y-156480805D01*
X112582143Y-156644386D01*
X112809357Y-156775568D01*
X113053584Y-156871420D01*
X113309370Y-156929802D01*
X113365408Y-156934001D01*
X113505501Y-156944500D01*
X113505506Y-156944500D01*
X113636494Y-156944500D01*
X113636499Y-156944500D01*
X113759078Y-156935313D01*
X113832630Y-156929802D01*
X114088416Y-156871420D01*
X114332643Y-156775568D01*
X114559857Y-156644386D01*
X114764981Y-156480805D01*
X114931129Y-156301740D01*
X114943428Y-156288485D01*
X114943429Y-156288482D01*
X114943433Y-156288479D01*
X115091228Y-156071704D01*
X115205063Y-155835323D01*
X115282396Y-155584615D01*
X115321500Y-155325182D01*
X115321500Y-155193999D01*
X116985356Y-155193999D01*
X117005891Y-155441816D01*
X117005891Y-155441819D01*
X117005892Y-155441821D01*
X117066937Y-155682881D01*
X117066938Y-155682883D01*
X117166825Y-155910604D01*
X117166827Y-155910607D01*
X117302836Y-156118785D01*
X117471256Y-156301738D01*
X117471259Y-156301740D01*
X117667485Y-156454470D01*
X117667487Y-156454471D01*
X117667491Y-156454474D01*
X117886190Y-156572828D01*
X118121386Y-156653571D01*
X118366665Y-156694500D01*
X118615335Y-156694500D01*
X118860614Y-156653571D01*
X119095810Y-156572828D01*
X119314509Y-156454474D01*
X119510744Y-156301738D01*
X119679164Y-156118785D01*
X119815173Y-155910607D01*
X119915063Y-155682881D01*
X119976108Y-155441821D01*
X119996643Y-155194000D01*
X119976108Y-154946179D01*
X119915063Y-154705119D01*
X119815173Y-154477393D01*
X119679164Y-154269215D01*
X119510744Y-154086262D01*
X119488612Y-154069036D01*
X119314514Y-153933529D01*
X119314510Y-153933526D01*
X119314509Y-153933526D01*
X119095810Y-153815172D01*
X119095806Y-153815170D01*
X119095805Y-153815170D01*
X118860615Y-153734429D01*
X118615335Y-153693500D01*
X118366665Y-153693500D01*
X118121384Y-153734429D01*
X117886194Y-153815170D01*
X117667485Y-153933529D01*
X117471259Y-154086259D01*
X117302837Y-154269214D01*
X117166825Y-154477395D01*
X117076780Y-154682678D01*
X117066937Y-154705119D01*
X117037405Y-154821737D01*
X117005891Y-154946183D01*
X116985356Y-155193999D01*
X115321500Y-155193999D01*
X115321500Y-155062818D01*
X115282396Y-154803385D01*
X115205063Y-154552677D01*
X115091228Y-154316296D01*
X114943433Y-154099521D01*
X114943432Y-154099520D01*
X114943428Y-154099514D01*
X114764984Y-153907198D01*
X114764983Y-153907197D01*
X114764981Y-153907195D01*
X114559857Y-153743614D01*
X114559856Y-153743613D01*
X114332641Y-153612431D01*
X114088418Y-153516580D01*
X113832627Y-153458197D01*
X113636499Y-153443500D01*
X113636494Y-153443500D01*
X113505506Y-153443500D01*
X113505501Y-153443500D01*
X113309372Y-153458197D01*
X113053581Y-153516580D01*
X112809358Y-153612431D01*
X112582143Y-153743613D01*
X112377015Y-153907198D01*
X112198571Y-154099514D01*
X112050771Y-154316298D01*
X111936937Y-154552677D01*
X111869210Y-154772242D01*
X111835489Y-154826191D01*
X111779452Y-154856317D01*
X111715852Y-154854689D01*
X111661430Y-154821736D01*
X111630514Y-154766134D01*
X111615063Y-154705119D01*
X111515173Y-154477393D01*
X111379164Y-154269215D01*
X111210744Y-154086262D01*
X111188612Y-154069036D01*
X111014514Y-153933529D01*
X111014510Y-153933526D01*
X111014509Y-153933526D01*
X110795810Y-153815172D01*
X110795806Y-153815170D01*
X110795805Y-153815170D01*
X110560615Y-153734429D01*
X110315335Y-153693500D01*
X110066665Y-153693500D01*
X109821384Y-153734429D01*
X109586194Y-153815170D01*
X109367485Y-153933529D01*
X109171259Y-154086259D01*
X109002837Y-154269214D01*
X108866825Y-154477395D01*
X108766936Y-154705121D01*
X108761205Y-154727752D01*
X108729403Y-154784265D01*
X108673423Y-154816997D01*
X108608577Y-154816997D01*
X108552597Y-154784265D01*
X108520795Y-154727752D01*
X108517901Y-154716328D01*
X108515063Y-154705119D01*
X108415173Y-154477393D01*
X108279164Y-154269215D01*
X108110744Y-154086262D01*
X108088612Y-154069036D01*
X107914514Y-153933529D01*
X107914510Y-153933526D01*
X107914509Y-153933526D01*
X107695810Y-153815172D01*
X107695806Y-153815170D01*
X107695805Y-153815170D01*
X107460615Y-153734429D01*
X107215335Y-153693500D01*
X106966665Y-153693500D01*
X106721384Y-153734429D01*
X106486194Y-153815170D01*
X106267485Y-153933529D01*
X106071259Y-154086259D01*
X105902837Y-154269214D01*
X105766825Y-154477395D01*
X105676780Y-154682678D01*
X105666937Y-154705119D01*
X105637405Y-154821737D01*
X105605891Y-154946183D01*
X105585356Y-155193999D01*
X103199643Y-155193999D01*
X103179108Y-154946179D01*
X103118063Y-154705119D01*
X103018173Y-154477393D01*
X102882164Y-154269215D01*
X102713744Y-154086262D01*
X102691612Y-154069036D01*
X102517514Y-153933529D01*
X102517510Y-153933526D01*
X102517509Y-153933526D01*
X102298810Y-153815172D01*
X102298806Y-153815170D01*
X102298805Y-153815170D01*
X102063615Y-153734429D01*
X101818335Y-153693500D01*
X101569665Y-153693500D01*
X101324384Y-153734429D01*
X101089194Y-153815170D01*
X100870485Y-153933529D01*
X100674259Y-154086259D01*
X100505837Y-154269214D01*
X100369825Y-154477395D01*
X100279780Y-154682678D01*
X100269937Y-154705119D01*
X100240405Y-154821737D01*
X100208891Y-154946183D01*
X100188356Y-155193999D01*
X98524500Y-155193999D01*
X98524500Y-155062818D01*
X98485396Y-154803385D01*
X98408063Y-154552677D01*
X98294228Y-154316296D01*
X98146433Y-154099521D01*
X98146432Y-154099520D01*
X98146428Y-154099514D01*
X97967984Y-153907198D01*
X97967983Y-153907197D01*
X97967981Y-153907195D01*
X97762857Y-153743614D01*
X97762856Y-153743613D01*
X97535641Y-153612431D01*
X97291418Y-153516580D01*
X97035627Y-153458197D01*
X96839499Y-153443500D01*
X96839494Y-153443500D01*
X96708506Y-153443500D01*
X96708501Y-153443500D01*
X96512372Y-153458197D01*
X96256581Y-153516580D01*
X96012358Y-153612431D01*
X95785143Y-153743613D01*
X95580015Y-153907198D01*
X95401571Y-154099514D01*
X95253771Y-154316298D01*
X95139937Y-154552677D01*
X95072210Y-154772242D01*
X95038489Y-154826191D01*
X94982452Y-154856317D01*
X94918852Y-154854689D01*
X94864430Y-154821736D01*
X94833514Y-154766134D01*
X94818063Y-154705119D01*
X94718173Y-154477393D01*
X94582164Y-154269215D01*
X94413744Y-154086262D01*
X94391612Y-154069036D01*
X94217514Y-153933529D01*
X94217510Y-153933526D01*
X94217509Y-153933526D01*
X93998810Y-153815172D01*
X93998806Y-153815170D01*
X93998805Y-153815170D01*
X93763615Y-153734429D01*
X93518335Y-153693500D01*
X93269665Y-153693500D01*
X93024384Y-153734429D01*
X92789194Y-153815170D01*
X92570485Y-153933529D01*
X92374259Y-154086259D01*
X92205837Y-154269214D01*
X92069825Y-154477395D01*
X91969936Y-154705121D01*
X91964205Y-154727752D01*
X91932403Y-154784265D01*
X91876423Y-154816997D01*
X91811577Y-154816997D01*
X91755597Y-154784265D01*
X91723795Y-154727752D01*
X91720901Y-154716328D01*
X91718063Y-154705119D01*
X91618173Y-154477393D01*
X91482164Y-154269215D01*
X91313744Y-154086262D01*
X91291612Y-154069036D01*
X91117514Y-153933529D01*
X91117510Y-153933526D01*
X91117509Y-153933526D01*
X90898810Y-153815172D01*
X90898806Y-153815170D01*
X90898805Y-153815170D01*
X90663615Y-153734429D01*
X90418335Y-153693500D01*
X90169665Y-153693500D01*
X89924384Y-153734429D01*
X89689194Y-153815170D01*
X89470485Y-153933529D01*
X89274259Y-154086259D01*
X89105837Y-154269214D01*
X88969825Y-154477395D01*
X88879780Y-154682678D01*
X88869937Y-154705119D01*
X88840405Y-154821737D01*
X88808891Y-154946183D01*
X88788356Y-155193999D01*
X88089643Y-155193999D01*
X88069108Y-154946179D01*
X88008063Y-154705119D01*
X87908173Y-154477393D01*
X87772164Y-154269215D01*
X87603744Y-154086262D01*
X87581612Y-154069036D01*
X87407514Y-153933529D01*
X87407510Y-153933526D01*
X87407509Y-153933526D01*
X87188810Y-153815172D01*
X87188806Y-153815170D01*
X87188805Y-153815170D01*
X86953615Y-153734429D01*
X86708335Y-153693500D01*
X86459665Y-153693500D01*
X86214384Y-153734429D01*
X85979194Y-153815170D01*
X85760485Y-153933529D01*
X85564259Y-154086259D01*
X85395837Y-154269214D01*
X85259825Y-154477395D01*
X85159936Y-154705121D01*
X85154205Y-154727752D01*
X85122403Y-154784265D01*
X85066423Y-154816997D01*
X85001577Y-154816997D01*
X84945597Y-154784265D01*
X84913795Y-154727752D01*
X84910901Y-154716328D01*
X84908063Y-154705119D01*
X84808173Y-154477393D01*
X84672164Y-154269215D01*
X84503744Y-154086262D01*
X84481612Y-154069036D01*
X84307514Y-153933529D01*
X84307510Y-153933526D01*
X84307509Y-153933526D01*
X84088810Y-153815172D01*
X84088806Y-153815170D01*
X84088805Y-153815170D01*
X83853615Y-153734429D01*
X83608335Y-153693500D01*
X83359665Y-153693500D01*
X83114384Y-153734429D01*
X82879194Y-153815170D01*
X82660485Y-153933529D01*
X82464259Y-154086259D01*
X82295837Y-154269214D01*
X82159825Y-154477395D01*
X82059936Y-154705120D01*
X82044485Y-154766134D01*
X82013568Y-154821737D01*
X81959146Y-154854689D01*
X81895546Y-154856317D01*
X81839510Y-154826191D01*
X81805789Y-154772241D01*
X81803905Y-154766134D01*
X81738063Y-154552677D01*
X81624228Y-154316296D01*
X81476433Y-154099521D01*
X81476432Y-154099520D01*
X81476428Y-154099514D01*
X81297984Y-153907198D01*
X81297983Y-153907197D01*
X81297981Y-153907195D01*
X81092857Y-153743614D01*
X81092856Y-153743613D01*
X80865641Y-153612431D01*
X80621418Y-153516580D01*
X80365627Y-153458197D01*
X80169499Y-153443500D01*
X80169494Y-153443500D01*
X80038506Y-153443500D01*
X80038501Y-153443500D01*
X79842372Y-153458197D01*
X79586581Y-153516580D01*
X79342358Y-153612431D01*
X79115143Y-153743613D01*
X78910015Y-153907198D01*
X78731571Y-154099514D01*
X78631070Y-154246922D01*
X78583772Y-154316296D01*
X78469937Y-154552677D01*
X78392604Y-154803385D01*
X78353500Y-155062818D01*
X78353500Y-155325182D01*
X76678773Y-155325182D01*
X76689643Y-155194000D01*
X76669108Y-154946179D01*
X76608063Y-154705119D01*
X76508173Y-154477393D01*
X76372164Y-154269215D01*
X76203744Y-154086262D01*
X76181612Y-154069036D01*
X76007514Y-153933529D01*
X76007510Y-153933526D01*
X76007509Y-153933526D01*
X75788810Y-153815172D01*
X75788806Y-153815170D01*
X75788805Y-153815170D01*
X75553615Y-153734429D01*
X75308335Y-153693500D01*
X75059665Y-153693500D01*
X74814384Y-153734429D01*
X74579194Y-153815170D01*
X74360485Y-153933529D01*
X74164259Y-154086259D01*
X73995837Y-154269214D01*
X73859825Y-154477395D01*
X73769780Y-154682678D01*
X73759937Y-154705119D01*
X73730405Y-154821737D01*
X73698891Y-154946183D01*
X73678356Y-155193999D01*
X72390500Y-155193999D01*
X72390500Y-149097999D01*
X90915540Y-149097999D01*
X90935326Y-149286257D01*
X90993820Y-149466284D01*
X91088466Y-149630216D01*
X91215129Y-149770889D01*
X91368269Y-149882151D01*
X91541197Y-149959144D01*
X91726352Y-149998500D01*
X91726354Y-149998500D01*
X91915646Y-149998500D01*
X91915648Y-149998500D01*
X92039084Y-149972262D01*
X92100803Y-149959144D01*
X92273730Y-149882151D01*
X92426871Y-149770888D01*
X92553533Y-149630216D01*
X92648179Y-149466284D01*
X92706674Y-149286256D01*
X92726460Y-149098000D01*
X92706674Y-148909744D01*
X92648179Y-148729716D01*
X92648179Y-148729715D01*
X92553533Y-148565783D01*
X92426870Y-148425110D01*
X92273730Y-148313848D01*
X92100802Y-148236855D01*
X91915648Y-148197500D01*
X91915646Y-148197500D01*
X91726354Y-148197500D01*
X91726352Y-148197500D01*
X91541197Y-148236855D01*
X91368269Y-148313848D01*
X91215129Y-148425110D01*
X91088466Y-148565783D01*
X90993820Y-148729715D01*
X90935326Y-148909742D01*
X90915540Y-149097999D01*
X72390500Y-149097999D01*
X72390500Y-147701000D01*
X74553531Y-147701000D01*
X74573364Y-147927689D01*
X74632261Y-148147497D01*
X74728432Y-148353735D01*
X74858953Y-148540140D01*
X75019859Y-148701046D01*
X75206264Y-148831567D01*
X75206265Y-148831567D01*
X75206266Y-148831568D01*
X75412504Y-148927739D01*
X75632308Y-148986635D01*
X75859000Y-149006468D01*
X76085692Y-148986635D01*
X76305496Y-148927739D01*
X76511734Y-148831568D01*
X76698139Y-148701047D01*
X76859047Y-148540139D01*
X76989568Y-148353734D01*
X77085739Y-148147496D01*
X77144635Y-147927692D01*
X77164468Y-147701000D01*
X79553531Y-147701000D01*
X79573364Y-147927689D01*
X79632261Y-148147497D01*
X79728432Y-148353735D01*
X79858953Y-148540140D01*
X80019859Y-148701046D01*
X80206264Y-148831567D01*
X80206265Y-148831567D01*
X80206266Y-148831568D01*
X80412504Y-148927739D01*
X80632308Y-148986635D01*
X80859000Y-149006468D01*
X81085692Y-148986635D01*
X81305496Y-148927739D01*
X81511734Y-148831568D01*
X81698139Y-148701047D01*
X81859047Y-148540139D01*
X81989568Y-148353734D01*
X82085739Y-148147496D01*
X82144635Y-147927692D01*
X82164468Y-147701000D01*
X86470540Y-147701000D01*
X86490326Y-147889257D01*
X86548820Y-148069284D01*
X86643466Y-148233216D01*
X86770129Y-148373889D01*
X86923269Y-148485151D01*
X87096197Y-148562144D01*
X87281352Y-148601500D01*
X87281354Y-148601500D01*
X87470646Y-148601500D01*
X87470648Y-148601500D01*
X87594084Y-148575262D01*
X87655803Y-148562144D01*
X87828730Y-148485151D01*
X87981871Y-148373888D01*
X88108533Y-148233216D01*
X88195837Y-148082000D01*
X96376540Y-148082000D01*
X96396326Y-148270257D01*
X96454820Y-148450284D01*
X96549466Y-148614216D01*
X96676129Y-148754889D01*
X96829269Y-148866151D01*
X97002197Y-148943144D01*
X97187352Y-148982500D01*
X97187354Y-148982500D01*
X97376646Y-148982500D01*
X97376648Y-148982500D01*
X97500084Y-148956262D01*
X97561803Y-148943144D01*
X97734730Y-148866151D01*
X97753011Y-148852869D01*
X108011500Y-148852869D01*
X108017909Y-148912484D01*
X108023599Y-148927739D01*
X108068204Y-149047331D01*
X108154454Y-149162546D01*
X108269669Y-149248796D01*
X108404517Y-149299091D01*
X108464127Y-149305500D01*
X110259872Y-149305499D01*
X110319483Y-149299091D01*
X110454331Y-149248796D01*
X110569546Y-149162546D01*
X110655796Y-149047331D01*
X110704810Y-148915916D01*
X110739789Y-148865537D01*
X110794634Y-148838084D01*
X110855927Y-148840273D01*
X110908673Y-148871569D01*
X111030599Y-148993495D01*
X111224170Y-149129035D01*
X111438337Y-149228903D01*
X111666592Y-149290063D01*
X111902000Y-149310659D01*
X112137408Y-149290063D01*
X112365663Y-149228903D01*
X112579830Y-149129035D01*
X112773401Y-148993495D01*
X112940495Y-148826401D01*
X113070426Y-148640839D01*
X113114743Y-148601976D01*
X113172000Y-148587965D01*
X113229257Y-148601976D01*
X113273573Y-148640839D01*
X113403505Y-148826401D01*
X113570599Y-148993495D01*
X113764170Y-149129035D01*
X113978337Y-149228903D01*
X114206592Y-149290063D01*
X114442000Y-149310659D01*
X114677408Y-149290063D01*
X114905663Y-149228903D01*
X115119830Y-149129035D01*
X115313401Y-148993495D01*
X115480495Y-148826401D01*
X115616035Y-148632830D01*
X115715903Y-148418663D01*
X115777063Y-148190408D01*
X115797659Y-147955000D01*
X115777063Y-147719592D01*
X115715903Y-147491337D01*
X115616035Y-147277171D01*
X115480495Y-147083599D01*
X115313401Y-146916505D01*
X115119830Y-146780965D01*
X114905663Y-146681097D01*
X114844502Y-146664709D01*
X114677407Y-146619936D01*
X114442000Y-146599340D01*
X114206592Y-146619936D01*
X113978336Y-146681097D01*
X113764170Y-146780965D01*
X113570598Y-146916505D01*
X113403505Y-147083598D01*
X113273575Y-147269159D01*
X113229257Y-147308025D01*
X113172000Y-147322036D01*
X113114743Y-147308025D01*
X113070425Y-147269159D01*
X112940494Y-147083598D01*
X112773404Y-146916508D01*
X112773403Y-146916507D01*
X112773401Y-146916505D01*
X112579830Y-146780965D01*
X112365663Y-146681097D01*
X112304502Y-146664709D01*
X112137407Y-146619936D01*
X111902000Y-146599340D01*
X111666592Y-146619936D01*
X111438336Y-146681097D01*
X111224170Y-146780965D01*
X111030601Y-146916503D01*
X110908673Y-147038431D01*
X110855926Y-147069726D01*
X110794634Y-147071915D01*
X110739789Y-147044462D01*
X110704810Y-146994082D01*
X110697658Y-146974907D01*
X110655796Y-146862669D01*
X110569546Y-146747454D01*
X110454331Y-146661204D01*
X110319483Y-146610909D01*
X110259873Y-146604500D01*
X110259869Y-146604500D01*
X108464130Y-146604500D01*
X108404515Y-146610909D01*
X108269669Y-146661204D01*
X108154454Y-146747454D01*
X108068204Y-146862668D01*
X108017909Y-146997516D01*
X108011500Y-147057130D01*
X108011500Y-148852869D01*
X97753011Y-148852869D01*
X97789437Y-148826404D01*
X97887870Y-148754889D01*
X98014533Y-148614216D01*
X98109179Y-148450284D01*
X98117358Y-148425112D01*
X98167674Y-148270256D01*
X98187460Y-148082000D01*
X98167674Y-147893744D01*
X98137332Y-147800363D01*
X98109179Y-147713715D01*
X98014533Y-147549783D01*
X97887870Y-147409110D01*
X97734730Y-147297848D01*
X97561802Y-147220855D01*
X97376648Y-147181500D01*
X97376646Y-147181500D01*
X97187354Y-147181500D01*
X97187352Y-147181500D01*
X97002197Y-147220855D01*
X96829269Y-147297848D01*
X96676129Y-147409110D01*
X96549466Y-147549783D01*
X96454820Y-147713715D01*
X96396326Y-147893742D01*
X96376540Y-148082000D01*
X88195837Y-148082000D01*
X88203179Y-148069284D01*
X88261674Y-147889256D01*
X88281460Y-147701000D01*
X88261674Y-147512744D01*
X88203179Y-147332716D01*
X88203179Y-147332715D01*
X88108533Y-147168783D01*
X87981870Y-147028110D01*
X87828730Y-146916848D01*
X87655802Y-146839855D01*
X87470648Y-146800500D01*
X87470646Y-146800500D01*
X87281354Y-146800500D01*
X87281352Y-146800500D01*
X87096197Y-146839855D01*
X86923269Y-146916848D01*
X86770129Y-147028110D01*
X86643466Y-147168783D01*
X86548820Y-147332715D01*
X86490326Y-147512742D01*
X86470540Y-147701000D01*
X82164468Y-147701000D01*
X82144635Y-147474308D01*
X82085739Y-147254504D01*
X81989568Y-147048266D01*
X81986904Y-147044462D01*
X81859046Y-146861859D01*
X81698140Y-146700953D01*
X81511735Y-146570432D01*
X81305497Y-146474261D01*
X81085689Y-146415364D01*
X80859000Y-146395531D01*
X80632310Y-146415364D01*
X80412502Y-146474261D01*
X80206264Y-146570432D01*
X80019859Y-146700953D01*
X79858953Y-146861859D01*
X79728432Y-147048264D01*
X79632261Y-147254502D01*
X79573364Y-147474310D01*
X79553531Y-147701000D01*
X77164468Y-147701000D01*
X77144635Y-147474308D01*
X77085739Y-147254504D01*
X76989568Y-147048266D01*
X76986904Y-147044462D01*
X76859046Y-146861859D01*
X76698140Y-146700953D01*
X76511735Y-146570432D01*
X76305497Y-146474261D01*
X76085689Y-146415364D01*
X75859000Y-146395531D01*
X75632310Y-146415364D01*
X75412502Y-146474261D01*
X75206264Y-146570432D01*
X75019859Y-146700953D01*
X74858953Y-146861859D01*
X74728432Y-147048264D01*
X74632261Y-147254502D01*
X74573364Y-147474310D01*
X74553531Y-147701000D01*
X72390500Y-147701000D01*
X72390500Y-145702500D01*
X90001562Y-145702500D01*
X90021348Y-145890757D01*
X90079842Y-146070784D01*
X90174488Y-146234716D01*
X90301151Y-146375389D01*
X90454291Y-146486651D01*
X90627219Y-146563644D01*
X90812374Y-146603000D01*
X90812376Y-146603000D01*
X91001668Y-146603000D01*
X91001670Y-146603000D01*
X91125106Y-146576762D01*
X91186825Y-146563644D01*
X91359752Y-146486651D01*
X91485167Y-146395532D01*
X91512892Y-146375389D01*
X91639555Y-146234716D01*
X91734201Y-146070784D01*
X91734201Y-146070783D01*
X91792696Y-145890756D01*
X91812482Y-145702500D01*
X91792696Y-145514244D01*
X91734201Y-145334216D01*
X91734201Y-145334215D01*
X91639555Y-145170283D01*
X91512892Y-145029610D01*
X91359752Y-144918348D01*
X91186824Y-144841355D01*
X91001670Y-144802000D01*
X91001668Y-144802000D01*
X90812376Y-144802000D01*
X90812374Y-144802000D01*
X90627219Y-144841355D01*
X90454291Y-144918348D01*
X90301151Y-145029610D01*
X90174488Y-145170283D01*
X90079842Y-145334215D01*
X90021348Y-145514242D01*
X90001562Y-145702500D01*
X72390500Y-145702500D01*
X72390500Y-143470000D01*
X75021531Y-143470000D01*
X75041364Y-143696689D01*
X75100261Y-143916497D01*
X75196432Y-144122735D01*
X75326953Y-144309140D01*
X75487859Y-144470046D01*
X75674264Y-144600567D01*
X75674265Y-144600567D01*
X75674266Y-144600568D01*
X75880504Y-144696739D01*
X76100308Y-144755635D01*
X76327000Y-144775468D01*
X76553692Y-144755635D01*
X76773496Y-144696739D01*
X76979734Y-144600568D01*
X77166139Y-144470047D01*
X77327047Y-144309139D01*
X77457568Y-144122734D01*
X77553739Y-143916496D01*
X77605318Y-143723999D01*
X80168699Y-143723999D01*
X80187865Y-143955299D01*
X80187865Y-143955301D01*
X80187866Y-143955305D01*
X80244843Y-144180300D01*
X80338076Y-144392849D01*
X80465021Y-144587153D01*
X80622216Y-144757913D01*
X80805374Y-144900470D01*
X81009497Y-145010936D01*
X81119258Y-145048617D01*
X81229015Y-145086297D01*
X81229017Y-145086297D01*
X81229019Y-145086298D01*
X81457951Y-145124500D01*
X81690048Y-145124500D01*
X81690049Y-145124500D01*
X81918981Y-145086298D01*
X82138503Y-145010936D01*
X82342626Y-144900470D01*
X82525784Y-144757913D01*
X82682979Y-144587153D01*
X82720193Y-144530191D01*
X82764980Y-144488962D01*
X82823998Y-144474016D01*
X82883016Y-144488961D01*
X82927807Y-144530194D01*
X82965018Y-144587149D01*
X82965021Y-144587153D01*
X83122216Y-144757913D01*
X83305374Y-144900470D01*
X83509497Y-145010936D01*
X83619258Y-145048617D01*
X83729015Y-145086297D01*
X83729017Y-145086297D01*
X83729019Y-145086298D01*
X83957951Y-145124500D01*
X84190048Y-145124500D01*
X84190049Y-145124500D01*
X84418981Y-145086298D01*
X84638503Y-145010936D01*
X84842626Y-144900470D01*
X85025784Y-144757913D01*
X85182979Y-144587153D01*
X85220193Y-144530191D01*
X85264980Y-144488962D01*
X85323998Y-144474016D01*
X85383016Y-144488961D01*
X85427807Y-144530194D01*
X85465018Y-144587149D01*
X85465021Y-144587153D01*
X85622216Y-144757913D01*
X85805374Y-144900470D01*
X86009497Y-145010936D01*
X86119258Y-145048617D01*
X86229015Y-145086297D01*
X86229017Y-145086297D01*
X86229019Y-145086298D01*
X86457951Y-145124500D01*
X86690048Y-145124500D01*
X86690049Y-145124500D01*
X86918981Y-145086298D01*
X87138503Y-145010936D01*
X87342626Y-144900470D01*
X87525784Y-144757913D01*
X87682979Y-144587153D01*
X87809924Y-144392849D01*
X87903157Y-144180300D01*
X87960134Y-143955305D01*
X87979300Y-143724000D01*
X87960134Y-143492695D01*
X87903157Y-143267700D01*
X87809924Y-143055151D01*
X87682979Y-142860847D01*
X87525784Y-142690087D01*
X87373875Y-142571852D01*
X87338639Y-142528460D01*
X87326039Y-142474000D01*
X87338639Y-142419540D01*
X87373875Y-142376147D01*
X87525784Y-142257913D01*
X87659185Y-142113000D01*
X88248540Y-142113000D01*
X88268326Y-142301257D01*
X88326820Y-142481284D01*
X88421466Y-142645216D01*
X88548129Y-142785889D01*
X88701269Y-142897151D01*
X88874197Y-142974144D01*
X89059352Y-143013500D01*
X89059354Y-143013500D01*
X89248646Y-143013500D01*
X89248648Y-143013500D01*
X89372083Y-142987262D01*
X89433803Y-142974144D01*
X89606730Y-142897151D01*
X89716683Y-142817266D01*
X89759870Y-142785889D01*
X89886533Y-142645216D01*
X89981179Y-142481284D01*
X90007437Y-142400470D01*
X90039674Y-142301256D01*
X90059460Y-142113000D01*
X92312540Y-142113000D01*
X92332326Y-142301257D01*
X92390820Y-142481284D01*
X92485466Y-142645216D01*
X92612129Y-142785889D01*
X92765269Y-142897151D01*
X92938197Y-142974144D01*
X93123352Y-143013500D01*
X93123354Y-143013500D01*
X93312646Y-143013500D01*
X93312648Y-143013500D01*
X93436083Y-142987262D01*
X93497803Y-142974144D01*
X93670730Y-142897151D01*
X93780683Y-142817266D01*
X93823870Y-142785889D01*
X93950533Y-142645216D01*
X94045179Y-142481284D01*
X94071437Y-142400470D01*
X94103674Y-142301256D01*
X94123460Y-142113000D01*
X94103674Y-141924744D01*
X94045179Y-141744716D01*
X94045179Y-141744715D01*
X93950533Y-141580783D01*
X93823870Y-141440110D01*
X93670730Y-141328848D01*
X93497802Y-141251855D01*
X93312648Y-141212500D01*
X93312646Y-141212500D01*
X93123354Y-141212500D01*
X93123352Y-141212500D01*
X92938197Y-141251855D01*
X92765269Y-141328848D01*
X92612129Y-141440110D01*
X92485466Y-141580783D01*
X92390820Y-141744715D01*
X92332326Y-141924742D01*
X92312540Y-142113000D01*
X90059460Y-142113000D01*
X90039674Y-141924744D01*
X89981179Y-141744716D01*
X89981179Y-141744715D01*
X89886533Y-141580783D01*
X89759870Y-141440110D01*
X89606730Y-141328848D01*
X89433802Y-141251855D01*
X89248648Y-141212500D01*
X89248646Y-141212500D01*
X89059354Y-141212500D01*
X89059352Y-141212500D01*
X88874197Y-141251855D01*
X88701269Y-141328848D01*
X88548129Y-141440110D01*
X88421466Y-141580783D01*
X88326820Y-141744715D01*
X88268326Y-141924742D01*
X88248540Y-142113000D01*
X87659185Y-142113000D01*
X87682979Y-142087153D01*
X87809924Y-141892849D01*
X87903157Y-141680300D01*
X87960134Y-141455305D01*
X87979300Y-141224000D01*
X87960134Y-140992695D01*
X87903157Y-140767700D01*
X87824771Y-140588999D01*
X96630540Y-140588999D01*
X96650326Y-140777257D01*
X96708820Y-140957284D01*
X96803466Y-141121216D01*
X96930129Y-141261889D01*
X97083269Y-141373151D01*
X97256197Y-141450144D01*
X97441352Y-141489500D01*
X97441354Y-141489500D01*
X97630646Y-141489500D01*
X97630648Y-141489500D01*
X97791550Y-141455299D01*
X97815803Y-141450144D01*
X97988730Y-141373151D01*
X98141871Y-141261888D01*
X98268533Y-141121216D01*
X98363179Y-140957284D01*
X98421674Y-140777256D01*
X98441460Y-140589000D01*
X98421674Y-140400744D01*
X98363179Y-140220716D01*
X98363179Y-140220715D01*
X98268533Y-140056783D01*
X98141870Y-139916110D01*
X97988730Y-139804848D01*
X97815802Y-139727855D01*
X97630648Y-139688500D01*
X97630646Y-139688500D01*
X97441354Y-139688500D01*
X97441352Y-139688500D01*
X97256197Y-139727855D01*
X97083269Y-139804848D01*
X96930129Y-139916110D01*
X96803466Y-140056783D01*
X96708820Y-140220715D01*
X96650326Y-140400742D01*
X96630540Y-140588999D01*
X87824771Y-140588999D01*
X87809924Y-140555151D01*
X87682979Y-140360847D01*
X87525784Y-140190087D01*
X87342626Y-140047530D01*
X87138503Y-139937064D01*
X87138499Y-139937062D01*
X87138498Y-139937062D01*
X86918984Y-139861702D01*
X86728456Y-139829909D01*
X86690049Y-139823500D01*
X86457951Y-139823500D01*
X86419544Y-139829909D01*
X86229015Y-139861702D01*
X86009501Y-139937062D01*
X85805372Y-140047531D01*
X85622215Y-140190087D01*
X85543010Y-140276128D01*
X85465021Y-140360847D01*
X85438957Y-140400742D01*
X85427809Y-140417805D01*
X85383017Y-140459038D01*
X85324000Y-140473983D01*
X85264983Y-140459038D01*
X85220191Y-140417805D01*
X85182979Y-140360847D01*
X85025784Y-140190087D01*
X84842626Y-140047530D01*
X84638503Y-139937064D01*
X84638499Y-139937062D01*
X84638498Y-139937062D01*
X84418984Y-139861702D01*
X84228456Y-139829909D01*
X84190049Y-139823500D01*
X83957951Y-139823500D01*
X83919544Y-139829909D01*
X83729015Y-139861702D01*
X83509501Y-139937062D01*
X83305372Y-140047531D01*
X83128436Y-140185245D01*
X83076007Y-140209099D01*
X83018458Y-140206691D01*
X82968205Y-140178541D01*
X82936092Y-140130724D01*
X82917796Y-140081669D01*
X82831546Y-139966454D01*
X82716331Y-139880204D01*
X82581483Y-139829909D01*
X82521873Y-139823500D01*
X82521869Y-139823500D01*
X80626130Y-139823500D01*
X80566515Y-139829909D01*
X80431669Y-139880204D01*
X80316454Y-139966454D01*
X80230204Y-140081668D01*
X80179909Y-140216516D01*
X80173500Y-140276130D01*
X80173500Y-142171869D01*
X80179909Y-142231483D01*
X80230204Y-142366331D01*
X80316454Y-142481546D01*
X80431669Y-142567796D01*
X80484495Y-142587498D01*
X80534029Y-142621513D01*
X80561756Y-142674823D01*
X80561164Y-142734909D01*
X80532391Y-142787662D01*
X80465022Y-142860844D01*
X80338076Y-143055150D01*
X80244844Y-143267696D01*
X80187865Y-143492700D01*
X80168699Y-143723999D01*
X77605318Y-143723999D01*
X77612635Y-143696692D01*
X77632468Y-143470000D01*
X77612635Y-143243308D01*
X77553739Y-143023504D01*
X77457568Y-142817266D01*
X77436839Y-142787662D01*
X77327046Y-142630859D01*
X77166140Y-142469953D01*
X76979735Y-142339432D01*
X76773497Y-142243261D01*
X76553689Y-142184364D01*
X76327000Y-142164531D01*
X76100310Y-142184364D01*
X75880502Y-142243261D01*
X75674264Y-142339432D01*
X75487859Y-142469953D01*
X75326953Y-142630859D01*
X75196432Y-142817264D01*
X75100261Y-143023502D01*
X75041364Y-143243310D01*
X75021531Y-143470000D01*
X72390500Y-143470000D01*
X72390500Y-138470000D01*
X75021531Y-138470000D01*
X75041364Y-138696689D01*
X75100261Y-138916497D01*
X75196432Y-139122735D01*
X75326953Y-139309140D01*
X75487859Y-139470046D01*
X75674264Y-139600567D01*
X75674265Y-139600567D01*
X75674266Y-139600568D01*
X75880504Y-139696739D01*
X76100308Y-139755635D01*
X76327000Y-139775468D01*
X76553692Y-139755635D01*
X76773496Y-139696739D01*
X76979734Y-139600568D01*
X77166139Y-139470047D01*
X77327047Y-139309139D01*
X77457568Y-139122734D01*
X77553739Y-138916496D01*
X77612635Y-138696692D01*
X77632468Y-138470000D01*
X77612635Y-138243308D01*
X77553739Y-138023504D01*
X77457568Y-137817266D01*
X77430806Y-137779046D01*
X77327046Y-137630859D01*
X77227493Y-137531306D01*
X82623040Y-137531306D01*
X82642826Y-137719563D01*
X82701320Y-137899590D01*
X82795966Y-138063522D01*
X82922629Y-138204195D01*
X83075769Y-138315457D01*
X83248697Y-138392450D01*
X83433852Y-138431806D01*
X83433854Y-138431806D01*
X83623146Y-138431806D01*
X83623148Y-138431806D01*
X83746584Y-138405568D01*
X83808303Y-138392450D01*
X83981230Y-138315457D01*
X84134371Y-138204194D01*
X84261033Y-138063522D01*
X84355679Y-137899590D01*
X84414174Y-137719562D01*
X84433960Y-137531306D01*
X84414174Y-137343050D01*
X84381750Y-137243261D01*
X84355679Y-137163021D01*
X84261033Y-136999089D01*
X84134370Y-136858416D01*
X83981230Y-136747154D01*
X83808302Y-136670161D01*
X83623148Y-136630806D01*
X83623146Y-136630806D01*
X83433854Y-136630806D01*
X83433852Y-136630806D01*
X83248697Y-136670161D01*
X83075769Y-136747154D01*
X82922629Y-136858416D01*
X82795966Y-136999089D01*
X82701320Y-137163021D01*
X82642826Y-137343048D01*
X82623040Y-137531306D01*
X77227493Y-137531306D01*
X77166140Y-137469953D01*
X76979735Y-137339432D01*
X76773497Y-137243261D01*
X76553689Y-137184364D01*
X76327000Y-137164531D01*
X76100310Y-137184364D01*
X75880502Y-137243261D01*
X75674264Y-137339432D01*
X75487859Y-137469953D01*
X75326953Y-137630859D01*
X75196432Y-137817264D01*
X75100261Y-138023502D01*
X75041364Y-138243310D01*
X75021531Y-138470000D01*
X72390500Y-138470000D01*
X72390500Y-134052003D01*
X77463500Y-134052003D01*
X77478402Y-134255617D01*
X77537616Y-134521438D01*
X77586944Y-134650410D01*
X77634907Y-134775814D01*
X77768196Y-135013310D01*
X77851420Y-135121089D01*
X77934645Y-135228869D01*
X78130704Y-135417894D01*
X78352199Y-135576359D01*
X78594397Y-135700882D01*
X78594403Y-135700885D01*
X78852159Y-135788819D01*
X78852161Y-135788819D01*
X78852163Y-135788820D01*
X79119970Y-135838286D01*
X79392130Y-135848232D01*
X79392130Y-135848231D01*
X79392131Y-135848232D01*
X79662839Y-135818446D01*
X79926326Y-135749562D01*
X80176975Y-135643047D01*
X80409444Y-135501173D01*
X80618779Y-135326963D01*
X80800518Y-135124131D01*
X80950788Y-134896998D01*
X81066386Y-134650406D01*
X81144847Y-134389611D01*
X81184500Y-134120171D01*
X81184500Y-134052003D01*
X86963500Y-134052003D01*
X86978402Y-134255617D01*
X87037616Y-134521438D01*
X87086944Y-134650410D01*
X87134907Y-134775814D01*
X87268196Y-135013310D01*
X87351420Y-135121089D01*
X87434645Y-135228869D01*
X87630704Y-135417894D01*
X87852199Y-135576359D01*
X88094397Y-135700882D01*
X88094403Y-135700885D01*
X88352159Y-135788819D01*
X88352161Y-135788819D01*
X88352163Y-135788820D01*
X88619970Y-135838286D01*
X88892130Y-135848232D01*
X88892130Y-135848231D01*
X88892131Y-135848232D01*
X89162839Y-135818446D01*
X89380903Y-135761436D01*
X89438636Y-135760242D01*
X89490652Y-135785324D01*
X89525667Y-135831245D01*
X89536087Y-135888045D01*
X89519652Y-135943405D01*
X89469820Y-136029715D01*
X89411326Y-136209742D01*
X89391540Y-136398000D01*
X89411326Y-136586257D01*
X89469820Y-136766284D01*
X89564466Y-136930216D01*
X89691129Y-137070889D01*
X89844269Y-137182151D01*
X90017197Y-137259144D01*
X90202352Y-137298500D01*
X90202354Y-137298500D01*
X90391646Y-137298500D01*
X90391648Y-137298500D01*
X90515083Y-137272262D01*
X90576803Y-137259144D01*
X90749730Y-137182151D01*
X90816308Y-137133779D01*
X90871396Y-137111381D01*
X90930581Y-137117210D01*
X90980246Y-137149925D01*
X91008965Y-137202003D01*
X91015259Y-137225493D01*
X91111432Y-137431735D01*
X91241953Y-137618140D01*
X91402859Y-137779046D01*
X91589264Y-137909567D01*
X91589265Y-137909567D01*
X91589266Y-137909568D01*
X91795504Y-138005739D01*
X92015308Y-138064635D01*
X92242000Y-138084468D01*
X92468692Y-138064635D01*
X92688496Y-138005739D01*
X92894734Y-137909568D01*
X93081139Y-137779047D01*
X93242047Y-137618139D01*
X93372568Y-137431734D01*
X93468739Y-137225496D01*
X93527635Y-137005692D01*
X93547468Y-136779000D01*
X95936531Y-136779000D01*
X95956364Y-137005689D01*
X96015261Y-137225497D01*
X96111432Y-137431735D01*
X96241953Y-137618140D01*
X96402859Y-137779046D01*
X96589264Y-137909567D01*
X96589265Y-137909567D01*
X96589266Y-137909568D01*
X96795504Y-138005739D01*
X97015308Y-138064635D01*
X97242000Y-138084468D01*
X97468692Y-138064635D01*
X97688496Y-138005739D01*
X97894734Y-137909568D01*
X98081139Y-137779047D01*
X98242047Y-137618139D01*
X98372568Y-137431734D01*
X98468739Y-137225496D01*
X98527635Y-137005692D01*
X98547468Y-136779000D01*
X98527635Y-136552308D01*
X98468739Y-136332504D01*
X98372568Y-136126266D01*
X98342433Y-136083229D01*
X98242046Y-135939859D01*
X98081140Y-135778953D01*
X97894735Y-135648432D01*
X97688497Y-135552261D01*
X97468689Y-135493364D01*
X97242000Y-135473531D01*
X97015310Y-135493364D01*
X96795502Y-135552261D01*
X96589264Y-135648432D01*
X96402859Y-135778953D01*
X96241953Y-135939859D01*
X96111432Y-136126264D01*
X96015261Y-136332502D01*
X95956364Y-136552310D01*
X95936531Y-136779000D01*
X93547468Y-136779000D01*
X93527635Y-136552308D01*
X93468739Y-136332504D01*
X93372568Y-136126266D01*
X93342433Y-136083229D01*
X93242046Y-135939859D01*
X93081140Y-135778953D01*
X92894735Y-135648432D01*
X92688497Y-135552261D01*
X92468689Y-135493364D01*
X92242000Y-135473531D01*
X92015310Y-135493364D01*
X91795502Y-135552261D01*
X91589264Y-135648432D01*
X91402859Y-135778953D01*
X91248666Y-135933147D01*
X91200843Y-135962885D01*
X91144799Y-135968405D01*
X91092094Y-135948568D01*
X91053597Y-135907465D01*
X91042385Y-135888045D01*
X91029533Y-135865784D01*
X90960234Y-135788820D01*
X90902870Y-135725110D01*
X90749730Y-135613848D01*
X90576802Y-135536855D01*
X90391648Y-135497500D01*
X90391646Y-135497500D01*
X90243575Y-135497500D01*
X90188494Y-135484595D01*
X90144878Y-135448566D01*
X90121805Y-135396913D01*
X90124078Y-135340386D01*
X90151220Y-135290755D01*
X90300518Y-135124131D01*
X90450788Y-134896998D01*
X90566386Y-134650406D01*
X90644847Y-134389611D01*
X90684500Y-134120171D01*
X90684500Y-133396000D01*
X90679510Y-133327829D01*
X90669597Y-133192382D01*
X90610383Y-132926561D01*
X90561057Y-132797594D01*
X90513093Y-132672186D01*
X90379804Y-132434690D01*
X90233244Y-132244889D01*
X90213354Y-132219130D01*
X90017295Y-132030105D01*
X89795800Y-131871640D01*
X89553602Y-131747117D01*
X89553598Y-131747115D01*
X89553597Y-131747115D01*
X89332514Y-131671692D01*
X89295836Y-131659179D01*
X89028029Y-131609713D01*
X88755869Y-131599767D01*
X88485162Y-131629553D01*
X88221674Y-131698438D01*
X87971024Y-131804953D01*
X87738556Y-131946826D01*
X87529223Y-132121035D01*
X87347480Y-132323871D01*
X87197210Y-132551005D01*
X87081615Y-132797589D01*
X87003153Y-133058388D01*
X87003153Y-133058389D01*
X86983434Y-133192382D01*
X86963500Y-133327832D01*
X86963500Y-134052003D01*
X81184500Y-134052003D01*
X81184500Y-133396000D01*
X81179510Y-133327829D01*
X81169597Y-133192382D01*
X81110383Y-132926561D01*
X81061057Y-132797594D01*
X81013093Y-132672186D01*
X80879804Y-132434690D01*
X80733244Y-132244889D01*
X80713354Y-132219130D01*
X80517295Y-132030105D01*
X80295800Y-131871640D01*
X80053602Y-131747117D01*
X80053598Y-131747115D01*
X80053597Y-131747115D01*
X79832514Y-131671692D01*
X79795836Y-131659179D01*
X79528029Y-131609713D01*
X79255869Y-131599767D01*
X78985162Y-131629553D01*
X78721674Y-131698438D01*
X78471024Y-131804953D01*
X78238556Y-131946826D01*
X78029223Y-132121035D01*
X77847480Y-132323871D01*
X77697210Y-132551005D01*
X77581615Y-132797589D01*
X77503153Y-133058388D01*
X77503153Y-133058389D01*
X77483434Y-133192382D01*
X77463500Y-133327832D01*
X77463500Y-134052003D01*
X72390500Y-134052003D01*
X72390500Y-131572000D01*
X81898540Y-131572000D01*
X81918326Y-131760257D01*
X81976820Y-131940284D01*
X82071466Y-132104216D01*
X82198129Y-132244889D01*
X82351269Y-132356151D01*
X82524197Y-132433144D01*
X82709352Y-132472500D01*
X82709354Y-132472500D01*
X82898646Y-132472500D01*
X82898648Y-132472500D01*
X83027808Y-132445046D01*
X83083803Y-132433144D01*
X83256730Y-132356151D01*
X83355845Y-132284140D01*
X83409870Y-132244889D01*
X83536533Y-132104216D01*
X83631179Y-131940284D01*
X83653483Y-131871640D01*
X83689674Y-131760256D01*
X83709460Y-131572000D01*
X83696112Y-131445000D01*
X90936531Y-131445000D01*
X90956364Y-131671689D01*
X91015261Y-131891497D01*
X91111432Y-132097735D01*
X91241953Y-132284140D01*
X91402859Y-132445046D01*
X91589264Y-132575567D01*
X91589265Y-132575567D01*
X91589266Y-132575568D01*
X91795504Y-132671739D01*
X92015308Y-132730635D01*
X92242000Y-132750468D01*
X92468692Y-132730635D01*
X92688496Y-132671739D01*
X92894734Y-132575568D01*
X93081139Y-132445047D01*
X93242047Y-132284139D01*
X93372568Y-132097734D01*
X93468739Y-131891496D01*
X93527635Y-131671692D01*
X93547468Y-131445000D01*
X95936531Y-131445000D01*
X95956364Y-131671689D01*
X96015261Y-131891497D01*
X96111432Y-132097735D01*
X96241953Y-132284140D01*
X96402859Y-132445046D01*
X96589264Y-132575567D01*
X96589265Y-132575567D01*
X96589266Y-132575568D01*
X96795504Y-132671739D01*
X97015308Y-132730635D01*
X97242000Y-132750468D01*
X97468692Y-132730635D01*
X97688496Y-132671739D01*
X97894734Y-132575568D01*
X98081139Y-132445047D01*
X98242047Y-132284139D01*
X98372568Y-132097734D01*
X98468739Y-131891496D01*
X98527635Y-131671692D01*
X98547468Y-131445000D01*
X98527635Y-131218308D01*
X98468739Y-130998504D01*
X98372568Y-130792266D01*
X98369475Y-130787849D01*
X98242046Y-130605859D01*
X98081140Y-130444953D01*
X97894735Y-130314432D01*
X97688497Y-130218261D01*
X97468689Y-130159364D01*
X97242000Y-130139531D01*
X97015310Y-130159364D01*
X96795502Y-130218261D01*
X96589264Y-130314432D01*
X96402859Y-130444953D01*
X96241953Y-130605859D01*
X96111432Y-130792264D01*
X96015261Y-130998502D01*
X95956364Y-131218310D01*
X95936531Y-131445000D01*
X93547468Y-131445000D01*
X93527635Y-131218308D01*
X93468739Y-130998504D01*
X93372568Y-130792266D01*
X93369475Y-130787849D01*
X93242046Y-130605859D01*
X93081140Y-130444953D01*
X92894735Y-130314432D01*
X92688497Y-130218261D01*
X92468689Y-130159364D01*
X92242000Y-130139531D01*
X92015310Y-130159364D01*
X91795502Y-130218261D01*
X91589264Y-130314432D01*
X91402859Y-130444953D01*
X91241953Y-130605859D01*
X91111432Y-130792264D01*
X91015261Y-130998502D01*
X90956364Y-131218310D01*
X90936531Y-131445000D01*
X83696112Y-131445000D01*
X83689674Y-131383744D01*
X83635921Y-131218310D01*
X83631179Y-131203715D01*
X83536533Y-131039783D01*
X83409870Y-130899110D01*
X83256730Y-130787848D01*
X83083802Y-130710855D01*
X82898648Y-130671500D01*
X82898646Y-130671500D01*
X82709354Y-130671500D01*
X82709352Y-130671500D01*
X82524197Y-130710855D01*
X82351269Y-130787848D01*
X82198129Y-130899110D01*
X82071466Y-131039783D01*
X81976820Y-131203715D01*
X81918326Y-131383742D01*
X81898540Y-131572000D01*
X72390500Y-131572000D01*
X72390500Y-122174000D01*
X76699699Y-122174000D01*
X76718865Y-122405299D01*
X76718865Y-122405301D01*
X76718866Y-122405305D01*
X76775843Y-122630300D01*
X76869076Y-122842849D01*
X76996021Y-123037153D01*
X77090803Y-123140114D01*
X77119575Y-123192865D01*
X77120168Y-123252951D01*
X77092441Y-123306261D01*
X77042906Y-123340276D01*
X76962671Y-123370202D01*
X76847454Y-123456454D01*
X76761204Y-123571668D01*
X76710909Y-123706516D01*
X76704500Y-123766130D01*
X76704500Y-125661869D01*
X76710909Y-125721483D01*
X76761204Y-125856331D01*
X76847454Y-125971546D01*
X76962669Y-126057796D01*
X77097517Y-126108091D01*
X77157127Y-126114500D01*
X79052872Y-126114499D01*
X79112483Y-126108091D01*
X79247331Y-126057796D01*
X79362546Y-125971546D01*
X79448796Y-125856331D01*
X79499091Y-125721483D01*
X79505500Y-125661873D01*
X79505499Y-123766128D01*
X79499091Y-123706517D01*
X79448796Y-123571669D01*
X79362546Y-123456454D01*
X79247331Y-123370204D01*
X79194357Y-123350446D01*
X79167093Y-123340277D01*
X79117558Y-123306261D01*
X79089831Y-123252951D01*
X79090424Y-123192864D01*
X79119196Y-123140114D01*
X79213979Y-123037153D01*
X79340924Y-122842849D01*
X79434157Y-122630300D01*
X79491134Y-122405305D01*
X79510300Y-122174000D01*
X82668699Y-122174000D01*
X82687865Y-122405299D01*
X82687865Y-122405301D01*
X82687866Y-122405305D01*
X82744843Y-122630300D01*
X82838076Y-122842849D01*
X82965021Y-123037153D01*
X83059803Y-123140114D01*
X83088575Y-123192865D01*
X83089168Y-123252951D01*
X83061441Y-123306261D01*
X83011906Y-123340276D01*
X82931671Y-123370202D01*
X82816454Y-123456454D01*
X82730204Y-123571668D01*
X82679909Y-123706516D01*
X82673500Y-123766130D01*
X82673500Y-125661869D01*
X82679909Y-125721483D01*
X82730204Y-125856331D01*
X82816454Y-125971546D01*
X82931669Y-126057796D01*
X83066517Y-126108091D01*
X83126127Y-126114500D01*
X85021872Y-126114499D01*
X85081483Y-126108091D01*
X85216331Y-126057796D01*
X85331546Y-125971546D01*
X85417796Y-125856331D01*
X85468091Y-125721483D01*
X85474500Y-125661873D01*
X85474499Y-123766128D01*
X85468091Y-123706517D01*
X85417796Y-123571669D01*
X85331546Y-123456454D01*
X85216331Y-123370204D01*
X85163357Y-123350446D01*
X85136093Y-123340277D01*
X85086558Y-123306261D01*
X85058831Y-123252951D01*
X85059424Y-123192864D01*
X85088196Y-123140114D01*
X85182979Y-123037153D01*
X85309924Y-122842849D01*
X85403157Y-122630300D01*
X85460134Y-122405305D01*
X85479300Y-122174000D01*
X88637699Y-122174000D01*
X88656865Y-122405299D01*
X88656865Y-122405301D01*
X88656866Y-122405305D01*
X88713843Y-122630300D01*
X88807076Y-122842849D01*
X88934021Y-123037153D01*
X89028803Y-123140114D01*
X89057575Y-123192865D01*
X89058168Y-123252951D01*
X89030441Y-123306261D01*
X88980906Y-123340276D01*
X88900671Y-123370202D01*
X88785454Y-123456454D01*
X88699204Y-123571668D01*
X88648909Y-123706516D01*
X88642500Y-123766130D01*
X88642500Y-125661869D01*
X88648909Y-125721483D01*
X88699204Y-125856331D01*
X88785454Y-125971546D01*
X88900669Y-126057796D01*
X89035517Y-126108091D01*
X89095127Y-126114500D01*
X90990872Y-126114499D01*
X91050483Y-126108091D01*
X91185331Y-126057796D01*
X91300546Y-125971546D01*
X91386796Y-125856331D01*
X91437091Y-125721483D01*
X91443500Y-125661873D01*
X91443499Y-123766128D01*
X91437091Y-123706517D01*
X91386796Y-123571669D01*
X91300546Y-123456454D01*
X91185331Y-123370204D01*
X91132357Y-123350446D01*
X91105093Y-123340277D01*
X91055558Y-123306261D01*
X91027831Y-123252951D01*
X91028424Y-123192864D01*
X91057196Y-123140114D01*
X91151979Y-123037153D01*
X91278924Y-122842849D01*
X91372157Y-122630300D01*
X91429134Y-122405305D01*
X91448300Y-122174000D01*
X102099699Y-122174000D01*
X102118865Y-122405299D01*
X102118865Y-122405301D01*
X102118866Y-122405305D01*
X102175843Y-122630300D01*
X102269076Y-122842849D01*
X102396021Y-123037153D01*
X102490803Y-123140114D01*
X102519575Y-123192865D01*
X102520168Y-123252951D01*
X102492441Y-123306261D01*
X102442906Y-123340276D01*
X102362671Y-123370202D01*
X102247454Y-123456454D01*
X102161204Y-123571668D01*
X102110909Y-123706516D01*
X102104500Y-123766130D01*
X102104500Y-125661869D01*
X102110909Y-125721483D01*
X102161204Y-125856331D01*
X102247454Y-125971546D01*
X102362669Y-126057796D01*
X102497517Y-126108091D01*
X102557127Y-126114500D01*
X104452872Y-126114499D01*
X104512483Y-126108091D01*
X104647331Y-126057796D01*
X104762546Y-125971546D01*
X104848796Y-125856331D01*
X104899091Y-125721483D01*
X104905500Y-125661873D01*
X104905499Y-123766128D01*
X104899091Y-123706517D01*
X104848796Y-123571669D01*
X104762546Y-123456454D01*
X104647331Y-123370204D01*
X104594357Y-123350446D01*
X104567093Y-123340277D01*
X104517558Y-123306261D01*
X104489831Y-123252951D01*
X104490424Y-123192864D01*
X104519196Y-123140114D01*
X104613979Y-123037153D01*
X104740924Y-122842849D01*
X104834157Y-122630300D01*
X104891134Y-122405305D01*
X104910300Y-122174000D01*
X108068699Y-122174000D01*
X108087865Y-122405299D01*
X108087865Y-122405301D01*
X108087866Y-122405305D01*
X108144843Y-122630300D01*
X108238076Y-122842849D01*
X108365021Y-123037153D01*
X108459803Y-123140114D01*
X108488575Y-123192865D01*
X108489168Y-123252951D01*
X108461441Y-123306261D01*
X108411906Y-123340276D01*
X108331671Y-123370202D01*
X108216454Y-123456454D01*
X108130204Y-123571668D01*
X108079909Y-123706516D01*
X108073500Y-123766130D01*
X108073500Y-125661869D01*
X108079909Y-125721483D01*
X108130204Y-125856331D01*
X108216454Y-125971546D01*
X108331669Y-126057796D01*
X108466517Y-126108091D01*
X108526127Y-126114500D01*
X110421872Y-126114499D01*
X110481483Y-126108091D01*
X110616331Y-126057796D01*
X110731546Y-125971546D01*
X110817796Y-125856331D01*
X110868091Y-125721483D01*
X110874500Y-125661873D01*
X110874499Y-123766128D01*
X110868091Y-123706517D01*
X110817796Y-123571669D01*
X110731546Y-123456454D01*
X110616331Y-123370204D01*
X110563357Y-123350446D01*
X110536093Y-123340277D01*
X110486558Y-123306261D01*
X110458831Y-123252951D01*
X110459424Y-123192864D01*
X110488196Y-123140114D01*
X110582979Y-123037153D01*
X110709924Y-122842849D01*
X110803157Y-122630300D01*
X110860134Y-122405305D01*
X110879300Y-122174000D01*
X114037699Y-122174000D01*
X114056865Y-122405299D01*
X114056865Y-122405301D01*
X114056866Y-122405305D01*
X114113843Y-122630300D01*
X114207076Y-122842849D01*
X114334021Y-123037153D01*
X114428803Y-123140114D01*
X114457575Y-123192865D01*
X114458168Y-123252951D01*
X114430441Y-123306261D01*
X114380906Y-123340276D01*
X114300671Y-123370202D01*
X114185454Y-123456454D01*
X114099204Y-123571668D01*
X114048909Y-123706516D01*
X114042500Y-123766130D01*
X114042500Y-125661869D01*
X114048909Y-125721483D01*
X114099204Y-125856331D01*
X114185454Y-125971546D01*
X114300669Y-126057796D01*
X114435517Y-126108091D01*
X114495127Y-126114500D01*
X116390872Y-126114499D01*
X116450483Y-126108091D01*
X116585331Y-126057796D01*
X116700546Y-125971546D01*
X116786796Y-125856331D01*
X116837091Y-125721483D01*
X116843500Y-125661873D01*
X116843499Y-123766128D01*
X116837091Y-123706517D01*
X116786796Y-123571669D01*
X116700546Y-123456454D01*
X116585331Y-123370204D01*
X116532357Y-123350446D01*
X116505093Y-123340277D01*
X116455558Y-123306261D01*
X116427831Y-123252951D01*
X116428424Y-123192864D01*
X116457196Y-123140114D01*
X116551979Y-123037153D01*
X116678924Y-122842849D01*
X116772157Y-122630300D01*
X116829134Y-122405305D01*
X116848300Y-122174000D01*
X116829134Y-121942695D01*
X116772157Y-121717700D01*
X116678924Y-121505151D01*
X116551979Y-121310847D01*
X116394784Y-121140087D01*
X116211626Y-120997530D01*
X116007503Y-120887064D01*
X116007499Y-120887062D01*
X116007498Y-120887062D01*
X115787984Y-120811702D01*
X115616281Y-120783050D01*
X115559049Y-120773500D01*
X115326951Y-120773500D01*
X115281164Y-120781140D01*
X115098015Y-120811702D01*
X114878501Y-120887062D01*
X114674372Y-120997531D01*
X114491215Y-121140087D01*
X114334020Y-121310848D01*
X114207076Y-121505150D01*
X114113844Y-121717696D01*
X114056865Y-121942700D01*
X114037699Y-122174000D01*
X110879300Y-122174000D01*
X110860134Y-121942695D01*
X110803157Y-121717700D01*
X110709924Y-121505151D01*
X110582979Y-121310847D01*
X110425784Y-121140087D01*
X110242626Y-120997530D01*
X110038503Y-120887064D01*
X110038499Y-120887062D01*
X110038498Y-120887062D01*
X109818984Y-120811702D01*
X109647281Y-120783050D01*
X109590049Y-120773500D01*
X109357951Y-120773500D01*
X109312164Y-120781140D01*
X109129015Y-120811702D01*
X108909501Y-120887062D01*
X108705372Y-120997531D01*
X108522215Y-121140087D01*
X108365020Y-121310848D01*
X108238076Y-121505150D01*
X108144844Y-121717696D01*
X108087865Y-121942700D01*
X108068699Y-122174000D01*
X104910300Y-122174000D01*
X104891134Y-121942695D01*
X104834157Y-121717700D01*
X104740924Y-121505151D01*
X104613979Y-121310847D01*
X104456784Y-121140087D01*
X104273626Y-120997530D01*
X104069503Y-120887064D01*
X104069499Y-120887062D01*
X104069498Y-120887062D01*
X103849984Y-120811702D01*
X103678281Y-120783050D01*
X103621049Y-120773500D01*
X103388951Y-120773500D01*
X103343164Y-120781140D01*
X103160015Y-120811702D01*
X102940501Y-120887062D01*
X102736372Y-120997531D01*
X102553215Y-121140087D01*
X102396020Y-121310848D01*
X102269076Y-121505150D01*
X102175844Y-121717696D01*
X102118865Y-121942700D01*
X102099699Y-122174000D01*
X91448300Y-122174000D01*
X91429134Y-121942695D01*
X91372157Y-121717700D01*
X91278924Y-121505151D01*
X91151979Y-121310847D01*
X90994784Y-121140087D01*
X90811626Y-120997530D01*
X90607503Y-120887064D01*
X90607499Y-120887062D01*
X90607498Y-120887062D01*
X90387984Y-120811702D01*
X90216281Y-120783050D01*
X90159049Y-120773500D01*
X89926951Y-120773500D01*
X89881164Y-120781140D01*
X89698015Y-120811702D01*
X89478501Y-120887062D01*
X89274372Y-120997531D01*
X89091215Y-121140087D01*
X88934020Y-121310848D01*
X88807076Y-121505150D01*
X88713844Y-121717696D01*
X88656865Y-121942700D01*
X88637699Y-122174000D01*
X85479300Y-122174000D01*
X85460134Y-121942695D01*
X85403157Y-121717700D01*
X85309924Y-121505151D01*
X85182979Y-121310847D01*
X85025784Y-121140087D01*
X84842626Y-120997530D01*
X84638503Y-120887064D01*
X84638499Y-120887062D01*
X84638498Y-120887062D01*
X84418984Y-120811702D01*
X84247281Y-120783050D01*
X84190049Y-120773500D01*
X83957951Y-120773500D01*
X83912164Y-120781140D01*
X83729015Y-120811702D01*
X83509501Y-120887062D01*
X83305372Y-120997531D01*
X83122215Y-121140087D01*
X82965020Y-121310848D01*
X82838076Y-121505150D01*
X82744844Y-121717696D01*
X82687865Y-121942700D01*
X82668699Y-122174000D01*
X79510300Y-122174000D01*
X79491134Y-121942695D01*
X79434157Y-121717700D01*
X79340924Y-121505151D01*
X79213979Y-121310847D01*
X79056784Y-121140087D01*
X78873626Y-120997530D01*
X78669503Y-120887064D01*
X78669499Y-120887062D01*
X78669498Y-120887062D01*
X78449984Y-120811702D01*
X78278281Y-120783050D01*
X78221049Y-120773500D01*
X77988951Y-120773500D01*
X77943164Y-120781140D01*
X77760015Y-120811702D01*
X77540501Y-120887062D01*
X77336372Y-120997531D01*
X77153215Y-121140087D01*
X76996020Y-121310848D01*
X76869076Y-121505150D01*
X76775844Y-121717696D01*
X76718865Y-121942700D01*
X76699699Y-122174000D01*
X72390500Y-122174000D01*
X72390500Y-116585999D01*
X78215540Y-116585999D01*
X78235326Y-116774257D01*
X78293820Y-116954284D01*
X78388466Y-117118216D01*
X78515129Y-117258889D01*
X78668269Y-117370151D01*
X78841197Y-117447144D01*
X79026352Y-117486500D01*
X79026354Y-117486500D01*
X79215646Y-117486500D01*
X79215648Y-117486500D01*
X79339083Y-117460262D01*
X79400803Y-117447144D01*
X79573730Y-117370151D01*
X79726871Y-117258888D01*
X79853533Y-117118216D01*
X79948179Y-116954284D01*
X79967523Y-116894747D01*
X79999797Y-116843408D01*
X80052561Y-116813510D01*
X80113192Y-116812211D01*
X80167189Y-116839820D01*
X80201635Y-116889734D01*
X80230204Y-116966331D01*
X80316454Y-117081546D01*
X80431669Y-117167796D01*
X80566517Y-117218091D01*
X80626127Y-117224500D01*
X82521872Y-117224499D01*
X82581483Y-117218091D01*
X82716331Y-117167796D01*
X82831546Y-117081546D01*
X82917796Y-116966331D01*
X82936093Y-116917272D01*
X82968205Y-116869458D01*
X83018458Y-116841308D01*
X83076007Y-116838900D01*
X83128435Y-116862753D01*
X83305374Y-117000470D01*
X83509497Y-117110936D01*
X83619257Y-117148616D01*
X83729015Y-117186297D01*
X83729017Y-117186297D01*
X83729019Y-117186298D01*
X83957951Y-117224500D01*
X84190048Y-117224500D01*
X84190049Y-117224500D01*
X84418981Y-117186298D01*
X84638503Y-117110936D01*
X84842626Y-117000470D01*
X85025784Y-116857913D01*
X85182979Y-116687153D01*
X85220192Y-116630193D01*
X85264982Y-116588961D01*
X85324000Y-116574016D01*
X85383018Y-116588961D01*
X85427807Y-116630193D01*
X85465021Y-116687153D01*
X85622216Y-116857913D01*
X85805374Y-117000470D01*
X86009497Y-117110936D01*
X86119257Y-117148616D01*
X86229015Y-117186297D01*
X86229017Y-117186297D01*
X86229019Y-117186298D01*
X86457951Y-117224500D01*
X86690048Y-117224500D01*
X86690049Y-117224500D01*
X86918981Y-117186298D01*
X87138503Y-117110936D01*
X87342626Y-117000470D01*
X87525784Y-116857913D01*
X87604993Y-116771869D01*
X105573500Y-116771869D01*
X105579909Y-116831484D01*
X105589766Y-116857912D01*
X105630204Y-116966331D01*
X105716454Y-117081546D01*
X105831669Y-117167796D01*
X105966517Y-117218091D01*
X106026127Y-117224500D01*
X107921872Y-117224499D01*
X107981483Y-117218091D01*
X108116331Y-117167796D01*
X108231546Y-117081546D01*
X108317796Y-116966331D01*
X108336093Y-116917272D01*
X108368205Y-116869458D01*
X108418458Y-116841308D01*
X108476007Y-116838900D01*
X108528435Y-116862753D01*
X108705374Y-117000470D01*
X108909497Y-117110936D01*
X109019257Y-117148616D01*
X109129015Y-117186297D01*
X109129017Y-117186297D01*
X109129019Y-117186298D01*
X109357951Y-117224500D01*
X109590048Y-117224500D01*
X109590049Y-117224500D01*
X109818981Y-117186298D01*
X110038503Y-117110936D01*
X110242626Y-117000470D01*
X110425784Y-116857913D01*
X110582979Y-116687153D01*
X110620192Y-116630193D01*
X110664982Y-116588961D01*
X110724000Y-116574016D01*
X110783018Y-116588961D01*
X110827807Y-116630193D01*
X110865021Y-116687153D01*
X111022216Y-116857913D01*
X111205374Y-117000470D01*
X111409497Y-117110936D01*
X111519257Y-117148616D01*
X111629015Y-117186297D01*
X111629017Y-117186297D01*
X111629019Y-117186298D01*
X111857951Y-117224500D01*
X112090048Y-117224500D01*
X112090049Y-117224500D01*
X112318981Y-117186298D01*
X112538503Y-117110936D01*
X112742626Y-117000470D01*
X112925784Y-116857913D01*
X113082979Y-116687153D01*
X113209924Y-116492849D01*
X113303157Y-116280300D01*
X113360134Y-116055305D01*
X113379300Y-115824000D01*
X113360134Y-115592695D01*
X113303157Y-115367700D01*
X113209924Y-115155151D01*
X113082979Y-114960847D01*
X112925784Y-114790087D01*
X112742626Y-114647530D01*
X112538503Y-114537064D01*
X112538499Y-114537062D01*
X112538498Y-114537062D01*
X112318984Y-114461702D01*
X112128456Y-114429909D01*
X112090049Y-114423500D01*
X111857951Y-114423500D01*
X111819544Y-114429909D01*
X111629015Y-114461702D01*
X111409501Y-114537062D01*
X111205372Y-114647531D01*
X111022215Y-114790087D01*
X110865020Y-114960847D01*
X110827807Y-115017806D01*
X110783015Y-115059038D01*
X110723998Y-115073983D01*
X110664980Y-115059037D01*
X110620192Y-115017805D01*
X110582979Y-114960847D01*
X110425784Y-114790087D01*
X110242626Y-114647530D01*
X110038503Y-114537064D01*
X110038499Y-114537062D01*
X110038498Y-114537062D01*
X109818984Y-114461702D01*
X109628456Y-114429909D01*
X109590049Y-114423500D01*
X109357951Y-114423500D01*
X109319544Y-114429909D01*
X109129015Y-114461702D01*
X108909501Y-114537062D01*
X108705372Y-114647531D01*
X108528436Y-114785245D01*
X108476007Y-114809099D01*
X108418458Y-114806691D01*
X108368205Y-114778541D01*
X108336092Y-114730724D01*
X108326578Y-114705216D01*
X108317796Y-114681669D01*
X108231546Y-114566454D01*
X108116331Y-114480204D01*
X107981483Y-114429909D01*
X107921873Y-114423500D01*
X107921869Y-114423500D01*
X106026130Y-114423500D01*
X105966515Y-114429909D01*
X105831669Y-114480204D01*
X105716454Y-114566454D01*
X105630204Y-114681668D01*
X105579909Y-114816516D01*
X105573500Y-114876130D01*
X105573500Y-116771869D01*
X87604993Y-116771869D01*
X87682979Y-116687153D01*
X87809924Y-116492849D01*
X87903157Y-116280300D01*
X87960134Y-116055305D01*
X87979300Y-115824000D01*
X87960134Y-115592695D01*
X87903157Y-115367700D01*
X87824771Y-115188999D01*
X89391540Y-115188999D01*
X89411326Y-115377257D01*
X89469820Y-115557284D01*
X89564466Y-115721216D01*
X89691129Y-115861889D01*
X89844269Y-115973151D01*
X90017197Y-116050144D01*
X90202352Y-116089500D01*
X90202354Y-116089500D01*
X90391646Y-116089500D01*
X90391648Y-116089500D01*
X90552550Y-116055299D01*
X90576803Y-116050144D01*
X90749730Y-115973151D01*
X90902871Y-115861888D01*
X91029533Y-115721216D01*
X91124179Y-115557284D01*
X91182674Y-115377256D01*
X91189112Y-115315999D01*
X97138540Y-115315999D01*
X97158326Y-115504257D01*
X97216820Y-115684284D01*
X97311466Y-115848216D01*
X97438129Y-115988889D01*
X97591269Y-116100151D01*
X97764197Y-116177144D01*
X97949352Y-116216500D01*
X97949354Y-116216500D01*
X98138646Y-116216500D01*
X98138648Y-116216500D01*
X98262083Y-116190262D01*
X98323803Y-116177144D01*
X98496730Y-116100151D01*
X98511390Y-116089500D01*
X98649870Y-115988889D01*
X98776533Y-115848216D01*
X98871179Y-115684284D01*
X98871179Y-115684283D01*
X98929674Y-115504256D01*
X98949460Y-115316000D01*
X98929674Y-115127744D01*
X98871179Y-114947716D01*
X98871179Y-114947715D01*
X98776533Y-114783783D01*
X98649870Y-114643110D01*
X98496730Y-114531848D01*
X98323802Y-114454855D01*
X98138648Y-114415500D01*
X98138646Y-114415500D01*
X97949354Y-114415500D01*
X97949352Y-114415500D01*
X97764197Y-114454855D01*
X97591269Y-114531848D01*
X97438129Y-114643110D01*
X97311466Y-114783783D01*
X97216820Y-114947715D01*
X97158326Y-115127742D01*
X97138540Y-115315999D01*
X91189112Y-115315999D01*
X91202460Y-115189000D01*
X91182674Y-115000744D01*
X91124179Y-114820716D01*
X91124179Y-114820715D01*
X91029533Y-114656783D01*
X90902870Y-114516110D01*
X90749730Y-114404848D01*
X90576802Y-114327855D01*
X90391648Y-114288500D01*
X90391646Y-114288500D01*
X90202354Y-114288500D01*
X90202352Y-114288500D01*
X90017197Y-114327855D01*
X89844269Y-114404848D01*
X89691129Y-114516110D01*
X89564466Y-114656783D01*
X89469820Y-114820715D01*
X89411326Y-115000742D01*
X89391540Y-115188999D01*
X87824771Y-115188999D01*
X87809924Y-115155151D01*
X87682979Y-114960847D01*
X87525784Y-114790087D01*
X87342626Y-114647530D01*
X87138503Y-114537064D01*
X87138499Y-114537062D01*
X87138498Y-114537062D01*
X86918984Y-114461702D01*
X86728456Y-114429909D01*
X86690049Y-114423500D01*
X86457951Y-114423500D01*
X86419544Y-114429909D01*
X86229015Y-114461702D01*
X86009501Y-114537062D01*
X85805372Y-114647531D01*
X85622215Y-114790087D01*
X85465020Y-114960847D01*
X85427807Y-115017806D01*
X85383015Y-115059038D01*
X85323998Y-115073983D01*
X85264980Y-115059037D01*
X85220192Y-115017805D01*
X85182979Y-114960847D01*
X85025784Y-114790087D01*
X84842626Y-114647530D01*
X84638503Y-114537064D01*
X84638499Y-114537062D01*
X84638498Y-114537062D01*
X84418984Y-114461702D01*
X84228456Y-114429909D01*
X84190049Y-114423500D01*
X83957951Y-114423500D01*
X83919544Y-114429909D01*
X83729015Y-114461702D01*
X83509501Y-114537062D01*
X83305372Y-114647531D01*
X83128436Y-114785245D01*
X83076007Y-114809099D01*
X83018458Y-114806691D01*
X82968205Y-114778541D01*
X82936092Y-114730724D01*
X82926578Y-114705216D01*
X82917796Y-114681669D01*
X82831546Y-114566454D01*
X82716331Y-114480204D01*
X82581483Y-114429909D01*
X82521873Y-114423500D01*
X82521869Y-114423500D01*
X80626130Y-114423500D01*
X80566515Y-114429909D01*
X80431669Y-114480204D01*
X80316454Y-114566454D01*
X80230204Y-114681668D01*
X80179909Y-114816516D01*
X80173500Y-114876131D01*
X80173500Y-116145209D01*
X80156887Y-116207209D01*
X80111500Y-116252596D01*
X80049500Y-116269209D01*
X79987500Y-116252596D01*
X79942113Y-116207209D01*
X79853533Y-116053783D01*
X79726870Y-115913110D01*
X79573730Y-115801848D01*
X79400802Y-115724855D01*
X79215648Y-115685500D01*
X79215646Y-115685500D01*
X79026354Y-115685500D01*
X79026352Y-115685500D01*
X78841197Y-115724855D01*
X78668269Y-115801848D01*
X78515129Y-115913110D01*
X78388466Y-116053783D01*
X78293820Y-116217715D01*
X78235326Y-116397742D01*
X78215540Y-116585999D01*
X72390500Y-116585999D01*
X72390500Y-114173000D01*
X75548540Y-114173000D01*
X75568326Y-114361257D01*
X75626820Y-114541284D01*
X75721466Y-114705216D01*
X75848129Y-114845889D01*
X76001269Y-114957151D01*
X76174197Y-115034144D01*
X76359352Y-115073500D01*
X76359354Y-115073500D01*
X76548646Y-115073500D01*
X76548648Y-115073500D01*
X76672084Y-115047262D01*
X76733803Y-115034144D01*
X76906730Y-114957151D01*
X77018245Y-114876131D01*
X77059870Y-114845889D01*
X77186533Y-114705216D01*
X77281179Y-114541284D01*
X77289358Y-114516112D01*
X77339674Y-114361256D01*
X77359460Y-114173000D01*
X77339674Y-113984744D01*
X77281179Y-113804716D01*
X77281179Y-113804715D01*
X77186533Y-113640783D01*
X77059870Y-113500110D01*
X76906730Y-113388848D01*
X76733802Y-113311855D01*
X76548648Y-113272500D01*
X76548646Y-113272500D01*
X76359354Y-113272500D01*
X76359352Y-113272500D01*
X76174197Y-113311855D01*
X76001269Y-113388848D01*
X75848129Y-113500110D01*
X75721466Y-113640783D01*
X75626820Y-113804715D01*
X75568326Y-113984742D01*
X75548540Y-114173000D01*
X72390500Y-114173000D01*
X72390500Y-113030000D01*
X78215540Y-113030000D01*
X78235326Y-113218257D01*
X78293820Y-113398284D01*
X78388466Y-113562216D01*
X78515129Y-113702889D01*
X78668269Y-113814151D01*
X78841197Y-113891144D01*
X79026352Y-113930500D01*
X79026354Y-113930500D01*
X79215646Y-113930500D01*
X79215648Y-113930500D01*
X79339084Y-113904262D01*
X79400803Y-113891144D01*
X79573730Y-113814151D01*
X79726871Y-113702888D01*
X79853533Y-113562216D01*
X79948179Y-113398284D01*
X80006674Y-113218256D01*
X80026460Y-113030000D01*
X80006674Y-112841744D01*
X79948179Y-112661716D01*
X79948179Y-112661715D01*
X79853533Y-112497783D01*
X79726870Y-112357110D01*
X79573730Y-112245848D01*
X79471206Y-112200201D01*
X87427339Y-112200201D01*
X87447125Y-112388458D01*
X87505619Y-112568485D01*
X87600265Y-112732417D01*
X87726928Y-112873090D01*
X87880068Y-112984352D01*
X88052996Y-113061345D01*
X88238151Y-113100701D01*
X88238153Y-113100701D01*
X88427445Y-113100701D01*
X88427447Y-113100701D01*
X88550882Y-113074463D01*
X88612602Y-113061345D01*
X88785529Y-112984352D01*
X88938670Y-112873089D01*
X89026090Y-112776000D01*
X90407540Y-112776000D01*
X90427326Y-112964257D01*
X90485820Y-113144284D01*
X90580466Y-113308216D01*
X90707129Y-113448889D01*
X90860269Y-113560151D01*
X91033197Y-113637144D01*
X91218352Y-113676500D01*
X91218354Y-113676500D01*
X91407646Y-113676500D01*
X91407648Y-113676500D01*
X91531084Y-113650262D01*
X91592803Y-113637144D01*
X91765730Y-113560151D01*
X91918871Y-113448888D01*
X92045533Y-113308216D01*
X92140179Y-113144284D01*
X92198674Y-112964256D01*
X92218460Y-112776000D01*
X92198674Y-112587744D01*
X92140179Y-112407716D01*
X92140179Y-112407715D01*
X92045533Y-112243783D01*
X91918870Y-112103110D01*
X91765730Y-111991848D01*
X91592802Y-111914855D01*
X91461748Y-111886999D01*
X110092540Y-111886999D01*
X110112326Y-112075257D01*
X110170820Y-112255284D01*
X110265466Y-112419216D01*
X110392129Y-112559889D01*
X110545269Y-112671151D01*
X110718197Y-112748144D01*
X110903352Y-112787500D01*
X110903354Y-112787500D01*
X111092646Y-112787500D01*
X111092648Y-112787500D01*
X111216084Y-112761262D01*
X111277803Y-112748144D01*
X111450730Y-112671151D01*
X111463718Y-112661715D01*
X111603870Y-112559889D01*
X111730533Y-112419216D01*
X111825179Y-112255284D01*
X111828916Y-112243783D01*
X111883674Y-112075256D01*
X111903460Y-111887000D01*
X111883674Y-111698744D01*
X111853332Y-111605363D01*
X111825179Y-111518715D01*
X111730533Y-111354783D01*
X111603870Y-111214110D01*
X111450730Y-111102848D01*
X111277802Y-111025855D01*
X111092648Y-110986500D01*
X111092646Y-110986500D01*
X110903354Y-110986500D01*
X110903352Y-110986500D01*
X110718197Y-111025855D01*
X110545269Y-111102848D01*
X110392129Y-111214110D01*
X110265466Y-111354783D01*
X110170820Y-111518715D01*
X110112326Y-111698742D01*
X110092540Y-111886999D01*
X91461748Y-111886999D01*
X91407648Y-111875500D01*
X91407646Y-111875500D01*
X91218354Y-111875500D01*
X91218352Y-111875500D01*
X91033197Y-111914855D01*
X90860269Y-111991848D01*
X90707129Y-112103110D01*
X90580466Y-112243783D01*
X90485820Y-112407715D01*
X90427326Y-112587742D01*
X90407540Y-112776000D01*
X89026090Y-112776000D01*
X89065332Y-112732417D01*
X89159978Y-112568485D01*
X89218473Y-112388457D01*
X89238259Y-112200201D01*
X89218473Y-112011945D01*
X89159978Y-111831917D01*
X89159978Y-111831916D01*
X89065332Y-111667984D01*
X88938669Y-111527311D01*
X88785529Y-111416049D01*
X88612601Y-111339056D01*
X88427447Y-111299701D01*
X88427445Y-111299701D01*
X88238153Y-111299701D01*
X88238151Y-111299701D01*
X88052996Y-111339056D01*
X87880068Y-111416049D01*
X87726928Y-111527311D01*
X87600265Y-111667984D01*
X87505619Y-111831916D01*
X87447125Y-112011943D01*
X87427339Y-112200201D01*
X79471206Y-112200201D01*
X79400802Y-112168855D01*
X79215648Y-112129500D01*
X79215646Y-112129500D01*
X79026354Y-112129500D01*
X79026352Y-112129500D01*
X78841197Y-112168855D01*
X78668269Y-112245848D01*
X78515129Y-112357110D01*
X78388466Y-112497783D01*
X78293820Y-112661715D01*
X78235326Y-112841742D01*
X78215540Y-113030000D01*
X72390500Y-113030000D01*
X72390500Y-108652003D01*
X77413500Y-108652003D01*
X77428402Y-108855617D01*
X77487616Y-109121438D01*
X77536944Y-109250410D01*
X77584907Y-109375814D01*
X77718196Y-109613310D01*
X77788057Y-109703783D01*
X77884645Y-109828869D01*
X78080704Y-110017894D01*
X78302199Y-110176359D01*
X78431906Y-110243046D01*
X78544403Y-110300885D01*
X78802159Y-110388819D01*
X78802161Y-110388819D01*
X78802163Y-110388820D01*
X79069970Y-110438286D01*
X79342130Y-110448232D01*
X79342130Y-110448231D01*
X79342131Y-110448232D01*
X79612839Y-110418446D01*
X79750021Y-110382581D01*
X79811870Y-110382356D01*
X79866136Y-110412034D01*
X79899315Y-110464232D01*
X79944820Y-110604284D01*
X80039466Y-110768216D01*
X80166129Y-110908889D01*
X80319269Y-111020151D01*
X80492197Y-111097144D01*
X80677352Y-111136500D01*
X80677354Y-111136500D01*
X80866646Y-111136500D01*
X80866648Y-111136500D01*
X80990083Y-111110262D01*
X81051803Y-111097144D01*
X81224730Y-111020151D01*
X81377871Y-110908888D01*
X81504533Y-110768216D01*
X81599179Y-110604284D01*
X81657674Y-110424256D01*
X81677460Y-110236000D01*
X81657674Y-110047744D01*
X81599179Y-109867716D01*
X81599179Y-109867715D01*
X81504533Y-109703783D01*
X81377870Y-109563110D01*
X81224730Y-109451848D01*
X81087321Y-109390669D01*
X81040604Y-109354444D01*
X81015968Y-109300704D01*
X81019015Y-109241666D01*
X81094845Y-108989617D01*
X81094847Y-108989611D01*
X81134500Y-108720171D01*
X81134500Y-108652003D01*
X87013500Y-108652003D01*
X87028402Y-108855617D01*
X87087616Y-109121438D01*
X87136944Y-109250410D01*
X87184907Y-109375814D01*
X87318196Y-109613310D01*
X87388057Y-109703783D01*
X87484645Y-109828869D01*
X87680704Y-110017894D01*
X87902199Y-110176359D01*
X88031906Y-110243046D01*
X88144403Y-110300885D01*
X88402159Y-110388819D01*
X88402161Y-110388819D01*
X88402163Y-110388820D01*
X88669970Y-110438286D01*
X88942130Y-110448232D01*
X88942130Y-110448231D01*
X88942131Y-110448232D01*
X89212839Y-110418446D01*
X89476326Y-110349562D01*
X89726975Y-110243047D01*
X89959444Y-110101173D01*
X90168779Y-109926963D01*
X90350518Y-109724131D01*
X90500788Y-109496998D01*
X90616386Y-109250406D01*
X90694847Y-108989611D01*
X90734500Y-108720171D01*
X90734500Y-108566412D01*
X99988117Y-108566412D01*
X100007903Y-108754669D01*
X100066397Y-108934696D01*
X100161043Y-109098628D01*
X100287706Y-109239301D01*
X100440846Y-109350563D01*
X100613774Y-109427556D01*
X100798929Y-109466912D01*
X100798931Y-109466912D01*
X100988223Y-109466912D01*
X100988225Y-109466912D01*
X101111660Y-109440674D01*
X101173380Y-109427556D01*
X101346307Y-109350563D01*
X101414932Y-109300704D01*
X101499447Y-109239301D01*
X101626110Y-109098628D01*
X101720756Y-108934696D01*
X101746451Y-108855616D01*
X101779251Y-108754668D01*
X101790041Y-108652003D01*
X102813500Y-108652003D01*
X102828402Y-108855617D01*
X102887616Y-109121438D01*
X102936944Y-109250410D01*
X102984907Y-109375814D01*
X103118196Y-109613310D01*
X103188057Y-109703783D01*
X103284645Y-109828869D01*
X103480704Y-110017894D01*
X103702199Y-110176359D01*
X103831906Y-110243046D01*
X103944403Y-110300885D01*
X104202159Y-110388819D01*
X104202161Y-110388819D01*
X104202163Y-110388820D01*
X104469970Y-110438286D01*
X104742130Y-110448232D01*
X104742130Y-110448231D01*
X104742131Y-110448232D01*
X105012839Y-110418446D01*
X105276326Y-110349562D01*
X105526975Y-110243047D01*
X105759444Y-110101173D01*
X105968779Y-109926963D01*
X106150518Y-109724131D01*
X106300788Y-109496998D01*
X106416386Y-109250406D01*
X106494847Y-108989611D01*
X106534500Y-108720171D01*
X106534500Y-108652003D01*
X112413500Y-108652003D01*
X112428402Y-108855617D01*
X112487616Y-109121438D01*
X112536944Y-109250410D01*
X112584907Y-109375814D01*
X112718196Y-109613310D01*
X112788057Y-109703783D01*
X112884645Y-109828869D01*
X113080704Y-110017894D01*
X113302199Y-110176359D01*
X113431906Y-110243046D01*
X113544403Y-110300885D01*
X113802159Y-110388819D01*
X113802161Y-110388819D01*
X113802163Y-110388820D01*
X114069970Y-110438286D01*
X114342130Y-110448232D01*
X114342130Y-110448231D01*
X114342131Y-110448232D01*
X114612839Y-110418446D01*
X114876326Y-110349562D01*
X115126975Y-110243047D01*
X115359444Y-110101173D01*
X115568779Y-109926963D01*
X115750518Y-109724131D01*
X115900788Y-109496998D01*
X116016386Y-109250406D01*
X116094847Y-108989611D01*
X116134500Y-108720171D01*
X116134500Y-107996000D01*
X116129510Y-107927829D01*
X116119597Y-107792382D01*
X116060383Y-107526561D01*
X116011057Y-107397594D01*
X115963093Y-107272186D01*
X115829804Y-107034690D01*
X115683244Y-106844889D01*
X115663354Y-106819130D01*
X115467295Y-106630105D01*
X115245800Y-106471640D01*
X115003602Y-106347117D01*
X115003598Y-106347115D01*
X115003597Y-106347115D01*
X114860913Y-106298438D01*
X114745836Y-106259179D01*
X114478029Y-106209713D01*
X114205869Y-106199767D01*
X113935162Y-106229553D01*
X113671674Y-106298438D01*
X113421024Y-106404953D01*
X113188556Y-106546826D01*
X112979223Y-106721035D01*
X112797480Y-106923871D01*
X112647210Y-107151005D01*
X112531615Y-107397589D01*
X112453153Y-107658388D01*
X112453153Y-107658389D01*
X112433434Y-107792382D01*
X112413500Y-107927832D01*
X112413500Y-108652003D01*
X106534500Y-108652003D01*
X106534500Y-107996000D01*
X106529510Y-107927829D01*
X106519597Y-107792382D01*
X106460383Y-107526561D01*
X106411057Y-107397594D01*
X106363093Y-107272186D01*
X106229804Y-107034690D01*
X106083244Y-106844889D01*
X106063354Y-106819130D01*
X105867295Y-106630105D01*
X105645800Y-106471640D01*
X105403602Y-106347117D01*
X105403598Y-106347115D01*
X105403597Y-106347115D01*
X105260913Y-106298438D01*
X105145836Y-106259179D01*
X104878029Y-106209713D01*
X104605869Y-106199767D01*
X104335162Y-106229553D01*
X104071674Y-106298438D01*
X103821024Y-106404953D01*
X103588556Y-106546826D01*
X103379223Y-106721035D01*
X103197480Y-106923871D01*
X103047210Y-107151005D01*
X102931615Y-107397589D01*
X102853153Y-107658388D01*
X102853153Y-107658389D01*
X102833434Y-107792382D01*
X102813500Y-107927832D01*
X102813500Y-108652003D01*
X101790041Y-108652003D01*
X101799037Y-108566412D01*
X101779251Y-108378156D01*
X101720756Y-108198128D01*
X101720756Y-108198127D01*
X101626110Y-108034195D01*
X101499447Y-107893522D01*
X101346307Y-107782260D01*
X101173379Y-107705267D01*
X100988225Y-107665912D01*
X100988223Y-107665912D01*
X100798931Y-107665912D01*
X100798929Y-107665912D01*
X100613774Y-107705267D01*
X100440846Y-107782260D01*
X100287706Y-107893522D01*
X100161043Y-108034195D01*
X100066397Y-108198127D01*
X100007903Y-108378154D01*
X99988117Y-108566412D01*
X90734500Y-108566412D01*
X90734500Y-107996000D01*
X90729510Y-107927829D01*
X90719597Y-107792382D01*
X90660383Y-107526561D01*
X90611057Y-107397594D01*
X90563093Y-107272186D01*
X90522196Y-107199315D01*
X90506375Y-107141951D01*
X90519102Y-107083820D01*
X90557446Y-107038312D01*
X90570182Y-107029058D01*
X90648871Y-106971888D01*
X90775533Y-106831216D01*
X90870179Y-106667284D01*
X90928674Y-106487256D01*
X90948460Y-106299000D01*
X93582540Y-106299000D01*
X93602326Y-106487257D01*
X93660820Y-106667284D01*
X93755466Y-106831216D01*
X93882129Y-106971889D01*
X94035269Y-107083151D01*
X94208197Y-107160144D01*
X94393352Y-107199500D01*
X94393354Y-107199500D01*
X94582646Y-107199500D01*
X94582648Y-107199500D01*
X94706083Y-107173262D01*
X94767803Y-107160144D01*
X94940730Y-107083151D01*
X95093871Y-106971888D01*
X95220533Y-106831216D01*
X95315179Y-106667284D01*
X95373674Y-106487256D01*
X95393460Y-106299000D01*
X95380112Y-106172000D01*
X108568540Y-106172000D01*
X108588326Y-106360257D01*
X108646820Y-106540284D01*
X108741466Y-106704216D01*
X108868129Y-106844889D01*
X109021269Y-106956151D01*
X109194197Y-107033144D01*
X109379352Y-107072500D01*
X109379354Y-107072500D01*
X109568646Y-107072500D01*
X109568648Y-107072500D01*
X109729489Y-107038312D01*
X109753803Y-107033144D01*
X109926730Y-106956151D01*
X110079871Y-106844888D01*
X110206533Y-106704216D01*
X110301179Y-106540284D01*
X110359674Y-106360256D01*
X110379460Y-106172000D01*
X110359674Y-105983744D01*
X110301179Y-105803716D01*
X110301179Y-105803715D01*
X110206533Y-105639783D01*
X110079870Y-105499110D01*
X109926730Y-105387848D01*
X109753802Y-105310855D01*
X109568648Y-105271500D01*
X109568646Y-105271500D01*
X109379354Y-105271500D01*
X109379352Y-105271500D01*
X109194197Y-105310855D01*
X109021269Y-105387848D01*
X108868129Y-105499110D01*
X108741466Y-105639783D01*
X108646820Y-105803715D01*
X108588326Y-105983742D01*
X108568540Y-106172000D01*
X95380112Y-106172000D01*
X95373674Y-106110744D01*
X95315179Y-105930716D01*
X95315179Y-105930715D01*
X95220533Y-105766783D01*
X95093870Y-105626110D01*
X94940730Y-105514848D01*
X94767802Y-105437855D01*
X94582648Y-105398500D01*
X94582646Y-105398500D01*
X94393354Y-105398500D01*
X94393352Y-105398500D01*
X94208197Y-105437855D01*
X94035269Y-105514848D01*
X93882129Y-105626110D01*
X93755466Y-105766783D01*
X93660820Y-105930715D01*
X93602326Y-106110742D01*
X93582540Y-106299000D01*
X90948460Y-106299000D01*
X90928674Y-106110744D01*
X90870179Y-105930716D01*
X90870179Y-105930715D01*
X90775533Y-105766783D01*
X90648870Y-105626110D01*
X90495730Y-105514848D01*
X90322802Y-105437855D01*
X90137648Y-105398500D01*
X90137646Y-105398500D01*
X89948354Y-105398500D01*
X89948352Y-105398500D01*
X89763197Y-105437855D01*
X89590269Y-105514848D01*
X89437129Y-105626110D01*
X89310466Y-105766783D01*
X89215820Y-105930715D01*
X89153539Y-106122398D01*
X89126741Y-106168168D01*
X89083270Y-106198554D01*
X89031080Y-106207997D01*
X88805870Y-106199767D01*
X88535162Y-106229553D01*
X88271674Y-106298438D01*
X88021024Y-106404953D01*
X87788556Y-106546826D01*
X87579223Y-106721035D01*
X87397480Y-106923871D01*
X87247210Y-107151005D01*
X87131615Y-107397589D01*
X87053153Y-107658388D01*
X87053153Y-107658389D01*
X87033434Y-107792382D01*
X87013500Y-107927832D01*
X87013500Y-108652003D01*
X81134500Y-108652003D01*
X81134500Y-107996000D01*
X81129510Y-107927829D01*
X81119597Y-107792382D01*
X81060383Y-107526561D01*
X81011057Y-107397594D01*
X80963093Y-107272186D01*
X80829804Y-107034690D01*
X80683244Y-106844889D01*
X80663354Y-106819130D01*
X80467295Y-106630105D01*
X80245800Y-106471640D01*
X80003602Y-106347117D01*
X80003598Y-106347115D01*
X80003597Y-106347115D01*
X79860913Y-106298438D01*
X79745836Y-106259179D01*
X79478029Y-106209713D01*
X79205869Y-106199767D01*
X78935162Y-106229553D01*
X78671674Y-106298438D01*
X78421024Y-106404953D01*
X78188556Y-106546826D01*
X77979223Y-106721035D01*
X77797480Y-106923871D01*
X77647210Y-107151005D01*
X77531615Y-107397589D01*
X77453153Y-107658388D01*
X77453153Y-107658389D01*
X77433434Y-107792382D01*
X77413500Y-107927832D01*
X77413500Y-108652003D01*
X72390500Y-108652003D01*
X72390500Y-100471999D01*
X82152540Y-100471999D01*
X82172326Y-100660257D01*
X82230820Y-100840284D01*
X82325466Y-101004216D01*
X82452129Y-101144889D01*
X82605269Y-101256151D01*
X82778197Y-101333144D01*
X82963352Y-101372500D01*
X82963354Y-101372500D01*
X83152646Y-101372500D01*
X83152648Y-101372500D01*
X83331423Y-101334500D01*
X83337803Y-101333144D01*
X83510730Y-101256151D01*
X83600205Y-101191144D01*
X83663870Y-101144889D01*
X83790533Y-101004216D01*
X83885179Y-100840284D01*
X83894369Y-100812000D01*
X83943674Y-100660256D01*
X83963460Y-100472000D01*
X83949122Y-100335587D01*
X83950007Y-100330000D01*
X88883540Y-100330000D01*
X88903326Y-100518257D01*
X88961820Y-100698284D01*
X89056466Y-100862216D01*
X89183129Y-101002889D01*
X89336269Y-101114151D01*
X89509197Y-101191144D01*
X89674297Y-101226237D01*
X89725539Y-101250349D01*
X89760715Y-101294730D01*
X89772490Y-101350123D01*
X89758406Y-101404975D01*
X89721403Y-101447845D01*
X89564127Y-101562112D01*
X89437466Y-101702783D01*
X89342820Y-101866715D01*
X89284326Y-102046742D01*
X89264540Y-102235000D01*
X89284326Y-102423257D01*
X89342820Y-102603284D01*
X89437466Y-102767216D01*
X89564129Y-102907889D01*
X89699604Y-103006317D01*
X89737203Y-103050339D01*
X89750719Y-103106633D01*
X89737205Y-103162927D01*
X89699607Y-103206951D01*
X89691130Y-103213109D01*
X89564466Y-103353783D01*
X89469820Y-103517715D01*
X89411326Y-103697742D01*
X89391540Y-103885999D01*
X89411326Y-104074257D01*
X89469820Y-104254284D01*
X89564466Y-104418216D01*
X89691129Y-104558889D01*
X89844269Y-104670151D01*
X90017197Y-104747144D01*
X90202352Y-104786500D01*
X90202354Y-104786500D01*
X90391646Y-104786500D01*
X90391648Y-104786500D01*
X90515084Y-104760262D01*
X90576803Y-104747144D01*
X90749730Y-104670151D01*
X90902871Y-104558888D01*
X91029533Y-104418216D01*
X91124179Y-104254284D01*
X91182674Y-104074256D01*
X91202460Y-103886000D01*
X91182674Y-103697744D01*
X91124179Y-103517716D01*
X91124179Y-103517715D01*
X91029533Y-103353783D01*
X90902870Y-103213110D01*
X90767394Y-103114682D01*
X90729794Y-103070658D01*
X90716279Y-103014361D01*
X90729796Y-102958065D01*
X90767396Y-102914045D01*
X90775871Y-102907888D01*
X90902533Y-102767216D01*
X90997179Y-102603284D01*
X91055674Y-102423256D01*
X91075460Y-102235000D01*
X91055674Y-102046744D01*
X90997179Y-101866716D01*
X90997179Y-101866715D01*
X90902533Y-101702783D01*
X90775870Y-101562110D01*
X90622730Y-101450848D01*
X90449802Y-101373855D01*
X90284701Y-101338762D01*
X90233460Y-101314650D01*
X90198283Y-101270269D01*
X90187386Y-101218999D01*
X97773540Y-101218999D01*
X97793326Y-101407257D01*
X97851820Y-101587284D01*
X97946466Y-101751216D01*
X98073129Y-101891889D01*
X98226269Y-102003151D01*
X98287766Y-102030532D01*
X98337648Y-102070926D01*
X98360651Y-102130850D01*
X98350610Y-102194246D01*
X98310215Y-102244129D01*
X98200129Y-102324110D01*
X98073466Y-102464783D01*
X97978820Y-102628715D01*
X97920326Y-102808742D01*
X97900540Y-102996999D01*
X97920326Y-103185257D01*
X97978820Y-103365284D01*
X98073466Y-103529216D01*
X98200129Y-103669889D01*
X98353269Y-103781151D01*
X98526197Y-103858144D01*
X98711352Y-103897500D01*
X98711354Y-103897500D01*
X98900646Y-103897500D01*
X98900648Y-103897500D01*
X99024084Y-103871262D01*
X99085803Y-103858144D01*
X99258730Y-103781151D01*
X99258729Y-103781151D01*
X99411870Y-103669889D01*
X99445987Y-103631999D01*
X116315540Y-103631999D01*
X116335326Y-103820257D01*
X116393820Y-104000284D01*
X116488466Y-104164216D01*
X116615129Y-104304889D01*
X116768269Y-104416151D01*
X116941197Y-104493144D01*
X117126352Y-104532500D01*
X117126354Y-104532500D01*
X117315646Y-104532500D01*
X117315648Y-104532500D01*
X117439084Y-104506262D01*
X117500803Y-104493144D01*
X117673730Y-104416151D01*
X117826871Y-104304888D01*
X117953533Y-104164216D01*
X118048179Y-104000284D01*
X118106674Y-103820256D01*
X118126460Y-103632000D01*
X118106674Y-103443744D01*
X118048179Y-103263716D01*
X118048179Y-103263715D01*
X117953533Y-103099783D01*
X117826870Y-102959110D01*
X117673730Y-102847848D01*
X117500802Y-102770855D01*
X117315648Y-102731500D01*
X117315646Y-102731500D01*
X117126354Y-102731500D01*
X117126352Y-102731500D01*
X116941197Y-102770855D01*
X116768269Y-102847848D01*
X116615129Y-102959110D01*
X116488466Y-103099783D01*
X116393820Y-103263715D01*
X116335326Y-103443742D01*
X116315540Y-103631999D01*
X99445987Y-103631999D01*
X99538533Y-103529216D01*
X99633179Y-103365284D01*
X99691674Y-103185256D01*
X99711460Y-102997000D01*
X99691674Y-102808744D01*
X99633179Y-102628716D01*
X99633179Y-102628715D01*
X99538533Y-102464783D01*
X99411870Y-102324110D01*
X99258730Y-102212848D01*
X99197233Y-102185467D01*
X99147350Y-102145072D01*
X99124348Y-102085148D01*
X99134390Y-102021752D01*
X99174780Y-101971872D01*
X99284871Y-101891888D01*
X99411533Y-101751216D01*
X99506179Y-101587284D01*
X99564674Y-101407256D01*
X99584460Y-101219000D01*
X99564674Y-101030744D01*
X99506179Y-100850716D01*
X99506179Y-100850715D01*
X99411533Y-100686783D01*
X99284870Y-100546110D01*
X99131730Y-100434848D01*
X98958802Y-100357855D01*
X98773648Y-100318500D01*
X98773646Y-100318500D01*
X98584354Y-100318500D01*
X98584352Y-100318500D01*
X98399197Y-100357855D01*
X98226269Y-100434848D01*
X98073129Y-100546110D01*
X97946466Y-100686783D01*
X97851820Y-100850715D01*
X97793326Y-101030742D01*
X97773540Y-101218999D01*
X90187386Y-101218999D01*
X90186509Y-101214875D01*
X90200593Y-101160023D01*
X90237597Y-101117154D01*
X90394870Y-101002889D01*
X90521533Y-100862216D01*
X90616179Y-100698284D01*
X90653186Y-100584388D01*
X90674674Y-100518256D01*
X90694460Y-100330000D01*
X90674674Y-100141744D01*
X90616179Y-99961716D01*
X90616179Y-99961715D01*
X90521533Y-99797783D01*
X90394870Y-99657110D01*
X90241730Y-99545848D01*
X90068802Y-99468855D01*
X89937748Y-99440999D01*
X91296540Y-99440999D01*
X91316326Y-99629257D01*
X91374820Y-99809284D01*
X91469466Y-99973216D01*
X91596129Y-100113889D01*
X91749269Y-100225151D01*
X91922197Y-100302144D01*
X92107352Y-100341500D01*
X92107354Y-100341500D01*
X92296646Y-100341500D01*
X92296648Y-100341500D01*
X92420084Y-100315262D01*
X92481803Y-100302144D01*
X92654730Y-100225151D01*
X92750386Y-100155653D01*
X92807870Y-100113889D01*
X92820596Y-100099756D01*
X92934533Y-99973216D01*
X93029179Y-99809284D01*
X93087674Y-99629256D01*
X93107460Y-99441000D01*
X93094112Y-99313999D01*
X102853540Y-99313999D01*
X102873326Y-99502257D01*
X102931820Y-99682284D01*
X103026466Y-99846216D01*
X103153129Y-99986889D01*
X103306269Y-100098151D01*
X103479197Y-100175144D01*
X103664352Y-100214500D01*
X103664354Y-100214500D01*
X103853646Y-100214500D01*
X103853648Y-100214500D01*
X103977083Y-100188262D01*
X104038803Y-100175144D01*
X104113824Y-100141742D01*
X104211727Y-100098153D01*
X104211730Y-100098151D01*
X104321118Y-100018676D01*
X104368219Y-99997706D01*
X104419781Y-99997706D01*
X104466881Y-100018676D01*
X104505370Y-100046639D01*
X104576272Y-100098153D01*
X104749197Y-100175144D01*
X104934352Y-100214500D01*
X104934354Y-100214500D01*
X105123646Y-100214500D01*
X105123648Y-100214500D01*
X105247083Y-100188262D01*
X105308803Y-100175144D01*
X105481730Y-100098151D01*
X105481729Y-100098151D01*
X105634870Y-99986889D01*
X105702752Y-99911499D01*
X108785628Y-99911499D01*
X108805414Y-100099757D01*
X108863908Y-100279784D01*
X108958554Y-100443716D01*
X109085217Y-100584389D01*
X109238357Y-100695651D01*
X109411285Y-100772644D01*
X109596440Y-100812000D01*
X109596442Y-100812000D01*
X109785734Y-100812000D01*
X109785736Y-100812000D01*
X109909171Y-100785762D01*
X109970891Y-100772644D01*
X110143818Y-100695651D01*
X110296959Y-100584388D01*
X110423621Y-100443716D01*
X110518267Y-100279784D01*
X110576762Y-100099756D01*
X110596548Y-99911500D01*
X110576762Y-99723244D01*
X110533540Y-99590220D01*
X110518267Y-99543215D01*
X110423621Y-99379283D01*
X110296958Y-99238610D01*
X110143818Y-99127348D01*
X109970890Y-99050355D01*
X109785736Y-99011000D01*
X109785734Y-99011000D01*
X109596442Y-99011000D01*
X109596440Y-99011000D01*
X109411285Y-99050355D01*
X109238357Y-99127348D01*
X109085217Y-99238610D01*
X108958554Y-99379283D01*
X108863908Y-99543215D01*
X108805414Y-99723242D01*
X108785628Y-99911499D01*
X105702752Y-99911499D01*
X105761533Y-99846216D01*
X105856179Y-99682284D01*
X105864358Y-99657112D01*
X105914674Y-99502256D01*
X105934460Y-99314000D01*
X105914674Y-99125744D01*
X105856179Y-98945716D01*
X105856179Y-98945715D01*
X105761533Y-98781783D01*
X105634870Y-98641110D01*
X105481730Y-98529848D01*
X105308802Y-98452855D01*
X105123648Y-98413500D01*
X105123646Y-98413500D01*
X104934354Y-98413500D01*
X104934352Y-98413500D01*
X104749197Y-98452855D01*
X104576269Y-98529848D01*
X104466885Y-98609321D01*
X104419781Y-98630293D01*
X104368219Y-98630293D01*
X104321115Y-98609321D01*
X104211730Y-98529848D01*
X104038802Y-98452855D01*
X103853648Y-98413500D01*
X103853646Y-98413500D01*
X103664354Y-98413500D01*
X103664352Y-98413500D01*
X103479197Y-98452855D01*
X103306269Y-98529848D01*
X103153129Y-98641110D01*
X103026466Y-98781783D01*
X102931820Y-98945715D01*
X102873326Y-99125742D01*
X102853540Y-99313999D01*
X93094112Y-99313999D01*
X93087674Y-99252744D01*
X93055136Y-99152603D01*
X93029179Y-99072715D01*
X92934533Y-98908783D01*
X92807870Y-98768110D01*
X92654730Y-98656848D01*
X92481802Y-98579855D01*
X92296648Y-98540500D01*
X92296646Y-98540500D01*
X92107354Y-98540500D01*
X92107352Y-98540500D01*
X91922197Y-98579855D01*
X91749269Y-98656848D01*
X91596129Y-98768110D01*
X91469466Y-98908783D01*
X91374820Y-99072715D01*
X91316326Y-99252742D01*
X91296540Y-99440999D01*
X89937748Y-99440999D01*
X89883648Y-99429500D01*
X89883646Y-99429500D01*
X89694354Y-99429500D01*
X89694352Y-99429500D01*
X89509197Y-99468855D01*
X89336269Y-99545848D01*
X89183129Y-99657110D01*
X89056466Y-99797783D01*
X88961820Y-99961715D01*
X88903326Y-100141742D01*
X88883540Y-100330000D01*
X83950007Y-100330000D01*
X83959163Y-100272196D01*
X83999558Y-100222313D01*
X84059482Y-100199310D01*
X84122879Y-100209352D01*
X84175198Y-100232646D01*
X84360353Y-100272002D01*
X84360355Y-100272002D01*
X84549647Y-100272002D01*
X84549649Y-100272002D01*
X84673084Y-100245764D01*
X84734804Y-100232646D01*
X84907731Y-100155653D01*
X84926878Y-100141742D01*
X85060871Y-100044391D01*
X85124958Y-99973216D01*
X85187534Y-99903718D01*
X85282180Y-99739786D01*
X85299055Y-99687849D01*
X85306420Y-99665183D01*
X85332201Y-99620528D01*
X85373915Y-99590220D01*
X85424351Y-99579500D01*
X85565648Y-99579500D01*
X85689083Y-99553262D01*
X85750803Y-99540144D01*
X85923730Y-99463151D01*
X85970047Y-99429500D01*
X86076870Y-99351889D01*
X86110987Y-99313999D01*
X86203533Y-99211216D01*
X86298179Y-99047284D01*
X86356674Y-98867256D01*
X86376460Y-98679000D01*
X86356674Y-98490744D01*
X86326332Y-98397363D01*
X86298179Y-98310715D01*
X86203533Y-98146783D01*
X86076870Y-98006110D01*
X85923730Y-97894848D01*
X85872413Y-97872000D01*
X89500540Y-97872000D01*
X89505270Y-97917000D01*
X89520326Y-98060257D01*
X89578820Y-98240284D01*
X89673466Y-98404216D01*
X89800129Y-98544889D01*
X89953269Y-98656151D01*
X90126197Y-98733144D01*
X90311352Y-98772500D01*
X90311354Y-98772500D01*
X90500646Y-98772500D01*
X90500648Y-98772500D01*
X90624083Y-98746262D01*
X90685803Y-98733144D01*
X90858730Y-98656151D01*
X90863931Y-98652372D01*
X91011870Y-98544889D01*
X91138533Y-98404216D01*
X91233179Y-98240284D01*
X91252703Y-98180196D01*
X91291674Y-98060256D01*
X91306730Y-97917000D01*
X109965540Y-97917000D01*
X109985326Y-98105257D01*
X110043820Y-98285284D01*
X110138466Y-98449216D01*
X110265129Y-98589889D01*
X110418269Y-98701151D01*
X110591197Y-98778144D01*
X110776352Y-98817500D01*
X110776354Y-98817500D01*
X110965646Y-98817500D01*
X110965648Y-98817500D01*
X111089083Y-98791262D01*
X111150803Y-98778144D01*
X111323730Y-98701151D01*
X111327225Y-98698612D01*
X111476870Y-98589889D01*
X111530931Y-98529849D01*
X111603533Y-98449216D01*
X111690837Y-98298000D01*
X117966540Y-98298000D01*
X117973945Y-98368452D01*
X117986326Y-98486257D01*
X118044820Y-98666284D01*
X118139466Y-98830216D01*
X118266129Y-98970889D01*
X118419269Y-99082151D01*
X118592197Y-99159144D01*
X118777352Y-99198500D01*
X118777354Y-99198500D01*
X118966646Y-99198500D01*
X118966648Y-99198500D01*
X119090084Y-99172262D01*
X119151803Y-99159144D01*
X119324730Y-99082151D01*
X119372721Y-99047284D01*
X119477870Y-98970889D01*
X119604533Y-98830216D01*
X119699179Y-98666284D01*
X119707358Y-98641112D01*
X119757674Y-98486256D01*
X119777460Y-98298000D01*
X119757674Y-98109744D01*
X119699179Y-97929716D01*
X119699179Y-97929715D01*
X119604533Y-97765783D01*
X119477870Y-97625110D01*
X119324730Y-97513848D01*
X119151802Y-97436855D01*
X118966648Y-97397500D01*
X118966646Y-97397500D01*
X118777354Y-97397500D01*
X118777352Y-97397500D01*
X118592197Y-97436855D01*
X118419269Y-97513848D01*
X118266129Y-97625110D01*
X118139466Y-97765783D01*
X118044820Y-97929715D01*
X117986326Y-98109742D01*
X117978921Y-98180196D01*
X117966540Y-98298000D01*
X111690837Y-98298000D01*
X111698179Y-98285284D01*
X111756674Y-98105256D01*
X111776460Y-97917000D01*
X111756674Y-97728744D01*
X111723001Y-97625110D01*
X111698179Y-97548715D01*
X111603533Y-97384783D01*
X111476870Y-97244110D01*
X111323730Y-97132848D01*
X111150802Y-97055855D01*
X110965648Y-97016500D01*
X110965646Y-97016500D01*
X110776354Y-97016500D01*
X110776352Y-97016500D01*
X110591197Y-97055855D01*
X110418269Y-97132848D01*
X110265129Y-97244110D01*
X110138466Y-97384783D01*
X110043820Y-97548715D01*
X109985326Y-97728742D01*
X109965540Y-97917000D01*
X91306730Y-97917000D01*
X91311460Y-97872000D01*
X91291674Y-97683744D01*
X91259363Y-97584301D01*
X91233179Y-97503715D01*
X91138533Y-97339783D01*
X91011870Y-97199110D01*
X90858730Y-97087848D01*
X90685802Y-97010855D01*
X90500648Y-96971500D01*
X90500646Y-96971500D01*
X90311354Y-96971500D01*
X90311352Y-96971500D01*
X90126197Y-97010855D01*
X89953269Y-97087848D01*
X89800129Y-97199110D01*
X89673466Y-97339783D01*
X89578820Y-97503715D01*
X89520326Y-97683742D01*
X89504299Y-97836235D01*
X89500540Y-97872000D01*
X85872413Y-97872000D01*
X85750802Y-97817855D01*
X85565648Y-97778500D01*
X85565646Y-97778500D01*
X85376354Y-97778500D01*
X85376352Y-97778500D01*
X85191197Y-97817855D01*
X85018269Y-97894848D01*
X84865129Y-98006110D01*
X84738466Y-98146783D01*
X84643820Y-98310715D01*
X84619580Y-98385320D01*
X84593799Y-98429974D01*
X84552084Y-98460282D01*
X84501649Y-98471002D01*
X84360353Y-98471002D01*
X84175198Y-98510357D01*
X84002270Y-98587350D01*
X83849130Y-98698612D01*
X83722467Y-98839285D01*
X83627821Y-99003217D01*
X83569327Y-99183244D01*
X83551602Y-99351888D01*
X83549541Y-99371502D01*
X83563283Y-99502256D01*
X83563878Y-99507909D01*
X83553837Y-99571306D01*
X83513442Y-99621188D01*
X83453518Y-99644191D01*
X83390121Y-99634150D01*
X83337803Y-99610856D01*
X83337802Y-99610855D01*
X83337798Y-99610854D01*
X83152648Y-99571500D01*
X83152646Y-99571500D01*
X82963354Y-99571500D01*
X82963352Y-99571500D01*
X82778197Y-99610855D01*
X82605269Y-99687848D01*
X82452129Y-99799110D01*
X82325466Y-99939783D01*
X82230820Y-100103715D01*
X82172326Y-100283742D01*
X82152540Y-100471999D01*
X72390500Y-100471999D01*
X72390500Y-98775394D01*
X72409803Y-98708952D01*
X72461703Y-98663196D01*
X72530041Y-98652372D01*
X72593540Y-98679850D01*
X72624888Y-98725977D01*
X72625804Y-98725449D01*
X72726966Y-98900668D01*
X72853629Y-99041341D01*
X73006769Y-99152603D01*
X73179697Y-99229596D01*
X73364852Y-99268952D01*
X73364854Y-99268952D01*
X73554146Y-99268952D01*
X73554148Y-99268952D01*
X73677583Y-99242714D01*
X73739303Y-99229596D01*
X73912230Y-99152603D01*
X74009199Y-99082151D01*
X74065370Y-99041341D01*
X74128806Y-98970889D01*
X74192033Y-98900668D01*
X74286679Y-98736736D01*
X74345174Y-98556708D01*
X74364960Y-98368452D01*
X74345174Y-98180196D01*
X74306203Y-98060256D01*
X74286679Y-98000167D01*
X74192033Y-97836235D01*
X74065370Y-97695562D01*
X73912230Y-97584300D01*
X73739302Y-97507307D01*
X73554148Y-97467952D01*
X73554146Y-97467952D01*
X73364854Y-97467952D01*
X73364852Y-97467952D01*
X73179697Y-97507307D01*
X73006769Y-97584300D01*
X72853629Y-97695562D01*
X72726966Y-97836235D01*
X72625804Y-98011455D01*
X72624888Y-98010926D01*
X72593540Y-98057054D01*
X72530041Y-98084532D01*
X72461703Y-98073708D01*
X72409803Y-98027952D01*
X72390500Y-97961510D01*
X72390500Y-96647000D01*
X80247540Y-96647000D01*
X80267326Y-96835257D01*
X80325820Y-97015284D01*
X80420466Y-97179216D01*
X80547129Y-97319889D01*
X80700269Y-97431151D01*
X80873197Y-97508144D01*
X81058352Y-97547500D01*
X81058354Y-97547500D01*
X81247646Y-97547500D01*
X81247648Y-97547500D01*
X81371083Y-97521262D01*
X81432803Y-97508144D01*
X81605730Y-97431151D01*
X81671151Y-97383619D01*
X81733659Y-97360372D01*
X81799169Y-97372867D01*
X81848731Y-97417491D01*
X81868010Y-97481335D01*
X81851427Y-97545931D01*
X81849822Y-97548710D01*
X81791326Y-97728742D01*
X81771540Y-97917000D01*
X81791326Y-98105257D01*
X81849820Y-98285284D01*
X81944466Y-98449216D01*
X82071129Y-98589889D01*
X82224269Y-98701151D01*
X82397197Y-98778144D01*
X82582352Y-98817500D01*
X82582354Y-98817500D01*
X82771646Y-98817500D01*
X82771648Y-98817500D01*
X82895083Y-98791262D01*
X82956803Y-98778144D01*
X83129730Y-98701151D01*
X83133225Y-98698612D01*
X83282870Y-98589889D01*
X83336931Y-98529849D01*
X83409533Y-98449216D01*
X83504179Y-98285284D01*
X83562674Y-98105256D01*
X83582460Y-97917000D01*
X83562674Y-97728744D01*
X83529001Y-97625110D01*
X83504179Y-97548715D01*
X83409533Y-97384783D01*
X83282870Y-97244110D01*
X83129730Y-97132848D01*
X82956802Y-97055855D01*
X82771648Y-97016500D01*
X82771646Y-97016500D01*
X82582354Y-97016500D01*
X82582352Y-97016500D01*
X82397197Y-97055855D01*
X82224269Y-97132848D01*
X82158847Y-97180380D01*
X82096337Y-97203627D01*
X82030826Y-97191129D01*
X81981264Y-97146502D01*
X81961989Y-97082656D01*
X81978577Y-97018059D01*
X81979477Y-97016500D01*
X81980179Y-97015284D01*
X82038674Y-96835256D01*
X82058460Y-96647000D01*
X82038674Y-96458744D01*
X81980179Y-96278716D01*
X81980179Y-96278715D01*
X81885533Y-96114783D01*
X81758870Y-95974110D01*
X81605730Y-95862848D01*
X81432802Y-95785855D01*
X81247648Y-95746500D01*
X81247646Y-95746500D01*
X81058354Y-95746500D01*
X81058352Y-95746500D01*
X80873197Y-95785855D01*
X80700269Y-95862848D01*
X80547129Y-95974110D01*
X80420466Y-96114783D01*
X80325820Y-96278715D01*
X80267326Y-96458742D01*
X80247540Y-96647000D01*
X72390500Y-96647000D01*
X72390500Y-95504000D01*
X83549540Y-95504000D01*
X83569326Y-95692257D01*
X83627820Y-95872284D01*
X83722466Y-96036216D01*
X83849129Y-96176889D01*
X84002269Y-96288151D01*
X84175197Y-96365144D01*
X84360352Y-96404500D01*
X84360354Y-96404500D01*
X84549646Y-96404500D01*
X84549648Y-96404500D01*
X84673083Y-96378262D01*
X84734803Y-96365144D01*
X84907730Y-96288151D01*
X85060871Y-96176888D01*
X85187533Y-96036216D01*
X85282179Y-95872284D01*
X85340674Y-95692256D01*
X85360460Y-95504000D01*
X87618040Y-95504000D01*
X87637826Y-95692257D01*
X87696320Y-95872284D01*
X87790966Y-96036216D01*
X87917629Y-96176889D01*
X88070769Y-96288151D01*
X88243697Y-96365144D01*
X88428852Y-96404500D01*
X88428854Y-96404500D01*
X88618146Y-96404500D01*
X88618148Y-96404500D01*
X88741583Y-96378262D01*
X88803303Y-96365144D01*
X88976230Y-96288151D01*
X89129371Y-96176888D01*
X89256033Y-96036216D01*
X89350679Y-95872284D01*
X89409174Y-95692256D01*
X89415612Y-95631000D01*
X97138540Y-95631000D01*
X97158326Y-95819257D01*
X97216820Y-95999284D01*
X97311466Y-96163216D01*
X97438129Y-96303889D01*
X97591269Y-96415151D01*
X97764197Y-96492144D01*
X97949352Y-96531500D01*
X97949354Y-96531500D01*
X98138646Y-96531500D01*
X98138648Y-96531500D01*
X98262083Y-96505262D01*
X98323803Y-96492144D01*
X98496730Y-96415151D01*
X98649871Y-96303888D01*
X98776533Y-96163216D01*
X98871179Y-95999284D01*
X98929674Y-95819256D01*
X98949460Y-95631000D01*
X98929674Y-95442744D01*
X98871179Y-95262716D01*
X98871179Y-95262715D01*
X98776533Y-95098783D01*
X98650221Y-94958500D01*
X103309323Y-94958500D01*
X103329109Y-95146757D01*
X103387603Y-95326784D01*
X103482249Y-95490716D01*
X103608912Y-95631389D01*
X103762052Y-95742651D01*
X103934980Y-95819644D01*
X104120135Y-95859000D01*
X104120137Y-95859000D01*
X104309429Y-95859000D01*
X104309431Y-95859000D01*
X104432866Y-95832762D01*
X104494586Y-95819644D01*
X104667513Y-95742651D01*
X104820654Y-95631388D01*
X104947316Y-95490716D01*
X105041962Y-95326784D01*
X105100457Y-95146756D01*
X105120243Y-94958500D01*
X105100457Y-94770244D01*
X105059066Y-94642855D01*
X105041962Y-94590215D01*
X104982948Y-94487999D01*
X107171540Y-94487999D01*
X107191326Y-94676257D01*
X107249820Y-94856284D01*
X107344466Y-95020216D01*
X107471129Y-95160889D01*
X107624269Y-95272151D01*
X107797197Y-95349144D01*
X107982352Y-95388500D01*
X107982354Y-95388500D01*
X108171646Y-95388500D01*
X108171648Y-95388500D01*
X108295084Y-95362262D01*
X108356803Y-95349144D01*
X108529730Y-95272151D01*
X108682871Y-95160888D01*
X108809533Y-95020216D01*
X108904179Y-94856284D01*
X108962674Y-94676256D01*
X108982460Y-94488000D01*
X108962674Y-94299744D01*
X108962671Y-94299736D01*
X108962228Y-94295516D01*
X108971238Y-94234503D01*
X109008526Y-94185377D01*
X109064868Y-94160291D01*
X109126326Y-94165451D01*
X109177697Y-94199580D01*
X109185628Y-94208388D01*
X109338769Y-94319651D01*
X109511697Y-94396644D01*
X109696852Y-94436000D01*
X109696854Y-94436000D01*
X109886146Y-94436000D01*
X109886148Y-94436000D01*
X110009584Y-94409762D01*
X110071303Y-94396644D01*
X110244230Y-94319651D01*
X110271630Y-94299744D01*
X110397370Y-94208389D01*
X110524033Y-94067716D01*
X110618679Y-93903784D01*
X110631863Y-93863208D01*
X110677174Y-93723756D01*
X110696960Y-93535500D01*
X110677174Y-93347244D01*
X110618679Y-93167216D01*
X110618679Y-93167215D01*
X110574676Y-93090999D01*
X111108540Y-93090999D01*
X111128326Y-93279257D01*
X111186820Y-93459284D01*
X111281466Y-93623216D01*
X111408129Y-93763889D01*
X111561269Y-93875151D01*
X111734197Y-93952144D01*
X111919352Y-93991500D01*
X111919354Y-93991500D01*
X112108646Y-93991500D01*
X112108648Y-93991500D01*
X112232084Y-93965262D01*
X112293803Y-93952144D01*
X112466730Y-93875151D01*
X112549367Y-93815112D01*
X112619870Y-93763889D01*
X112673931Y-93703849D01*
X112746533Y-93623216D01*
X112841179Y-93459284D01*
X112899674Y-93279256D01*
X112919460Y-93091000D01*
X112899674Y-92902744D01*
X112869332Y-92809363D01*
X112841179Y-92722715D01*
X112746533Y-92558783D01*
X112619870Y-92418110D01*
X112466730Y-92306848D01*
X112293802Y-92229855D01*
X112108648Y-92190500D01*
X112108646Y-92190500D01*
X111919354Y-92190500D01*
X111919352Y-92190500D01*
X111734197Y-92229855D01*
X111561269Y-92306848D01*
X111408129Y-92418110D01*
X111281466Y-92558783D01*
X111186820Y-92722715D01*
X111128326Y-92902742D01*
X111108540Y-93090999D01*
X110574676Y-93090999D01*
X110524033Y-93003283D01*
X110397370Y-92862610D01*
X110244230Y-92751348D01*
X110071302Y-92674355D01*
X109886148Y-92635000D01*
X109886146Y-92635000D01*
X109696854Y-92635000D01*
X109696852Y-92635000D01*
X109511697Y-92674355D01*
X109338769Y-92751348D01*
X109185629Y-92862610D01*
X109058966Y-93003283D01*
X108964320Y-93167215D01*
X108905826Y-93347242D01*
X108905825Y-93347244D01*
X108905826Y-93347244D01*
X108886040Y-93535500D01*
X108905826Y-93723756D01*
X108905826Y-93723758D01*
X108906271Y-93727984D01*
X108897261Y-93788997D01*
X108859973Y-93838122D01*
X108803631Y-93863208D01*
X108742172Y-93858048D01*
X108690802Y-93823919D01*
X108682871Y-93815111D01*
X108529730Y-93703848D01*
X108356802Y-93626855D01*
X108171648Y-93587500D01*
X108171646Y-93587500D01*
X107982354Y-93587500D01*
X107982352Y-93587500D01*
X107797197Y-93626855D01*
X107624269Y-93703848D01*
X107471129Y-93815110D01*
X107344466Y-93955783D01*
X107249820Y-94119715D01*
X107191326Y-94299742D01*
X107171540Y-94487999D01*
X104982948Y-94487999D01*
X104947316Y-94426283D01*
X104820653Y-94285610D01*
X104667513Y-94174348D01*
X104494585Y-94097355D01*
X104309431Y-94058000D01*
X104309429Y-94058000D01*
X104120137Y-94058000D01*
X104120135Y-94058000D01*
X103934980Y-94097355D01*
X103762052Y-94174348D01*
X103608912Y-94285610D01*
X103482249Y-94426283D01*
X103387603Y-94590215D01*
X103329109Y-94770242D01*
X103309323Y-94958500D01*
X98650221Y-94958500D01*
X98649870Y-94958110D01*
X98496730Y-94846848D01*
X98323802Y-94769855D01*
X98138648Y-94730500D01*
X98138646Y-94730500D01*
X97949354Y-94730500D01*
X97949352Y-94730500D01*
X97764197Y-94769855D01*
X97591269Y-94846848D01*
X97438129Y-94958110D01*
X97311466Y-95098783D01*
X97216820Y-95262715D01*
X97158326Y-95442742D01*
X97138540Y-95631000D01*
X89415612Y-95631000D01*
X89428960Y-95504000D01*
X89409174Y-95315744D01*
X89358858Y-95160888D01*
X89350679Y-95135715D01*
X89256033Y-94971783D01*
X89129370Y-94831110D01*
X88976230Y-94719848D01*
X88803302Y-94642855D01*
X88618148Y-94603500D01*
X88618146Y-94603500D01*
X88428854Y-94603500D01*
X88428852Y-94603500D01*
X88243697Y-94642855D01*
X88070769Y-94719848D01*
X87917629Y-94831110D01*
X87790966Y-94971783D01*
X87696320Y-95135715D01*
X87637826Y-95315742D01*
X87618040Y-95504000D01*
X85360460Y-95504000D01*
X85340674Y-95315744D01*
X85290358Y-95160888D01*
X85282179Y-95135715D01*
X85187533Y-94971783D01*
X85060870Y-94831110D01*
X84907730Y-94719848D01*
X84734802Y-94642855D01*
X84549648Y-94603500D01*
X84549646Y-94603500D01*
X84360354Y-94603500D01*
X84360352Y-94603500D01*
X84175197Y-94642855D01*
X84002269Y-94719848D01*
X83849129Y-94831110D01*
X83722466Y-94971783D01*
X83627820Y-95135715D01*
X83569326Y-95315742D01*
X83549540Y-95504000D01*
X72390500Y-95504000D01*
X72390500Y-93912201D01*
X74003040Y-93912201D01*
X74022826Y-94100458D01*
X74081320Y-94280485D01*
X74175966Y-94444417D01*
X74302629Y-94585090D01*
X74455769Y-94696352D01*
X74628697Y-94773345D01*
X74813852Y-94812701D01*
X74813854Y-94812701D01*
X75003146Y-94812701D01*
X75003148Y-94812701D01*
X75126584Y-94786463D01*
X75188303Y-94773345D01*
X75361230Y-94696352D01*
X75434863Y-94642855D01*
X75514370Y-94585090D01*
X75601791Y-94487999D01*
X92439540Y-94487999D01*
X92459326Y-94676257D01*
X92517820Y-94856284D01*
X92612466Y-95020216D01*
X92739129Y-95160889D01*
X92892269Y-95272151D01*
X93065197Y-95349144D01*
X93250352Y-95388500D01*
X93250354Y-95388500D01*
X93439646Y-95388500D01*
X93439648Y-95388500D01*
X93563084Y-95362262D01*
X93624803Y-95349144D01*
X93797730Y-95272151D01*
X93950871Y-95160888D01*
X94077533Y-95020216D01*
X94172179Y-94856284D01*
X94230674Y-94676256D01*
X94250460Y-94488000D01*
X94230674Y-94299744D01*
X94193514Y-94185377D01*
X94172179Y-94119715D01*
X94077533Y-93955783D01*
X93950870Y-93815110D01*
X93797730Y-93703848D01*
X93624802Y-93626855D01*
X93439648Y-93587500D01*
X93439646Y-93587500D01*
X93250354Y-93587500D01*
X93250352Y-93587500D01*
X93065197Y-93626855D01*
X92892269Y-93703848D01*
X92739129Y-93815110D01*
X92612466Y-93955783D01*
X92517820Y-94119715D01*
X92459326Y-94299742D01*
X92439540Y-94487999D01*
X75601791Y-94487999D01*
X75641033Y-94444417D01*
X75735679Y-94280485D01*
X75735678Y-94280485D01*
X75794174Y-94100457D01*
X75813960Y-93912201D01*
X75794174Y-93723945D01*
X75735679Y-93543917D01*
X75735679Y-93543916D01*
X75641033Y-93379984D01*
X75514370Y-93239311D01*
X75361230Y-93128049D01*
X75188302Y-93051056D01*
X75003148Y-93011701D01*
X75003146Y-93011701D01*
X74813854Y-93011701D01*
X74813852Y-93011701D01*
X74628697Y-93051056D01*
X74455769Y-93128049D01*
X74302629Y-93239311D01*
X74175966Y-93379984D01*
X74081320Y-93543916D01*
X74022826Y-93723943D01*
X74003040Y-93912201D01*
X72390500Y-93912201D01*
X72390500Y-91371869D01*
X80173500Y-91371869D01*
X80179909Y-91431483D01*
X80230204Y-91566331D01*
X80316454Y-91681546D01*
X80431669Y-91767796D01*
X80566517Y-91818091D01*
X80626127Y-91824500D01*
X82521872Y-91824499D01*
X82581483Y-91818091D01*
X82716331Y-91767796D01*
X82831546Y-91681546D01*
X82917796Y-91566331D01*
X82936093Y-91517272D01*
X82968205Y-91469458D01*
X83018458Y-91441308D01*
X83076007Y-91438900D01*
X83128435Y-91462753D01*
X83305374Y-91600470D01*
X83509497Y-91710936D01*
X83619258Y-91748617D01*
X83729015Y-91786297D01*
X83729017Y-91786297D01*
X83729019Y-91786298D01*
X83957951Y-91824500D01*
X84190048Y-91824500D01*
X84190049Y-91824500D01*
X84418981Y-91786298D01*
X84638503Y-91710936D01*
X84842626Y-91600470D01*
X85025784Y-91457913D01*
X85182979Y-91287153D01*
X85220192Y-91230193D01*
X85264982Y-91188961D01*
X85324000Y-91174016D01*
X85383018Y-91188961D01*
X85427807Y-91230193D01*
X85465021Y-91287153D01*
X85622216Y-91457913D01*
X85805374Y-91600470D01*
X86009497Y-91710936D01*
X86119258Y-91748617D01*
X86229015Y-91786297D01*
X86229017Y-91786297D01*
X86229019Y-91786298D01*
X86457951Y-91824500D01*
X86690048Y-91824500D01*
X86690049Y-91824500D01*
X86711023Y-91821000D01*
X89899540Y-91821000D01*
X89919326Y-92009257D01*
X89977820Y-92189284D01*
X90072466Y-92353216D01*
X90199129Y-92493889D01*
X90352269Y-92605151D01*
X90525197Y-92682144D01*
X90710352Y-92721500D01*
X90710354Y-92721500D01*
X90899646Y-92721500D01*
X90899648Y-92721500D01*
X91023084Y-92695262D01*
X91084803Y-92682144D01*
X91257730Y-92605151D01*
X91410871Y-92493888D01*
X91537533Y-92353216D01*
X91632179Y-92189284D01*
X91690674Y-92009256D01*
X91710460Y-91821000D01*
X91690674Y-91632744D01*
X91633868Y-91457913D01*
X91632179Y-91452715D01*
X91585503Y-91371869D01*
X105573500Y-91371869D01*
X105579909Y-91431483D01*
X105630204Y-91566331D01*
X105716454Y-91681546D01*
X105831669Y-91767796D01*
X105966517Y-91818091D01*
X106026127Y-91824500D01*
X107921872Y-91824499D01*
X107981483Y-91818091D01*
X108116331Y-91767796D01*
X108231546Y-91681546D01*
X108317796Y-91566331D01*
X108336093Y-91517272D01*
X108368205Y-91469458D01*
X108418458Y-91441308D01*
X108476007Y-91438900D01*
X108528435Y-91462753D01*
X108705374Y-91600470D01*
X108909497Y-91710936D01*
X109019258Y-91748617D01*
X109129015Y-91786297D01*
X109129017Y-91786297D01*
X109129019Y-91786298D01*
X109357951Y-91824500D01*
X109590048Y-91824500D01*
X109590049Y-91824500D01*
X109818981Y-91786298D01*
X110038503Y-91710936D01*
X110242626Y-91600470D01*
X110425784Y-91457913D01*
X110582979Y-91287153D01*
X110620192Y-91230193D01*
X110664982Y-91188961D01*
X110724000Y-91174016D01*
X110783018Y-91188961D01*
X110827807Y-91230193D01*
X110865021Y-91287153D01*
X111022216Y-91457913D01*
X111205374Y-91600470D01*
X111409497Y-91710936D01*
X111519258Y-91748617D01*
X111629015Y-91786297D01*
X111629017Y-91786297D01*
X111629019Y-91786298D01*
X111857951Y-91824500D01*
X112090048Y-91824500D01*
X112090049Y-91824500D01*
X112318981Y-91786298D01*
X112538503Y-91710936D01*
X112742626Y-91600470D01*
X112925784Y-91457913D01*
X113082979Y-91287153D01*
X113209924Y-91092849D01*
X113303157Y-90880300D01*
X113360134Y-90655305D01*
X113379300Y-90424000D01*
X113360134Y-90192695D01*
X113303157Y-89967700D01*
X113209924Y-89755151D01*
X113082979Y-89560847D01*
X112925784Y-89390087D01*
X112742626Y-89247530D01*
X112538503Y-89137064D01*
X112538499Y-89137062D01*
X112538498Y-89137062D01*
X112318984Y-89061702D01*
X112128444Y-89029907D01*
X112090049Y-89023500D01*
X111857951Y-89023500D01*
X111819556Y-89029907D01*
X111629015Y-89061702D01*
X111409501Y-89137062D01*
X111409497Y-89137063D01*
X111409497Y-89137064D01*
X111273414Y-89210708D01*
X111205372Y-89247531D01*
X111022215Y-89390087D01*
X110876590Y-89548279D01*
X110865021Y-89560847D01*
X110865021Y-89560848D01*
X110827809Y-89617805D01*
X110783017Y-89659038D01*
X110724000Y-89673983D01*
X110664983Y-89659038D01*
X110620191Y-89617805D01*
X110582979Y-89560847D01*
X110425784Y-89390087D01*
X110242626Y-89247530D01*
X110038503Y-89137064D01*
X110038499Y-89137062D01*
X110038498Y-89137062D01*
X109818984Y-89061702D01*
X109628444Y-89029907D01*
X109590049Y-89023500D01*
X109357951Y-89023500D01*
X109319556Y-89029907D01*
X109129015Y-89061702D01*
X108909501Y-89137062D01*
X108909497Y-89137063D01*
X108909497Y-89137064D01*
X108773414Y-89210708D01*
X108705372Y-89247531D01*
X108528436Y-89385245D01*
X108476007Y-89409099D01*
X108418458Y-89406691D01*
X108368205Y-89378541D01*
X108336092Y-89330724D01*
X108317796Y-89281669D01*
X108231546Y-89166454D01*
X108116331Y-89080204D01*
X108033074Y-89049151D01*
X107981479Y-89029907D01*
X107915588Y-89022823D01*
X107863864Y-89005145D01*
X107824768Y-88966944D01*
X107805895Y-88915644D01*
X107810913Y-88861217D01*
X107819674Y-88834256D01*
X107839460Y-88646000D01*
X107819674Y-88457744D01*
X107789332Y-88364363D01*
X107761179Y-88277715D01*
X107666533Y-88113783D01*
X107539870Y-87973110D01*
X107386730Y-87861848D01*
X107213802Y-87784855D01*
X107028648Y-87745500D01*
X107028646Y-87745500D01*
X106839354Y-87745500D01*
X106839352Y-87745500D01*
X106654197Y-87784855D01*
X106481269Y-87861848D01*
X106328129Y-87973110D01*
X106201466Y-88113783D01*
X106106820Y-88277715D01*
X106048326Y-88457742D01*
X106048325Y-88457744D01*
X106048326Y-88457744D01*
X106028540Y-88646000D01*
X106048326Y-88834256D01*
X106048327Y-88834259D01*
X106059786Y-88869528D01*
X106064804Y-88923954D01*
X106045935Y-88975250D01*
X106006844Y-89013450D01*
X105980376Y-89022499D01*
X105981110Y-89024466D01*
X105831669Y-89080204D01*
X105716454Y-89166454D01*
X105630204Y-89281668D01*
X105579909Y-89416516D01*
X105573500Y-89476130D01*
X105573500Y-91371869D01*
X91585503Y-91371869D01*
X91537533Y-91288783D01*
X91410870Y-91148110D01*
X91257730Y-91036848D01*
X91084802Y-90959855D01*
X90899648Y-90920500D01*
X90899646Y-90920500D01*
X90710354Y-90920500D01*
X90710352Y-90920500D01*
X90525197Y-90959855D01*
X90352269Y-91036848D01*
X90199129Y-91148110D01*
X90072466Y-91288783D01*
X89977820Y-91452715D01*
X89919326Y-91632742D01*
X89899540Y-91821000D01*
X86711023Y-91821000D01*
X86918981Y-91786298D01*
X87138503Y-91710936D01*
X87342626Y-91600470D01*
X87525784Y-91457913D01*
X87682979Y-91287153D01*
X87809924Y-91092849D01*
X87903157Y-90880300D01*
X87960134Y-90655305D01*
X87979300Y-90424000D01*
X87960134Y-90192695D01*
X87903157Y-89967700D01*
X87809924Y-89755151D01*
X87682979Y-89560847D01*
X87525784Y-89390087D01*
X87342626Y-89247530D01*
X87169798Y-89154000D01*
X96376540Y-89154000D01*
X96396326Y-89342257D01*
X96454820Y-89522284D01*
X96549466Y-89686216D01*
X96676129Y-89826889D01*
X96829269Y-89938151D01*
X97002197Y-90015144D01*
X97187352Y-90054500D01*
X97187354Y-90054500D01*
X97376646Y-90054500D01*
X97376648Y-90054500D01*
X97500084Y-90028262D01*
X97561803Y-90015144D01*
X97734730Y-89938151D01*
X97887871Y-89826888D01*
X98014533Y-89686216D01*
X98109179Y-89522284D01*
X98167674Y-89342256D01*
X98187460Y-89154000D01*
X98167674Y-88965744D01*
X98109179Y-88785716D01*
X98109179Y-88785715D01*
X98014533Y-88621783D01*
X97887870Y-88481110D01*
X97734730Y-88369848D01*
X97561802Y-88292855D01*
X97376648Y-88253500D01*
X97376646Y-88253500D01*
X97187354Y-88253500D01*
X97187352Y-88253500D01*
X97002197Y-88292855D01*
X96829269Y-88369848D01*
X96676129Y-88481110D01*
X96549466Y-88621783D01*
X96454820Y-88785715D01*
X96396326Y-88965742D01*
X96376540Y-89154000D01*
X87169798Y-89154000D01*
X87138503Y-89137064D01*
X87138499Y-89137062D01*
X87138498Y-89137062D01*
X86918984Y-89061702D01*
X86728444Y-89029907D01*
X86690049Y-89023500D01*
X86457951Y-89023500D01*
X86425246Y-89028957D01*
X86229013Y-89061702D01*
X86116253Y-89100413D01*
X86051816Y-89104753D01*
X85993937Y-89076100D01*
X85958316Y-89022229D01*
X85954616Y-88957751D01*
X85983842Y-88900159D01*
X86011423Y-88869528D01*
X86076533Y-88797216D01*
X86171179Y-88633284D01*
X86229674Y-88453256D01*
X86249460Y-88265000D01*
X86229674Y-88076744D01*
X86171179Y-87896716D01*
X86171179Y-87896715D01*
X86076533Y-87732783D01*
X85949870Y-87592110D01*
X85796730Y-87480848D01*
X85623802Y-87403855D01*
X85438648Y-87364500D01*
X85438646Y-87364500D01*
X85249354Y-87364500D01*
X85249352Y-87364500D01*
X85064197Y-87403855D01*
X84891269Y-87480848D01*
X84738129Y-87592110D01*
X84611466Y-87732783D01*
X84516820Y-87896715D01*
X84458326Y-88076742D01*
X84438540Y-88265000D01*
X84458326Y-88453257D01*
X84516820Y-88633284D01*
X84611464Y-88797213D01*
X84611467Y-88797216D01*
X84722056Y-88920037D01*
X84751280Y-88977628D01*
X84747580Y-89042105D01*
X84711959Y-89095976D01*
X84654080Y-89124629D01*
X84589642Y-89120289D01*
X84418984Y-89061702D01*
X84228444Y-89029907D01*
X84190049Y-89023500D01*
X83957951Y-89023500D01*
X83919556Y-89029907D01*
X83729015Y-89061702D01*
X83509501Y-89137062D01*
X83509497Y-89137063D01*
X83509497Y-89137064D01*
X83373414Y-89210708D01*
X83305372Y-89247531D01*
X83128436Y-89385245D01*
X83076007Y-89409099D01*
X83018458Y-89406691D01*
X82968205Y-89378541D01*
X82936092Y-89330724D01*
X82917796Y-89281669D01*
X82831546Y-89166454D01*
X82716331Y-89080204D01*
X82581483Y-89029909D01*
X82521873Y-89023500D01*
X82521869Y-89023500D01*
X80626130Y-89023500D01*
X80566515Y-89029909D01*
X80431669Y-89080204D01*
X80316454Y-89166454D01*
X80230204Y-89281668D01*
X80179909Y-89416516D01*
X80173500Y-89476130D01*
X80173500Y-91371869D01*
X72390500Y-91371869D01*
X72390500Y-83252003D01*
X77413500Y-83252003D01*
X77428402Y-83455617D01*
X77487616Y-83721438D01*
X77566259Y-83927057D01*
X77584907Y-83975814D01*
X77718196Y-84213310D01*
X77766987Y-84276496D01*
X77884645Y-84428869D01*
X78080704Y-84617894D01*
X78302199Y-84776359D01*
X78544397Y-84900882D01*
X78544403Y-84900885D01*
X78802159Y-84988819D01*
X78802161Y-84988819D01*
X78802163Y-84988820D01*
X79069970Y-85038286D01*
X79342130Y-85048232D01*
X79342130Y-85048231D01*
X79342131Y-85048232D01*
X79612839Y-85018446D01*
X79876326Y-84949562D01*
X80126975Y-84843047D01*
X80359444Y-84701173D01*
X80568779Y-84526963D01*
X80750518Y-84324131D01*
X80900788Y-84096998D01*
X81016386Y-83850406D01*
X81094847Y-83589611D01*
X81134500Y-83320171D01*
X81134500Y-83252003D01*
X87013500Y-83252003D01*
X87028402Y-83455617D01*
X87087616Y-83721438D01*
X87166259Y-83927057D01*
X87184907Y-83975814D01*
X87318196Y-84213310D01*
X87366987Y-84276496D01*
X87484645Y-84428869D01*
X87680704Y-84617894D01*
X87902199Y-84776359D01*
X88144397Y-84900882D01*
X88144403Y-84900885D01*
X88402159Y-84988819D01*
X88402161Y-84988819D01*
X88402163Y-84988820D01*
X88669970Y-85038286D01*
X88942130Y-85048232D01*
X88942130Y-85048231D01*
X88942131Y-85048232D01*
X89212839Y-85018446D01*
X89476326Y-84949562D01*
X89726975Y-84843047D01*
X89959444Y-84701173D01*
X90093657Y-84589480D01*
X93194060Y-84589480D01*
X93213846Y-84777737D01*
X93272340Y-84957764D01*
X93366986Y-85121696D01*
X93493649Y-85262369D01*
X93646789Y-85373631D01*
X93819717Y-85450624D01*
X94004872Y-85489980D01*
X94004874Y-85489980D01*
X94194166Y-85489980D01*
X94194168Y-85489980D01*
X94317604Y-85463742D01*
X94379323Y-85450624D01*
X94552250Y-85373631D01*
X94705391Y-85262368D01*
X94832053Y-85121696D01*
X94926699Y-84957764D01*
X94985194Y-84777736D01*
X95004980Y-84589480D01*
X94985194Y-84401224D01*
X94944667Y-84276496D01*
X94926699Y-84221195D01*
X94832053Y-84057263D01*
X94705390Y-83916590D01*
X94552250Y-83805328D01*
X94379322Y-83728335D01*
X94194168Y-83688980D01*
X94194166Y-83688980D01*
X94004874Y-83688980D01*
X94004872Y-83688980D01*
X93819717Y-83728335D01*
X93646789Y-83805328D01*
X93493649Y-83916590D01*
X93366986Y-84057263D01*
X93272340Y-84221195D01*
X93213846Y-84401222D01*
X93194060Y-84589480D01*
X90093657Y-84589480D01*
X90168779Y-84526963D01*
X90350518Y-84324131D01*
X90500788Y-84096998D01*
X90616386Y-83850406D01*
X90694847Y-83589611D01*
X90730940Y-83344359D01*
X94915538Y-83344359D01*
X94935324Y-83532617D01*
X94993818Y-83712644D01*
X95088464Y-83876576D01*
X95215127Y-84017249D01*
X95368267Y-84128511D01*
X95541195Y-84205504D01*
X95726350Y-84244860D01*
X95726352Y-84244860D01*
X95915644Y-84244860D01*
X95915646Y-84244860D01*
X96064081Y-84213309D01*
X96100801Y-84205504D01*
X96273728Y-84128511D01*
X96426869Y-84017248D01*
X96435761Y-84007371D01*
X96493729Y-83971148D01*
X96562088Y-83971147D01*
X96620060Y-84007372D01*
X96674406Y-84067730D01*
X96827546Y-84178992D01*
X96966329Y-84240782D01*
X97000474Y-84255985D01*
X97008844Y-84257764D01*
X97055950Y-84278734D01*
X97090453Y-84317051D01*
X97106388Y-84366089D01*
X97108823Y-84389253D01*
X97167318Y-84569284D01*
X97261964Y-84733216D01*
X97388627Y-84873889D01*
X97541767Y-84985151D01*
X97714695Y-85062144D01*
X97899850Y-85101500D01*
X97899852Y-85101500D01*
X98089144Y-85101500D01*
X98089146Y-85101500D01*
X98212581Y-85075262D01*
X98274301Y-85062144D01*
X98447228Y-84985151D01*
X98600369Y-84873888D01*
X98727031Y-84733216D01*
X98821677Y-84569284D01*
X98880172Y-84389256D01*
X98899958Y-84201000D01*
X98880172Y-84012744D01*
X98821677Y-83832716D01*
X98821677Y-83832715D01*
X98727031Y-83668783D01*
X98600368Y-83528110D01*
X98447230Y-83416849D01*
X98331943Y-83365520D01*
X98274301Y-83339856D01*
X98265919Y-83338074D01*
X98218817Y-83317101D01*
X98184317Y-83278783D01*
X98175616Y-83252003D01*
X102813500Y-83252003D01*
X102828402Y-83455617D01*
X102887616Y-83721438D01*
X102966259Y-83927057D01*
X102984907Y-83975814D01*
X103118196Y-84213310D01*
X103166987Y-84276496D01*
X103284645Y-84428869D01*
X103480704Y-84617894D01*
X103702199Y-84776359D01*
X103944397Y-84900882D01*
X103944403Y-84900885D01*
X104202159Y-84988819D01*
X104202161Y-84988819D01*
X104202163Y-84988820D01*
X104469970Y-85038286D01*
X104742130Y-85048232D01*
X104742130Y-85048231D01*
X104742131Y-85048232D01*
X105012839Y-85018446D01*
X105182519Y-84974085D01*
X105241799Y-84973238D01*
X105294699Y-85000009D01*
X105329123Y-85048280D01*
X105337202Y-85107015D01*
X105324046Y-85232190D01*
X105343832Y-85420448D01*
X105402326Y-85600475D01*
X105496972Y-85764407D01*
X105623635Y-85905080D01*
X105776775Y-86016342D01*
X105949703Y-86093335D01*
X106134858Y-86132691D01*
X106134860Y-86132691D01*
X106324152Y-86132691D01*
X106324154Y-86132691D01*
X106447590Y-86106453D01*
X106509309Y-86093335D01*
X106682236Y-86016342D01*
X106835377Y-85905079D01*
X106962039Y-85764407D01*
X107056685Y-85600475D01*
X107115180Y-85420447D01*
X107134966Y-85232191D01*
X107115180Y-85043935D01*
X107068699Y-84900882D01*
X107056685Y-84863906D01*
X106962039Y-84699974D01*
X106835376Y-84559301D01*
X106682236Y-84448039D01*
X106509308Y-84371046D01*
X106345639Y-84336257D01*
X106291926Y-84310134D01*
X106256657Y-84261930D01*
X106248015Y-84202830D01*
X106268002Y-84146553D01*
X106300788Y-84096998D01*
X106416386Y-83850406D01*
X106494847Y-83589611D01*
X106534500Y-83320171D01*
X106534500Y-83252003D01*
X112413500Y-83252003D01*
X112428402Y-83455617D01*
X112487616Y-83721438D01*
X112566259Y-83927057D01*
X112584907Y-83975814D01*
X112718196Y-84213310D01*
X112766987Y-84276496D01*
X112884645Y-84428869D01*
X113080704Y-84617894D01*
X113302199Y-84776359D01*
X113544397Y-84900882D01*
X113544403Y-84900885D01*
X113802159Y-84988819D01*
X113802161Y-84988819D01*
X113802163Y-84988820D01*
X114069970Y-85038286D01*
X114342130Y-85048232D01*
X114342130Y-85048231D01*
X114342131Y-85048232D01*
X114612839Y-85018446D01*
X114876326Y-84949562D01*
X115126975Y-84843047D01*
X115359444Y-84701173D01*
X115568779Y-84526963D01*
X115750518Y-84324131D01*
X115900788Y-84096998D01*
X116016386Y-83850406D01*
X116094847Y-83589611D01*
X116134500Y-83320171D01*
X116134500Y-82596000D01*
X116131880Y-82560209D01*
X116119597Y-82392382D01*
X116060383Y-82126561D01*
X116060382Y-82126558D01*
X115963093Y-81872186D01*
X115829804Y-81634690D01*
X115722024Y-81495110D01*
X115663354Y-81419130D01*
X115467295Y-81230105D01*
X115245800Y-81071640D01*
X115003602Y-80947117D01*
X115003598Y-80947115D01*
X115003597Y-80947115D01*
X114860913Y-80898438D01*
X114745836Y-80859179D01*
X114478029Y-80809713D01*
X114205869Y-80799767D01*
X113935162Y-80829553D01*
X113671674Y-80898438D01*
X113421024Y-81004953D01*
X113188556Y-81146826D01*
X112979223Y-81321035D01*
X112979221Y-81321037D01*
X112902198Y-81406999D01*
X112797480Y-81523871D01*
X112647210Y-81751005D01*
X112531615Y-81997589D01*
X112453153Y-82258388D01*
X112448446Y-82290375D01*
X112418429Y-82494341D01*
X112413500Y-82527832D01*
X112413500Y-83252003D01*
X106534500Y-83252003D01*
X106534500Y-82596000D01*
X106531880Y-82560209D01*
X106519597Y-82392382D01*
X106460383Y-82126561D01*
X106460382Y-82126558D01*
X106363093Y-81872186D01*
X106229804Y-81634690D01*
X106122024Y-81495110D01*
X106063354Y-81419130D01*
X105867295Y-81230105D01*
X105645800Y-81071640D01*
X105403602Y-80947117D01*
X105403598Y-80947115D01*
X105403597Y-80947115D01*
X105260913Y-80898438D01*
X105145836Y-80859179D01*
X104878029Y-80809713D01*
X104605869Y-80799767D01*
X104335162Y-80829553D01*
X104071674Y-80898438D01*
X103821024Y-81004953D01*
X103588556Y-81146826D01*
X103379223Y-81321035D01*
X103379221Y-81321037D01*
X103302198Y-81406999D01*
X103197480Y-81523871D01*
X103047210Y-81751005D01*
X102931615Y-81997589D01*
X102853153Y-82258388D01*
X102848446Y-82290375D01*
X102818429Y-82494341D01*
X102813500Y-82527832D01*
X102813500Y-83252003D01*
X98175616Y-83252003D01*
X98168385Y-83229748D01*
X98165951Y-83206585D01*
X98107456Y-83026557D01*
X98107456Y-83026556D01*
X98012810Y-82862624D01*
X97886147Y-82721951D01*
X97733007Y-82610689D01*
X97560079Y-82533696D01*
X97374925Y-82494341D01*
X97374923Y-82494341D01*
X97185631Y-82494341D01*
X97185629Y-82494341D01*
X97000474Y-82533696D01*
X96827546Y-82610689D01*
X96674404Y-82721953D01*
X96665511Y-82731830D01*
X96607541Y-82768052D01*
X96539184Y-82768051D01*
X96481215Y-82731828D01*
X96426868Y-82671471D01*
X96273728Y-82560208D01*
X96100800Y-82483215D01*
X95915646Y-82443860D01*
X95915644Y-82443860D01*
X95726352Y-82443860D01*
X95726350Y-82443860D01*
X95541195Y-82483215D01*
X95368267Y-82560208D01*
X95215127Y-82671470D01*
X95088464Y-82812143D01*
X94993818Y-82976075D01*
X94935324Y-83156102D01*
X94915538Y-83344359D01*
X90730940Y-83344359D01*
X90734500Y-83320171D01*
X90734500Y-82596000D01*
X90721345Y-82416268D01*
X90731956Y-82356286D01*
X90769851Y-82308594D01*
X90825884Y-82284702D01*
X90886534Y-82290375D01*
X90937164Y-82324244D01*
X91037329Y-82435488D01*
X91037332Y-82435490D01*
X91190469Y-82546751D01*
X91363397Y-82623744D01*
X91548552Y-82663100D01*
X91548554Y-82663100D01*
X91737846Y-82663100D01*
X91737848Y-82663100D01*
X91861284Y-82636862D01*
X91923003Y-82623744D01*
X92095930Y-82546751D01*
X92121974Y-82527829D01*
X92249070Y-82435489D01*
X92375733Y-82294816D01*
X92470379Y-82130884D01*
X92486949Y-82079888D01*
X92528874Y-81950856D01*
X92548660Y-81762600D01*
X92528874Y-81574344D01*
X92478442Y-81419130D01*
X92474500Y-81406999D01*
X100846940Y-81406999D01*
X100866726Y-81595257D01*
X100925220Y-81775284D01*
X101019866Y-81939216D01*
X101146529Y-82079889D01*
X101299669Y-82191151D01*
X101472597Y-82268144D01*
X101657752Y-82307500D01*
X101657754Y-82307500D01*
X101847046Y-82307500D01*
X101847048Y-82307500D01*
X101970484Y-82281262D01*
X102032203Y-82268144D01*
X102205130Y-82191151D01*
X102358271Y-82079888D01*
X102484933Y-81939216D01*
X102579579Y-81775284D01*
X102638074Y-81595256D01*
X102657860Y-81407000D01*
X102638074Y-81218744D01*
X102596148Y-81089710D01*
X102579579Y-81038715D01*
X102484933Y-80874783D01*
X102358270Y-80734110D01*
X102205130Y-80622848D01*
X102032202Y-80545855D01*
X101847048Y-80506500D01*
X101847046Y-80506500D01*
X101657754Y-80506500D01*
X101657752Y-80506500D01*
X101472597Y-80545855D01*
X101299669Y-80622848D01*
X101146529Y-80734110D01*
X101019866Y-80874783D01*
X100925220Y-81038715D01*
X100866726Y-81218742D01*
X100846940Y-81406999D01*
X92474500Y-81406999D01*
X92470379Y-81394315D01*
X92375733Y-81230383D01*
X92249070Y-81089710D01*
X92095930Y-80978448D01*
X91923002Y-80901455D01*
X91737848Y-80862100D01*
X91737846Y-80862100D01*
X91548554Y-80862100D01*
X91548552Y-80862100D01*
X91363397Y-80901455D01*
X91190469Y-80978448D01*
X91037329Y-81089710D01*
X90910666Y-81230383D01*
X90816020Y-81394315D01*
X90757526Y-81574342D01*
X90741224Y-81729448D01*
X90719553Y-81787503D01*
X90672496Y-81827822D01*
X90611805Y-81840336D01*
X90552637Y-81821920D01*
X90509770Y-81777175D01*
X90429804Y-81634690D01*
X90322024Y-81495110D01*
X90263354Y-81419130D01*
X90067295Y-81230105D01*
X89845800Y-81071640D01*
X89603602Y-80947117D01*
X89603598Y-80947115D01*
X89603597Y-80947115D01*
X89460913Y-80898438D01*
X89345836Y-80859179D01*
X89078029Y-80809713D01*
X88805869Y-80799767D01*
X88535162Y-80829553D01*
X88271674Y-80898438D01*
X88021024Y-81004953D01*
X87788556Y-81146826D01*
X87579223Y-81321035D01*
X87579221Y-81321037D01*
X87502198Y-81406999D01*
X87397480Y-81523871D01*
X87247210Y-81751005D01*
X87131615Y-81997589D01*
X87053153Y-82258388D01*
X87048446Y-82290375D01*
X87018429Y-82494341D01*
X87013500Y-82527832D01*
X87013500Y-83252003D01*
X81134500Y-83252003D01*
X81134500Y-82596000D01*
X81131880Y-82560209D01*
X81119597Y-82392382D01*
X81060383Y-82126561D01*
X81060382Y-82126558D01*
X80963093Y-81872186D01*
X80829804Y-81634690D01*
X80722024Y-81495110D01*
X80663354Y-81419130D01*
X80467295Y-81230105D01*
X80245800Y-81071640D01*
X80003602Y-80947117D01*
X80003598Y-80947115D01*
X80003597Y-80947115D01*
X79860913Y-80898438D01*
X79745836Y-80859179D01*
X79478029Y-80809713D01*
X79205869Y-80799767D01*
X78935162Y-80829553D01*
X78671674Y-80898438D01*
X78421024Y-81004953D01*
X78188556Y-81146826D01*
X77979223Y-81321035D01*
X77979221Y-81321037D01*
X77902198Y-81406999D01*
X77797480Y-81523871D01*
X77647210Y-81751005D01*
X77531615Y-81997589D01*
X77453153Y-82258388D01*
X77448446Y-82290375D01*
X77418429Y-82494341D01*
X77413500Y-82527832D01*
X77413500Y-83252003D01*
X72390500Y-83252003D01*
X72390500Y-80010000D01*
X92058540Y-80010000D01*
X92078326Y-80198257D01*
X92136820Y-80378284D01*
X92231466Y-80542216D01*
X92358129Y-80682889D01*
X92511269Y-80794151D01*
X92684197Y-80871144D01*
X92869352Y-80910500D01*
X92869354Y-80910500D01*
X93058646Y-80910500D01*
X93058648Y-80910500D01*
X93182083Y-80884262D01*
X93243803Y-80871144D01*
X93416730Y-80794151D01*
X93569871Y-80682888D01*
X93696533Y-80542216D01*
X93791179Y-80378284D01*
X93849674Y-80198256D01*
X93869460Y-80010000D01*
X93849674Y-79821744D01*
X93791179Y-79641716D01*
X93791179Y-79641715D01*
X93696533Y-79477783D01*
X93569870Y-79337110D01*
X93416730Y-79225848D01*
X93243802Y-79148855D01*
X93058648Y-79109500D01*
X93058646Y-79109500D01*
X92869354Y-79109500D01*
X92869352Y-79109500D01*
X92684197Y-79148855D01*
X92511269Y-79225848D01*
X92358129Y-79337110D01*
X92231466Y-79477783D01*
X92136820Y-79641715D01*
X92078326Y-79821742D01*
X92058540Y-80010000D01*
X72390500Y-80010000D01*
X72390500Y-78394689D01*
X87008040Y-78394689D01*
X87027826Y-78582946D01*
X87086320Y-78762973D01*
X87180966Y-78926905D01*
X87307629Y-79067578D01*
X87460769Y-79178840D01*
X87633697Y-79255833D01*
X87818852Y-79295189D01*
X87818854Y-79295189D01*
X88008146Y-79295189D01*
X88008148Y-79295189D01*
X88131583Y-79268951D01*
X88193303Y-79255833D01*
X88366230Y-79178840D01*
X88519371Y-79067577D01*
X88646033Y-78926905D01*
X88740679Y-78762973D01*
X88799174Y-78582945D01*
X88818960Y-78394689D01*
X88815209Y-78358999D01*
X116188540Y-78358999D01*
X116208326Y-78547257D01*
X116266820Y-78727284D01*
X116361466Y-78891216D01*
X116488129Y-79031889D01*
X116641269Y-79143151D01*
X116814197Y-79220144D01*
X116999352Y-79259500D01*
X116999354Y-79259500D01*
X117188646Y-79259500D01*
X117188648Y-79259500D01*
X117312083Y-79233262D01*
X117373803Y-79220144D01*
X117546730Y-79143151D01*
X117699871Y-79031888D01*
X117826533Y-78891216D01*
X117921179Y-78727284D01*
X117979674Y-78547256D01*
X117999460Y-78359000D01*
X117979674Y-78170744D01*
X117921179Y-77990716D01*
X117921179Y-77990715D01*
X117826533Y-77826783D01*
X117699870Y-77686110D01*
X117546730Y-77574848D01*
X117373802Y-77497855D01*
X117188648Y-77458500D01*
X117188646Y-77458500D01*
X116999354Y-77458500D01*
X116999352Y-77458500D01*
X116814197Y-77497855D01*
X116641269Y-77574848D01*
X116488129Y-77686110D01*
X116361466Y-77826783D01*
X116266820Y-77990715D01*
X116208326Y-78170742D01*
X116188540Y-78358999D01*
X88815209Y-78358999D01*
X88799174Y-78206433D01*
X88740679Y-78026405D01*
X88740679Y-78026404D01*
X88646033Y-77862472D01*
X88519370Y-77721799D01*
X88366230Y-77610537D01*
X88193302Y-77533544D01*
X88008148Y-77494189D01*
X88008146Y-77494189D01*
X87818854Y-77494189D01*
X87818852Y-77494189D01*
X87633697Y-77533544D01*
X87460769Y-77610537D01*
X87307629Y-77721799D01*
X87180966Y-77862472D01*
X87086320Y-78026404D01*
X87027826Y-78206431D01*
X87008040Y-78394689D01*
X72390500Y-78394689D01*
X72390500Y-76631800D01*
X79053740Y-76631800D01*
X79073526Y-76820057D01*
X79132020Y-77000084D01*
X79226666Y-77164016D01*
X79353329Y-77304689D01*
X79506469Y-77415951D01*
X79679397Y-77492944D01*
X79864552Y-77532300D01*
X79864554Y-77532300D01*
X80053846Y-77532300D01*
X80053848Y-77532300D01*
X80177284Y-77506062D01*
X80239003Y-77492944D01*
X80411930Y-77415951D01*
X80565071Y-77304688D01*
X80691733Y-77164016D01*
X80707132Y-77137344D01*
X80792896Y-76988797D01*
X80794868Y-76989935D01*
X80814053Y-76958617D01*
X80863418Y-76928358D01*
X80921140Y-76923811D01*
X80974634Y-76945967D01*
X80978927Y-76949086D01*
X80978929Y-76949088D01*
X81132070Y-77060351D01*
X81132071Y-77060351D01*
X81132072Y-77060352D01*
X81304997Y-77137344D01*
X81490152Y-77176700D01*
X81490154Y-77176700D01*
X81679446Y-77176700D01*
X81679448Y-77176700D01*
X81802884Y-77150462D01*
X81864603Y-77137344D01*
X82037530Y-77060351D01*
X82176903Y-76959091D01*
X82190670Y-76949089D01*
X82213431Y-76923811D01*
X82317333Y-76808416D01*
X82411979Y-76644484D01*
X82470474Y-76464456D01*
X82490260Y-76276200D01*
X82470474Y-76087944D01*
X82435286Y-75979646D01*
X82411979Y-75907915D01*
X82317333Y-75743983D01*
X82190670Y-75603310D01*
X82037530Y-75492048D01*
X81864602Y-75415055D01*
X81679448Y-75375700D01*
X81679446Y-75375700D01*
X81490154Y-75375700D01*
X81490152Y-75375700D01*
X81304997Y-75415055D01*
X81132069Y-75492048D01*
X80978929Y-75603310D01*
X80852266Y-75743983D01*
X80751104Y-75919203D01*
X80749132Y-75918064D01*
X80729928Y-75949399D01*
X80680566Y-75979646D01*
X80622851Y-75984187D01*
X80569366Y-75962032D01*
X80411930Y-75847648D01*
X80239002Y-75770655D01*
X80053848Y-75731300D01*
X80053846Y-75731300D01*
X79864554Y-75731300D01*
X79864552Y-75731300D01*
X79679397Y-75770655D01*
X79506469Y-75847648D01*
X79353329Y-75958910D01*
X79226666Y-76099583D01*
X79132020Y-76263515D01*
X79073526Y-76443542D01*
X79053740Y-76631800D01*
X72390500Y-76631800D01*
X72390500Y-75311000D01*
X83803540Y-75311000D01*
X83823326Y-75499257D01*
X83881820Y-75679284D01*
X83976466Y-75843216D01*
X84103129Y-75983889D01*
X84256269Y-76095151D01*
X84429197Y-76172144D01*
X84614352Y-76211500D01*
X84614354Y-76211500D01*
X84803646Y-76211500D01*
X84803648Y-76211500D01*
X84927084Y-76185262D01*
X84988803Y-76172144D01*
X85161730Y-76095151D01*
X85171652Y-76087942D01*
X85314870Y-75983889D01*
X85318691Y-75979646D01*
X85441533Y-75843216D01*
X85536179Y-75679284D01*
X85594674Y-75499256D01*
X85614460Y-75311000D01*
X85594674Y-75122744D01*
X85536179Y-74942716D01*
X85536179Y-74942715D01*
X85441533Y-74778783D01*
X85314870Y-74638110D01*
X85161730Y-74526848D01*
X84988802Y-74449855D01*
X84803648Y-74410500D01*
X84803646Y-74410500D01*
X84614354Y-74410500D01*
X84614352Y-74410500D01*
X84429197Y-74449855D01*
X84256269Y-74526848D01*
X84103129Y-74638110D01*
X83976466Y-74778783D01*
X83881820Y-74942715D01*
X83823326Y-75122742D01*
X83803540Y-75311000D01*
X72390500Y-75311000D01*
X72390500Y-72110599D01*
X75548540Y-72110599D01*
X75568326Y-72298857D01*
X75626820Y-72478884D01*
X75721466Y-72642816D01*
X75848129Y-72783489D01*
X76001269Y-72894751D01*
X76174197Y-72971744D01*
X76359352Y-73011100D01*
X76359354Y-73011100D01*
X76548646Y-73011100D01*
X76548648Y-73011100D01*
X76672083Y-72984862D01*
X76733803Y-72971744D01*
X76906730Y-72894751D01*
X76986573Y-72836742D01*
X77059870Y-72783489D01*
X77186532Y-72642817D01*
X77200168Y-72619199D01*
X77247818Y-72572536D01*
X77312748Y-72557307D01*
X77376176Y-72577915D01*
X77419754Y-72628401D01*
X77430877Y-72694159D01*
X77428140Y-72720199D01*
X77447926Y-72908457D01*
X77506420Y-73088484D01*
X77601066Y-73252416D01*
X77727729Y-73393089D01*
X77880869Y-73504351D01*
X78053797Y-73581344D01*
X78238952Y-73620700D01*
X78238954Y-73620700D01*
X78428246Y-73620700D01*
X78428248Y-73620700D01*
X78551683Y-73594462D01*
X78613403Y-73581344D01*
X78786330Y-73504351D01*
X78923329Y-73404816D01*
X78939470Y-73393089D01*
X79066133Y-73252416D01*
X79160779Y-73088484D01*
X79181406Y-73025000D01*
X79219274Y-72908456D01*
X79239060Y-72720200D01*
X79219274Y-72531944D01*
X79187397Y-72433836D01*
X79160779Y-72351915D01*
X79066133Y-72187983D01*
X78939470Y-72047310D01*
X78786330Y-71936048D01*
X78613402Y-71859055D01*
X78466883Y-71827912D01*
X80708331Y-71827912D01*
X80711604Y-71859055D01*
X80728117Y-72016169D01*
X80786611Y-72196196D01*
X80881257Y-72360128D01*
X81007920Y-72500801D01*
X81161060Y-72612063D01*
X81333988Y-72689056D01*
X81448032Y-72713297D01*
X81501957Y-72739597D01*
X81537222Y-72788135D01*
X81545573Y-72847547D01*
X81542940Y-72872599D01*
X81562726Y-73060857D01*
X81621220Y-73240884D01*
X81715866Y-73404816D01*
X81842529Y-73545489D01*
X81995669Y-73656751D01*
X82168597Y-73733744D01*
X82353752Y-73773100D01*
X82353754Y-73773100D01*
X82543046Y-73773100D01*
X82543048Y-73773100D01*
X82678051Y-73744404D01*
X82728203Y-73733744D01*
X82901130Y-73656751D01*
X82956995Y-73616163D01*
X83054270Y-73545489D01*
X83180933Y-73404816D01*
X83275579Y-73240884D01*
X83284556Y-73213256D01*
X83334074Y-73060856D01*
X83337843Y-73024999D01*
X86521340Y-73024999D01*
X86541126Y-73213257D01*
X86599620Y-73393284D01*
X86694266Y-73557216D01*
X86708052Y-73572527D01*
X86733832Y-73617181D01*
X86739222Y-73668459D01*
X86723289Y-73717497D01*
X86675820Y-73799716D01*
X86617326Y-73979742D01*
X86597540Y-74168000D01*
X86617326Y-74356257D01*
X86675820Y-74536284D01*
X86770466Y-74700216D01*
X86897129Y-74840889D01*
X87050269Y-74952151D01*
X87223197Y-75029144D01*
X87408352Y-75068500D01*
X87408354Y-75068500D01*
X87597646Y-75068500D01*
X87597648Y-75068500D01*
X87721084Y-75042262D01*
X87782803Y-75029144D01*
X87955730Y-74952151D01*
X88108871Y-74840888D01*
X88235533Y-74700216D01*
X88330179Y-74536284D01*
X88388674Y-74356256D01*
X88408460Y-74168000D01*
X88388674Y-73979744D01*
X88330179Y-73799716D01*
X88330179Y-73799715D01*
X88235533Y-73635784D01*
X88221748Y-73620474D01*
X88195966Y-73575820D01*
X88190576Y-73524539D01*
X88206508Y-73475504D01*
X88253979Y-73393284D01*
X88312474Y-73213256D01*
X88332260Y-73025000D01*
X88312474Y-72836744D01*
X88274606Y-72720199D01*
X88253979Y-72656715D01*
X88159333Y-72492783D01*
X88032670Y-72352110D01*
X87879530Y-72240848D01*
X87706602Y-72163855D01*
X87521448Y-72124500D01*
X87521446Y-72124500D01*
X87332154Y-72124500D01*
X87332152Y-72124500D01*
X87146997Y-72163855D01*
X86974069Y-72240848D01*
X86820929Y-72352110D01*
X86694266Y-72492783D01*
X86599620Y-72656715D01*
X86541126Y-72836742D01*
X86521340Y-73024999D01*
X83337843Y-73024999D01*
X83353860Y-72872600D01*
X83334074Y-72684344D01*
X83296499Y-72568700D01*
X83275579Y-72504315D01*
X83180933Y-72340383D01*
X83054271Y-72199712D01*
X82992439Y-72154788D01*
X82952045Y-72104905D01*
X82942004Y-72041508D01*
X82965007Y-71981584D01*
X83014888Y-71941191D01*
X83155130Y-71878751D01*
X83155130Y-71878750D01*
X83155132Y-71878750D01*
X83308270Y-71767489D01*
X83434933Y-71626816D01*
X83529579Y-71462884D01*
X83537758Y-71437712D01*
X83588074Y-71282856D01*
X83607860Y-71094600D01*
X83588074Y-70906344D01*
X83529579Y-70726316D01*
X83529579Y-70726315D01*
X83434933Y-70562383D01*
X83308270Y-70421710D01*
X83155130Y-70310448D01*
X82982202Y-70233455D01*
X82797048Y-70194100D01*
X82797046Y-70194100D01*
X82607754Y-70194100D01*
X82607752Y-70194100D01*
X82422597Y-70233455D01*
X82249669Y-70310448D01*
X82096529Y-70421710D01*
X81969866Y-70562383D01*
X81875220Y-70726315D01*
X81837720Y-70841730D01*
X81811939Y-70886384D01*
X81770224Y-70916692D01*
X81719789Y-70927412D01*
X81519143Y-70927412D01*
X81333988Y-70966767D01*
X81161060Y-71043760D01*
X81007920Y-71155022D01*
X80881257Y-71295695D01*
X80786611Y-71459627D01*
X80728117Y-71639654D01*
X80710270Y-71809459D01*
X80708331Y-71827912D01*
X78466883Y-71827912D01*
X78428248Y-71819700D01*
X78428246Y-71819700D01*
X78238954Y-71819700D01*
X78238952Y-71819700D01*
X78053797Y-71859055D01*
X77880869Y-71936048D01*
X77727729Y-72047310D01*
X77601067Y-72187982D01*
X77587429Y-72211604D01*
X77539778Y-72258264D01*
X77474848Y-72273492D01*
X77411420Y-72252882D01*
X77367843Y-72202395D01*
X77356723Y-72136637D01*
X77359460Y-72110600D01*
X77357132Y-72088449D01*
X77339674Y-71922344D01*
X77289358Y-71767488D01*
X77281179Y-71742315D01*
X77186533Y-71578383D01*
X77059870Y-71437710D01*
X76906730Y-71326448D01*
X76733802Y-71249455D01*
X76548648Y-71210100D01*
X76548646Y-71210100D01*
X76359354Y-71210100D01*
X76359352Y-71210100D01*
X76174197Y-71249455D01*
X76001269Y-71326448D01*
X75848129Y-71437710D01*
X75721466Y-71578383D01*
X75626820Y-71742315D01*
X75568326Y-71922342D01*
X75548540Y-72110599D01*
X72390500Y-72110599D01*
X72390500Y-68833999D01*
X92058540Y-68833999D01*
X92078326Y-69022257D01*
X92136820Y-69202284D01*
X92231466Y-69366216D01*
X92358129Y-69506889D01*
X92511269Y-69618151D01*
X92684197Y-69695144D01*
X92869352Y-69734500D01*
X92869354Y-69734500D01*
X93058646Y-69734500D01*
X93058648Y-69734500D01*
X93182084Y-69708262D01*
X93243803Y-69695144D01*
X93416730Y-69618151D01*
X93569871Y-69506888D01*
X93696533Y-69366216D01*
X93791179Y-69202284D01*
X93849674Y-69022256D01*
X93869460Y-68834000D01*
X93867822Y-68818419D01*
X93878369Y-68753904D01*
X93920262Y-68703716D01*
X93981856Y-68681808D01*
X94046033Y-68694270D01*
X94094950Y-68737636D01*
X94141021Y-68808153D01*
X94298216Y-68978913D01*
X94353903Y-69022256D01*
X94475819Y-69117146D01*
X94511057Y-69160540D01*
X94523657Y-69215000D01*
X94511057Y-69269460D01*
X94475819Y-69312854D01*
X94298215Y-69451087D01*
X94141020Y-69621848D01*
X94014076Y-69816150D01*
X93920844Y-70028696D01*
X93863865Y-70253700D01*
X93844699Y-70485000D01*
X93863865Y-70716299D01*
X93863865Y-70716301D01*
X93863866Y-70716305D01*
X93920843Y-70941300D01*
X94014076Y-71153849D01*
X94141021Y-71348153D01*
X94298216Y-71518913D01*
X94475817Y-71657145D01*
X94475819Y-71657146D01*
X94511057Y-71700540D01*
X94523657Y-71755000D01*
X94511057Y-71809460D01*
X94475819Y-71852852D01*
X94442547Y-71878750D01*
X94298215Y-71991087D01*
X94141020Y-72161848D01*
X94014076Y-72356150D01*
X93920844Y-72568696D01*
X93920842Y-72568700D01*
X93920843Y-72568700D01*
X93890365Y-72689056D01*
X93863865Y-72793700D01*
X93844699Y-73025000D01*
X93863865Y-73256299D01*
X93863865Y-73256301D01*
X93863866Y-73256305D01*
X93919374Y-73475500D01*
X93920844Y-73481303D01*
X93980000Y-73616163D01*
X94014076Y-73693849D01*
X94141021Y-73888153D01*
X94298216Y-74058913D01*
X94442109Y-74170909D01*
X94475819Y-74197146D01*
X94511057Y-74240540D01*
X94523657Y-74295000D01*
X94511057Y-74349460D01*
X94475819Y-74392854D01*
X94298215Y-74531087D01*
X94141020Y-74701848D01*
X94014076Y-74896150D01*
X93920844Y-75108696D01*
X93863865Y-75333700D01*
X93844699Y-75565000D01*
X93863865Y-75796299D01*
X93863865Y-75796301D01*
X93863866Y-75796305D01*
X93902635Y-75949399D01*
X93920844Y-76021303D01*
X94004273Y-76211500D01*
X94014076Y-76233849D01*
X94141021Y-76428153D01*
X94298216Y-76598913D01*
X94481374Y-76741470D01*
X94685497Y-76851936D01*
X94795258Y-76889617D01*
X94905015Y-76927297D01*
X94905017Y-76927297D01*
X94905019Y-76927298D01*
X95133951Y-76965500D01*
X95366048Y-76965500D01*
X95366049Y-76965500D01*
X95594981Y-76927298D01*
X95814503Y-76851936D01*
X96018626Y-76741470D01*
X96201784Y-76598913D01*
X96210132Y-76589843D01*
X96262754Y-76555989D01*
X96325209Y-76552140D01*
X96381592Y-76579277D01*
X96417544Y-76630491D01*
X96446204Y-76707331D01*
X96532454Y-76822546D01*
X96647669Y-76908796D01*
X96782517Y-76959091D01*
X96842127Y-76965500D01*
X98737872Y-76965499D01*
X98797483Y-76959091D01*
X98932331Y-76908796D01*
X99047546Y-76822546D01*
X99133796Y-76707331D01*
X99184091Y-76572483D01*
X99190500Y-76512873D01*
X99190499Y-74617128D01*
X99184091Y-74557517D01*
X99133796Y-74422669D01*
X99047546Y-74307454D01*
X98932331Y-74221204D01*
X98867828Y-74197146D01*
X98852093Y-74191277D01*
X98802558Y-74157261D01*
X98774831Y-74103951D01*
X98775424Y-74043864D01*
X98804196Y-73991114D01*
X98898979Y-73888153D01*
X99025924Y-73693849D01*
X99119157Y-73481300D01*
X99176134Y-73256305D01*
X99195300Y-73025000D01*
X99176134Y-72793695D01*
X99119157Y-72568700D01*
X99025924Y-72356151D01*
X98898979Y-72161847D01*
X98741784Y-71991087D01*
X98741783Y-71991086D01*
X98564180Y-71852852D01*
X98528942Y-71809459D01*
X98516343Y-71754999D01*
X98528943Y-71700538D01*
X98564177Y-71657148D01*
X98741784Y-71518913D01*
X98898979Y-71348153D01*
X99014849Y-71170800D01*
X112657940Y-71170800D01*
X112663043Y-71219349D01*
X112677726Y-71359057D01*
X112736220Y-71539084D01*
X112830866Y-71703016D01*
X112957529Y-71843689D01*
X113110669Y-71954951D01*
X113283597Y-72031944D01*
X113468752Y-72071300D01*
X113468754Y-72071300D01*
X113658046Y-72071300D01*
X113658048Y-72071300D01*
X113781483Y-72045062D01*
X113843203Y-72031944D01*
X114016130Y-71954951D01*
X114016130Y-71954950D01*
X114169270Y-71843689D01*
X114295933Y-71703016D01*
X114390579Y-71539084D01*
X114423517Y-71437712D01*
X114449074Y-71359056D01*
X114468860Y-71170800D01*
X114449074Y-70982544D01*
X114417830Y-70886384D01*
X114390579Y-70802515D01*
X114295933Y-70638583D01*
X114169270Y-70497910D01*
X114016130Y-70386648D01*
X113843202Y-70309655D01*
X113658048Y-70270300D01*
X113658046Y-70270300D01*
X113468754Y-70270300D01*
X113468752Y-70270300D01*
X113283597Y-70309655D01*
X113110669Y-70386648D01*
X112957529Y-70497910D01*
X112830866Y-70638583D01*
X112736220Y-70802515D01*
X112677726Y-70982542D01*
X112659598Y-71155022D01*
X112657940Y-71170800D01*
X99014849Y-71170800D01*
X99025924Y-71153849D01*
X99119157Y-70941300D01*
X99176134Y-70716305D01*
X99195300Y-70485000D01*
X99176134Y-70253695D01*
X99119157Y-70028700D01*
X99025924Y-69816151D01*
X98898979Y-69621847D01*
X98741784Y-69451087D01*
X98564180Y-69312852D01*
X98528943Y-69269460D01*
X98516343Y-69215000D01*
X98528943Y-69160540D01*
X98564181Y-69117146D01*
X98741784Y-68978913D01*
X98898979Y-68808153D01*
X99025924Y-68613849D01*
X99119157Y-68401300D01*
X99176134Y-68176305D01*
X99195300Y-67945000D01*
X99176134Y-67713695D01*
X99119157Y-67488700D01*
X99025924Y-67276151D01*
X98898979Y-67081847D01*
X98741784Y-66911087D01*
X98564180Y-66772852D01*
X98528943Y-66729460D01*
X98516343Y-66675000D01*
X98528943Y-66620540D01*
X98564181Y-66577146D01*
X98741784Y-66438913D01*
X98898979Y-66268153D01*
X99025924Y-66073849D01*
X99070657Y-65971869D01*
X105573500Y-65971869D01*
X105576112Y-65996163D01*
X105579909Y-66031483D01*
X105630204Y-66166331D01*
X105716454Y-66281546D01*
X105831669Y-66367796D01*
X105966517Y-66418091D01*
X106026127Y-66424500D01*
X107921872Y-66424499D01*
X107981483Y-66418091D01*
X108116331Y-66367796D01*
X108231546Y-66281546D01*
X108317796Y-66166331D01*
X108336093Y-66117272D01*
X108368205Y-66069458D01*
X108418458Y-66041308D01*
X108476007Y-66038900D01*
X108528435Y-66062753D01*
X108705374Y-66200470D01*
X108909497Y-66310936D01*
X109019258Y-66348617D01*
X109129015Y-66386297D01*
X109129017Y-66386297D01*
X109129019Y-66386298D01*
X109357951Y-66424500D01*
X109590048Y-66424500D01*
X109590049Y-66424500D01*
X109818981Y-66386298D01*
X110038503Y-66310936D01*
X110242626Y-66200470D01*
X110425784Y-66057913D01*
X110582979Y-65887153D01*
X110620192Y-65830193D01*
X110664982Y-65788961D01*
X110724000Y-65774016D01*
X110783018Y-65788961D01*
X110827807Y-65830193D01*
X110865021Y-65887153D01*
X111022216Y-66057913D01*
X111205374Y-66200470D01*
X111409497Y-66310936D01*
X111519258Y-66348617D01*
X111629015Y-66386297D01*
X111629017Y-66386297D01*
X111629019Y-66386298D01*
X111857951Y-66424500D01*
X112090048Y-66424500D01*
X112090049Y-66424500D01*
X112318981Y-66386298D01*
X112538503Y-66310936D01*
X112742626Y-66200470D01*
X112925784Y-66057913D01*
X113082979Y-65887153D01*
X113209924Y-65692849D01*
X113303157Y-65480300D01*
X113360134Y-65255305D01*
X113379300Y-65024000D01*
X113379300Y-65023999D01*
X117077540Y-65023999D01*
X117097326Y-65212257D01*
X117155820Y-65392284D01*
X117250466Y-65556216D01*
X117377129Y-65696889D01*
X117530269Y-65808151D01*
X117703197Y-65885144D01*
X117888352Y-65924500D01*
X117888354Y-65924500D01*
X118077646Y-65924500D01*
X118077648Y-65924500D01*
X118204912Y-65897449D01*
X118262803Y-65885144D01*
X118435730Y-65808151D01*
X118588871Y-65696888D01*
X118715533Y-65556216D01*
X118810179Y-65392284D01*
X118868674Y-65212256D01*
X118888460Y-65024000D01*
X118868674Y-64835744D01*
X118836314Y-64736150D01*
X118810179Y-64655715D01*
X118715533Y-64491783D01*
X118588870Y-64351110D01*
X118435730Y-64239848D01*
X118262802Y-64162855D01*
X118077648Y-64123500D01*
X118077646Y-64123500D01*
X117888354Y-64123500D01*
X117888352Y-64123500D01*
X117703197Y-64162855D01*
X117530269Y-64239848D01*
X117377129Y-64351110D01*
X117250466Y-64491783D01*
X117155820Y-64655715D01*
X117097326Y-64835742D01*
X117077540Y-65023999D01*
X113379300Y-65023999D01*
X113360134Y-64792695D01*
X113303157Y-64567700D01*
X113209924Y-64355151D01*
X113082979Y-64160847D01*
X112925784Y-63990087D01*
X112742626Y-63847530D01*
X112538503Y-63737064D01*
X112538499Y-63737062D01*
X112538498Y-63737062D01*
X112318984Y-63661702D01*
X112128456Y-63629909D01*
X112090049Y-63623500D01*
X111857951Y-63623500D01*
X111819544Y-63629909D01*
X111629015Y-63661702D01*
X111409501Y-63737062D01*
X111205372Y-63847531D01*
X111022215Y-63990087D01*
X110876590Y-64148279D01*
X110865021Y-64160847D01*
X110846535Y-64189143D01*
X110827809Y-64217805D01*
X110783017Y-64259038D01*
X110724000Y-64273983D01*
X110664983Y-64259038D01*
X110620191Y-64217805D01*
X110582979Y-64160847D01*
X110425784Y-63990087D01*
X110242626Y-63847530D01*
X110038503Y-63737064D01*
X110038499Y-63737062D01*
X110038498Y-63737062D01*
X109818984Y-63661702D01*
X109628456Y-63629909D01*
X109590049Y-63623500D01*
X109357951Y-63623500D01*
X109319544Y-63629909D01*
X109129015Y-63661702D01*
X108909501Y-63737062D01*
X108705372Y-63847531D01*
X108528436Y-63985245D01*
X108476007Y-64009099D01*
X108418458Y-64006691D01*
X108368205Y-63978541D01*
X108336092Y-63930724D01*
X108317796Y-63881669D01*
X108231546Y-63766454D01*
X108116331Y-63680204D01*
X107981483Y-63629909D01*
X107921873Y-63623500D01*
X107921869Y-63623500D01*
X106026130Y-63623500D01*
X105966515Y-63629909D01*
X105831669Y-63680204D01*
X105716454Y-63766454D01*
X105630204Y-63881668D01*
X105579909Y-64016516D01*
X105573500Y-64076130D01*
X105573500Y-65971869D01*
X99070657Y-65971869D01*
X99119157Y-65861300D01*
X99176134Y-65636305D01*
X99195300Y-65405000D01*
X99176134Y-65173695D01*
X99119157Y-64948700D01*
X99025924Y-64736151D01*
X98898979Y-64541847D01*
X98741784Y-64371087D01*
X98716117Y-64351110D01*
X98563774Y-64232536D01*
X98528536Y-64189143D01*
X98515936Y-64134683D01*
X98528535Y-64080223D01*
X98563773Y-64036830D01*
X98741443Y-63898543D01*
X98898585Y-63727841D01*
X99025482Y-63533612D01*
X99118680Y-63321139D01*
X99170883Y-63115000D01*
X93869117Y-63115000D01*
X93921319Y-63321139D01*
X94014517Y-63533612D01*
X94141414Y-63727841D01*
X94298556Y-63898543D01*
X94476227Y-64036830D01*
X94511465Y-64080223D01*
X94524064Y-64134683D01*
X94511464Y-64189143D01*
X94476226Y-64232536D01*
X94298219Y-64371084D01*
X94141020Y-64541848D01*
X94014076Y-64736150D01*
X93920844Y-64948696D01*
X93863865Y-65173700D01*
X93844699Y-65405000D01*
X93863865Y-65636299D01*
X93863865Y-65636301D01*
X93863866Y-65636305D01*
X93902524Y-65788961D01*
X93920844Y-65861303D01*
X93969345Y-65971873D01*
X94014076Y-66073849D01*
X94141021Y-66268153D01*
X94298216Y-66438913D01*
X94474161Y-66575856D01*
X94475819Y-66577146D01*
X94511057Y-66620540D01*
X94523657Y-66675000D01*
X94511057Y-66729460D01*
X94475819Y-66772854D01*
X94298215Y-66911087D01*
X94141020Y-67081848D01*
X94014076Y-67276150D01*
X93920844Y-67488696D01*
X93863865Y-67713700D01*
X93844699Y-67944994D01*
X93861906Y-68152649D01*
X93851775Y-68212949D01*
X93814059Y-68261076D01*
X93757929Y-68285329D01*
X93697034Y-68279810D01*
X93646179Y-68245860D01*
X93569870Y-68161110D01*
X93416730Y-68049848D01*
X93243802Y-67972855D01*
X93058648Y-67933500D01*
X93058646Y-67933500D01*
X92869354Y-67933500D01*
X92869352Y-67933500D01*
X92684197Y-67972855D01*
X92511269Y-68049848D01*
X92358129Y-68161110D01*
X92231466Y-68301783D01*
X92136820Y-68465715D01*
X92078326Y-68645742D01*
X92058540Y-68833999D01*
X72390500Y-68833999D01*
X72390500Y-66471799D01*
X77428140Y-66471799D01*
X77447926Y-66660057D01*
X77506420Y-66840084D01*
X77601066Y-67004016D01*
X77727729Y-67144689D01*
X77880869Y-67255951D01*
X78053797Y-67332944D01*
X78238952Y-67372300D01*
X78238954Y-67372300D01*
X78428246Y-67372300D01*
X78428248Y-67372300D01*
X78551684Y-67346062D01*
X78613403Y-67332944D01*
X78786330Y-67255951D01*
X78848682Y-67210650D01*
X78939470Y-67144689D01*
X78996053Y-67081848D01*
X79066133Y-67004016D01*
X79160779Y-66840084D01*
X79219274Y-66660056D01*
X79239060Y-66471800D01*
X79219274Y-66283544D01*
X79160779Y-66103516D01*
X79160779Y-66103515D01*
X79084773Y-65971869D01*
X80173500Y-65971869D01*
X80176112Y-65996163D01*
X80179909Y-66031483D01*
X80230204Y-66166331D01*
X80316454Y-66281546D01*
X80431669Y-66367796D01*
X80566517Y-66418091D01*
X80626127Y-66424500D01*
X81064734Y-66424499D01*
X81124469Y-66439837D01*
X81169428Y-66482056D01*
X81188487Y-66540713D01*
X81176931Y-66601295D01*
X81137618Y-66648817D01*
X80978927Y-66764112D01*
X80852266Y-66904783D01*
X80757620Y-67068715D01*
X80699126Y-67248742D01*
X80679340Y-67436999D01*
X80699126Y-67625257D01*
X80757620Y-67805284D01*
X80852266Y-67969216D01*
X80978929Y-68109889D01*
X81132069Y-68221151D01*
X81304997Y-68298144D01*
X81490152Y-68337500D01*
X81490154Y-68337500D01*
X81679446Y-68337500D01*
X81679448Y-68337500D01*
X81802883Y-68311262D01*
X81864603Y-68298144D01*
X82037530Y-68221151D01*
X82048819Y-68212949D01*
X82190670Y-68109889D01*
X82244731Y-68049849D01*
X82317333Y-67969216D01*
X82411979Y-67805284D01*
X82470474Y-67625256D01*
X82490260Y-67437000D01*
X82470474Y-67248744D01*
X82411979Y-67068716D01*
X82411979Y-67068715D01*
X82317333Y-66904783D01*
X82190670Y-66764110D01*
X82031982Y-66648817D01*
X81992668Y-66601296D01*
X81981112Y-66540713D01*
X82000170Y-66482056D01*
X82045130Y-66439837D01*
X82104866Y-66424499D01*
X82521872Y-66424499D01*
X82581483Y-66418091D01*
X82716331Y-66367796D01*
X82831546Y-66281546D01*
X82917796Y-66166331D01*
X82936093Y-66117272D01*
X82968205Y-66069458D01*
X83018458Y-66041308D01*
X83076007Y-66038900D01*
X83128435Y-66062753D01*
X83305374Y-66200470D01*
X83509497Y-66310936D01*
X83619258Y-66348617D01*
X83729015Y-66386297D01*
X83729017Y-66386297D01*
X83729019Y-66386298D01*
X83957951Y-66424500D01*
X84190048Y-66424500D01*
X84190049Y-66424500D01*
X84418981Y-66386298D01*
X84638503Y-66310936D01*
X84842626Y-66200470D01*
X85025784Y-66057913D01*
X85182979Y-65887153D01*
X85220192Y-65830193D01*
X85264982Y-65788961D01*
X85324000Y-65774016D01*
X85383018Y-65788961D01*
X85427807Y-65830193D01*
X85465021Y-65887153D01*
X85622216Y-66057913D01*
X85805374Y-66200470D01*
X86009497Y-66310936D01*
X86119258Y-66348617D01*
X86229015Y-66386297D01*
X86229017Y-66386297D01*
X86229019Y-66386298D01*
X86457951Y-66424500D01*
X86690048Y-66424500D01*
X86690049Y-66424500D01*
X86918981Y-66386298D01*
X87138503Y-66310936D01*
X87342626Y-66200470D01*
X87525784Y-66057913D01*
X87682979Y-65887153D01*
X87809924Y-65692849D01*
X87903157Y-65480300D01*
X87960134Y-65255305D01*
X87979300Y-65024000D01*
X87960134Y-64792695D01*
X87903157Y-64567700D01*
X87809924Y-64355151D01*
X87682979Y-64160847D01*
X87525784Y-63990087D01*
X87342626Y-63847530D01*
X87138503Y-63737064D01*
X87138499Y-63737062D01*
X87138498Y-63737062D01*
X86918984Y-63661702D01*
X86728456Y-63629909D01*
X86690049Y-63623500D01*
X86457951Y-63623500D01*
X86419544Y-63629909D01*
X86229015Y-63661702D01*
X86009501Y-63737062D01*
X85805372Y-63847531D01*
X85622215Y-63990087D01*
X85476590Y-64148279D01*
X85465021Y-64160847D01*
X85446535Y-64189143D01*
X85427809Y-64217805D01*
X85383017Y-64259038D01*
X85324000Y-64273983D01*
X85264983Y-64259038D01*
X85220191Y-64217805D01*
X85182979Y-64160847D01*
X85025784Y-63990087D01*
X84842626Y-63847530D01*
X84638503Y-63737064D01*
X84638499Y-63737062D01*
X84638498Y-63737062D01*
X84418984Y-63661702D01*
X84228456Y-63629909D01*
X84190049Y-63623500D01*
X83957951Y-63623500D01*
X83919544Y-63629909D01*
X83729015Y-63661702D01*
X83509501Y-63737062D01*
X83305372Y-63847531D01*
X83128436Y-63985245D01*
X83076007Y-64009099D01*
X83018458Y-64006691D01*
X82968205Y-63978541D01*
X82936092Y-63930724D01*
X82917796Y-63881669D01*
X82831546Y-63766454D01*
X82716331Y-63680204D01*
X82581483Y-63629909D01*
X82521873Y-63623500D01*
X82521869Y-63623500D01*
X80626130Y-63623500D01*
X80566515Y-63629909D01*
X80431669Y-63680204D01*
X80316454Y-63766454D01*
X80230204Y-63881668D01*
X80179909Y-64016516D01*
X80173500Y-64076130D01*
X80173500Y-65971869D01*
X79084773Y-65971869D01*
X79066133Y-65939583D01*
X78939470Y-65798910D01*
X78786330Y-65687648D01*
X78613402Y-65610655D01*
X78428248Y-65571300D01*
X78428246Y-65571300D01*
X78238954Y-65571300D01*
X78238952Y-65571300D01*
X78053797Y-65610655D01*
X77880869Y-65687648D01*
X77727729Y-65798910D01*
X77601066Y-65939583D01*
X77506420Y-66103515D01*
X77447926Y-66283542D01*
X77428140Y-66471799D01*
X72390500Y-66471799D01*
X72390500Y-63753999D01*
X73770540Y-63753999D01*
X73790326Y-63942257D01*
X73848820Y-64122284D01*
X73943466Y-64286216D01*
X74070129Y-64426889D01*
X74223269Y-64538151D01*
X74396197Y-64615144D01*
X74581352Y-64654500D01*
X74581354Y-64654500D01*
X74770646Y-64654500D01*
X74770648Y-64654500D01*
X74894084Y-64628262D01*
X74955803Y-64615144D01*
X75128730Y-64538151D01*
X75281871Y-64426888D01*
X75408533Y-64286216D01*
X75503179Y-64122284D01*
X75561674Y-63942256D01*
X75581460Y-63754000D01*
X75561674Y-63565744D01*
X75503179Y-63385716D01*
X75503179Y-63385715D01*
X75408533Y-63221783D01*
X75281870Y-63081110D01*
X75128730Y-62969848D01*
X74955802Y-62892855D01*
X74770648Y-62853500D01*
X74770646Y-62853500D01*
X74581354Y-62853500D01*
X74581352Y-62853500D01*
X74396197Y-62892855D01*
X74223269Y-62969848D01*
X74070129Y-63081110D01*
X73943466Y-63221783D01*
X73848820Y-63385715D01*
X73790326Y-63565742D01*
X73770540Y-63753999D01*
X72390500Y-63753999D01*
X72390500Y-57852003D01*
X77413500Y-57852003D01*
X77428402Y-58055617D01*
X77487616Y-58321438D01*
X77536944Y-58450410D01*
X77584907Y-58575814D01*
X77718196Y-58813310D01*
X77801420Y-58921088D01*
X77884645Y-59028869D01*
X78080704Y-59217894D01*
X78302199Y-59376359D01*
X78431906Y-59443046D01*
X78544403Y-59500885D01*
X78802159Y-59588819D01*
X78802161Y-59588819D01*
X78802163Y-59588820D01*
X79069970Y-59638286D01*
X79342130Y-59648232D01*
X79342130Y-59648231D01*
X79342131Y-59648232D01*
X79612839Y-59618446D01*
X79876326Y-59549562D01*
X80126975Y-59443047D01*
X80359444Y-59301173D01*
X80568779Y-59126963D01*
X80750518Y-58924131D01*
X80900788Y-58696998D01*
X81016386Y-58450406D01*
X81094847Y-58189611D01*
X81134500Y-57920171D01*
X81134500Y-57852003D01*
X87013500Y-57852003D01*
X87028402Y-58055617D01*
X87087616Y-58321438D01*
X87136944Y-58450410D01*
X87184907Y-58575814D01*
X87318196Y-58813310D01*
X87401420Y-58921088D01*
X87484645Y-59028869D01*
X87680704Y-59217894D01*
X87902199Y-59376359D01*
X88031906Y-59443046D01*
X88144403Y-59500885D01*
X88402159Y-59588819D01*
X88402161Y-59588819D01*
X88402163Y-59588820D01*
X88669970Y-59638286D01*
X88942130Y-59648232D01*
X88942130Y-59648231D01*
X88942131Y-59648232D01*
X89212839Y-59618446D01*
X89476326Y-59549562D01*
X89726975Y-59443047D01*
X89959444Y-59301173D01*
X90168779Y-59126963D01*
X90350518Y-58924131D01*
X90500788Y-58696998D01*
X90616386Y-58450406D01*
X90694847Y-58189611D01*
X90734500Y-57920171D01*
X90734500Y-57785000D01*
X93844699Y-57785000D01*
X93863865Y-58016299D01*
X93863865Y-58016301D01*
X93863866Y-58016305D01*
X93920843Y-58241300D01*
X93920844Y-58241303D01*
X93980000Y-58376163D01*
X94014076Y-58453849D01*
X94141021Y-58648153D01*
X94185986Y-58696998D01*
X94298219Y-58818916D01*
X94477247Y-58958259D01*
X94512485Y-59001652D01*
X94525085Y-59056112D01*
X94512486Y-59110572D01*
X94477248Y-59153965D01*
X94301074Y-59291086D01*
X94143878Y-59461848D01*
X94016934Y-59656150D01*
X93923702Y-59868696D01*
X93866723Y-60093700D01*
X93847557Y-60325000D01*
X93866723Y-60556299D01*
X93866723Y-60556301D01*
X93866724Y-60556305D01*
X93923701Y-60781300D01*
X94016934Y-60993849D01*
X94143879Y-61188153D01*
X94301074Y-61358913D01*
X94301077Y-61358915D01*
X94477654Y-61496351D01*
X94512892Y-61539743D01*
X94525492Y-61594204D01*
X94512893Y-61648664D01*
X94477655Y-61692057D01*
X94298556Y-61831456D01*
X94141414Y-62002158D01*
X94014517Y-62196387D01*
X93921319Y-62408860D01*
X93869117Y-62615000D01*
X99170883Y-62615000D01*
X99118680Y-62408860D01*
X99025482Y-62196387D01*
X98898585Y-62002158D01*
X98741443Y-61831456D01*
X98563773Y-61693170D01*
X98528535Y-61649777D01*
X98515936Y-61595317D01*
X98528536Y-61540857D01*
X98563774Y-61497464D01*
X98639934Y-61438184D01*
X98741784Y-61358913D01*
X98898979Y-61188153D01*
X99025924Y-60993849D01*
X99119157Y-60781300D01*
X99176134Y-60556305D01*
X99195300Y-60325000D01*
X99176134Y-60093695D01*
X99119157Y-59868700D01*
X99025924Y-59656151D01*
X98898979Y-59461847D01*
X98741784Y-59291087D01*
X98741783Y-59291086D01*
X98564180Y-59152852D01*
X98528942Y-59109459D01*
X98516343Y-59054999D01*
X98528943Y-59000538D01*
X98564177Y-58957148D01*
X98741784Y-58818913D01*
X98898979Y-58648153D01*
X99025924Y-58453849D01*
X99119157Y-58241300D01*
X99176134Y-58016305D01*
X99189748Y-57852003D01*
X102813500Y-57852003D01*
X102828402Y-58055617D01*
X102887616Y-58321438D01*
X102936944Y-58450410D01*
X102984907Y-58575814D01*
X103118196Y-58813310D01*
X103201420Y-58921088D01*
X103284645Y-59028869D01*
X103480704Y-59217894D01*
X103702199Y-59376359D01*
X103831906Y-59443046D01*
X103944403Y-59500885D01*
X104202159Y-59588819D01*
X104202161Y-59588819D01*
X104202163Y-59588820D01*
X104469970Y-59638286D01*
X104742130Y-59648232D01*
X104742130Y-59648231D01*
X104742131Y-59648232D01*
X105012839Y-59618446D01*
X105276326Y-59549562D01*
X105526975Y-59443047D01*
X105759444Y-59301173D01*
X105968779Y-59126963D01*
X106150518Y-58924131D01*
X106300788Y-58696998D01*
X106416386Y-58450406D01*
X106494847Y-58189611D01*
X106534500Y-57920171D01*
X106534500Y-57852003D01*
X112413500Y-57852003D01*
X112428402Y-58055617D01*
X112487616Y-58321438D01*
X112536944Y-58450410D01*
X112584907Y-58575814D01*
X112718196Y-58813310D01*
X112801420Y-58921089D01*
X112884645Y-59028869D01*
X113080704Y-59217894D01*
X113302199Y-59376359D01*
X113431906Y-59443046D01*
X113544403Y-59500885D01*
X113802159Y-59588819D01*
X113802161Y-59588819D01*
X113802163Y-59588820D01*
X114069970Y-59638286D01*
X114342130Y-59648232D01*
X114342130Y-59648231D01*
X114342131Y-59648232D01*
X114612839Y-59618446D01*
X114876326Y-59549562D01*
X115126975Y-59443047D01*
X115359444Y-59301173D01*
X115568779Y-59126963D01*
X115750518Y-58924131D01*
X115900788Y-58696998D01*
X116016386Y-58450406D01*
X116094847Y-58189611D01*
X116134500Y-57920171D01*
X116134500Y-57196000D01*
X116129510Y-57127829D01*
X116119597Y-56992382D01*
X116060383Y-56726561D01*
X116060382Y-56726558D01*
X115963093Y-56472186D01*
X115829804Y-56234690D01*
X115722024Y-56095110D01*
X115663354Y-56019130D01*
X115467295Y-55830105D01*
X115245800Y-55671640D01*
X115003602Y-55547117D01*
X115003598Y-55547115D01*
X115003597Y-55547115D01*
X114860913Y-55498438D01*
X114745836Y-55459179D01*
X114478029Y-55409713D01*
X114205869Y-55399767D01*
X113935162Y-55429553D01*
X113671674Y-55498438D01*
X113421024Y-55604953D01*
X113188556Y-55746826D01*
X112979223Y-55921035D01*
X112797480Y-56123871D01*
X112647210Y-56351005D01*
X112531615Y-56597589D01*
X112485435Y-56751087D01*
X112453153Y-56858389D01*
X112424859Y-57050650D01*
X112413500Y-57127832D01*
X112413500Y-57852003D01*
X106534500Y-57852003D01*
X106534500Y-57196000D01*
X106529510Y-57127829D01*
X106519597Y-56992382D01*
X106460383Y-56726561D01*
X106460382Y-56726558D01*
X106363093Y-56472186D01*
X106229804Y-56234690D01*
X106122024Y-56095110D01*
X106063354Y-56019130D01*
X105867295Y-55830105D01*
X105645800Y-55671640D01*
X105403602Y-55547117D01*
X105403598Y-55547115D01*
X105403597Y-55547115D01*
X105260913Y-55498438D01*
X105145836Y-55459179D01*
X104878029Y-55409713D01*
X104605869Y-55399767D01*
X104335162Y-55429553D01*
X104071674Y-55498438D01*
X103821024Y-55604953D01*
X103588556Y-55746826D01*
X103379223Y-55921035D01*
X103197480Y-56123871D01*
X103047210Y-56351005D01*
X102931615Y-56597589D01*
X102885435Y-56751087D01*
X102853153Y-56858389D01*
X102824859Y-57050650D01*
X102813500Y-57127832D01*
X102813500Y-57852003D01*
X99189748Y-57852003D01*
X99195300Y-57785000D01*
X99176134Y-57553695D01*
X99119157Y-57328700D01*
X99025924Y-57116151D01*
X98898979Y-56921847D01*
X98741784Y-56751087D01*
X98558626Y-56608530D01*
X98354503Y-56498064D01*
X98354499Y-56498062D01*
X98354498Y-56498062D01*
X98134984Y-56422702D01*
X97963281Y-56394050D01*
X97906049Y-56384500D01*
X97673951Y-56384500D01*
X97628164Y-56392140D01*
X97445015Y-56422702D01*
X97225501Y-56498062D01*
X97021372Y-56608531D01*
X96838215Y-56751087D01*
X96681018Y-56921849D01*
X96623808Y-57009417D01*
X96579017Y-57050650D01*
X96520000Y-57065595D01*
X96460983Y-57050650D01*
X96416192Y-57009417D01*
X96358981Y-56921849D01*
X96201784Y-56751087D01*
X96018627Y-56608531D01*
X96018626Y-56608530D01*
X95814503Y-56498064D01*
X95814499Y-56498062D01*
X95814498Y-56498062D01*
X95594984Y-56422702D01*
X95423281Y-56394050D01*
X95366049Y-56384500D01*
X95133951Y-56384500D01*
X95088164Y-56392140D01*
X94905015Y-56422702D01*
X94685501Y-56498062D01*
X94481372Y-56608531D01*
X94298215Y-56751087D01*
X94141020Y-56921848D01*
X94014076Y-57116150D01*
X93920844Y-57328696D01*
X93863865Y-57553700D01*
X93844699Y-57785000D01*
X90734500Y-57785000D01*
X90734500Y-57196000D01*
X90729510Y-57127829D01*
X90719597Y-56992382D01*
X90660383Y-56726561D01*
X90660382Y-56726558D01*
X90563093Y-56472186D01*
X90429804Y-56234690D01*
X90322024Y-56095110D01*
X90263354Y-56019130D01*
X90067295Y-55830105D01*
X89845800Y-55671640D01*
X89603602Y-55547117D01*
X89603598Y-55547115D01*
X89603597Y-55547115D01*
X89460913Y-55498438D01*
X89345836Y-55459179D01*
X89078029Y-55409713D01*
X88805869Y-55399767D01*
X88535162Y-55429553D01*
X88271674Y-55498438D01*
X88021024Y-55604953D01*
X87788556Y-55746826D01*
X87579223Y-55921035D01*
X87397480Y-56123871D01*
X87247210Y-56351005D01*
X87131615Y-56597589D01*
X87085435Y-56751087D01*
X87053153Y-56858389D01*
X87024859Y-57050650D01*
X87013500Y-57127832D01*
X87013500Y-57852003D01*
X81134500Y-57852003D01*
X81134500Y-57196000D01*
X81129510Y-57127829D01*
X81119597Y-56992382D01*
X81060383Y-56726561D01*
X81060382Y-56726558D01*
X80963093Y-56472186D01*
X80829804Y-56234690D01*
X80722024Y-56095110D01*
X80663354Y-56019130D01*
X80467295Y-55830105D01*
X80245800Y-55671640D01*
X80003602Y-55547117D01*
X80003598Y-55547115D01*
X80003597Y-55547115D01*
X79860913Y-55498438D01*
X79745836Y-55459179D01*
X79478029Y-55409713D01*
X79205869Y-55399767D01*
X78935162Y-55429553D01*
X78671674Y-55498438D01*
X78421024Y-55604953D01*
X78188556Y-55746826D01*
X77979223Y-55921035D01*
X77797480Y-56123871D01*
X77647210Y-56351005D01*
X77531615Y-56597589D01*
X77485435Y-56751087D01*
X77453153Y-56858389D01*
X77424859Y-57050650D01*
X77413500Y-57127832D01*
X77413500Y-57852003D01*
X72390500Y-57852003D01*
X72390500Y-54025799D01*
X83168540Y-54025799D01*
X83188326Y-54214057D01*
X83246820Y-54394084D01*
X83341466Y-54558016D01*
X83468129Y-54698689D01*
X83621269Y-54809951D01*
X83794197Y-54886944D01*
X83979352Y-54926300D01*
X83979354Y-54926300D01*
X84168646Y-54926300D01*
X84168648Y-54926300D01*
X84292083Y-54900062D01*
X84353803Y-54886944D01*
X84526730Y-54809951D01*
X84576350Y-54773900D01*
X84679870Y-54698689D01*
X84806533Y-54558016D01*
X84901179Y-54394084D01*
X84901178Y-54394084D01*
X84959674Y-54214056D01*
X84979460Y-54025800D01*
X84963443Y-53873400D01*
X108568540Y-53873400D01*
X108588326Y-54061657D01*
X108646820Y-54241684D01*
X108741466Y-54405616D01*
X108868129Y-54546289D01*
X109021269Y-54657551D01*
X109194197Y-54734544D01*
X109379352Y-54773900D01*
X109379354Y-54773900D01*
X109568646Y-54773900D01*
X109568648Y-54773900D01*
X109692083Y-54747662D01*
X109753803Y-54734544D01*
X109926730Y-54657551D01*
X110079871Y-54546288D01*
X110206533Y-54405616D01*
X110301179Y-54241684D01*
X110359674Y-54061656D01*
X110379460Y-53873400D01*
X110359674Y-53685144D01*
X110301179Y-53505116D01*
X110301179Y-53505115D01*
X110206533Y-53341183D01*
X110079870Y-53200510D01*
X109926730Y-53089248D01*
X109753802Y-53012255D01*
X109568648Y-52972900D01*
X109568646Y-52972900D01*
X109379354Y-52972900D01*
X109379352Y-52972900D01*
X109194197Y-53012255D01*
X109021269Y-53089248D01*
X108868129Y-53200510D01*
X108741466Y-53341183D01*
X108646820Y-53505115D01*
X108588326Y-53685142D01*
X108568540Y-53873400D01*
X84963443Y-53873400D01*
X84959674Y-53837544D01*
X84910156Y-53685144D01*
X84901179Y-53657515D01*
X84806533Y-53493583D01*
X84679870Y-53352910D01*
X84526730Y-53241648D01*
X84353802Y-53164655D01*
X84168648Y-53125300D01*
X84168646Y-53125300D01*
X83979354Y-53125300D01*
X83979352Y-53125300D01*
X83794197Y-53164655D01*
X83621269Y-53241648D01*
X83468129Y-53352910D01*
X83341466Y-53493583D01*
X83246820Y-53657515D01*
X83188326Y-53837542D01*
X83168540Y-54025799D01*
X72390500Y-54025799D01*
X72390500Y-52194500D01*
X72407113Y-52132500D01*
X72452500Y-52087113D01*
X72514500Y-52070500D01*
X121033500Y-52070500D01*
X121095500Y-52087113D01*
G37*
%TD.AperFunction*%
%TD*%
M02*
