%TF.GenerationSoftware,KiCad,Pcbnew,9.0.0*%
%TF.CreationDate,2025-03-15T07:42:44-04:00*%
%TF.ProjectId,201_Blank_Faceplate,3230315f-426c-4616-9e6b-5f4661636570,rev?*%
%TF.SameCoordinates,Original*%
%TF.FileFunction,Legend,Top*%
%TF.FilePolarity,Positive*%
%FSLAX46Y46*%
G04 Gerber Fmt 4.6, Leading zero omitted, Abs format (unit mm)*
G04 Created by KiCad (PCBNEW 9.0.0) date 2025-03-15 07:42:44*
%MOMM*%
%LPD*%
G01*
G04 APERTURE LIST*
%ADD10C,0.254000*%
%ADD11C,0.330200*%
G04 APERTURE END LIST*
D10*
X100030618Y-143620829D02*
X101046618Y-143620829D01*
X100538618Y-145398829D02*
X100538618Y-143620829D01*
X101639285Y-144467496D02*
X102231952Y-144467496D01*
X102485952Y-145398829D02*
X101639285Y-145398829D01*
X101639285Y-145398829D02*
X101639285Y-143620829D01*
X101639285Y-143620829D02*
X102485952Y-143620829D01*
X103078619Y-143620829D02*
X104263952Y-145398829D01*
X104263952Y-143620829D02*
X103078619Y-145398829D01*
X104687285Y-143620829D02*
X105703285Y-143620829D01*
X105195285Y-145398829D02*
X105195285Y-143620829D01*
X86314618Y-143620829D02*
X87330618Y-143620829D01*
X86822618Y-145398829D02*
X86822618Y-143620829D01*
X87923285Y-144467496D02*
X88515952Y-144467496D01*
X88769952Y-145398829D02*
X87923285Y-145398829D01*
X87923285Y-145398829D02*
X87923285Y-143620829D01*
X87923285Y-143620829D02*
X88769952Y-143620829D01*
X89362619Y-143620829D02*
X90547952Y-145398829D01*
X90547952Y-143620829D02*
X89362619Y-145398829D01*
X90971285Y-143620829D02*
X91987285Y-143620829D01*
X91479285Y-145398829D02*
X91479285Y-143620829D01*
X100030618Y-133460829D02*
X101046618Y-133460829D01*
X100538618Y-135238829D02*
X100538618Y-133460829D01*
X101639285Y-134307496D02*
X102231952Y-134307496D01*
X102485952Y-135238829D02*
X101639285Y-135238829D01*
X101639285Y-135238829D02*
X101639285Y-133460829D01*
X101639285Y-133460829D02*
X102485952Y-133460829D01*
X103078619Y-133460829D02*
X104263952Y-135238829D01*
X104263952Y-133460829D02*
X103078619Y-135238829D01*
X104687285Y-133460829D02*
X105703285Y-133460829D01*
X105195285Y-135238829D02*
X105195285Y-133460829D01*
X86314618Y-133460829D02*
X87330618Y-133460829D01*
X86822618Y-135238829D02*
X86822618Y-133460829D01*
X87923285Y-134307496D02*
X88515952Y-134307496D01*
X88769952Y-135238829D02*
X87923285Y-135238829D01*
X87923285Y-135238829D02*
X87923285Y-133460829D01*
X87923285Y-133460829D02*
X88769952Y-133460829D01*
X89362619Y-133460829D02*
X90547952Y-135238829D01*
X90547952Y-133460829D02*
X89362619Y-135238829D01*
X90971285Y-133460829D02*
X91987285Y-133460829D01*
X91479285Y-135238829D02*
X91479285Y-133460829D01*
X72598618Y-133460829D02*
X73614618Y-133460829D01*
X73106618Y-135238829D02*
X73106618Y-133460829D01*
X74207285Y-134307496D02*
X74799952Y-134307496D01*
X75053952Y-135238829D02*
X74207285Y-135238829D01*
X74207285Y-135238829D02*
X74207285Y-133460829D01*
X74207285Y-133460829D02*
X75053952Y-133460829D01*
X75646619Y-133460829D02*
X76831952Y-135238829D01*
X76831952Y-133460829D02*
X75646619Y-135238829D01*
X77255285Y-133460829D02*
X78271285Y-133460829D01*
X77763285Y-135238829D02*
X77763285Y-133460829D01*
X72598618Y-143620829D02*
X73614618Y-143620829D01*
X73106618Y-145398829D02*
X73106618Y-143620829D01*
X74207285Y-144467496D02*
X74799952Y-144467496D01*
X75053952Y-145398829D02*
X74207285Y-145398829D01*
X74207285Y-145398829D02*
X74207285Y-143620829D01*
X74207285Y-143620829D02*
X75053952Y-143620829D01*
X75646619Y-143620829D02*
X76831952Y-145398829D01*
X76831952Y-143620829D02*
X75646619Y-145398829D01*
X77255285Y-143620829D02*
X78271285Y-143620829D01*
X77763285Y-145398829D02*
X77763285Y-143620829D01*
X58882618Y-143620829D02*
X59898618Y-143620829D01*
X59390618Y-145398829D02*
X59390618Y-143620829D01*
X60491285Y-144467496D02*
X61083952Y-144467496D01*
X61337952Y-145398829D02*
X60491285Y-145398829D01*
X60491285Y-145398829D02*
X60491285Y-143620829D01*
X60491285Y-143620829D02*
X61337952Y-143620829D01*
X61930619Y-143620829D02*
X63115952Y-145398829D01*
X63115952Y-143620829D02*
X61930619Y-145398829D01*
X63539285Y-143620829D02*
X64555285Y-143620829D01*
X64047285Y-145398829D02*
X64047285Y-143620829D01*
X45166618Y-143620829D02*
X46182618Y-143620829D01*
X45674618Y-145398829D02*
X45674618Y-143620829D01*
X46775285Y-144467496D02*
X47367952Y-144467496D01*
X47621952Y-145398829D02*
X46775285Y-145398829D01*
X46775285Y-145398829D02*
X46775285Y-143620829D01*
X46775285Y-143620829D02*
X47621952Y-143620829D01*
X48214619Y-143620829D02*
X49399952Y-145398829D01*
X49399952Y-143620829D02*
X48214619Y-145398829D01*
X49823285Y-143620829D02*
X50839285Y-143620829D01*
X50331285Y-145398829D02*
X50331285Y-143620829D01*
X45166618Y-133460829D02*
X46182618Y-133460829D01*
X45674618Y-135238829D02*
X45674618Y-133460829D01*
X46775285Y-134307496D02*
X47367952Y-134307496D01*
X47621952Y-135238829D02*
X46775285Y-135238829D01*
X46775285Y-135238829D02*
X46775285Y-133460829D01*
X46775285Y-133460829D02*
X47621952Y-133460829D01*
X48214619Y-133460829D02*
X49399952Y-135238829D01*
X49399952Y-133460829D02*
X48214619Y-135238829D01*
X49823285Y-133460829D02*
X50839285Y-133460829D01*
X50331285Y-135238829D02*
X50331285Y-133460829D01*
X58882618Y-133460829D02*
X59898618Y-133460829D01*
X59390618Y-135238829D02*
X59390618Y-133460829D01*
X60491285Y-134307496D02*
X61083952Y-134307496D01*
X61337952Y-135238829D02*
X60491285Y-135238829D01*
X60491285Y-135238829D02*
X60491285Y-133460829D01*
X60491285Y-133460829D02*
X61337952Y-133460829D01*
X61930619Y-133460829D02*
X63115952Y-135238829D01*
X63115952Y-133460829D02*
X61930619Y-135238829D01*
X63539285Y-133460829D02*
X64555285Y-133460829D01*
X64047285Y-135238829D02*
X64047285Y-133460829D01*
X45166618Y-123300829D02*
X46182618Y-123300829D01*
X45674618Y-125078829D02*
X45674618Y-123300829D01*
X46775285Y-124147496D02*
X47367952Y-124147496D01*
X47621952Y-125078829D02*
X46775285Y-125078829D01*
X46775285Y-125078829D02*
X46775285Y-123300829D01*
X46775285Y-123300829D02*
X47621952Y-123300829D01*
X48214619Y-123300829D02*
X49399952Y-125078829D01*
X49399952Y-123300829D02*
X48214619Y-125078829D01*
X49823285Y-123300829D02*
X50839285Y-123300829D01*
X50331285Y-125078829D02*
X50331285Y-123300829D01*
D11*
X44613286Y-50443376D02*
X45919572Y-50443376D01*
X45266429Y-52729376D02*
X45266429Y-50443376D01*
X46681571Y-51531947D02*
X47443571Y-51531947D01*
X47770143Y-52729376D02*
X46681571Y-52729376D01*
X46681571Y-52729376D02*
X46681571Y-50443376D01*
X46681571Y-50443376D02*
X47770143Y-50443376D01*
X48532143Y-50443376D02*
X50056143Y-52729376D01*
X50056143Y-50443376D02*
X48532143Y-52729376D01*
X50600429Y-50443376D02*
X51906715Y-50443376D01*
X51253572Y-52729376D02*
X51253572Y-50443376D01*
X67473286Y-92353376D02*
X68779572Y-92353376D01*
X68126429Y-94639376D02*
X68126429Y-92353376D01*
X69541571Y-93441947D02*
X70303571Y-93441947D01*
X70630143Y-94639376D02*
X69541571Y-94639376D01*
X69541571Y-94639376D02*
X69541571Y-92353376D01*
X69541571Y-92353376D02*
X70630143Y-92353376D01*
X71392143Y-92353376D02*
X72916143Y-94639376D01*
X72916143Y-92353376D02*
X71392143Y-94639376D01*
X73460429Y-92353376D02*
X74766715Y-92353376D01*
X74113572Y-94639376D02*
X74113572Y-92353376D01*
X90333286Y-77748376D02*
X91639572Y-77748376D01*
X90986429Y-80034376D02*
X90986429Y-77748376D01*
X92401571Y-78836947D02*
X93163571Y-78836947D01*
X93490143Y-80034376D02*
X92401571Y-80034376D01*
X92401571Y-80034376D02*
X92401571Y-77748376D01*
X92401571Y-77748376D02*
X93490143Y-77748376D01*
X94252143Y-77748376D02*
X95776143Y-80034376D01*
X95776143Y-77748376D02*
X94252143Y-80034376D01*
X96320429Y-77748376D02*
X97626715Y-77748376D01*
X96973572Y-80034376D02*
X96973572Y-77748376D01*
X90333286Y-105053376D02*
X91639572Y-105053376D01*
X90986429Y-107339376D02*
X90986429Y-105053376D01*
X92401571Y-106141947D02*
X93163571Y-106141947D01*
X93490143Y-107339376D02*
X92401571Y-107339376D01*
X92401571Y-107339376D02*
X92401571Y-105053376D01*
X92401571Y-105053376D02*
X93490143Y-105053376D01*
X94252143Y-105053376D02*
X95776143Y-107339376D01*
X95776143Y-105053376D02*
X94252143Y-107339376D01*
X96320429Y-105053376D02*
X97626715Y-105053376D01*
X96973572Y-107339376D02*
X96973572Y-105053376D01*
X67473286Y-65048376D02*
X68779572Y-65048376D01*
X68126429Y-67334376D02*
X68126429Y-65048376D01*
X69541571Y-66136947D02*
X70303571Y-66136947D01*
X70630143Y-67334376D02*
X69541571Y-67334376D01*
X69541571Y-67334376D02*
X69541571Y-65048376D01*
X69541571Y-65048376D02*
X70630143Y-65048376D01*
X71392143Y-65048376D02*
X72916143Y-67334376D01*
X72916143Y-65048376D02*
X71392143Y-67334376D01*
X73460429Y-65048376D02*
X74766715Y-65048376D01*
X74113572Y-67334376D02*
X74113572Y-65048376D01*
D10*
X58885666Y-123300829D02*
X59901666Y-123300829D01*
X59393666Y-125078829D02*
X59393666Y-123300829D01*
X60494333Y-124147496D02*
X61087000Y-124147496D01*
X61341000Y-125078829D02*
X60494333Y-125078829D01*
X60494333Y-125078829D02*
X60494333Y-123300829D01*
X60494333Y-123300829D02*
X61341000Y-123300829D01*
X61933667Y-123300829D02*
X63119000Y-125078829D01*
X63119000Y-123300829D02*
X61933667Y-125078829D01*
X63542333Y-123300829D02*
X64558333Y-123300829D01*
X64050333Y-125078829D02*
X64050333Y-123300829D01*
D11*
X44613286Y-105053376D02*
X45919572Y-105053376D01*
X45266429Y-107339376D02*
X45266429Y-105053376D01*
X46681571Y-106141947D02*
X47443571Y-106141947D01*
X47770143Y-107339376D02*
X46681571Y-107339376D01*
X46681571Y-107339376D02*
X46681571Y-105053376D01*
X46681571Y-105053376D02*
X47770143Y-105053376D01*
X48532143Y-105053376D02*
X50056143Y-107339376D01*
X50056143Y-105053376D02*
X48532143Y-107339376D01*
X50600429Y-105053376D02*
X51906715Y-105053376D01*
X51253572Y-107339376D02*
X51253572Y-105053376D01*
X44613286Y-77748376D02*
X45919572Y-77748376D01*
X45266429Y-80034376D02*
X45266429Y-77748376D01*
X46681571Y-78836947D02*
X47443571Y-78836947D01*
X47770143Y-80034376D02*
X46681571Y-80034376D01*
X46681571Y-80034376D02*
X46681571Y-77748376D01*
X46681571Y-77748376D02*
X47770143Y-77748376D01*
X48532143Y-77748376D02*
X50056143Y-80034376D01*
X50056143Y-77748376D02*
X48532143Y-80034376D01*
X50600429Y-77748376D02*
X51906715Y-77748376D01*
X51253572Y-80034376D02*
X51253572Y-77748376D01*
X90333286Y-50443376D02*
X91639572Y-50443376D01*
X90986429Y-52729376D02*
X90986429Y-50443376D01*
X92401571Y-51531947D02*
X93163571Y-51531947D01*
X93490143Y-52729376D02*
X92401571Y-52729376D01*
X92401571Y-52729376D02*
X92401571Y-50443376D01*
X92401571Y-50443376D02*
X93490143Y-50443376D01*
X94252143Y-50443376D02*
X95776143Y-52729376D01*
X95776143Y-50443376D02*
X94252143Y-52729376D01*
X96320429Y-50443376D02*
X97626715Y-50443376D01*
X96973572Y-52729376D02*
X96973572Y-50443376D01*
M02*
