%TF.GenerationSoftware,KiCad,Pcbnew,8.0.7*%
%TF.CreationDate,2025-01-10T16:02:57-05:00*%
%TF.ProjectId,output module,6f757470-7574-4206-9d6f-64756c652e6b,B*%
%TF.SameCoordinates,Original*%
%TF.FileFunction,Legend,Top*%
%TF.FilePolarity,Positive*%
%FSLAX46Y46*%
G04 Gerber Fmt 4.6, Leading zero omitted, Abs format (unit mm)*
G04 Created by KiCad (PCBNEW 8.0.7) date 2025-01-10 16:02:57*
%MOMM*%
%LPD*%
G01*
G04 APERTURE LIST*
%ADD10C,0.150000*%
%ADD11C,0.100000*%
%ADD12C,0.120000*%
G04 APERTURE END LIST*
D10*
X77388819Y-84309238D02*
X76912628Y-84642571D01*
X77388819Y-84880666D02*
X76388819Y-84880666D01*
X76388819Y-84880666D02*
X76388819Y-84499714D01*
X76388819Y-84499714D02*
X76436438Y-84404476D01*
X76436438Y-84404476D02*
X76484057Y-84356857D01*
X76484057Y-84356857D02*
X76579295Y-84309238D01*
X76579295Y-84309238D02*
X76722152Y-84309238D01*
X76722152Y-84309238D02*
X76817390Y-84356857D01*
X76817390Y-84356857D02*
X76865009Y-84404476D01*
X76865009Y-84404476D02*
X76912628Y-84499714D01*
X76912628Y-84499714D02*
X76912628Y-84880666D01*
X76388819Y-84023523D02*
X77388819Y-83690190D01*
X77388819Y-83690190D02*
X76388819Y-83356857D01*
X76484057Y-83071142D02*
X76436438Y-83023523D01*
X76436438Y-83023523D02*
X76388819Y-82928285D01*
X76388819Y-82928285D02*
X76388819Y-82690190D01*
X76388819Y-82690190D02*
X76436438Y-82594952D01*
X76436438Y-82594952D02*
X76484057Y-82547333D01*
X76484057Y-82547333D02*
X76579295Y-82499714D01*
X76579295Y-82499714D02*
X76674533Y-82499714D01*
X76674533Y-82499714D02*
X76817390Y-82547333D01*
X76817390Y-82547333D02*
X77388819Y-83118761D01*
X77388819Y-83118761D02*
X77388819Y-82499714D01*
X102788819Y-84309238D02*
X102312628Y-84642571D01*
X102788819Y-84880666D02*
X101788819Y-84880666D01*
X101788819Y-84880666D02*
X101788819Y-84499714D01*
X101788819Y-84499714D02*
X101836438Y-84404476D01*
X101836438Y-84404476D02*
X101884057Y-84356857D01*
X101884057Y-84356857D02*
X101979295Y-84309238D01*
X101979295Y-84309238D02*
X102122152Y-84309238D01*
X102122152Y-84309238D02*
X102217390Y-84356857D01*
X102217390Y-84356857D02*
X102265009Y-84404476D01*
X102265009Y-84404476D02*
X102312628Y-84499714D01*
X102312628Y-84499714D02*
X102312628Y-84880666D01*
X101788819Y-84023523D02*
X102788819Y-83690190D01*
X102788819Y-83690190D02*
X101788819Y-83356857D01*
X101788819Y-82594952D02*
X101788819Y-82785428D01*
X101788819Y-82785428D02*
X101836438Y-82880666D01*
X101836438Y-82880666D02*
X101884057Y-82928285D01*
X101884057Y-82928285D02*
X102026914Y-83023523D01*
X102026914Y-83023523D02*
X102217390Y-83071142D01*
X102217390Y-83071142D02*
X102598342Y-83071142D01*
X102598342Y-83071142D02*
X102693580Y-83023523D01*
X102693580Y-83023523D02*
X102741200Y-82975904D01*
X102741200Y-82975904D02*
X102788819Y-82880666D01*
X102788819Y-82880666D02*
X102788819Y-82690190D01*
X102788819Y-82690190D02*
X102741200Y-82594952D01*
X102741200Y-82594952D02*
X102693580Y-82547333D01*
X102693580Y-82547333D02*
X102598342Y-82499714D01*
X102598342Y-82499714D02*
X102360247Y-82499714D01*
X102360247Y-82499714D02*
X102265009Y-82547333D01*
X102265009Y-82547333D02*
X102217390Y-82594952D01*
X102217390Y-82594952D02*
X102169771Y-82690190D01*
X102169771Y-82690190D02*
X102169771Y-82880666D01*
X102169771Y-82880666D02*
X102217390Y-82975904D01*
X102217390Y-82975904D02*
X102265009Y-83023523D01*
X102265009Y-83023523D02*
X102360247Y-83071142D01*
X75599819Y-124658285D02*
X74599819Y-124658285D01*
X74599819Y-124658285D02*
X74599819Y-124420190D01*
X74599819Y-124420190D02*
X74647438Y-124277333D01*
X74647438Y-124277333D02*
X74742676Y-124182095D01*
X74742676Y-124182095D02*
X74837914Y-124134476D01*
X74837914Y-124134476D02*
X75028390Y-124086857D01*
X75028390Y-124086857D02*
X75171247Y-124086857D01*
X75171247Y-124086857D02*
X75361723Y-124134476D01*
X75361723Y-124134476D02*
X75456961Y-124182095D01*
X75456961Y-124182095D02*
X75552200Y-124277333D01*
X75552200Y-124277333D02*
X75599819Y-124420190D01*
X75599819Y-124420190D02*
X75599819Y-124658285D01*
X75599819Y-123134476D02*
X75599819Y-123705904D01*
X75599819Y-123420190D02*
X74599819Y-123420190D01*
X74599819Y-123420190D02*
X74742676Y-123515428D01*
X74742676Y-123515428D02*
X74837914Y-123610666D01*
X74837914Y-123610666D02*
X74885533Y-123705904D01*
X74933152Y-122277333D02*
X75599819Y-122277333D01*
X74552200Y-122515428D02*
X75266485Y-122753523D01*
X75266485Y-122753523D02*
X75266485Y-122134476D01*
X77388819Y-58909238D02*
X76912628Y-59242571D01*
X77388819Y-59480666D02*
X76388819Y-59480666D01*
X76388819Y-59480666D02*
X76388819Y-59099714D01*
X76388819Y-59099714D02*
X76436438Y-59004476D01*
X76436438Y-59004476D02*
X76484057Y-58956857D01*
X76484057Y-58956857D02*
X76579295Y-58909238D01*
X76579295Y-58909238D02*
X76722152Y-58909238D01*
X76722152Y-58909238D02*
X76817390Y-58956857D01*
X76817390Y-58956857D02*
X76865009Y-59004476D01*
X76865009Y-59004476D02*
X76912628Y-59099714D01*
X76912628Y-59099714D02*
X76912628Y-59480666D01*
X76388819Y-58623523D02*
X77388819Y-58290190D01*
X77388819Y-58290190D02*
X76388819Y-57956857D01*
X77388819Y-57099714D02*
X77388819Y-57671142D01*
X77388819Y-57385428D02*
X76388819Y-57385428D01*
X76388819Y-57385428D02*
X76531676Y-57480666D01*
X76531676Y-57480666D02*
X76626914Y-57575904D01*
X76626914Y-57575904D02*
X76674533Y-57671142D01*
X81568819Y-124658285D02*
X80568819Y-124658285D01*
X80568819Y-124658285D02*
X80568819Y-124420190D01*
X80568819Y-124420190D02*
X80616438Y-124277333D01*
X80616438Y-124277333D02*
X80711676Y-124182095D01*
X80711676Y-124182095D02*
X80806914Y-124134476D01*
X80806914Y-124134476D02*
X80997390Y-124086857D01*
X80997390Y-124086857D02*
X81140247Y-124086857D01*
X81140247Y-124086857D02*
X81330723Y-124134476D01*
X81330723Y-124134476D02*
X81425961Y-124182095D01*
X81425961Y-124182095D02*
X81521200Y-124277333D01*
X81521200Y-124277333D02*
X81568819Y-124420190D01*
X81568819Y-124420190D02*
X81568819Y-124658285D01*
X81568819Y-123134476D02*
X81568819Y-123705904D01*
X81568819Y-123420190D02*
X80568819Y-123420190D01*
X80568819Y-123420190D02*
X80711676Y-123515428D01*
X80711676Y-123515428D02*
X80806914Y-123610666D01*
X80806914Y-123610666D02*
X80854533Y-123705904D01*
X80568819Y-122801142D02*
X80568819Y-122182095D01*
X80568819Y-122182095D02*
X80949771Y-122515428D01*
X80949771Y-122515428D02*
X80949771Y-122372571D01*
X80949771Y-122372571D02*
X80997390Y-122277333D01*
X80997390Y-122277333D02*
X81045009Y-122229714D01*
X81045009Y-122229714D02*
X81140247Y-122182095D01*
X81140247Y-122182095D02*
X81378342Y-122182095D01*
X81378342Y-122182095D02*
X81473580Y-122229714D01*
X81473580Y-122229714D02*
X81521200Y-122277333D01*
X81521200Y-122277333D02*
X81568819Y-122372571D01*
X81568819Y-122372571D02*
X81568819Y-122658285D01*
X81568819Y-122658285D02*
X81521200Y-122753523D01*
X81521200Y-122753523D02*
X81473580Y-122801142D01*
D11*
X101266666Y-149317419D02*
X101266666Y-150031704D01*
X101266666Y-150031704D02*
X101219047Y-150174561D01*
X101219047Y-150174561D02*
X101123809Y-150269800D01*
X101123809Y-150269800D02*
X100980952Y-150317419D01*
X100980952Y-150317419D02*
X100885714Y-150317419D01*
X101695238Y-149412657D02*
X101742857Y-149365038D01*
X101742857Y-149365038D02*
X101838095Y-149317419D01*
X101838095Y-149317419D02*
X102076190Y-149317419D01*
X102076190Y-149317419D02*
X102171428Y-149365038D01*
X102171428Y-149365038D02*
X102219047Y-149412657D01*
X102219047Y-149412657D02*
X102266666Y-149507895D01*
X102266666Y-149507895D02*
X102266666Y-149603133D01*
X102266666Y-149603133D02*
X102219047Y-149745990D01*
X102219047Y-149745990D02*
X101647619Y-150317419D01*
X101647619Y-150317419D02*
X102266666Y-150317419D01*
D10*
X102788819Y-109709238D02*
X102312628Y-110042571D01*
X102788819Y-110280666D02*
X101788819Y-110280666D01*
X101788819Y-110280666D02*
X101788819Y-109899714D01*
X101788819Y-109899714D02*
X101836438Y-109804476D01*
X101836438Y-109804476D02*
X101884057Y-109756857D01*
X101884057Y-109756857D02*
X101979295Y-109709238D01*
X101979295Y-109709238D02*
X102122152Y-109709238D01*
X102122152Y-109709238D02*
X102217390Y-109756857D01*
X102217390Y-109756857D02*
X102265009Y-109804476D01*
X102265009Y-109804476D02*
X102312628Y-109899714D01*
X102312628Y-109899714D02*
X102312628Y-110280666D01*
X101788819Y-109423523D02*
X102788819Y-109090190D01*
X102788819Y-109090190D02*
X101788819Y-108756857D01*
X101788819Y-108518761D02*
X101788819Y-107852095D01*
X101788819Y-107852095D02*
X102788819Y-108280666D01*
D11*
X117649666Y-149571419D02*
X117649666Y-150285704D01*
X117649666Y-150285704D02*
X117602047Y-150428561D01*
X117602047Y-150428561D02*
X117506809Y-150523800D01*
X117506809Y-150523800D02*
X117363952Y-150571419D01*
X117363952Y-150571419D02*
X117268714Y-150571419D01*
X118030619Y-149571419D02*
X118649666Y-149571419D01*
X118649666Y-149571419D02*
X118316333Y-149952371D01*
X118316333Y-149952371D02*
X118459190Y-149952371D01*
X118459190Y-149952371D02*
X118554428Y-149999990D01*
X118554428Y-149999990D02*
X118602047Y-150047609D01*
X118602047Y-150047609D02*
X118649666Y-150142847D01*
X118649666Y-150142847D02*
X118649666Y-150380942D01*
X118649666Y-150380942D02*
X118602047Y-150476180D01*
X118602047Y-150476180D02*
X118554428Y-150523800D01*
X118554428Y-150523800D02*
X118459190Y-150571419D01*
X118459190Y-150571419D02*
X118173476Y-150571419D01*
X118173476Y-150571419D02*
X118078238Y-150523800D01*
X118078238Y-150523800D02*
X118030619Y-150476180D01*
D10*
X77388819Y-109709238D02*
X76912628Y-110042571D01*
X77388819Y-110280666D02*
X76388819Y-110280666D01*
X76388819Y-110280666D02*
X76388819Y-109899714D01*
X76388819Y-109899714D02*
X76436438Y-109804476D01*
X76436438Y-109804476D02*
X76484057Y-109756857D01*
X76484057Y-109756857D02*
X76579295Y-109709238D01*
X76579295Y-109709238D02*
X76722152Y-109709238D01*
X76722152Y-109709238D02*
X76817390Y-109756857D01*
X76817390Y-109756857D02*
X76865009Y-109804476D01*
X76865009Y-109804476D02*
X76912628Y-109899714D01*
X76912628Y-109899714D02*
X76912628Y-110280666D01*
X76388819Y-109423523D02*
X77388819Y-109090190D01*
X77388819Y-109090190D02*
X76388819Y-108756857D01*
X76388819Y-108518761D02*
X76388819Y-107899714D01*
X76388819Y-107899714D02*
X76769771Y-108233047D01*
X76769771Y-108233047D02*
X76769771Y-108090190D01*
X76769771Y-108090190D02*
X76817390Y-107994952D01*
X76817390Y-107994952D02*
X76865009Y-107947333D01*
X76865009Y-107947333D02*
X76960247Y-107899714D01*
X76960247Y-107899714D02*
X77198342Y-107899714D01*
X77198342Y-107899714D02*
X77293580Y-107947333D01*
X77293580Y-107947333D02*
X77341200Y-107994952D01*
X77341200Y-107994952D02*
X77388819Y-108090190D01*
X77388819Y-108090190D02*
X77388819Y-108375904D01*
X77388819Y-108375904D02*
X77341200Y-108471142D01*
X77341200Y-108471142D02*
X77293580Y-108518761D01*
X78779761Y-128216819D02*
X78446428Y-127740628D01*
X78208333Y-128216819D02*
X78208333Y-127216819D01*
X78208333Y-127216819D02*
X78589285Y-127216819D01*
X78589285Y-127216819D02*
X78684523Y-127264438D01*
X78684523Y-127264438D02*
X78732142Y-127312057D01*
X78732142Y-127312057D02*
X78779761Y-127407295D01*
X78779761Y-127407295D02*
X78779761Y-127550152D01*
X78779761Y-127550152D02*
X78732142Y-127645390D01*
X78732142Y-127645390D02*
X78684523Y-127693009D01*
X78684523Y-127693009D02*
X78589285Y-127740628D01*
X78589285Y-127740628D02*
X78208333Y-127740628D01*
X79065476Y-127216819D02*
X79398809Y-128216819D01*
X79398809Y-128216819D02*
X79732142Y-127216819D01*
X80494047Y-127550152D02*
X80494047Y-128216819D01*
X80255952Y-127169200D02*
X80017857Y-127883485D01*
X80017857Y-127883485D02*
X80636904Y-127883485D01*
D11*
X84248666Y-149317419D02*
X84248666Y-150031704D01*
X84248666Y-150031704D02*
X84201047Y-150174561D01*
X84201047Y-150174561D02*
X84105809Y-150269800D01*
X84105809Y-150269800D02*
X83962952Y-150317419D01*
X83962952Y-150317419D02*
X83867714Y-150317419D01*
X85248666Y-150317419D02*
X84677238Y-150317419D01*
X84962952Y-150317419D02*
X84962952Y-149317419D01*
X84962952Y-149317419D02*
X84867714Y-149460276D01*
X84867714Y-149460276D02*
X84772476Y-149555514D01*
X84772476Y-149555514D02*
X84677238Y-149603133D01*
D10*
X106880819Y-125960094D02*
X105880819Y-125960094D01*
X105880819Y-125960094D02*
X105880819Y-125721999D01*
X105880819Y-125721999D02*
X105928438Y-125579142D01*
X105928438Y-125579142D02*
X106023676Y-125483904D01*
X106023676Y-125483904D02*
X106118914Y-125436285D01*
X106118914Y-125436285D02*
X106309390Y-125388666D01*
X106309390Y-125388666D02*
X106452247Y-125388666D01*
X106452247Y-125388666D02*
X106642723Y-125436285D01*
X106642723Y-125436285D02*
X106737961Y-125483904D01*
X106737961Y-125483904D02*
X106833200Y-125579142D01*
X106833200Y-125579142D02*
X106880819Y-125721999D01*
X106880819Y-125721999D02*
X106880819Y-125960094D01*
X105880819Y-124483904D02*
X105880819Y-124960094D01*
X105880819Y-124960094D02*
X106357009Y-125007713D01*
X106357009Y-125007713D02*
X106309390Y-124960094D01*
X106309390Y-124960094D02*
X106261771Y-124864856D01*
X106261771Y-124864856D02*
X106261771Y-124626761D01*
X106261771Y-124626761D02*
X106309390Y-124531523D01*
X106309390Y-124531523D02*
X106357009Y-124483904D01*
X106357009Y-124483904D02*
X106452247Y-124436285D01*
X106452247Y-124436285D02*
X106690342Y-124436285D01*
X106690342Y-124436285D02*
X106785580Y-124483904D01*
X106785580Y-124483904D02*
X106833200Y-124531523D01*
X106833200Y-124531523D02*
X106880819Y-124626761D01*
X106880819Y-124626761D02*
X106880819Y-124864856D01*
X106880819Y-124864856D02*
X106833200Y-124960094D01*
X106833200Y-124960094D02*
X106785580Y-125007713D01*
X87537819Y-124658285D02*
X86537819Y-124658285D01*
X86537819Y-124658285D02*
X86537819Y-124420190D01*
X86537819Y-124420190D02*
X86585438Y-124277333D01*
X86585438Y-124277333D02*
X86680676Y-124182095D01*
X86680676Y-124182095D02*
X86775914Y-124134476D01*
X86775914Y-124134476D02*
X86966390Y-124086857D01*
X86966390Y-124086857D02*
X87109247Y-124086857D01*
X87109247Y-124086857D02*
X87299723Y-124134476D01*
X87299723Y-124134476D02*
X87394961Y-124182095D01*
X87394961Y-124182095D02*
X87490200Y-124277333D01*
X87490200Y-124277333D02*
X87537819Y-124420190D01*
X87537819Y-124420190D02*
X87537819Y-124658285D01*
X87537819Y-123134476D02*
X87537819Y-123705904D01*
X87537819Y-123420190D02*
X86537819Y-123420190D01*
X86537819Y-123420190D02*
X86680676Y-123515428D01*
X86680676Y-123515428D02*
X86775914Y-123610666D01*
X86775914Y-123610666D02*
X86823533Y-123705904D01*
X86633057Y-122753523D02*
X86585438Y-122705904D01*
X86585438Y-122705904D02*
X86537819Y-122610666D01*
X86537819Y-122610666D02*
X86537819Y-122372571D01*
X86537819Y-122372571D02*
X86585438Y-122277333D01*
X86585438Y-122277333D02*
X86633057Y-122229714D01*
X86633057Y-122229714D02*
X86728295Y-122182095D01*
X86728295Y-122182095D02*
X86823533Y-122182095D01*
X86823533Y-122182095D02*
X86966390Y-122229714D01*
X86966390Y-122229714D02*
X87537819Y-122801142D01*
X87537819Y-122801142D02*
X87537819Y-122182095D01*
X118818819Y-125960094D02*
X117818819Y-125960094D01*
X117818819Y-125960094D02*
X117818819Y-125721999D01*
X117818819Y-125721999D02*
X117866438Y-125579142D01*
X117866438Y-125579142D02*
X117961676Y-125483904D01*
X117961676Y-125483904D02*
X118056914Y-125436285D01*
X118056914Y-125436285D02*
X118247390Y-125388666D01*
X118247390Y-125388666D02*
X118390247Y-125388666D01*
X118390247Y-125388666D02*
X118580723Y-125436285D01*
X118580723Y-125436285D02*
X118675961Y-125483904D01*
X118675961Y-125483904D02*
X118771200Y-125579142D01*
X118771200Y-125579142D02*
X118818819Y-125721999D01*
X118818819Y-125721999D02*
X118818819Y-125960094D01*
X117818819Y-125055332D02*
X117818819Y-124388666D01*
X117818819Y-124388666D02*
X118818819Y-124817237D01*
X112976819Y-125960094D02*
X111976819Y-125960094D01*
X111976819Y-125960094D02*
X111976819Y-125721999D01*
X111976819Y-125721999D02*
X112024438Y-125579142D01*
X112024438Y-125579142D02*
X112119676Y-125483904D01*
X112119676Y-125483904D02*
X112214914Y-125436285D01*
X112214914Y-125436285D02*
X112405390Y-125388666D01*
X112405390Y-125388666D02*
X112548247Y-125388666D01*
X112548247Y-125388666D02*
X112738723Y-125436285D01*
X112738723Y-125436285D02*
X112833961Y-125483904D01*
X112833961Y-125483904D02*
X112929200Y-125579142D01*
X112929200Y-125579142D02*
X112976819Y-125721999D01*
X112976819Y-125721999D02*
X112976819Y-125960094D01*
X111976819Y-124531523D02*
X111976819Y-124721999D01*
X111976819Y-124721999D02*
X112024438Y-124817237D01*
X112024438Y-124817237D02*
X112072057Y-124864856D01*
X112072057Y-124864856D02*
X112214914Y-124960094D01*
X112214914Y-124960094D02*
X112405390Y-125007713D01*
X112405390Y-125007713D02*
X112786342Y-125007713D01*
X112786342Y-125007713D02*
X112881580Y-124960094D01*
X112881580Y-124960094D02*
X112929200Y-124912475D01*
X112929200Y-124912475D02*
X112976819Y-124817237D01*
X112976819Y-124817237D02*
X112976819Y-124626761D01*
X112976819Y-124626761D02*
X112929200Y-124531523D01*
X112929200Y-124531523D02*
X112881580Y-124483904D01*
X112881580Y-124483904D02*
X112786342Y-124436285D01*
X112786342Y-124436285D02*
X112548247Y-124436285D01*
X112548247Y-124436285D02*
X112453009Y-124483904D01*
X112453009Y-124483904D02*
X112405390Y-124531523D01*
X112405390Y-124531523D02*
X112357771Y-124626761D01*
X112357771Y-124626761D02*
X112357771Y-124817237D01*
X112357771Y-124817237D02*
X112405390Y-124912475D01*
X112405390Y-124912475D02*
X112453009Y-124960094D01*
X112453009Y-124960094D02*
X112548247Y-125007713D01*
X102788819Y-58909238D02*
X102312628Y-59242571D01*
X102788819Y-59480666D02*
X101788819Y-59480666D01*
X101788819Y-59480666D02*
X101788819Y-59099714D01*
X101788819Y-59099714D02*
X101836438Y-59004476D01*
X101836438Y-59004476D02*
X101884057Y-58956857D01*
X101884057Y-58956857D02*
X101979295Y-58909238D01*
X101979295Y-58909238D02*
X102122152Y-58909238D01*
X102122152Y-58909238D02*
X102217390Y-58956857D01*
X102217390Y-58956857D02*
X102265009Y-59004476D01*
X102265009Y-59004476D02*
X102312628Y-59099714D01*
X102312628Y-59099714D02*
X102312628Y-59480666D01*
X101788819Y-58623523D02*
X102788819Y-58290190D01*
X102788819Y-58290190D02*
X101788819Y-57956857D01*
X101788819Y-57147333D02*
X101788819Y-57623523D01*
X101788819Y-57623523D02*
X102265009Y-57671142D01*
X102265009Y-57671142D02*
X102217390Y-57623523D01*
X102217390Y-57623523D02*
X102169771Y-57528285D01*
X102169771Y-57528285D02*
X102169771Y-57290190D01*
X102169771Y-57290190D02*
X102217390Y-57194952D01*
X102217390Y-57194952D02*
X102265009Y-57147333D01*
X102265009Y-57147333D02*
X102360247Y-57099714D01*
X102360247Y-57099714D02*
X102598342Y-57099714D01*
X102598342Y-57099714D02*
X102693580Y-57147333D01*
X102693580Y-57147333D02*
X102741200Y-57194952D01*
X102741200Y-57194952D02*
X102788819Y-57290190D01*
X102788819Y-57290190D02*
X102788819Y-57528285D01*
X102788819Y-57528285D02*
X102741200Y-57623523D01*
X102741200Y-57623523D02*
X102693580Y-57671142D01*
D12*
%TO.C,RV2*%
X79194000Y-89544000D02*
X79194000Y-84824000D01*
X79204000Y-81014000D02*
X79204000Y-77954000D01*
X80384000Y-89544000D02*
X79204000Y-89544000D01*
X83284000Y-89544000D02*
X82754000Y-89544000D01*
X85734000Y-89544000D02*
X84904000Y-89544000D01*
X88944000Y-77954000D02*
X79204000Y-77954000D01*
X88944000Y-81014000D02*
X88944000Y-77954000D01*
X88944000Y-89544000D02*
X87454000Y-89544000D01*
X88944000Y-89544000D02*
X88944000Y-84824000D01*
%TO.C,RV6*%
X104594000Y-89544000D02*
X104594000Y-84824000D01*
X104604000Y-81014000D02*
X104604000Y-77954000D01*
X105784000Y-89544000D02*
X104604000Y-89544000D01*
X108684000Y-89544000D02*
X108154000Y-89544000D01*
X111134000Y-89544000D02*
X110304000Y-89544000D01*
X114344000Y-77954000D02*
X104604000Y-77954000D01*
X114344000Y-81014000D02*
X114344000Y-77954000D01*
X114344000Y-89544000D02*
X112854000Y-89544000D01*
X114344000Y-89544000D02*
X114344000Y-84824000D01*
%TO.C,D14*%
X76869000Y-125004000D02*
X77025000Y-125004000D01*
X79185000Y-125004000D02*
X79341000Y-125004000D01*
X76869484Y-125004000D02*
G75*
G02*
X77026392Y-121771665I1235516J1560000D01*
G01*
X77025000Y-124484961D02*
G75*
G02*
X77025163Y-122402870I1080000J1040961D01*
G01*
X79183608Y-121771665D02*
G75*
G02*
X79340516Y-125004000I-1078608J-1672335D01*
G01*
X79184837Y-122402870D02*
G75*
G02*
X79185000Y-124484961I-1079837J-1041130D01*
G01*
%TO.C,RV1*%
X79194000Y-64144000D02*
X79194000Y-59424000D01*
X79204000Y-55614000D02*
X79204000Y-52554000D01*
X80384000Y-64144000D02*
X79204000Y-64144000D01*
X83284000Y-64144000D02*
X82754000Y-64144000D01*
X85734000Y-64144000D02*
X84904000Y-64144000D01*
X88944000Y-52554000D02*
X79204000Y-52554000D01*
X88944000Y-55614000D02*
X88944000Y-52554000D01*
X88944000Y-64144000D02*
X87454000Y-64144000D01*
X88944000Y-64144000D02*
X88944000Y-59424000D01*
%TO.C,D13*%
X82838000Y-125004000D02*
X82994000Y-125004000D01*
X85154000Y-125004000D02*
X85310000Y-125004000D01*
X82838484Y-125004000D02*
G75*
G02*
X82995392Y-121771665I1235516J1560000D01*
G01*
X82994000Y-124484961D02*
G75*
G02*
X82994163Y-122402870I1080000J1040961D01*
G01*
X85152608Y-121771665D02*
G75*
G02*
X85309516Y-125004000I-1078608J-1672335D01*
G01*
X85153837Y-122402870D02*
G75*
G02*
X85154000Y-124484961I-1079837J-1041130D01*
G01*
%TO.C,J2*%
D11*
X102774000Y-150694000D02*
X91774000Y-150694000D01*
X91774000Y-159694000D01*
X102774000Y-159694000D01*
X102774000Y-150694000D01*
D12*
%TO.C,RV7*%
X104594000Y-114944000D02*
X104594000Y-110224000D01*
X104604000Y-106414000D02*
X104604000Y-103354000D01*
X105784000Y-114944000D02*
X104604000Y-114944000D01*
X108684000Y-114944000D02*
X108154000Y-114944000D01*
X111134000Y-114944000D02*
X110304000Y-114944000D01*
X114344000Y-103354000D02*
X104604000Y-103354000D01*
X114344000Y-106414000D02*
X114344000Y-103354000D01*
X114344000Y-114944000D02*
X112854000Y-114944000D01*
X114344000Y-114944000D02*
X114344000Y-110224000D01*
%TO.C,J3*%
D11*
X119571000Y-150694000D02*
X108571000Y-150694000D01*
X108571000Y-159694000D01*
X119571000Y-159694000D01*
X119571000Y-150694000D01*
D12*
%TO.C,RV3*%
X79194000Y-114944000D02*
X79194000Y-110224000D01*
X79204000Y-106414000D02*
X79204000Y-103354000D01*
X80384000Y-114944000D02*
X79204000Y-114944000D01*
X83284000Y-114944000D02*
X82754000Y-114944000D01*
X85734000Y-114944000D02*
X84904000Y-114944000D01*
X88944000Y-103354000D02*
X79204000Y-103354000D01*
X88944000Y-106414000D02*
X88944000Y-103354000D01*
X88944000Y-114944000D02*
X87454000Y-114944000D01*
X88944000Y-114944000D02*
X88944000Y-110224000D01*
%TO.C,RV4*%
X79204000Y-131814000D02*
X79204000Y-128754000D01*
X79204000Y-140344000D02*
X79204000Y-135624000D01*
X80384000Y-140344000D02*
X79204000Y-140344000D01*
X83284000Y-140344000D02*
X82754000Y-140344000D01*
X85734000Y-140344000D02*
X84904000Y-140344000D01*
X88944000Y-128754000D02*
X79204000Y-128754000D01*
X88944000Y-131814000D02*
X88944000Y-128754000D01*
X88944000Y-140344000D02*
X87454000Y-140344000D01*
X88944000Y-140344000D02*
X88944000Y-135624000D01*
%TO.C,J1*%
D11*
X74104000Y-159694000D02*
X85104000Y-159694000D01*
X85104000Y-150694000D01*
X74104000Y-150694000D01*
X74104000Y-159694000D01*
D12*
%TO.C,D5*%
X102269000Y-125004000D02*
X102425000Y-125004000D01*
X104585000Y-125004000D02*
X104741000Y-125004000D01*
X102269484Y-125004000D02*
G75*
G02*
X102426392Y-121771665I1235516J1560000D01*
G01*
X102425000Y-124484961D02*
G75*
G02*
X102425163Y-122402870I1080000J1040961D01*
G01*
X104583608Y-121771665D02*
G75*
G02*
X104740516Y-125004000I-1078608J-1672335D01*
G01*
X104584837Y-122402870D02*
G75*
G02*
X104585000Y-124484961I-1079837J-1041130D01*
G01*
%TO.C,D12*%
X88807000Y-125004000D02*
X88963000Y-125004000D01*
X91123000Y-125004000D02*
X91279000Y-125004000D01*
X88807484Y-125004000D02*
G75*
G02*
X88964392Y-121771665I1235516J1560000D01*
G01*
X88963000Y-124484961D02*
G75*
G02*
X88963163Y-122402870I1080000J1040961D01*
G01*
X91121608Y-121771665D02*
G75*
G02*
X91278516Y-125004000I-1078608J-1672335D01*
G01*
X91122837Y-122402870D02*
G75*
G02*
X91123000Y-124484961I-1079837J-1041130D01*
G01*
%TO.C,D7*%
X114207000Y-125004000D02*
X114363000Y-125004000D01*
X116523000Y-125004000D02*
X116679000Y-125004000D01*
X114207484Y-125004000D02*
G75*
G02*
X114364392Y-121771665I1235516J1560000D01*
G01*
X114363000Y-124484961D02*
G75*
G02*
X114363163Y-122402870I1080000J1040961D01*
G01*
X116521608Y-121771665D02*
G75*
G02*
X116678516Y-125004000I-1078608J-1672335D01*
G01*
X116522837Y-122402870D02*
G75*
G02*
X116523000Y-124484961I-1079837J-1041130D01*
G01*
%TO.C,D6*%
X108238000Y-125004000D02*
X108394000Y-125004000D01*
X110554000Y-125004000D02*
X110710000Y-125004000D01*
X108238484Y-125004000D02*
G75*
G02*
X108395392Y-121771665I1235516J1560000D01*
G01*
X108394000Y-124484961D02*
G75*
G02*
X108394163Y-122402870I1080000J1040961D01*
G01*
X110552608Y-121771665D02*
G75*
G02*
X110709516Y-125004000I-1078608J-1672335D01*
G01*
X110553837Y-122402870D02*
G75*
G02*
X110554000Y-124484961I-1079837J-1041130D01*
G01*
%TO.C,RV5*%
X104594000Y-64144000D02*
X104594000Y-59424000D01*
X104604000Y-55614000D02*
X104604000Y-52554000D01*
X105784000Y-64144000D02*
X104604000Y-64144000D01*
X108684000Y-64144000D02*
X108154000Y-64144000D01*
X111134000Y-64144000D02*
X110304000Y-64144000D01*
X114344000Y-52554000D02*
X104604000Y-52554000D01*
X114344000Y-55614000D02*
X114344000Y-52554000D01*
X114344000Y-64144000D02*
X112854000Y-64144000D01*
X114344000Y-64144000D02*
X114344000Y-59424000D01*
%TD*%
M02*
