M48
; DRILL file {KiCad 8.0.7} date 2025-01-10T16:03:00-0500
; FORMAT={-:-/ absolute / inch / decimal}
; #@! TF.CreationDate,2025-01-10T16:03:00-05:00
; #@! TF.GenerationSoftware,Kicad,Pcbnew,8.0.7
; #@! TF.FileFunction,Plated,1,4,PTH
FMAT,2
INCH
; #@! TA.AperFunction,Plated,PTH,ViaDrill
T1C0.0157
; #@! TA.AperFunction,Plated,PTH,ComponentDrill
T2C0.0315
; #@! TA.AperFunction,Plated,PTH,ComponentDrill
T3C0.0354
; #@! TA.AperFunction,Plated,PTH,ComponentDrill
T4C0.0394
; #@! TA.AperFunction,Plated,PTH,ComponentDrill
T5C0.0433
; #@! TA.AperFunction,Plated,PTH,ComponentDrill
T6C0.0472
%
G90
G05
T1
X2.94Y-2.51
X2.9492Y-3.6973
X2.95Y-3.92
X3.01Y-2.839
X3.01Y-3.63
X3.08Y-6.215
X3.084Y-2.617
X3.084Y-2.863
X3.115Y-4.45
X3.115Y-4.59
X3.148Y-3.017
X3.18Y-4.34
X3.195Y-3.805
X3.212Y-2.655
X3.212Y-3.003
X3.2131Y-2.8279
X3.246Y-2.869
X3.255Y-3.855
X3.256Y-2.799
X3.27Y-3.9556
X3.2885Y-5.4146
X3.31Y-2.127
X3.325Y-3.76
X3.325Y-3.9123
X3.335Y-2.965
X3.345Y-5.245
X3.36Y-3.475
X3.365Y-3.885
X3.44Y-2.429
X3.442Y-2.875
X3.445Y-2.92
X3.4612Y-3.0864
X3.4777Y-4.4173
X3.4852Y-3.76
X3.51Y-5.595
X3.535Y-3.95
X3.545Y-4.185
X3.55Y-4.025
X3.555Y-4.09
X3.555Y-4.535
X3.555Y-5.37
X3.5593Y-3.8532
X3.56Y-6.01
X3.5775Y-5.7975
X3.579Y-5.7363
X3.58Y-3.63
X3.59Y-4.48
X3.608Y-3.219
X3.615Y-5.87
X3.6284Y-4.1227
X3.63Y-3.915
X3.66Y-2.71
X3.66Y-3.15
X3.67Y-5.595
X3.675Y-3.72
X3.7047Y-3.3303
X3.72Y-4.185
X3.7395Y-5.8691
X3.7725Y-3.2813
X3.8Y-4.54
X3.8025Y-5.7025
X3.805Y-4.13
X3.8299Y-3.2833
X3.83Y-3.51
X3.83Y-5.83
X3.8581Y-3.315
X3.86Y-3.765
X3.885Y-3.985
X3.89Y-4.055
X3.91Y-5.62
X3.95Y-2.56
X3.95Y-3.11
X3.9722Y-4.2743
X3.99Y-4.54
X4.006Y-3.205
X4.085Y-3.91
X4.1029Y-3.7385
X4.135Y-3.91
X4.1823Y-3.3556
X4.21Y-2.67
X4.21Y-3.49
X4.23Y-3.65
X4.26Y-3.68
X4.31Y-2.121
X4.31Y-4.18
X4.3185Y-3.9335
X4.365Y-3.855
X4.37Y-4.405
X4.471Y-2.802
X4.585Y-3.9341
X4.615Y-4.08
X4.68Y-3.87
T2
X2.9216Y-5.88
X3.1184Y-5.88
X3.24Y-5.88
X3.4369Y-5.88
X3.6816Y-5.01
X3.6916Y-5.35
X3.8784Y-5.01
X3.8884Y-5.35
T3
X3.075Y-4.81
X3.075Y-4.91
X3.31Y-4.81
X3.31Y-4.91
X3.545Y-4.81
X3.545Y-4.91
X4.075Y-4.81
X4.075Y-4.91
X4.31Y-4.81
X4.31Y-4.91
X4.545Y-4.81
X4.545Y-4.91
T4
X3.2116Y-2.56
X3.2116Y-3.56
X3.2116Y-4.56
X3.2116Y-5.56
X3.2116Y-5.6584
X3.31Y-2.56
X3.31Y-3.56
X3.31Y-4.56
X3.31Y-5.56
X3.31Y-5.6584
X3.4084Y-2.56
X3.4084Y-3.56
X3.4084Y-4.56
X3.4084Y-5.56
X3.4084Y-5.6584
X4.2116Y-2.56
X4.2116Y-3.56
X4.2116Y-4.56
X4.3056Y-5.825
X4.31Y-2.56
X4.31Y-3.56
X4.31Y-4.56
X4.4056Y-5.825
X4.4084Y-2.56
X4.4084Y-3.56
X4.4084Y-4.56
X4.5056Y-5.825
T5
X3.75Y-2.275
X3.75Y-2.475
X3.75Y-2.575
X3.75Y-2.675
X3.75Y-2.775
X3.75Y-2.875
X3.75Y-2.975
X3.7501Y-2.375
X3.85Y-2.275
X3.85Y-2.375
X3.85Y-2.475
X3.85Y-2.575
X3.85Y-2.675
X3.85Y-2.775
X3.85Y-2.875
X3.85Y-2.975
T6
X2.96Y-6.11
X3.2868Y-6.11
X3.4088Y-6.11
X3.5549Y-6.11
X3.6769Y-6.11
X4.0037Y-6.11
X4.2162Y-6.11
X4.3382Y-6.11
X4.665Y-6.11
T5
G00X3.121Y-2.2785
M15
G01X3.121Y-2.2509
M16
G05
G00X3.121Y-3.2785
M15
G01X3.121Y-3.2509
M16
G05
G00X3.121Y-4.2785
M15
G01X3.121Y-4.2509
M16
G05
G00X3.123Y-5.2785
M15
G01X3.123Y-5.2509
M16
G05
G00X3.497Y-5.2785
M15
G01X3.497Y-5.2509
M16
G05
G00X3.499Y-2.2785
M15
G01X3.499Y-2.2509
M16
G05
G00X3.499Y-3.2785
M15
G01X3.499Y-3.2509
M16
G05
G00X3.499Y-4.2785
M15
G01X3.499Y-4.2509
M16
G05
G00X4.121Y-2.2785
M15
G01X4.121Y-2.2509
M16
G05
G00X4.121Y-3.2785
M15
G01X4.121Y-3.2509
M16
G05
G00X4.121Y-4.2785
M15
G01X4.121Y-4.2509
M16
G05
G00X4.499Y-2.2785
M15
G01X4.499Y-2.2509
M16
G05
G00X4.499Y-3.2785
M15
G01X4.499Y-3.2509
M16
G05
G00X4.499Y-4.2785
M15
G01X4.499Y-4.2509
M16
G05
M30
