M48
; DRILL file {KiCad 7.0.1} date Tue Jan  9 19:04:01 2024
; FORMAT={-:-/ absolute / inch / decimal}
; #@! TF.CreationDate,2024-01-09T19:04:01-05:00
; #@! TF.GenerationSoftware,Kicad,Pcbnew,7.0.1
; #@! TF.FileFunction,Plated,1,2,PTH
FMAT,2
INCH
; #@! TA.AperFunction,Plated,PTH,ComponentDrill
T1C0.1200
; #@! TA.AperFunction,Plated,PTH,ComponentDrill
T2C0.1260
; #@! TA.AperFunction,Plated,PTH,ComponentDrill
T3C0.1950
; #@! TA.AperFunction,Plated,PTH,ComponentDrill
T4C0.1980
; #@! TA.AperFunction,Plated,PTH,ComponentDrill
T5C0.2520
; #@! TA.AperFunction,Plated,PTH,ComponentDrill
T6C0.2840
%
G90
G05
T1
X2.797Y-3.986
X3.147Y-3.986
T3
X2.562Y-4.106
X3.382Y-4.106
T4
X2.972Y-4.256
T5
X1.873Y-4.935
X1.873Y-5.48
X2.423Y-4.935
X2.423Y-5.48
X2.973Y-4.935
X2.973Y-4.935
X2.973Y-5.48
X2.973Y-5.48
X3.523Y-4.935
X3.523Y-5.48
X4.073Y-4.935
X4.073Y-5.48
T6
X1.972Y-1.806
X1.972Y-2.906
X1.972Y-4.006
X2.972Y-2.356
X2.972Y-3.456
X3.972Y-1.806
X3.972Y-2.906
X3.972Y-4.006
T2
G00X1.885Y-1.298
M15
G01X2.059Y-1.298
M16
G05
G00X1.885Y-6.123
M15
G01X2.059Y-6.123
M16
G05
G00X3.885Y-1.298
M15
G01X4.059Y-1.298
M16
G05
G00X3.885Y-6.123
M15
G01X4.059Y-6.123
M16
G05
T0
M30
