%TF.GenerationSoftware,KiCad,Pcbnew,9.0.0*%
%TF.CreationDate,2025-03-16T21:47:04-04:00*%
%TF.ProjectId,200_Plattform,3230305f-506c-4617-9474-666f726d2e6b,A1*%
%TF.SameCoordinates,Original*%
%TF.FileFunction,Component,L1,Top*%
%TF.FilePolarity,Positive*%
%FSLAX46Y46*%
G04 Gerber Fmt 4.6, Leading zero omitted, Abs format (unit mm)*
G04 Created by KiCad (PCBNEW 9.0.0) date 2025-03-16 21:47:04*
%MOMM*%
%LPD*%
G01*
G04 APERTURE LIST*
%TA.AperFunction,ComponentMain*%
%ADD10C,0.300000*%
%TD*%
%TA.AperFunction,ComponentOutline,Courtyard*%
%ADD11C,0.100000*%
%TD*%
%TA.AperFunction,ComponentPin*%
%ADD12P,0.360000X4X0.000000*%
%TD*%
%TA.AperFunction,ComponentPin*%
%ADD13C,0.100000*%
%TD*%
%TA.AperFunction,Profile*%
%ADD14C,0.050000*%
%TD*%
G04 APERTURE END LIST*
D10*
%TO.C,C4*%
%TO.CFtp,C_0603_1608Metric*%
%TO.CVal,180pF*%
%TO.CLbN,0_synthesis_smt*%
%TO.CMnt,SMD*%
%TO.CRot,0*%
X108204000Y-78994000D03*
D11*
X109679000Y-78269000D02*
X109679000Y-79719000D01*
X106729000Y-79719000D01*
X106729000Y-78269000D01*
X109679000Y-78269000D01*
D12*
%TO.P,C4,1*%
X107429000Y-78994000D03*
D13*
%TO.P,C4,2*%
X108979000Y-78994000D03*
%TD*%
D10*
%TO.C,R11*%
%TO.CFtp,R_0603_1608Metric*%
%TO.CVal,20k*%
%TO.CLbN,0_synthesis_smt*%
%TO.CMnt,SMD*%
%TO.CRot,180*%
X108204000Y-82550000D03*
D11*
X109679000Y-81825000D02*
X109679000Y-83275000D01*
X106729000Y-83275000D01*
X106729000Y-81825000D01*
X109679000Y-81825000D01*
D12*
%TO.P,R11,1*%
X109029000Y-82550000D03*
D13*
%TO.P,R11,2*%
X107379000Y-82550000D03*
%TD*%
D10*
%TO.C,R14*%
%TO.CFtp,R_0603_1608Metric*%
%TO.CVal,10k*%
%TO.CLbN,0_synthesis_smt*%
%TO.CMnt,SMD*%
%TO.CRot,180*%
X108204000Y-86106000D03*
D11*
X109679000Y-85381000D02*
X109679000Y-86831000D01*
X106729000Y-86831000D01*
X106729000Y-85381000D01*
X109679000Y-85381000D01*
D12*
%TO.P,R14,1*%
X109029000Y-86106000D03*
D13*
%TO.P,R14,2*%
X107379000Y-86106000D03*
%TD*%
D10*
%TO.C,RV5*%
%TO.CFtp,ALPHAPOT*%
%TO.CVal,10k*%
%TO.CLbN,0_synthesis_tht*%
%TO.CMnt,TH*%
%TO.CRot,0*%
X72986000Y-81408000D03*
D11*
X83681000Y-76613000D02*
X83681000Y-80012912D01*
X83821314Y-80015414D01*
X84089326Y-80053948D01*
X84349077Y-80130218D01*
X84595334Y-80242679D01*
X84823076Y-80389040D01*
X85027674Y-80566325D01*
X85204959Y-80770923D01*
X85351320Y-80998665D01*
X85463781Y-81244922D01*
X85540051Y-81504673D01*
X85578579Y-81772639D01*
X85578579Y-82043360D01*
X85540051Y-82311326D01*
X85463781Y-82571077D01*
X85351320Y-82817334D01*
X85204959Y-83045076D01*
X85027674Y-83249674D01*
X84823076Y-83426959D01*
X84595334Y-83573320D01*
X84349077Y-83685781D01*
X84089326Y-83762051D01*
X83821314Y-83800585D01*
X83681000Y-83803088D01*
X83681000Y-90603000D01*
X73291000Y-90603000D01*
X73291000Y-83803088D01*
X73150685Y-83800585D01*
X72882673Y-83762051D01*
X72622922Y-83685781D01*
X72376665Y-83573320D01*
X72148923Y-83426959D01*
X71944325Y-83249674D01*
X71767040Y-83045076D01*
X71620679Y-82817334D01*
X71508218Y-82571077D01*
X71431948Y-82311326D01*
X71393421Y-82043360D01*
X71393421Y-81772639D01*
X71431948Y-81504673D01*
X71508218Y-81244922D01*
X71620679Y-80998665D01*
X71767040Y-80770923D01*
X71944325Y-80566325D01*
X72148923Y-80389040D01*
X72376665Y-80242679D01*
X72622922Y-80130218D01*
X72882673Y-80053948D01*
X73150685Y-80015414D01*
X73291000Y-80012912D01*
X73291000Y-76613000D01*
X83681000Y-76613000D01*
D12*
%TO.P,RV5,1,1*%
X75986000Y-89408000D03*
D13*
%TO.P,RV5,*%
X73586000Y-81908000D03*
X83386000Y-81908000D03*
%TO.P,RV5,2,2*%
X78486000Y-89408000D03*
%TO.P,RV5,3,3*%
X80986000Y-89408000D03*
%TD*%
D10*
%TO.C,R7*%
%TO.CFtp,R_0603_1608Metric*%
%TO.CVal,20k*%
%TO.CLbN,0_synthesis_smt*%
%TO.CMnt,SMD*%
%TO.CRot,0*%
X93726000Y-75946000D03*
D11*
X95201000Y-75221000D02*
X95201000Y-76671000D01*
X92251000Y-76671000D01*
X92251000Y-75221000D01*
X95201000Y-75221000D01*
D12*
%TO.P,R7,1*%
X92901000Y-75946000D03*
D13*
%TO.P,R7,2*%
X94551000Y-75946000D03*
%TD*%
D10*
%TO.C,J7*%
%TO.CFtp,JACK_THONKICONN_MONO_WQP518MA*%
%TO.CVal,THONKICONN_MONO*%
%TO.CLbN,0_synthesis_tht*%
%TO.CMnt,TH*%
%TO.CRot,-90*%
X84201000Y-139192000D03*
D11*
X82296000Y-134597000D02*
X82296000Y-137897000D01*
X85196000Y-137897000D01*
X85196000Y-140487000D01*
X82296000Y-140487000D01*
X82296000Y-143787000D01*
X71606000Y-143787000D01*
X71606000Y-134597000D01*
X82296000Y-134597000D01*
D13*
%TO.P,J7,*%
X77721000Y-139192000D03*
%TO.P,J7,S*%
X84201000Y-139192000D03*
%TO.P,J7,T*%
X72801000Y-139192000D03*
%TO.P,J7,TN*%
X81101000Y-139192000D03*
%TD*%
D10*
%TO.C,J13*%
%TO.CFtp,HEADER_2X10_BOTTOM_ENTRY_966210-2000-AR-PR*%
%TO.CVal,~*%
%TO.CLbN,0_synthesis_smt*%
%TO.CMnt,SMD*%
%TO.CRot,0*%
X62408000Y-54982000D03*
D11*
X66603000Y-48187000D02*
X66603000Y-61777000D01*
X58213000Y-61777000D01*
X58213000Y-48187000D01*
X66603000Y-48187000D01*
D12*
%TO.P,J13,1,X1*%
X59508000Y-49902000D03*
D13*
%TO.P,J13,*%
X61138000Y-49902000D03*
X61138000Y-52442000D03*
X61138000Y-54982000D03*
X61138000Y-57522000D03*
X61138000Y-60062000D03*
X63678000Y-49902000D03*
X63678000Y-52442000D03*
X63678000Y-54982000D03*
X63678000Y-57522000D03*
X63678000Y-60062000D03*
%TO.P,J13,2,X2*%
X59508000Y-52442000D03*
%TO.P,J13,3,X3*%
X59508000Y-54982000D03*
%TO.P,J13,4,X4*%
X59508000Y-57522000D03*
%TO.P,J13,5,X5*%
X59508000Y-60062000D03*
%TO.P,J13,6,X6*%
X65308000Y-60062000D03*
%TO.P,J13,7,X7*%
X65308000Y-57522000D03*
%TO.P,J13,8,X8*%
X65308000Y-54982000D03*
%TO.P,J13,9,X9*%
X65308000Y-52442000D03*
%TO.P,J13,10,X10*%
X65308000Y-49902000D03*
%TD*%
D10*
%TO.C,R12*%
%TO.CFtp,R_0603_1608Metric*%
%TO.CVal,10k*%
%TO.CLbN,0_synthesis_smt*%
%TO.CMnt,SMD*%
%TO.CRot,0*%
X108204000Y-84328000D03*
D11*
X109679000Y-83603000D02*
X109679000Y-85053000D01*
X106729000Y-85053000D01*
X106729000Y-83603000D01*
X109679000Y-83603000D01*
D12*
%TO.P,R12,1*%
X107379000Y-84328000D03*
D13*
%TO.P,R12,2*%
X109029000Y-84328000D03*
%TD*%
D10*
%TO.C,J3*%
%TO.CFtp,JACK_THONKICONN_MONO_WQP518MA*%
%TO.CVal,THONKICONN_MONO*%
%TO.CLbN,0_synthesis_tht*%
%TO.CMnt,TH*%
%TO.CRot,-90*%
X84201000Y-129032000D03*
D11*
X82296000Y-124437000D02*
X82296000Y-127737000D01*
X85196000Y-127737000D01*
X85196000Y-130327000D01*
X82296000Y-130327000D01*
X82296000Y-133627000D01*
X71606000Y-133627000D01*
X71606000Y-124437000D01*
X82296000Y-124437000D01*
D13*
%TO.P,J3,*%
X77721000Y-129032000D03*
%TO.P,J3,S*%
X84201000Y-129032000D03*
%TO.P,J3,T*%
X72801000Y-129032000D03*
%TO.P,J3,TN*%
X81101000Y-129032000D03*
%TD*%
D10*
%TO.C,J8*%
%TO.CFtp,JACK_THONKICONN_MONO_WQP518MA*%
%TO.CVal,THONKICONN_MONO*%
%TO.CLbN,0_synthesis_tht*%
%TO.CMnt,TH*%
%TO.CRot,-90*%
X97917000Y-139192000D03*
D11*
X96012000Y-134597000D02*
X96012000Y-137897000D01*
X98912000Y-137897000D01*
X98912000Y-140487000D01*
X96012000Y-140487000D01*
X96012000Y-143787000D01*
X85322000Y-143787000D01*
X85322000Y-134597000D01*
X96012000Y-134597000D01*
D13*
%TO.P,J8,*%
X91437000Y-139192000D03*
%TO.P,J8,S*%
X97917000Y-139192000D03*
%TO.P,J8,T*%
X86517000Y-139192000D03*
%TO.P,J8,TN*%
X94817000Y-139192000D03*
%TD*%
D10*
%TO.C,D5*%
%TO.CFtp,D_SOD-123*%
%TO.CVal,MBR0530*%
%TO.CLbN,0_synthesis_smt*%
%TO.CMnt,SMD*%
%TO.CRot,180*%
X89916000Y-118110000D03*
D11*
X92261000Y-116965000D02*
X92261000Y-119255000D01*
X87571000Y-119255000D01*
X87571000Y-116965000D01*
X92261000Y-116965000D01*
D12*
%TO.P,D5,1,K*%
X91566000Y-118110000D03*
D13*
%TO.P,D5,2,A*%
X88266000Y-118110000D03*
%TD*%
D10*
%TO.C,C9*%
%TO.CFtp,C_0603_1608Metric*%
%TO.CVal,100nF*%
%TO.CLbN,0_synthesis_smt*%
%TO.CMnt,SMD*%
%TO.CRot,180*%
X84836000Y-120650000D03*
D11*
X86311000Y-119925000D02*
X86311000Y-121375000D01*
X83361000Y-121375000D01*
X83361000Y-119925000D01*
X86311000Y-119925000D01*
D12*
%TO.P,C9,1*%
X85611000Y-120650000D03*
D13*
%TO.P,C9,2*%
X84061000Y-120650000D03*
%TD*%
D10*
%TO.C,R3*%
%TO.CFtp,R_1210_3225Metric*%
%TO.CVal,1k 0.5W*%
%TO.CLbN,0_synthesis_smt*%
%TO.CMnt,SMD*%
%TO.CRot,180*%
X90932000Y-97282000D03*
D11*
X93207000Y-95707000D02*
X93207000Y-98857000D01*
X88657000Y-98857000D01*
X88657000Y-95707000D01*
X93207000Y-95707000D01*
D12*
%TO.P,R3,1*%
X92394500Y-97282000D03*
D13*
%TO.P,R3,2*%
X89469500Y-97282000D03*
%TD*%
D10*
%TO.C,C6*%
%TO.CFtp,C_0603_1608Metric*%
%TO.CVal,100nF*%
%TO.CLbN,0_synthesis_smt*%
%TO.CMnt,SMD*%
%TO.CRot,180*%
X102616000Y-86868000D03*
D11*
X104091000Y-86143000D02*
X104091000Y-87593000D01*
X101141000Y-87593000D01*
X101141000Y-86143000D01*
X104091000Y-86143000D01*
D12*
%TO.P,C6,1*%
X103391000Y-86868000D03*
D13*
%TO.P,C6,2*%
X101841000Y-86868000D03*
%TD*%
D10*
%TO.C,RV8*%
%TO.CFtp,ALPHAPOT*%
%TO.CVal,10k*%
%TO.CLbN,0_synthesis_tht*%
%TO.CMnt,TH*%
%TO.CRot,0*%
X95846000Y-94108000D03*
D11*
X106541000Y-89313000D02*
X106541000Y-92712912D01*
X106681314Y-92715414D01*
X106949326Y-92753948D01*
X107209077Y-92830218D01*
X107455334Y-92942679D01*
X107683076Y-93089040D01*
X107887674Y-93266325D01*
X108064959Y-93470923D01*
X108211320Y-93698665D01*
X108323781Y-93944922D01*
X108400051Y-94204673D01*
X108438579Y-94472639D01*
X108438579Y-94743360D01*
X108400051Y-95011326D01*
X108323781Y-95271077D01*
X108211320Y-95517334D01*
X108064959Y-95745076D01*
X107887674Y-95949674D01*
X107683076Y-96126959D01*
X107455334Y-96273320D01*
X107209077Y-96385781D01*
X106949326Y-96462051D01*
X106681314Y-96500585D01*
X106541000Y-96503088D01*
X106541000Y-103303000D01*
X96151000Y-103303000D01*
X96151000Y-96503088D01*
X96010685Y-96500585D01*
X95742673Y-96462051D01*
X95482922Y-96385781D01*
X95236665Y-96273320D01*
X95008923Y-96126959D01*
X94804325Y-95949674D01*
X94627040Y-95745076D01*
X94480679Y-95517334D01*
X94368218Y-95271077D01*
X94291948Y-95011326D01*
X94253421Y-94743360D01*
X94253421Y-94472639D01*
X94291948Y-94204673D01*
X94368218Y-93944922D01*
X94480679Y-93698665D01*
X94627040Y-93470923D01*
X94804325Y-93266325D01*
X95008923Y-93089040D01*
X95236665Y-92942679D01*
X95482922Y-92830218D01*
X95742673Y-92753948D01*
X96010685Y-92715414D01*
X96151000Y-92712912D01*
X96151000Y-89313000D01*
X106541000Y-89313000D01*
D12*
%TO.P,RV8,1,1*%
X98846000Y-102108000D03*
D13*
%TO.P,RV8,*%
X96446000Y-94608000D03*
X106246000Y-94608000D03*
%TO.P,RV8,2,2*%
X101346000Y-102108000D03*
%TO.P,RV8,3,3*%
X103846000Y-102108000D03*
%TD*%
D10*
%TO.C,U3*%
%TO.CFtp,SOT-23*%
%TO.CVal,LM4040CIM3-5.0*%
%TO.CLbN,Package_TO_SOT_SMD*%
%TO.CMnt,SMD*%
%TO.CRot,0*%
X102870000Y-52324000D03*
D11*
X104785000Y-50629000D02*
X104785000Y-54019000D01*
X100955000Y-54019000D01*
X100955000Y-50629000D01*
X104785000Y-50629000D01*
D12*
%TO.P,U3,1,K*%
X101932500Y-51374000D03*
D13*
%TO.P,U3,2,A*%
X101932500Y-53274000D03*
%TO.P,U3,3,NC*%
X103807500Y-52324000D03*
%TD*%
D10*
%TO.C,SW1*%
%TO.CFtp,SW_TACTILE_TL1105SPF250Q*%
%TO.CVal,SW_TACTILE*%
%TO.CLbN,0_synthesis_tht*%
%TO.CMnt,TH*%
%TO.CRot,90*%
X76236000Y-113740000D03*
D11*
X82231000Y-105745000D02*
X82231000Y-115235000D01*
X74741000Y-115235000D01*
X74741000Y-105745000D01*
X82231000Y-105745000D01*
D12*
%TO.P,SW1,1,1*%
X76236000Y-113740000D03*
D13*
%TO.P,SW1,2,2*%
X76236000Y-107240000D03*
%TO.P,SW1,3,K*%
X80736000Y-113740000D03*
%TO.P,SW1,4,A*%
X80736000Y-107240000D03*
%TD*%
D10*
%TO.C,J15*%
%TO.CFtp,HEADER_2X10_BOTTOM_ENTRY_966210-2000-AR-PR*%
%TO.CVal,~*%
%TO.CLbN,0_synthesis_smt*%
%TO.CMnt,SMD*%
%TO.CRot,90*%
X89408000Y-109982000D03*
D11*
X96203000Y-105787000D02*
X96203000Y-114177000D01*
X82613000Y-114177000D01*
X82613000Y-105787000D01*
X96203000Y-105787000D01*
D12*
%TO.P,J15,1,X1*%
X84328000Y-112882000D03*
D13*
%TO.P,J15,*%
X84328000Y-111252000D03*
X86868000Y-111252000D03*
X89408000Y-111252000D03*
X91948000Y-111252000D03*
X94488000Y-111252000D03*
X84328000Y-108712000D03*
X86868000Y-108712000D03*
X89408000Y-108712000D03*
X91948000Y-108712000D03*
X94488000Y-108712000D03*
%TO.P,J15,2,X2*%
X86868000Y-112882000D03*
%TO.P,J15,3,X3*%
X89408000Y-112882000D03*
%TO.P,J15,4,X4*%
X91948000Y-112882000D03*
%TO.P,J15,5,X5*%
X94488000Y-112882000D03*
%TO.P,J15,6,X6*%
X94488000Y-107082000D03*
%TO.P,J15,7,X7*%
X91948000Y-107082000D03*
%TO.P,J15,8,X8*%
X89408000Y-107082000D03*
%TO.P,J15,9,X9*%
X86868000Y-107082000D03*
%TO.P,J15,10,X10*%
X84328000Y-107082000D03*
%TD*%
D10*
%TO.C,D3*%
%TO.CFtp,LED_0603_1608Metric*%
%TO.CVal,LED_BLUE*%
%TO.CLbN,0_synthesis_smt*%
%TO.CMnt,SMD*%
%TO.CRot,90*%
X82550000Y-92964000D03*
D11*
X83275000Y-91489000D02*
X83275000Y-94439000D01*
X81825000Y-94439000D01*
X81825000Y-91489000D01*
X83275000Y-91489000D01*
D12*
%TO.P,D3,1,K*%
X82550000Y-93751500D03*
D13*
%TO.P,D3,2,A*%
X82550000Y-92176500D03*
%TD*%
D10*
%TO.C,SW3*%
%TO.CFtp,SW_TOGGLE_2MS3T1B3M2QES*%
%TO.CVal,SW_SPDT_ON_OFF_ON_SUBMINI*%
%TO.CLbN,0_synthesis_tht*%
%TO.CMnt,SMD*%
%TO.CRot,-90*%
X83566000Y-100838000D03*
D11*
X86101000Y-96779000D02*
X86101000Y-104897000D01*
X81031000Y-104897000D01*
X81031000Y-96779000D01*
X86101000Y-96779000D01*
D12*
%TO.P,SW3,1,A*%
X83566000Y-98298000D03*
D13*
%TO.P,SW3,2,B*%
X83566000Y-100838000D03*
%TO.P,SW3,3,C*%
X83566000Y-103378000D03*
%TD*%
D10*
%TO.C,R8*%
%TO.CFtp,R_0603_1608Metric*%
%TO.CVal,10k*%
%TO.CLbN,0_synthesis_smt*%
%TO.CMnt,SMD*%
%TO.CRot,180*%
X93726000Y-83058000D03*
D11*
X95201000Y-82333000D02*
X95201000Y-83783000D01*
X92251000Y-83783000D01*
X92251000Y-82333000D01*
X95201000Y-82333000D01*
D12*
%TO.P,R8,1*%
X94551000Y-83058000D03*
D13*
%TO.P,R8,2*%
X92901000Y-83058000D03*
%TD*%
D10*
%TO.C,RV1*%
%TO.CFtp,ALPHAPOT*%
%TO.CVal,10k*%
%TO.CLbN,0_synthesis_tht*%
%TO.CMnt,TH*%
%TO.CRot,0*%
X50126000Y-39498000D03*
D11*
X60821000Y-34703000D02*
X60821000Y-38102912D01*
X60961314Y-38105414D01*
X61229326Y-38143948D01*
X61489077Y-38220218D01*
X61735334Y-38332679D01*
X61963076Y-38479040D01*
X62167674Y-38656325D01*
X62344959Y-38860923D01*
X62491320Y-39088665D01*
X62603781Y-39334922D01*
X62680051Y-39594673D01*
X62718579Y-39862639D01*
X62718579Y-40133360D01*
X62680051Y-40401326D01*
X62603781Y-40661077D01*
X62491320Y-40907334D01*
X62344959Y-41135076D01*
X62167674Y-41339674D01*
X61963076Y-41516959D01*
X61735334Y-41663320D01*
X61489077Y-41775781D01*
X61229326Y-41852051D01*
X60961314Y-41890585D01*
X60821000Y-41893088D01*
X60821000Y-48693000D01*
X50431000Y-48693000D01*
X50431000Y-41893088D01*
X50290685Y-41890585D01*
X50022673Y-41852051D01*
X49762922Y-41775781D01*
X49516665Y-41663320D01*
X49288923Y-41516959D01*
X49084325Y-41339674D01*
X48907040Y-41135076D01*
X48760679Y-40907334D01*
X48648218Y-40661077D01*
X48571948Y-40401326D01*
X48533421Y-40133360D01*
X48533421Y-39862639D01*
X48571948Y-39594673D01*
X48648218Y-39334922D01*
X48760679Y-39088665D01*
X48907040Y-38860923D01*
X49084325Y-38656325D01*
X49288923Y-38479040D01*
X49516665Y-38332679D01*
X49762922Y-38220218D01*
X50022673Y-38143948D01*
X50290685Y-38105414D01*
X50431000Y-38102912D01*
X50431000Y-34703000D01*
X60821000Y-34703000D01*
D12*
%TO.P,RV1,1,1*%
X53126000Y-47498000D03*
D13*
%TO.P,RV1,*%
X50726000Y-39998000D03*
X60526000Y-39998000D03*
%TO.P,RV1,2,2*%
X55626000Y-47498000D03*
%TO.P,RV1,3,3*%
X58126000Y-47498000D03*
%TD*%
D10*
%TO.C,J5*%
%TO.CFtp,JACK_THONKICONN_MONO_WQP518MA*%
%TO.CVal,THONKICONN_MONO*%
%TO.CLbN,0_synthesis_tht*%
%TO.CMnt,TH*%
%TO.CRot,-90*%
X56769000Y-139192000D03*
D11*
X54864000Y-134597000D02*
X54864000Y-137897000D01*
X57764000Y-137897000D01*
X57764000Y-140487000D01*
X54864000Y-140487000D01*
X54864000Y-143787000D01*
X44174000Y-143787000D01*
X44174000Y-134597000D01*
X54864000Y-134597000D01*
D13*
%TO.P,J5,*%
X50289000Y-139192000D03*
%TO.P,J5,S*%
X56769000Y-139192000D03*
%TO.P,J5,T*%
X45369000Y-139192000D03*
%TO.P,J5,TN*%
X53669000Y-139192000D03*
%TD*%
D10*
%TO.C,C2*%
%TO.CFtp,C_0603_1608Metric*%
%TO.CVal,180pF*%
%TO.CLbN,0_synthesis_smt*%
%TO.CMnt,SMD*%
%TO.CRot,180*%
X93726000Y-86614000D03*
D11*
X95201000Y-85889000D02*
X95201000Y-87339000D01*
X92251000Y-87339000D01*
X92251000Y-85889000D01*
X95201000Y-85889000D01*
D12*
%TO.P,C2,1*%
X94501000Y-86614000D03*
D13*
%TO.P,C2,2*%
X92951000Y-86614000D03*
%TD*%
D10*
%TO.C,D4*%
%TO.CFtp,D_SOD-123*%
%TO.CVal,MBR0530*%
%TO.CLbN,0_synthesis_smt*%
%TO.CMnt,SMD*%
%TO.CRot,0*%
X89916000Y-120650000D03*
D11*
X92261000Y-119505000D02*
X92261000Y-121795000D01*
X87571000Y-121795000D01*
X87571000Y-119505000D01*
X92261000Y-119505000D01*
D12*
%TO.P,D4,1,K*%
X88266000Y-120650000D03*
D13*
%TO.P,D4,2,A*%
X91566000Y-120650000D03*
%TD*%
D10*
%TO.C,R10*%
%TO.CFtp,R_0603_1608Metric*%
%TO.CVal,10k*%
%TO.CLbN,0_synthesis_smt*%
%TO.CMnt,SMD*%
%TO.CRot,180*%
X93726000Y-84836000D03*
D11*
X95201000Y-84111000D02*
X95201000Y-85561000D01*
X92251000Y-85561000D01*
X92251000Y-84111000D01*
X95201000Y-84111000D01*
D12*
%TO.P,R10,1*%
X94551000Y-84836000D03*
D13*
%TO.P,R10,2*%
X92901000Y-84836000D03*
%TD*%
D10*
%TO.C,C11*%
%TO.CFtp,C_0603_1608Metric*%
%TO.CVal,100nF*%
%TO.CLbN,0_synthesis_smt*%
%TO.CMnt,SMD*%
%TO.CRot,90*%
X96520000Y-52845000D03*
D11*
X97245000Y-51370000D02*
X97245000Y-54320000D01*
X95795000Y-54320000D01*
X95795000Y-51370000D01*
X97245000Y-51370000D01*
D12*
%TO.P,C11,1*%
X96520000Y-53620000D03*
D13*
%TO.P,C11,2*%
X96520000Y-52070000D03*
%TD*%
D10*
%TO.C,U1*%
%TO.CFtp,SO-4_4.4x3.6mm_P2.54mm*%
%TO.CVal,LTV-355T*%
%TO.CLbN,0_synthesis_smt*%
%TO.CMnt,SMD*%
%TO.CRot,90*%
X46990000Y-105410000D03*
D11*
X49035000Y-101015000D02*
X49035000Y-109805000D01*
X44945000Y-109805000D01*
X44945000Y-101015000D01*
X49035000Y-101015000D01*
D12*
%TO.P,U1,1*%
X45720000Y-108560000D03*
D13*
%TO.P,U1,2*%
X48260000Y-108560000D03*
%TO.P,U1,3*%
X48260000Y-102260000D03*
%TO.P,U1,4*%
X45720000Y-102260000D03*
%TD*%
D10*
%TO.C,J9*%
%TO.CFtp,JACK_THONKICONN_MONO_WQP518MA*%
%TO.CVal,THONKICONN_MONO*%
%TO.CLbN,0_synthesis_tht*%
%TO.CMnt,TH*%
%TO.CRot,-90*%
X70484972Y-118872000D03*
D11*
X68579972Y-114277000D02*
X68579972Y-117577000D01*
X71479972Y-117577000D01*
X71479972Y-120167000D01*
X68579972Y-120167000D01*
X68579972Y-123467000D01*
X57889972Y-123467000D01*
X57889972Y-114277000D01*
X68579972Y-114277000D01*
D13*
%TO.P,J9,*%
X64004972Y-118872000D03*
%TO.P,J9,S*%
X70484972Y-118872000D03*
%TO.P,J9,T*%
X59084972Y-118872000D03*
%TO.P,J9,TN*%
X67384972Y-118872000D03*
%TD*%
D10*
%TO.C,R5*%
%TO.CFtp,R_0603_1608Metric*%
%TO.CVal,20k*%
%TO.CLbN,0_synthesis_smt*%
%TO.CMnt,SMD*%
%TO.CRot,0*%
X93726000Y-79502000D03*
D11*
X95201000Y-78777000D02*
X95201000Y-80227000D01*
X92251000Y-80227000D01*
X92251000Y-78777000D01*
X95201000Y-78777000D01*
D12*
%TO.P,R5,1*%
X92901000Y-79502000D03*
D13*
%TO.P,R5,2*%
X94551000Y-79502000D03*
%TD*%
D10*
%TO.C,J10*%
%TO.CFtp,JACK_THONKICONN_STEREO_WQP419GR*%
%TO.CVal,THONKICONN STEREO*%
%TO.CLbN,0_synthesis_tht*%
%TO.CMnt,TH*%
%TO.CRot,-90*%
X56769000Y-118872000D03*
D11*
X54964000Y-113677000D02*
X54964000Y-117577000D01*
X57764000Y-117577000D01*
X57764000Y-120167000D01*
X54964000Y-120167000D01*
X54964000Y-124067000D01*
X44174000Y-124067000D01*
X44174000Y-113677000D01*
X54964000Y-113677000D01*
D13*
%TO.P,J10,*%
X50289000Y-118872000D03*
%TO.P,J10,R*%
X53669000Y-118872000D03*
%TO.P,J10,S*%
X56769000Y-118872000D03*
%TO.P,J10,T*%
X45369000Y-118872000D03*
%TD*%
D10*
%TO.C,R16*%
%TO.CFtp,R_0603_1608Metric*%
%TO.CVal,10k*%
%TO.CLbN,0_synthesis_smt*%
%TO.CMnt,SMD*%
%TO.CRot,0*%
X108204000Y-77216000D03*
D11*
X109679000Y-76491000D02*
X109679000Y-77941000D01*
X106729000Y-77941000D01*
X106729000Y-76491000D01*
X109679000Y-76491000D01*
D12*
%TO.P,R16,1*%
X107379000Y-77216000D03*
D13*
%TO.P,R16,2*%
X109029000Y-77216000D03*
%TD*%
D10*
%TO.C,J16*%
%TO.CFtp,HEADER_2X10_BOTTOM_ENTRY_966210-2000-AR-PR*%
%TO.CVal,~*%
%TO.CLbN,0_synthesis_smt*%
%TO.CMnt,SMD*%
%TO.CRot,0*%
X90408000Y-54982000D03*
D11*
X94603000Y-48187000D02*
X94603000Y-61777000D01*
X86213000Y-61777000D01*
X86213000Y-48187000D01*
X94603000Y-48187000D01*
D12*
%TO.P,J16,1,X1*%
X87508000Y-49902000D03*
D13*
%TO.P,J16,*%
X89138000Y-49902000D03*
X89138000Y-52442000D03*
X89138000Y-54982000D03*
X89138000Y-57522000D03*
X89138000Y-60062000D03*
X91678000Y-49902000D03*
X91678000Y-52442000D03*
X91678000Y-54982000D03*
X91678000Y-57522000D03*
X91678000Y-60062000D03*
%TO.P,J16,2,X2*%
X87508000Y-52442000D03*
%TO.P,J16,3,X3*%
X87508000Y-54982000D03*
%TO.P,J16,4,X4*%
X87508000Y-57522000D03*
%TO.P,J16,5,X5*%
X87508000Y-60062000D03*
%TO.P,J16,6,X6*%
X93308000Y-60062000D03*
%TO.P,J16,7,X7*%
X93308000Y-57522000D03*
%TO.P,J16,8,X8*%
X93308000Y-54982000D03*
%TO.P,J16,9,X9*%
X93308000Y-52442000D03*
%TO.P,J16,10,X10*%
X93308000Y-49902000D03*
%TD*%
D10*
%TO.C,C10*%
%TO.CFtp,C_0603_1608Metric*%
%TO.CVal,100nF*%
%TO.CLbN,0_synthesis_smt*%
%TO.CMnt,SMD*%
%TO.CRot,0*%
X84849000Y-118110000D03*
D11*
X86324000Y-117385000D02*
X86324000Y-118835000D01*
X83374000Y-118835000D01*
X83374000Y-117385000D01*
X86324000Y-117385000D01*
D12*
%TO.P,C10,1*%
X84074000Y-118110000D03*
D13*
%TO.P,C10,2*%
X85624000Y-118110000D03*
%TD*%
D10*
%TO.C,R13*%
%TO.CFtp,R_0603_1608Metric*%
%TO.CVal,20k*%
%TO.CLbN,0_synthesis_smt*%
%TO.CMnt,SMD*%
%TO.CRot,0*%
X108204000Y-89662000D03*
D11*
X109679000Y-88937000D02*
X109679000Y-90387000D01*
X106729000Y-90387000D01*
X106729000Y-88937000D01*
X109679000Y-88937000D01*
D12*
%TO.P,R13,1*%
X107379000Y-89662000D03*
D13*
%TO.P,R13,2*%
X109029000Y-89662000D03*
%TD*%
D10*
%TO.C,R15*%
%TO.CFtp,R_0603_1608Metric*%
%TO.CVal,10k*%
%TO.CLbN,0_synthesis_smt*%
%TO.CMnt,SMD*%
%TO.CRot,180*%
X108204000Y-80772000D03*
D11*
X109679000Y-80047000D02*
X109679000Y-81497000D01*
X106729000Y-81497000D01*
X106729000Y-80047000D01*
X109679000Y-80047000D01*
D12*
%TO.P,R15,1*%
X109029000Y-80772000D03*
D13*
%TO.P,R15,2*%
X107379000Y-80772000D03*
%TD*%
D10*
%TO.C,R17*%
%TO.CFtp,R_0603_1608Metric*%
%TO.CVal,220R*%
%TO.CLbN,0_synthesis_smt*%
%TO.CMnt,SMD*%
%TO.CRot,-90*%
X72644000Y-92964000D03*
D11*
X73369000Y-91489000D02*
X73369000Y-94439000D01*
X71919000Y-94439000D01*
X71919000Y-91489000D01*
X73369000Y-91489000D01*
D12*
%TO.P,R17,1*%
X72644000Y-92139000D03*
D13*
%TO.P,R17,2*%
X72644000Y-93789000D03*
%TD*%
D10*
%TO.C,R4*%
%TO.CFtp,R_1210_3225Metric*%
%TO.CVal,1k 0.5W*%
%TO.CLbN,0_synthesis_smt*%
%TO.CMnt,SMD*%
%TO.CRot,180*%
X90932000Y-92710000D03*
D11*
X93207000Y-91135000D02*
X93207000Y-94285000D01*
X88657000Y-94285000D01*
X88657000Y-91135000D01*
X93207000Y-91135000D01*
D12*
%TO.P,R4,1*%
X92394500Y-92710000D03*
D13*
%TO.P,R4,2*%
X89469500Y-92710000D03*
%TD*%
D10*
%TO.C,C7*%
%TO.CFtp,CAP_EEE-FK1V100UR*%
%TO.CVal,10uF*%
%TO.CLbN,0_synthesis_smt*%
%TO.CMnt,SMD*%
%TO.CRot,90*%
X108712000Y-53594000D03*
D11*
X109757000Y-50249000D02*
X109757000Y-51199000D01*
X111107000Y-51199000D01*
X111107000Y-54841928D01*
X109959928Y-55989000D01*
X109757000Y-55989000D01*
X109757000Y-56939000D01*
X107667000Y-56939000D01*
X107667000Y-55989000D01*
X107464072Y-55989000D01*
X106317000Y-54841928D01*
X106317000Y-51199000D01*
X107667000Y-51199000D01*
X107667000Y-50249000D01*
X109757000Y-50249000D01*
D12*
%TO.P,C7,1*%
X108712000Y-55394000D03*
D13*
%TO.P,C7,2*%
X108712000Y-51794000D03*
%TD*%
D10*
%TO.C,J1*%
%TO.CFtp,JACK_THONKICONN_MONO_WQP518MA*%
%TO.CVal,THONKICONN_MONO*%
%TO.CLbN,0_synthesis_tht*%
%TO.CMnt,TH*%
%TO.CRot,-90*%
X56769000Y-129032000D03*
D11*
X54864000Y-124437000D02*
X54864000Y-127737000D01*
X57764000Y-127737000D01*
X57764000Y-130327000D01*
X54864000Y-130327000D01*
X54864000Y-133627000D01*
X44174000Y-133627000D01*
X44174000Y-124437000D01*
X54864000Y-124437000D01*
D13*
%TO.P,J1,*%
X50289000Y-129032000D03*
%TO.P,J1,S*%
X56769000Y-129032000D03*
%TO.P,J1,T*%
X45369000Y-129032000D03*
%TO.P,J1,TN*%
X53669000Y-129032000D03*
%TD*%
D10*
%TO.C,RV6*%
%TO.CFtp,ALPHAPOT*%
%TO.CVal,10k*%
%TO.CLbN,0_synthesis_tht*%
%TO.CMnt,TH*%
%TO.CRot,0*%
X95846000Y-39498000D03*
D11*
X106541000Y-34703000D02*
X106541000Y-38102912D01*
X106681314Y-38105414D01*
X106949326Y-38143948D01*
X107209077Y-38220218D01*
X107455334Y-38332679D01*
X107683076Y-38479040D01*
X107887674Y-38656325D01*
X108064959Y-38860923D01*
X108211320Y-39088665D01*
X108323781Y-39334922D01*
X108400051Y-39594673D01*
X108438579Y-39862639D01*
X108438579Y-40133360D01*
X108400051Y-40401326D01*
X108323781Y-40661077D01*
X108211320Y-40907334D01*
X108064959Y-41135076D01*
X107887674Y-41339674D01*
X107683076Y-41516959D01*
X107455334Y-41663320D01*
X107209077Y-41775781D01*
X106949326Y-41852051D01*
X106681314Y-41890585D01*
X106541000Y-41893088D01*
X106541000Y-48693000D01*
X96151000Y-48693000D01*
X96151000Y-41893088D01*
X96010685Y-41890585D01*
X95742673Y-41852051D01*
X95482922Y-41775781D01*
X95236665Y-41663320D01*
X95008923Y-41516959D01*
X94804325Y-41339674D01*
X94627040Y-41135076D01*
X94480679Y-40907334D01*
X94368218Y-40661077D01*
X94291948Y-40401326D01*
X94253421Y-40133360D01*
X94253421Y-39862639D01*
X94291948Y-39594673D01*
X94368218Y-39334922D01*
X94480679Y-39088665D01*
X94627040Y-38860923D01*
X94804325Y-38656325D01*
X95008923Y-38479040D01*
X95236665Y-38332679D01*
X95482922Y-38220218D01*
X95742673Y-38143948D01*
X96010685Y-38105414D01*
X96151000Y-38102912D01*
X96151000Y-34703000D01*
X106541000Y-34703000D01*
D12*
%TO.P,RV6,1,1*%
X98846000Y-47498000D03*
D13*
%TO.P,RV6,*%
X96446000Y-39998000D03*
X106246000Y-39998000D03*
%TO.P,RV6,2,2*%
X101346000Y-47498000D03*
%TO.P,RV6,3,3*%
X103846000Y-47498000D03*
%TD*%
D10*
%TO.C,C8*%
%TO.CFtp,CAP_EEE-FK1V100UR*%
%TO.CVal,10uF*%
%TO.CLbN,0_synthesis_smt*%
%TO.CMnt,SMD*%
%TO.CRot,180*%
X103632000Y-57658000D03*
D11*
X104879928Y-55263000D02*
X106027000Y-56410072D01*
X106027000Y-56613000D01*
X106977000Y-56613000D01*
X106977000Y-58703000D01*
X106027000Y-58703000D01*
X106027000Y-58905928D01*
X104879928Y-60053000D01*
X101237000Y-60053000D01*
X101237000Y-58703000D01*
X100287000Y-58703000D01*
X100287000Y-56613000D01*
X101237000Y-56613000D01*
X101237000Y-55263000D01*
X104879928Y-55263000D01*
D12*
%TO.P,C8,1*%
X105432000Y-57658000D03*
D13*
%TO.P,C8,2*%
X101832000Y-57658000D03*
%TD*%
D10*
%TO.C,J6*%
%TO.CFtp,JACK_THONKICONN_MONO_WQP518MA*%
%TO.CVal,THONKICONN_MONO*%
%TO.CLbN,0_synthesis_tht*%
%TO.CMnt,TH*%
%TO.CRot,-90*%
X70485000Y-139192000D03*
D11*
X68580000Y-134597000D02*
X68580000Y-137897000D01*
X71480000Y-137897000D01*
X71480000Y-140487000D01*
X68580000Y-140487000D01*
X68580000Y-143787000D01*
X57890000Y-143787000D01*
X57890000Y-134597000D01*
X68580000Y-134597000D01*
D13*
%TO.P,J6,*%
X64005000Y-139192000D03*
%TO.P,J6,S*%
X70485000Y-139192000D03*
%TO.P,J6,T*%
X59085000Y-139192000D03*
%TO.P,J6,TN*%
X67385000Y-139192000D03*
%TD*%
D10*
%TO.C,U4*%
%TO.CFtp,TSSOP-16_4.4x5mm_P0.65mm*%
%TO.CVal,CD4052B*%
%TO.CLbN,0_synthesis_smt*%
%TO.CMnt,SMD*%
%TO.CRot,0*%
X77978000Y-69088000D03*
D11*
X81823000Y-66343000D02*
X81823000Y-71833000D01*
X74133000Y-71833000D01*
X74133000Y-66343000D01*
X81823000Y-66343000D01*
D12*
%TO.P,U4,1,Y0*%
X75115500Y-66813000D03*
D13*
%TO.P,U4,2,Y2*%
X75115500Y-67463000D03*
%TO.P,U4,3,Y*%
X75115500Y-68113000D03*
%TO.P,U4,4,Y3*%
X75115500Y-68763000D03*
%TO.P,U4,5,Y1*%
X75115500Y-69413000D03*
%TO.P,U4,6,INH*%
X75115500Y-70063000D03*
%TO.P,U4,7,VEE*%
X75115500Y-70713000D03*
%TO.P,U4,8,VSS*%
X75115500Y-71363000D03*
%TO.P,U4,9,B*%
X80840500Y-71363000D03*
%TO.P,U4,10,A*%
X80840500Y-70713000D03*
%TO.P,U4,11,X3*%
X80840500Y-70063000D03*
%TO.P,U4,12,X0*%
X80840500Y-69413000D03*
%TO.P,U4,13,X*%
X80840500Y-68763000D03*
%TO.P,U4,14,X1*%
X80840500Y-68113000D03*
%TO.P,U4,15,X2*%
X80840500Y-67463000D03*
%TO.P,U4,16,VDD*%
X80840500Y-66813000D03*
%TD*%
D10*
%TO.C,R6*%
%TO.CFtp,R_0603_1608Metric*%
%TO.CVal,10k*%
%TO.CLbN,0_synthesis_smt*%
%TO.CMnt,SMD*%
%TO.CRot,180*%
X93726000Y-81280000D03*
D11*
X95201000Y-80555000D02*
X95201000Y-82005000D01*
X92251000Y-82005000D01*
X92251000Y-80555000D01*
X95201000Y-80555000D01*
D12*
%TO.P,R6,1*%
X94551000Y-81280000D03*
D13*
%TO.P,R6,2*%
X92901000Y-81280000D03*
%TD*%
D10*
%TO.C,C1*%
%TO.CFtp,C_0603_1608Metric*%
%TO.CVal,180pF*%
%TO.CLbN,0_synthesis_smt*%
%TO.CMnt,SMD*%
%TO.CRot,0*%
X93726000Y-77724000D03*
D11*
X95201000Y-76999000D02*
X95201000Y-78449000D01*
X92251000Y-78449000D01*
X92251000Y-76999000D01*
X95201000Y-76999000D01*
D12*
%TO.P,C1,1*%
X92951000Y-77724000D03*
D13*
%TO.P,C1,2*%
X94501000Y-77724000D03*
%TD*%
D10*
%TO.C,C3*%
%TO.CFtp,C_0603_1608Metric*%
%TO.CVal,180pF*%
%TO.CLbN,0_synthesis_smt*%
%TO.CMnt,SMD*%
%TO.CRot,0*%
X108204000Y-87884000D03*
D11*
X109679000Y-87159000D02*
X109679000Y-88609000D01*
X106729000Y-88609000D01*
X106729000Y-87159000D01*
X109679000Y-87159000D01*
D12*
%TO.P,C3,1*%
X107429000Y-87884000D03*
D13*
%TO.P,C3,2*%
X108979000Y-87884000D03*
%TD*%
D10*
%TO.C,RV3*%
%TO.CFtp,ALPHAPOT*%
%TO.CVal,10k*%
%TO.CLbN,0_synthesis_tht*%
%TO.CMnt,TH*%
%TO.CRot,0*%
X50126000Y-94108000D03*
D11*
X60821000Y-89313000D02*
X60821000Y-92712912D01*
X60961314Y-92715414D01*
X61229326Y-92753948D01*
X61489077Y-92830218D01*
X61735334Y-92942679D01*
X61963076Y-93089040D01*
X62167674Y-93266325D01*
X62344959Y-93470923D01*
X62491320Y-93698665D01*
X62603781Y-93944922D01*
X62680051Y-94204673D01*
X62718579Y-94472639D01*
X62718579Y-94743360D01*
X62680051Y-95011326D01*
X62603781Y-95271077D01*
X62491320Y-95517334D01*
X62344959Y-95745076D01*
X62167674Y-95949674D01*
X61963076Y-96126959D01*
X61735334Y-96273320D01*
X61489077Y-96385781D01*
X61229326Y-96462051D01*
X60961314Y-96500585D01*
X60821000Y-96503088D01*
X60821000Y-103303000D01*
X50431000Y-103303000D01*
X50431000Y-96503088D01*
X50290685Y-96500585D01*
X50022673Y-96462051D01*
X49762922Y-96385781D01*
X49516665Y-96273320D01*
X49288923Y-96126959D01*
X49084325Y-95949674D01*
X48907040Y-95745076D01*
X48760679Y-95517334D01*
X48648218Y-95271077D01*
X48571948Y-95011326D01*
X48533421Y-94743360D01*
X48533421Y-94472639D01*
X48571948Y-94204673D01*
X48648218Y-93944922D01*
X48760679Y-93698665D01*
X48907040Y-93470923D01*
X49084325Y-93266325D01*
X49288923Y-93089040D01*
X49516665Y-92942679D01*
X49762922Y-92830218D01*
X50022673Y-92753948D01*
X50290685Y-92715414D01*
X50431000Y-92712912D01*
X50431000Y-89313000D01*
X60821000Y-89313000D01*
D12*
%TO.P,RV3,1,1*%
X53126000Y-102108000D03*
D13*
%TO.P,RV3,*%
X50726000Y-94608000D03*
X60526000Y-94608000D03*
%TO.P,RV3,2,2*%
X55626000Y-102108000D03*
%TO.P,RV3,3,3*%
X58126000Y-102108000D03*
%TD*%
D10*
%TO.C,J14*%
%TO.CFtp,HEADER_2X10_BOTTOM_ENTRY_966210-2000-AR-PR*%
%TO.CVal,~*%
%TO.CLbN,0_synthesis_smt*%
%TO.CMnt,SMD*%
%TO.CRot,90*%
X63408000Y-109982000D03*
D11*
X70203000Y-105787000D02*
X70203000Y-114177000D01*
X56613000Y-114177000D01*
X56613000Y-105787000D01*
X70203000Y-105787000D01*
D12*
%TO.P,J14,1,X1*%
X58328000Y-112882000D03*
D13*
%TO.P,J14,*%
X58328000Y-111252000D03*
X60868000Y-111252000D03*
X63408000Y-111252000D03*
X65948000Y-111252000D03*
X68488000Y-111252000D03*
X58328000Y-108712000D03*
X60868000Y-108712000D03*
X63408000Y-108712000D03*
X65948000Y-108712000D03*
X68488000Y-108712000D03*
%TO.P,J14,2,X2*%
X60868000Y-112882000D03*
%TO.P,J14,3,X3*%
X63408000Y-112882000D03*
%TO.P,J14,4,X4*%
X65948000Y-112882000D03*
%TO.P,J14,5,X5*%
X68488000Y-112882000D03*
%TO.P,J14,6,X6*%
X68488000Y-107082000D03*
%TO.P,J14,7,X7*%
X65948000Y-107082000D03*
%TO.P,J14,8,X8*%
X63408000Y-107082000D03*
%TO.P,J14,9,X9*%
X60868000Y-107082000D03*
%TO.P,J14,10,X10*%
X58328000Y-107082000D03*
%TD*%
D10*
%TO.C,J12*%
%TO.CFtp,JACK_THONKICONN_MONO_WQP518MA*%
%TO.CVal,THONKICONN_MONO*%
%TO.CLbN,0_synthesis_tht*%
%TO.CMnt,TH*%
%TO.CRot,-90*%
X111633000Y-139192000D03*
D11*
X109728000Y-134597000D02*
X109728000Y-137897000D01*
X112628000Y-137897000D01*
X112628000Y-140487000D01*
X109728000Y-140487000D01*
X109728000Y-143787000D01*
X99038000Y-143787000D01*
X99038000Y-134597000D01*
X109728000Y-134597000D01*
D13*
%TO.P,J12,*%
X105153000Y-139192000D03*
%TO.P,J12,S*%
X111633000Y-139192000D03*
%TO.P,J12,T*%
X100233000Y-139192000D03*
%TO.P,J12,TN*%
X108533000Y-139192000D03*
%TD*%
D10*
%TO.C,R18*%
%TO.CFtp,R_0603_1608Metric*%
%TO.CVal,220R*%
%TO.CLbN,0_synthesis_smt*%
%TO.CMnt,SMD*%
%TO.CRot,-90*%
X84328000Y-92964000D03*
D11*
X85053000Y-91489000D02*
X85053000Y-94439000D01*
X83603000Y-94439000D01*
X83603000Y-91489000D01*
X85053000Y-91489000D01*
D12*
%TO.P,R18,1*%
X84328000Y-92139000D03*
D13*
%TO.P,R18,2*%
X84328000Y-93789000D03*
%TD*%
D10*
%TO.C,SW2*%
%TO.CFtp,SW_TOGGLE_2MS3T1B3M2QES*%
%TO.CVal,SW_SPDT_ON_OFF_ON_SUBMINI*%
%TO.CLbN,0_synthesis_tht*%
%TO.CMnt,SMD*%
%TO.CRot,-90*%
X73406000Y-100838000D03*
D11*
X75941000Y-96779000D02*
X75941000Y-104897000D01*
X70871000Y-104897000D01*
X70871000Y-96779000D01*
X75941000Y-96779000D01*
D12*
%TO.P,SW2,1,A*%
X73406000Y-98298000D03*
D13*
%TO.P,SW2,2,B*%
X73406000Y-100838000D03*
%TO.P,SW2,3,C*%
X73406000Y-103378000D03*
%TD*%
D10*
%TO.C,R2*%
%TO.CFtp,R_0603_1608Metric*%
%TO.CVal,220R*%
%TO.CLbN,0_synthesis_smt*%
%TO.CMnt,SMD*%
%TO.CRot,90*%
X45720000Y-98806000D03*
D11*
X46445000Y-97331000D02*
X46445000Y-100281000D01*
X44995000Y-100281000D01*
X44995000Y-97331000D01*
X46445000Y-97331000D01*
D12*
%TO.P,R2,1*%
X45720000Y-99631000D03*
D13*
%TO.P,R2,2*%
X45720000Y-97981000D03*
%TD*%
D10*
%TO.C,RV4*%
%TO.CFtp,ALPHAPOT*%
%TO.CVal,10k*%
%TO.CLbN,0_synthesis_tht*%
%TO.CMnt,TH*%
%TO.CRot,0*%
X72986000Y-54103000D03*
D11*
X83681000Y-49308000D02*
X83681000Y-52707912D01*
X83821314Y-52710414D01*
X84089326Y-52748948D01*
X84349077Y-52825218D01*
X84595334Y-52937679D01*
X84823076Y-53084040D01*
X85027674Y-53261325D01*
X85204959Y-53465923D01*
X85351320Y-53693665D01*
X85463781Y-53939922D01*
X85540051Y-54199673D01*
X85578579Y-54467639D01*
X85578579Y-54738360D01*
X85540051Y-55006326D01*
X85463781Y-55266077D01*
X85351320Y-55512334D01*
X85204959Y-55740076D01*
X85027674Y-55944674D01*
X84823076Y-56121959D01*
X84595334Y-56268320D01*
X84349077Y-56380781D01*
X84089326Y-56457051D01*
X83821314Y-56495585D01*
X83681000Y-56498088D01*
X83681000Y-63298000D01*
X73291000Y-63298000D01*
X73291000Y-56498088D01*
X73150685Y-56495585D01*
X72882673Y-56457051D01*
X72622922Y-56380781D01*
X72376665Y-56268320D01*
X72148923Y-56121959D01*
X71944325Y-55944674D01*
X71767040Y-55740076D01*
X71620679Y-55512334D01*
X71508218Y-55266077D01*
X71431948Y-55006326D01*
X71393421Y-54738360D01*
X71393421Y-54467639D01*
X71431948Y-54199673D01*
X71508218Y-53939922D01*
X71620679Y-53693665D01*
X71767040Y-53465923D01*
X71944325Y-53261325D01*
X72148923Y-53084040D01*
X72376665Y-52937679D01*
X72622922Y-52825218D01*
X72882673Y-52748948D01*
X73150685Y-52710414D01*
X73291000Y-52707912D01*
X73291000Y-49308000D01*
X83681000Y-49308000D01*
D12*
%TO.P,RV4,1,1*%
X75986000Y-62103000D03*
D13*
%TO.P,RV4,*%
X73586000Y-54603000D03*
X83386000Y-54603000D03*
%TO.P,RV4,2,2*%
X78486000Y-62103000D03*
%TO.P,RV4,3,3*%
X80986000Y-62103000D03*
%TD*%
D10*
%TO.C,U2*%
%TO.CFtp,TSSOP-14_4.4x5mm_P0.65mm*%
%TO.CVal,TL074CPWR*%
%TO.CLbN,0_synthesis_smt*%
%TO.CMnt,SMD*%
%TO.CRot,0*%
X100838000Y-83058000D03*
D11*
X104683000Y-80313000D02*
X104683000Y-85803000D01*
X96993000Y-85803000D01*
X96993000Y-80313000D01*
X104683000Y-80313000D01*
D12*
%TO.P,U2,1*%
X97975500Y-81108000D03*
D13*
%TO.P,U2,2,-*%
X97975500Y-81758000D03*
%TO.P,U2,3,+*%
X97975500Y-82408000D03*
%TO.P,U2,4,V+*%
X97975500Y-83058000D03*
%TO.P,U2,5,+*%
X97975500Y-83708000D03*
%TO.P,U2,6,-*%
X97975500Y-84358000D03*
%TO.P,U2,7*%
X97975500Y-85008000D03*
%TO.P,U2,8*%
X103700500Y-85008000D03*
%TO.P,U2,9,-*%
X103700500Y-84358000D03*
%TO.P,U2,10,+*%
X103700500Y-83708000D03*
%TO.P,U2,11,V-*%
X103700500Y-83058000D03*
%TO.P,U2,12,+*%
X103700500Y-82408000D03*
%TO.P,U2,13,-*%
X103700500Y-81758000D03*
%TO.P,U2,14*%
X103700500Y-81108000D03*
%TD*%
D10*
%TO.C,J2*%
%TO.CFtp,JACK_THONKICONN_MONO_WQP518MA*%
%TO.CVal,THONKICONN_MONO*%
%TO.CLbN,0_synthesis_tht*%
%TO.CMnt,TH*%
%TO.CRot,-90*%
X70485000Y-129032000D03*
D11*
X68580000Y-124437000D02*
X68580000Y-127737000D01*
X71480000Y-127737000D01*
X71480000Y-130327000D01*
X68580000Y-130327000D01*
X68580000Y-133627000D01*
X57890000Y-133627000D01*
X57890000Y-124437000D01*
X68580000Y-124437000D01*
D13*
%TO.P,J2,*%
X64005000Y-129032000D03*
%TO.P,J2,S*%
X70485000Y-129032000D03*
%TO.P,J2,T*%
X59085000Y-129032000D03*
%TO.P,J2,TN*%
X67385000Y-129032000D03*
%TD*%
D10*
%TO.C,J11*%
%TO.CFtp,JACK_THONKICONN_MONO_WQP518MA*%
%TO.CVal,THONKICONN_MONO*%
%TO.CLbN,0_synthesis_tht*%
%TO.CMnt,TH*%
%TO.CRot,-90*%
X111633000Y-129032000D03*
D11*
X109728000Y-124437000D02*
X109728000Y-127737000D01*
X112628000Y-127737000D01*
X112628000Y-130327000D01*
X109728000Y-130327000D01*
X109728000Y-133627000D01*
X99038000Y-133627000D01*
X99038000Y-124437000D01*
X109728000Y-124437000D01*
D13*
%TO.P,J11,*%
X105153000Y-129032000D03*
%TO.P,J11,S*%
X111633000Y-129032000D03*
%TO.P,J11,T*%
X100233000Y-129032000D03*
%TO.P,J11,TN*%
X108533000Y-129032000D03*
%TD*%
D10*
%TO.C,C12*%
%TO.CFtp,C_0603_1608Metric*%
%TO.CVal,100nF*%
%TO.CLbN,0_synthesis_smt*%
%TO.CMnt,SMD*%
%TO.CRot,0*%
X85090000Y-66802000D03*
D11*
X86565000Y-66077000D02*
X86565000Y-67527000D01*
X83615000Y-67527000D01*
X83615000Y-66077000D01*
X86565000Y-66077000D01*
D12*
%TO.P,C12,1*%
X84315000Y-66802000D03*
D13*
%TO.P,C12,2*%
X85865000Y-66802000D03*
%TD*%
D10*
%TO.C,R9*%
%TO.CFtp,R_0603_1608Metric*%
%TO.CVal,10k*%
%TO.CLbN,0_synthesis_smt*%
%TO.CMnt,SMD*%
%TO.CRot,0*%
X93663000Y-88392000D03*
D11*
X95138000Y-87667000D02*
X95138000Y-89117000D01*
X92188000Y-89117000D01*
X92188000Y-87667000D01*
X95138000Y-87667000D01*
D12*
%TO.P,R9,1*%
X92838000Y-88392000D03*
D13*
%TO.P,R9,2*%
X94488000Y-88392000D03*
%TD*%
D10*
%TO.C,RV2*%
%TO.CFtp,ALPHAPOT*%
%TO.CVal,10k*%
%TO.CLbN,0_synthesis_tht*%
%TO.CMnt,TH*%
%TO.CRot,0*%
X50126000Y-66803000D03*
D11*
X60821000Y-62008000D02*
X60821000Y-65407912D01*
X60961314Y-65410414D01*
X61229326Y-65448948D01*
X61489077Y-65525218D01*
X61735334Y-65637679D01*
X61963076Y-65784040D01*
X62167674Y-65961325D01*
X62344959Y-66165923D01*
X62491320Y-66393665D01*
X62603781Y-66639922D01*
X62680051Y-66899673D01*
X62718579Y-67167639D01*
X62718579Y-67438360D01*
X62680051Y-67706326D01*
X62603781Y-67966077D01*
X62491320Y-68212334D01*
X62344959Y-68440076D01*
X62167674Y-68644674D01*
X61963076Y-68821959D01*
X61735334Y-68968320D01*
X61489077Y-69080781D01*
X61229326Y-69157051D01*
X60961314Y-69195585D01*
X60821000Y-69198088D01*
X60821000Y-75998000D01*
X50431000Y-75998000D01*
X50431000Y-69198088D01*
X50290685Y-69195585D01*
X50022673Y-69157051D01*
X49762922Y-69080781D01*
X49516665Y-68968320D01*
X49288923Y-68821959D01*
X49084325Y-68644674D01*
X48907040Y-68440076D01*
X48760679Y-68212334D01*
X48648218Y-67966077D01*
X48571948Y-67706326D01*
X48533421Y-67438360D01*
X48533421Y-67167639D01*
X48571948Y-66899673D01*
X48648218Y-66639922D01*
X48760679Y-66393665D01*
X48907040Y-66165923D01*
X49084325Y-65961325D01*
X49288923Y-65784040D01*
X49516665Y-65637679D01*
X49762922Y-65525218D01*
X50022673Y-65448948D01*
X50290685Y-65410414D01*
X50431000Y-65407912D01*
X50431000Y-62008000D01*
X60821000Y-62008000D01*
D12*
%TO.P,RV2,1,1*%
X53126000Y-74803000D03*
D13*
%TO.P,RV2,*%
X50726000Y-67303000D03*
X60526000Y-67303000D03*
%TO.P,RV2,2,2*%
X55626000Y-74803000D03*
%TO.P,RV2,3,3*%
X58126000Y-74803000D03*
%TD*%
D10*
%TO.C,C5*%
%TO.CFtp,C_0603_1608Metric*%
%TO.CVal,100nF*%
%TO.CLbN,0_synthesis_smt*%
%TO.CMnt,SMD*%
%TO.CRot,180*%
X99073000Y-86868000D03*
D11*
X100548000Y-86143000D02*
X100548000Y-87593000D01*
X97598000Y-87593000D01*
X97598000Y-86143000D01*
X100548000Y-86143000D01*
D12*
%TO.P,C5,1*%
X99848000Y-86868000D03*
D13*
%TO.P,C5,2*%
X98298000Y-86868000D03*
%TD*%
D10*
%TO.C,R19*%
%TO.CFtp,R_1206_3216Metric*%
%TO.CVal,6.8k 0.25W*%
%TO.CLbN,0_synthesis_smt*%
%TO.CMnt,SMD*%
%TO.CRot,-90*%
X98806000Y-55118000D03*
D11*
X99921000Y-52843000D02*
X99921000Y-57393000D01*
X97691000Y-57393000D01*
X97691000Y-52843000D01*
X99921000Y-52843000D01*
D12*
%TO.P,R19,1*%
X98806000Y-53655500D03*
D13*
%TO.P,R19,2*%
X98806000Y-56580500D03*
%TD*%
D10*
%TO.C,D1*%
%TO.CFtp,D_SOD-123*%
%TO.CVal,MBR0530*%
%TO.CLbN,0_synthesis_smt*%
%TO.CMnt,SMD*%
%TO.CRot,0*%
X46990000Y-111760000D03*
D11*
X49335000Y-110615000D02*
X49335000Y-112905000D01*
X44645000Y-112905000D01*
X44645000Y-110615000D01*
X49335000Y-110615000D01*
D12*
%TO.P,D1,1,K*%
X45340000Y-111760000D03*
D13*
%TO.P,D1,2,A*%
X48640000Y-111760000D03*
%TD*%
D10*
%TO.C,D2*%
%TO.CFtp,LED_0603_1608Metric*%
%TO.CVal,LED_BLUE*%
%TO.CLbN,0_synthesis_smt*%
%TO.CMnt,SMD*%
%TO.CRot,90*%
X74422000Y-92964000D03*
D11*
X75147000Y-91489000D02*
X75147000Y-94439000D01*
X73697000Y-94439000D01*
X73697000Y-91489000D01*
X75147000Y-91489000D01*
D12*
%TO.P,D2,1,K*%
X74422000Y-93751500D03*
D13*
%TO.P,D2,2,A*%
X74422000Y-92176500D03*
%TD*%
D10*
%TO.C,R1*%
%TO.CFtp,R_0603_1608Metric*%
%TO.CVal,220R*%
%TO.CLbN,0_synthesis_smt*%
%TO.CMnt,SMD*%
%TO.CRot,90*%
X53594000Y-111760000D03*
D11*
X54319000Y-110285000D02*
X54319000Y-113235000D01*
X52869000Y-113235000D01*
X52869000Y-110285000D01*
X54319000Y-110285000D01*
D12*
%TO.P,R1,1*%
X53594000Y-112585000D03*
D13*
%TO.P,R1,2*%
X53594000Y-110935000D03*
%TD*%
D10*
%TO.C,J17*%
%TO.CFtp,EURO_POWER_10_RTANG*%
%TO.CVal,EURO_POWER_10_RTANG*%
%TO.CLbN,0_synthesis_tht*%
%TO.CMnt,TH*%
%TO.CRot,0*%
X93908000Y-104792000D03*
D11*
X110503000Y-103497000D02*
X110503000Y-124087000D01*
X101413000Y-124087000D01*
X101413000Y-119787000D01*
X96313000Y-119787000D01*
X96313000Y-107797000D01*
X101413000Y-107797000D01*
X101413000Y-103497000D01*
X110503000Y-103497000D01*
D12*
%TO.P,J17,1,-12V*%
X97188000Y-108732000D03*
D13*
%TO.P,J17,2,-12V*%
X99728000Y-108732000D03*
%TO.P,J17,3,gnd*%
X97188000Y-111272000D03*
%TO.P,J17,4,gnd*%
X99728000Y-111272000D03*
%TO.P,J17,5,gnd*%
X97188000Y-113812000D03*
%TO.P,J17,6,gnd*%
X99728000Y-113812000D03*
%TO.P,J17,7,gnd*%
X97188000Y-116352000D03*
%TO.P,J17,8,gnd*%
X99728000Y-116352000D03*
%TO.P,J17,9,+12V*%
X97188000Y-118892000D03*
%TO.P,J17,10,+12V*%
X99728000Y-118892000D03*
%TD*%
D10*
%TO.C,RV7*%
%TO.CFtp,ALPHAPOT*%
%TO.CVal,10k*%
%TO.CLbN,0_synthesis_tht*%
%TO.CMnt,TH*%
%TO.CRot,0*%
X95846000Y-66803000D03*
D11*
X106541000Y-62008000D02*
X106541000Y-65407912D01*
X106681314Y-65410414D01*
X106949326Y-65448948D01*
X107209077Y-65525218D01*
X107455334Y-65637679D01*
X107683076Y-65784040D01*
X107887674Y-65961325D01*
X108064959Y-66165923D01*
X108211320Y-66393665D01*
X108323781Y-66639922D01*
X108400051Y-66899673D01*
X108438579Y-67167639D01*
X108438579Y-67438360D01*
X108400051Y-67706326D01*
X108323781Y-67966077D01*
X108211320Y-68212334D01*
X108064959Y-68440076D01*
X107887674Y-68644674D01*
X107683076Y-68821959D01*
X107455334Y-68968320D01*
X107209077Y-69080781D01*
X106949326Y-69157051D01*
X106681314Y-69195585D01*
X106541000Y-69198088D01*
X106541000Y-75998000D01*
X96151000Y-75998000D01*
X96151000Y-69198088D01*
X96010685Y-69195585D01*
X95742673Y-69157051D01*
X95482922Y-69080781D01*
X95236665Y-68968320D01*
X95008923Y-68821959D01*
X94804325Y-68644674D01*
X94627040Y-68440076D01*
X94480679Y-68212334D01*
X94368218Y-67966077D01*
X94291948Y-67706326D01*
X94253421Y-67438360D01*
X94253421Y-67167639D01*
X94291948Y-66899673D01*
X94368218Y-66639922D01*
X94480679Y-66393665D01*
X94627040Y-66165923D01*
X94804325Y-65961325D01*
X95008923Y-65784040D01*
X95236665Y-65637679D01*
X95482922Y-65525218D01*
X95742673Y-65448948D01*
X96010685Y-65410414D01*
X96151000Y-65407912D01*
X96151000Y-62008000D01*
X106541000Y-62008000D01*
D12*
%TO.P,RV7,1,1*%
X98846000Y-74803000D03*
D13*
%TO.P,RV7,*%
X96446000Y-67303000D03*
X106246000Y-67303000D03*
%TO.P,RV7,2,2*%
X101346000Y-74803000D03*
%TO.P,RV7,3,3*%
X103846000Y-74803000D03*
%TD*%
D10*
%TO.C,J4*%
%TO.CFtp,JACK_THONKICONN_MONO_WQP518MA*%
%TO.CVal,THONKICONN_MONO*%
%TO.CLbN,0_synthesis_tht*%
%TO.CMnt,TH*%
%TO.CRot,-90*%
X97917000Y-129032000D03*
D11*
X96012000Y-124437000D02*
X96012000Y-127737000D01*
X98912000Y-127737000D01*
X98912000Y-130327000D01*
X96012000Y-130327000D01*
X96012000Y-133627000D01*
X85322000Y-133627000D01*
X85322000Y-124437000D01*
X96012000Y-124437000D01*
D13*
%TO.P,J4,*%
X91437000Y-129032000D03*
%TO.P,J4,S*%
X97917000Y-129032000D03*
%TO.P,J4,T*%
X86517000Y-129032000D03*
%TO.P,J4,TN*%
X94817000Y-129032000D03*
%TD*%
D14*
X112522000Y-144018000D02*
X44450000Y-144018000D01*
X112522000Y-124460000D02*
G75*
G02*
X113030000Y-124968000I0J-508000D01*
G01*
X43942000Y-143510000D02*
X43942000Y-35052000D01*
X44450000Y-34544000D02*
X112522000Y-34544000D01*
X112522000Y-34544000D02*
G75*
G02*
X113030000Y-35052000I0J-508000D01*
G01*
X44450000Y-144018000D02*
G75*
G02*
X43942000Y-143510000I0J508000D01*
G01*
X113030000Y-35052000D02*
X113030000Y-102362000D01*
X113030000Y-102362000D02*
G75*
G02*
X112522000Y-102870000I-508000J0D01*
G01*
X43942000Y-35052000D02*
G75*
G02*
X44450000Y-34544000I508000J0D01*
G01*
X111252000Y-124460000D02*
X112522000Y-124460000D01*
X112522000Y-102870000D02*
X111252000Y-102870000D01*
X110744000Y-103378000D02*
G75*
G02*
X111252000Y-102870000I508000J0D01*
G01*
X113030000Y-143510000D02*
G75*
G02*
X112522000Y-144018000I-508000J0D01*
G01*
X111252000Y-124460000D02*
G75*
G02*
X110744000Y-123952000I0J508000D01*
G01*
X110744000Y-103378000D02*
X110744000Y-123952000D01*
X113030000Y-124968000D02*
X113030000Y-143510000D01*
M02*
