%TF.GenerationSoftware,KiCad,Pcbnew,7.0.1*%
%TF.CreationDate,2024-08-17T12:32:22-04:00*%
%TF.ProjectId,common_faceplate,636f6d6d-6f6e-45f6-9661-6365706c6174,rev?*%
%TF.SameCoordinates,Original*%
%TF.FileFunction,Legend,Top*%
%TF.FilePolarity,Positive*%
%FSLAX46Y46*%
G04 Gerber Fmt 4.6, Leading zero omitted, Abs format (unit mm)*
G04 Created by KiCad (PCBNEW 7.0.1) date 2024-08-17 12:32:22*
%MOMM*%
%LPD*%
G01*
G04 APERTURE LIST*
%ADD10C,0.100000*%
G04 APERTURE END LIST*
D10*
%TO.C,REF\u002A\u002A*%
X74180866Y-139154619D02*
X73847533Y-138678428D01*
X73609438Y-139154619D02*
X73609438Y-138154619D01*
X73609438Y-138154619D02*
X73990390Y-138154619D01*
X73990390Y-138154619D02*
X74085628Y-138202238D01*
X74085628Y-138202238D02*
X74133247Y-138249857D01*
X74133247Y-138249857D02*
X74180866Y-138345095D01*
X74180866Y-138345095D02*
X74180866Y-138487952D01*
X74180866Y-138487952D02*
X74133247Y-138583190D01*
X74133247Y-138583190D02*
X74085628Y-138630809D01*
X74085628Y-138630809D02*
X73990390Y-138678428D01*
X73990390Y-138678428D02*
X73609438Y-138678428D01*
X74609438Y-138630809D02*
X74942771Y-138630809D01*
X75085628Y-139154619D02*
X74609438Y-139154619D01*
X74609438Y-139154619D02*
X74609438Y-138154619D01*
X74609438Y-138154619D02*
X75085628Y-138154619D01*
X75847533Y-138630809D02*
X75514200Y-138630809D01*
X75514200Y-139154619D02*
X75514200Y-138154619D01*
X75514200Y-138154619D02*
X75990390Y-138154619D01*
X76514200Y-138154619D02*
X76514200Y-138392714D01*
X76276105Y-138297476D02*
X76514200Y-138392714D01*
X76514200Y-138392714D02*
X76752295Y-138297476D01*
X76371343Y-138583190D02*
X76514200Y-138392714D01*
X76514200Y-138392714D02*
X76657057Y-138583190D01*
X77276105Y-138154619D02*
X77276105Y-138392714D01*
X77038010Y-138297476D02*
X77276105Y-138392714D01*
X77276105Y-138392714D02*
X77514200Y-138297476D01*
X77133248Y-138583190D02*
X77276105Y-138392714D01*
X77276105Y-138392714D02*
X77418962Y-138583190D01*
X102120866Y-139154619D02*
X101787533Y-138678428D01*
X101549438Y-139154619D02*
X101549438Y-138154619D01*
X101549438Y-138154619D02*
X101930390Y-138154619D01*
X101930390Y-138154619D02*
X102025628Y-138202238D01*
X102025628Y-138202238D02*
X102073247Y-138249857D01*
X102073247Y-138249857D02*
X102120866Y-138345095D01*
X102120866Y-138345095D02*
X102120866Y-138487952D01*
X102120866Y-138487952D02*
X102073247Y-138583190D01*
X102073247Y-138583190D02*
X102025628Y-138630809D01*
X102025628Y-138630809D02*
X101930390Y-138678428D01*
X101930390Y-138678428D02*
X101549438Y-138678428D01*
X102549438Y-138630809D02*
X102882771Y-138630809D01*
X103025628Y-139154619D02*
X102549438Y-139154619D01*
X102549438Y-139154619D02*
X102549438Y-138154619D01*
X102549438Y-138154619D02*
X103025628Y-138154619D01*
X103787533Y-138630809D02*
X103454200Y-138630809D01*
X103454200Y-139154619D02*
X103454200Y-138154619D01*
X103454200Y-138154619D02*
X103930390Y-138154619D01*
X104454200Y-138154619D02*
X104454200Y-138392714D01*
X104216105Y-138297476D02*
X104454200Y-138392714D01*
X104454200Y-138392714D02*
X104692295Y-138297476D01*
X104311343Y-138583190D02*
X104454200Y-138392714D01*
X104454200Y-138392714D02*
X104597057Y-138583190D01*
X105216105Y-138154619D02*
X105216105Y-138392714D01*
X104978010Y-138297476D02*
X105216105Y-138392714D01*
X105216105Y-138392714D02*
X105454200Y-138297476D01*
X105073248Y-138583190D02*
X105216105Y-138392714D01*
X105216105Y-138392714D02*
X105358962Y-138583190D01*
X48755466Y-101715019D02*
X48422133Y-101238828D01*
X48184038Y-101715019D02*
X48184038Y-100715019D01*
X48184038Y-100715019D02*
X48564990Y-100715019D01*
X48564990Y-100715019D02*
X48660228Y-100762638D01*
X48660228Y-100762638D02*
X48707847Y-100810257D01*
X48707847Y-100810257D02*
X48755466Y-100905495D01*
X48755466Y-100905495D02*
X48755466Y-101048352D01*
X48755466Y-101048352D02*
X48707847Y-101143590D01*
X48707847Y-101143590D02*
X48660228Y-101191209D01*
X48660228Y-101191209D02*
X48564990Y-101238828D01*
X48564990Y-101238828D02*
X48184038Y-101238828D01*
X49184038Y-101191209D02*
X49517371Y-101191209D01*
X49660228Y-101715019D02*
X49184038Y-101715019D01*
X49184038Y-101715019D02*
X49184038Y-100715019D01*
X49184038Y-100715019D02*
X49660228Y-100715019D01*
X50422133Y-101191209D02*
X50088800Y-101191209D01*
X50088800Y-101715019D02*
X50088800Y-100715019D01*
X50088800Y-100715019D02*
X50564990Y-100715019D01*
X51088800Y-100715019D02*
X51088800Y-100953114D01*
X50850705Y-100857876D02*
X51088800Y-100953114D01*
X51088800Y-100953114D02*
X51326895Y-100857876D01*
X50945943Y-101143590D02*
X51088800Y-100953114D01*
X51088800Y-100953114D02*
X51231657Y-101143590D01*
X51850705Y-100715019D02*
X51850705Y-100953114D01*
X51612610Y-100857876D02*
X51850705Y-100953114D01*
X51850705Y-100953114D02*
X52088800Y-100857876D01*
X51707848Y-101143590D02*
X51850705Y-100953114D01*
X51850705Y-100953114D02*
X51993562Y-101143590D01*
X99555466Y-101715019D02*
X99222133Y-101238828D01*
X98984038Y-101715019D02*
X98984038Y-100715019D01*
X98984038Y-100715019D02*
X99364990Y-100715019D01*
X99364990Y-100715019D02*
X99460228Y-100762638D01*
X99460228Y-100762638D02*
X99507847Y-100810257D01*
X99507847Y-100810257D02*
X99555466Y-100905495D01*
X99555466Y-100905495D02*
X99555466Y-101048352D01*
X99555466Y-101048352D02*
X99507847Y-101143590D01*
X99507847Y-101143590D02*
X99460228Y-101191209D01*
X99460228Y-101191209D02*
X99364990Y-101238828D01*
X99364990Y-101238828D02*
X98984038Y-101238828D01*
X99984038Y-101191209D02*
X100317371Y-101191209D01*
X100460228Y-101715019D02*
X99984038Y-101715019D01*
X99984038Y-101715019D02*
X99984038Y-100715019D01*
X99984038Y-100715019D02*
X100460228Y-100715019D01*
X101222133Y-101191209D02*
X100888800Y-101191209D01*
X100888800Y-101715019D02*
X100888800Y-100715019D01*
X100888800Y-100715019D02*
X101364990Y-100715019D01*
X101888800Y-100715019D02*
X101888800Y-100953114D01*
X101650705Y-100857876D02*
X101888800Y-100953114D01*
X101888800Y-100953114D02*
X102126895Y-100857876D01*
X101745943Y-101143590D02*
X101888800Y-100953114D01*
X101888800Y-100953114D02*
X102031657Y-101143590D01*
X102650705Y-100715019D02*
X102650705Y-100953114D01*
X102412610Y-100857876D02*
X102650705Y-100953114D01*
X102650705Y-100953114D02*
X102888800Y-100857876D01*
X102507848Y-101143590D02*
X102650705Y-100953114D01*
X102650705Y-100953114D02*
X102793562Y-101143590D01*
X88150866Y-139154619D02*
X87817533Y-138678428D01*
X87579438Y-139154619D02*
X87579438Y-138154619D01*
X87579438Y-138154619D02*
X87960390Y-138154619D01*
X87960390Y-138154619D02*
X88055628Y-138202238D01*
X88055628Y-138202238D02*
X88103247Y-138249857D01*
X88103247Y-138249857D02*
X88150866Y-138345095D01*
X88150866Y-138345095D02*
X88150866Y-138487952D01*
X88150866Y-138487952D02*
X88103247Y-138583190D01*
X88103247Y-138583190D02*
X88055628Y-138630809D01*
X88055628Y-138630809D02*
X87960390Y-138678428D01*
X87960390Y-138678428D02*
X87579438Y-138678428D01*
X88579438Y-138630809D02*
X88912771Y-138630809D01*
X89055628Y-139154619D02*
X88579438Y-139154619D01*
X88579438Y-139154619D02*
X88579438Y-138154619D01*
X88579438Y-138154619D02*
X89055628Y-138154619D01*
X89817533Y-138630809D02*
X89484200Y-138630809D01*
X89484200Y-139154619D02*
X89484200Y-138154619D01*
X89484200Y-138154619D02*
X89960390Y-138154619D01*
X90484200Y-138154619D02*
X90484200Y-138392714D01*
X90246105Y-138297476D02*
X90484200Y-138392714D01*
X90484200Y-138392714D02*
X90722295Y-138297476D01*
X90341343Y-138583190D02*
X90484200Y-138392714D01*
X90484200Y-138392714D02*
X90627057Y-138583190D01*
X91246105Y-138154619D02*
X91246105Y-138392714D01*
X91008010Y-138297476D02*
X91246105Y-138392714D01*
X91246105Y-138392714D02*
X91484200Y-138297476D01*
X91103248Y-138583190D02*
X91246105Y-138392714D01*
X91246105Y-138392714D02*
X91388962Y-138583190D01*
X74180866Y-125311619D02*
X73847533Y-124835428D01*
X73609438Y-125311619D02*
X73609438Y-124311619D01*
X73609438Y-124311619D02*
X73990390Y-124311619D01*
X73990390Y-124311619D02*
X74085628Y-124359238D01*
X74085628Y-124359238D02*
X74133247Y-124406857D01*
X74133247Y-124406857D02*
X74180866Y-124502095D01*
X74180866Y-124502095D02*
X74180866Y-124644952D01*
X74180866Y-124644952D02*
X74133247Y-124740190D01*
X74133247Y-124740190D02*
X74085628Y-124787809D01*
X74085628Y-124787809D02*
X73990390Y-124835428D01*
X73990390Y-124835428D02*
X73609438Y-124835428D01*
X74609438Y-124787809D02*
X74942771Y-124787809D01*
X75085628Y-125311619D02*
X74609438Y-125311619D01*
X74609438Y-125311619D02*
X74609438Y-124311619D01*
X74609438Y-124311619D02*
X75085628Y-124311619D01*
X75847533Y-124787809D02*
X75514200Y-124787809D01*
X75514200Y-125311619D02*
X75514200Y-124311619D01*
X75514200Y-124311619D02*
X75990390Y-124311619D01*
X76514200Y-124311619D02*
X76514200Y-124549714D01*
X76276105Y-124454476D02*
X76514200Y-124549714D01*
X76514200Y-124549714D02*
X76752295Y-124454476D01*
X76371343Y-124740190D02*
X76514200Y-124549714D01*
X76514200Y-124549714D02*
X76657057Y-124740190D01*
X77276105Y-124311619D02*
X77276105Y-124549714D01*
X77038010Y-124454476D02*
X77276105Y-124549714D01*
X77276105Y-124549714D02*
X77514200Y-124454476D01*
X77133248Y-124740190D02*
X77276105Y-124549714D01*
X77276105Y-124549714D02*
X77418962Y-124740190D01*
X74155466Y-108065019D02*
X73822133Y-107588828D01*
X73584038Y-108065019D02*
X73584038Y-107065019D01*
X73584038Y-107065019D02*
X73964990Y-107065019D01*
X73964990Y-107065019D02*
X74060228Y-107112638D01*
X74060228Y-107112638D02*
X74107847Y-107160257D01*
X74107847Y-107160257D02*
X74155466Y-107255495D01*
X74155466Y-107255495D02*
X74155466Y-107398352D01*
X74155466Y-107398352D02*
X74107847Y-107493590D01*
X74107847Y-107493590D02*
X74060228Y-107541209D01*
X74060228Y-107541209D02*
X73964990Y-107588828D01*
X73964990Y-107588828D02*
X73584038Y-107588828D01*
X74584038Y-107541209D02*
X74917371Y-107541209D01*
X75060228Y-108065019D02*
X74584038Y-108065019D01*
X74584038Y-108065019D02*
X74584038Y-107065019D01*
X74584038Y-107065019D02*
X75060228Y-107065019D01*
X75822133Y-107541209D02*
X75488800Y-107541209D01*
X75488800Y-108065019D02*
X75488800Y-107065019D01*
X75488800Y-107065019D02*
X75964990Y-107065019D01*
X76488800Y-107065019D02*
X76488800Y-107303114D01*
X76250705Y-107207876D02*
X76488800Y-107303114D01*
X76488800Y-107303114D02*
X76726895Y-107207876D01*
X76345943Y-107493590D02*
X76488800Y-107303114D01*
X76488800Y-107303114D02*
X76631657Y-107493590D01*
X77250705Y-107065019D02*
X77250705Y-107303114D01*
X77012610Y-107207876D02*
X77250705Y-107303114D01*
X77250705Y-107303114D02*
X77488800Y-107207876D01*
X77107848Y-107493590D02*
X77250705Y-107303114D01*
X77250705Y-107303114D02*
X77393562Y-107493590D01*
X84569466Y-104255019D02*
X84236133Y-103778828D01*
X83998038Y-104255019D02*
X83998038Y-103255019D01*
X83998038Y-103255019D02*
X84378990Y-103255019D01*
X84378990Y-103255019D02*
X84474228Y-103302638D01*
X84474228Y-103302638D02*
X84521847Y-103350257D01*
X84521847Y-103350257D02*
X84569466Y-103445495D01*
X84569466Y-103445495D02*
X84569466Y-103588352D01*
X84569466Y-103588352D02*
X84521847Y-103683590D01*
X84521847Y-103683590D02*
X84474228Y-103731209D01*
X84474228Y-103731209D02*
X84378990Y-103778828D01*
X84378990Y-103778828D02*
X83998038Y-103778828D01*
X84998038Y-103731209D02*
X85331371Y-103731209D01*
X85474228Y-104255019D02*
X84998038Y-104255019D01*
X84998038Y-104255019D02*
X84998038Y-103255019D01*
X84998038Y-103255019D02*
X85474228Y-103255019D01*
X86236133Y-103731209D02*
X85902800Y-103731209D01*
X85902800Y-104255019D02*
X85902800Y-103255019D01*
X85902800Y-103255019D02*
X86378990Y-103255019D01*
X86902800Y-103255019D02*
X86902800Y-103493114D01*
X86664705Y-103397876D02*
X86902800Y-103493114D01*
X86902800Y-103493114D02*
X87140895Y-103397876D01*
X86759943Y-103683590D02*
X86902800Y-103493114D01*
X86902800Y-103493114D02*
X87045657Y-103683590D01*
X87664705Y-103255019D02*
X87664705Y-103493114D01*
X87426610Y-103397876D02*
X87664705Y-103493114D01*
X87664705Y-103493114D02*
X87902800Y-103397876D01*
X87521848Y-103683590D02*
X87664705Y-103493114D01*
X87664705Y-103493114D02*
X87807562Y-103683590D01*
X46240866Y-139154619D02*
X45907533Y-138678428D01*
X45669438Y-139154619D02*
X45669438Y-138154619D01*
X45669438Y-138154619D02*
X46050390Y-138154619D01*
X46050390Y-138154619D02*
X46145628Y-138202238D01*
X46145628Y-138202238D02*
X46193247Y-138249857D01*
X46193247Y-138249857D02*
X46240866Y-138345095D01*
X46240866Y-138345095D02*
X46240866Y-138487952D01*
X46240866Y-138487952D02*
X46193247Y-138583190D01*
X46193247Y-138583190D02*
X46145628Y-138630809D01*
X46145628Y-138630809D02*
X46050390Y-138678428D01*
X46050390Y-138678428D02*
X45669438Y-138678428D01*
X46669438Y-138630809D02*
X47002771Y-138630809D01*
X47145628Y-139154619D02*
X46669438Y-139154619D01*
X46669438Y-139154619D02*
X46669438Y-138154619D01*
X46669438Y-138154619D02*
X47145628Y-138154619D01*
X47907533Y-138630809D02*
X47574200Y-138630809D01*
X47574200Y-139154619D02*
X47574200Y-138154619D01*
X47574200Y-138154619D02*
X48050390Y-138154619D01*
X48574200Y-138154619D02*
X48574200Y-138392714D01*
X48336105Y-138297476D02*
X48574200Y-138392714D01*
X48574200Y-138392714D02*
X48812295Y-138297476D01*
X48431343Y-138583190D02*
X48574200Y-138392714D01*
X48574200Y-138392714D02*
X48717057Y-138583190D01*
X49336105Y-138154619D02*
X49336105Y-138392714D01*
X49098010Y-138297476D02*
X49336105Y-138392714D01*
X49336105Y-138392714D02*
X49574200Y-138297476D01*
X49193248Y-138583190D02*
X49336105Y-138392714D01*
X49336105Y-138392714D02*
X49478962Y-138583190D01*
X48755466Y-32931819D02*
X48422133Y-32455628D01*
X48184038Y-32931819D02*
X48184038Y-31931819D01*
X48184038Y-31931819D02*
X48564990Y-31931819D01*
X48564990Y-31931819D02*
X48660228Y-31979438D01*
X48660228Y-31979438D02*
X48707847Y-32027057D01*
X48707847Y-32027057D02*
X48755466Y-32122295D01*
X48755466Y-32122295D02*
X48755466Y-32265152D01*
X48755466Y-32265152D02*
X48707847Y-32360390D01*
X48707847Y-32360390D02*
X48660228Y-32408009D01*
X48660228Y-32408009D02*
X48564990Y-32455628D01*
X48564990Y-32455628D02*
X48184038Y-32455628D01*
X49184038Y-32408009D02*
X49517371Y-32408009D01*
X49660228Y-32931819D02*
X49184038Y-32931819D01*
X49184038Y-32931819D02*
X49184038Y-31931819D01*
X49184038Y-31931819D02*
X49660228Y-31931819D01*
X50422133Y-32408009D02*
X50088800Y-32408009D01*
X50088800Y-32931819D02*
X50088800Y-31931819D01*
X50088800Y-31931819D02*
X50564990Y-31931819D01*
X51088800Y-31931819D02*
X51088800Y-32169914D01*
X50850705Y-32074676D02*
X51088800Y-32169914D01*
X51088800Y-32169914D02*
X51326895Y-32074676D01*
X50945943Y-32360390D02*
X51088800Y-32169914D01*
X51088800Y-32169914D02*
X51231657Y-32360390D01*
X51850705Y-31931819D02*
X51850705Y-32169914D01*
X51612610Y-32074676D02*
X51850705Y-32169914D01*
X51850705Y-32169914D02*
X52088800Y-32074676D01*
X51707848Y-32360390D02*
X51850705Y-32169914D01*
X51850705Y-32169914D02*
X51993562Y-32360390D01*
X48755466Y-155486819D02*
X48422133Y-155010628D01*
X48184038Y-155486819D02*
X48184038Y-154486819D01*
X48184038Y-154486819D02*
X48564990Y-154486819D01*
X48564990Y-154486819D02*
X48660228Y-154534438D01*
X48660228Y-154534438D02*
X48707847Y-154582057D01*
X48707847Y-154582057D02*
X48755466Y-154677295D01*
X48755466Y-154677295D02*
X48755466Y-154820152D01*
X48755466Y-154820152D02*
X48707847Y-154915390D01*
X48707847Y-154915390D02*
X48660228Y-154963009D01*
X48660228Y-154963009D02*
X48564990Y-155010628D01*
X48564990Y-155010628D02*
X48184038Y-155010628D01*
X49184038Y-154963009D02*
X49517371Y-154963009D01*
X49660228Y-155486819D02*
X49184038Y-155486819D01*
X49184038Y-155486819D02*
X49184038Y-154486819D01*
X49184038Y-154486819D02*
X49660228Y-154486819D01*
X50422133Y-154963009D02*
X50088800Y-154963009D01*
X50088800Y-155486819D02*
X50088800Y-154486819D01*
X50088800Y-154486819D02*
X50564990Y-154486819D01*
X51088800Y-154486819D02*
X51088800Y-154724914D01*
X50850705Y-154629676D02*
X51088800Y-154724914D01*
X51088800Y-154724914D02*
X51326895Y-154629676D01*
X50945943Y-154915390D02*
X51088800Y-154724914D01*
X51088800Y-154724914D02*
X51231657Y-154915390D01*
X51850705Y-154486819D02*
X51850705Y-154724914D01*
X51612610Y-154629676D02*
X51850705Y-154724914D01*
X51850705Y-154724914D02*
X52088800Y-154629676D01*
X51707848Y-154915390D02*
X51850705Y-154724914D01*
X51850705Y-154724914D02*
X51993562Y-154915390D01*
X99555466Y-73775019D02*
X99222133Y-73298828D01*
X98984038Y-73775019D02*
X98984038Y-72775019D01*
X98984038Y-72775019D02*
X99364990Y-72775019D01*
X99364990Y-72775019D02*
X99460228Y-72822638D01*
X99460228Y-72822638D02*
X99507847Y-72870257D01*
X99507847Y-72870257D02*
X99555466Y-72965495D01*
X99555466Y-72965495D02*
X99555466Y-73108352D01*
X99555466Y-73108352D02*
X99507847Y-73203590D01*
X99507847Y-73203590D02*
X99460228Y-73251209D01*
X99460228Y-73251209D02*
X99364990Y-73298828D01*
X99364990Y-73298828D02*
X98984038Y-73298828D01*
X99984038Y-73251209D02*
X100317371Y-73251209D01*
X100460228Y-73775019D02*
X99984038Y-73775019D01*
X99984038Y-73775019D02*
X99984038Y-72775019D01*
X99984038Y-72775019D02*
X100460228Y-72775019D01*
X101222133Y-73251209D02*
X100888800Y-73251209D01*
X100888800Y-73775019D02*
X100888800Y-72775019D01*
X100888800Y-72775019D02*
X101364990Y-72775019D01*
X101888800Y-72775019D02*
X101888800Y-73013114D01*
X101650705Y-72917876D02*
X101888800Y-73013114D01*
X101888800Y-73013114D02*
X102126895Y-72917876D01*
X101745943Y-73203590D02*
X101888800Y-73013114D01*
X101888800Y-73013114D02*
X102031657Y-73203590D01*
X102650705Y-72775019D02*
X102650705Y-73013114D01*
X102412610Y-72917876D02*
X102650705Y-73013114D01*
X102650705Y-73013114D02*
X102888800Y-72917876D01*
X102507848Y-73203590D02*
X102650705Y-73013114D01*
X102650705Y-73013114D02*
X102793562Y-73203590D01*
X60210866Y-125311619D02*
X59877533Y-124835428D01*
X59639438Y-125311619D02*
X59639438Y-124311619D01*
X59639438Y-124311619D02*
X60020390Y-124311619D01*
X60020390Y-124311619D02*
X60115628Y-124359238D01*
X60115628Y-124359238D02*
X60163247Y-124406857D01*
X60163247Y-124406857D02*
X60210866Y-124502095D01*
X60210866Y-124502095D02*
X60210866Y-124644952D01*
X60210866Y-124644952D02*
X60163247Y-124740190D01*
X60163247Y-124740190D02*
X60115628Y-124787809D01*
X60115628Y-124787809D02*
X60020390Y-124835428D01*
X60020390Y-124835428D02*
X59639438Y-124835428D01*
X60639438Y-124787809D02*
X60972771Y-124787809D01*
X61115628Y-125311619D02*
X60639438Y-125311619D01*
X60639438Y-125311619D02*
X60639438Y-124311619D01*
X60639438Y-124311619D02*
X61115628Y-124311619D01*
X61877533Y-124787809D02*
X61544200Y-124787809D01*
X61544200Y-125311619D02*
X61544200Y-124311619D01*
X61544200Y-124311619D02*
X62020390Y-124311619D01*
X62544200Y-124311619D02*
X62544200Y-124549714D01*
X62306105Y-124454476D02*
X62544200Y-124549714D01*
X62544200Y-124549714D02*
X62782295Y-124454476D01*
X62401343Y-124740190D02*
X62544200Y-124549714D01*
X62544200Y-124549714D02*
X62687057Y-124740190D01*
X63306105Y-124311619D02*
X63306105Y-124549714D01*
X63068010Y-124454476D02*
X63306105Y-124549714D01*
X63306105Y-124549714D02*
X63544200Y-124454476D01*
X63163248Y-124740190D02*
X63306105Y-124549714D01*
X63306105Y-124549714D02*
X63448962Y-124740190D01*
X63741466Y-104255019D02*
X63408133Y-103778828D01*
X63170038Y-104255019D02*
X63170038Y-103255019D01*
X63170038Y-103255019D02*
X63550990Y-103255019D01*
X63550990Y-103255019D02*
X63646228Y-103302638D01*
X63646228Y-103302638D02*
X63693847Y-103350257D01*
X63693847Y-103350257D02*
X63741466Y-103445495D01*
X63741466Y-103445495D02*
X63741466Y-103588352D01*
X63741466Y-103588352D02*
X63693847Y-103683590D01*
X63693847Y-103683590D02*
X63646228Y-103731209D01*
X63646228Y-103731209D02*
X63550990Y-103778828D01*
X63550990Y-103778828D02*
X63170038Y-103778828D01*
X64170038Y-103731209D02*
X64503371Y-103731209D01*
X64646228Y-104255019D02*
X64170038Y-104255019D01*
X64170038Y-104255019D02*
X64170038Y-103255019D01*
X64170038Y-103255019D02*
X64646228Y-103255019D01*
X65408133Y-103731209D02*
X65074800Y-103731209D01*
X65074800Y-104255019D02*
X65074800Y-103255019D01*
X65074800Y-103255019D02*
X65550990Y-103255019D01*
X66074800Y-103255019D02*
X66074800Y-103493114D01*
X65836705Y-103397876D02*
X66074800Y-103493114D01*
X66074800Y-103493114D02*
X66312895Y-103397876D01*
X65931943Y-103683590D02*
X66074800Y-103493114D01*
X66074800Y-103493114D02*
X66217657Y-103683590D01*
X66836705Y-103255019D02*
X66836705Y-103493114D01*
X66598610Y-103397876D02*
X66836705Y-103493114D01*
X66836705Y-103493114D02*
X67074800Y-103397876D01*
X66693848Y-103683590D02*
X66836705Y-103493114D01*
X66836705Y-103493114D02*
X66979562Y-103683590D01*
X74180866Y-139154619D02*
X73847533Y-138678428D01*
X73609438Y-139154619D02*
X73609438Y-138154619D01*
X73609438Y-138154619D02*
X73990390Y-138154619D01*
X73990390Y-138154619D02*
X74085628Y-138202238D01*
X74085628Y-138202238D02*
X74133247Y-138249857D01*
X74133247Y-138249857D02*
X74180866Y-138345095D01*
X74180866Y-138345095D02*
X74180866Y-138487952D01*
X74180866Y-138487952D02*
X74133247Y-138583190D01*
X74133247Y-138583190D02*
X74085628Y-138630809D01*
X74085628Y-138630809D02*
X73990390Y-138678428D01*
X73990390Y-138678428D02*
X73609438Y-138678428D01*
X74609438Y-138630809D02*
X74942771Y-138630809D01*
X75085628Y-139154619D02*
X74609438Y-139154619D01*
X74609438Y-139154619D02*
X74609438Y-138154619D01*
X74609438Y-138154619D02*
X75085628Y-138154619D01*
X75847533Y-138630809D02*
X75514200Y-138630809D01*
X75514200Y-139154619D02*
X75514200Y-138154619D01*
X75514200Y-138154619D02*
X75990390Y-138154619D01*
X76514200Y-138154619D02*
X76514200Y-138392714D01*
X76276105Y-138297476D02*
X76514200Y-138392714D01*
X76514200Y-138392714D02*
X76752295Y-138297476D01*
X76371343Y-138583190D02*
X76514200Y-138392714D01*
X76514200Y-138392714D02*
X76657057Y-138583190D01*
X77276105Y-138154619D02*
X77276105Y-138392714D01*
X77038010Y-138297476D02*
X77276105Y-138392714D01*
X77276105Y-138392714D02*
X77514200Y-138297476D01*
X77133248Y-138583190D02*
X77276105Y-138392714D01*
X77276105Y-138392714D02*
X77418962Y-138583190D01*
X99555466Y-45835019D02*
X99222133Y-45358828D01*
X98984038Y-45835019D02*
X98984038Y-44835019D01*
X98984038Y-44835019D02*
X99364990Y-44835019D01*
X99364990Y-44835019D02*
X99460228Y-44882638D01*
X99460228Y-44882638D02*
X99507847Y-44930257D01*
X99507847Y-44930257D02*
X99555466Y-45025495D01*
X99555466Y-45025495D02*
X99555466Y-45168352D01*
X99555466Y-45168352D02*
X99507847Y-45263590D01*
X99507847Y-45263590D02*
X99460228Y-45311209D01*
X99460228Y-45311209D02*
X99364990Y-45358828D01*
X99364990Y-45358828D02*
X98984038Y-45358828D01*
X99984038Y-45311209D02*
X100317371Y-45311209D01*
X100460228Y-45835019D02*
X99984038Y-45835019D01*
X99984038Y-45835019D02*
X99984038Y-44835019D01*
X99984038Y-44835019D02*
X100460228Y-44835019D01*
X101222133Y-45311209D02*
X100888800Y-45311209D01*
X100888800Y-45835019D02*
X100888800Y-44835019D01*
X100888800Y-44835019D02*
X101364990Y-44835019D01*
X101888800Y-44835019D02*
X101888800Y-45073114D01*
X101650705Y-44977876D02*
X101888800Y-45073114D01*
X101888800Y-45073114D02*
X102126895Y-44977876D01*
X101745943Y-45263590D02*
X101888800Y-45073114D01*
X101888800Y-45073114D02*
X102031657Y-45263590D01*
X102650705Y-44835019D02*
X102650705Y-45073114D01*
X102412610Y-44977876D02*
X102650705Y-45073114D01*
X102650705Y-45073114D02*
X102888800Y-44977876D01*
X102507848Y-45263590D02*
X102650705Y-45073114D01*
X102650705Y-45073114D02*
X102793562Y-45263590D01*
X46240866Y-125311619D02*
X45907533Y-124835428D01*
X45669438Y-125311619D02*
X45669438Y-124311619D01*
X45669438Y-124311619D02*
X46050390Y-124311619D01*
X46050390Y-124311619D02*
X46145628Y-124359238D01*
X46145628Y-124359238D02*
X46193247Y-124406857D01*
X46193247Y-124406857D02*
X46240866Y-124502095D01*
X46240866Y-124502095D02*
X46240866Y-124644952D01*
X46240866Y-124644952D02*
X46193247Y-124740190D01*
X46193247Y-124740190D02*
X46145628Y-124787809D01*
X46145628Y-124787809D02*
X46050390Y-124835428D01*
X46050390Y-124835428D02*
X45669438Y-124835428D01*
X46669438Y-124787809D02*
X47002771Y-124787809D01*
X47145628Y-125311619D02*
X46669438Y-125311619D01*
X46669438Y-125311619D02*
X46669438Y-124311619D01*
X46669438Y-124311619D02*
X47145628Y-124311619D01*
X47907533Y-124787809D02*
X47574200Y-124787809D01*
X47574200Y-125311619D02*
X47574200Y-124311619D01*
X47574200Y-124311619D02*
X48050390Y-124311619D01*
X48574200Y-124311619D02*
X48574200Y-124549714D01*
X48336105Y-124454476D02*
X48574200Y-124549714D01*
X48574200Y-124549714D02*
X48812295Y-124454476D01*
X48431343Y-124740190D02*
X48574200Y-124549714D01*
X48574200Y-124549714D02*
X48717057Y-124740190D01*
X49336105Y-124311619D02*
X49336105Y-124549714D01*
X49098010Y-124454476D02*
X49336105Y-124549714D01*
X49336105Y-124549714D02*
X49574200Y-124454476D01*
X49193248Y-124740190D02*
X49336105Y-124549714D01*
X49336105Y-124549714D02*
X49478962Y-124740190D01*
X99555466Y-155486819D02*
X99222133Y-155010628D01*
X98984038Y-155486819D02*
X98984038Y-154486819D01*
X98984038Y-154486819D02*
X99364990Y-154486819D01*
X99364990Y-154486819D02*
X99460228Y-154534438D01*
X99460228Y-154534438D02*
X99507847Y-154582057D01*
X99507847Y-154582057D02*
X99555466Y-154677295D01*
X99555466Y-154677295D02*
X99555466Y-154820152D01*
X99555466Y-154820152D02*
X99507847Y-154915390D01*
X99507847Y-154915390D02*
X99460228Y-154963009D01*
X99460228Y-154963009D02*
X99364990Y-155010628D01*
X99364990Y-155010628D02*
X98984038Y-155010628D01*
X99984038Y-154963009D02*
X100317371Y-154963009D01*
X100460228Y-155486819D02*
X99984038Y-155486819D01*
X99984038Y-155486819D02*
X99984038Y-154486819D01*
X99984038Y-154486819D02*
X100460228Y-154486819D01*
X101222133Y-154963009D02*
X100888800Y-154963009D01*
X100888800Y-155486819D02*
X100888800Y-154486819D01*
X100888800Y-154486819D02*
X101364990Y-154486819D01*
X101888800Y-154486819D02*
X101888800Y-154724914D01*
X101650705Y-154629676D02*
X101888800Y-154724914D01*
X101888800Y-154724914D02*
X102126895Y-154629676D01*
X101745943Y-154915390D02*
X101888800Y-154724914D01*
X101888800Y-154724914D02*
X102031657Y-154915390D01*
X102650705Y-154486819D02*
X102650705Y-154724914D01*
X102412610Y-154629676D02*
X102650705Y-154724914D01*
X102650705Y-154724914D02*
X102888800Y-154629676D01*
X102507848Y-154915390D02*
X102650705Y-154724914D01*
X102650705Y-154724914D02*
X102793562Y-154915390D01*
X99555466Y-32931819D02*
X99222133Y-32455628D01*
X98984038Y-32931819D02*
X98984038Y-31931819D01*
X98984038Y-31931819D02*
X99364990Y-31931819D01*
X99364990Y-31931819D02*
X99460228Y-31979438D01*
X99460228Y-31979438D02*
X99507847Y-32027057D01*
X99507847Y-32027057D02*
X99555466Y-32122295D01*
X99555466Y-32122295D02*
X99555466Y-32265152D01*
X99555466Y-32265152D02*
X99507847Y-32360390D01*
X99507847Y-32360390D02*
X99460228Y-32408009D01*
X99460228Y-32408009D02*
X99364990Y-32455628D01*
X99364990Y-32455628D02*
X98984038Y-32455628D01*
X99984038Y-32408009D02*
X100317371Y-32408009D01*
X100460228Y-32931819D02*
X99984038Y-32931819D01*
X99984038Y-32931819D02*
X99984038Y-31931819D01*
X99984038Y-31931819D02*
X100460228Y-31931819D01*
X101222133Y-32408009D02*
X100888800Y-32408009D01*
X100888800Y-32931819D02*
X100888800Y-31931819D01*
X100888800Y-31931819D02*
X101364990Y-31931819D01*
X101888800Y-31931819D02*
X101888800Y-32169914D01*
X101650705Y-32074676D02*
X101888800Y-32169914D01*
X101888800Y-32169914D02*
X102126895Y-32074676D01*
X101745943Y-32360390D02*
X101888800Y-32169914D01*
X101888800Y-32169914D02*
X102031657Y-32360390D01*
X102650705Y-31931819D02*
X102650705Y-32169914D01*
X102412610Y-32074676D02*
X102650705Y-32169914D01*
X102650705Y-32169914D02*
X102888800Y-32074676D01*
X102507848Y-32360390D02*
X102650705Y-32169914D01*
X102650705Y-32169914D02*
X102793562Y-32360390D01*
X48755466Y-73775019D02*
X48422133Y-73298828D01*
X48184038Y-73775019D02*
X48184038Y-72775019D01*
X48184038Y-72775019D02*
X48564990Y-72775019D01*
X48564990Y-72775019D02*
X48660228Y-72822638D01*
X48660228Y-72822638D02*
X48707847Y-72870257D01*
X48707847Y-72870257D02*
X48755466Y-72965495D01*
X48755466Y-72965495D02*
X48755466Y-73108352D01*
X48755466Y-73108352D02*
X48707847Y-73203590D01*
X48707847Y-73203590D02*
X48660228Y-73251209D01*
X48660228Y-73251209D02*
X48564990Y-73298828D01*
X48564990Y-73298828D02*
X48184038Y-73298828D01*
X49184038Y-73251209D02*
X49517371Y-73251209D01*
X49660228Y-73775019D02*
X49184038Y-73775019D01*
X49184038Y-73775019D02*
X49184038Y-72775019D01*
X49184038Y-72775019D02*
X49660228Y-72775019D01*
X50422133Y-73251209D02*
X50088800Y-73251209D01*
X50088800Y-73775019D02*
X50088800Y-72775019D01*
X50088800Y-72775019D02*
X50564990Y-72775019D01*
X51088800Y-72775019D02*
X51088800Y-73013114D01*
X50850705Y-72917876D02*
X51088800Y-73013114D01*
X51088800Y-73013114D02*
X51326895Y-72917876D01*
X50945943Y-73203590D02*
X51088800Y-73013114D01*
X51088800Y-73013114D02*
X51231657Y-73203590D01*
X51850705Y-72775019D02*
X51850705Y-73013114D01*
X51612610Y-72917876D02*
X51850705Y-73013114D01*
X51850705Y-73013114D02*
X52088800Y-72917876D01*
X51707848Y-73203590D02*
X51850705Y-73013114D01*
X51850705Y-73013114D02*
X51993562Y-73203590D01*
X88150866Y-125311619D02*
X87817533Y-124835428D01*
X87579438Y-125311619D02*
X87579438Y-124311619D01*
X87579438Y-124311619D02*
X87960390Y-124311619D01*
X87960390Y-124311619D02*
X88055628Y-124359238D01*
X88055628Y-124359238D02*
X88103247Y-124406857D01*
X88103247Y-124406857D02*
X88150866Y-124502095D01*
X88150866Y-124502095D02*
X88150866Y-124644952D01*
X88150866Y-124644952D02*
X88103247Y-124740190D01*
X88103247Y-124740190D02*
X88055628Y-124787809D01*
X88055628Y-124787809D02*
X87960390Y-124835428D01*
X87960390Y-124835428D02*
X87579438Y-124835428D01*
X88579438Y-124787809D02*
X88912771Y-124787809D01*
X89055628Y-125311619D02*
X88579438Y-125311619D01*
X88579438Y-125311619D02*
X88579438Y-124311619D01*
X88579438Y-124311619D02*
X89055628Y-124311619D01*
X89817533Y-124787809D02*
X89484200Y-124787809D01*
X89484200Y-125311619D02*
X89484200Y-124311619D01*
X89484200Y-124311619D02*
X89960390Y-124311619D01*
X90484200Y-124311619D02*
X90484200Y-124549714D01*
X90246105Y-124454476D02*
X90484200Y-124549714D01*
X90484200Y-124549714D02*
X90722295Y-124454476D01*
X90341343Y-124740190D02*
X90484200Y-124549714D01*
X90484200Y-124549714D02*
X90627057Y-124740190D01*
X91246105Y-124311619D02*
X91246105Y-124549714D01*
X91008010Y-124454476D02*
X91246105Y-124549714D01*
X91246105Y-124549714D02*
X91484200Y-124454476D01*
X91103248Y-124740190D02*
X91246105Y-124549714D01*
X91246105Y-124549714D02*
X91388962Y-124740190D01*
X102120866Y-125311619D02*
X101787533Y-124835428D01*
X101549438Y-125311619D02*
X101549438Y-124311619D01*
X101549438Y-124311619D02*
X101930390Y-124311619D01*
X101930390Y-124311619D02*
X102025628Y-124359238D01*
X102025628Y-124359238D02*
X102073247Y-124406857D01*
X102073247Y-124406857D02*
X102120866Y-124502095D01*
X102120866Y-124502095D02*
X102120866Y-124644952D01*
X102120866Y-124644952D02*
X102073247Y-124740190D01*
X102073247Y-124740190D02*
X102025628Y-124787809D01*
X102025628Y-124787809D02*
X101930390Y-124835428D01*
X101930390Y-124835428D02*
X101549438Y-124835428D01*
X102549438Y-124787809D02*
X102882771Y-124787809D01*
X103025628Y-125311619D02*
X102549438Y-125311619D01*
X102549438Y-125311619D02*
X102549438Y-124311619D01*
X102549438Y-124311619D02*
X103025628Y-124311619D01*
X103787533Y-124787809D02*
X103454200Y-124787809D01*
X103454200Y-125311619D02*
X103454200Y-124311619D01*
X103454200Y-124311619D02*
X103930390Y-124311619D01*
X104454200Y-124311619D02*
X104454200Y-124549714D01*
X104216105Y-124454476D02*
X104454200Y-124549714D01*
X104454200Y-124549714D02*
X104692295Y-124454476D01*
X104311343Y-124740190D02*
X104454200Y-124549714D01*
X104454200Y-124549714D02*
X104597057Y-124740190D01*
X105216105Y-124311619D02*
X105216105Y-124549714D01*
X104978010Y-124454476D02*
X105216105Y-124549714D01*
X105216105Y-124549714D02*
X105454200Y-124454476D01*
X105073248Y-124740190D02*
X105216105Y-124549714D01*
X105216105Y-124549714D02*
X105358962Y-124740190D01*
X74155466Y-87745019D02*
X73822133Y-87268828D01*
X73584038Y-87745019D02*
X73584038Y-86745019D01*
X73584038Y-86745019D02*
X73964990Y-86745019D01*
X73964990Y-86745019D02*
X74060228Y-86792638D01*
X74060228Y-86792638D02*
X74107847Y-86840257D01*
X74107847Y-86840257D02*
X74155466Y-86935495D01*
X74155466Y-86935495D02*
X74155466Y-87078352D01*
X74155466Y-87078352D02*
X74107847Y-87173590D01*
X74107847Y-87173590D02*
X74060228Y-87221209D01*
X74060228Y-87221209D02*
X73964990Y-87268828D01*
X73964990Y-87268828D02*
X73584038Y-87268828D01*
X74584038Y-87221209D02*
X74917371Y-87221209D01*
X75060228Y-87745019D02*
X74584038Y-87745019D01*
X74584038Y-87745019D02*
X74584038Y-86745019D01*
X74584038Y-86745019D02*
X75060228Y-86745019D01*
X75822133Y-87221209D02*
X75488800Y-87221209D01*
X75488800Y-87745019D02*
X75488800Y-86745019D01*
X75488800Y-86745019D02*
X75964990Y-86745019D01*
X76488800Y-86745019D02*
X76488800Y-86983114D01*
X76250705Y-86887876D02*
X76488800Y-86983114D01*
X76488800Y-86983114D02*
X76726895Y-86887876D01*
X76345943Y-87173590D02*
X76488800Y-86983114D01*
X76488800Y-86983114D02*
X76631657Y-87173590D01*
X77250705Y-86745019D02*
X77250705Y-86983114D01*
X77012610Y-86887876D02*
X77250705Y-86983114D01*
X77250705Y-86983114D02*
X77488800Y-86887876D01*
X77107848Y-87173590D02*
X77250705Y-86983114D01*
X77250705Y-86983114D02*
X77393562Y-87173590D01*
X74180866Y-125311619D02*
X73847533Y-124835428D01*
X73609438Y-125311619D02*
X73609438Y-124311619D01*
X73609438Y-124311619D02*
X73990390Y-124311619D01*
X73990390Y-124311619D02*
X74085628Y-124359238D01*
X74085628Y-124359238D02*
X74133247Y-124406857D01*
X74133247Y-124406857D02*
X74180866Y-124502095D01*
X74180866Y-124502095D02*
X74180866Y-124644952D01*
X74180866Y-124644952D02*
X74133247Y-124740190D01*
X74133247Y-124740190D02*
X74085628Y-124787809D01*
X74085628Y-124787809D02*
X73990390Y-124835428D01*
X73990390Y-124835428D02*
X73609438Y-124835428D01*
X74609438Y-124787809D02*
X74942771Y-124787809D01*
X75085628Y-125311619D02*
X74609438Y-125311619D01*
X74609438Y-125311619D02*
X74609438Y-124311619D01*
X74609438Y-124311619D02*
X75085628Y-124311619D01*
X75847533Y-124787809D02*
X75514200Y-124787809D01*
X75514200Y-125311619D02*
X75514200Y-124311619D01*
X75514200Y-124311619D02*
X75990390Y-124311619D01*
X76514200Y-124311619D02*
X76514200Y-124549714D01*
X76276105Y-124454476D02*
X76514200Y-124549714D01*
X76514200Y-124549714D02*
X76752295Y-124454476D01*
X76371343Y-124740190D02*
X76514200Y-124549714D01*
X76514200Y-124549714D02*
X76657057Y-124740190D01*
X77276105Y-124311619D02*
X77276105Y-124549714D01*
X77038010Y-124454476D02*
X77276105Y-124549714D01*
X77276105Y-124549714D02*
X77514200Y-124454476D01*
X77133248Y-124740190D02*
X77276105Y-124549714D01*
X77276105Y-124549714D02*
X77418962Y-124740190D01*
X60210866Y-139154619D02*
X59877533Y-138678428D01*
X59639438Y-139154619D02*
X59639438Y-138154619D01*
X59639438Y-138154619D02*
X60020390Y-138154619D01*
X60020390Y-138154619D02*
X60115628Y-138202238D01*
X60115628Y-138202238D02*
X60163247Y-138249857D01*
X60163247Y-138249857D02*
X60210866Y-138345095D01*
X60210866Y-138345095D02*
X60210866Y-138487952D01*
X60210866Y-138487952D02*
X60163247Y-138583190D01*
X60163247Y-138583190D02*
X60115628Y-138630809D01*
X60115628Y-138630809D02*
X60020390Y-138678428D01*
X60020390Y-138678428D02*
X59639438Y-138678428D01*
X60639438Y-138630809D02*
X60972771Y-138630809D01*
X61115628Y-139154619D02*
X60639438Y-139154619D01*
X60639438Y-139154619D02*
X60639438Y-138154619D01*
X60639438Y-138154619D02*
X61115628Y-138154619D01*
X61877533Y-138630809D02*
X61544200Y-138630809D01*
X61544200Y-139154619D02*
X61544200Y-138154619D01*
X61544200Y-138154619D02*
X62020390Y-138154619D01*
X62544200Y-138154619D02*
X62544200Y-138392714D01*
X62306105Y-138297476D02*
X62544200Y-138392714D01*
X62544200Y-138392714D02*
X62782295Y-138297476D01*
X62401343Y-138583190D02*
X62544200Y-138392714D01*
X62544200Y-138392714D02*
X62687057Y-138583190D01*
X63306105Y-138154619D02*
X63306105Y-138392714D01*
X63068010Y-138297476D02*
X63306105Y-138392714D01*
X63306105Y-138392714D02*
X63544200Y-138297476D01*
X63163248Y-138583190D02*
X63306105Y-138392714D01*
X63306105Y-138392714D02*
X63448962Y-138583190D01*
X48755466Y-45835019D02*
X48422133Y-45358828D01*
X48184038Y-45835019D02*
X48184038Y-44835019D01*
X48184038Y-44835019D02*
X48564990Y-44835019D01*
X48564990Y-44835019D02*
X48660228Y-44882638D01*
X48660228Y-44882638D02*
X48707847Y-44930257D01*
X48707847Y-44930257D02*
X48755466Y-45025495D01*
X48755466Y-45025495D02*
X48755466Y-45168352D01*
X48755466Y-45168352D02*
X48707847Y-45263590D01*
X48707847Y-45263590D02*
X48660228Y-45311209D01*
X48660228Y-45311209D02*
X48564990Y-45358828D01*
X48564990Y-45358828D02*
X48184038Y-45358828D01*
X49184038Y-45311209D02*
X49517371Y-45311209D01*
X49660228Y-45835019D02*
X49184038Y-45835019D01*
X49184038Y-45835019D02*
X49184038Y-44835019D01*
X49184038Y-44835019D02*
X49660228Y-44835019D01*
X50422133Y-45311209D02*
X50088800Y-45311209D01*
X50088800Y-45835019D02*
X50088800Y-44835019D01*
X50088800Y-44835019D02*
X50564990Y-44835019D01*
X51088800Y-44835019D02*
X51088800Y-45073114D01*
X50850705Y-44977876D02*
X51088800Y-45073114D01*
X51088800Y-45073114D02*
X51326895Y-44977876D01*
X50945943Y-45263590D02*
X51088800Y-45073114D01*
X51088800Y-45073114D02*
X51231657Y-45263590D01*
X51850705Y-44835019D02*
X51850705Y-45073114D01*
X51612610Y-44977876D02*
X51850705Y-45073114D01*
X51850705Y-45073114D02*
X52088800Y-44977876D01*
X51707848Y-45263590D02*
X51850705Y-45073114D01*
X51850705Y-45073114D02*
X51993562Y-45263590D01*
X74155466Y-59805019D02*
X73822133Y-59328828D01*
X73584038Y-59805019D02*
X73584038Y-58805019D01*
X73584038Y-58805019D02*
X73964990Y-58805019D01*
X73964990Y-58805019D02*
X74060228Y-58852638D01*
X74060228Y-58852638D02*
X74107847Y-58900257D01*
X74107847Y-58900257D02*
X74155466Y-58995495D01*
X74155466Y-58995495D02*
X74155466Y-59138352D01*
X74155466Y-59138352D02*
X74107847Y-59233590D01*
X74107847Y-59233590D02*
X74060228Y-59281209D01*
X74060228Y-59281209D02*
X73964990Y-59328828D01*
X73964990Y-59328828D02*
X73584038Y-59328828D01*
X74584038Y-59281209D02*
X74917371Y-59281209D01*
X75060228Y-59805019D02*
X74584038Y-59805019D01*
X74584038Y-59805019D02*
X74584038Y-58805019D01*
X74584038Y-58805019D02*
X75060228Y-58805019D01*
X75822133Y-59281209D02*
X75488800Y-59281209D01*
X75488800Y-59805019D02*
X75488800Y-58805019D01*
X75488800Y-58805019D02*
X75964990Y-58805019D01*
X76488800Y-58805019D02*
X76488800Y-59043114D01*
X76250705Y-58947876D02*
X76488800Y-59043114D01*
X76488800Y-59043114D02*
X76726895Y-58947876D01*
X76345943Y-59233590D02*
X76488800Y-59043114D01*
X76488800Y-59043114D02*
X76631657Y-59233590D01*
X77250705Y-58805019D02*
X77250705Y-59043114D01*
X77012610Y-58947876D02*
X77250705Y-59043114D01*
X77250705Y-59043114D02*
X77488800Y-58947876D01*
X77107848Y-59233590D02*
X77250705Y-59043114D01*
X77250705Y-59043114D02*
X77393562Y-59233590D01*
%TD*%
M02*
