%TF.GenerationSoftware,KiCad,Pcbnew,7.0.1*%
%TF.CreationDate,2024-08-17T12:32:22-04:00*%
%TF.ProjectId,common_faceplate,636f6d6d-6f6e-45f6-9661-6365706c6174,rev?*%
%TF.SameCoordinates,Original*%
%TF.FileFunction,Soldermask,Bot*%
%TF.FilePolarity,Negative*%
%FSLAX46Y46*%
G04 Gerber Fmt 4.6, Leading zero omitted, Abs format (unit mm)*
G04 Created by KiCad (PCBNEW 7.0.1) date 2024-08-17 12:32:22*
%MOMM*%
%LPD*%
G01*
G04 APERTURE LIST*
%ADD10C,0.150000*%
%ADD11C,7.924800*%
%ADD12C,11.430000*%
%ADD13C,6.299200*%
%ADD14C,6.223000*%
%ADD15C,3.810000*%
%ADD16O,10.160000X5.740400*%
G04 APERTURE END LIST*
D10*
X85042476Y-32960380D02*
X85090095Y-33008000D01*
X85090095Y-33008000D02*
X85232952Y-33055619D01*
X85232952Y-33055619D02*
X85328190Y-33055619D01*
X85328190Y-33055619D02*
X85471047Y-33008000D01*
X85471047Y-33008000D02*
X85566285Y-32912761D01*
X85566285Y-32912761D02*
X85613904Y-32817523D01*
X85613904Y-32817523D02*
X85661523Y-32627047D01*
X85661523Y-32627047D02*
X85661523Y-32484190D01*
X85661523Y-32484190D02*
X85613904Y-32293714D01*
X85613904Y-32293714D02*
X85566285Y-32198476D01*
X85566285Y-32198476D02*
X85471047Y-32103238D01*
X85471047Y-32103238D02*
X85328190Y-32055619D01*
X85328190Y-32055619D02*
X85232952Y-32055619D01*
X85232952Y-32055619D02*
X85090095Y-32103238D01*
X85090095Y-32103238D02*
X85042476Y-32150857D01*
X84471047Y-33055619D02*
X84566285Y-33008000D01*
X84566285Y-33008000D02*
X84613904Y-32960380D01*
X84613904Y-32960380D02*
X84661523Y-32865142D01*
X84661523Y-32865142D02*
X84661523Y-32579428D01*
X84661523Y-32579428D02*
X84613904Y-32484190D01*
X84613904Y-32484190D02*
X84566285Y-32436571D01*
X84566285Y-32436571D02*
X84471047Y-32388952D01*
X84471047Y-32388952D02*
X84328190Y-32388952D01*
X84328190Y-32388952D02*
X84232952Y-32436571D01*
X84232952Y-32436571D02*
X84185333Y-32484190D01*
X84185333Y-32484190D02*
X84137714Y-32579428D01*
X84137714Y-32579428D02*
X84137714Y-32865142D01*
X84137714Y-32865142D02*
X84185333Y-32960380D01*
X84185333Y-32960380D02*
X84232952Y-33008000D01*
X84232952Y-33008000D02*
X84328190Y-33055619D01*
X84328190Y-33055619D02*
X84471047Y-33055619D01*
X83709142Y-33055619D02*
X83709142Y-32388952D01*
X83709142Y-32484190D02*
X83661523Y-32436571D01*
X83661523Y-32436571D02*
X83566285Y-32388952D01*
X83566285Y-32388952D02*
X83423428Y-32388952D01*
X83423428Y-32388952D02*
X83328190Y-32436571D01*
X83328190Y-32436571D02*
X83280571Y-32531809D01*
X83280571Y-32531809D02*
X83280571Y-33055619D01*
X83280571Y-32531809D02*
X83232952Y-32436571D01*
X83232952Y-32436571D02*
X83137714Y-32388952D01*
X83137714Y-32388952D02*
X82994857Y-32388952D01*
X82994857Y-32388952D02*
X82899618Y-32436571D01*
X82899618Y-32436571D02*
X82851999Y-32531809D01*
X82851999Y-32531809D02*
X82851999Y-33055619D01*
X82375809Y-33055619D02*
X82375809Y-32388952D01*
X82375809Y-32484190D02*
X82328190Y-32436571D01*
X82328190Y-32436571D02*
X82232952Y-32388952D01*
X82232952Y-32388952D02*
X82090095Y-32388952D01*
X82090095Y-32388952D02*
X81994857Y-32436571D01*
X81994857Y-32436571D02*
X81947238Y-32531809D01*
X81947238Y-32531809D02*
X81947238Y-33055619D01*
X81947238Y-32531809D02*
X81899619Y-32436571D01*
X81899619Y-32436571D02*
X81804381Y-32388952D01*
X81804381Y-32388952D02*
X81661524Y-32388952D01*
X81661524Y-32388952D02*
X81566285Y-32436571D01*
X81566285Y-32436571D02*
X81518666Y-32531809D01*
X81518666Y-32531809D02*
X81518666Y-33055619D01*
X80899619Y-33055619D02*
X80994857Y-33008000D01*
X80994857Y-33008000D02*
X81042476Y-32960380D01*
X81042476Y-32960380D02*
X81090095Y-32865142D01*
X81090095Y-32865142D02*
X81090095Y-32579428D01*
X81090095Y-32579428D02*
X81042476Y-32484190D01*
X81042476Y-32484190D02*
X80994857Y-32436571D01*
X80994857Y-32436571D02*
X80899619Y-32388952D01*
X80899619Y-32388952D02*
X80756762Y-32388952D01*
X80756762Y-32388952D02*
X80661524Y-32436571D01*
X80661524Y-32436571D02*
X80613905Y-32484190D01*
X80613905Y-32484190D02*
X80566286Y-32579428D01*
X80566286Y-32579428D02*
X80566286Y-32865142D01*
X80566286Y-32865142D02*
X80613905Y-32960380D01*
X80613905Y-32960380D02*
X80661524Y-33008000D01*
X80661524Y-33008000D02*
X80756762Y-33055619D01*
X80756762Y-33055619D02*
X80899619Y-33055619D01*
X80137714Y-32388952D02*
X80137714Y-33055619D01*
X80137714Y-32484190D02*
X80090095Y-32436571D01*
X80090095Y-32436571D02*
X79994857Y-32388952D01*
X79994857Y-32388952D02*
X79852000Y-32388952D01*
X79852000Y-32388952D02*
X79756762Y-32436571D01*
X79756762Y-32436571D02*
X79709143Y-32531809D01*
X79709143Y-32531809D02*
X79709143Y-33055619D01*
X78471047Y-32531809D02*
X78137714Y-32531809D01*
X77994857Y-33055619D02*
X78471047Y-33055619D01*
X78471047Y-33055619D02*
X78471047Y-32055619D01*
X78471047Y-32055619D02*
X77994857Y-32055619D01*
X77137714Y-32388952D02*
X77137714Y-33055619D01*
X77566285Y-32388952D02*
X77566285Y-32912761D01*
X77566285Y-32912761D02*
X77518666Y-33008000D01*
X77518666Y-33008000D02*
X77423428Y-33055619D01*
X77423428Y-33055619D02*
X77280571Y-33055619D01*
X77280571Y-33055619D02*
X77185333Y-33008000D01*
X77185333Y-33008000D02*
X77137714Y-32960380D01*
X76661523Y-33055619D02*
X76661523Y-32388952D01*
X76661523Y-32579428D02*
X76613904Y-32484190D01*
X76613904Y-32484190D02*
X76566285Y-32436571D01*
X76566285Y-32436571D02*
X76471047Y-32388952D01*
X76471047Y-32388952D02*
X76375809Y-32388952D01*
X75899618Y-33055619D02*
X75994856Y-33008000D01*
X75994856Y-33008000D02*
X76042475Y-32960380D01*
X76042475Y-32960380D02*
X76090094Y-32865142D01*
X76090094Y-32865142D02*
X76090094Y-32579428D01*
X76090094Y-32579428D02*
X76042475Y-32484190D01*
X76042475Y-32484190D02*
X75994856Y-32436571D01*
X75994856Y-32436571D02*
X75899618Y-32388952D01*
X75899618Y-32388952D02*
X75756761Y-32388952D01*
X75756761Y-32388952D02*
X75661523Y-32436571D01*
X75661523Y-32436571D02*
X75613904Y-32484190D01*
X75613904Y-32484190D02*
X75566285Y-32579428D01*
X75566285Y-32579428D02*
X75566285Y-32865142D01*
X75566285Y-32865142D02*
X75613904Y-32960380D01*
X75613904Y-32960380D02*
X75661523Y-33008000D01*
X75661523Y-33008000D02*
X75756761Y-33055619D01*
X75756761Y-33055619D02*
X75899618Y-33055619D01*
X75137713Y-33055619D02*
X75137713Y-32388952D01*
X75137713Y-32579428D02*
X75090094Y-32484190D01*
X75090094Y-32484190D02*
X75042475Y-32436571D01*
X75042475Y-32436571D02*
X74947237Y-32388952D01*
X74947237Y-32388952D02*
X74851999Y-32388952D01*
X74090094Y-33055619D02*
X74090094Y-32531809D01*
X74090094Y-32531809D02*
X74137713Y-32436571D01*
X74137713Y-32436571D02*
X74232951Y-32388952D01*
X74232951Y-32388952D02*
X74423427Y-32388952D01*
X74423427Y-32388952D02*
X74518665Y-32436571D01*
X74090094Y-33008000D02*
X74185332Y-33055619D01*
X74185332Y-33055619D02*
X74423427Y-33055619D01*
X74423427Y-33055619D02*
X74518665Y-33008000D01*
X74518665Y-33008000D02*
X74566284Y-32912761D01*
X74566284Y-32912761D02*
X74566284Y-32817523D01*
X74566284Y-32817523D02*
X74518665Y-32722285D01*
X74518665Y-32722285D02*
X74423427Y-32674666D01*
X74423427Y-32674666D02*
X74185332Y-32674666D01*
X74185332Y-32674666D02*
X74090094Y-32627047D01*
X73185332Y-33008000D02*
X73280570Y-33055619D01*
X73280570Y-33055619D02*
X73471046Y-33055619D01*
X73471046Y-33055619D02*
X73566284Y-33008000D01*
X73566284Y-33008000D02*
X73613903Y-32960380D01*
X73613903Y-32960380D02*
X73661522Y-32865142D01*
X73661522Y-32865142D02*
X73661522Y-32579428D01*
X73661522Y-32579428D02*
X73613903Y-32484190D01*
X73613903Y-32484190D02*
X73566284Y-32436571D01*
X73566284Y-32436571D02*
X73471046Y-32388952D01*
X73471046Y-32388952D02*
X73280570Y-32388952D01*
X73280570Y-32388952D02*
X73185332Y-32436571D01*
X72756760Y-33055619D02*
X72756760Y-32055619D01*
X72661522Y-32674666D02*
X72375808Y-33055619D01*
X72375808Y-32388952D02*
X72756760Y-32769904D01*
X70851998Y-32531809D02*
X71185331Y-32531809D01*
X71185331Y-33055619D02*
X71185331Y-32055619D01*
X71185331Y-32055619D02*
X70709141Y-32055619D01*
X69899617Y-33055619D02*
X69899617Y-32531809D01*
X69899617Y-32531809D02*
X69947236Y-32436571D01*
X69947236Y-32436571D02*
X70042474Y-32388952D01*
X70042474Y-32388952D02*
X70232950Y-32388952D01*
X70232950Y-32388952D02*
X70328188Y-32436571D01*
X69899617Y-33008000D02*
X69994855Y-33055619D01*
X69994855Y-33055619D02*
X70232950Y-33055619D01*
X70232950Y-33055619D02*
X70328188Y-33008000D01*
X70328188Y-33008000D02*
X70375807Y-32912761D01*
X70375807Y-32912761D02*
X70375807Y-32817523D01*
X70375807Y-32817523D02*
X70328188Y-32722285D01*
X70328188Y-32722285D02*
X70232950Y-32674666D01*
X70232950Y-32674666D02*
X69994855Y-32674666D01*
X69994855Y-32674666D02*
X69899617Y-32627047D01*
X68994855Y-33008000D02*
X69090093Y-33055619D01*
X69090093Y-33055619D02*
X69280569Y-33055619D01*
X69280569Y-33055619D02*
X69375807Y-33008000D01*
X69375807Y-33008000D02*
X69423426Y-32960380D01*
X69423426Y-32960380D02*
X69471045Y-32865142D01*
X69471045Y-32865142D02*
X69471045Y-32579428D01*
X69471045Y-32579428D02*
X69423426Y-32484190D01*
X69423426Y-32484190D02*
X69375807Y-32436571D01*
X69375807Y-32436571D02*
X69280569Y-32388952D01*
X69280569Y-32388952D02*
X69090093Y-32388952D01*
X69090093Y-32388952D02*
X68994855Y-32436571D01*
X68185331Y-33008000D02*
X68280569Y-33055619D01*
X68280569Y-33055619D02*
X68471045Y-33055619D01*
X68471045Y-33055619D02*
X68566283Y-33008000D01*
X68566283Y-33008000D02*
X68613902Y-32912761D01*
X68613902Y-32912761D02*
X68613902Y-32531809D01*
X68613902Y-32531809D02*
X68566283Y-32436571D01*
X68566283Y-32436571D02*
X68471045Y-32388952D01*
X68471045Y-32388952D02*
X68280569Y-32388952D01*
X68280569Y-32388952D02*
X68185331Y-32436571D01*
X68185331Y-32436571D02*
X68137712Y-32531809D01*
X68137712Y-32531809D02*
X68137712Y-32627047D01*
X68137712Y-32627047D02*
X68613902Y-32722285D01*
X67709140Y-32388952D02*
X67709140Y-33388952D01*
X67709140Y-32436571D02*
X67613902Y-32388952D01*
X67613902Y-32388952D02*
X67423426Y-32388952D01*
X67423426Y-32388952D02*
X67328188Y-32436571D01*
X67328188Y-32436571D02*
X67280569Y-32484190D01*
X67280569Y-32484190D02*
X67232950Y-32579428D01*
X67232950Y-32579428D02*
X67232950Y-32865142D01*
X67232950Y-32865142D02*
X67280569Y-32960380D01*
X67280569Y-32960380D02*
X67328188Y-33008000D01*
X67328188Y-33008000D02*
X67423426Y-33055619D01*
X67423426Y-33055619D02*
X67613902Y-33055619D01*
X67613902Y-33055619D02*
X67709140Y-33008000D01*
X66661521Y-33055619D02*
X66756759Y-33008000D01*
X66756759Y-33008000D02*
X66804378Y-32912761D01*
X66804378Y-32912761D02*
X66804378Y-32055619D01*
X65851997Y-33055619D02*
X65851997Y-32531809D01*
X65851997Y-32531809D02*
X65899616Y-32436571D01*
X65899616Y-32436571D02*
X65994854Y-32388952D01*
X65994854Y-32388952D02*
X66185330Y-32388952D01*
X66185330Y-32388952D02*
X66280568Y-32436571D01*
X65851997Y-33008000D02*
X65947235Y-33055619D01*
X65947235Y-33055619D02*
X66185330Y-33055619D01*
X66185330Y-33055619D02*
X66280568Y-33008000D01*
X66280568Y-33008000D02*
X66328187Y-32912761D01*
X66328187Y-32912761D02*
X66328187Y-32817523D01*
X66328187Y-32817523D02*
X66280568Y-32722285D01*
X66280568Y-32722285D02*
X66185330Y-32674666D01*
X66185330Y-32674666D02*
X65947235Y-32674666D01*
X65947235Y-32674666D02*
X65851997Y-32627047D01*
X65518663Y-32388952D02*
X65137711Y-32388952D01*
X65375806Y-32055619D02*
X65375806Y-32912761D01*
X65375806Y-32912761D02*
X65328187Y-33008000D01*
X65328187Y-33008000D02*
X65232949Y-33055619D01*
X65232949Y-33055619D02*
X65137711Y-33055619D01*
X64423425Y-33008000D02*
X64518663Y-33055619D01*
X64518663Y-33055619D02*
X64709139Y-33055619D01*
X64709139Y-33055619D02*
X64804377Y-33008000D01*
X64804377Y-33008000D02*
X64851996Y-32912761D01*
X64851996Y-32912761D02*
X64851996Y-32531809D01*
X64851996Y-32531809D02*
X64804377Y-32436571D01*
X64804377Y-32436571D02*
X64709139Y-32388952D01*
X64709139Y-32388952D02*
X64518663Y-32388952D01*
X64518663Y-32388952D02*
X64423425Y-32436571D01*
X64423425Y-32436571D02*
X64375806Y-32531809D01*
X64375806Y-32531809D02*
X64375806Y-32627047D01*
X64375806Y-32627047D02*
X64851996Y-32722285D01*
X63280567Y-32388952D02*
X63042472Y-33055619D01*
X63042472Y-33055619D02*
X62804377Y-32388952D01*
X62232948Y-32055619D02*
X62137710Y-32055619D01*
X62137710Y-32055619D02*
X62042472Y-32103238D01*
X62042472Y-32103238D02*
X61994853Y-32150857D01*
X61994853Y-32150857D02*
X61947234Y-32246095D01*
X61947234Y-32246095D02*
X61899615Y-32436571D01*
X61899615Y-32436571D02*
X61899615Y-32674666D01*
X61899615Y-32674666D02*
X61947234Y-32865142D01*
X61947234Y-32865142D02*
X61994853Y-32960380D01*
X61994853Y-32960380D02*
X62042472Y-33008000D01*
X62042472Y-33008000D02*
X62137710Y-33055619D01*
X62137710Y-33055619D02*
X62232948Y-33055619D01*
X62232948Y-33055619D02*
X62328186Y-33008000D01*
X62328186Y-33008000D02*
X62375805Y-32960380D01*
X62375805Y-32960380D02*
X62423424Y-32865142D01*
X62423424Y-32865142D02*
X62471043Y-32674666D01*
X62471043Y-32674666D02*
X62471043Y-32436571D01*
X62471043Y-32436571D02*
X62423424Y-32246095D01*
X62423424Y-32246095D02*
X62375805Y-32150857D01*
X62375805Y-32150857D02*
X62328186Y-32103238D01*
X62328186Y-32103238D02*
X62232948Y-32055619D01*
X85661523Y-34628000D02*
X85518666Y-34675619D01*
X85518666Y-34675619D02*
X85280571Y-34675619D01*
X85280571Y-34675619D02*
X85185333Y-34628000D01*
X85185333Y-34628000D02*
X85137714Y-34580380D01*
X85137714Y-34580380D02*
X85090095Y-34485142D01*
X85090095Y-34485142D02*
X85090095Y-34389904D01*
X85090095Y-34389904D02*
X85137714Y-34294666D01*
X85137714Y-34294666D02*
X85185333Y-34247047D01*
X85185333Y-34247047D02*
X85280571Y-34199428D01*
X85280571Y-34199428D02*
X85471047Y-34151809D01*
X85471047Y-34151809D02*
X85566285Y-34104190D01*
X85566285Y-34104190D02*
X85613904Y-34056571D01*
X85613904Y-34056571D02*
X85661523Y-33961333D01*
X85661523Y-33961333D02*
X85661523Y-33866095D01*
X85661523Y-33866095D02*
X85613904Y-33770857D01*
X85613904Y-33770857D02*
X85566285Y-33723238D01*
X85566285Y-33723238D02*
X85471047Y-33675619D01*
X85471047Y-33675619D02*
X85232952Y-33675619D01*
X85232952Y-33675619D02*
X85090095Y-33723238D01*
X84804380Y-33675619D02*
X84471047Y-34675619D01*
X84471047Y-34675619D02*
X84137714Y-33675619D01*
X83280571Y-33723238D02*
X83375809Y-33675619D01*
X83375809Y-33675619D02*
X83518666Y-33675619D01*
X83518666Y-33675619D02*
X83661523Y-33723238D01*
X83661523Y-33723238D02*
X83756761Y-33818476D01*
X83756761Y-33818476D02*
X83804380Y-33913714D01*
X83804380Y-33913714D02*
X83851999Y-34104190D01*
X83851999Y-34104190D02*
X83851999Y-34247047D01*
X83851999Y-34247047D02*
X83804380Y-34437523D01*
X83804380Y-34437523D02*
X83756761Y-34532761D01*
X83756761Y-34532761D02*
X83661523Y-34628000D01*
X83661523Y-34628000D02*
X83518666Y-34675619D01*
X83518666Y-34675619D02*
X83423428Y-34675619D01*
X83423428Y-34675619D02*
X83280571Y-34628000D01*
X83280571Y-34628000D02*
X83232952Y-34580380D01*
X83232952Y-34580380D02*
X83232952Y-34247047D01*
X83232952Y-34247047D02*
X83423428Y-34247047D01*
X82090094Y-34628000D02*
X81947237Y-34675619D01*
X81947237Y-34675619D02*
X81709142Y-34675619D01*
X81709142Y-34675619D02*
X81613904Y-34628000D01*
X81613904Y-34628000D02*
X81566285Y-34580380D01*
X81566285Y-34580380D02*
X81518666Y-34485142D01*
X81518666Y-34485142D02*
X81518666Y-34389904D01*
X81518666Y-34389904D02*
X81566285Y-34294666D01*
X81566285Y-34294666D02*
X81613904Y-34247047D01*
X81613904Y-34247047D02*
X81709142Y-34199428D01*
X81709142Y-34199428D02*
X81899618Y-34151809D01*
X81899618Y-34151809D02*
X81994856Y-34104190D01*
X81994856Y-34104190D02*
X82042475Y-34056571D01*
X82042475Y-34056571D02*
X82090094Y-33961333D01*
X82090094Y-33961333D02*
X82090094Y-33866095D01*
X82090094Y-33866095D02*
X82042475Y-33770857D01*
X82042475Y-33770857D02*
X81994856Y-33723238D01*
X81994856Y-33723238D02*
X81899618Y-33675619D01*
X81899618Y-33675619D02*
X81661523Y-33675619D01*
X81661523Y-33675619D02*
X81518666Y-33723238D01*
X81185332Y-34008952D02*
X80947237Y-34675619D01*
X80709142Y-34008952D02*
X80947237Y-34675619D01*
X80947237Y-34675619D02*
X81042475Y-34913714D01*
X81042475Y-34913714D02*
X81090094Y-34961333D01*
X81090094Y-34961333D02*
X81185332Y-35008952D01*
X80328189Y-34008952D02*
X80328189Y-34675619D01*
X80328189Y-34104190D02*
X80280570Y-34056571D01*
X80280570Y-34056571D02*
X80185332Y-34008952D01*
X80185332Y-34008952D02*
X80042475Y-34008952D01*
X80042475Y-34008952D02*
X79947237Y-34056571D01*
X79947237Y-34056571D02*
X79899618Y-34151809D01*
X79899618Y-34151809D02*
X79899618Y-34675619D01*
X79566284Y-34008952D02*
X79185332Y-34008952D01*
X79423427Y-33675619D02*
X79423427Y-34532761D01*
X79423427Y-34532761D02*
X79375808Y-34628000D01*
X79375808Y-34628000D02*
X79280570Y-34675619D01*
X79280570Y-34675619D02*
X79185332Y-34675619D01*
X78851998Y-34675619D02*
X78851998Y-33675619D01*
X78423427Y-34675619D02*
X78423427Y-34151809D01*
X78423427Y-34151809D02*
X78471046Y-34056571D01*
X78471046Y-34056571D02*
X78566284Y-34008952D01*
X78566284Y-34008952D02*
X78709141Y-34008952D01*
X78709141Y-34008952D02*
X78804379Y-34056571D01*
X78804379Y-34056571D02*
X78851998Y-34104190D01*
X77566284Y-34628000D02*
X77661522Y-34675619D01*
X77661522Y-34675619D02*
X77851998Y-34675619D01*
X77851998Y-34675619D02*
X77947236Y-34628000D01*
X77947236Y-34628000D02*
X77994855Y-34532761D01*
X77994855Y-34532761D02*
X77994855Y-34151809D01*
X77994855Y-34151809D02*
X77947236Y-34056571D01*
X77947236Y-34056571D02*
X77851998Y-34008952D01*
X77851998Y-34008952D02*
X77661522Y-34008952D01*
X77661522Y-34008952D02*
X77566284Y-34056571D01*
X77566284Y-34056571D02*
X77518665Y-34151809D01*
X77518665Y-34151809D02*
X77518665Y-34247047D01*
X77518665Y-34247047D02*
X77994855Y-34342285D01*
X77137712Y-34628000D02*
X77042474Y-34675619D01*
X77042474Y-34675619D02*
X76851998Y-34675619D01*
X76851998Y-34675619D02*
X76756760Y-34628000D01*
X76756760Y-34628000D02*
X76709141Y-34532761D01*
X76709141Y-34532761D02*
X76709141Y-34485142D01*
X76709141Y-34485142D02*
X76756760Y-34389904D01*
X76756760Y-34389904D02*
X76851998Y-34342285D01*
X76851998Y-34342285D02*
X76994855Y-34342285D01*
X76994855Y-34342285D02*
X77090093Y-34294666D01*
X77090093Y-34294666D02*
X77137712Y-34199428D01*
X77137712Y-34199428D02*
X77137712Y-34151809D01*
X77137712Y-34151809D02*
X77090093Y-34056571D01*
X77090093Y-34056571D02*
X76994855Y-34008952D01*
X76994855Y-34008952D02*
X76851998Y-34008952D01*
X76851998Y-34008952D02*
X76756760Y-34056571D01*
X76280569Y-34675619D02*
X76280569Y-34008952D01*
X76280569Y-33675619D02*
X76328188Y-33723238D01*
X76328188Y-33723238D02*
X76280569Y-33770857D01*
X76280569Y-33770857D02*
X76232950Y-33723238D01*
X76232950Y-33723238D02*
X76280569Y-33675619D01*
X76280569Y-33675619D02*
X76280569Y-33770857D01*
X75851998Y-34628000D02*
X75756760Y-34675619D01*
X75756760Y-34675619D02*
X75566284Y-34675619D01*
X75566284Y-34675619D02*
X75471046Y-34628000D01*
X75471046Y-34628000D02*
X75423427Y-34532761D01*
X75423427Y-34532761D02*
X75423427Y-34485142D01*
X75423427Y-34485142D02*
X75471046Y-34389904D01*
X75471046Y-34389904D02*
X75566284Y-34342285D01*
X75566284Y-34342285D02*
X75709141Y-34342285D01*
X75709141Y-34342285D02*
X75804379Y-34294666D01*
X75804379Y-34294666D02*
X75851998Y-34199428D01*
X75851998Y-34199428D02*
X75851998Y-34151809D01*
X75851998Y-34151809D02*
X75804379Y-34056571D01*
X75804379Y-34056571D02*
X75709141Y-34008952D01*
X75709141Y-34008952D02*
X75566284Y-34008952D01*
X75566284Y-34008952D02*
X75471046Y-34056571D01*
D11*
%TO.C,REF\u002A\u002A*%
X75514200Y-139192000D03*
%TD*%
%TO.C,REF\u002A\u002A*%
X103454200Y-139192000D03*
%TD*%
D12*
%TO.C,REF\u002A\u002A*%
X50088800Y-101752400D03*
%TD*%
%TO.C,REF\u002A\u002A*%
X100888800Y-101752400D03*
%TD*%
D11*
%TO.C,REF\u002A\u002A*%
X89484200Y-139192000D03*
%TD*%
%TO.C,REF\u002A\u002A*%
X75514200Y-125349000D03*
%TD*%
D13*
%TO.C,REF\u002A\u002A*%
X75488800Y-108102400D03*
%TD*%
D14*
%TO.C,REF\u002A\u002A*%
X85902800Y-104292400D03*
%TD*%
D11*
%TO.C,REF\u002A\u002A*%
X47574200Y-139192000D03*
%TD*%
D15*
%TO.C,REF\u002A\u002A*%
X79933800Y-101244400D03*
%TD*%
D16*
%TO.C,REF\u002A\u002A*%
X50088800Y-32969200D03*
%TD*%
%TO.C,REF\u002A\u002A*%
X50088800Y-155524200D03*
%TD*%
D12*
%TO.C,REF\u002A\u002A*%
X100888800Y-73812400D03*
%TD*%
D11*
%TO.C,REF\u002A\u002A*%
X61544200Y-125349000D03*
%TD*%
D14*
%TO.C,REF\u002A\u002A*%
X65074800Y-104292400D03*
%TD*%
D11*
%TO.C,REF\u002A\u002A*%
X75514200Y-139192000D03*
%TD*%
D12*
%TO.C,REF\u002A\u002A*%
X100888800Y-45872400D03*
%TD*%
D11*
%TO.C,REF\u002A\u002A*%
X47574200Y-125349000D03*
%TD*%
D16*
%TO.C,REF\u002A\u002A*%
X100888800Y-155524200D03*
%TD*%
%TO.C,REF\u002A\u002A*%
X100888800Y-32969200D03*
%TD*%
D12*
%TO.C,REF\u002A\u002A*%
X50088800Y-73812400D03*
%TD*%
D11*
%TO.C,REF\u002A\u002A*%
X89484200Y-125349000D03*
%TD*%
%TO.C,REF\u002A\u002A*%
X103454200Y-125349000D03*
%TD*%
D15*
%TO.C,REF\u002A\u002A*%
X71043800Y-101244400D03*
%TD*%
D12*
%TO.C,REF\u002A\u002A*%
X75488800Y-87782400D03*
%TD*%
D11*
%TO.C,REF\u002A\u002A*%
X75514200Y-125349000D03*
%TD*%
%TO.C,REF\u002A\u002A*%
X61544200Y-139192000D03*
%TD*%
D12*
%TO.C,REF\u002A\u002A*%
X50088800Y-45872400D03*
%TD*%
%TO.C,REF\u002A\u002A*%
X75488800Y-59842400D03*
%TD*%
M02*
