%TF.GenerationSoftware,KiCad,Pcbnew,7.0.1*%
%TF.CreationDate,2024-01-09T19:15:50-05:00*%
%TF.ProjectId,daisy_euro,64616973-795f-4657-9572-6f2e6b696361,rev?*%
%TF.SameCoordinates,Original*%
%TF.FileFunction,Soldermask,Top*%
%TF.FilePolarity,Negative*%
%FSLAX46Y46*%
G04 Gerber Fmt 4.6, Leading zero omitted, Abs format (unit mm)*
G04 Created by KiCad (PCBNEW 7.0.1) date 2024-01-09 19:15:50*
%MOMM*%
%LPD*%
G01*
G04 APERTURE LIST*
%ADD10C,3.000000*%
%ADD11C,2.000000*%
%ADD12R,1.800000X1.800000*%
%ADD13C,1.800000*%
%ADD14R,1.700000X1.700000*%
%ADD15C,1.700000*%
%ADD16O,2.720000X3.240000*%
%ADD17C,2.032000*%
%ADD18O,1.700000X1.700000*%
%ADD19C,1.524000*%
G04 APERTURE END LIST*
D10*
%TO.C,J2*%
X49530000Y-128270000D03*
D11*
X49530000Y-121790000D03*
X49530000Y-133190000D03*
X49530000Y-124890000D03*
%TD*%
D12*
%TO.C,D3*%
X59055000Y-105415000D03*
D13*
X59055000Y-102875000D03*
%TD*%
D14*
%TO.C,SW1*%
X60250000Y-108748000D03*
D15*
X66750000Y-108748000D03*
X60250000Y-113248000D03*
X66750000Y-113248000D03*
%TD*%
D16*
%TO.C,RV2*%
X33340000Y-76708000D03*
X42940000Y-76708000D03*
D12*
X35640000Y-84208000D03*
D13*
X38140000Y-84208000D03*
X40640000Y-84208000D03*
%TD*%
D10*
%TO.C,J7*%
X49530000Y-142080000D03*
D11*
X49530000Y-148560000D03*
X49530000Y-137160000D03*
X49530000Y-145460000D03*
%TD*%
D10*
%TO.C,J1*%
X35560000Y-128270000D03*
D11*
X35560000Y-121790000D03*
X35560000Y-133190000D03*
X35560000Y-124890000D03*
%TD*%
D10*
%TO.C,J8*%
X63500000Y-142080000D03*
D11*
X63500000Y-148560000D03*
X63500000Y-137160000D03*
X63500000Y-145460000D03*
%TD*%
D16*
%TO.C,RV6*%
X84100000Y-48795000D03*
X93700000Y-48795000D03*
D12*
X86400000Y-56295000D03*
D13*
X88900000Y-56295000D03*
X91400000Y-56295000D03*
%TD*%
D10*
%TO.C,J4*%
X77470000Y-128270000D03*
D11*
X77470000Y-121790000D03*
X77470000Y-133190000D03*
X77470000Y-124890000D03*
%TD*%
D16*
%TO.C,RV3*%
X33274000Y-104648000D03*
X42874000Y-104648000D03*
D12*
X35574000Y-112148000D03*
D13*
X38074000Y-112148000D03*
X40574000Y-112148000D03*
%TD*%
D17*
%TO.C,SW2*%
X53086000Y-104648000D03*
X53086000Y-107188000D03*
X53086000Y-109728000D03*
%TD*%
%TO.C,SW3*%
X73914000Y-104648000D03*
X73914000Y-107188000D03*
X73914000Y-109728000D03*
%TD*%
D10*
%TO.C,J10*%
X91440000Y-142080000D03*
D11*
X91440000Y-148560000D03*
X91440000Y-137160000D03*
X91440000Y-145460000D03*
%TD*%
D10*
%TO.C,J6*%
X35560000Y-142080000D03*
D11*
X35560000Y-148560000D03*
X35560000Y-137160000D03*
X35560000Y-145460000D03*
%TD*%
D16*
%TO.C,RV7*%
X84126000Y-76711000D03*
X93726000Y-76711000D03*
D12*
X86426000Y-84211000D03*
D13*
X88926000Y-84211000D03*
X91426000Y-84211000D03*
%TD*%
D12*
%TO.C,D4*%
X67945000Y-105410000D03*
D13*
X67945000Y-102870000D03*
%TD*%
D16*
%TO.C,RV4*%
X58726000Y-62741000D03*
X68326000Y-62741000D03*
D12*
X61026000Y-70241000D03*
D13*
X63526000Y-70241000D03*
X66026000Y-70241000D03*
%TD*%
D10*
%TO.C,J9*%
X77470000Y-142080000D03*
D11*
X77470000Y-148560000D03*
X77470000Y-137160000D03*
X77470000Y-145460000D03*
%TD*%
D10*
%TO.C,J5*%
X91440000Y-128270000D03*
D11*
X91440000Y-121790000D03*
X91440000Y-133190000D03*
X91440000Y-124890000D03*
%TD*%
D16*
%TO.C,RV1*%
X33300000Y-48795000D03*
X42900000Y-48795000D03*
D12*
X35600000Y-56295000D03*
D13*
X38100000Y-56295000D03*
X40600000Y-56295000D03*
%TD*%
D16*
%TO.C,RV5*%
X58700000Y-90681000D03*
X68300000Y-90681000D03*
D12*
X61000000Y-98181000D03*
D13*
X63500000Y-98181000D03*
X66000000Y-98181000D03*
%TD*%
D10*
%TO.C,J3*%
X63500000Y-128270000D03*
D11*
X63500000Y-121790000D03*
X63500000Y-133190000D03*
X63500000Y-124890000D03*
%TD*%
D16*
%TO.C,RV8*%
X84074000Y-104648000D03*
X93674000Y-104648000D03*
D12*
X86374000Y-112148000D03*
D13*
X88874000Y-112148000D03*
X91374000Y-112148000D03*
%TD*%
D14*
%TO.C,J11*%
X36810000Y-70158000D03*
D18*
X34270000Y-70158000D03*
X36810000Y-67618000D03*
X34270000Y-67618000D03*
X36810000Y-65078000D03*
X34270000Y-65078000D03*
X36810000Y-62538000D03*
X34270000Y-62538000D03*
X36810000Y-59998000D03*
X34270000Y-59998000D03*
%TD*%
D19*
%TO.C,U1*%
X71120000Y-46990000D03*
X71120000Y-49530000D03*
X71120000Y-52070000D03*
X71120000Y-54610000D03*
X71120000Y-57150000D03*
X71120000Y-59690000D03*
X71120000Y-62230000D03*
X71120000Y-64770000D03*
X71120000Y-67310000D03*
X71120000Y-69850000D03*
X71120000Y-72390000D03*
X71120000Y-74930000D03*
X71120000Y-77470000D03*
X71120000Y-80010000D03*
X71120000Y-82550000D03*
X71120000Y-85090000D03*
X71120000Y-87630000D03*
X71120000Y-90170000D03*
X71120000Y-92710000D03*
X71120000Y-95250000D03*
X55880000Y-95250000D03*
X55880000Y-92710000D03*
X55880000Y-90170000D03*
X55880000Y-87630000D03*
X55880000Y-85090000D03*
X55880000Y-82550000D03*
X55880000Y-80010000D03*
X55880000Y-77470000D03*
X55880000Y-74930000D03*
X55880000Y-72390000D03*
X55880000Y-69850000D03*
X55880000Y-67310000D03*
X55880000Y-64770000D03*
X55880000Y-62230000D03*
X55880000Y-59690000D03*
X55880000Y-57150000D03*
X55880000Y-54610000D03*
X55880000Y-52070000D03*
X55880000Y-49530000D03*
X55880000Y-46990000D03*
%TD*%
M02*
