  0
SECTION
  2
HEADER
  9
$ANGBASE
  50
0.0
  9
$ANGDIR
  70
1
  9
$MEASUREMENT
  70
0
  0
ENDSEC
  0
SECTION
  2
TABLES
  0
TABLE
  2
LTYPE
  70
4
  0
LTYPE
  5
40F
  2
CONTINUOUS
  70
0
  3
Solid line
  72
65
  73
0
  40
0.0
  0
LTYPE
  5
410
  2
DASHDOT
 70
0
  3
Dash Dot ____ _ ____ _
 72
65
 73
4
 40
2.0
 49
1.25
 49
-0.25
 49
0.25
 49
-0.25
  0
LTYPE
  5
411
  2
DASHED
 70
0
  3
Dashed __ __ __ __ __
 72
65
 73
2
 40
0.75
 49
0.5
 49
-0.25
  0
LTYPE
  5
43B
  2
DOTTED
 70
0
  3
Dotted .  .  .  .
 72
65
 73
2
 40
0.2
 49
0.0
 49
-0.2
  0
ENDTAB
  0
TABLE
  2
STYLE
  70
4
  0
STYLE
  2
KICAD
  70
0
  40
0
  41
1
  42
1
  50
0
  71
0
  3
isocp.shx
  0
STYLE
  2
KICADB
  70
0
  40
0
  41
1
  42
1
  50
0
  71
0
  3
isocp.shx
  0
STYLE
  2
KICADI
  70
0
  40
0
  41
1
  42
1
  50
15
  71
0
  3
isocp.shx
  0
STYLE
  2
KICADBI
  70
0
  40
0
  41
1
  42
1
  50
15
  71
0
  3
isocp.shx
  0
ENDTAB
  0
TABLE
  2
LAYER
  70
1
  0
LAYER
  2
BLACK
  70
0
  62
7
  6
CONTINUOUS
  0
ENDTAB
  0
ENDSEC
  0
SECTION
  2
ENTITIES
0
LINE
8
BLACK
6
CONTINUOUS
10
1.5
20
-1.
11
6.5
21
-1.
0
LINE
8
BLACK
6
CONTINUOUS
10
6.5
20
-1.
11
6.5
21
-6.0599999999999996
0
LINE
8
BLACK
6
CONTINUOUS
10
6.5
20
-6.0599999999999996
11
1.5
21
-6.0599999999999996
0
LINE
8
BLACK
6
CONTINUOUS
10
1.5
20
-6.0599999999999996
11
1.5
21
-1.
0
LINE
8
BLACK
6
CONTINUOUS
10
1.7243937007874015
20
-2.4330551181102362
11
1.9763937007874015
21
-2.685055118110236
0
LINE
8
BLACK
6
CONTINUOUS
10
1.9763937007874015
20
-2.4330551181102362
11
1.7243937007874015
21
-2.685055118110236
0
LINE
8
BLACK
6
CONTINUOUS
10
2.1180944881889765
20
-2.4330551181102362
11
2.3700944881889763
21
-2.685055118110236
0
LINE
8
BLACK
6
CONTINUOUS
10
2.3700944881889763
20
-2.4330551181102362
11
2.1180944881889765
21
-2.685055118110236
0
LINE
8
BLACK
6
CONTINUOUS
10
6.0157322834645672
20
-2.9448661417322834
11
6.267732283464567
21
-3.1968661417322832
0
LINE
8
BLACK
6
CONTINUOUS
10
6.267732283464567
20
-2.9448661417322834
11
6.0157322834645672
21
-3.1968661417322832
0
LINE
8
BLACK
6
CONTINUOUS
10
6.0157322834645672
20
-3.4566771653543307
11
6.267732283464567
21
-3.7086771653543305
0
LINE
8
BLACK
6
CONTINUOUS
10
6.267732283464567
20
-3.4566771653543307
11
6.0157322834645672
21
-3.7086771653543305
0
CIRCLE
8
BLACK
10
2.0472440944881889
20
-1.889763779527559
40
0.142
0
CIRCLE
8
BLACK
10
3.3149606299212597
20
-2.9606299212598426
40
0.142
0
CIRCLE
8
BLACK
10
4.0708661417322833
20
-2.9724409448818898
40
0.142
0
CIRCLE
8
BLACK
10
4.7480314960629917
20
-2.9488188976377954
40
0.142
0
LINE
8
BLACK
6
CONTINUOUS
10
1.6016837795275589
20
-6.1836156692913384
11
1.6016837795275589
21
-6.1048755118110236
0
LINE
8
BLACK
6
CONTINUOUS
10
1.6016837795275589
20
-6.1048755118110236
11
1.6204314173228347
21
-6.1048755118110236
0
LINE
8
BLACK
6
CONTINUOUS
10
1.6204314173228347
20
-6.1048755118110236
11
1.6316800393700788
21
-6.1086250393700787
0
LINE
8
BLACK
6
CONTINUOUS
10
1.6316800393700788
20
-6.1086250393700787
11
1.639179094488189
21
-6.1161240944881889
0
LINE
8
BLACK
6
CONTINUOUS
10
1.639179094488189
20
-6.1161240944881889
11
1.6429286220472441
21
-6.1236231496062992
0
LINE
8
BLACK
6
CONTINUOUS
10
1.6429286220472441
20
-6.1236231496062992
11
1.6466781496062992
21
-6.1386212598425196
0
LINE
8
BLACK
6
CONTINUOUS
10
1.6466781496062992
20
-6.1386212598425196
11
1.6466781496062992
21
-6.1498698818897637
0
LINE
8
BLACK
6
CONTINUOUS
10
1.6466781496062992
20
-6.1498698818897637
11
1.6429286220472441
21
-6.1648679921259841
0
LINE
8
BLACK
6
CONTINUOUS
10
1.6429286220472441
20
-6.1648679921259841
11
1.639179094488189
21
-6.1723670472440944
0
LINE
8
BLACK
6
CONTINUOUS
10
1.639179094488189
20
-6.1723670472440944
11
1.6316800393700788
21
-6.1798661417322833
0
LINE
8
BLACK
6
CONTINUOUS
10
1.6316800393700788
20
-6.1798661417322833
11
1.6204314173228347
21
-6.1836156692913384
0
LINE
8
BLACK
6
CONTINUOUS
10
1.6204314173228347
20
-6.1836156692913384
11
1.6016837795275589
21
-6.1836156692913384
0
LINE
8
BLACK
6
CONTINUOUS
10
1.680423937007874
20
-6.1836156692913384
11
1.680423937007874
21
-6.1311222047244094
0
LINE
8
BLACK
6
CONTINUOUS
10
1.680423937007874
20
-6.1461203543307086
11
1.6841734645669291
21
-6.1386212598425196
0
LINE
8
BLACK
6
CONTINUOUS
10
1.6841734645669291
20
-6.1386212598425196
11
1.6879229921259842
21
-6.1348717322834645
0
LINE
8
BLACK
6
CONTINUOUS
10
1.6879229921259842
20
-6.1348717322834645
11
1.6954220472440944
21
-6.1311222047244094
0
LINE
8
BLACK
6
CONTINUOUS
10
1.6954220472440944
20
-6.1311222047244094
11
1.7029211417322834
21
-6.1311222047244094
0
LINE
8
BLACK
6
CONTINUOUS
10
1.7291678346456691
20
-6.1836156692913384
11
1.7291678346456691
21
-6.1311222047244094
0
LINE
8
BLACK
6
CONTINUOUS
10
1.7291678346456691
20
-6.1048755118110236
11
1.725418307086614
21
-6.1086250393700787
0
LINE
8
BLACK
6
CONTINUOUS
10
1.725418307086614
20
-6.1086250393700787
11
1.7291678346456691
21
-6.1123745669291338
0
LINE
8
BLACK
6
CONTINUOUS
10
1.7291678346456691
20
-6.1123745669291338
11
1.7329173622047245
21
-6.1086250393700787
0
LINE
8
BLACK
6
CONTINUOUS
10
1.7329173622047245
20
-6.1086250393700787
11
1.7291678346456691
21
-6.1048755118110236
0
LINE
8
BLACK
6
CONTINUOUS
10
1.7291678346456691
20
-6.1048755118110236
11
1.7291678346456691
21
-6.1123745669291338
0
LINE
8
BLACK
6
CONTINUOUS
10
1.7779117322834646
20
-6.1836156692913384
11
1.7704126771653543
21
-6.1798661417322833
0
LINE
8
BLACK
6
CONTINUOUS
10
1.7704126771653543
20
-6.1798661417322833
11
1.7666631496062992
21
-6.1723670472440944
0
LINE
8
BLACK
6
CONTINUOUS
10
1.7666631496062992
20
-6.1723670472440944
11
1.7666631496062992
21
-6.1048755118110236
0
LINE
8
BLACK
6
CONTINUOUS
10
1.8191565748031495
20
-6.1836156692913384
11
1.8116575196850393
21
-6.1798661417322833
0
LINE
8
BLACK
6
CONTINUOUS
10
1.8116575196850393
20
-6.1798661417322833
11
1.8079079921259842
21
-6.1723670472440944
0
LINE
8
BLACK
6
CONTINUOUS
10
1.8079079921259842
20
-6.1723670472440944
11
1.8079079921259842
21
-6.1048755118110236
0
LINE
8
BLACK
6
CONTINUOUS
10
1.9091453543307086
20
-6.1836156692913384
11
1.9091453543307086
21
-6.1048755118110236
0
LINE
8
BLACK
6
CONTINUOUS
10
1.9091453543307086
20
-6.1048755118110236
11
1.9353920866141732
21
-6.161118464566929
0
LINE
8
BLACK
6
CONTINUOUS
10
1.9353920866141732
20
-6.161118464566929
11
1.9616387795275589
21
-6.1048755118110236
0
LINE
8
BLACK
6
CONTINUOUS
10
1.9616387795275589
20
-6.1048755118110236
11
1.9616387795275589
21
-6.1836156692913384
0
LINE
8
BLACK
6
CONTINUOUS
10
2.0328798818897638
20
-6.1836156692913384
11
2.0328798818897638
21
-6.1423708267716535
0
LINE
8
BLACK
6
CONTINUOUS
10
2.0328798818897638
20
-6.1423708267716535
11
2.0291303543307087
21
-6.1348717322834645
0
LINE
8
BLACK
6
CONTINUOUS
10
2.0291303543307087
20
-6.1348717322834645
11
2.0216312992125984
21
-6.1311222047244094
0
LINE
8
BLACK
6
CONTINUOUS
10
2.0216312992125984
20
-6.1311222047244094
11
2.0066331496062992
21
-6.1311222047244094
0
LINE
8
BLACK
6
CONTINUOUS
10
2.0066331496062992
20
-6.1311222047244094
11
1.999134094488189
21
-6.1348717322834645
0
LINE
8
BLACK
6
CONTINUOUS
10
2.0328798818897638
20
-6.1798661417322833
11
2.0253808267716535
21
-6.1836156692913384
0
LINE
8
BLACK
6
CONTINUOUS
10
2.0253808267716535
20
-6.1836156692913384
11
2.0066331496062992
21
-6.1836156692913384
0
LINE
8
BLACK
6
CONTINUOUS
10
2.0066331496062992
20
-6.1836156692913384
11
1.999134094488189
21
-6.1798661417322833
0
LINE
8
BLACK
6
CONTINUOUS
10
1.999134094488189
20
-6.1798661417322833
11
1.9953845669291339
21
-6.1723670472440944
0
LINE
8
BLACK
6
CONTINUOUS
10
1.9953845669291339
20
-6.1723670472440944
11
1.9953845669291339
21
-6.1648679921259841
0
LINE
8
BLACK
6
CONTINUOUS
10
1.9953845669291339
20
-6.1648679921259841
11
1.999134094488189
21
-6.1573689370078739
0
LINE
8
BLACK
6
CONTINUOUS
10
1.999134094488189
20
-6.1573689370078739
11
2.0066331496062992
21
-6.1536194094488188
0
LINE
8
BLACK
6
CONTINUOUS
10
2.0066331496062992
20
-6.1536194094488188
11
2.0253808267716535
21
-6.1536194094488188
0
LINE
8
BLACK
6
CONTINUOUS
10
2.0253808267716535
20
-6.1536194094488188
11
2.0328798818897638
21
-6.1498698818897637
0
LINE
8
BLACK
6
CONTINUOUS
10
2.0703751968503936
20
-6.1311222047244094
11
2.0703751968503936
21
-6.2098623622047242
0
LINE
8
BLACK
6
CONTINUOUS
10
2.0703751968503936
20
-6.1348717322834645
11
2.0778742519685038
21
-6.1311222047244094
0
LINE
8
BLACK
6
CONTINUOUS
10
2.0778742519685038
20
-6.1311222047244094
11
2.092872401574803
21
-6.1311222047244094
0
LINE
8
BLACK
6
CONTINUOUS
10
2.092872401574803
20
-6.1311222047244094
11
2.1003714566929133
21
-6.1348717322834645
0
LINE
8
BLACK
6
CONTINUOUS
10
2.1003714566929133
20
-6.1348717322834645
11
2.1041209842519684
21
-6.1386212598425196
0
LINE
8
BLACK
6
CONTINUOUS
10
2.1041209842519684
20
-6.1386212598425196
11
2.1078705118110235
21
-6.1461203543307086
0
LINE
8
BLACK
6
CONTINUOUS
10
2.1078705118110235
20
-6.1461203543307086
11
2.1078705118110235
21
-6.1686175196850392
0
LINE
8
BLACK
6
CONTINUOUS
10
2.1078705118110235
20
-6.1686175196850392
11
2.1041209842519684
21
-6.1761165748031495
0
LINE
8
BLACK
6
CONTINUOUS
10
2.1041209842519684
20
-6.1761165748031495
11
2.1003714566929133
21
-6.1798661417322833
0
LINE
8
BLACK
6
CONTINUOUS
10
2.1003714566929133
20
-6.1798661417322833
11
2.092872401574803
21
-6.1836156692913384
0
LINE
8
BLACK
6
CONTINUOUS
10
2.092872401574803
20
-6.1836156692913384
11
2.0778742519685038
21
-6.1836156692913384
0
LINE
8
BLACK
6
CONTINUOUS
10
2.0778742519685038
20
-6.1836156692913384
11
2.0703751968503936
21
-6.1798661417322833
0
LINE
8
BLACK
6
CONTINUOUS
10
2.1416162992125982
20
-6.1761165748031495
11
2.1453658267716533
21
-6.1798661417322833
0
LINE
8
BLACK
6
CONTINUOUS
10
2.1453658267716533
20
-6.1798661417322833
11
2.1416162992125982
21
-6.1836156692913384
0
LINE
8
BLACK
6
CONTINUOUS
10
2.1416162992125982
20
-6.1836156692913384
11
2.1378667716535431
21
-6.1798661417322833
0
LINE
8
BLACK
6
CONTINUOUS
10
2.1378667716535431
20
-6.1798661417322833
11
2.1416162992125982
21
-6.1761165748031495
0
LINE
8
BLACK
6
CONTINUOUS
10
2.1416162992125982
20
-6.1761165748031495
11
2.1416162992125982
21
-6.1836156692913384
0
LINE
8
BLACK
6
CONTINUOUS
10
2.1416162992125982
20
-6.1348717322834645
11
2.1453658267716533
21
-6.1386212598425196
0
LINE
8
BLACK
6
CONTINUOUS
10
2.1453658267716533
20
-6.1386212598425196
11
2.1416162992125982
21
-6.1423708267716535
0
LINE
8
BLACK
6
CONTINUOUS
10
2.1416162992125982
20
-6.1423708267716535
11
2.1378667716535431
21
-6.1386212598425196
0
LINE
8
BLACK
6
CONTINUOUS
10
2.1378667716535431
20
-6.1386212598425196
11
2.1416162992125982
21
-6.1348717322834645
0
LINE
8
BLACK
6
CONTINUOUS
10
2.1416162992125982
20
-6.1348717322834645
11
2.1416162992125982
21
-6.1423708267716535
0
LINE
8
BLACK
6
CONTINUOUS
10
1.420275590551181
20
-6.2735826771653542
11
1.4990157480314961
21
-6.352322834645669
0
LINE
8
BLACK
6
CONTINUOUS
10
1.4990157480314961
20
-6.2735826771653542
11
1.420275590551181
21
-6.352322834645669
0
LINE
8
BLACK
6
CONTINUOUS
10
1.6354295669291339
20
-6.2702298425196847
11
1.6204314173228347
21
-6.2702298425196847
0
LINE
8
BLACK
6
CONTINUOUS
10
1.6204314173228347
20
-6.2702298425196847
11
1.6129323622047245
21
-6.2739793700787398
0
LINE
8
BLACK
6
CONTINUOUS
10
1.6129323622047245
20
-6.2739793700787398
11
1.6091828346456694
21
-6.277728897637795
0
LINE
8
BLACK
6
CONTINUOUS
10
1.6091828346456694
20
-6.277728897637795
11
1.6016837795275589
21
-6.2889774803149603
0
LINE
8
BLACK
6
CONTINUOUS
10
1.6016837795275589
20
-6.2889774803149603
11
1.5979342519685038
21
-6.3039755905511807
0
LINE
8
BLACK
6
CONTINUOUS
10
1.5979342519685038
20
-6.3039755905511807
11
1.5979342519685038
21
-6.3339718503937004
0
LINE
8
BLACK
6
CONTINUOUS
10
1.5979342519685038
20
-6.3339718503937004
11
1.6016837795275589
21
-6.3414709055118106
0
LINE
8
BLACK
6
CONTINUOUS
10
1.6016837795275589
20
-6.3414709055118106
11
1.6054333070866142
21
-6.3452204724409444
0
LINE
8
BLACK
6
CONTINUOUS
10
1.6054333070866142
20
-6.3452204724409444
11
1.6129323622047245
21
-6.3489699999999996
0
LINE
8
BLACK
6
CONTINUOUS
10
1.6129323622047245
20
-6.3489699999999996
11
1.6279305118110237
21
-6.3489699999999996
0
LINE
8
BLACK
6
CONTINUOUS
10
1.6279305118110237
20
-6.3489699999999996
11
1.6354295669291339
21
-6.3452204724409444
0
LINE
8
BLACK
6
CONTINUOUS
10
1.6354295669291339
20
-6.3452204724409444
11
1.639179094488189
21
-6.3414709055118106
0
LINE
8
BLACK
6
CONTINUOUS
10
1.639179094488189
20
-6.3414709055118106
11
1.6429286220472441
21
-6.3339718503937004
0
LINE
8
BLACK
6
CONTINUOUS
10
1.6429286220472441
20
-6.3339718503937004
11
1.6429286220472441
21
-6.3152242125984248
0
LINE
8
BLACK
6
CONTINUOUS
10
1.6429286220472441
20
-6.3152242125984248
11
1.639179094488189
21
-6.3077251574803146
0
LINE
8
BLACK
6
CONTINUOUS
10
1.639179094488189
20
-6.3077251574803146
11
1.6354295669291339
21
-6.3039755905511807
0
LINE
8
BLACK
6
CONTINUOUS
10
1.6354295669291339
20
-6.3039755905511807
11
1.6279305118110237
21
-6.3002260629921256
0
LINE
8
BLACK
6
CONTINUOUS
10
1.6279305118110237
20
-6.3002260629921256
11
1.6129323622047245
21
-6.3002260629921256
0
LINE
8
BLACK
6
CONTINUOUS
10
1.6129323622047245
20
-6.3002260629921256
11
1.6054333070866142
21
-6.3039755905511807
0
LINE
8
BLACK
6
CONTINUOUS
10
1.6054333070866142
20
-6.3039755905511807
11
1.6016837795275589
21
-6.3077251574803146
0
LINE
8
BLACK
6
CONTINUOUS
10
1.6016837795275589
20
-6.3077251574803146
11
1.5979342519685038
21
-6.3152242125984248
0
LINE
8
BLACK
6
CONTINUOUS
10
1.6766744094488188
20
-6.3414709055118106
11
1.680423937007874
21
-6.3452204724409444
0
LINE
8
BLACK
6
CONTINUOUS
10
1.680423937007874
20
-6.3452204724409444
11
1.6766744094488188
21
-6.3489699999999996
0
LINE
8
BLACK
6
CONTINUOUS
10
1.6766744094488188
20
-6.3489699999999996
11
1.6729248818897637
21
-6.3452204724409444
0
LINE
8
BLACK
6
CONTINUOUS
10
1.6729248818897637
20
-6.3452204724409444
11
1.6766744094488188
21
-6.3414709055118106
0
LINE
8
BLACK
6
CONTINUOUS
10
1.6766744094488188
20
-6.3414709055118106
11
1.6766744094488188
21
-6.3489699999999996
0
LINE
8
BLACK
6
CONTINUOUS
10
1.7479155118110237
20
-6.2964765354330705
11
1.7479155118110237
21
-6.3489699999999996
0
LINE
8
BLACK
6
CONTINUOUS
10
1.7291678346456691
20
-6.2664803149606296
11
1.7104201968503936
21
-6.322723267716535
0
LINE
8
BLACK
6
CONTINUOUS
10
1.7104201968503936
20
-6.322723267716535
11
1.759164094488189
21
-6.322723267716535
0
LINE
8
BLACK
6
CONTINUOUS
10
1.8041584645669291
20
-6.2702298425196847
11
1.811657559055118
21
-6.2702298425196847
0
LINE
8
BLACK
6
CONTINUOUS
10
1.811657559055118
20
-6.2702298425196847
11
1.8191566141732283
21
-6.2739793700787398
0
LINE
8
BLACK
6
CONTINUOUS
10
1.8191566141732283
20
-6.2739793700787398
11
1.8229061417322834
21
-6.277728897637795
0
LINE
8
BLACK
6
CONTINUOUS
10
1.8229061417322834
20
-6.277728897637795
11
1.8266556692913385
21
-6.2852279527559052
0
LINE
8
BLACK
6
CONTINUOUS
10
1.8266556692913385
20
-6.2852279527559052
11
1.8304051968503936
21
-6.3002260629921256
0
LINE
8
BLACK
6
CONTINUOUS
10
1.8304051968503936
20
-6.3002260629921256
11
1.8304051968503936
21
-6.3189737401574799
0
LINE
8
BLACK
6
CONTINUOUS
10
1.8304051968503936
20
-6.3189737401574799
11
1.8266556692913385
21
-6.3339718503937004
0
LINE
8
BLACK
6
CONTINUOUS
10
1.8266556692913385
20
-6.3339718503937004
11
1.8229061417322834
21
-6.3414709055118106
0
LINE
8
BLACK
6
CONTINUOUS
10
1.8229061417322834
20
-6.3414709055118106
11
1.8191566141732283
21
-6.3452204724409444
0
LINE
8
BLACK
6
CONTINUOUS
10
1.8191566141732283
20
-6.3452204724409444
11
1.811657559055118
21
-6.3489699999999996
0
LINE
8
BLACK
6
CONTINUOUS
10
1.811657559055118
20
-6.3489699999999996
11
1.8041584645669291
21
-6.3489699999999996
0
LINE
8
BLACK
6
CONTINUOUS
10
1.8041584645669291
20
-6.3489699999999996
11
1.7966594094488189
21
-6.3452204724409444
0
LINE
8
BLACK
6
CONTINUOUS
10
1.7966594094488189
20
-6.3452204724409444
11
1.7929098818897637
21
-6.3414709055118106
0
LINE
8
BLACK
6
CONTINUOUS
10
1.7929098818897637
20
-6.3414709055118106
11
1.7891603543307086
21
-6.3339718503937004
0
LINE
8
BLACK
6
CONTINUOUS
10
1.7891603543307086
20
-6.3339718503937004
11
1.7854108267716535
21
-6.3189737401574799
0
LINE
8
BLACK
6
CONTINUOUS
10
1.7854108267716535
20
-6.3189737401574799
11
1.7854108267716535
21
-6.3002260629921256
0
LINE
8
BLACK
6
CONTINUOUS
10
1.7854108267716535
20
-6.3002260629921256
11
1.7891603543307086
21
-6.2852279527559052
0
LINE
8
BLACK
6
CONTINUOUS
10
1.7891603543307086
20
-6.2852279527559052
11
1.7929098818897637
21
-6.277728897637795
0
LINE
8
BLACK
6
CONTINUOUS
10
1.7929098818897637
20
-6.277728897637795
11
1.7966594094488189
21
-6.2739793700787398
0
LINE
8
BLACK
6
CONTINUOUS
10
1.7966594094488189
20
-6.2739793700787398
11
1.8041584645669291
21
-6.2702298425196847
0
LINE
8
BLACK
6
CONTINUOUS
10
1.9053958267716535
20
-6.3489699999999996
11
1.8604014566929132
21
-6.3489699999999996
0
LINE
8
BLACK
6
CONTINUOUS
10
1.8828986220472441
20
-6.3489699999999996
11
1.8828986220472441
21
-6.2702298425196847
0
LINE
8
BLACK
6
CONTINUOUS
10
1.8828986220472441
20
-6.2702298425196847
11
1.8753995669291339
21
-6.2814784251968501
0
LINE
8
BLACK
6
CONTINUOUS
10
1.8753995669291339
20
-6.2814784251968501
11
1.8679005118110237
21
-6.2889774803149603
0
LINE
8
BLACK
6
CONTINUOUS
10
1.8679005118110237
20
-6.2889774803149603
11
1.8604014566929132
21
-6.2927270078740154
0
LINE
8
BLACK
6
CONTINUOUS
10
1.9391416141732283
20
-6.3489699999999996
11
1.9391416141732283
21
-6.2964765354330705
0
LINE
8
BLACK
6
CONTINUOUS
10
1.9391416141732283
20
-6.3039755905511807
11
1.9428911417322834
21
-6.3002260629921256
0
LINE
8
BLACK
6
CONTINUOUS
10
1.9428911417322834
20
-6.3002260629921256
11
1.9503901968503936
21
-6.2964765354330705
0
LINE
8
BLACK
6
CONTINUOUS
10
1.9503901968503936
20
-6.2964765354330705
11
1.9616388188976377
21
-6.2964765354330705
0
LINE
8
BLACK
6
CONTINUOUS
10
1.9616388188976377
20
-6.2964765354330705
11
1.9691378740157479
21
-6.3002260629921256
0
LINE
8
BLACK
6
CONTINUOUS
10
1.9691378740157479
20
-6.3002260629921256
11
1.972887401574803
21
-6.3077251574803146
0
LINE
8
BLACK
6
CONTINUOUS
10
1.972887401574803
20
-6.3077251574803146
11
1.972887401574803
21
-6.3489699999999996
0
LINE
8
BLACK
6
CONTINUOUS
10
1.972887401574803
20
-6.3077251574803146
11
1.9766369291338581
21
-6.3002260629921256
0
LINE
8
BLACK
6
CONTINUOUS
10
1.9766369291338581
20
-6.3002260629921256
11
1.9841359842519684
21
-6.2964765354330705
0
LINE
8
BLACK
6
CONTINUOUS
10
1.9841359842519684
20
-6.2964765354330705
11
1.9953845669291339
21
-6.2964765354330705
0
LINE
8
BLACK
6
CONTINUOUS
10
1.9953845669291339
20
-6.2964765354330705
11
2.0028836614173229
21
-6.3002260629921256
0
LINE
8
BLACK
6
CONTINUOUS
10
2.0028836614173229
20
-6.3002260629921256
11
2.006633188976378
21
-6.3077251574803146
0
LINE
8
BLACK
6
CONTINUOUS
10
2.006633188976378
20
-6.3077251574803146
11
2.006633188976378
21
-6.3489699999999996
0
LINE
8
BLACK
6
CONTINUOUS
10
2.0441285039370078
20
-6.3489699999999996
11
2.0441285039370078
21
-6.2964765354330705
0
LINE
8
BLACK
6
CONTINUOUS
10
2.0441285039370078
20
-6.3039755905511807
11
2.047878031496063
21
-6.3002260629921256
0
LINE
8
BLACK
6
CONTINUOUS
10
2.047878031496063
20
-6.3002260629921256
11
2.0553770866141732
21
-6.2964765354330705
0
LINE
8
BLACK
6
CONTINUOUS
10
2.0553770866141732
20
-6.2964765354330705
11
2.0666257086614173
21
-6.2964765354330705
0
LINE
8
BLACK
6
CONTINUOUS
10
2.0666257086614173
20
-6.2964765354330705
11
2.0741247637795275
21
-6.3002260629921256
0
LINE
8
BLACK
6
CONTINUOUS
10
2.0741247637795275
20
-6.3002260629921256
11
2.0778742913385826
21
-6.3077251574803146
0
LINE
8
BLACK
6
CONTINUOUS
10
2.0778742913385826
20
-6.3077251574803146
11
2.0778742913385826
21
-6.3489699999999996
0
LINE
8
BLACK
6
CONTINUOUS
10
2.0778742913385826
20
-6.3077251574803146
11
2.0816238188976377
21
-6.3002260629921256
0
LINE
8
BLACK
6
CONTINUOUS
10
2.0816238188976377
20
-6.3002260629921256
11
2.0891228740157479
21
-6.2964765354330705
0
LINE
8
BLACK
6
CONTINUOUS
10
2.0891228740157479
20
-6.2964765354330705
11
2.1003714566929133
21
-6.2964765354330705
0
LINE
8
BLACK
6
CONTINUOUS
10
2.1003714566929133
20
-6.2964765354330705
11
2.1078705511811022
21
-6.3002260629921256
0
LINE
8
BLACK
6
CONTINUOUS
10
2.1078705511811022
20
-6.3002260629921256
11
2.1116200787401573
21
-6.3077251574803146
0
LINE
8
BLACK
6
CONTINUOUS
10
2.1116200787401573
20
-6.3077251574803146
11
2.1116200787401573
21
-6.3489699999999996
0
LINE
8
BLACK
6
CONTINUOUS
10
2.2653508661417323
20
-6.2664803149606296
11
2.1978593307086616
21
-6.3677176377952751
0
LINE
8
BLACK
6
CONTINUOUS
10
2.3665882283464565
20
-6.2702298425196847
11
2.3740873228346455
21
-6.2702298425196847
0
LINE
8
BLACK
6
CONTINUOUS
10
2.3740873228346455
20
-6.2702298425196847
11
2.3815863779527557
21
-6.2739793700787398
0
LINE
8
BLACK
6
CONTINUOUS
10
2.3815863779527557
20
-6.2739793700787398
11
2.3853359055118109
21
-6.277728897637795
0
LINE
8
BLACK
6
CONTINUOUS
10
2.3853359055118109
20
-6.277728897637795
11
2.389085433070866
21
-6.2852279527559052
0
LINE
8
BLACK
6
CONTINUOUS
10
2.389085433070866
20
-6.2852279527559052
11
2.3928349606299211
21
-6.3002260629921256
0
LINE
8
BLACK
6
CONTINUOUS
10
2.3928349606299211
20
-6.3002260629921256
11
2.3928349606299211
21
-6.3189737401574799
0
LINE
8
BLACK
6
CONTINUOUS
10
2.3928349606299211
20
-6.3189737401574799
11
2.389085433070866
21
-6.3339718503937004
0
LINE
8
BLACK
6
CONTINUOUS
10
2.389085433070866
20
-6.3339718503937004
11
2.3853359055118109
21
-6.3414709055118106
0
LINE
8
BLACK
6
CONTINUOUS
10
2.3853359055118109
20
-6.3414709055118106
11
2.3815863779527557
21
-6.3452204724409444
0
LINE
8
BLACK
6
CONTINUOUS
10
2.3815863779527557
20
-6.3452204724409444
11
2.3740873228346455
21
-6.3489699999999996
0
LINE
8
BLACK
6
CONTINUOUS
10
2.3740873228346455
20
-6.3489699999999996
11
2.3665882283464565
21
-6.3489699999999996
0
LINE
8
BLACK
6
CONTINUOUS
10
2.3665882283464565
20
-6.3489699999999996
11
2.3590891732283463
21
-6.3452204724409444
0
LINE
8
BLACK
6
CONTINUOUS
10
2.3590891732283463
20
-6.3452204724409444
11
2.3553396456692912
21
-6.3414709055118106
0
LINE
8
BLACK
6
CONTINUOUS
10
2.3553396456692912
20
-6.3414709055118106
11
2.3515901181102361
21
-6.3339718503937004
0
LINE
8
BLACK
6
CONTINUOUS
10
2.3515901181102361
20
-6.3339718503937004
11
2.347840590551181
21
-6.3189737401574799
0
LINE
8
BLACK
6
CONTINUOUS
10
2.347840590551181
20
-6.3189737401574799
11
2.347840590551181
21
-6.3002260629921256
0
LINE
8
BLACK
6
CONTINUOUS
10
2.347840590551181
20
-6.3002260629921256
11
2.3515901181102361
21
-6.2852279527559052
0
LINE
8
BLACK
6
CONTINUOUS
10
2.3515901181102361
20
-6.2852279527559052
11
2.3553396456692912
21
-6.277728897637795
0
LINE
8
BLACK
6
CONTINUOUS
10
2.3553396456692912
20
-6.277728897637795
11
2.3590891732283463
21
-6.2739793700787398
0
LINE
8
BLACK
6
CONTINUOUS
10
2.3590891732283463
20
-6.2739793700787398
11
2.3665882283464565
21
-6.2702298425196847
0
LINE
8
BLACK
6
CONTINUOUS
10
2.4265807480314958
20
-6.3414709055118106
11
2.4303302755905509
21
-6.3452204724409444
0
LINE
8
BLACK
6
CONTINUOUS
10
2.4303302755905509
20
-6.3452204724409444
11
2.4265807480314958
21
-6.3489699999999996
0
LINE
8
BLACK
6
CONTINUOUS
10
2.4265807480314958
20
-6.3489699999999996
11
2.4228312204724407
21
-6.3452204724409444
0
LINE
8
BLACK
6
CONTINUOUS
10
2.4228312204724407
20
-6.3452204724409444
11
2.4265807480314958
21
-6.3414709055118106
0
LINE
8
BLACK
6
CONTINUOUS
10
2.4265807480314958
20
-6.3414709055118106
11
2.4265807480314958
21
-6.3489699999999996
0
LINE
8
BLACK
6
CONTINUOUS
10
2.460326535433071
20
-6.277728897637795
11
2.4640760629921261
21
-6.2739793700787398
0
LINE
8
BLACK
6
CONTINUOUS
10
2.4640760629921261
20
-6.2739793700787398
11
2.4715751181102363
21
-6.2702298425196847
0
LINE
8
BLACK
6
CONTINUOUS
10
2.4715751181102363
20
-6.2702298425196847
11
2.4903227952755906
21
-6.2702298425196847
0
LINE
8
BLACK
6
CONTINUOUS
10
2.4903227952755906
20
-6.2702298425196847
11
2.4978218503937009
21
-6.2739793700787398
0
LINE
8
BLACK
6
CONTINUOUS
10
2.4978218503937009
20
-6.2739793700787398
11
2.501571377952756
21
-6.277728897637795
0
LINE
8
BLACK
6
CONTINUOUS
10
2.501571377952756
20
-6.277728897637795
11
2.5053209055118111
21
-6.2852279527559052
0
LINE
8
BLACK
6
CONTINUOUS
10
2.5053209055118111
20
-6.2852279527559052
11
2.5053209055118111
21
-6.2927270078740154
0
LINE
8
BLACK
6
CONTINUOUS
10
2.5053209055118111
20
-6.2927270078740154
11
2.501571377952756
21
-6.3039755905511807
0
LINE
8
BLACK
6
CONTINUOUS
10
2.501571377952756
20
-6.3039755905511807
11
2.4565770078740159
21
-6.3489699999999996
0
LINE
8
BLACK
6
CONTINUOUS
10
2.4565770078740159
20
-6.3489699999999996
11
2.5053209055118111
21
-6.3489699999999996
0
LINE
8
BLACK
6
CONTINUOUS
10
2.5765620078740157
20
-6.2702298425196847
11
2.5390666929133858
21
-6.2702298425196847
0
LINE
8
BLACK
6
CONTINUOUS
10
2.5390666929133858
20
-6.2702298425196847
11
2.5353171653543307
21
-6.3077251574803146
0
LINE
8
BLACK
6
CONTINUOUS
10
2.5353171653543307
20
-6.3077251574803146
11
2.5390666929133858
21
-6.3039755905511807
0
LINE
8
BLACK
6
CONTINUOUS
10
2.5390666929133858
20
-6.3039755905511807
11
2.546565748031496
21
-6.3002260629921256
0
LINE
8
BLACK
6
CONTINUOUS
10
2.546565748031496
20
-6.3002260629921256
11
2.5653134251968503
21
-6.3002260629921256
0
LINE
8
BLACK
6
CONTINUOUS
10
2.5653134251968503
20
-6.3002260629921256
11
2.5728124803149606
21
-6.3039755905511807
0
LINE
8
BLACK
6
CONTINUOUS
10
2.5728124803149606
20
-6.3039755905511807
11
2.5765620078740157
21
-6.3077251574803146
0
LINE
8
BLACK
6
CONTINUOUS
10
2.5765620078740157
20
-6.3077251574803146
11
2.5803115354330708
21
-6.3152242125984248
0
LINE
8
BLACK
6
CONTINUOUS
10
2.5803115354330708
20
-6.3152242125984248
11
2.5803115354330708
21
-6.3339718503937004
0
LINE
8
BLACK
6
CONTINUOUS
10
2.5803115354330708
20
-6.3339718503937004
11
2.5765620078740157
21
-6.3414709055118106
0
LINE
8
BLACK
6
CONTINUOUS
10
2.5765620078740157
20
-6.3414709055118106
11
2.5728124803149606
21
-6.3452204724409444
0
LINE
8
BLACK
6
CONTINUOUS
10
2.5728124803149606
20
-6.3452204724409444
11
2.5653134251968503
21
-6.3489699999999996
0
LINE
8
BLACK
6
CONTINUOUS
10
2.5653134251968503
20
-6.3489699999999996
11
2.546565748031496
21
-6.3489699999999996
0
LINE
8
BLACK
6
CONTINUOUS
10
2.546565748031496
20
-6.3489699999999996
11
2.5390666929133858
21
-6.3452204724409444
0
LINE
8
BLACK
6
CONTINUOUS
10
2.5390666929133858
20
-6.3452204724409444
11
2.5353171653543307
21
-6.3414709055118106
0
LINE
8
BLACK
6
CONTINUOUS
10
2.6103077952755904
20
-6.277728897637795
11
2.6140573228346455
21
-6.2739793700787398
0
LINE
8
BLACK
6
CONTINUOUS
10
2.6140573228346455
20
-6.2739793700787398
11
2.6215563779527558
21
-6.2702298425196847
0
LINE
8
BLACK
6
CONTINUOUS
10
2.6215563779527558
20
-6.2702298425196847
11
2.6403040551181101
21
-6.2702298425196847
0
LINE
8
BLACK
6
CONTINUOUS
10
2.6403040551181101
20
-6.2702298425196847
11
2.6478031102362203
21
-6.2739793700787398
0
LINE
8
BLACK
6
CONTINUOUS
10
2.6478031102362203
20
-6.2739793700787398
11
2.6515526377952754
21
-6.277728897637795
0
LINE
8
BLACK
6
CONTINUOUS
10
2.6515526377952754
20
-6.277728897637795
11
2.6553021653543305
21
-6.2852279527559052
0
LINE
8
BLACK
6
CONTINUOUS
10
2.6553021653543305
20
-6.2852279527559052
11
2.6553021653543305
21
-6.2927270078740154
0
LINE
8
BLACK
6
CONTINUOUS
10
2.6553021653543305
20
-6.2927270078740154
11
2.6515526377952754
21
-6.3039755905511807
0
LINE
8
BLACK
6
CONTINUOUS
10
2.6515526377952754
20
-6.3039755905511807
11
2.6065582677165353
21
-6.3489699999999996
0
LINE
8
BLACK
6
CONTINUOUS
10
2.6065582677165353
20
-6.3489699999999996
11
2.6553021653543305
21
-6.3489699999999996
0
LINE
8
BLACK
6
CONTINUOUS
10
2.7040460629921261
20
-6.2702298425196847
11
2.7115451574803151
21
-6.2702298425196847
0
LINE
8
BLACK
6
CONTINUOUS
10
2.7115451574803151
20
-6.2702298425196847
11
2.7190442125984253
21
-6.2739793700787398
0
LINE
8
BLACK
6
CONTINUOUS
10
2.7190442125984253
20
-6.2739793700787398
11
2.7227937401574804
21
-6.277728897637795
0
LINE
8
BLACK
6
CONTINUOUS
10
2.7227937401574804
20
-6.277728897637795
11
2.7265432677165355
21
-6.2852279527559052
0
LINE
8
BLACK
6
CONTINUOUS
10
2.7265432677165355
20
-6.2852279527559052
11
2.7302927952755907
21
-6.3002260629921256
0
LINE
8
BLACK
6
CONTINUOUS
10
2.7302927952755907
20
-6.3002260629921256
11
2.7302927952755907
21
-6.3189737401574799
0
LINE
8
BLACK
6
CONTINUOUS
10
2.7302927952755907
20
-6.3189737401574799
11
2.7265432677165355
21
-6.3339718503937004
0
LINE
8
BLACK
6
CONTINUOUS
10
2.7265432677165355
20
-6.3339718503937004
11
2.7227937401574804
21
-6.3414709055118106
0
LINE
8
BLACK
6
CONTINUOUS
10
2.7227937401574804
20
-6.3414709055118106
11
2.7190442125984253
21
-6.3452204724409444
0
LINE
8
BLACK
6
CONTINUOUS
10
2.7190442125984253
20
-6.3452204724409444
11
2.7115451574803151
21
-6.3489699999999996
0
LINE
8
BLACK
6
CONTINUOUS
10
2.7115451574803151
20
-6.3489699999999996
11
2.7040460629921261
21
-6.3489699999999996
0
LINE
8
BLACK
6
CONTINUOUS
10
2.7040460629921261
20
-6.3489699999999996
11
2.6965470078740155
21
-6.3452204724409444
0
LINE
8
BLACK
6
CONTINUOUS
10
2.6965470078740155
20
-6.3452204724409444
11
2.6927974803149604
21
-6.3414709055118106
0
LINE
8
BLACK
6
CONTINUOUS
10
2.6927974803149604
20
-6.3414709055118106
11
2.6890479527559052
21
-6.3339718503937004
0
LINE
8
BLACK
6
CONTINUOUS
10
2.6890479527559052
20
-6.3339718503937004
11
2.6852984251968501
21
-6.3189737401574799
0
LINE
8
BLACK
6
CONTINUOUS
10
2.6852984251968501
20
-6.3189737401574799
11
2.6852984251968501
21
-6.3002260629921256
0
LINE
8
BLACK
6
CONTINUOUS
10
2.6852984251968501
20
-6.3002260629921256
11
2.6890479527559052
21
-6.2852279527559052
0
LINE
8
BLACK
6
CONTINUOUS
10
2.6890479527559052
20
-6.2852279527559052
11
2.6927974803149604
21
-6.277728897637795
0
LINE
8
BLACK
6
CONTINUOUS
10
2.6927974803149604
20
-6.277728897637795
11
2.6965470078740155
21
-6.2739793700787398
0
LINE
8
BLACK
6
CONTINUOUS
10
2.6965470078740155
20
-6.2739793700787398
11
2.7040460629921261
21
-6.2702298425196847
0
LINE
8
BLACK
6
CONTINUOUS
10
2.7602890551181103
20
-6.2702298425196847
11
2.7602890551181103
21
-6.2852279527559052
0
LINE
8
BLACK
6
CONTINUOUS
10
2.7902853149606299
20
-6.2702298425196847
11
2.7902853149606299
21
-6.2852279527559052
0
LINE
8
BLACK
6
CONTINUOUS
10
2.9065208267716534
20
-6.3789662204724404
11
2.9027712598425195
21
-6.3752166929133853
0
LINE
8
BLACK
6
CONTINUOUS
10
2.9027712598425195
20
-6.3752166929133853
11
2.8952722047244093
21
-6.36396811023622
0
LINE
8
BLACK
6
CONTINUOUS
10
2.8952722047244093
20
-6.36396811023622
11
2.8915226771653542
21
-6.3564690551181098
0
LINE
8
BLACK
6
CONTINUOUS
10
2.8915226771653542
20
-6.3564690551181098
11
2.8877731496062991
21
-6.3452204724409444
0
LINE
8
BLACK
6
CONTINUOUS
10
2.8877731496062991
20
-6.3452204724409444
11
2.8840236220472439
21
-6.3264727952755901
0
LINE
8
BLACK
6
CONTINUOUS
10
2.8840236220472439
20
-6.3264727952755901
11
2.8840236220472439
21
-6.3114746850393697
0
LINE
8
BLACK
6
CONTINUOUS
10
2.8840236220472439
20
-6.3114746850393697
11
2.8877731496062991
21
-6.2927270078740154
0
LINE
8
BLACK
6
CONTINUOUS
10
2.8877731496062991
20
-6.2927270078740154
11
2.8915226771653542
21
-6.2814784251968501
0
LINE
8
BLACK
6
CONTINUOUS
10
2.8915226771653542
20
-6.2814784251968501
11
2.8952722047244093
21
-6.2739793700787398
0
LINE
8
BLACK
6
CONTINUOUS
10
2.8952722047244093
20
-6.2739793700787398
11
2.9027712598425195
21
-6.2627307480314958
0
LINE
8
BLACK
6
CONTINUOUS
10
2.9027712598425195
20
-6.2627307480314958
11
2.9065208267716534
21
-6.2589812204724407
0
LINE
8
BLACK
6
CONTINUOUS
10
2.9702628346456694
20
-6.2964765354330705
11
2.9702628346456694
21
-6.3489699999999996
0
LINE
8
BLACK
6
CONTINUOUS
10
2.9515151574803147
20
-6.2664803149606296
11
2.9327675196850391
21
-6.322723267716535
0
LINE
8
BLACK
6
CONTINUOUS
10
2.9327675196850391
20
-6.322723267716535
11
2.9815114173228348
21
-6.322723267716535
0
LINE
8
BLACK
6
CONTINUOUS
10
3.0715001968503937
20
-6.3489699999999996
11
3.0715001968503937
21
-6.2702298425196847
0
LINE
8
BLACK
6
CONTINUOUS
10
3.1052459842519684
20
-6.3489699999999996
11
3.1052459842519684
21
-6.3077251574803146
0
LINE
8
BLACK
6
CONTINUOUS
10
3.1052459842519684
20
-6.3077251574803146
11
3.1014964566929133
21
-6.3002260629921256
0
LINE
8
BLACK
6
CONTINUOUS
10
3.1014964566929133
20
-6.3002260629921256
11
3.0939974015748031
21
-6.2964765354330705
0
LINE
8
BLACK
6
CONTINUOUS
10
3.0939974015748031
20
-6.2964765354330705
11
3.082748779527559
21
-6.2964765354330705
0
LINE
8
BLACK
6
CONTINUOUS
10
3.082748779527559
20
-6.2964765354330705
11
3.0752497244094488
21
-6.3002260629921256
0
LINE
8
BLACK
6
CONTINUOUS
10
3.0752497244094488
20
-6.3002260629921256
11
3.0715001968503937
21
-6.3039755905511807
0
LINE
8
BLACK
6
CONTINUOUS
10
3.1539898818897636
20
-6.3489699999999996
11
3.1464908267716534
21
-6.3452204724409444
0
LINE
8
BLACK
6
CONTINUOUS
10
3.1464908267716534
20
-6.3452204724409444
11
3.1427412992125983
21
-6.3414709055118106
0
LINE
8
BLACK
6
CONTINUOUS
10
3.1427412992125983
20
-6.3414709055118106
11
3.1389917716535432
21
-6.3339718503937004
0
LINE
8
BLACK
6
CONTINUOUS
10
3.1389917716535432
20
-6.3339718503937004
11
3.1389917716535432
21
-6.3114746850393697
0
LINE
8
BLACK
6
CONTINUOUS
10
3.1389917716535432
20
-6.3114746850393697
11
3.1427412992125983
21
-6.3039755905511807
0
LINE
8
BLACK
6
CONTINUOUS
10
3.1427412992125983
20
-6.3039755905511807
11
3.1464908267716534
21
-6.3002260629921256
0
LINE
8
BLACK
6
CONTINUOUS
10
3.1464908267716534
20
-6.3002260629921256
11
3.1539898818897636
21
-6.2964765354330705
0
LINE
8
BLACK
6
CONTINUOUS
10
3.1539898818897636
20
-6.2964765354330705
11
3.1652385039370077
21
-6.2964765354330705
0
LINE
8
BLACK
6
CONTINUOUS
10
3.1652385039370077
20
-6.2964765354330705
11
3.1727375590551179
21
-6.3002260629921256
0
LINE
8
BLACK
6
CONTINUOUS
10
3.1727375590551179
20
-6.3002260629921256
11
3.176487086614173
21
-6.3039755905511807
0
LINE
8
BLACK
6
CONTINUOUS
10
3.176487086614173
20
-6.3039755905511807
11
3.1802366141732281
21
-6.3114746850393697
0
LINE
8
BLACK
6
CONTINUOUS
10
3.1802366141732281
20
-6.3114746850393697
11
3.1802366141732281
21
-6.3339718503937004
0
LINE
8
BLACK
6
CONTINUOUS
10
3.1802366141732281
20
-6.3339718503937004
11
3.176487086614173
21
-6.3414709055118106
0
LINE
8
BLACK
6
CONTINUOUS
10
3.176487086614173
20
-6.3414709055118106
11
3.1727375590551179
21
-6.3452204724409444
0
LINE
8
BLACK
6
CONTINUOUS
10
3.1727375590551179
20
-6.3452204724409444
11
3.1652385039370077
21
-6.3489699999999996
0
LINE
8
BLACK
6
CONTINUOUS
10
3.1652385039370077
20
-6.3489699999999996
11
3.1539898818897636
21
-6.3489699999999996
0
LINE
8
BLACK
6
CONTINUOUS
10
3.2252309842519686
20
-6.3489699999999996
11
3.2177319291338584
21
-6.3452204724409444
0
LINE
8
BLACK
6
CONTINUOUS
10
3.2177319291338584
20
-6.3452204724409444
11
3.2139824015748029
21
-6.3377213779527555
0
LINE
8
BLACK
6
CONTINUOUS
10
3.2139824015748029
20
-6.3377213779527555
11
3.2139824015748029
21
-6.2702298425196847
0
LINE
8
BLACK
6
CONTINUOUS
10
3.2852235039370079
20
-6.3452204724409444
11
3.2777244488188977
21
-6.3489699999999996
0
LINE
8
BLACK
6
CONTINUOUS
10
3.2777244488188977
20
-6.3489699999999996
11
3.2627262992125985
21
-6.3489699999999996
0
LINE
8
BLACK
6
CONTINUOUS
10
3.2627262992125985
20
-6.3489699999999996
11
3.2552272440944883
21
-6.3452204724409444
0
LINE
8
BLACK
6
CONTINUOUS
10
3.2552272440944883
20
-6.3452204724409444
11
3.2514777165354332
21
-6.3377213779527555
0
LINE
8
BLACK
6
CONTINUOUS
10
3.2514777165354332
20
-6.3377213779527555
11
3.2514777165354332
21
-6.3077251574803146
0
LINE
8
BLACK
6
CONTINUOUS
10
3.2514777165354332
20
-6.3077251574803146
11
3.2552272440944883
21
-6.3002260629921256
0
LINE
8
BLACK
6
CONTINUOUS
10
3.2552272440944883
20
-6.3002260629921256
11
3.2627262992125985
21
-6.2964765354330705
0
LINE
8
BLACK
6
CONTINUOUS
10
3.2627262992125985
20
-6.2964765354330705
11
3.2777244488188977
21
-6.2964765354330705
0
LINE
8
BLACK
6
CONTINUOUS
10
3.2777244488188977
20
-6.2964765354330705
11
3.2852235039370079
21
-6.3002260629921256
0
LINE
8
BLACK
6
CONTINUOUS
10
3.2852235039370079
20
-6.3002260629921256
11
3.288973031496063
21
-6.3077251574803146
0
LINE
8
BLACK
6
CONTINUOUS
10
3.288973031496063
20
-6.3077251574803146
11
3.288973031496063
21
-6.3152242125984248
0
LINE
8
BLACK
6
CONTINUOUS
10
3.288973031496063
20
-6.3152242125984248
11
3.2514777165354332
21
-6.322723267716535
0
LINE
8
BLACK
6
CONTINUOUS
10
3.3189692913385827
20
-6.3452204724409444
11
3.3264683464566929
21
-6.3489699999999996
0
LINE
8
BLACK
6
CONTINUOUS
10
3.3264683464566929
20
-6.3489699999999996
11
3.3414664566929133
21
-6.3489699999999996
0
LINE
8
BLACK
6
CONTINUOUS
10
3.3414664566929133
20
-6.3489699999999996
11
3.3489655511811023
21
-6.3452204724409444
0
LINE
8
BLACK
6
CONTINUOUS
10
3.3489655511811023
20
-6.3452204724409444
11
3.3527150787401574
21
-6.3377213779527555
0
LINE
8
BLACK
6
CONTINUOUS
10
3.3527150787401574
20
-6.3377213779527555
11
3.3527150787401574
21
-6.3339718503937004
0
LINE
8
BLACK
6
CONTINUOUS
10
3.3527150787401574
20
-6.3339718503937004
11
3.3489655511811023
21
-6.3264727952755901
0
LINE
8
BLACK
6
CONTINUOUS
10
3.3489655511811023
20
-6.3264727952755901
11
3.3414664566929133
21
-6.322723267716535
0
LINE
8
BLACK
6
CONTINUOUS
10
3.3414664566929133
20
-6.322723267716535
11
3.330217874015748
21
-6.322723267716535
0
LINE
8
BLACK
6
CONTINUOUS
10
3.330217874015748
20
-6.322723267716535
11
3.3227188188976378
21
-6.3189737401574799
0
LINE
8
BLACK
6
CONTINUOUS
10
3.3227188188976378
20
-6.3189737401574799
11
3.3189692913385827
21
-6.3114746850393697
0
LINE
8
BLACK
6
CONTINUOUS
10
3.3189692913385827
20
-6.3114746850393697
11
3.3189692913385827
21
-6.3077251574803146
0
LINE
8
BLACK
6
CONTINUOUS
10
3.3189692913385827
20
-6.3077251574803146
11
3.3227188188976378
21
-6.3002260629921256
0
LINE
8
BLACK
6
CONTINUOUS
10
3.3227188188976378
20
-6.3002260629921256
11
3.330217874015748
21
-6.2964765354330705
0
LINE
8
BLACK
6
CONTINUOUS
10
3.330217874015748
20
-6.2964765354330705
11
3.3414664566929133
21
-6.2964765354330705
0
LINE
8
BLACK
6
CONTINUOUS
10
3.3414664566929133
20
-6.2964765354330705
11
3.3489655511811023
21
-6.3002260629921256
0
LINE
8
BLACK
6
CONTINUOUS
10
3.3789618110236219
20
-6.3789662204724404
11
3.382711338582677
21
-6.3752166929133853
0
LINE
8
BLACK
6
CONTINUOUS
10
3.382711338582677
20
-6.3752166929133853
11
3.3902103937007873
21
-6.36396811023622
0
LINE
8
BLACK
6
CONTINUOUS
10
3.3902103937007873
20
-6.36396811023622
11
3.3939599212598424
21
-6.3564690551181098
0
LINE
8
BLACK
6
CONTINUOUS
10
3.3939599212598424
20
-6.3564690551181098
11
3.3977094488188975
21
-6.3452204724409444
0
LINE
8
BLACK
6
CONTINUOUS
10
3.3977094488188975
20
-6.3452204724409444
11
3.4014589763779526
21
-6.3264727952755901
0
LINE
8
BLACK
6
CONTINUOUS
10
3.4014589763779526
20
-6.3264727952755901
11
3.4014589763779526
21
-6.3114746850393697
0
LINE
8
BLACK
6
CONTINUOUS
10
3.4014589763779526
20
-6.3114746850393697
11
3.3977094488188975
21
-6.2927270078740154
0
LINE
8
BLACK
6
CONTINUOUS
10
3.3977094488188975
20
-6.2927270078740154
11
3.3939599212598424
21
-6.2814784251968501
0
LINE
8
BLACK
6
CONTINUOUS
10
3.3939599212598424
20
-6.2814784251968501
11
3.3902103937007873
21
-6.2739793700787398
0
LINE
8
BLACK
6
CONTINUOUS
10
3.3902103937007873
20
-6.2739793700787398
11
3.382711338582677
21
-6.2627307480314958
0
LINE
8
BLACK
6
CONTINUOUS
10
3.382711338582677
20
-6.2627307480314958
11
3.3789618110236219
21
-6.2589812204724407
0
CIRCLE
8
BLACK
10
1.4596456692913387
20
-6.4389370078740154
40
0.0393700787401575
0
LINE
8
BLACK
6
CONTINUOUS
10
1.5941847244094487
20
-6.3962140944881885
11
1.6466781496062992
21
-6.3962140944881885
0
LINE
8
BLACK
6
CONTINUOUS
10
1.6466781496062992
20
-6.3962140944881885
11
1.6129323622047245
21
-6.4749542519685042
0
LINE
8
BLACK
6
CONTINUOUS
10
1.6766744094488188
20
-6.4674551574803152
11
1.680423937007874
21
-6.471204724409449
0
LINE
8
BLACK
6
CONTINUOUS
10
1.680423937007874
20
-6.471204724409449
11
1.6766744094488188
21
-6.4749542519685042
0
LINE
8
BLACK
6
CONTINUOUS
10
1.6766744094488188
20
-6.4749542519685042
11
1.6729248818897637
21
-6.471204724409449
0
LINE
8
BLACK
6
CONTINUOUS
10
1.6729248818897637
20
-6.471204724409449
11
1.6766744094488188
21
-6.4674551574803152
0
LINE
8
BLACK
6
CONTINUOUS
10
1.6766744094488188
20
-6.4674551574803152
11
1.6766744094488188
21
-6.4749542519685042
0
LINE
8
BLACK
6
CONTINUOUS
10
1.7104201968503936
20
-6.4037131496062987
11
1.7141697244094487
21
-6.3999636220472436
0
LINE
8
BLACK
6
CONTINUOUS
10
1.7141697244094487
20
-6.3999636220472436
11
1.7216687795275589
21
-6.3962140944881885
0
LINE
8
BLACK
6
CONTINUOUS
10
1.7216687795275589
20
-6.3962140944881885
11
1.7404164566929134
21
-6.3962140944881885
0
LINE
8
BLACK
6
CONTINUOUS
10
1.7404164566929134
20
-6.3962140944881885
11
1.7479155118110237
21
-6.3999636220472436
0
LINE
8
BLACK
6
CONTINUOUS
10
1.7479155118110237
20
-6.3999636220472436
11
1.7516650393700788
21
-6.4037131496062987
0
LINE
8
BLACK
6
CONTINUOUS
10
1.7516650393700788
20
-6.4037131496062987
11
1.7554145669291339
21
-6.4112122047244089
0
LINE
8
BLACK
6
CONTINUOUS
10
1.7554145669291339
20
-6.4112122047244089
11
1.7554145669291339
21
-6.4187112598425191
0
LINE
8
BLACK
6
CONTINUOUS
10
1.7554145669291339
20
-6.4187112598425191
11
1.7516650393700788
21
-6.4299598425196853
0
LINE
8
BLACK
6
CONTINUOUS
10
1.7516650393700788
20
-6.4299598425196853
11
1.7066706692913385
21
-6.4749542519685042
0
LINE
8
BLACK
6
CONTINUOUS
10
1.7066706692913385
20
-6.4749542519685042
11
1.7554145669291339
21
-6.4749542519685042
0
LINE
8
BLACK
6
CONTINUOUS
10
1.8304051968503936
20
-6.4749542519685042
11
1.7854108267716535
21
-6.4749542519685042
0
LINE
8
BLACK
6
CONTINUOUS
10
1.8079079921259842
20
-6.4749542519685042
11
1.8079079921259842
21
-6.3962140944881885
0
LINE
8
BLACK
6
CONTINUOUS
10
1.8079079921259842
20
-6.3962140944881885
11
1.800408937007874
21
-6.4074626771653538
0
LINE
8
BLACK
6
CONTINUOUS
10
1.800408937007874
20
-6.4074626771653538
11
1.7929098818897637
21
-6.414961732283464
0
LINE
8
BLACK
6
CONTINUOUS
10
1.7929098818897637
20
-6.414961732283464
11
1.7854108267716535
21
-6.4187112598425191
0
LINE
8
BLACK
6
CONTINUOUS
10
1.8978967716535433
20
-6.4224607874015742
11
1.8978967716535433
21
-6.4749542519685042
0
LINE
8
BLACK
6
CONTINUOUS
10
1.879149094488189
20
-6.3924645669291333
11
1.8604014566929132
21
-6.4487075196850396
0
LINE
8
BLACK
6
CONTINUOUS
10
1.8604014566929132
20
-6.4487075196850396
11
1.9091453543307086
21
-6.4487075196850396
0
LINE
8
BLACK
6
CONTINUOUS
10
1.9391416141732283
20
-6.4749542519685042
11
1.9391416141732283
21
-6.4224607874015742
0
LINE
8
BLACK
6
CONTINUOUS
10
1.9391416141732283
20
-6.4299598425196853
11
1.9428911417322834
21
-6.4262103149606293
0
LINE
8
BLACK
6
CONTINUOUS
10
1.9428911417322834
20
-6.4262103149606293
11
1.9503901968503936
21
-6.4224607874015742
0
LINE
8
BLACK
6
CONTINUOUS
10
1.9503901968503936
20
-6.4224607874015742
11
1.9616388188976377
21
-6.4224607874015742
0
LINE
8
BLACK
6
CONTINUOUS
10
1.9616388188976377
20
-6.4224607874015742
11
1.9691378740157479
21
-6.4262103149606293
0
LINE
8
BLACK
6
CONTINUOUS
10
1.9691378740157479
20
-6.4262103149606293
11
1.972887401574803
21
-6.4337094094488192
0
LINE
8
BLACK
6
CONTINUOUS
10
1.972887401574803
20
-6.4337094094488192
11
1.972887401574803
21
-6.4749542519685042
0
LINE
8
BLACK
6
CONTINUOUS
10
1.972887401574803
20
-6.4337094094488192
11
1.9766369291338581
21
-6.4262103149606293
0
LINE
8
BLACK
6
CONTINUOUS
10
1.9766369291338581
20
-6.4262103149606293
11
1.9841359842519684
21
-6.4224607874015742
0
LINE
8
BLACK
6
CONTINUOUS
10
1.9841359842519684
20
-6.4224607874015742
11
1.9953845669291339
21
-6.4224607874015742
0
LINE
8
BLACK
6
CONTINUOUS
10
1.9953845669291339
20
-6.4224607874015742
11
2.0028836614173229
21
-6.4262103149606293
0
LINE
8
BLACK
6
CONTINUOUS
10
2.0028836614173229
20
-6.4262103149606293
11
2.006633188976378
21
-6.4337094094488192
0
LINE
8
BLACK
6
CONTINUOUS
10
2.006633188976378
20
-6.4337094094488192
11
2.006633188976378
21
-6.4749542519685042
0
LINE
8
BLACK
6
CONTINUOUS
10
2.0441285039370078
20
-6.4749542519685042
11
2.0441285039370078
21
-6.4224607874015742
0
LINE
8
BLACK
6
CONTINUOUS
10
2.0441285039370078
20
-6.4299598425196853
11
2.047878031496063
21
-6.4262103149606293
0
LINE
8
BLACK
6
CONTINUOUS
10
2.047878031496063
20
-6.4262103149606293
11
2.0553770866141732
21
-6.4224607874015742
0
LINE
8
BLACK
6
CONTINUOUS
10
2.0553770866141732
20
-6.4224607874015742
11
2.0666257086614173
21
-6.4224607874015742
0
LINE
8
BLACK
6
CONTINUOUS
10
2.0666257086614173
20
-6.4224607874015742
11
2.0741247637795275
21
-6.4262103149606293
0
LINE
8
BLACK
6
CONTINUOUS
10
2.0741247637795275
20
-6.4262103149606293
11
2.0778742913385826
21
-6.4337094094488192
0
LINE
8
BLACK
6
CONTINUOUS
10
2.0778742913385826
20
-6.4337094094488192
11
2.0778742913385826
21
-6.4749542519685042
0
LINE
8
BLACK
6
CONTINUOUS
10
2.0778742913385826
20
-6.4337094094488192
11
2.0816238188976377
21
-6.4262103149606293
0
LINE
8
BLACK
6
CONTINUOUS
10
2.0816238188976377
20
-6.4262103149606293
11
2.0891228740157479
21
-6.4224607874015742
0
LINE
8
BLACK
6
CONTINUOUS
10
2.0891228740157479
20
-6.4224607874015742
11
2.1003714566929133
21
-6.4224607874015742
0
LINE
8
BLACK
6
CONTINUOUS
10
2.1003714566929133
20
-6.4224607874015742
11
2.1078705511811022
21
-6.4262103149606293
0
LINE
8
BLACK
6
CONTINUOUS
10
2.1078705511811022
20
-6.4262103149606293
11
2.1116200787401573
21
-6.4337094094488192
0
LINE
8
BLACK
6
CONTINUOUS
10
2.1116200787401573
20
-6.4337094094488192
11
2.1116200787401573
21
-6.4749542519685042
0
LINE
8
BLACK
6
CONTINUOUS
10
2.2653508661417323
20
-6.3924645669291333
11
2.1978593307086616
21
-6.4937018897637797
0
LINE
8
BLACK
6
CONTINUOUS
10
2.3665882283464565
20
-6.3962140944881885
11
2.3740873228346455
21
-6.3962140944881885
0
LINE
8
BLACK
6
CONTINUOUS
10
2.3740873228346455
20
-6.3962140944881885
11
2.3815863779527557
21
-6.3999636220472436
0
LINE
8
BLACK
6
CONTINUOUS
10
2.3815863779527557
20
-6.3999636220472436
11
2.3853359055118109
21
-6.4037131496062987
0
LINE
8
BLACK
6
CONTINUOUS
10
2.3853359055118109
20
-6.4037131496062987
11
2.389085433070866
21
-6.4112122047244089
0
LINE
8
BLACK
6
CONTINUOUS
10
2.389085433070866
20
-6.4112122047244089
11
2.3928349606299211
21
-6.4262103149606293
0
LINE
8
BLACK
6
CONTINUOUS
10
2.3928349606299211
20
-6.4262103149606293
11
2.3928349606299211
21
-6.4449579921259845
0
LINE
8
BLACK
6
CONTINUOUS
10
2.3928349606299211
20
-6.4449579921259845
11
2.389085433070866
21
-6.459956102362205
0
LINE
8
BLACK
6
CONTINUOUS
10
2.389085433070866
20
-6.459956102362205
11
2.3853359055118109
21
-6.4674551574803152
0
LINE
8
BLACK
6
CONTINUOUS
10
2.3853359055118109
20
-6.4674551574803152
11
2.3815863779527557
21
-6.471204724409449
0
LINE
8
BLACK
6
CONTINUOUS
10
2.3815863779527557
20
-6.471204724409449
11
2.3740873228346455
21
-6.4749542519685042
0
LINE
8
BLACK
6
CONTINUOUS
10
2.3740873228346455
20
-6.4749542519685042
11
2.3665882283464565
21
-6.4749542519685042
0
LINE
8
BLACK
6
CONTINUOUS
10
2.3665882283464565
20
-6.4749542519685042
11
2.3590891732283463
21
-6.471204724409449
0
LINE
8
BLACK
6
CONTINUOUS
10
2.3590891732283463
20
-6.471204724409449
11
2.3553396456692912
21
-6.4674551574803152
0
LINE
8
BLACK
6
CONTINUOUS
10
2.3553396456692912
20
-6.4674551574803152
11
2.3515901181102361
21
-6.459956102362205
0
LINE
8
BLACK
6
CONTINUOUS
10
2.3515901181102361
20
-6.459956102362205
11
2.347840590551181
21
-6.4449579921259845
0
LINE
8
BLACK
6
CONTINUOUS
10
2.347840590551181
20
-6.4449579921259845
11
2.347840590551181
21
-6.4262103149606293
0
LINE
8
BLACK
6
CONTINUOUS
10
2.347840590551181
20
-6.4262103149606293
11
2.3515901181102361
21
-6.4112122047244089
0
LINE
8
BLACK
6
CONTINUOUS
10
2.3515901181102361
20
-6.4112122047244089
11
2.3553396456692912
21
-6.4037131496062987
0
LINE
8
BLACK
6
CONTINUOUS
10
2.3553396456692912
20
-6.4037131496062987
11
2.3590891732283463
21
-6.3999636220472436
0
LINE
8
BLACK
6
CONTINUOUS
10
2.3590891732283463
20
-6.3999636220472436
11
2.3665882283464565
21
-6.3962140944881885
0
LINE
8
BLACK
6
CONTINUOUS
10
2.4265807480314958
20
-6.4674551574803152
11
2.4303302755905509
21
-6.471204724409449
0
LINE
8
BLACK
6
CONTINUOUS
10
2.4303302755905509
20
-6.471204724409449
11
2.4265807480314958
21
-6.4749542519685042
0
LINE
8
BLACK
6
CONTINUOUS
10
2.4265807480314958
20
-6.4749542519685042
11
2.4228312204724407
21
-6.471204724409449
0
LINE
8
BLACK
6
CONTINUOUS
10
2.4228312204724407
20
-6.471204724409449
11
2.4265807480314958
21
-6.4674551574803152
0
LINE
8
BLACK
6
CONTINUOUS
10
2.4265807480314958
20
-6.4674551574803152
11
2.4265807480314958
21
-6.4749542519685042
0
LINE
8
BLACK
6
CONTINUOUS
10
2.460326535433071
20
-6.4037131496062987
11
2.4640760629921261
21
-6.3999636220472436
0
LINE
8
BLACK
6
CONTINUOUS
10
2.4640760629921261
20
-6.3999636220472436
11
2.4715751181102363
21
-6.3962140944881885
0
LINE
8
BLACK
6
CONTINUOUS
10
2.4715751181102363
20
-6.3962140944881885
11
2.4903227952755906
21
-6.3962140944881885
0
LINE
8
BLACK
6
CONTINUOUS
10
2.4903227952755906
20
-6.3962140944881885
11
2.4978218503937009
21
-6.3999636220472436
0
LINE
8
BLACK
6
CONTINUOUS
10
2.4978218503937009
20
-6.3999636220472436
11
2.501571377952756
21
-6.4037131496062987
0
LINE
8
BLACK
6
CONTINUOUS
10
2.501571377952756
20
-6.4037131496062987
11
2.5053209055118111
21
-6.4112122047244089
0
LINE
8
BLACK
6
CONTINUOUS
10
2.5053209055118111
20
-6.4112122047244089
11
2.5053209055118111
21
-6.4187112598425191
0
LINE
8
BLACK
6
CONTINUOUS
10
2.5053209055118111
20
-6.4187112598425191
11
2.501571377952756
21
-6.4299598425196853
0
LINE
8
BLACK
6
CONTINUOUS
10
2.501571377952756
20
-6.4299598425196853
11
2.4565770078740159
21
-6.4749542519685042
0
LINE
8
BLACK
6
CONTINUOUS
10
2.4565770078740159
20
-6.4749542519685042
11
2.5053209055118111
21
-6.4749542519685042
0
LINE
8
BLACK
6
CONTINUOUS
10
2.5503152755905512
20
-6.4299598425196853
11
2.5428162204724409
21
-6.4262103149606293
0
LINE
8
BLACK
6
CONTINUOUS
10
2.5428162204724409
20
-6.4262103149606293
11
2.5390666929133858
21
-6.4224607874015742
0
LINE
8
BLACK
6
CONTINUOUS
10
2.5390666929133858
20
-6.4224607874015742
11
2.5353171653543307
21
-6.414961732283464
0
LINE
8
BLACK
6
CONTINUOUS
10
2.5353171653543307
20
-6.414961732283464
11
2.5353171653543307
21
-6.4112122047244089
0
LINE
8
BLACK
6
CONTINUOUS
10
2.5353171653543307
20
-6.4112122047244089
11
2.5390666929133858
21
-6.4037131496062987
0
LINE
8
BLACK
6
CONTINUOUS
10
2.5390666929133858
20
-6.4037131496062987
11
2.5428162204724409
21
-6.3999636220472436
0
LINE
8
BLACK
6
CONTINUOUS
10
2.5428162204724409
20
-6.3999636220472436
11
2.5503152755905512
21
-6.3962140944881885
0
LINE
8
BLACK
6
CONTINUOUS
10
2.5503152755905512
20
-6.3962140944881885
11
2.5653134251968503
21
-6.3962140944881885
0
LINE
8
BLACK
6
CONTINUOUS
10
2.5653134251968503
20
-6.3962140944881885
11
2.5728124803149606
21
-6.3999636220472436
0
LINE
8
BLACK
6
CONTINUOUS
10
2.5728124803149606
20
-6.3999636220472436
11
2.5765620078740157
21
-6.4037131496062987
0
LINE
8
BLACK
6
CONTINUOUS
10
2.5765620078740157
20
-6.4037131496062987
11
2.5803115354330708
21
-6.4112122047244089
0
LINE
8
BLACK
6
CONTINUOUS
10
2.5803115354330708
20
-6.4112122047244089
11
2.5803115354330708
21
-6.414961732283464
0
LINE
8
BLACK
6
CONTINUOUS
10
2.5803115354330708
20
-6.414961732283464
11
2.5765620078740157
21
-6.4224607874015742
0
LINE
8
BLACK
6
CONTINUOUS
10
2.5765620078740157
20
-6.4224607874015742
11
2.5728124803149606
21
-6.4262103149606293
0
LINE
8
BLACK
6
CONTINUOUS
10
2.5728124803149606
20
-6.4262103149606293
11
2.5653134251968503
21
-6.4299598425196853
0
LINE
8
BLACK
6
CONTINUOUS
10
2.5653134251968503
20
-6.4299598425196853
11
2.5503152755905512
21
-6.4299598425196853
0
LINE
8
BLACK
6
CONTINUOUS
10
2.5503152755905512
20
-6.4299598425196853
11
2.5428162204724409
21
-6.4337094094488192
0
LINE
8
BLACK
6
CONTINUOUS
10
2.5428162204724409
20
-6.4337094094488192
11
2.5390666929133858
21
-6.4374589370078743
0
LINE
8
BLACK
6
CONTINUOUS
10
2.5390666929133858
20
-6.4374589370078743
11
2.5353171653543307
21
-6.4449579921259845
0
LINE
8
BLACK
6
CONTINUOUS
10
2.5353171653543307
20
-6.4449579921259845
11
2.5353171653543307
21
-6.459956102362205
0
LINE
8
BLACK
6
CONTINUOUS
10
2.5353171653543307
20
-6.459956102362205
11
2.5390666929133858
21
-6.4674551574803152
0
LINE
8
BLACK
6
CONTINUOUS
10
2.5390666929133858
20
-6.4674551574803152
11
2.5428162204724409
21
-6.471204724409449
0
LINE
8
BLACK
6
CONTINUOUS
10
2.5428162204724409
20
-6.471204724409449
11
2.5503152755905512
21
-6.4749542519685042
0
LINE
8
BLACK
6
CONTINUOUS
10
2.5503152755905512
20
-6.4749542519685042
11
2.5653134251968503
21
-6.4749542519685042
0
LINE
8
BLACK
6
CONTINUOUS
10
2.5653134251968503
20
-6.4749542519685042
11
2.5728124803149606
21
-6.471204724409449
0
LINE
8
BLACK
6
CONTINUOUS
10
2.5728124803149606
20
-6.471204724409449
11
2.5765620078740157
21
-6.4674551574803152
0
LINE
8
BLACK
6
CONTINUOUS
10
2.5765620078740157
20
-6.4674551574803152
11
2.5803115354330708
21
-6.459956102362205
0
LINE
8
BLACK
6
CONTINUOUS
10
2.5803115354330708
20
-6.459956102362205
11
2.5803115354330708
21
-6.4449579921259845
0
LINE
8
BLACK
6
CONTINUOUS
10
2.5803115354330708
20
-6.4449579921259845
11
2.5765620078740157
21
-6.4374589370078743
0
LINE
8
BLACK
6
CONTINUOUS
10
2.5765620078740157
20
-6.4374589370078743
11
2.5728124803149606
21
-6.4337094094488192
0
LINE
8
BLACK
6
CONTINUOUS
10
2.5728124803149606
20
-6.4337094094488192
11
2.5653134251968503
21
-6.4299598425196853
0
LINE
8
BLACK
6
CONTINUOUS
10
2.6478031102362203
20
-6.4224607874015742
11
2.6478031102362203
21
-6.4749542519685042
0
LINE
8
BLACK
6
CONTINUOUS
10
2.629055433070866
20
-6.3924645669291333
11
2.6103077952755904
21
-6.4487075196850396
0
LINE
8
BLACK
6
CONTINUOUS
10
2.6103077952755904
20
-6.4487075196850396
11
2.6590516929133856
21
-6.4487075196850396
0
LINE
8
BLACK
6
CONTINUOUS
10
2.7040460629921261
20
-6.3962140944881885
11
2.7115451574803151
21
-6.3962140944881885
0
LINE
8
BLACK
6
CONTINUOUS
10
2.7115451574803151
20
-6.3962140944881885
11
2.7190442125984253
21
-6.3999636220472436
0
LINE
8
BLACK
6
CONTINUOUS
10
2.7190442125984253
20
-6.3999636220472436
11
2.7227937401574804
21
-6.4037131496062987
0
LINE
8
BLACK
6
CONTINUOUS
10
2.7227937401574804
20
-6.4037131496062987
11
2.7265432677165355
21
-6.4112122047244089
0
LINE
8
BLACK
6
CONTINUOUS
10
2.7265432677165355
20
-6.4112122047244089
11
2.7302927952755907
21
-6.4262103149606293
0
LINE
8
BLACK
6
CONTINUOUS
10
2.7302927952755907
20
-6.4262103149606293
11
2.7302927952755907
21
-6.4449579921259845
0
LINE
8
BLACK
6
CONTINUOUS
10
2.7302927952755907
20
-6.4449579921259845
11
2.7265432677165355
21
-6.459956102362205
0
LINE
8
BLACK
6
CONTINUOUS
10
2.7265432677165355
20
-6.459956102362205
11
2.7227937401574804
21
-6.4674551574803152
0
LINE
8
BLACK
6
CONTINUOUS
10
2.7227937401574804
20
-6.4674551574803152
11
2.7190442125984253
21
-6.471204724409449
0
LINE
8
BLACK
6
CONTINUOUS
10
2.7190442125984253
20
-6.471204724409449
11
2.7115451574803151
21
-6.4749542519685042
0
LINE
8
BLACK
6
CONTINUOUS
10
2.7115451574803151
20
-6.4749542519685042
11
2.7040460629921261
21
-6.4749542519685042
0
LINE
8
BLACK
6
CONTINUOUS
10
2.7040460629921261
20
-6.4749542519685042
11
2.6965470078740155
21
-6.471204724409449
0
LINE
8
BLACK
6
CONTINUOUS
10
2.6965470078740155
20
-6.471204724409449
11
2.6927974803149604
21
-6.4674551574803152
0
LINE
8
BLACK
6
CONTINUOUS
10
2.6927974803149604
20
-6.4674551574803152
11
2.6890479527559052
21
-6.459956102362205
0
LINE
8
BLACK
6
CONTINUOUS
10
2.6890479527559052
20
-6.459956102362205
11
2.6852984251968501
21
-6.4449579921259845
0
LINE
8
BLACK
6
CONTINUOUS
10
2.6852984251968501
20
-6.4449579921259845
11
2.6852984251968501
21
-6.4262103149606293
0
LINE
8
BLACK
6
CONTINUOUS
10
2.6852984251968501
20
-6.4262103149606293
11
2.6890479527559052
21
-6.4112122047244089
0
LINE
8
BLACK
6
CONTINUOUS
10
2.6890479527559052
20
-6.4112122047244089
11
2.6927974803149604
21
-6.4037131496062987
0
LINE
8
BLACK
6
CONTINUOUS
10
2.6927974803149604
20
-6.4037131496062987
11
2.6965470078740155
21
-6.3999636220472436
0
LINE
8
BLACK
6
CONTINUOUS
10
2.6965470078740155
20
-6.3999636220472436
11
2.7040460629921261
21
-6.3962140944881885
0
LINE
8
BLACK
6
CONTINUOUS
10
2.7602890551181103
20
-6.3962140944881885
11
2.7602890551181103
21
-6.4112122047244089
0
LINE
8
BLACK
6
CONTINUOUS
10
2.7902853149606299
20
-6.3962140944881885
11
2.7902853149606299
21
-6.4112122047244089
0
LINE
8
BLACK
6
CONTINUOUS
10
2.9065208267716534
20
-6.504950472440945
11
2.9027712598425195
21
-6.5012009448818899
0
LINE
8
BLACK
6
CONTINUOUS
10
2.9027712598425195
20
-6.5012009448818899
11
2.8952722047244093
21
-6.4899523622047246
0
LINE
8
BLACK
6
CONTINUOUS
10
2.8952722047244093
20
-6.4899523622047246
11
2.8915226771653542
21
-6.4824533070866144
0
LINE
8
BLACK
6
CONTINUOUS
10
2.8915226771653542
20
-6.4824533070866144
11
2.8877731496062991
21
-6.471204724409449
0
LINE
8
BLACK
6
CONTINUOUS
10
2.8877731496062991
20
-6.471204724409449
11
2.8840236220472439
21
-6.4524570472440947
0
LINE
8
BLACK
6
CONTINUOUS
10
2.8840236220472439
20
-6.4524570472440947
11
2.8840236220472439
21
-6.4374589370078743
0
LINE
8
BLACK
6
CONTINUOUS
10
2.8840236220472439
20
-6.4374589370078743
11
2.8877731496062991
21
-6.4187112598425191
0
LINE
8
BLACK
6
CONTINUOUS
10
2.8877731496062991
20
-6.4187112598425191
11
2.8915226771653542
21
-6.4074626771653538
0
LINE
8
BLACK
6
CONTINUOUS
10
2.8915226771653542
20
-6.4074626771653538
11
2.8952722047244093
21
-6.3999636220472436
0
LINE
8
BLACK
6
CONTINUOUS
10
2.8952722047244093
20
-6.3999636220472436
11
2.9027712598425195
21
-6.3887149999999995
0
LINE
8
BLACK
6
CONTINUOUS
10
2.9027712598425195
20
-6.3887149999999995
11
2.9065208267716534
21
-6.3849654724409444
0
LINE
8
BLACK
6
CONTINUOUS
10
2.9702628346456694
20
-6.4224607874015742
11
2.9702628346456694
21
-6.4749542519685042
0
LINE
8
BLACK
6
CONTINUOUS
10
2.9515151574803147
20
-6.3924645669291333
11
2.9327675196850391
21
-6.4487075196850396
0
LINE
8
BLACK
6
CONTINUOUS
10
2.9327675196850391
20
-6.4487075196850396
11
2.9815114173228348
21
-6.4487075196850396
0
LINE
8
BLACK
6
CONTINUOUS
10
3.0715001968503937
20
-6.4749542519685042
11
3.0715001968503937
21
-6.3962140944881885
0
LINE
8
BLACK
6
CONTINUOUS
10
3.1052459842519684
20
-6.4749542519685042
11
3.1052459842519684
21
-6.4337094094488192
0
LINE
8
BLACK
6
CONTINUOUS
10
3.1052459842519684
20
-6.4337094094488192
11
3.1014964566929133
21
-6.4262103149606293
0
LINE
8
BLACK
6
CONTINUOUS
10
3.1014964566929133
20
-6.4262103149606293
11
3.0939974015748031
21
-6.4224607874015742
0
LINE
8
BLACK
6
CONTINUOUS
10
3.0939974015748031
20
-6.4224607874015742
11
3.082748779527559
21
-6.4224607874015742
0
LINE
8
BLACK
6
CONTINUOUS
10
3.082748779527559
20
-6.4224607874015742
11
3.0752497244094488
21
-6.4262103149606293
0
LINE
8
BLACK
6
CONTINUOUS
10
3.0752497244094488
20
-6.4262103149606293
11
3.0715001968503937
21
-6.4299598425196853
0
LINE
8
BLACK
6
CONTINUOUS
10
3.1539898818897636
20
-6.4749542519685042
11
3.1464908267716534
21
-6.471204724409449
0
LINE
8
BLACK
6
CONTINUOUS
10
3.1464908267716534
20
-6.471204724409449
11
3.1427412992125983
21
-6.4674551574803152
0
LINE
8
BLACK
6
CONTINUOUS
10
3.1427412992125983
20
-6.4674551574803152
11
3.1389917716535432
21
-6.459956102362205
0
LINE
8
BLACK
6
CONTINUOUS
10
3.1389917716535432
20
-6.459956102362205
11
3.1389917716535432
21
-6.4374589370078743
0
LINE
8
BLACK
6
CONTINUOUS
10
3.1389917716535432
20
-6.4374589370078743
11
3.1427412992125983
21
-6.4299598425196853
0
LINE
8
BLACK
6
CONTINUOUS
10
3.1427412992125983
20
-6.4299598425196853
11
3.1464908267716534
21
-6.4262103149606293
0
LINE
8
BLACK
6
CONTINUOUS
10
3.1464908267716534
20
-6.4262103149606293
11
3.1539898818897636
21
-6.4224607874015742
0
LINE
8
BLACK
6
CONTINUOUS
10
3.1539898818897636
20
-6.4224607874015742
11
3.1652385039370077
21
-6.4224607874015742
0
LINE
8
BLACK
6
CONTINUOUS
10
3.1652385039370077
20
-6.4224607874015742
11
3.1727375590551179
21
-6.4262103149606293
0
LINE
8
BLACK
6
CONTINUOUS
10
3.1727375590551179
20
-6.4262103149606293
11
3.176487086614173
21
-6.4299598425196853
0
LINE
8
BLACK
6
CONTINUOUS
10
3.176487086614173
20
-6.4299598425196853
11
3.1802366141732281
21
-6.4374589370078743
0
LINE
8
BLACK
6
CONTINUOUS
10
3.1802366141732281
20
-6.4374589370078743
11
3.1802366141732281
21
-6.459956102362205
0
LINE
8
BLACK
6
CONTINUOUS
10
3.1802366141732281
20
-6.459956102362205
11
3.176487086614173
21
-6.4674551574803152
0
LINE
8
BLACK
6
CONTINUOUS
10
3.176487086614173
20
-6.4674551574803152
11
3.1727375590551179
21
-6.471204724409449
0
LINE
8
BLACK
6
CONTINUOUS
10
3.1727375590551179
20
-6.471204724409449
11
3.1652385039370077
21
-6.4749542519685042
0
LINE
8
BLACK
6
CONTINUOUS
10
3.1652385039370077
20
-6.4749542519685042
11
3.1539898818897636
21
-6.4749542519685042
0
LINE
8
BLACK
6
CONTINUOUS
10
3.2252309842519686
20
-6.4749542519685042
11
3.2177319291338584
21
-6.471204724409449
0
LINE
8
BLACK
6
CONTINUOUS
10
3.2177319291338584
20
-6.471204724409449
11
3.2139824015748029
21
-6.4637056299212601
0
LINE
8
BLACK
6
CONTINUOUS
10
3.2139824015748029
20
-6.4637056299212601
11
3.2139824015748029
21
-6.3962140944881885
0
LINE
8
BLACK
6
CONTINUOUS
10
3.2852235039370079
20
-6.471204724409449
11
3.2777244488188977
21
-6.4749542519685042
0
LINE
8
BLACK
6
CONTINUOUS
10
3.2777244488188977
20
-6.4749542519685042
11
3.2627262992125985
21
-6.4749542519685042
0
LINE
8
BLACK
6
CONTINUOUS
10
3.2627262992125985
20
-6.4749542519685042
11
3.2552272440944883
21
-6.471204724409449
0
LINE
8
BLACK
6
CONTINUOUS
10
3.2552272440944883
20
-6.471204724409449
11
3.2514777165354332
21
-6.4637056299212601
0
LINE
8
BLACK
6
CONTINUOUS
10
3.2514777165354332
20
-6.4637056299212601
11
3.2514777165354332
21
-6.4337094094488192
0
LINE
8
BLACK
6
CONTINUOUS
10
3.2514777165354332
20
-6.4337094094488192
11
3.2552272440944883
21
-6.4262103149606293
0
LINE
8
BLACK
6
CONTINUOUS
10
3.2552272440944883
20
-6.4262103149606293
11
3.2627262992125985
21
-6.4224607874015742
0
LINE
8
BLACK
6
CONTINUOUS
10
3.2627262992125985
20
-6.4224607874015742
11
3.2777244488188977
21
-6.4224607874015742
0
LINE
8
BLACK
6
CONTINUOUS
10
3.2777244488188977
20
-6.4224607874015742
11
3.2852235039370079
21
-6.4262103149606293
0
LINE
8
BLACK
6
CONTINUOUS
10
3.2852235039370079
20
-6.4262103149606293
11
3.288973031496063
21
-6.4337094094488192
0
LINE
8
BLACK
6
CONTINUOUS
10
3.288973031496063
20
-6.4337094094488192
11
3.288973031496063
21
-6.4412084645669294
0
LINE
8
BLACK
6
CONTINUOUS
10
3.288973031496063
20
-6.4412084645669294
11
3.2514777165354332
21
-6.4487075196850396
0
LINE
8
BLACK
6
CONTINUOUS
10
3.3189692913385827
20
-6.471204724409449
11
3.3264683464566929
21
-6.4749542519685042
0
LINE
8
BLACK
6
CONTINUOUS
10
3.3264683464566929
20
-6.4749542519685042
11
3.3414664566929133
21
-6.4749542519685042
0
LINE
8
BLACK
6
CONTINUOUS
10
3.3414664566929133
20
-6.4749542519685042
11
3.3489655511811023
21
-6.471204724409449
0
LINE
8
BLACK
6
CONTINUOUS
10
3.3489655511811023
20
-6.471204724409449
11
3.3527150787401574
21
-6.4637056299212601
0
LINE
8
BLACK
6
CONTINUOUS
10
3.3527150787401574
20
-6.4637056299212601
11
3.3527150787401574
21
-6.459956102362205
0
LINE
8
BLACK
6
CONTINUOUS
10
3.3527150787401574
20
-6.459956102362205
11
3.3489655511811023
21
-6.4524570472440947
0
LINE
8
BLACK
6
CONTINUOUS
10
3.3489655511811023
20
-6.4524570472440947
11
3.3414664566929133
21
-6.4487075196850396
0
LINE
8
BLACK
6
CONTINUOUS
10
3.3414664566929133
20
-6.4487075196850396
11
3.330217874015748
21
-6.4487075196850396
0
LINE
8
BLACK
6
CONTINUOUS
10
3.330217874015748
20
-6.4487075196850396
11
3.3227188188976378
21
-6.4449579921259845
0
LINE
8
BLACK
6
CONTINUOUS
10
3.3227188188976378
20
-6.4449579921259845
11
3.3189692913385827
21
-6.4374589370078743
0
LINE
8
BLACK
6
CONTINUOUS
10
3.3189692913385827
20
-6.4374589370078743
11
3.3189692913385827
21
-6.4337094094488192
0
LINE
8
BLACK
6
CONTINUOUS
10
3.3189692913385827
20
-6.4337094094488192
11
3.3227188188976378
21
-6.4262103149606293
0
LINE
8
BLACK
6
CONTINUOUS
10
3.3227188188976378
20
-6.4262103149606293
11
3.330217874015748
21
-6.4224607874015742
0
LINE
8
BLACK
6
CONTINUOUS
10
3.330217874015748
20
-6.4224607874015742
11
3.3414664566929133
21
-6.4224607874015742
0
LINE
8
BLACK
6
CONTINUOUS
10
3.3414664566929133
20
-6.4224607874015742
11
3.3489655511811023
21
-6.4262103149606293
0
LINE
8
BLACK
6
CONTINUOUS
10
3.3789618110236219
20
-6.504950472440945
11
3.382711338582677
21
-6.5012009448818899
0
LINE
8
BLACK
6
CONTINUOUS
10
3.382711338582677
20
-6.5012009448818899
11
3.3902103937007873
21
-6.4899523622047246
0
LINE
8
BLACK
6
CONTINUOUS
10
3.3902103937007873
20
-6.4899523622047246
11
3.3939599212598424
21
-6.4824533070866144
0
LINE
8
BLACK
6
CONTINUOUS
10
3.3939599212598424
20
-6.4824533070866144
11
3.3977094488188975
21
-6.471204724409449
0
LINE
8
BLACK
6
CONTINUOUS
10
3.3977094488188975
20
-6.471204724409449
11
3.4014589763779526
21
-6.4524570472440947
0
LINE
8
BLACK
6
CONTINUOUS
10
3.4014589763779526
20
-6.4524570472440947
11
3.4014589763779526
21
-6.4374589370078743
0
LINE
8
BLACK
6
CONTINUOUS
10
3.4014589763779526
20
-6.4374589370078743
11
3.3977094488188975
21
-6.4187112598425191
0
LINE
8
BLACK
6
CONTINUOUS
10
3.3977094488188975
20
-6.4187112598425191
11
3.3939599212598424
21
-6.4074626771653538
0
LINE
8
BLACK
6
CONTINUOUS
10
3.3939599212598424
20
-6.4074626771653538
11
3.3902103937007873
21
-6.3999636220472436
0
LINE
8
BLACK
6
CONTINUOUS
10
3.3902103937007873
20
-6.3999636220472436
11
3.382711338582677
21
-6.3887149999999995
0
LINE
8
BLACK
6
CONTINUOUS
10
3.382711338582677
20
-6.3887149999999995
11
3.3789618110236219
21
-6.3849654724409444
  0
ENDSEC
  0
EOF
