%TF.GenerationSoftware,KiCad,Pcbnew,9.0.0*%
%TF.CreationDate,2025-03-09T14:36:43-04:00*%
%TF.ProjectId,200_Plattform,3230305f-506c-4617-9474-666f726d2e6b,A1*%
%TF.SameCoordinates,Original*%
%TF.FileFunction,Soldermask,Bot*%
%TF.FilePolarity,Negative*%
%FSLAX45Y45*%
G04 Gerber Fmt 4.5, Leading zero omitted, Abs format (unit mm)*
G04 Created by KiCad (PCBNEW 9.0.0) date 2025-03-09 14:36:43*
%MOMM*%
%LPD*%
G01*
G04 APERTURE LIST*
G04 Aperture macros list*
%AMRoundRect*
0 Rectangle with rounded corners*
0 $1 Rounding radius*
0 $2 $3 $4 $5 $6 $7 $8 $9 X,Y pos of 4 corners*
0 Add a 4 corners polygon primitive as box body*
4,1,4,$2,$3,$4,$5,$6,$7,$8,$9,$2,$3,0*
0 Add four circle primitives for the rounded corners*
1,1,$1+$1,$2,$3*
1,1,$1+$1,$4,$5*
1,1,$1+$1,$6,$7*
1,1,$1+$1,$8,$9*
0 Add four rect primitives between the rounded corners*
20,1,$1+$1,$2,$3,$4,$5,0*
20,1,$1+$1,$4,$5,$6,$7,0*
20,1,$1+$1,$6,$7,$8,$9,0*
20,1,$1+$1,$8,$9,$2,$3,0*%
G04 Aperture macros list end*
%ADD10C,1.200000*%
%ADD11C,1.700000*%
%ADD12R,1.700000X1.700000*%
%ADD13O,3.240000X2.720000*%
%ADD14R,1.800000X1.800000*%
%ADD15C,1.800000*%
%ADD16C,3.000000*%
%ADD17RoundRect,0.269231X0.430769X-0.730769X0.430769X0.730769X-0.430769X0.730769X-0.430769X-0.730769X0*%
%ADD18RoundRect,0.176056X0.573944X-0.923944X0.573944X0.923944X-0.573944X0.923944X-0.573944X-0.923944X0*%
%ADD19C,2.000000*%
%ADD20C,2.032000*%
%ADD21RoundRect,0.191257X0.508743X-0.808743X0.508743X0.808743X-0.508743X0.808743X-0.508743X-0.808743X0*%
G04 APERTURE END LIST*
D10*
%TO.C,J13*%
X6113800Y-4990200D03*
X6113800Y-5244200D03*
X6113800Y-5498200D03*
X6113800Y-5752200D03*
X6113800Y-6006200D03*
X6367800Y-4990200D03*
X6367800Y-5244200D03*
X6367800Y-5498200D03*
X6367800Y-5752200D03*
X6367800Y-6006200D03*
%TD*%
%TO.C,J15*%
X8432800Y-11125200D03*
X8686800Y-11125200D03*
X8940800Y-11125200D03*
X9194800Y-11125200D03*
X9448800Y-11125200D03*
X8432800Y-10871200D03*
X8686800Y-10871200D03*
X8940800Y-10871200D03*
X9194800Y-10871200D03*
X9448800Y-10871200D03*
%TD*%
%TO.C,J16*%
X8913800Y-4990200D03*
X8913800Y-5244200D03*
X8913800Y-5498200D03*
X8913800Y-5752200D03*
X8913800Y-6006200D03*
X9167800Y-4990200D03*
X9167800Y-5244200D03*
X9167800Y-5498200D03*
X9167800Y-5752200D03*
X9167800Y-6006200D03*
%TD*%
%TO.C,J14*%
X5832800Y-11125200D03*
X6086800Y-11125200D03*
X6340800Y-11125200D03*
X6594800Y-11125200D03*
X6848800Y-11125200D03*
X5832800Y-10871200D03*
X6086800Y-10871200D03*
X6340800Y-10871200D03*
X6594800Y-10871200D03*
X6848800Y-10871200D03*
%TD*%
D11*
%TO.C,J17*%
X9972800Y-11889200D03*
X9718800Y-11889200D03*
X9972800Y-11635200D03*
X9718800Y-11635200D03*
X9972800Y-11381200D03*
X9718800Y-11381200D03*
X9972800Y-11127200D03*
X9718800Y-11127200D03*
X9972800Y-10873200D03*
D12*
X9718800Y-10873200D03*
%TD*%
D13*
%TO.C,RV2*%
X7307800Y-7936800D03*
X8287800Y-7936800D03*
D14*
X7547800Y-8686800D03*
D15*
X7797800Y-8686800D03*
X8047800Y-8686800D03*
%TD*%
D16*
%TO.C,J7*%
X7772100Y-13893800D03*
D17*
X8420100Y-13893800D03*
D18*
X7280100Y-13893800D03*
X8110100Y-13893800D03*
%TD*%
D16*
%TO.C,J3*%
X7772100Y-12928600D03*
D17*
X8420100Y-12928600D03*
D18*
X7280100Y-12928600D03*
X8110100Y-12928600D03*
%TD*%
D16*
%TO.C,J8*%
X9143700Y-13893800D03*
D17*
X9791700Y-13893800D03*
D18*
X8651700Y-13893800D03*
X9481700Y-13893800D03*
%TD*%
D13*
%TO.C,RV8*%
X9644600Y-9460800D03*
X10624600Y-9460800D03*
D14*
X9884600Y-10210800D03*
D15*
X10134600Y-10210800D03*
X10384600Y-10210800D03*
%TD*%
D19*
%TO.C,SW1*%
X7623600Y-11374000D03*
X7623600Y-10724000D03*
X8073600Y-11374000D03*
X8073600Y-10724000D03*
%TD*%
D20*
%TO.C,SW3*%
X8356600Y-9829800D03*
X8356600Y-10083800D03*
X8356600Y-10337800D03*
%TD*%
D13*
%TO.C,RV1*%
X5072600Y-3999800D03*
X6052600Y-3999800D03*
D14*
X5312600Y-4749800D03*
D15*
X5562600Y-4749800D03*
X5812600Y-4749800D03*
%TD*%
D16*
%TO.C,J5*%
X5028900Y-13893800D03*
D17*
X5676900Y-13893800D03*
D18*
X4536900Y-13893800D03*
X5366900Y-13893800D03*
%TD*%
D16*
%TO.C,J9*%
X6410200Y-11912600D03*
D17*
X7058200Y-11912600D03*
D18*
X5918200Y-11912600D03*
X6748200Y-11912600D03*
%TD*%
D16*
%TO.C,J10*%
X5029200Y-11912600D03*
D18*
X5367200Y-11912600D03*
D21*
X5677200Y-11912600D03*
D18*
X4537200Y-11912600D03*
%TD*%
D16*
%TO.C,J1*%
X5028900Y-12928600D03*
D17*
X5676900Y-12928600D03*
D18*
X4536900Y-12928600D03*
X5366900Y-12928600D03*
%TD*%
D13*
%TO.C,RV4*%
X9644600Y-3999800D03*
X10624600Y-3999800D03*
D14*
X9884600Y-4749800D03*
D15*
X10134600Y-4749800D03*
X10384600Y-4749800D03*
%TD*%
D16*
%TO.C,J6*%
X6400500Y-13893800D03*
D17*
X7048500Y-13893800D03*
D18*
X5908500Y-13893800D03*
X6738500Y-13893800D03*
%TD*%
D13*
%TO.C,RV5*%
X5072600Y-9460800D03*
X6052600Y-9460800D03*
D14*
X5312600Y-10210800D03*
D15*
X5562600Y-10210800D03*
X5812600Y-10210800D03*
%TD*%
D16*
%TO.C,J12*%
X10515300Y-13893800D03*
D17*
X11163300Y-13893800D03*
D18*
X10023300Y-13893800D03*
X10853300Y-13893800D03*
%TD*%
D20*
%TO.C,SW2*%
X7340600Y-9829800D03*
X7340600Y-10083800D03*
X7340600Y-10337800D03*
%TD*%
D13*
%TO.C,RV7*%
X7307800Y-5460300D03*
X8287800Y-5460300D03*
D14*
X7547800Y-6210300D03*
D15*
X7797800Y-6210300D03*
X8047800Y-6210300D03*
%TD*%
D16*
%TO.C,J2*%
X6400500Y-12928600D03*
D17*
X7048500Y-12928600D03*
D18*
X5908500Y-12928600D03*
X6738500Y-12928600D03*
%TD*%
D16*
%TO.C,J11*%
X10515300Y-12928600D03*
D17*
X11163300Y-12928600D03*
D18*
X10023300Y-12928600D03*
X10853300Y-12928600D03*
%TD*%
D13*
%TO.C,RV3*%
X5072600Y-6730300D03*
X6052600Y-6730300D03*
D14*
X5312600Y-7480300D03*
D15*
X5562600Y-7480300D03*
X5812600Y-7480300D03*
%TD*%
D13*
%TO.C,RV6*%
X9644600Y-6730300D03*
X10624600Y-6730300D03*
D14*
X9884600Y-7480300D03*
D15*
X10134600Y-7480300D03*
X10384600Y-7480300D03*
%TD*%
D16*
%TO.C,J4*%
X9143700Y-12928600D03*
D17*
X9791700Y-12928600D03*
D18*
X8651700Y-12928600D03*
X9481700Y-12928600D03*
%TD*%
M02*
