%TF.GenerationSoftware,KiCad,Pcbnew,9.0.0*%
%TF.CreationDate,2025-03-09T14:36:42-04:00*%
%TF.ProjectId,200_Plattform,3230305f-506c-4617-9474-666f726d2e6b,A1*%
%TF.SameCoordinates,Original*%
%TF.FileFunction,Copper,L4,Bot*%
%TF.FilePolarity,Positive*%
%FSLAX45Y45*%
G04 Gerber Fmt 4.5, Leading zero omitted, Abs format (unit mm)*
G04 Created by KiCad (PCBNEW 9.0.0) date 2025-03-09 14:36:42*
%MOMM*%
%LPD*%
G01*
G04 APERTURE LIST*
G04 Aperture macros list*
%AMRoundRect*
0 Rectangle with rounded corners*
0 $1 Rounding radius*
0 $2 $3 $4 $5 $6 $7 $8 $9 X,Y pos of 4 corners*
0 Add a 4 corners polygon primitive as box body*
4,1,4,$2,$3,$4,$5,$6,$7,$8,$9,$2,$3,0*
0 Add four circle primitives for the rounded corners*
1,1,$1+$1,$2,$3*
1,1,$1+$1,$4,$5*
1,1,$1+$1,$6,$7*
1,1,$1+$1,$8,$9*
0 Add four rect primitives between the rounded corners*
20,1,$1+$1,$2,$3,$4,$5,0*
20,1,$1+$1,$4,$5,$6,$7,0*
20,1,$1+$1,$6,$7,$8,$9,0*
20,1,$1+$1,$8,$9,$2,$3,0*%
G04 Aperture macros list end*
%TA.AperFunction,ComponentPad*%
%ADD10C,1.700000*%
%TD*%
%TA.AperFunction,ComponentPad*%
%ADD11R,1.700000X1.700000*%
%TD*%
%TA.AperFunction,ComponentPad*%
%ADD12O,3.240000X2.720000*%
%TD*%
%TA.AperFunction,ComponentPad*%
%ADD13R,1.800000X1.800000*%
%TD*%
%TA.AperFunction,ComponentPad*%
%ADD14C,1.800000*%
%TD*%
%TA.AperFunction,ComponentPad*%
%ADD15RoundRect,0.269231X0.430769X-0.730769X0.430769X0.730769X-0.430769X0.730769X-0.430769X-0.730769X0*%
%TD*%
%TA.AperFunction,ComponentPad*%
%ADD16RoundRect,0.176056X0.573944X-0.923944X0.573944X0.923944X-0.573944X0.923944X-0.573944X-0.923944X0*%
%TD*%
%TA.AperFunction,ComponentPad*%
%ADD17C,2.000000*%
%TD*%
%TA.AperFunction,ComponentPad*%
%ADD18C,2.032000*%
%TD*%
%TA.AperFunction,ComponentPad*%
%ADD19RoundRect,0.191257X0.508743X-0.808743X0.508743X0.808743X-0.508743X0.808743X-0.508743X-0.808743X0*%
%TD*%
%TA.AperFunction,ViaPad*%
%ADD20C,0.800000*%
%TD*%
%TA.AperFunction,ViaPad*%
%ADD21C,1.000000*%
%TD*%
%TA.AperFunction,Conductor*%
%ADD22C,0.203200*%
%TD*%
%TA.AperFunction,Conductor*%
%ADD23C,0.200000*%
%TD*%
%TA.AperFunction,Conductor*%
%ADD24C,0.300000*%
%TD*%
G04 APERTURE END LIST*
D10*
%TO.P,J17,10,+12V*%
%TO.N,Net-(D4-A)*%
X9972800Y-11889200D03*
%TO.P,J17,9,+12V*%
X9718800Y-11889200D03*
%TO.P,J17,8,gnd*%
%TO.N,GND*%
X9972800Y-11635200D03*
%TO.P,J17,7,gnd*%
X9718800Y-11635200D03*
%TO.P,J17,6,gnd*%
X9972800Y-11381200D03*
%TO.P,J17,5,gnd*%
X9718800Y-11381200D03*
%TO.P,J17,4,gnd*%
X9972800Y-11127200D03*
%TO.P,J17,3,gnd*%
X9718800Y-11127200D03*
%TO.P,J17,2,-12V*%
%TO.N,Net-(D5-K)*%
X9972800Y-10873200D03*
D11*
%TO.P,J17,1,-12V*%
X9718800Y-10873200D03*
%TD*%
D12*
%TO.P,RV2,*%
%TO.N,*%
X7307800Y-7936800D03*
X8287800Y-7936800D03*
D13*
%TO.P,RV2,1,1*%
%TO.N,GND*%
X7547800Y-8686800D03*
D14*
%TO.P,RV2,2,2*%
%TO.N,pot_5*%
X7797800Y-8686800D03*
%TO.P,RV2,3,3*%
%TO.N,+3.3V*%
X8047800Y-8686800D03*
%TD*%
D15*
%TO.P,J7,S*%
%TO.N,GND*%
X8420100Y-13893800D03*
D16*
%TO.P,J7,T*%
%TO.N,in_7*%
X7280100Y-13893800D03*
%TO.P,J7,TN*%
%TO.N,unconnected-(J7-PadTN)*%
X8110100Y-13893800D03*
%TD*%
D15*
%TO.P,J3,S*%
%TO.N,GND*%
X8420100Y-12928600D03*
D16*
%TO.P,J3,T*%
%TO.N,in_3*%
X7280100Y-12928600D03*
%TO.P,J3,TN*%
%TO.N,unconnected-(J3-PadTN)*%
X8110100Y-12928600D03*
%TD*%
D15*
%TO.P,J8,S*%
%TO.N,GND*%
X9791700Y-13893800D03*
D16*
%TO.P,J8,T*%
%TO.N,in_8*%
X8651700Y-13893800D03*
%TO.P,J8,TN*%
%TO.N,unconnected-(J8-PadTN)*%
X9481700Y-13893800D03*
%TD*%
D12*
%TO.P,RV8,*%
%TO.N,*%
X9644600Y-9460800D03*
X10624600Y-9460800D03*
D13*
%TO.P,RV8,1,1*%
%TO.N,GND*%
X9884600Y-10210800D03*
D14*
%TO.P,RV8,2,2*%
%TO.N,pot_8*%
X10134600Y-10210800D03*
%TO.P,RV8,3,3*%
%TO.N,+3.3V*%
X10384600Y-10210800D03*
%TD*%
D17*
%TO.P,SW1,1,1*%
%TO.N,GND*%
X7623600Y-11374000D03*
%TO.P,SW1,2,2*%
X7623600Y-10724000D03*
%TO.P,SW1,3,K*%
%TO.N,TACTILE_SW*%
X8073600Y-11374000D03*
%TO.P,SW1,4,A*%
X8073600Y-10724000D03*
%TD*%
D18*
%TO.P,SW3,1,A*%
%TO.N,TOGGLE2_1*%
X8356600Y-9829800D03*
%TO.P,SW3,2,B*%
%TO.N,GND*%
X8356600Y-10083800D03*
%TO.P,SW3,3,C*%
%TO.N,TOGGLE2_3*%
X8356600Y-10337800D03*
%TD*%
D12*
%TO.P,RV1,*%
%TO.N,*%
X5072600Y-3999800D03*
X6052600Y-3999800D03*
D13*
%TO.P,RV1,1,1*%
%TO.N,GND*%
X5312600Y-4749800D03*
D14*
%TO.P,RV1,2,2*%
%TO.N,pot_1*%
X5562600Y-4749800D03*
%TO.P,RV1,3,3*%
%TO.N,+3.3V*%
X5812600Y-4749800D03*
%TD*%
D15*
%TO.P,J5,S*%
%TO.N,GND*%
X5676900Y-13893800D03*
D16*
%TO.P,J5,T*%
%TO.N,in_5*%
X4536900Y-13893800D03*
%TO.P,J5,TN*%
%TO.N,unconnected-(J5-PadTN)*%
X5366900Y-13893800D03*
%TD*%
D15*
%TO.P,J9,S*%
%TO.N,GND*%
X7058200Y-11912600D03*
D16*
%TO.P,J9,T*%
%TO.N,GATE_IN*%
X5918200Y-11912600D03*
%TO.P,J9,TN*%
%TO.N,unconnected-(J9-PadTN)*%
X6748200Y-11912600D03*
%TD*%
%TO.P,J10,R*%
%TO.N,/Jacks/MIDI_SOURCE*%
X5367200Y-11912600D03*
D19*
%TO.P,J10,S*%
%TO.N,unconnected-(J10-PadS)*%
X5677200Y-11912600D03*
D16*
%TO.P,J10,T*%
%TO.N,/Jacks/MIDI_SINK*%
X4537200Y-11912600D03*
%TD*%
D15*
%TO.P,J1,S*%
%TO.N,GND*%
X5676900Y-12928600D03*
D16*
%TO.P,J1,T*%
%TO.N,in_1*%
X4536900Y-12928600D03*
%TO.P,J1,TN*%
%TO.N,unconnected-(J1-PadTN)*%
X5366900Y-12928600D03*
%TD*%
D12*
%TO.P,RV4,*%
%TO.N,*%
X9644600Y-3999800D03*
X10624600Y-3999800D03*
D13*
%TO.P,RV4,1,1*%
%TO.N,GND*%
X9884600Y-4749800D03*
D14*
%TO.P,RV4,2,2*%
%TO.N,pot_6*%
X10134600Y-4749800D03*
%TO.P,RV4,3,3*%
%TO.N,+3.3V*%
X10384600Y-4749800D03*
%TD*%
D15*
%TO.P,J6,S*%
%TO.N,GND*%
X7048500Y-13893800D03*
D16*
%TO.P,J6,T*%
%TO.N,in_6*%
X5908500Y-13893800D03*
%TO.P,J6,TN*%
%TO.N,unconnected-(J6-PadTN)*%
X6738500Y-13893800D03*
%TD*%
D12*
%TO.P,RV5,*%
%TO.N,*%
X5072600Y-9460800D03*
X6052600Y-9460800D03*
D13*
%TO.P,RV5,1,1*%
%TO.N,GND*%
X5312600Y-10210800D03*
D14*
%TO.P,RV5,2,2*%
%TO.N,pot_3*%
X5562600Y-10210800D03*
%TO.P,RV5,3,3*%
%TO.N,+3.3V*%
X5812600Y-10210800D03*
%TD*%
D15*
%TO.P,J12,S*%
%TO.N,GND*%
X11163300Y-13893800D03*
D16*
%TO.P,J12,T*%
%TO.N,Net-(J12-PadT)*%
X10023300Y-13893800D03*
%TO.P,J12,TN*%
%TO.N,unconnected-(J12-PadTN)*%
X10853300Y-13893800D03*
%TD*%
D18*
%TO.P,SW2,1,A*%
%TO.N,TOGGLE1_1*%
X7340600Y-9829800D03*
%TO.P,SW2,2,B*%
%TO.N,GND*%
X7340600Y-10083800D03*
%TO.P,SW2,3,C*%
%TO.N,TOGGLE1_3*%
X7340600Y-10337800D03*
%TD*%
D12*
%TO.P,RV7,*%
%TO.N,*%
X7307800Y-5460300D03*
X8287800Y-5460300D03*
D13*
%TO.P,RV7,1,1*%
%TO.N,GND*%
X7547800Y-6210300D03*
D14*
%TO.P,RV7,2,2*%
%TO.N,pot_4*%
X7797800Y-6210300D03*
%TO.P,RV7,3,3*%
%TO.N,+3.3V*%
X8047800Y-6210300D03*
%TD*%
D15*
%TO.P,J2,S*%
%TO.N,GND*%
X7048500Y-12928600D03*
D16*
%TO.P,J2,T*%
%TO.N,in_2*%
X5908500Y-12928600D03*
%TO.P,J2,TN*%
%TO.N,unconnected-(J2-PadTN)*%
X6738500Y-12928600D03*
%TD*%
D15*
%TO.P,J11,S*%
%TO.N,GND*%
X11163300Y-12928600D03*
D16*
%TO.P,J11,T*%
%TO.N,Net-(J11-PadT)*%
X10023300Y-12928600D03*
%TO.P,J11,TN*%
%TO.N,unconnected-(J11-PadTN)*%
X10853300Y-12928600D03*
%TD*%
D12*
%TO.P,RV3,*%
%TO.N,*%
X5072600Y-6730300D03*
X6052600Y-6730300D03*
D13*
%TO.P,RV3,1,1*%
%TO.N,GND*%
X5312600Y-7480300D03*
D14*
%TO.P,RV3,2,2*%
%TO.N,pot_2*%
X5562600Y-7480300D03*
%TO.P,RV3,3,3*%
%TO.N,+3.3V*%
X5812600Y-7480300D03*
%TD*%
D12*
%TO.P,RV6,*%
%TO.N,*%
X9644600Y-6730300D03*
X10624600Y-6730300D03*
D13*
%TO.P,RV6,1,1*%
%TO.N,GND*%
X9884600Y-7480300D03*
D14*
%TO.P,RV6,2,2*%
%TO.N,pot_7*%
X10134600Y-7480300D03*
%TO.P,RV6,3,3*%
%TO.N,+3.3V*%
X10384600Y-7480300D03*
%TD*%
D15*
%TO.P,J4,S*%
%TO.N,GND*%
X9791700Y-12928600D03*
D16*
%TO.P,J4,T*%
%TO.N,in_4*%
X8651700Y-12928600D03*
%TO.P,J4,TN*%
%TO.N,unconnected-(J4-PadTN)*%
X9481700Y-12928600D03*
%TD*%
D20*
%TO.N,POT_MUX_ADC_Y*%
X5765800Y-5511800D03*
X7137400Y-6832600D03*
%TO.N,POT_MUX_A*%
X8280400Y-7137400D03*
X7975600Y-5257800D03*
%TO.N,POT_MUX_ADC_X*%
X7213600Y-7213600D03*
X5714997Y-5257797D03*
%TO.N,POT_MUX_B*%
X8077200Y-7239000D03*
X7922460Y-5636460D03*
%TO.N,LED_RIGHT*%
X6858000Y-10464800D03*
X6883400Y-9626600D03*
%TO.N,AUDIO_RIGHT*%
X5689600Y-11480800D03*
X5588000Y-10363200D03*
%TO.N,AUDIO_LEFT*%
X6578600Y-8966200D03*
X6096000Y-11607800D03*
%TO.N,LED_LEFT*%
X7035800Y-11201400D03*
X7035800Y-9372600D03*
%TO.N,Net-(J12-PadT)*%
X8940800Y-9474200D03*
%TO.N,CV_OUT_2*%
X8305800Y-11455403D03*
X8838011Y-10389789D03*
%TO.N,TOGGLE2_1*%
X8483600Y-5765800D03*
%TO.N,TOGGLE1_1*%
X8763000Y-9525000D03*
X9093200Y-6324600D03*
%TO.N,TOGGLE2_3*%
X8635999Y-6248401D03*
%TO.N,analog_out_2*%
X10236200Y-9271000D03*
X10363200Y-7950200D03*
D21*
%TO.N,+12V*%
X10769600Y-9194800D03*
X10439400Y-12242800D03*
X11127240Y-9194800D03*
X9982200Y-12268200D03*
D20*
%TO.N,GND*%
X10160000Y-8153400D03*
X9652000Y-8686800D03*
X7298711Y-7047089D03*
D21*
X10566400Y-6019800D03*
X10947400Y-4927600D03*
X9652000Y-5054600D03*
D20*
X10464800Y-8686800D03*
X7340600Y-9525000D03*
X8153400Y-9550400D03*
X9956800Y-5105400D03*
D21*
X5461000Y-5638800D03*
X6807200Y-5740400D03*
X8229600Y-12065000D03*
D20*
X4826000Y-9982200D03*
D21*
X8229499Y-11813500D03*
D20*
X8686800Y-6553200D03*
X9982200Y-8280400D03*
D21*
%TO.N,-12V*%
X9880600Y-6553200D03*
X7543800Y-4521200D03*
X10109200Y-8813800D03*
X7120200Y-7657600D03*
X9652000Y-7442194D03*
X7250200Y-11694600D03*
%TO.N,+3.3V*%
X6832600Y-4826000D03*
X8483600Y-6477000D03*
X4572000Y-9474200D03*
D20*
%TO.N,-5V*%
X9245600Y-6959599D03*
X8909360Y-7911028D03*
%TO.N,TOGGLE1_3*%
X8763000Y-9652000D03*
X9525000Y-5765800D03*
%TO.N,in_1*%
X9448800Y-11506200D03*
X9448800Y-12674600D03*
%TO.N,in_5*%
X6172200Y-13690600D03*
X6324600Y-11506200D03*
%TO.N,in_2*%
X8966198Y-12674600D03*
X8966200Y-11658600D03*
%TO.N,TACTILE_SW*%
X8509000Y-5105400D03*
%TO.N,in_3*%
X8878501Y-12733066D03*
X8890000Y-11531600D03*
%TO.N,in_4*%
X8640614Y-11679386D03*
%TO.N,in_8*%
X8661400Y-14173200D03*
%TO.N,CV_OUT_1*%
X8686800Y-8128000D03*
X8452770Y-10541285D03*
%TO.N,pot_1*%
X6426200Y-6654800D03*
%TO.N,pot_5*%
X7845233Y-7032433D03*
%TO.N,pot_8*%
X8966200Y-7061200D03*
%TO.N,Net-(J11-PadT)*%
X8966200Y-10083800D03*
%TD*%
D22*
%TO.N,POT_MUX_ADC_Y*%
X7137400Y-6832600D02*
X6793050Y-6832600D01*
X6793050Y-6832600D02*
X5761840Y-5801390D01*
D23*
X5761840Y-5515760D02*
X5765800Y-5511800D01*
X5761840Y-5566561D02*
X5761840Y-5515760D01*
D22*
X5761840Y-5801390D02*
X5761840Y-5566561D01*
%TO.N,POT_MUX_A*%
X7975600Y-5423228D02*
X7975600Y-5257800D01*
X8280400Y-5728028D02*
X7975600Y-5423228D01*
X8280400Y-7137400D02*
X8280400Y-5728028D01*
D23*
%TO.N,POT_MUX_ADC_X*%
X5714998Y-5257798D02*
X5714997Y-5257797D01*
D22*
X5695640Y-5277156D02*
X5714998Y-5257798D01*
X7102887Y-7213600D02*
X5695640Y-5806353D01*
X7213600Y-7213600D02*
X7102887Y-7213600D01*
X5695640Y-5806353D02*
X5695640Y-5277156D01*
D23*
X5714997Y-5257797D02*
X5714997Y-5257797D01*
D22*
%TO.N,POT_MUX_B*%
X8177960Y-5891960D02*
X8177960Y-7138240D01*
X7924800Y-5638800D02*
X8177960Y-5891960D01*
X8177960Y-7138240D02*
X8077200Y-7239000D01*
%TO.N,LED_RIGHT*%
X6883400Y-9626600D02*
X6883400Y-10439400D01*
X6883400Y-10439400D02*
X6858000Y-10464800D01*
%TO.N,AUDIO_RIGHT*%
X5588000Y-10490200D02*
X5588000Y-10363200D01*
X5689600Y-11480800D02*
X5588000Y-11379200D01*
X5588000Y-11379200D02*
X5588000Y-10490200D01*
%TO.N,AUDIO_LEFT*%
X6045200Y-11607800D02*
X6096000Y-11607800D01*
X6578600Y-8966200D02*
X6578600Y-9878250D01*
X5685640Y-11248240D02*
X6045200Y-11607800D01*
X5685640Y-10771210D02*
X5685640Y-11248240D01*
X6578600Y-9878250D02*
X5685640Y-10771210D01*
%TO.N,LED_LEFT*%
X7035800Y-9372600D02*
X7035800Y-11201400D01*
%TO.N,Net-(J12-PadT)*%
X8940800Y-9527320D02*
X9754440Y-10340960D01*
X9754440Y-10340960D02*
X9832960Y-10340960D01*
X10138460Y-13026340D02*
X10138460Y-13778640D01*
X10693400Y-12471400D02*
X10138460Y-13026340D01*
X10138460Y-13778640D02*
X10023300Y-13893800D01*
X9832960Y-10340960D02*
X10693400Y-11201400D01*
X10693400Y-11201400D02*
X10693400Y-12471400D01*
X8940800Y-9474200D02*
X8940800Y-9527320D01*
%TO.N,CV_OUT_2*%
X8230080Y-11379683D02*
X8305800Y-11455403D01*
X8230080Y-10748757D02*
X8230080Y-11379683D01*
X8584720Y-10643080D02*
X8335757Y-10643080D01*
X8335757Y-10643080D02*
X8230080Y-10748757D01*
X8838011Y-10389789D02*
X8584720Y-10643080D01*
%TO.N,TOGGLE2_1*%
X8569160Y-6441560D02*
X8483600Y-6356000D01*
X8483600Y-6356000D02*
X8483600Y-5765800D01*
X8356600Y-9829800D02*
X8569160Y-9617240D01*
X8569160Y-9617240D02*
X8569160Y-6441560D01*
%TO.N,TOGGLE1_1*%
X8763000Y-6654800D02*
X8763000Y-9525000D01*
X9093200Y-6324600D02*
X8763000Y-6654800D01*
%TO.N,TOGGLE2_3*%
X8609640Y-10084760D02*
X8609640Y-6274760D01*
X8609640Y-6274760D02*
X8635999Y-6248401D01*
X8356600Y-10337800D02*
X8609640Y-10084760D01*
%TO.N,analog_out_2*%
X10363200Y-7950200D02*
X10236200Y-8077200D01*
X10236200Y-8077200D02*
X10236200Y-9271000D01*
D24*
%TO.N,+12V*%
X11127240Y-9194800D02*
X10769600Y-9194800D01*
X10439400Y-12242800D02*
X10007600Y-12242800D01*
X10007600Y-12242800D02*
X9982200Y-12268200D01*
%TO.N,-12V*%
X7110800Y-11555200D02*
X7110800Y-7667000D01*
X9652000Y-7432900D02*
X9652000Y-7442194D01*
X9880600Y-6553200D02*
X9880600Y-7204300D01*
X7250200Y-11694600D02*
X7110800Y-11555200D01*
X9652000Y-7782936D02*
X9652000Y-7442194D01*
X7422800Y-5632800D02*
X7543800Y-5511800D01*
X7543800Y-5511800D02*
X7543800Y-4521200D01*
X10109200Y-8813800D02*
X10109200Y-8240136D01*
X7422800Y-7182200D02*
X7422800Y-5632800D01*
X10109200Y-8240136D02*
X9652000Y-7782936D01*
X9880600Y-7204300D02*
X9652000Y-7432900D01*
X7110800Y-7667000D02*
X7120200Y-7657600D01*
X7120200Y-7484800D02*
X7422800Y-7182200D01*
X7120200Y-7657600D02*
X7120200Y-7484800D01*
D22*
%TO.N,-5V*%
X8889520Y-7036279D02*
X8966200Y-6959599D01*
X8909360Y-7911028D02*
X8889520Y-7891188D01*
X8966200Y-6959599D02*
X9245600Y-6959599D01*
X8889520Y-7891188D02*
X8889520Y-7036279D01*
D23*
%TO.N,TOGGLE1_3*%
X9067800Y-6451600D02*
X9525000Y-5994400D01*
X9525000Y-5994400D02*
X9525000Y-5765800D01*
D22*
X8839200Y-9575800D02*
X8839200Y-6680200D01*
X8839200Y-6680200D02*
X9067800Y-6451600D01*
X8763000Y-9652000D02*
X8839200Y-9575800D01*
%TO.N,in_1*%
X9448800Y-12674600D02*
X9448800Y-11506200D01*
%TO.N,in_5*%
X6172200Y-11658600D02*
X6324600Y-11506200D01*
X6172200Y-13690600D02*
X6172200Y-11658600D01*
%TO.N,in_2*%
X8966200Y-12674598D02*
X8966198Y-12674600D01*
X8966200Y-11658600D02*
X8966200Y-12674598D01*
%TO.N,TACTILE_SW*%
X8509000Y-5514228D02*
X8509000Y-5105400D01*
X8398040Y-6512440D02*
X8398040Y-5625188D01*
X8073600Y-8868200D02*
X8489960Y-8451840D01*
X8489960Y-8451840D02*
X8489960Y-6604360D01*
X8073600Y-10724000D02*
X8073600Y-8868200D01*
X8489960Y-6604360D02*
X8398040Y-6512440D01*
X8398040Y-5625188D02*
X8509000Y-5514228D01*
%TO.N,in_3*%
X8890000Y-11531600D02*
X8890000Y-12721567D01*
X8890000Y-12721567D02*
X8878501Y-12733066D01*
%TO.N,in_4*%
X8651700Y-12928600D02*
X8651700Y-11690472D01*
X8651700Y-11690472D02*
X8640614Y-11679386D01*
%TO.N,in_8*%
X8651700Y-14112700D02*
X8651700Y-13893800D01*
X8661400Y-14122400D02*
X8651700Y-14112700D01*
X8661400Y-14173200D02*
X8661400Y-14122400D01*
%TO.N,CV_OUT_1*%
X8686800Y-8128000D02*
X8686800Y-10296625D01*
X8452770Y-10530655D02*
X8452770Y-10541285D01*
X8686800Y-10296625D02*
X8452770Y-10530655D01*
%TO.N,pot_1*%
X5562600Y-5791200D02*
X6426200Y-6654800D01*
X5562600Y-4749800D02*
X5562600Y-5791200D01*
D23*
%TO.N,pot_5*%
X7797800Y-8686800D02*
X7797800Y-7079867D01*
X7797800Y-7079867D02*
X7845233Y-7032433D01*
D22*
%TO.N,pot_8*%
X8979520Y-7883331D02*
X10134600Y-9038412D01*
X10134600Y-9038412D02*
X10134600Y-10210800D01*
X8979520Y-7074520D02*
X8979520Y-7883331D01*
X8966200Y-7061200D02*
X8979520Y-7074520D01*
%TO.N,Net-(J11-PadT)*%
X10566400Y-11277600D02*
X10566400Y-12385500D01*
X10566400Y-12385500D02*
X10023300Y-12928600D01*
X9372600Y-10083800D02*
X10566400Y-11277600D01*
X8966200Y-10083800D02*
X9372600Y-10083800D01*
%TD*%
M02*
