%TF.GenerationSoftware,KiCad,Pcbnew,9.0.0*%
%TF.CreationDate,2025-03-09T14:36:42-04:00*%
%TF.ProjectId,200_Plattform,3230305f-506c-4617-9474-666f726d2e6b,A1*%
%TF.SameCoordinates,Original*%
%TF.FileFunction,Copper,L1,Top*%
%TF.FilePolarity,Positive*%
%FSLAX45Y45*%
G04 Gerber Fmt 4.5, Leading zero omitted, Abs format (unit mm)*
G04 Created by KiCad (PCBNEW 9.0.0) date 2025-03-09 14:36:42*
%MOMM*%
%LPD*%
G01*
G04 APERTURE LIST*
G04 Aperture macros list*
%AMRoundRect*
0 Rectangle with rounded corners*
0 $1 Rounding radius*
0 $2 $3 $4 $5 $6 $7 $8 $9 X,Y pos of 4 corners*
0 Add a 4 corners polygon primitive as box body*
4,1,4,$2,$3,$4,$5,$6,$7,$8,$9,$2,$3,0*
0 Add four circle primitives for the rounded corners*
1,1,$1+$1,$2,$3*
1,1,$1+$1,$4,$5*
1,1,$1+$1,$6,$7*
1,1,$1+$1,$8,$9*
0 Add four rect primitives between the rounded corners*
20,1,$1+$1,$2,$3,$4,$5,0*
20,1,$1+$1,$4,$5,$6,$7,0*
20,1,$1+$1,$6,$7,$8,$9,0*
20,1,$1+$1,$8,$9,$2,$3,0*%
G04 Aperture macros list end*
%TA.AperFunction,SMDPad,CuDef*%
%ADD10R,1.500000X1.000000*%
%TD*%
%TA.AperFunction,SMDPad,CuDef*%
%ADD11R,1.000000X1.500000*%
%TD*%
%TA.AperFunction,SMDPad,CuDef*%
%ADD12RoundRect,0.150000X-0.587500X-0.150000X0.587500X-0.150000X0.587500X0.150000X-0.587500X0.150000X0*%
%TD*%
%TA.AperFunction,SMDPad,CuDef*%
%ADD13RoundRect,0.250000X1.050000X0.550000X-1.050000X0.550000X-1.050000X-0.550000X1.050000X-0.550000X0*%
%TD*%
%TA.AperFunction,SMDPad,CuDef*%
%ADD14RoundRect,0.250000X0.550000X-1.050000X0.550000X1.050000X-0.550000X1.050000X-0.550000X-1.050000X0*%
%TD*%
%TA.AperFunction,ComponentPad*%
%ADD15C,1.700000*%
%TD*%
%TA.AperFunction,ComponentPad*%
%ADD16R,1.700000X1.700000*%
%TD*%
%TA.AperFunction,SMDPad,CuDef*%
%ADD17RoundRect,0.100000X-0.637500X-0.100000X0.637500X-0.100000X0.637500X0.100000X-0.637500X0.100000X0*%
%TD*%
%TA.AperFunction,SMDPad,CuDef*%
%ADD18RoundRect,0.250000X-0.625000X0.312500X-0.625000X-0.312500X0.625000X-0.312500X0.625000X0.312500X0*%
%TD*%
%TA.AperFunction,SMDPad,CuDef*%
%ADD19RoundRect,0.225000X0.225000X0.375000X-0.225000X0.375000X-0.225000X-0.375000X0.225000X-0.375000X0*%
%TD*%
%TA.AperFunction,SMDPad,CuDef*%
%ADD20RoundRect,0.225000X-0.225000X-0.375000X0.225000X-0.375000X0.225000X0.375000X-0.225000X0.375000X0*%
%TD*%
%TA.AperFunction,SMDPad,CuDef*%
%ADD21RoundRect,0.225000X-0.225000X-0.250000X0.225000X-0.250000X0.225000X0.250000X-0.225000X0.250000X0*%
%TD*%
%TA.AperFunction,SMDPad,CuDef*%
%ADD22RoundRect,0.225000X0.225000X0.250000X-0.225000X0.250000X-0.225000X-0.250000X0.225000X-0.250000X0*%
%TD*%
%TA.AperFunction,SMDPad,CuDef*%
%ADD23RoundRect,0.225000X0.250000X-0.225000X0.250000X0.225000X-0.250000X0.225000X-0.250000X-0.225000X0*%
%TD*%
%TA.AperFunction,SMDPad,CuDef*%
%ADD24RoundRect,0.200000X0.200000X0.275000X-0.200000X0.275000X-0.200000X-0.275000X0.200000X-0.275000X0*%
%TD*%
%TA.AperFunction,ComponentPad*%
%ADD25O,3.240000X2.720000*%
%TD*%
%TA.AperFunction,ComponentPad*%
%ADD26R,1.800000X1.800000*%
%TD*%
%TA.AperFunction,ComponentPad*%
%ADD27C,1.800000*%
%TD*%
%TA.AperFunction,SMDPad,CuDef*%
%ADD28RoundRect,0.200000X-0.200000X-0.275000X0.200000X-0.275000X0.200000X0.275000X-0.200000X0.275000X0*%
%TD*%
%TA.AperFunction,ComponentPad*%
%ADD29RoundRect,0.269231X0.430769X-0.730769X0.430769X0.730769X-0.430769X0.730769X-0.430769X-0.730769X0*%
%TD*%
%TA.AperFunction,ComponentPad*%
%ADD30RoundRect,0.176056X0.573944X-0.923944X0.573944X0.923944X-0.573944X0.923944X-0.573944X-0.923944X0*%
%TD*%
%TA.AperFunction,SMDPad,CuDef*%
%ADD31RoundRect,0.250000X0.312500X1.075000X-0.312500X1.075000X-0.312500X-1.075000X0.312500X-1.075000X0*%
%TD*%
%TA.AperFunction,ComponentPad*%
%ADD32C,2.000000*%
%TD*%
%TA.AperFunction,SMDPad,CuDef*%
%ADD33RoundRect,0.218750X0.256250X-0.218750X0.256250X0.218750X-0.256250X0.218750X-0.256250X-0.218750X0*%
%TD*%
%TA.AperFunction,ComponentPad*%
%ADD34C,2.032000*%
%TD*%
%TA.AperFunction,SMDPad,CuDef*%
%ADD35R,0.640000X2.000000*%
%TD*%
%TA.AperFunction,ComponentPad*%
%ADD36RoundRect,0.191257X0.508743X-0.808743X0.508743X0.808743X-0.508743X0.808743X-0.508743X-0.808743X0*%
%TD*%
%TA.AperFunction,SMDPad,CuDef*%
%ADD37RoundRect,0.200000X-0.275000X0.200000X-0.275000X-0.200000X0.275000X-0.200000X0.275000X0.200000X0*%
%TD*%
%TA.AperFunction,SMDPad,CuDef*%
%ADD38RoundRect,0.200000X0.275000X-0.200000X0.275000X0.200000X-0.275000X0.200000X-0.275000X-0.200000X0*%
%TD*%
%TA.AperFunction,ViaPad*%
%ADD39C,0.800000*%
%TD*%
%TA.AperFunction,ViaPad*%
%ADD40C,1.000000*%
%TD*%
%TA.AperFunction,Conductor*%
%ADD41C,0.300000*%
%TD*%
%TA.AperFunction,Conductor*%
%ADD42C,0.203200*%
%TD*%
%TA.AperFunction,Conductor*%
%ADD43C,0.400000*%
%TD*%
%TA.AperFunction,Conductor*%
%ADD44C,0.200000*%
%TD*%
G04 APERTURE END LIST*
D10*
%TO.P,J13,1,X1*%
%TO.N,-12V*%
X5950800Y-4990200D03*
%TO.P,J13,2,X2*%
%TO.N,POT_MUX_ADC_X*%
X5950800Y-5244200D03*
%TO.P,J13,3,X3*%
%TO.N,POT_MUX_ADC_Y*%
X5950800Y-5498200D03*
%TO.P,J13,4,X4*%
%TO.N,GND*%
X5950800Y-5752200D03*
%TO.P,J13,5,X5*%
%TO.N,+12V*%
X5950800Y-6006200D03*
%TO.P,J13,6,X6*%
%TO.N,unconnected-(J13-X6-Pad6)*%
X6530800Y-6006200D03*
%TO.P,J13,7,X7*%
%TO.N,GND*%
X6530800Y-5752200D03*
%TO.P,J13,8,X8*%
%TO.N,POT_MUX_B*%
X6530800Y-5498200D03*
%TO.P,J13,9,X9*%
%TO.N,POT_MUX_A*%
X6530800Y-5244200D03*
%TO.P,J13,10,X10*%
%TO.N,+3.3V*%
X6530800Y-4990200D03*
%TD*%
D11*
%TO.P,J15,1,X1*%
%TO.N,CV_OUT_2*%
X8432800Y-11288200D03*
%TO.P,J15,2,X2*%
%TO.N,in_4*%
X8686800Y-11288200D03*
%TO.P,J15,3,X3*%
%TO.N,in_3*%
X8940800Y-11288200D03*
%TO.P,J15,4,X4*%
%TO.N,in_2*%
X9194800Y-11288200D03*
%TO.P,J15,5,X5*%
%TO.N,in_1*%
X9448800Y-11288200D03*
%TO.P,J15,6,X6*%
%TO.N,in_5*%
X9448800Y-10708200D03*
%TO.P,J15,7,X7*%
%TO.N,in_6*%
X9194800Y-10708200D03*
%TO.P,J15,8,X8*%
%TO.N,in_7*%
X8940800Y-10708200D03*
%TO.P,J15,9,X9*%
%TO.N,in_8*%
X8686800Y-10708200D03*
%TO.P,J15,10,X10*%
%TO.N,CV_OUT_1*%
X8432800Y-10708200D03*
%TD*%
D10*
%TO.P,J16,1,X1*%
%TO.N,TACTILE_SW*%
X8750800Y-4990200D03*
%TO.P,J16,2,X2*%
%TO.N,unconnected-(J16-X2-Pad2)*%
X8750800Y-5244200D03*
%TO.P,J16,3,X3*%
%TO.N,unconnected-(J16-X3-Pad3)*%
X8750800Y-5498200D03*
%TO.P,J16,4,X4*%
%TO.N,TOGGLE2_1*%
X8750800Y-5752200D03*
%TO.P,J16,5,X5*%
%TO.N,TOGGLE2_3*%
X8750800Y-6006200D03*
%TO.P,J16,6,X6*%
%TO.N,TOGGLE1_1*%
X9330800Y-6006200D03*
%TO.P,J16,7,X7*%
%TO.N,TOGGLE1_3*%
X9330800Y-5752200D03*
%TO.P,J16,8,X8*%
%TO.N,unconnected-(J16-X8-Pad8)*%
X9330800Y-5498200D03*
%TO.P,J16,9,X9*%
%TO.N,unconnected-(J16-X9-Pad9)*%
X9330800Y-5244200D03*
%TO.P,J16,10,X10*%
%TO.N,unconnected-(J16-X10-Pad10)*%
X9330800Y-4990200D03*
%TD*%
D11*
%TO.P,J14,1,X1*%
%TO.N,AUDIO_RIGHT*%
X5832800Y-11288200D03*
%TO.P,J14,2,X2*%
%TO.N,AUDIO_LEFT*%
X6086800Y-11288200D03*
%TO.P,J14,3,X3*%
%TO.N,in_5*%
X6340800Y-11288200D03*
%TO.P,J14,4,X4*%
%TO.N,in_1*%
X6594800Y-11288200D03*
%TO.P,J14,5,X5*%
%TO.N,LED_LEFT*%
X6848800Y-11288200D03*
%TO.P,J14,6,X6*%
%TO.N,LED_RIGHT*%
X6848800Y-10708200D03*
%TO.P,J14,7,X7*%
%TO.N,MIDI_UART_RX*%
X6594800Y-10708200D03*
%TO.P,J14,8,X8*%
%TO.N,unconnected-(J14-X8-Pad8)*%
X6340800Y-10708200D03*
%TO.P,J14,9,X9*%
%TO.N,unconnected-(J14-X9-Pad9)*%
X6086800Y-10708200D03*
%TO.P,J14,10,X10*%
%TO.N,GATE_IN*%
X5832800Y-10708200D03*
%TD*%
D12*
%TO.P,U3,3,NC*%
%TO.N,unconnected-(U3-NC-Pad3)*%
X10380750Y-5232400D03*
%TO.P,U3,2,A*%
%TO.N,-5V*%
X10193250Y-5327400D03*
%TO.P,U3,1,K*%
%TO.N,GND*%
X10193250Y-5137400D03*
%TD*%
D13*
%TO.P,C8,1*%
%TO.N,GND*%
X10543200Y-5765800D03*
%TO.P,C8,2*%
%TO.N,-12V*%
X10183200Y-5765800D03*
%TD*%
D14*
%TO.P,C7,1*%
%TO.N,+12V*%
X10871200Y-5539400D03*
%TO.P,C7,2*%
%TO.N,GND*%
X10871200Y-5179400D03*
%TD*%
D15*
%TO.P,J17,10,+12V*%
%TO.N,Net-(D4-A)*%
X9972800Y-11889200D03*
%TO.P,J17,9,+12V*%
X9718800Y-11889200D03*
%TO.P,J17,8,gnd*%
%TO.N,GND*%
X9972800Y-11635200D03*
%TO.P,J17,7,gnd*%
X9718800Y-11635200D03*
%TO.P,J17,6,gnd*%
X9972800Y-11381200D03*
%TO.P,J17,5,gnd*%
X9718800Y-11381200D03*
%TO.P,J17,4,gnd*%
X9972800Y-11127200D03*
%TO.P,J17,3,gnd*%
X9718800Y-11127200D03*
%TO.P,J17,2,-12V*%
%TO.N,Net-(D5-K)*%
X9972800Y-10873200D03*
D16*
%TO.P,J17,1,-12V*%
X9718800Y-10873200D03*
%TD*%
D17*
%TO.P,U2,1*%
%TO.N,Net-(C1-Pad2)*%
X9797550Y-8110800D03*
%TO.P,U2,2,-*%
%TO.N,Net-(U2A--)*%
X9797550Y-8175800D03*
%TO.P,U2,3,+*%
%TO.N,GND*%
X9797550Y-8240800D03*
%TO.P,U2,4,V+*%
%TO.N,+12V*%
X9797550Y-8305800D03*
%TO.P,U2,5,+*%
%TO.N,GND*%
X9797550Y-8370800D03*
%TO.P,U2,6,-*%
%TO.N,Net-(U2B--)*%
X9797550Y-8435800D03*
%TO.P,U2,7*%
%TO.N,analog_out_1*%
X9797550Y-8500800D03*
%TO.P,U2,8*%
%TO.N,Net-(C3-Pad2)*%
X10370050Y-8500800D03*
%TO.P,U2,9,-*%
%TO.N,Net-(U2C--)*%
X10370050Y-8435800D03*
%TO.P,U2,10,+*%
%TO.N,GND*%
X10370050Y-8370800D03*
%TO.P,U2,11,V-*%
%TO.N,-12V*%
X10370050Y-8305800D03*
%TO.P,U2,12,+*%
%TO.N,GND*%
X10370050Y-8240800D03*
%TO.P,U2,13,-*%
%TO.N,Net-(U2D--)*%
X10370050Y-8175800D03*
%TO.P,U2,14*%
%TO.N,analog_out_2*%
X10370050Y-8110800D03*
%TD*%
D18*
%TO.P,R19,1*%
%TO.N,-5V*%
X9880600Y-5365550D03*
%TO.P,R19,2*%
%TO.N,-12V*%
X9880600Y-5658050D03*
%TD*%
D19*
%TO.P,D5,1,K*%
%TO.N,Net-(D5-K)*%
X9156600Y-11811000D03*
%TO.P,D5,2,A*%
%TO.N,-12V*%
X8826600Y-11811000D03*
%TD*%
D20*
%TO.P,D4,1,K*%
%TO.N,+12V*%
X8826600Y-12065000D03*
%TO.P,D4,2,A*%
%TO.N,Net-(D4-A)*%
X9156600Y-12065000D03*
%TD*%
D21*
%TO.P,C10,1*%
%TO.N,GND*%
X8407400Y-11811000D03*
%TO.P,C10,2*%
%TO.N,-12V*%
X8562400Y-11811000D03*
%TD*%
D22*
%TO.P,C9,1*%
%TO.N,+12V*%
X8561100Y-12065000D03*
%TO.P,C9,2*%
%TO.N,GND*%
X8406100Y-12065000D03*
%TD*%
D23*
%TO.P,C11,1*%
%TO.N,-5V*%
X9652000Y-5362000D03*
%TO.P,C11,2*%
%TO.N,GND*%
X9652000Y-5207000D03*
%TD*%
D22*
%TO.P,C6,1*%
%TO.N,GND*%
X10339100Y-8686800D03*
%TO.P,C6,2*%
%TO.N,-12V*%
X10184100Y-8686800D03*
%TD*%
%TO.P,C5,1*%
%TO.N,+12V*%
X9984800Y-8686800D03*
%TO.P,C5,2*%
%TO.N,GND*%
X9829800Y-8686800D03*
%TD*%
D21*
%TO.P,C4,1*%
%TO.N,Net-(U2D--)*%
X10742900Y-7899400D03*
%TO.P,C4,2*%
%TO.N,analog_out_2*%
X10897900Y-7899400D03*
%TD*%
D24*
%TO.P,R11,1*%
%TO.N,-5V*%
X10902900Y-8255000D03*
%TO.P,R11,2*%
%TO.N,Net-(U2C--)*%
X10737900Y-8255000D03*
%TD*%
%TO.P,R14,1*%
%TO.N,Net-(C3-Pad2)*%
X10902900Y-8610600D03*
%TO.P,R14,2*%
%TO.N,Net-(U2D--)*%
X10737900Y-8610600D03*
%TD*%
D25*
%TO.P,RV2,*%
%TO.N,*%
X7307800Y-7936800D03*
X8287800Y-7936800D03*
D26*
%TO.P,RV2,1,1*%
%TO.N,GND*%
X7547800Y-8686800D03*
D27*
%TO.P,RV2,2,2*%
%TO.N,pot_5*%
X7797800Y-8686800D03*
%TO.P,RV2,3,3*%
%TO.N,+3.3V*%
X8047800Y-8686800D03*
%TD*%
D28*
%TO.P,R7,1*%
%TO.N,Net-(U2A--)*%
X9290100Y-7594600D03*
%TO.P,R7,2*%
%TO.N,Net-(C1-Pad2)*%
X9455100Y-7594600D03*
%TD*%
D29*
%TO.P,J7,S*%
%TO.N,GND*%
X8420100Y-13893800D03*
D30*
%TO.P,J7,T*%
%TO.N,in_7*%
X7280100Y-13893800D03*
%TO.P,J7,TN*%
%TO.N,unconnected-(J7-PadTN)*%
X8110100Y-13893800D03*
%TD*%
D28*
%TO.P,R12,1*%
%TO.N,Net-(U2C--)*%
X10737900Y-8432800D03*
%TO.P,R12,2*%
%TO.N,CV_OUT_2*%
X10902900Y-8432800D03*
%TD*%
D29*
%TO.P,J3,S*%
%TO.N,GND*%
X8420100Y-12928600D03*
D30*
%TO.P,J3,T*%
%TO.N,in_3*%
X7280100Y-12928600D03*
%TO.P,J3,TN*%
%TO.N,unconnected-(J3-PadTN)*%
X8110100Y-12928600D03*
%TD*%
D29*
%TO.P,J8,S*%
%TO.N,GND*%
X9791700Y-13893800D03*
D30*
%TO.P,J8,T*%
%TO.N,in_8*%
X8651700Y-13893800D03*
%TO.P,J8,TN*%
%TO.N,unconnected-(J8-PadTN)*%
X9481700Y-13893800D03*
%TD*%
D31*
%TO.P,R3,1*%
%TO.N,analog_out_1*%
X9239450Y-9728200D03*
%TO.P,R3,2*%
%TO.N,Net-(J11-PadT)*%
X8946950Y-9728200D03*
%TD*%
D25*
%TO.P,RV8,*%
%TO.N,*%
X9644600Y-9460800D03*
X10624600Y-9460800D03*
D26*
%TO.P,RV8,1,1*%
%TO.N,GND*%
X9884600Y-10210800D03*
D27*
%TO.P,RV8,2,2*%
%TO.N,pot_8*%
X10134600Y-10210800D03*
%TO.P,RV8,3,3*%
%TO.N,+3.3V*%
X10384600Y-10210800D03*
%TD*%
D32*
%TO.P,SW1,1,1*%
%TO.N,GND*%
X7623600Y-11374000D03*
%TO.P,SW1,2,2*%
X7623600Y-10724000D03*
%TO.P,SW1,3,K*%
%TO.N,TACTILE_SW*%
X8073600Y-11374000D03*
%TO.P,SW1,4,A*%
X8073600Y-10724000D03*
%TD*%
D33*
%TO.P,D3,1,K*%
%TO.N,GND*%
X8255000Y-9375150D03*
%TO.P,D3,2,A*%
%TO.N,Net-(D3-A)*%
X8255000Y-9217650D03*
%TD*%
D34*
%TO.P,SW3,1,A*%
%TO.N,TOGGLE2_1*%
X8356600Y-9829800D03*
%TO.P,SW3,2,B*%
%TO.N,GND*%
X8356600Y-10083800D03*
%TO.P,SW3,3,C*%
%TO.N,TOGGLE2_3*%
X8356600Y-10337800D03*
%TD*%
D24*
%TO.P,R8,1*%
%TO.N,Net-(C1-Pad2)*%
X9455100Y-8305800D03*
%TO.P,R8,2*%
%TO.N,Net-(U2B--)*%
X9290100Y-8305800D03*
%TD*%
D25*
%TO.P,RV1,*%
%TO.N,*%
X5072600Y-3999800D03*
X6052600Y-3999800D03*
D26*
%TO.P,RV1,1,1*%
%TO.N,GND*%
X5312600Y-4749800D03*
D27*
%TO.P,RV1,2,2*%
%TO.N,pot_1*%
X5562600Y-4749800D03*
%TO.P,RV1,3,3*%
%TO.N,+3.3V*%
X5812600Y-4749800D03*
%TD*%
D29*
%TO.P,J5,S*%
%TO.N,GND*%
X5676900Y-13893800D03*
D30*
%TO.P,J5,T*%
%TO.N,in_5*%
X4536900Y-13893800D03*
%TO.P,J5,TN*%
%TO.N,unconnected-(J5-PadTN)*%
X5366900Y-13893800D03*
%TD*%
D22*
%TO.P,C2,1*%
%TO.N,Net-(U2B--)*%
X9450100Y-8661400D03*
%TO.P,C2,2*%
%TO.N,analog_out_1*%
X9295100Y-8661400D03*
%TD*%
D24*
%TO.P,R10,1*%
%TO.N,Net-(U2B--)*%
X9455100Y-8483600D03*
%TO.P,R10,2*%
%TO.N,analog_out_1*%
X9290100Y-8483600D03*
%TD*%
D35*
%TO.P,U1,1*%
%TO.N,Net-(D1-K)*%
X4572000Y-10856000D03*
%TO.P,U1,2*%
%TO.N,/Jacks/MIDI_SINK*%
X4826000Y-10856000D03*
%TO.P,U1,3*%
%TO.N,GND*%
X4826000Y-10226000D03*
%TO.P,U1,4*%
%TO.N,MIDI_UART_RX*%
X4572000Y-10226000D03*
%TD*%
D29*
%TO.P,J9,S*%
%TO.N,GND*%
X7058200Y-11912600D03*
D30*
%TO.P,J9,T*%
%TO.N,GATE_IN*%
X5918200Y-11912600D03*
%TO.P,J9,TN*%
%TO.N,unconnected-(J9-PadTN)*%
X6748200Y-11912600D03*
%TD*%
D28*
%TO.P,R5,1*%
%TO.N,-5V*%
X9290100Y-7950200D03*
%TO.P,R5,2*%
%TO.N,Net-(U2A--)*%
X9455100Y-7950200D03*
%TD*%
D30*
%TO.P,J10,R*%
%TO.N,/Jacks/MIDI_SOURCE*%
X5367200Y-11912600D03*
D36*
%TO.P,J10,S*%
%TO.N,unconnected-(J10-PadS)*%
X5677200Y-11912600D03*
D30*
%TO.P,J10,T*%
%TO.N,/Jacks/MIDI_SINK*%
X4537200Y-11912600D03*
%TD*%
D28*
%TO.P,R16,1*%
%TO.N,Net-(U2D--)*%
X10737900Y-7721600D03*
%TO.P,R16,2*%
%TO.N,analog_out_2*%
X10902900Y-7721600D03*
%TD*%
%TO.P,R13,1*%
%TO.N,Net-(U2C--)*%
X10737900Y-8966200D03*
%TO.P,R13,2*%
%TO.N,Net-(C3-Pad2)*%
X10902900Y-8966200D03*
%TD*%
D24*
%TO.P,R15,1*%
%TO.N,AUDIO_RIGHT*%
X10902900Y-8077200D03*
%TO.P,R15,2*%
%TO.N,Net-(U2D--)*%
X10737900Y-8077200D03*
%TD*%
D37*
%TO.P,R17,1*%
%TO.N,Net-(D2-A)*%
X7162800Y-9213900D03*
%TO.P,R17,2*%
%TO.N,LED_LEFT*%
X7162800Y-9378900D03*
%TD*%
D31*
%TO.P,R4,1*%
%TO.N,analog_out_2*%
X9239450Y-9271000D03*
%TO.P,R4,2*%
%TO.N,Net-(J12-PadT)*%
X8946950Y-9271000D03*
%TD*%
D29*
%TO.P,J1,S*%
%TO.N,GND*%
X5676900Y-12928600D03*
D30*
%TO.P,J1,T*%
%TO.N,in_1*%
X4536900Y-12928600D03*
%TO.P,J1,TN*%
%TO.N,unconnected-(J1-PadTN)*%
X5366900Y-12928600D03*
%TD*%
D25*
%TO.P,RV4,*%
%TO.N,*%
X9644600Y-3999800D03*
X10624600Y-3999800D03*
D26*
%TO.P,RV4,1,1*%
%TO.N,GND*%
X9884600Y-4749800D03*
D27*
%TO.P,RV4,2,2*%
%TO.N,pot_6*%
X10134600Y-4749800D03*
%TO.P,RV4,3,3*%
%TO.N,+3.3V*%
X10384600Y-4749800D03*
%TD*%
D29*
%TO.P,J6,S*%
%TO.N,GND*%
X7048500Y-13893800D03*
D30*
%TO.P,J6,T*%
%TO.N,in_6*%
X5908500Y-13893800D03*
%TO.P,J6,TN*%
%TO.N,unconnected-(J6-PadTN)*%
X6738500Y-13893800D03*
%TD*%
D17*
%TO.P,U4,1,Y0*%
%TO.N,pot_1*%
X7511550Y-6681300D03*
%TO.P,U4,2,Y2*%
%TO.N,pot_2*%
X7511550Y-6746300D03*
%TO.P,U4,3,Y*%
%TO.N,POT_MUX_ADC_Y*%
X7511550Y-6811300D03*
%TO.P,U4,4,Y3*%
%TO.N,pot_4*%
X7511550Y-6876300D03*
%TO.P,U4,5,Y1*%
%TO.N,pot_3*%
X7511550Y-6941300D03*
%TO.P,U4,6,INH*%
%TO.N,GND*%
X7511550Y-7006300D03*
%TO.P,U4,7,VEE*%
X7511550Y-7071300D03*
%TO.P,U4,8,VSS*%
X7511550Y-7136300D03*
%TO.P,U4,9,B*%
%TO.N,POT_MUX_B*%
X8084050Y-7136300D03*
%TO.P,U4,10,A*%
%TO.N,POT_MUX_A*%
X8084050Y-7071300D03*
%TO.P,U4,11,X3*%
%TO.N,pot_5*%
X8084050Y-7006300D03*
%TO.P,U4,12,X0*%
%TO.N,pot_8*%
X8084050Y-6941300D03*
%TO.P,U4,13,X*%
%TO.N,POT_MUX_ADC_X*%
X8084050Y-6876300D03*
%TO.P,U4,14,X1*%
%TO.N,pot_7*%
X8084050Y-6811300D03*
%TO.P,U4,15,X2*%
%TO.N,pot_6*%
X8084050Y-6746300D03*
%TO.P,U4,16,VDD*%
%TO.N,+3.3V*%
X8084050Y-6681300D03*
%TD*%
D24*
%TO.P,R6,1*%
%TO.N,Net-(U2A--)*%
X9455100Y-8128000D03*
%TO.P,R6,2*%
%TO.N,CV_OUT_1*%
X9290100Y-8128000D03*
%TD*%
D21*
%TO.P,C1,1*%
%TO.N,Net-(U2A--)*%
X9295100Y-7772400D03*
%TO.P,C1,2*%
%TO.N,Net-(C1-Pad2)*%
X9450100Y-7772400D03*
%TD*%
%TO.P,C3,1*%
%TO.N,Net-(U2C--)*%
X10742900Y-8788400D03*
%TO.P,C3,2*%
%TO.N,Net-(C3-Pad2)*%
X10897900Y-8788400D03*
%TD*%
D25*
%TO.P,RV5,*%
%TO.N,*%
X5072600Y-9460800D03*
X6052600Y-9460800D03*
D26*
%TO.P,RV5,1,1*%
%TO.N,GND*%
X5312600Y-10210800D03*
D27*
%TO.P,RV5,2,2*%
%TO.N,pot_3*%
X5562600Y-10210800D03*
%TO.P,RV5,3,3*%
%TO.N,+3.3V*%
X5812600Y-10210800D03*
%TD*%
D29*
%TO.P,J12,S*%
%TO.N,GND*%
X11163300Y-13893800D03*
D30*
%TO.P,J12,T*%
%TO.N,Net-(J12-PadT)*%
X10023300Y-13893800D03*
%TO.P,J12,TN*%
%TO.N,unconnected-(J12-PadTN)*%
X10853300Y-13893800D03*
%TD*%
D37*
%TO.P,R18,1*%
%TO.N,Net-(D3-A)*%
X8432800Y-9213900D03*
%TO.P,R18,2*%
%TO.N,LED_RIGHT*%
X8432800Y-9378900D03*
%TD*%
D34*
%TO.P,SW2,1,A*%
%TO.N,TOGGLE1_1*%
X7340600Y-9829800D03*
%TO.P,SW2,2,B*%
%TO.N,GND*%
X7340600Y-10083800D03*
%TO.P,SW2,3,C*%
%TO.N,TOGGLE1_3*%
X7340600Y-10337800D03*
%TD*%
D38*
%TO.P,R2,1*%
%TO.N,MIDI_UART_RX*%
X4572000Y-9963100D03*
%TO.P,R2,2*%
%TO.N,+3.3V*%
X4572000Y-9798100D03*
%TD*%
D25*
%TO.P,RV7,*%
%TO.N,*%
X7307800Y-5460300D03*
X8287800Y-5460300D03*
D26*
%TO.P,RV7,1,1*%
%TO.N,GND*%
X7547800Y-6210300D03*
D27*
%TO.P,RV7,2,2*%
%TO.N,pot_4*%
X7797800Y-6210300D03*
%TO.P,RV7,3,3*%
%TO.N,+3.3V*%
X8047800Y-6210300D03*
%TD*%
D29*
%TO.P,J2,S*%
%TO.N,GND*%
X7048500Y-12928600D03*
D30*
%TO.P,J2,T*%
%TO.N,in_2*%
X5908500Y-12928600D03*
%TO.P,J2,TN*%
%TO.N,unconnected-(J2-PadTN)*%
X6738500Y-12928600D03*
%TD*%
D29*
%TO.P,J11,S*%
%TO.N,GND*%
X11163300Y-12928600D03*
D30*
%TO.P,J11,T*%
%TO.N,Net-(J11-PadT)*%
X10023300Y-12928600D03*
%TO.P,J11,TN*%
%TO.N,unconnected-(J11-PadTN)*%
X10853300Y-12928600D03*
%TD*%
D21*
%TO.P,C12,1*%
%TO.N,+3.3V*%
X8431500Y-6680200D03*
%TO.P,C12,2*%
%TO.N,GND*%
X8586500Y-6680200D03*
%TD*%
D28*
%TO.P,R9,1*%
%TO.N,AUDIO_LEFT*%
X9283800Y-8839200D03*
%TO.P,R9,2*%
%TO.N,Net-(U2B--)*%
X9448800Y-8839200D03*
%TD*%
D25*
%TO.P,RV3,*%
%TO.N,*%
X5072600Y-6730300D03*
X6052600Y-6730300D03*
D26*
%TO.P,RV3,1,1*%
%TO.N,GND*%
X5312600Y-7480300D03*
D27*
%TO.P,RV3,2,2*%
%TO.N,pot_2*%
X5562600Y-7480300D03*
%TO.P,RV3,3,3*%
%TO.N,+3.3V*%
X5812600Y-7480300D03*
%TD*%
D20*
%TO.P,D1,1,K*%
%TO.N,Net-(D1-K)*%
X4534000Y-11226800D03*
%TO.P,D1,2,A*%
%TO.N,/Jacks/MIDI_SINK*%
X4864000Y-11226800D03*
%TD*%
D33*
%TO.P,D2,1,K*%
%TO.N,GND*%
X7340600Y-9375150D03*
%TO.P,D2,2,A*%
%TO.N,Net-(D2-A)*%
X7340600Y-9217650D03*
%TD*%
D38*
%TO.P,R1,1*%
%TO.N,/Jacks/MIDI_SOURCE*%
X5359400Y-11258500D03*
%TO.P,R1,2*%
%TO.N,Net-(D1-K)*%
X5359400Y-11093500D03*
%TD*%
D25*
%TO.P,RV6,*%
%TO.N,*%
X9644600Y-6730300D03*
X10624600Y-6730300D03*
D26*
%TO.P,RV6,1,1*%
%TO.N,GND*%
X9884600Y-7480300D03*
D27*
%TO.P,RV6,2,2*%
%TO.N,pot_7*%
X10134600Y-7480300D03*
%TO.P,RV6,3,3*%
%TO.N,+3.3V*%
X10384600Y-7480300D03*
%TD*%
D29*
%TO.P,J4,S*%
%TO.N,GND*%
X9791700Y-12928600D03*
D30*
%TO.P,J4,T*%
%TO.N,in_4*%
X8651700Y-12928600D03*
%TO.P,J4,TN*%
%TO.N,unconnected-(J4-PadTN)*%
X9481700Y-12928600D03*
%TD*%
D39*
%TO.N,POT_MUX_ADC_Y*%
X5765800Y-5511800D03*
X7137400Y-6832600D03*
%TO.N,POT_MUX_A*%
X8280400Y-7137400D03*
X7975600Y-5257800D03*
%TO.N,POT_MUX_ADC_X*%
X7213600Y-7213600D03*
X5714997Y-5257797D03*
%TO.N,POT_MUX_B*%
X8077200Y-7239000D03*
X7922460Y-5636460D03*
%TO.N,LED_RIGHT*%
X6858000Y-10464800D03*
X6883400Y-9626600D03*
%TO.N,AUDIO_RIGHT*%
X5689600Y-11480800D03*
X5588000Y-10363200D03*
%TO.N,AUDIO_LEFT*%
X6578600Y-8966200D03*
X6096000Y-11607800D03*
%TO.N,LED_LEFT*%
X7035800Y-11201400D03*
X7035800Y-9372600D03*
%TO.N,Net-(J12-PadT)*%
X8940800Y-9474200D03*
%TO.N,CV_OUT_2*%
X8305800Y-11455403D03*
X8838011Y-10389789D03*
%TO.N,TOGGLE2_1*%
X8483600Y-5765800D03*
%TO.N,TOGGLE1_1*%
X8763000Y-9525000D03*
X9093200Y-6324600D03*
%TO.N,TOGGLE2_3*%
X8635999Y-6248401D03*
%TO.N,analog_out_2*%
X10236200Y-9271000D03*
X10363200Y-7950200D03*
D40*
%TO.N,+12V*%
X10769600Y-9194800D03*
X10439400Y-12242800D03*
X11127240Y-9194800D03*
X9982200Y-12268200D03*
D39*
%TO.N,GND*%
X10160000Y-8153400D03*
X9652000Y-8686800D03*
X7298711Y-7047089D03*
D40*
X10566400Y-6019800D03*
X10947400Y-4927600D03*
X9652000Y-5054600D03*
D39*
X10464800Y-8686800D03*
X7340600Y-9525000D03*
X8153400Y-9550400D03*
X9956800Y-5105400D03*
D40*
X5461000Y-5638800D03*
X6807200Y-5740400D03*
X8229600Y-12065000D03*
D39*
X4826000Y-9982200D03*
D40*
X8229499Y-11813500D03*
D39*
X8686800Y-6553200D03*
X9982200Y-8280400D03*
D40*
%TO.N,-12V*%
X9880600Y-6553200D03*
X7543800Y-4521200D03*
X10109200Y-8813800D03*
X7120200Y-7657600D03*
X9652000Y-7442194D03*
X7250200Y-11694600D03*
%TO.N,+3.3V*%
X6832600Y-4826000D03*
X8483600Y-6477000D03*
X4572000Y-9474200D03*
D39*
%TO.N,-5V*%
X9245600Y-6959599D03*
X8909360Y-7911028D03*
%TO.N,TOGGLE1_3*%
X8763000Y-9652000D03*
X9525000Y-5765800D03*
%TO.N,in_1*%
X9448800Y-11506200D03*
X9448800Y-12674600D03*
%TO.N,in_5*%
X6172200Y-13690600D03*
X6324600Y-11506200D03*
%TO.N,in_2*%
X8966198Y-12674600D03*
X8966200Y-11658600D03*
%TO.N,TACTILE_SW*%
X8509000Y-5105400D03*
%TO.N,in_3*%
X8878501Y-12733066D03*
X8890000Y-11531600D03*
%TO.N,in_4*%
X8640614Y-11679386D03*
%TO.N,in_8*%
X8661400Y-14173200D03*
%TO.N,CV_OUT_1*%
X8686800Y-8128000D03*
X8452770Y-10541285D03*
%TO.N,pot_1*%
X6426200Y-6654800D03*
%TO.N,pot_5*%
X7845233Y-7032433D03*
%TO.N,pot_8*%
X8966200Y-7061200D03*
%TO.N,Net-(J11-PadT)*%
X8966200Y-10083800D03*
%TD*%
D41*
%TO.N,GND*%
X10543200Y-5996600D02*
X10566400Y-6019800D01*
X10543200Y-5765800D02*
X10543200Y-5996600D01*
%TO.N,-12V*%
X8446000Y-11694600D02*
X8562400Y-11811000D01*
X7250200Y-11694600D02*
X8446000Y-11694600D01*
D42*
%TO.N,Net-(C1-Pad2)*%
X9455100Y-7594600D02*
X9455100Y-7767400D01*
X9455100Y-7767400D02*
X9450100Y-7772400D01*
X9455100Y-8305800D02*
X9650100Y-8110800D01*
X9650100Y-8110800D02*
X9797550Y-8110800D01*
X9650100Y-7972400D02*
X9650100Y-8110800D01*
X9450100Y-7772400D02*
X9650100Y-7972400D01*
X9459150Y-7772400D02*
X9450100Y-7772400D01*
%TO.N,/Jacks/MIDI_SINK*%
X4826000Y-10856000D02*
X4826000Y-11188800D01*
X4826000Y-11188800D02*
X4864000Y-11226800D01*
X4537200Y-11912600D02*
X4537200Y-11553600D01*
X4537200Y-11553600D02*
X4864000Y-11226800D01*
D43*
%TO.N,Net-(D4-A)*%
X9718800Y-11889200D02*
X9972800Y-11889200D01*
X9543000Y-12065000D02*
X9718800Y-11889200D01*
X9156600Y-12065000D02*
X9543000Y-12065000D01*
D42*
%TO.N,/Jacks/MIDI_SOURCE*%
X5359400Y-11904800D02*
X5367200Y-11912600D01*
X5365150Y-11264250D02*
X5359400Y-11258500D01*
X5359400Y-11258500D02*
X5359400Y-11904800D01*
D44*
%TO.N,POT_MUX_ADC_Y*%
X5937200Y-5511800D02*
X5950800Y-5498200D01*
D42*
X7511550Y-6811300D02*
X7158700Y-6811300D01*
D44*
X5765800Y-5511800D02*
X5937200Y-5511800D01*
D42*
X7158700Y-6811300D02*
X7137400Y-6832600D01*
%TO.N,POT_MUX_A*%
X8084050Y-7071300D02*
X8164014Y-7071300D01*
D44*
X6530800Y-5244200D02*
X7962000Y-5244200D01*
D42*
X8230114Y-7137400D02*
X8280400Y-7137400D01*
X7975600Y-5257800D02*
X7975600Y-5257800D01*
D44*
X7962000Y-5244200D02*
X7975600Y-5257800D01*
D42*
X8164014Y-7071300D02*
X8230114Y-7137400D01*
%TO.N,POT_MUX_ADC_X*%
X7539672Y-7239000D02*
X7239000Y-7239000D01*
D44*
X5950800Y-5244200D02*
X5728594Y-5244200D01*
D42*
X7239000Y-7239000D02*
X7213600Y-7213600D01*
X7696200Y-7082472D02*
X7539672Y-7239000D01*
D44*
X7902372Y-6876300D02*
X7696200Y-7082472D01*
X5728594Y-5244200D02*
X5714997Y-5257797D01*
X8084050Y-6876300D02*
X7902372Y-6876300D01*
%TO.N,POT_MUX_B*%
X6742800Y-5498200D02*
X6530800Y-5498200D01*
D42*
X6881060Y-5636460D02*
X7922460Y-5636460D01*
X8077200Y-7143150D02*
X8084050Y-7136300D01*
X8077200Y-7239000D02*
X8077200Y-7143150D01*
D44*
X6881060Y-5636460D02*
X6742800Y-5498200D01*
X7924800Y-5638800D02*
X7922460Y-5636460D01*
D42*
%TO.N,LED_RIGHT*%
X8185100Y-9626600D02*
X6883400Y-9626600D01*
X8432800Y-9378900D02*
X8185100Y-9626600D01*
X6848800Y-10708200D02*
X6848800Y-10474000D01*
X6848800Y-10474000D02*
X6858000Y-10464800D01*
%TO.N,AUDIO_RIGHT*%
X7165521Y-10363200D02*
X5588000Y-10363200D01*
X5689600Y-11480800D02*
X5832800Y-11337600D01*
X10385837Y-10464800D02*
X8430079Y-10464800D01*
X11037080Y-8211380D02*
X11037080Y-9813557D01*
X5832800Y-11337600D02*
X5832800Y-11288200D01*
X10902900Y-8077200D02*
X11037080Y-8211380D01*
X11037080Y-9813557D02*
X10385837Y-10464800D01*
X8415319Y-10479560D02*
X7281881Y-10479560D01*
X7281881Y-10479560D02*
X7165521Y-10363200D01*
X8430079Y-10464800D02*
X8415319Y-10479560D01*
%TO.N,AUDIO_LEFT*%
X6096000Y-11607800D02*
X6086800Y-11598600D01*
X9156800Y-8966200D02*
X6578600Y-8966200D01*
X6086800Y-11598600D02*
X6086800Y-11288200D01*
X9283800Y-8839200D02*
X9156800Y-8966200D01*
%TO.N,LED_LEFT*%
X6848800Y-11288200D02*
X6949000Y-11288200D01*
X7162800Y-9378900D02*
X7042100Y-9378900D01*
X7042100Y-9378900D02*
X7035800Y-9372600D01*
X6949000Y-11288200D02*
X7035800Y-11201400D01*
%TO.N,Net-(J12-PadT)*%
X8946950Y-9468050D02*
X8940800Y-9474200D01*
X8946950Y-9271000D02*
X8946950Y-9468050D01*
%TO.N,analog_out_1*%
X9295100Y-8661400D02*
X9363960Y-8730260D01*
X9359900Y-8902700D02*
X9093200Y-9169400D01*
X9797550Y-8500800D02*
X9711000Y-8500800D01*
X9711000Y-8500800D02*
X9575800Y-8636000D01*
X9575800Y-8636000D02*
X9575800Y-8915400D01*
X9093200Y-9169400D02*
X9093200Y-9581950D01*
X9363960Y-8730260D02*
X9363960Y-8898640D01*
X9384060Y-8926860D02*
X9359900Y-8902700D01*
X9564340Y-8926860D02*
X9384060Y-8926860D01*
X9575800Y-8915400D02*
X9564340Y-8926860D01*
X9093200Y-9581950D02*
X9239450Y-9728200D01*
X9290100Y-8656400D02*
X9295100Y-8661400D01*
X9290100Y-8483600D02*
X9290100Y-8656400D01*
X9363960Y-8898640D02*
X9359900Y-8902700D01*
%TO.N,CV_OUT_2*%
X8839200Y-10388600D02*
X8838011Y-10389789D01*
X10902900Y-8432800D02*
X10986760Y-8516660D01*
X8432800Y-11288200D02*
X8432800Y-11328403D01*
X10986760Y-9792714D02*
X10390874Y-10388600D01*
X8432800Y-11328403D02*
X8305800Y-11455403D01*
X10986760Y-8516660D02*
X10986760Y-9792714D01*
X10390874Y-10388600D02*
X8839200Y-10388600D01*
D44*
%TO.N,TOGGLE2_1*%
X8497200Y-5752200D02*
X8483600Y-5765800D01*
X8750800Y-5752200D02*
X8497200Y-5752200D01*
D42*
%TO.N,TOGGLE1_1*%
X9230800Y-6187000D02*
X9093200Y-6324600D01*
X8084958Y-9829800D02*
X7340600Y-9829800D01*
D44*
X9330800Y-6087000D02*
X9330800Y-6006200D01*
D42*
X8389758Y-9525000D02*
X8084958Y-9829800D01*
X8763000Y-9525000D02*
X8389758Y-9525000D01*
D44*
X9230800Y-6187000D02*
X9330800Y-6087000D01*
%TO.N,TOGGLE2_3*%
X8750800Y-6133600D02*
X8750800Y-6006200D01*
X8635999Y-6248401D02*
X8750800Y-6133600D01*
D42*
X8650800Y-6233600D02*
X8635999Y-6248401D01*
%TO.N,analog_out_2*%
X10902900Y-7721600D02*
X10824920Y-7643620D01*
X10667420Y-7925380D02*
X10667420Y-7672636D01*
X10482000Y-8110800D02*
X10515600Y-8077200D01*
X10370050Y-8110800D02*
X10482000Y-8110800D01*
X10897900Y-7899400D02*
X10897900Y-7726600D01*
X9239450Y-9271000D02*
X10236200Y-9271000D01*
X10363200Y-7950200D02*
X10363200Y-8103950D01*
X10824920Y-7643620D02*
X10696436Y-7643620D01*
X10897900Y-7726600D02*
X10902900Y-7721600D01*
X10363200Y-8103950D02*
X10370050Y-8110800D01*
X10515600Y-8077200D02*
X10667420Y-7925380D01*
X10897900Y-7762156D02*
X10897900Y-7899400D01*
X10667420Y-7672636D02*
X10696436Y-7643620D01*
D41*
%TO.N,+12V*%
X9982200Y-12268200D02*
X9982200Y-12301808D01*
X10439400Y-10859434D02*
X11127240Y-10171594D01*
X9983500Y-8404941D02*
X9884359Y-8305800D01*
D43*
X8826600Y-12065000D02*
X8561100Y-12065000D01*
D41*
X11074400Y-5336200D02*
X10871200Y-5539400D01*
X8826600Y-12192711D02*
X8826600Y-12065000D01*
X9982200Y-12301808D02*
X9854408Y-12429600D01*
X5650600Y-6006200D02*
X5950800Y-6006200D01*
X9983500Y-8840500D02*
X10337800Y-9194800D01*
X10337800Y-9194800D02*
X10769600Y-9194800D01*
X9983500Y-8686800D02*
X9983500Y-8840500D01*
X10871200Y-5539400D02*
X11127240Y-5795440D01*
X11074400Y-4800600D02*
X11074400Y-5336200D01*
X9854408Y-12429600D02*
X9063489Y-12429600D01*
X10439400Y-12242800D02*
X10439400Y-10859434D01*
X11127240Y-10171594D02*
X11127240Y-9194800D01*
X5177600Y-5533200D02*
X5177600Y-4576000D01*
X10710000Y-4436200D02*
X11074400Y-4800600D01*
X5650600Y-6006200D02*
X5177600Y-5533200D01*
X9884359Y-8305800D02*
X9797550Y-8305800D01*
X5177600Y-4576000D02*
X5317400Y-4436200D01*
X5317400Y-4436200D02*
X10710000Y-4436200D01*
X9063489Y-12429600D02*
X8826600Y-12192711D01*
X9983500Y-8686800D02*
X9983500Y-8404941D01*
X11127240Y-5795440D02*
X11127240Y-9194800D01*
D44*
%TO.N,GND*%
X9977734Y-8280400D02*
X9982200Y-8280400D01*
D41*
X9652000Y-5205700D02*
X9652000Y-5054600D01*
D44*
X9957428Y-8260094D02*
X9977734Y-8280400D01*
D42*
X9797550Y-8240800D02*
X9938134Y-8240800D01*
D44*
X8154680Y-9549120D02*
X8153400Y-9550400D01*
X7264400Y-7061200D02*
X7278511Y-7047089D01*
D42*
X10474280Y-8271280D02*
X10474280Y-8340320D01*
X9797550Y-8240800D02*
X9723800Y-8240800D01*
D44*
X9702800Y-8686800D02*
X9652000Y-8686800D01*
D42*
X8586500Y-6680200D02*
X8586500Y-6653500D01*
D44*
X8163359Y-9549120D02*
X8154680Y-9549120D01*
D42*
X9677400Y-8324400D02*
X9723800Y-8370800D01*
X7511550Y-7136300D02*
X7511550Y-7071300D01*
D43*
X10871200Y-5179400D02*
X10871200Y-5003800D01*
D42*
X8586500Y-6653500D02*
X8686800Y-6553200D01*
D43*
X8406100Y-11811000D02*
X8231999Y-11811000D01*
D42*
X10215931Y-8240800D02*
X10169665Y-8194535D01*
X10443800Y-8370800D02*
X10370050Y-8370800D01*
D41*
X5574400Y-5752200D02*
X5461000Y-5638800D01*
D42*
X9723800Y-8370800D02*
X9797550Y-8370800D01*
X8255000Y-9375150D02*
X8255000Y-9457479D01*
D41*
X5950800Y-5752200D02*
X5574400Y-5752200D01*
D42*
X10474280Y-8340320D02*
X10443800Y-8370800D01*
X7511550Y-7071300D02*
X7322921Y-7071300D01*
X10339100Y-8686800D02*
X10464800Y-8686800D01*
X10193250Y-5137400D02*
X9988800Y-5137400D01*
X9723800Y-8240800D02*
X9677400Y-8287200D01*
X4826000Y-10226000D02*
X4826000Y-9982200D01*
D41*
X6530800Y-5752200D02*
X6795400Y-5752200D01*
D44*
X10169665Y-8163065D02*
X10160000Y-8153400D01*
D42*
X10370050Y-8240800D02*
X10215931Y-8240800D01*
X10169665Y-8194535D02*
X10166040Y-8190909D01*
X9677400Y-8287200D02*
X9677400Y-8324400D01*
D43*
X10871200Y-5003800D02*
X10947400Y-4927600D01*
D42*
X10370050Y-8240800D02*
X10443800Y-8240800D01*
D44*
X10169665Y-8194535D02*
X10169665Y-8163065D01*
D42*
X10443800Y-8240800D02*
X10474280Y-8271280D01*
X9702800Y-8686800D02*
X9677400Y-8686800D01*
X9828500Y-8686800D02*
X9702800Y-8686800D01*
D44*
X7278511Y-7047089D02*
X7298711Y-7047089D01*
D41*
X6795400Y-5752200D02*
X6807200Y-5740400D01*
D42*
X9988800Y-5137400D02*
X9956800Y-5105400D01*
X7511550Y-7006300D02*
X7511550Y-7071300D01*
X7340600Y-9375150D02*
X7340600Y-9525000D01*
X8255000Y-9457479D02*
X8163359Y-9549120D01*
X7322921Y-7071300D02*
X7298711Y-7047089D01*
D43*
X8406100Y-12065000D02*
X8229600Y-12065000D01*
D42*
X9938134Y-8240800D02*
X9957428Y-8260094D01*
D43*
X8231999Y-11811000D02*
X8229499Y-11813500D01*
D41*
%TO.N,-12V*%
X10388600Y-4521200D02*
X7543800Y-4521200D01*
D43*
X8826600Y-11811000D02*
X8561100Y-11811000D01*
D41*
X6419800Y-4521200D02*
X5950800Y-4990200D01*
X10591800Y-4724400D02*
X10388600Y-4521200D01*
X10183200Y-5765800D02*
X9988350Y-5765800D01*
X7543800Y-4521200D02*
X6428805Y-4521200D01*
X8561100Y-11811000D02*
X8535541Y-11811000D01*
X10591800Y-5357200D02*
X10591800Y-4724400D01*
X10183200Y-5765800D02*
X10591800Y-5357200D01*
X9880600Y-5658050D02*
X9880600Y-6553200D01*
X9601206Y-7391400D02*
X9652000Y-7442194D01*
X7120200Y-7657600D02*
X7386400Y-7391400D01*
X10184100Y-8686800D02*
X10184100Y-8404941D01*
X10184100Y-8404941D02*
X10283241Y-8305800D01*
D43*
X10109200Y-8813800D02*
X10109200Y-8761700D01*
X10109200Y-8761700D02*
X10184100Y-8686800D01*
D41*
X10283241Y-8305800D02*
X10370050Y-8305800D01*
X9988350Y-5765800D02*
X9880600Y-5658050D01*
X6428805Y-4521200D02*
X6419800Y-4521200D01*
X7386400Y-7391400D02*
X9601206Y-7391400D01*
%TO.N,+3.3V*%
X8477560Y-6480216D02*
X8480384Y-6480216D01*
D42*
X4572000Y-9798100D02*
X4572000Y-9474200D01*
X8430400Y-6681300D02*
X8431500Y-6680200D01*
X8084050Y-6681300D02*
X8430400Y-6681300D01*
D41*
X8480384Y-6480216D02*
X8483600Y-6477000D01*
D42*
X8431500Y-6526276D02*
X8477560Y-6480216D01*
D41*
X6530800Y-4990200D02*
X6668400Y-4990200D01*
X6668400Y-4990200D02*
X6832600Y-4826000D01*
D42*
X8431500Y-6680200D02*
X8431500Y-6526276D01*
D44*
%TO.N,-5V*%
X8919266Y-7920934D02*
X8919266Y-7920934D01*
D41*
X9652000Y-5360700D02*
X9652000Y-6440934D01*
D42*
X10193250Y-5327400D02*
X9918750Y-5327400D01*
X10983060Y-7954853D02*
X10983060Y-7668627D01*
X9290100Y-7950200D02*
X8948532Y-7950200D01*
X9880600Y-5365550D02*
X9656850Y-5365550D01*
X9918750Y-5327400D02*
X9880600Y-5365550D01*
X10857427Y-7989540D02*
X10948373Y-7989540D01*
X10186650Y-5334000D02*
X10193250Y-5327400D01*
X8948532Y-7950200D02*
X8919266Y-7920934D01*
X10822740Y-8024227D02*
X10857427Y-7989540D01*
D41*
X9652000Y-6440934D02*
X9245600Y-6847334D01*
D42*
X10902900Y-8255000D02*
X10902900Y-8229393D01*
X10822740Y-8149233D02*
X10822740Y-8024227D01*
D44*
X8919266Y-7920934D02*
X8909360Y-7911028D01*
D42*
X10948373Y-7989540D02*
X10983060Y-7954853D01*
X10902900Y-8229393D02*
X10822740Y-8149233D01*
X10983060Y-7668627D02*
X10274032Y-6959599D01*
X9656850Y-5365550D02*
X9652000Y-5360700D01*
D41*
X9245600Y-6847334D02*
X9245600Y-6959599D01*
D42*
X10274032Y-6959599D02*
X9245600Y-6959599D01*
D44*
%TO.N,TOGGLE1_3*%
X9525000Y-5765800D02*
X9344400Y-5765800D01*
D42*
X7648121Y-10337800D02*
X8333921Y-9652000D01*
D44*
X9344400Y-5765800D02*
X9330800Y-5752200D01*
D42*
X8333921Y-9652000D02*
X8763000Y-9652000D01*
X7340600Y-10337800D02*
X7648121Y-10337800D01*
%TO.N,in_1*%
X6594800Y-11288200D02*
X6595360Y-11288760D01*
X9448800Y-11506200D02*
X9448800Y-11288200D01*
X6197600Y-12674600D02*
X6267760Y-12604440D01*
X6267760Y-12604440D02*
X9378640Y-12604440D01*
X6197600Y-11836400D02*
X6197600Y-12674600D01*
X6594800Y-11439200D02*
X6197600Y-11836400D01*
X9378640Y-12604440D02*
X9448800Y-12674600D01*
X6595360Y-11288760D02*
X6595360Y-11334661D01*
X6594800Y-11288200D02*
X6594800Y-11439200D01*
X4536900Y-12928600D02*
X4790900Y-12674600D01*
X4790900Y-12674600D02*
X6197600Y-12674600D01*
%TO.N,in_5*%
X9448800Y-10708200D02*
X9984803Y-10708200D01*
X10167960Y-10891357D02*
X10167960Y-13022240D01*
X6273800Y-13589000D02*
X6172200Y-13690600D01*
X4740100Y-13690600D02*
X6172200Y-13690600D01*
X6324600Y-11506200D02*
X6340800Y-11490000D01*
X6340800Y-11490000D02*
X6340800Y-11288200D01*
X9984803Y-10708200D02*
X10167960Y-10891357D01*
X4536900Y-13893800D02*
X4740100Y-13690600D01*
X9601200Y-13589000D02*
X6273800Y-13589000D01*
X10167960Y-13022240D02*
X9601200Y-13589000D01*
%TO.N,in_2*%
X7712441Y-12655240D02*
X8946838Y-12655240D01*
X5908500Y-12928600D02*
X6111700Y-12725400D01*
X9194800Y-11430000D02*
X9194800Y-11288200D01*
X8946838Y-12655240D02*
X8966198Y-12674600D01*
X7642281Y-12725400D02*
X7712441Y-12655240D01*
X8966200Y-11658600D02*
X9194800Y-11430000D01*
X6111700Y-12725400D02*
X7642281Y-12725400D01*
D44*
%TO.N,in_6*%
X9369800Y-10603200D02*
X9264800Y-10708200D01*
D42*
X6273800Y-13690600D02*
X8788400Y-13690600D01*
D44*
X9906000Y-13690600D02*
X10210800Y-13385800D01*
X10033400Y-10603200D02*
X9369800Y-10603200D01*
D42*
X5908500Y-13893800D02*
X6070600Y-13893800D01*
D44*
X9264800Y-10708200D02*
X9194800Y-10708200D01*
D42*
X6070600Y-13893800D02*
X6273800Y-13690600D01*
D44*
X10210800Y-13385800D02*
X10210800Y-10780600D01*
X10210800Y-10780600D02*
X10033400Y-10603200D01*
X8788400Y-13690600D02*
X9906000Y-13690600D01*
D42*
%TO.N,MIDI_UART_RX*%
X4572000Y-10226000D02*
X4572000Y-9963100D01*
X6500960Y-10518040D02*
X6594800Y-10611880D01*
X4572000Y-10226000D02*
X4864040Y-10518040D01*
X6594800Y-10611880D02*
X6594800Y-10708200D01*
X4864040Y-10518040D02*
X6500960Y-10518040D01*
D44*
%TO.N,TACTILE_SW*%
X8509000Y-5029200D02*
X8548000Y-4990200D01*
X8548000Y-4990200D02*
X8750800Y-4990200D01*
D42*
X8509000Y-5105400D02*
X8509000Y-5029200D01*
X8073600Y-11374000D02*
X8073600Y-10724000D01*
%TO.N,in_3*%
X8940800Y-11480800D02*
X8890000Y-11531600D01*
X7501339Y-12928600D02*
X7696873Y-12733066D01*
X7280100Y-12928600D02*
X7501339Y-12928600D01*
X7696873Y-12733066D02*
X8878501Y-12733066D01*
X8940800Y-11288200D02*
X8940800Y-11480800D01*
%TO.N,in_7*%
X10250960Y-10752965D02*
X10061035Y-10563040D01*
X9085960Y-10563040D02*
X8940800Y-10708200D01*
X7280100Y-13893800D02*
X7483300Y-14097000D01*
X10052069Y-14097000D02*
X10250960Y-13898109D01*
X10250960Y-13898109D02*
X10250960Y-10752965D01*
X7483300Y-14097000D02*
X10052069Y-14097000D01*
X10061035Y-10563040D02*
X9085960Y-10563040D01*
%TO.N,in_4*%
X8686800Y-11288200D02*
X8686800Y-11633200D01*
X8686800Y-11633200D02*
X8640614Y-11679386D01*
%TO.N,in_8*%
X10072433Y-14147800D02*
X8686800Y-14147800D01*
X8686800Y-14147800D02*
X8661400Y-14173200D01*
X8686800Y-10708200D02*
X8879400Y-10515600D01*
X10083800Y-10515600D02*
X10291280Y-10723080D01*
X10291280Y-10723080D02*
X10291280Y-13928953D01*
X8879400Y-10515600D02*
X10083800Y-10515600D01*
X10291280Y-13928953D02*
X10072433Y-14147800D01*
%TO.N,CV_OUT_1*%
X8432800Y-10561255D02*
X8452770Y-10541285D01*
X8432800Y-10708200D02*
X8432800Y-10561255D01*
X9290100Y-8128000D02*
X8686800Y-8128000D01*
%TO.N,pot_1*%
X6426200Y-6654800D02*
X6452700Y-6681300D01*
X6452700Y-6681300D02*
X7511550Y-6681300D01*
D44*
%TO.N,pot_5*%
X8084050Y-7006300D02*
X7871367Y-7006300D01*
X7871367Y-7006300D02*
X7845233Y-7032433D01*
D42*
%TO.N,pot_2*%
X5628526Y-7480300D02*
X6362526Y-6746300D01*
X5562600Y-7480300D02*
X5628526Y-7480300D01*
X6362526Y-6746300D02*
X7511550Y-6746300D01*
%TO.N,pot_6*%
X9982200Y-4597400D02*
X10134600Y-4749800D01*
X7970140Y-6712354D02*
X7970140Y-6482460D01*
X8077200Y-5353480D02*
X8833280Y-4597400D01*
X7970140Y-6482460D02*
X8177960Y-6274640D01*
X8833280Y-4597400D02*
X9982200Y-4597400D01*
X8084050Y-6746300D02*
X8004086Y-6746300D01*
X8004086Y-6746300D02*
X7970140Y-6712354D01*
X8077200Y-5537200D02*
X8077200Y-5353480D01*
X8177960Y-5637960D02*
X8077200Y-5537200D01*
X8177960Y-6274640D02*
X8177960Y-5637960D01*
%TO.N,pot_3*%
X7285079Y-6941300D02*
X7511550Y-6941300D01*
X5562600Y-10210800D02*
X5562600Y-8663779D01*
X5562600Y-8663779D02*
X7285079Y-6941300D01*
%TO.N,pot_7*%
X8947279Y-6811300D02*
X9447219Y-7311240D01*
X8084050Y-6811300D02*
X8947279Y-6811300D01*
X9447219Y-7311240D02*
X9965540Y-7311240D01*
X9965540Y-7311240D02*
X10134600Y-7480300D01*
%TO.N,pot_4*%
X7511550Y-6876300D02*
X7591514Y-6876300D01*
X7591514Y-6876300D02*
X7797800Y-6670014D01*
X7797800Y-6670014D02*
X7797800Y-6210300D01*
%TO.N,pot_8*%
X8084050Y-6941300D02*
X8164014Y-6941300D01*
X8164014Y-6941300D02*
X8283914Y-7061200D01*
X8283914Y-7061200D02*
X8966200Y-7061200D01*
%TO.N,GATE_IN*%
X5624000Y-10708200D02*
X5832800Y-10708200D01*
X5918200Y-11912600D02*
X5562600Y-11557000D01*
X5562600Y-10769600D02*
X5624000Y-10708200D01*
X5562600Y-11557000D02*
X5562600Y-10769600D01*
%TO.N,Net-(C3-Pad2)*%
X10902900Y-8793400D02*
X10897900Y-8788400D01*
X10456600Y-8500800D02*
X10644380Y-8688580D01*
X10902900Y-8783400D02*
X10897900Y-8788400D01*
X10824920Y-8688580D02*
X10902900Y-8610600D01*
X10902900Y-8610600D02*
X10902900Y-8783400D01*
X10644380Y-8688580D02*
X10824920Y-8688580D01*
X10902900Y-8966200D02*
X10902900Y-8793400D01*
X10370050Y-8500800D02*
X10456600Y-8500800D01*
D44*
%TO.N,Net-(U2C--)*%
X10284000Y-8435800D02*
X10370050Y-8435800D01*
X10261600Y-8522946D02*
X10261600Y-8458200D01*
X10298454Y-8559800D02*
X10261600Y-8522946D01*
D42*
X10737900Y-8793400D02*
X10742900Y-8788400D01*
X10734900Y-8435800D02*
X10737900Y-8432800D01*
D44*
X10261600Y-8458200D02*
X10284000Y-8435800D01*
D42*
X10370050Y-8435800D02*
X10734900Y-8435800D01*
X10737900Y-8255000D02*
X10737900Y-8432800D01*
D44*
X10742900Y-8788400D02*
X10665395Y-8788400D01*
D42*
X10737900Y-8966200D02*
X10737900Y-8793400D01*
D44*
X10665395Y-8788400D02*
X10436795Y-8559800D01*
X10436795Y-8559800D02*
X10298454Y-8559800D01*
D42*
%TO.N,Net-(U2A--)*%
X9377760Y-7506940D02*
X9500573Y-7506940D01*
X9290100Y-7767400D02*
X9295100Y-7772400D01*
X9883600Y-8175800D02*
X9797550Y-8175800D01*
X9956800Y-7963167D02*
X9956800Y-8102600D01*
X9290100Y-7594600D02*
X9290100Y-7767400D01*
X9956800Y-8102600D02*
X9883600Y-8175800D01*
X9455100Y-7950200D02*
X9455100Y-8128000D01*
X9290100Y-7594600D02*
X9377760Y-7506940D01*
X9295100Y-7772400D02*
X9455100Y-7932400D01*
X9455100Y-7932400D02*
X9455100Y-7950200D01*
X9500573Y-7506940D02*
X9956800Y-7963167D01*
%TO.N,Net-(U2D--)*%
X10737900Y-7894400D02*
X10742900Y-7899400D01*
X10808380Y-8540120D02*
X10808380Y-8206036D01*
X10808380Y-8206036D02*
X10778144Y-8175800D01*
X10737900Y-8169500D02*
X10744200Y-8175800D01*
X10737900Y-8610600D02*
X10808380Y-8540120D01*
X10639300Y-8175800D02*
X10370050Y-8175800D01*
X10744200Y-8175800D02*
X10639300Y-8175800D01*
X10778144Y-8175800D02*
X10744200Y-8175800D01*
X10737900Y-8077200D02*
X10737900Y-8169500D01*
X10737900Y-7904400D02*
X10742900Y-7899400D01*
X10737900Y-7904400D02*
X10737900Y-7924800D01*
X10737900Y-7721600D02*
X10737900Y-7894400D01*
X10737900Y-8077200D02*
X10737900Y-7904400D01*
%TO.N,Net-(U2B--)*%
X9448800Y-8662700D02*
X9450100Y-8661400D01*
X9290100Y-8318600D02*
X9455100Y-8483600D01*
X9450100Y-8488600D02*
X9455100Y-8483600D01*
X9797550Y-8435800D02*
X9502900Y-8435800D01*
X9502900Y-8435800D02*
X9455100Y-8483600D01*
X9450100Y-8661400D02*
X9450100Y-8488600D01*
X9290100Y-8305800D02*
X9290100Y-8318600D01*
X9448800Y-8839200D02*
X9448800Y-8662700D01*
D43*
%TO.N,Net-(D5-K)*%
X9061600Y-11906000D02*
X9061600Y-12135000D01*
X9061600Y-12135000D02*
X9101600Y-12175000D01*
X9101600Y-12175000D02*
X9877919Y-12175000D01*
X10107800Y-11008200D02*
X9972800Y-10873200D01*
X9877919Y-12175000D02*
X10107800Y-11945119D01*
X9972800Y-10873200D02*
X9718800Y-10873200D01*
X9156600Y-11811000D02*
X9061600Y-11906000D01*
X10107800Y-11945119D02*
X10107800Y-11008200D01*
D42*
%TO.N,Net-(D3-A)*%
X8429050Y-9217650D02*
X8432800Y-9213900D01*
X8255000Y-9217650D02*
X8429050Y-9217650D01*
%TO.N,Net-(D2-A)*%
X7336850Y-9213900D02*
X7340600Y-9217650D01*
X7162800Y-9213900D02*
X7336850Y-9213900D01*
%TO.N,Net-(D1-K)*%
X4908500Y-10642600D02*
X5359400Y-11093500D01*
X4572000Y-11188800D02*
X4534000Y-11226800D01*
X4673600Y-10642600D02*
X4908500Y-10642600D01*
X4572000Y-10744200D02*
X4673600Y-10642600D01*
X4572000Y-10856000D02*
X4572000Y-10744200D01*
X4572000Y-10856000D02*
X4572000Y-11188800D01*
D44*
%TO.N,Net-(J11-PadT)*%
X8946950Y-10064550D02*
X8966200Y-10083800D01*
D42*
X8946950Y-9728200D02*
X8946950Y-10064550D01*
%TD*%
M02*
