%TF.GenerationSoftware,KiCad,Pcbnew,9.0.0*%
%TF.CreationDate,2025-03-16T21:47:04-04:00*%
%TF.ProjectId,200_Plattform,3230305f-506c-4617-9474-666f726d2e6b,A1*%
%TF.SameCoordinates,Original*%
%TF.FileFunction,Soldermask,Top*%
%TF.FilePolarity,Negative*%
%FSLAX45Y45*%
G04 Gerber Fmt 4.5, Leading zero omitted, Abs format (unit mm)*
G04 Created by KiCad (PCBNEW 9.0.0) date 2025-03-16 21:47:04*
%MOMM*%
%LPD*%
G01*
G04 APERTURE LIST*
G04 Aperture macros list*
%AMRoundRect*
0 Rectangle with rounded corners*
0 $1 Rounding radius*
0 $2 $3 $4 $5 $6 $7 $8 $9 X,Y pos of 4 corners*
0 Add a 4 corners polygon primitive as box body*
4,1,4,$2,$3,$4,$5,$6,$7,$8,$9,$2,$3,0*
0 Add four circle primitives for the rounded corners*
1,1,$1+$1,$2,$3*
1,1,$1+$1,$4,$5*
1,1,$1+$1,$6,$7*
1,1,$1+$1,$8,$9*
0 Add four rect primitives between the rounded corners*
20,1,$1+$1,$2,$3,$4,$5,0*
20,1,$1+$1,$4,$5,$6,$7,0*
20,1,$1+$1,$6,$7,$8,$9,0*
20,1,$1+$1,$8,$9,$2,$3,0*%
G04 Aperture macros list end*
%ADD10RoundRect,0.225000X-0.225000X-0.250000X0.225000X-0.250000X0.225000X0.250000X-0.225000X0.250000X0*%
%ADD11RoundRect,0.200000X0.200000X0.275000X-0.200000X0.275000X-0.200000X-0.275000X0.200000X-0.275000X0*%
%ADD12O,3.240000X2.720000*%
%ADD13R,1.800000X1.800000*%
%ADD14C,1.800000*%
%ADD15RoundRect,0.200000X-0.200000X-0.275000X0.200000X-0.275000X0.200000X0.275000X-0.200000X0.275000X0*%
%ADD16C,3.000000*%
%ADD17RoundRect,0.269231X0.430769X-0.730769X0.430769X0.730769X-0.430769X0.730769X-0.430769X-0.730769X0*%
%ADD18RoundRect,0.176056X0.573944X-0.923944X0.573944X0.923944X-0.573944X0.923944X-0.573944X-0.923944X0*%
%ADD19C,1.200000*%
%ADD20R,1.500000X1.000000*%
%ADD21RoundRect,0.225000X0.225000X0.375000X-0.225000X0.375000X-0.225000X-0.375000X0.225000X-0.375000X0*%
%ADD22RoundRect,0.225000X0.225000X0.250000X-0.225000X0.250000X-0.225000X-0.250000X0.225000X-0.250000X0*%
%ADD23RoundRect,0.250000X0.312500X1.075000X-0.312500X1.075000X-0.312500X-1.075000X0.312500X-1.075000X0*%
%ADD24RoundRect,0.150000X-0.587500X-0.150000X0.587500X-0.150000X0.587500X0.150000X-0.587500X0.150000X0*%
%ADD25C,2.000000*%
%ADD26R,1.000000X1.500000*%
%ADD27RoundRect,0.218750X0.256250X-0.218750X0.256250X0.218750X-0.256250X0.218750X-0.256250X-0.218750X0*%
%ADD28C,2.032000*%
%ADD29RoundRect,0.225000X-0.225000X-0.375000X0.225000X-0.375000X0.225000X0.375000X-0.225000X0.375000X0*%
%ADD30RoundRect,0.225000X0.250000X-0.225000X0.250000X0.225000X-0.250000X0.225000X-0.250000X-0.225000X0*%
%ADD31R,0.640000X2.000000*%
%ADD32RoundRect,0.191257X0.508743X-0.808743X0.508743X0.808743X-0.508743X0.808743X-0.508743X-0.808743X0*%
%ADD33RoundRect,0.200000X-0.275000X0.200000X-0.275000X-0.200000X0.275000X-0.200000X0.275000X0.200000X0*%
%ADD34RoundRect,0.250000X0.550000X-1.050000X0.550000X1.050000X-0.550000X1.050000X-0.550000X-1.050000X0*%
%ADD35RoundRect,0.250000X1.050000X0.550000X-1.050000X0.550000X-1.050000X-0.550000X1.050000X-0.550000X0*%
%ADD36RoundRect,0.100000X-0.637500X-0.100000X0.637500X-0.100000X0.637500X0.100000X-0.637500X0.100000X0*%
%ADD37RoundRect,0.200000X0.275000X-0.200000X0.275000X0.200000X-0.275000X0.200000X-0.275000X-0.200000X0*%
%ADD38RoundRect,0.250000X-0.625000X0.312500X-0.625000X-0.312500X0.625000X-0.312500X0.625000X0.312500X0*%
%ADD39R,1.700000X1.700000*%
%ADD40C,1.700000*%
G04 APERTURE END LIST*
D10*
%TO.C,C4*%
X10742900Y-7899400D03*
X10897900Y-7899400D03*
%TD*%
D11*
%TO.C,R11*%
X10902900Y-8255000D03*
X10737900Y-8255000D03*
%TD*%
%TO.C,R14*%
X10902900Y-8610600D03*
X10737900Y-8610600D03*
%TD*%
D12*
%TO.C,RV5*%
X7358600Y-8190800D03*
X8338600Y-8190800D03*
D13*
X7598600Y-8940800D03*
D14*
X7848600Y-8940800D03*
X8098600Y-8940800D03*
%TD*%
D15*
%TO.C,R7*%
X9290100Y-7594600D03*
X9455100Y-7594600D03*
%TD*%
D16*
%TO.C,J7*%
X7772100Y-13919200D03*
D17*
X8420100Y-13919200D03*
D18*
X7280100Y-13919200D03*
X8110100Y-13919200D03*
%TD*%
D19*
%TO.C,J13*%
X6113800Y-4990200D03*
X6113800Y-5244200D03*
X6113800Y-5498200D03*
X6113800Y-5752200D03*
X6113800Y-6006200D03*
X6367800Y-4990200D03*
X6367800Y-5244200D03*
X6367800Y-5498200D03*
X6367800Y-5752200D03*
X6367800Y-6006200D03*
D20*
X5950800Y-4990200D03*
X5950800Y-5244200D03*
X5950800Y-5498200D03*
X5950800Y-5752200D03*
X5950800Y-6006200D03*
X6530800Y-6006200D03*
X6530800Y-5752200D03*
X6530800Y-5498200D03*
X6530800Y-5244200D03*
X6530800Y-4990200D03*
%TD*%
D15*
%TO.C,R12*%
X10737900Y-8432800D03*
X10902900Y-8432800D03*
%TD*%
D16*
%TO.C,J3*%
X7772100Y-12903200D03*
D17*
X8420100Y-12903200D03*
D18*
X7280100Y-12903200D03*
X8110100Y-12903200D03*
%TD*%
D16*
%TO.C,J8*%
X9143700Y-13919200D03*
D17*
X9791700Y-13919200D03*
D18*
X8651700Y-13919200D03*
X9481700Y-13919200D03*
%TD*%
D21*
%TO.C,D5*%
X9156600Y-11811000D03*
X8826600Y-11811000D03*
%TD*%
D22*
%TO.C,C9*%
X8561100Y-12065000D03*
X8406100Y-12065000D03*
%TD*%
D23*
%TO.C,R3*%
X9239450Y-9728200D03*
X8946950Y-9728200D03*
%TD*%
D22*
%TO.C,C6*%
X10339100Y-8686800D03*
X10184100Y-8686800D03*
%TD*%
D12*
%TO.C,RV8*%
X9644600Y-9460800D03*
X10624600Y-9460800D03*
D13*
X9884600Y-10210800D03*
D14*
X10134600Y-10210800D03*
X10384600Y-10210800D03*
%TD*%
D24*
%TO.C,U3*%
X10193250Y-5137400D03*
X10193250Y-5327400D03*
X10380750Y-5232400D03*
%TD*%
D25*
%TO.C,SW1*%
X7623600Y-11374000D03*
X7623600Y-10724000D03*
X8073600Y-11374000D03*
X8073600Y-10724000D03*
%TD*%
D19*
%TO.C,J15*%
X8432800Y-11125200D03*
X8686800Y-11125200D03*
X8940800Y-11125200D03*
X9194800Y-11125200D03*
X9448800Y-11125200D03*
X8432800Y-10871200D03*
X8686800Y-10871200D03*
X8940800Y-10871200D03*
X9194800Y-10871200D03*
X9448800Y-10871200D03*
D26*
X8432800Y-11288200D03*
X8686800Y-11288200D03*
X8940800Y-11288200D03*
X9194800Y-11288200D03*
X9448800Y-11288200D03*
X9448800Y-10708200D03*
X9194800Y-10708200D03*
X8940800Y-10708200D03*
X8686800Y-10708200D03*
X8432800Y-10708200D03*
%TD*%
D27*
%TO.C,D3*%
X8255000Y-9375150D03*
X8255000Y-9217650D03*
%TD*%
D28*
%TO.C,SW3*%
X8356600Y-9829800D03*
X8356600Y-10083800D03*
X8356600Y-10337800D03*
%TD*%
D11*
%TO.C,R8*%
X9455100Y-8305800D03*
X9290100Y-8305800D03*
%TD*%
D12*
%TO.C,RV1*%
X5072600Y-3999800D03*
X6052600Y-3999800D03*
D13*
X5312600Y-4749800D03*
D14*
X5562600Y-4749800D03*
X5812600Y-4749800D03*
%TD*%
D16*
%TO.C,J5*%
X5028900Y-13919200D03*
D17*
X5676900Y-13919200D03*
D18*
X4536900Y-13919200D03*
X5366900Y-13919200D03*
%TD*%
D22*
%TO.C,C2*%
X9450100Y-8661400D03*
X9295100Y-8661400D03*
%TD*%
D29*
%TO.C,D4*%
X8826600Y-12065000D03*
X9156600Y-12065000D03*
%TD*%
D11*
%TO.C,R10*%
X9455100Y-8483600D03*
X9290100Y-8483600D03*
%TD*%
D30*
%TO.C,C11*%
X9652000Y-5362000D03*
X9652000Y-5207000D03*
%TD*%
D31*
%TO.C,U1*%
X4572000Y-10856000D03*
X4826000Y-10856000D03*
X4826000Y-10226000D03*
X4572000Y-10226000D03*
%TD*%
D16*
%TO.C,J9*%
X6400497Y-11887200D03*
D17*
X7048497Y-11887200D03*
D18*
X5908497Y-11887200D03*
X6738497Y-11887200D03*
%TD*%
D15*
%TO.C,R5*%
X9290100Y-7950200D03*
X9455100Y-7950200D03*
%TD*%
D16*
%TO.C,J10*%
X5028900Y-11887200D03*
D18*
X5366900Y-11887200D03*
D32*
X5676900Y-11887200D03*
D18*
X4536900Y-11887200D03*
%TD*%
D15*
%TO.C,R16*%
X10737900Y-7721600D03*
X10902900Y-7721600D03*
%TD*%
D19*
%TO.C,J16*%
X8913800Y-4990200D03*
X8913800Y-5244200D03*
X8913800Y-5498200D03*
X8913800Y-5752200D03*
X8913800Y-6006200D03*
X9167800Y-4990200D03*
X9167800Y-5244200D03*
X9167800Y-5498200D03*
X9167800Y-5752200D03*
X9167800Y-6006200D03*
D20*
X8750800Y-4990200D03*
X8750800Y-5244200D03*
X8750800Y-5498200D03*
X8750800Y-5752200D03*
X8750800Y-6006200D03*
X9330800Y-6006200D03*
X9330800Y-5752200D03*
X9330800Y-5498200D03*
X9330800Y-5244200D03*
X9330800Y-4990200D03*
%TD*%
D10*
%TO.C,C10*%
X8407400Y-11811000D03*
X8562400Y-11811000D03*
%TD*%
D15*
%TO.C,R13*%
X10737900Y-8966200D03*
X10902900Y-8966200D03*
%TD*%
D11*
%TO.C,R15*%
X10902900Y-8077200D03*
X10737900Y-8077200D03*
%TD*%
D33*
%TO.C,R17*%
X7264400Y-9213900D03*
X7264400Y-9378900D03*
%TD*%
D23*
%TO.C,R4*%
X9239450Y-9271000D03*
X8946950Y-9271000D03*
%TD*%
D34*
%TO.C,C7*%
X10871200Y-5539400D03*
X10871200Y-5179400D03*
%TD*%
D16*
%TO.C,J1*%
X5028900Y-12903200D03*
D17*
X5676900Y-12903200D03*
D18*
X4536900Y-12903200D03*
X5366900Y-12903200D03*
%TD*%
D12*
%TO.C,RV6*%
X9644600Y-3999800D03*
X10624600Y-3999800D03*
D13*
X9884600Y-4749800D03*
D14*
X10134600Y-4749800D03*
X10384600Y-4749800D03*
%TD*%
D35*
%TO.C,C8*%
X10543200Y-5765800D03*
X10183200Y-5765800D03*
%TD*%
D16*
%TO.C,J6*%
X6400500Y-13919200D03*
D17*
X7048500Y-13919200D03*
D18*
X5908500Y-13919200D03*
X6738500Y-13919200D03*
%TD*%
D36*
%TO.C,U4*%
X7511550Y-6681300D03*
X7511550Y-6746300D03*
X7511550Y-6811300D03*
X7511550Y-6876300D03*
X7511550Y-6941300D03*
X7511550Y-7006300D03*
X7511550Y-7071300D03*
X7511550Y-7136300D03*
X8084050Y-7136300D03*
X8084050Y-7071300D03*
X8084050Y-7006300D03*
X8084050Y-6941300D03*
X8084050Y-6876300D03*
X8084050Y-6811300D03*
X8084050Y-6746300D03*
X8084050Y-6681300D03*
%TD*%
D11*
%TO.C,R6*%
X9455100Y-8128000D03*
X9290100Y-8128000D03*
%TD*%
D10*
%TO.C,C1*%
X9295100Y-7772400D03*
X9450100Y-7772400D03*
%TD*%
%TO.C,C3*%
X10742900Y-8788400D03*
X10897900Y-8788400D03*
%TD*%
D12*
%TO.C,RV3*%
X5072600Y-9460800D03*
X6052600Y-9460800D03*
D13*
X5312600Y-10210800D03*
D14*
X5562600Y-10210800D03*
X5812600Y-10210800D03*
%TD*%
D19*
%TO.C,J14*%
X5832800Y-11125200D03*
X6086800Y-11125200D03*
X6340800Y-11125200D03*
X6594800Y-11125200D03*
X6848800Y-11125200D03*
X5832800Y-10871200D03*
X6086800Y-10871200D03*
X6340800Y-10871200D03*
X6594800Y-10871200D03*
X6848800Y-10871200D03*
D26*
X5832800Y-11288200D03*
X6086800Y-11288200D03*
X6340800Y-11288200D03*
X6594800Y-11288200D03*
X6848800Y-11288200D03*
X6848800Y-10708200D03*
X6594800Y-10708200D03*
X6340800Y-10708200D03*
X6086800Y-10708200D03*
X5832800Y-10708200D03*
%TD*%
D16*
%TO.C,J12*%
X10515300Y-13919200D03*
D17*
X11163300Y-13919200D03*
D18*
X10023300Y-13919200D03*
X10853300Y-13919200D03*
%TD*%
D33*
%TO.C,R18*%
X8432800Y-9213900D03*
X8432800Y-9378900D03*
%TD*%
D28*
%TO.C,SW2*%
X7340600Y-9829800D03*
X7340600Y-10083800D03*
X7340600Y-10337800D03*
%TD*%
D37*
%TO.C,R2*%
X4572000Y-9963100D03*
X4572000Y-9798100D03*
%TD*%
D12*
%TO.C,RV4*%
X7358600Y-5460300D03*
X8338600Y-5460300D03*
D13*
X7598600Y-6210300D03*
D14*
X7848600Y-6210300D03*
X8098600Y-6210300D03*
%TD*%
D36*
%TO.C,U2*%
X9797550Y-8110800D03*
X9797550Y-8175800D03*
X9797550Y-8240800D03*
X9797550Y-8305800D03*
X9797550Y-8370800D03*
X9797550Y-8435800D03*
X9797550Y-8500800D03*
X10370050Y-8500800D03*
X10370050Y-8435800D03*
X10370050Y-8370800D03*
X10370050Y-8305800D03*
X10370050Y-8240800D03*
X10370050Y-8175800D03*
X10370050Y-8110800D03*
%TD*%
D16*
%TO.C,J2*%
X6400500Y-12903200D03*
D17*
X7048500Y-12903200D03*
D18*
X5908500Y-12903200D03*
X6738500Y-12903200D03*
%TD*%
D16*
%TO.C,J11*%
X10515300Y-12903200D03*
D17*
X11163300Y-12903200D03*
D18*
X10023300Y-12903200D03*
X10853300Y-12903200D03*
%TD*%
D10*
%TO.C,C12*%
X8431500Y-6680200D03*
X8586500Y-6680200D03*
%TD*%
D15*
%TO.C,R9*%
X9283800Y-8839200D03*
X9448800Y-8839200D03*
%TD*%
D12*
%TO.C,RV2*%
X5072600Y-6730300D03*
X6052600Y-6730300D03*
D13*
X5312600Y-7480300D03*
D14*
X5562600Y-7480300D03*
X5812600Y-7480300D03*
%TD*%
D22*
%TO.C,C5*%
X9984800Y-8686800D03*
X9829800Y-8686800D03*
%TD*%
D38*
%TO.C,R19*%
X9880600Y-5365550D03*
X9880600Y-5658050D03*
%TD*%
D29*
%TO.C,D1*%
X4534000Y-11176000D03*
X4864000Y-11176000D03*
%TD*%
D27*
%TO.C,D2*%
X7442200Y-9375150D03*
X7442200Y-9217650D03*
%TD*%
D37*
%TO.C,R1*%
X5359400Y-11258500D03*
X5359400Y-11093500D03*
%TD*%
D39*
%TO.C,J17*%
X9718800Y-10873200D03*
D40*
X9972800Y-10873200D03*
X9718800Y-11127200D03*
X9972800Y-11127200D03*
X9718800Y-11381200D03*
X9972800Y-11381200D03*
X9718800Y-11635200D03*
X9972800Y-11635200D03*
X9718800Y-11889200D03*
X9972800Y-11889200D03*
%TD*%
D12*
%TO.C,RV7*%
X9644600Y-6730300D03*
X10624600Y-6730300D03*
D13*
X9884600Y-7480300D03*
D14*
X10134600Y-7480300D03*
X10384600Y-7480300D03*
%TD*%
D16*
%TO.C,J4*%
X9143700Y-12903200D03*
D17*
X9791700Y-12903200D03*
D18*
X8651700Y-12903200D03*
X9481700Y-12903200D03*
%TD*%
M02*
