%TF.GenerationSoftware,KiCad,Pcbnew,9.0.0*%
%TF.CreationDate,2025-03-16T21:47:04-04:00*%
%TF.ProjectId,200_Plattform,3230305f-506c-4617-9474-666f726d2e6b,A1*%
%TF.SameCoordinates,Original*%
%TF.FileFunction,Paste,Top*%
%TF.FilePolarity,Positive*%
%FSLAX45Y45*%
G04 Gerber Fmt 4.5, Leading zero omitted, Abs format (unit mm)*
G04 Created by KiCad (PCBNEW 9.0.0) date 2025-03-16 21:47:04*
%MOMM*%
%LPD*%
G01*
G04 APERTURE LIST*
G04 Aperture macros list*
%AMRoundRect*
0 Rectangle with rounded corners*
0 $1 Rounding radius*
0 $2 $3 $4 $5 $6 $7 $8 $9 X,Y pos of 4 corners*
0 Add a 4 corners polygon primitive as box body*
4,1,4,$2,$3,$4,$5,$6,$7,$8,$9,$2,$3,0*
0 Add four circle primitives for the rounded corners*
1,1,$1+$1,$2,$3*
1,1,$1+$1,$4,$5*
1,1,$1+$1,$6,$7*
1,1,$1+$1,$8,$9*
0 Add four rect primitives between the rounded corners*
20,1,$1+$1,$2,$3,$4,$5,0*
20,1,$1+$1,$4,$5,$6,$7,0*
20,1,$1+$1,$6,$7,$8,$9,0*
20,1,$1+$1,$8,$9,$2,$3,0*%
G04 Aperture macros list end*
%ADD10RoundRect,0.225000X-0.225000X-0.250000X0.225000X-0.250000X0.225000X0.250000X-0.225000X0.250000X0*%
%ADD11RoundRect,0.200000X0.200000X0.275000X-0.200000X0.275000X-0.200000X-0.275000X0.200000X-0.275000X0*%
%ADD12RoundRect,0.200000X-0.200000X-0.275000X0.200000X-0.275000X0.200000X0.275000X-0.200000X0.275000X0*%
%ADD13R,1.500000X1.000000*%
%ADD14RoundRect,0.225000X0.225000X0.375000X-0.225000X0.375000X-0.225000X-0.375000X0.225000X-0.375000X0*%
%ADD15RoundRect,0.225000X0.225000X0.250000X-0.225000X0.250000X-0.225000X-0.250000X0.225000X-0.250000X0*%
%ADD16RoundRect,0.250000X0.312500X1.075000X-0.312500X1.075000X-0.312500X-1.075000X0.312500X-1.075000X0*%
%ADD17RoundRect,0.150000X-0.587500X-0.150000X0.587500X-0.150000X0.587500X0.150000X-0.587500X0.150000X0*%
%ADD18R,1.000000X1.500000*%
%ADD19RoundRect,0.218750X0.256250X-0.218750X0.256250X0.218750X-0.256250X0.218750X-0.256250X-0.218750X0*%
%ADD20RoundRect,0.225000X-0.225000X-0.375000X0.225000X-0.375000X0.225000X0.375000X-0.225000X0.375000X0*%
%ADD21RoundRect,0.225000X0.250000X-0.225000X0.250000X0.225000X-0.250000X0.225000X-0.250000X-0.225000X0*%
%ADD22R,0.640000X2.000000*%
%ADD23RoundRect,0.200000X-0.275000X0.200000X-0.275000X-0.200000X0.275000X-0.200000X0.275000X0.200000X0*%
%ADD24RoundRect,0.250000X0.550000X-1.050000X0.550000X1.050000X-0.550000X1.050000X-0.550000X-1.050000X0*%
%ADD25RoundRect,0.250000X1.050000X0.550000X-1.050000X0.550000X-1.050000X-0.550000X1.050000X-0.550000X0*%
%ADD26RoundRect,0.100000X-0.637500X-0.100000X0.637500X-0.100000X0.637500X0.100000X-0.637500X0.100000X0*%
%ADD27RoundRect,0.200000X0.275000X-0.200000X0.275000X0.200000X-0.275000X0.200000X-0.275000X-0.200000X0*%
%ADD28RoundRect,0.250000X-0.625000X0.312500X-0.625000X-0.312500X0.625000X-0.312500X0.625000X0.312500X0*%
G04 APERTURE END LIST*
D10*
%TO.C,C4*%
X10742900Y-7899400D03*
X10897900Y-7899400D03*
%TD*%
D11*
%TO.C,R11*%
X10902900Y-8255000D03*
X10737900Y-8255000D03*
%TD*%
%TO.C,R14*%
X10902900Y-8610600D03*
X10737900Y-8610600D03*
%TD*%
D12*
%TO.C,R7*%
X9290100Y-7594600D03*
X9455100Y-7594600D03*
%TD*%
D13*
%TO.C,J13*%
X5950800Y-4990200D03*
X5950800Y-5244200D03*
X5950800Y-5498200D03*
X5950800Y-5752200D03*
X5950800Y-6006200D03*
X6530800Y-6006200D03*
X6530800Y-5752200D03*
X6530800Y-5498200D03*
X6530800Y-5244200D03*
X6530800Y-4990200D03*
%TD*%
D12*
%TO.C,R12*%
X10737900Y-8432800D03*
X10902900Y-8432800D03*
%TD*%
D14*
%TO.C,D5*%
X9156600Y-11811000D03*
X8826600Y-11811000D03*
%TD*%
D15*
%TO.C,C9*%
X8561100Y-12065000D03*
X8406100Y-12065000D03*
%TD*%
D16*
%TO.C,R3*%
X9239450Y-9728200D03*
X8946950Y-9728200D03*
%TD*%
D15*
%TO.C,C6*%
X10339100Y-8686800D03*
X10184100Y-8686800D03*
%TD*%
D17*
%TO.C,U3*%
X10193250Y-5137400D03*
X10193250Y-5327400D03*
X10380750Y-5232400D03*
%TD*%
D18*
%TO.C,J15*%
X8432800Y-11288200D03*
X8686800Y-11288200D03*
X8940800Y-11288200D03*
X9194800Y-11288200D03*
X9448800Y-11288200D03*
X9448800Y-10708200D03*
X9194800Y-10708200D03*
X8940800Y-10708200D03*
X8686800Y-10708200D03*
X8432800Y-10708200D03*
%TD*%
D19*
%TO.C,D3*%
X8255000Y-9375150D03*
X8255000Y-9217650D03*
%TD*%
D11*
%TO.C,R8*%
X9455100Y-8305800D03*
X9290100Y-8305800D03*
%TD*%
D15*
%TO.C,C2*%
X9450100Y-8661400D03*
X9295100Y-8661400D03*
%TD*%
D20*
%TO.C,D4*%
X8826600Y-12065000D03*
X9156600Y-12065000D03*
%TD*%
D11*
%TO.C,R10*%
X9455100Y-8483600D03*
X9290100Y-8483600D03*
%TD*%
D21*
%TO.C,C11*%
X9652000Y-5362000D03*
X9652000Y-5207000D03*
%TD*%
D22*
%TO.C,U1*%
X4572000Y-10856000D03*
X4826000Y-10856000D03*
X4826000Y-10226000D03*
X4572000Y-10226000D03*
%TD*%
D12*
%TO.C,R5*%
X9290100Y-7950200D03*
X9455100Y-7950200D03*
%TD*%
%TO.C,R16*%
X10737900Y-7721600D03*
X10902900Y-7721600D03*
%TD*%
D13*
%TO.C,J16*%
X8750800Y-4990200D03*
X8750800Y-5244200D03*
X8750800Y-5498200D03*
X8750800Y-5752200D03*
X8750800Y-6006200D03*
X9330800Y-6006200D03*
X9330800Y-5752200D03*
X9330800Y-5498200D03*
X9330800Y-5244200D03*
X9330800Y-4990200D03*
%TD*%
D10*
%TO.C,C10*%
X8407400Y-11811000D03*
X8562400Y-11811000D03*
%TD*%
D12*
%TO.C,R13*%
X10737900Y-8966200D03*
X10902900Y-8966200D03*
%TD*%
D11*
%TO.C,R15*%
X10902900Y-8077200D03*
X10737900Y-8077200D03*
%TD*%
D23*
%TO.C,R17*%
X7264400Y-9213900D03*
X7264400Y-9378900D03*
%TD*%
D16*
%TO.C,R4*%
X9239450Y-9271000D03*
X8946950Y-9271000D03*
%TD*%
D24*
%TO.C,C7*%
X10871200Y-5539400D03*
X10871200Y-5179400D03*
%TD*%
D25*
%TO.C,C8*%
X10543200Y-5765800D03*
X10183200Y-5765800D03*
%TD*%
D26*
%TO.C,U4*%
X7511550Y-6681300D03*
X7511550Y-6746300D03*
X7511550Y-6811300D03*
X7511550Y-6876300D03*
X7511550Y-6941300D03*
X7511550Y-7006300D03*
X7511550Y-7071300D03*
X7511550Y-7136300D03*
X8084050Y-7136300D03*
X8084050Y-7071300D03*
X8084050Y-7006300D03*
X8084050Y-6941300D03*
X8084050Y-6876300D03*
X8084050Y-6811300D03*
X8084050Y-6746300D03*
X8084050Y-6681300D03*
%TD*%
D11*
%TO.C,R6*%
X9455100Y-8128000D03*
X9290100Y-8128000D03*
%TD*%
D10*
%TO.C,C1*%
X9295100Y-7772400D03*
X9450100Y-7772400D03*
%TD*%
%TO.C,C3*%
X10742900Y-8788400D03*
X10897900Y-8788400D03*
%TD*%
D18*
%TO.C,J14*%
X5832800Y-11288200D03*
X6086800Y-11288200D03*
X6340800Y-11288200D03*
X6594800Y-11288200D03*
X6848800Y-11288200D03*
X6848800Y-10708200D03*
X6594800Y-10708200D03*
X6340800Y-10708200D03*
X6086800Y-10708200D03*
X5832800Y-10708200D03*
%TD*%
D23*
%TO.C,R18*%
X8432800Y-9213900D03*
X8432800Y-9378900D03*
%TD*%
D27*
%TO.C,R2*%
X4572000Y-9963100D03*
X4572000Y-9798100D03*
%TD*%
D26*
%TO.C,U2*%
X9797550Y-8110800D03*
X9797550Y-8175800D03*
X9797550Y-8240800D03*
X9797550Y-8305800D03*
X9797550Y-8370800D03*
X9797550Y-8435800D03*
X9797550Y-8500800D03*
X10370050Y-8500800D03*
X10370050Y-8435800D03*
X10370050Y-8370800D03*
X10370050Y-8305800D03*
X10370050Y-8240800D03*
X10370050Y-8175800D03*
X10370050Y-8110800D03*
%TD*%
D10*
%TO.C,C12*%
X8431500Y-6680200D03*
X8586500Y-6680200D03*
%TD*%
D12*
%TO.C,R9*%
X9283800Y-8839200D03*
X9448800Y-8839200D03*
%TD*%
D15*
%TO.C,C5*%
X9984800Y-8686800D03*
X9829800Y-8686800D03*
%TD*%
D28*
%TO.C,R19*%
X9880600Y-5365550D03*
X9880600Y-5658050D03*
%TD*%
D20*
%TO.C,D1*%
X4534000Y-11176000D03*
X4864000Y-11176000D03*
%TD*%
D19*
%TO.C,D2*%
X7442200Y-9375150D03*
X7442200Y-9217650D03*
%TD*%
D27*
%TO.C,R1*%
X5359400Y-11258500D03*
X5359400Y-11093500D03*
%TD*%
M02*
