%TF.GenerationSoftware,KiCad,Pcbnew,7.0.1*%
%TF.CreationDate,2024-08-14T21:14:33-04:00*%
%TF.ProjectId,attenuverter_mixer,61747465-6e75-4766-9572-7465725f6d69,rev?*%
%TF.SameCoordinates,Original*%
%TF.FileFunction,Soldermask,Top*%
%TF.FilePolarity,Negative*%
%FSLAX46Y46*%
G04 Gerber Fmt 4.6, Leading zero omitted, Abs format (unit mm)*
G04 Created by KiCad (PCBNEW 7.0.1) date 2024-08-14 21:14:33*
%MOMM*%
%LPD*%
G01*
G04 APERTURE LIST*
%ADD10R,1.700000X1.700000*%
%ADD11O,1.700000X1.700000*%
%ADD12C,2.000000*%
%ADD13O,2.720000X3.240000*%
%ADD14R,1.800000X1.800000*%
%ADD15C,1.800000*%
%ADD16C,3.000000*%
G04 APERTURE END LIST*
D10*
%TO.C,J7*%
X118110000Y-125349000D03*
D11*
X115570000Y-125349000D03*
X118110000Y-122809000D03*
X115570000Y-122809000D03*
X118110000Y-120269000D03*
X115570000Y-120269000D03*
X118110000Y-117729000D03*
X115570000Y-117729000D03*
X118110000Y-115189000D03*
X115570000Y-115189000D03*
%TD*%
D12*
%TO.C,J5*%
X142268500Y-147955000D03*
X130868500Y-147955000D03*
X139168500Y-147955000D03*
%TD*%
D13*
%TO.C,RV3*%
X118390000Y-101593000D03*
X127990000Y-101593000D03*
D14*
X120690000Y-109093000D03*
D15*
X123190000Y-109093000D03*
X125690000Y-109093000D03*
%TD*%
D12*
%TO.C,J2*%
X142268500Y-135255000D03*
X130868500Y-135255000D03*
X139168500Y-135255000D03*
%TD*%
D13*
%TO.C,RV6*%
X143790000Y-101593000D03*
X153390000Y-101593000D03*
D14*
X146090000Y-109093000D03*
D15*
X148590000Y-109093000D03*
X151090000Y-109093000D03*
%TD*%
D13*
%TO.C,RV4*%
X143790000Y-50793000D03*
X153390000Y-50793000D03*
D14*
X146090000Y-58293000D03*
D15*
X148590000Y-58293000D03*
X151090000Y-58293000D03*
%TD*%
D12*
%TO.C,J6*%
X158016500Y-147910000D03*
X146616500Y-147910000D03*
X154916500Y-147910000D03*
%TD*%
D13*
%TO.C,RV2*%
X118390000Y-76193000D03*
X127990000Y-76193000D03*
D14*
X120690000Y-83693000D03*
D15*
X123190000Y-83693000D03*
X125690000Y-83693000D03*
%TD*%
D13*
%TO.C,RV1*%
X118390000Y-50793000D03*
X127990000Y-50793000D03*
D14*
X120690000Y-58293000D03*
D15*
X123190000Y-58293000D03*
X125690000Y-58293000D03*
%TD*%
D13*
%TO.C,RV5*%
X143790000Y-76193000D03*
X153390000Y-76193000D03*
D14*
X146090000Y-83693000D03*
D15*
X148590000Y-83693000D03*
X151090000Y-83693000D03*
%TD*%
D12*
%TO.C,J4*%
X113753500Y-147955000D03*
X125153500Y-147955000D03*
X116853500Y-147955000D03*
%TD*%
%TO.C,J1*%
X113723500Y-135255000D03*
X125123500Y-135255000D03*
X116823500Y-135255000D03*
%TD*%
%TO.C,J3*%
X158046500Y-135210000D03*
X146646500Y-135210000D03*
X154946500Y-135210000D03*
%TD*%
D16*
%TO.C,SW1*%
X140590000Y-121113000D03*
X135890000Y-121113000D03*
X131190000Y-121113000D03*
%TD*%
M02*
