%TF.GenerationSoftware,KiCad,Pcbnew,7.0.1*%
%TF.CreationDate,2024-08-14T21:14:32-04:00*%
%TF.ProjectId,attenuverter_mixer,61747465-6e75-4766-9572-7465725f6d69,rev?*%
%TF.SameCoordinates,Original*%
%TF.FileFunction,Copper,L1,Top*%
%TF.FilePolarity,Positive*%
%FSLAX46Y46*%
G04 Gerber Fmt 4.6, Leading zero omitted, Abs format (unit mm)*
G04 Created by KiCad (PCBNEW 7.0.1) date 2024-08-14 21:14:32*
%MOMM*%
%LPD*%
G01*
G04 APERTURE LIST*
%TA.AperFunction,ComponentPad*%
%ADD10R,1.700000X1.700000*%
%TD*%
%TA.AperFunction,ComponentPad*%
%ADD11O,1.700000X1.700000*%
%TD*%
%TA.AperFunction,ComponentPad*%
%ADD12C,2.000000*%
%TD*%
%TA.AperFunction,ComponentPad*%
%ADD13O,2.720000X3.240000*%
%TD*%
%TA.AperFunction,ComponentPad*%
%ADD14R,1.800000X1.800000*%
%TD*%
%TA.AperFunction,ComponentPad*%
%ADD15C,1.800000*%
%TD*%
%TA.AperFunction,ComponentPad*%
%ADD16C,3.000000*%
%TD*%
%TA.AperFunction,ViaPad*%
%ADD17C,0.800000*%
%TD*%
%TA.AperFunction,Conductor*%
%ADD18C,0.254000*%
%TD*%
%TA.AperFunction,Conductor*%
%ADD19C,0.508000*%
%TD*%
%TA.AperFunction,Conductor*%
%ADD20C,0.250000*%
%TD*%
G04 APERTURE END LIST*
D10*
%TO.P,J7,1,-12V*%
%TO.N,/Power/V-_IN*%
X118110000Y-125349000D03*
D11*
%TO.P,J7,2,-12V*%
X115570000Y-125349000D03*
%TO.P,J7,3,gnd*%
%TO.N,GND*%
X118110000Y-122809000D03*
%TO.P,J7,4,gnd*%
X115570000Y-122809000D03*
%TO.P,J7,5,gnd*%
X118110000Y-120269000D03*
%TO.P,J7,6,gnd*%
X115570000Y-120269000D03*
%TO.P,J7,7,gnd*%
X118110000Y-117729000D03*
%TO.P,J7,8,gnd*%
X115570000Y-117729000D03*
%TO.P,J7,9,+12V*%
%TO.N,/Power/V+_IN*%
X118110000Y-115189000D03*
%TO.P,J7,10,+12V*%
X115570000Y-115189000D03*
%TD*%
D12*
%TO.P,J5,S*%
%TO.N,GND*%
X142268500Y-147955000D03*
%TO.P,J5,T*%
%TO.N,Net-(J5-PadT)*%
X130868500Y-147955000D03*
%TO.P,J5,TN*%
%TO.N,att_2_out*%
X139168500Y-147955000D03*
%TD*%
D13*
%TO.P,RV3,*%
%TO.N,*%
X118390000Y-101593000D03*
X127990000Y-101593000D03*
D14*
%TO.P,RV3,1,1*%
%TO.N,GND*%
X120690000Y-109093000D03*
D15*
%TO.P,RV3,2,2*%
%TO.N,Net-(U2C-+)*%
X123190000Y-109093000D03*
%TO.P,RV3,3,3*%
%TO.N,Net-(J3-PadT)*%
X125690000Y-109093000D03*
%TD*%
D12*
%TO.P,J2,S*%
%TO.N,GND*%
X142268500Y-135255000D03*
%TO.P,J2,T*%
%TO.N,Net-(J2-PadT)*%
X130868500Y-135255000D03*
%TO.P,J2,TN*%
%TO.N,unconnected-(J2-PadTN)*%
X139168500Y-135255000D03*
%TD*%
D13*
%TO.P,RV6,*%
%TO.N,*%
X143790000Y-101593000D03*
X153390000Y-101593000D03*
D14*
%TO.P,RV6,1,1*%
%TO.N,+12V*%
X146090000Y-109093000D03*
D15*
%TO.P,RV6,2,2*%
%TO.N,offset_3*%
X148590000Y-109093000D03*
%TO.P,RV6,3,3*%
%TO.N,-12V*%
X151090000Y-109093000D03*
%TD*%
D13*
%TO.P,RV4,*%
%TO.N,*%
X143790000Y-50793000D03*
X153390000Y-50793000D03*
D14*
%TO.P,RV4,1,1*%
%TO.N,+12V*%
X146090000Y-58293000D03*
D15*
%TO.P,RV4,2,2*%
%TO.N,offset_1*%
X148590000Y-58293000D03*
%TO.P,RV4,3,3*%
%TO.N,-12V*%
X151090000Y-58293000D03*
%TD*%
D12*
%TO.P,J6,S*%
%TO.N,GND*%
X158016500Y-147910000D03*
%TO.P,J6,T*%
%TO.N,Net-(J6-PadT)*%
X146616500Y-147910000D03*
%TO.P,J6,TN*%
%TO.N,unconnected-(J6-PadTN)*%
X154916500Y-147910000D03*
%TD*%
D13*
%TO.P,RV2,*%
%TO.N,*%
X118390000Y-76193000D03*
X127990000Y-76193000D03*
D14*
%TO.P,RV2,1,1*%
%TO.N,GND*%
X120690000Y-83693000D03*
D15*
%TO.P,RV2,2,2*%
%TO.N,Net-(U1D-+)*%
X123190000Y-83693000D03*
%TO.P,RV2,3,3*%
%TO.N,Net-(J2-PadT)*%
X125690000Y-83693000D03*
%TD*%
D13*
%TO.P,RV1,*%
%TO.N,*%
X118390000Y-50793000D03*
X127990000Y-50793000D03*
D14*
%TO.P,RV1,1,1*%
%TO.N,GND*%
X120690000Y-58293000D03*
D15*
%TO.P,RV1,2,2*%
%TO.N,Net-(U1B-+)*%
X123190000Y-58293000D03*
%TO.P,RV1,3,3*%
%TO.N,Net-(J1-PadT)*%
X125690000Y-58293000D03*
%TD*%
D13*
%TO.P,RV5,*%
%TO.N,*%
X143790000Y-76193000D03*
X153390000Y-76193000D03*
D14*
%TO.P,RV5,1,1*%
%TO.N,+12V*%
X146090000Y-83693000D03*
D15*
%TO.P,RV5,2,2*%
%TO.N,offset_2*%
X148590000Y-83693000D03*
%TO.P,RV5,3,3*%
%TO.N,-12V*%
X151090000Y-83693000D03*
%TD*%
D12*
%TO.P,J4,S*%
%TO.N,GND*%
X113753500Y-147955000D03*
%TO.P,J4,T*%
%TO.N,Net-(J4-PadT)*%
X125153500Y-147955000D03*
%TO.P,J4,TN*%
%TO.N,att_1_out*%
X116853500Y-147955000D03*
%TD*%
%TO.P,J1,S*%
%TO.N,GND*%
X113723500Y-135255000D03*
%TO.P,J1,T*%
%TO.N,Net-(J1-PadT)*%
X125123500Y-135255000D03*
%TO.P,J1,TN*%
%TO.N,unconnected-(J1-PadTN)*%
X116823500Y-135255000D03*
%TD*%
%TO.P,J3,S*%
%TO.N,GND*%
X158046500Y-135210000D03*
%TO.P,J3,T*%
%TO.N,Net-(J3-PadT)*%
X146646500Y-135210000D03*
%TO.P,J3,TN*%
%TO.N,unconnected-(J3-PadTN)*%
X154946500Y-135210000D03*
%TD*%
D16*
%TO.P,SW1,1,A*%
%TO.N,Net-(SW1-A)*%
X140590000Y-121113000D03*
%TO.P,SW1,2,B*%
%TO.N,Net-(SW1-B)*%
X135890000Y-121113000D03*
%TO.P,SW1,3,C*%
%TO.N,Net-(SW1-C)*%
X131190000Y-121113000D03*
%TD*%
D17*
%TO.N,+12V*%
X136837500Y-58883000D03*
X135567500Y-97872000D03*
%TO.N,GND*%
X137345500Y-112985000D03*
X137218500Y-97872000D03*
X134357054Y-90692554D03*
X134043500Y-86823000D03*
X134585339Y-65999713D03*
X137091500Y-64979000D03*
X137046922Y-90808668D03*
X138036500Y-127529790D03*
X137359779Y-92785613D03*
X135186500Y-59010000D03*
X136802000Y-72368989D03*
%TO.N,-12V*%
X150934500Y-125558000D03*
X130868500Y-82505000D03*
X130868500Y-91268000D03*
X140901500Y-65614000D03*
X130868500Y-84664000D03*
%TO.N,Net-(C5-Pad2)*%
X137726500Y-141306000D03*
X140960342Y-60846842D03*
%TO.N,Net-(J2-PadT)*%
X144330500Y-72472000D03*
X141282500Y-83394000D03*
%TO.N,Net-(J3-PadT)*%
X126677500Y-138385000D03*
X125280500Y-97618000D03*
%TO.N,Net-(SW1-A)*%
X140261841Y-86691341D03*
%TO.N,offset_1*%
X124645500Y-55454000D03*
X123623786Y-67386286D03*
%TO.N,offset_2*%
X149029500Y-63963000D03*
%TO.N,Net-(U1D-+)*%
X137366951Y-67127270D03*
X136075500Y-81362000D03*
%TO.N,att_1_out*%
X148140500Y-149815000D03*
X150045500Y-89236000D03*
%TO.N,att_2_out*%
X148521500Y-91141000D03*
%TO.N,att_3_out*%
X143822500Y-83902000D03*
X149283500Y-93046000D03*
%TO.N,Net-(C4-Pad2)*%
X131043659Y-70234159D03*
X127693500Y-141306000D03*
%TO.N,Net-(SW1-C)*%
X154998500Y-117303000D03*
X154744500Y-95713000D03*
%TO.N,offset_3*%
X123248500Y-106254000D03*
X122486500Y-89236000D03*
%TO.N,Net-(SW1-B)*%
X148775500Y-94570000D03*
X144838500Y-119286000D03*
%TO.N,Net-(C9-Pad2)*%
X147632500Y-99523000D03*
X148140500Y-138893000D03*
%TO.N,Net-(U2C-+)*%
X129852500Y-107270000D03*
X129852500Y-92030000D03*
%TD*%
D18*
%TO.N,-12V*%
X140901500Y-65614000D02*
X143769000Y-65614000D01*
D19*
X151090000Y-58293000D02*
X151090000Y-109093000D01*
X151090000Y-125402500D02*
X150934500Y-125558000D01*
D18*
X130868500Y-91268000D02*
X130868500Y-84664000D01*
D19*
X151090000Y-109093000D02*
X151090000Y-125402500D01*
D18*
X130868500Y-84664000D02*
X130868500Y-82505000D01*
X143769000Y-65614000D02*
X151090000Y-58293000D01*
%TO.N,Net-(C5-Pad2)*%
X138763000Y-63044184D02*
X138763000Y-133663414D01*
X138763000Y-133663414D02*
X137726500Y-134699914D01*
X137726500Y-134699914D02*
X137726500Y-141306000D01*
X140960342Y-60846842D02*
X138763000Y-63044184D01*
%TO.N,Net-(J2-PadT)*%
X129363000Y-133778000D02*
X130840000Y-135255000D01*
X141282500Y-83394000D02*
X141282500Y-75520000D01*
X125690000Y-83693000D02*
X126143501Y-84146501D01*
X126143501Y-104697653D02*
X129363000Y-107917152D01*
X141282500Y-75520000D02*
X144330500Y-72472000D01*
X126143501Y-84146501D02*
X126143501Y-104697653D01*
X129363000Y-107917152D02*
X129363000Y-133778000D01*
%TO.N,Net-(J3-PadT)*%
X125690000Y-109093000D02*
X125690000Y-98027500D01*
X125690000Y-109093000D02*
X126677500Y-110080500D01*
X125690000Y-98027500D02*
X125280500Y-97618000D01*
X126677500Y-110080500D02*
X126677500Y-138385000D01*
%TO.N,Net-(SW1-A)*%
X140590000Y-87019500D02*
X140261841Y-86691341D01*
X140590000Y-121113000D02*
X140590000Y-87019500D01*
%TO.N,offset_1*%
X124463000Y-55636500D02*
X124463000Y-66547072D01*
X124463000Y-66547072D02*
X123623786Y-67386286D01*
X124645500Y-55454000D02*
X124463000Y-55636500D01*
%TO.N,offset_2*%
X148590000Y-64402500D02*
X148590000Y-83693000D01*
X149029500Y-63963000D02*
X148590000Y-64402500D01*
%TO.N,Net-(U1D-+)*%
X136075500Y-68408000D02*
X136710500Y-67773000D01*
X136075500Y-81362000D02*
X136075500Y-68408000D01*
X136710500Y-67773000D02*
X136721221Y-67773000D01*
X136721221Y-67773000D02*
X137366951Y-67127270D01*
%TO.N,att_1_out*%
X149537500Y-109880741D02*
X149537500Y-148418000D01*
X150045500Y-108402259D02*
X149817000Y-108630759D01*
X149817000Y-108630759D02*
X149817000Y-109601241D01*
X149817000Y-109601241D02*
X149537500Y-109880741D01*
X149537500Y-148418000D02*
X148140500Y-149815000D01*
X150045500Y-89236000D02*
X150045500Y-108402259D01*
%TO.N,att_2_out*%
X148521500Y-91141000D02*
X146416999Y-93245501D01*
X143695500Y-143399500D02*
X139140000Y-147955000D01*
X146416999Y-93245501D02*
X146416999Y-101611779D01*
X146416999Y-101611779D02*
X143695500Y-104333278D01*
X143695500Y-104333278D02*
X143695500Y-143399500D01*
D20*
%TO.N,att_3_out*%
X143822500Y-83902000D02*
X149283500Y-89363000D01*
X149283500Y-89363000D02*
X149283500Y-93046000D01*
D18*
%TO.N,Net-(C4-Pad2)*%
X131043659Y-70234159D02*
X133017000Y-72207500D01*
X133017000Y-72207500D02*
X133017000Y-135982500D01*
X133017000Y-135982500D02*
X127693500Y-141306000D01*
%TO.N,Net-(J1-PadT)*%
X120714053Y-110320000D02*
X119463000Y-110320000D01*
X119463000Y-110320000D02*
X116249499Y-107106499D01*
X116249499Y-75687723D02*
X117691222Y-74246000D01*
X122267500Y-111873447D02*
X120714053Y-110320000D01*
X116249499Y-107106499D02*
X116249499Y-75687723D01*
X117691222Y-74246000D02*
X117791500Y-74246000D01*
X117791500Y-74246000D02*
X125690000Y-66347500D01*
X122267500Y-132324000D02*
X122267500Y-111873447D01*
X125690000Y-66347500D02*
X125690000Y-58293000D01*
X125123500Y-135180000D02*
X122267500Y-132324000D01*
%TO.N,Net-(SW1-C)*%
X155077000Y-117224500D02*
X154998500Y-117303000D01*
X154744500Y-95713000D02*
X155077000Y-96045500D01*
X155077000Y-96045500D02*
X155077000Y-117224500D01*
%TO.N,offset_3*%
X123248500Y-106254000D02*
X122486500Y-105492000D01*
X122486500Y-105492000D02*
X122486500Y-89236000D01*
%TO.N,Net-(SW1-B)*%
X146870500Y-96475000D02*
X146870500Y-101799626D01*
X144838500Y-103831626D02*
X144838500Y-119286000D01*
X146870500Y-101799626D02*
X144838500Y-103831626D01*
X148775500Y-94570000D02*
X146870500Y-96475000D01*
%TO.N,Net-(C9-Pad2)*%
X148140500Y-138893000D02*
X148140500Y-110378741D01*
X148140500Y-110378741D02*
X147363000Y-109601241D01*
X147363000Y-99792500D02*
X147632500Y-99523000D01*
X147363000Y-109601241D02*
X147363000Y-99792500D01*
%TO.N,Net-(U2C-+)*%
X129852500Y-107270000D02*
X129852500Y-92030000D01*
%TD*%
M02*
