M48
; DRILL file {KiCad 7.0.1} date Wed Aug 14 21:14:36 2024
; FORMAT={-:-/ absolute / inch / decimal}
; #@! TF.CreationDate,2024-08-14T21:14:36-04:00
; #@! TF.GenerationSoftware,Kicad,Pcbnew,7.0.1
; #@! TF.FileFunction,Plated,1,4,PTH
FMAT,2
INCH
; #@! TA.AperFunction,Plated,PTH,ViaDrill
T1C0.0157
; #@! TA.AperFunction,Plated,PTH,ComponentDrill
T2C0.0394
; #@! TA.AperFunction,Plated,PTH,ComponentDrill
T3C0.0433
; #@! TA.AperFunction,Plated,PTH,ComponentDrill
T4C0.0472
; #@! TA.AperFunction,Plated,PTH,ComponentDrill
T5C0.0728
%
G90
G05
T1
X4.8223Y-3.5132
X4.8523Y-4.1832
X4.8671Y-2.653
X4.9073Y-2.1832
X4.9323Y-3.8432
X4.9873Y-5.4482
X5.0273Y-5.5632
X5.1123Y-3.6232
X5.1123Y-4.2232
X5.1523Y-3.2482
X5.1523Y-3.3332
X5.1523Y-3.5932
X5.1592Y-2.7651
X5.2773Y-3.4182
X5.2896Y-3.5706
X5.2986Y-2.5984
X5.3223Y-2.3232
X5.3373Y-3.8532
X5.3573Y-3.2032
X5.3859Y-2.8492
X5.3873Y-2.3182
X5.3955Y-3.5751
X5.3973Y-2.5582
X5.4023Y-3.8532
X5.4073Y-4.4482
X5.4079Y-3.653
X5.4081Y-2.6428
X5.4223Y-5.5632
X5.4345Y-5.0209
X5.5221Y-3.413
X5.5473Y-2.5832
X5.5496Y-2.3955
X5.5623Y-3.2832
X5.6623Y-3.3032
X5.6823Y-2.8532
X5.7023Y-4.6963
X5.8123Y-3.9182
X5.8323Y-5.4682
X5.8323Y-5.8982
X5.8473Y-3.5882
X5.8573Y-3.7232
X5.8673Y-2.5182
X5.8773Y-3.6632
X5.9073Y-3.5132
X5.9423Y-4.9432
X6.0923Y-3.7682
X6.1023Y-4.6182
T2
X4.55Y-4.535
X4.55Y-4.635
X4.55Y-4.735
X4.55Y-4.835
X4.55Y-4.935
X4.65Y-4.535
X4.65Y-4.635
X4.65Y-4.735
X4.65Y-4.835
X4.65Y-4.935
X4.7516Y-2.295
X4.7516Y-3.295
X4.7516Y-4.295
X4.85Y-2.295
X4.85Y-3.295
X4.85Y-4.295
X4.9484Y-2.295
X4.9484Y-3.295
X4.9484Y-4.295
X5.7516Y-2.295
X5.7516Y-3.295
X5.7516Y-4.295
X5.85Y-2.295
X5.85Y-3.295
X5.85Y-4.295
X5.9484Y-2.295
X5.9484Y-3.295
X5.9484Y-4.295
T4
X4.4773Y-5.325
X4.4785Y-5.825
X4.5994Y-5.325
X4.6005Y-5.825
X4.9261Y-5.325
X4.9273Y-5.825
X5.1523Y-5.325
X5.1523Y-5.825
X5.4791Y-5.325
X5.4791Y-5.825
X5.6011Y-5.325
X5.6011Y-5.825
X5.7723Y-5.8232
X5.7735Y-5.3232
X6.0991Y-5.8232
X6.1003Y-5.3232
X6.2211Y-5.8232
X6.2223Y-5.3232
T5
X5.165Y-4.7682
X5.35Y-4.7682
X5.535Y-4.7682
T3
G00X4.661Y-2.0135
M15
G01X4.661Y-1.9859
M16
G05
G00X4.661Y-3.0135
M15
G01X4.661Y-2.9859
M16
G05
G00X4.661Y-4.0135
M15
G01X4.661Y-3.9859
M16
G05
G00X5.039Y-2.0135
M15
G01X5.039Y-1.9859
M16
G05
G00X5.039Y-3.0135
M15
G01X5.039Y-2.9859
M16
G05
G00X5.039Y-4.0135
M15
G01X5.039Y-3.9859
M16
G05
G00X5.661Y-2.0135
M15
G01X5.661Y-1.9859
M16
G05
G00X5.661Y-3.0135
M15
G01X5.661Y-2.9859
M16
G05
G00X5.661Y-4.0135
M15
G01X5.661Y-3.9859
M16
G05
G00X6.039Y-2.0135
M15
G01X6.039Y-1.9859
M16
G05
G00X6.039Y-3.0135
M15
G01X6.039Y-2.9859
M16
G05
G00X6.039Y-4.0135
M15
G01X6.039Y-3.9859
M16
G05
T0
M30
