%TF.GenerationSoftware,KiCad,Pcbnew,7.0.1*%
%TF.CreationDate,2024-08-14T21:14:33-04:00*%
%TF.ProjectId,attenuverter_mixer,61747465-6e75-4766-9572-7465725f6d69,rev?*%
%TF.SameCoordinates,Original*%
%TF.FileFunction,Legend,Bot*%
%TF.FilePolarity,Positive*%
%FSLAX46Y46*%
G04 Gerber Fmt 4.6, Leading zero omitted, Abs format (unit mm)*
G04 Created by KiCad (PCBNEW 7.0.1) date 2024-08-14 21:14:33*
%MOMM*%
%LPD*%
G01*
G04 APERTURE LIST*
%ADD10C,0.150000*%
%ADD11C,0.100000*%
%ADD12C,1.000000*%
%ADD13C,0.120000*%
G04 APERTURE END LIST*
D10*
%TO.C,J7*%
X122761333Y-111349619D02*
X122761333Y-112063904D01*
X122761333Y-112063904D02*
X122808952Y-112206761D01*
X122808952Y-112206761D02*
X122904190Y-112302000D01*
X122904190Y-112302000D02*
X123047047Y-112349619D01*
X123047047Y-112349619D02*
X123142285Y-112349619D01*
X122380380Y-111349619D02*
X121713714Y-111349619D01*
X121713714Y-111349619D02*
X122142285Y-112349619D01*
D11*
X126869523Y-123249000D02*
X126726666Y-123296619D01*
X126726666Y-123296619D02*
X126488571Y-123296619D01*
X126488571Y-123296619D02*
X126393333Y-123249000D01*
X126393333Y-123249000D02*
X126345714Y-123201380D01*
X126345714Y-123201380D02*
X126298095Y-123106142D01*
X126298095Y-123106142D02*
X126298095Y-123010904D01*
X126298095Y-123010904D02*
X126345714Y-122915666D01*
X126345714Y-122915666D02*
X126393333Y-122868047D01*
X126393333Y-122868047D02*
X126488571Y-122820428D01*
X126488571Y-122820428D02*
X126679047Y-122772809D01*
X126679047Y-122772809D02*
X126774285Y-122725190D01*
X126774285Y-122725190D02*
X126821904Y-122677571D01*
X126821904Y-122677571D02*
X126869523Y-122582333D01*
X126869523Y-122582333D02*
X126869523Y-122487095D01*
X126869523Y-122487095D02*
X126821904Y-122391857D01*
X126821904Y-122391857D02*
X126774285Y-122344238D01*
X126774285Y-122344238D02*
X126679047Y-122296619D01*
X126679047Y-122296619D02*
X126440952Y-122296619D01*
X126440952Y-122296619D02*
X126298095Y-122344238D01*
X126012380Y-122296619D02*
X125440952Y-122296619D01*
X125726666Y-123296619D02*
X125726666Y-122296619D01*
X124536190Y-123296619D02*
X124869523Y-122820428D01*
X125107618Y-123296619D02*
X125107618Y-122296619D01*
X125107618Y-122296619D02*
X124726666Y-122296619D01*
X124726666Y-122296619D02*
X124631428Y-122344238D01*
X124631428Y-122344238D02*
X124583809Y-122391857D01*
X124583809Y-122391857D02*
X124536190Y-122487095D01*
X124536190Y-122487095D02*
X124536190Y-122629952D01*
X124536190Y-122629952D02*
X124583809Y-122725190D01*
X124583809Y-122725190D02*
X124631428Y-122772809D01*
X124631428Y-122772809D02*
X124726666Y-122820428D01*
X124726666Y-122820428D02*
X125107618Y-122820428D01*
X124107618Y-123296619D02*
X124107618Y-122296619D01*
X123631428Y-123296619D02*
X123631428Y-122296619D01*
X123631428Y-122296619D02*
X123250476Y-122296619D01*
X123250476Y-122296619D02*
X123155238Y-122344238D01*
X123155238Y-122344238D02*
X123107619Y-122391857D01*
X123107619Y-122391857D02*
X123060000Y-122487095D01*
X123060000Y-122487095D02*
X123060000Y-122629952D01*
X123060000Y-122629952D02*
X123107619Y-122725190D01*
X123107619Y-122725190D02*
X123155238Y-122772809D01*
X123155238Y-122772809D02*
X123250476Y-122820428D01*
X123250476Y-122820428D02*
X123631428Y-122820428D01*
X122631428Y-122772809D02*
X122298095Y-122772809D01*
X122155238Y-123296619D02*
X122631428Y-123296619D01*
X122631428Y-123296619D02*
X122631428Y-122296619D01*
X122631428Y-122296619D02*
X122155238Y-122296619D01*
D10*
%TO.C,C10*%
X132908357Y-117052380D02*
X132955976Y-117100000D01*
X132955976Y-117100000D02*
X133098833Y-117147619D01*
X133098833Y-117147619D02*
X133194071Y-117147619D01*
X133194071Y-117147619D02*
X133336928Y-117100000D01*
X133336928Y-117100000D02*
X133432166Y-117004761D01*
X133432166Y-117004761D02*
X133479785Y-116909523D01*
X133479785Y-116909523D02*
X133527404Y-116719047D01*
X133527404Y-116719047D02*
X133527404Y-116576190D01*
X133527404Y-116576190D02*
X133479785Y-116385714D01*
X133479785Y-116385714D02*
X133432166Y-116290476D01*
X133432166Y-116290476D02*
X133336928Y-116195238D01*
X133336928Y-116195238D02*
X133194071Y-116147619D01*
X133194071Y-116147619D02*
X133098833Y-116147619D01*
X133098833Y-116147619D02*
X132955976Y-116195238D01*
X132955976Y-116195238D02*
X132908357Y-116242857D01*
X131955976Y-117147619D02*
X132527404Y-117147619D01*
X132241690Y-117147619D02*
X132241690Y-116147619D01*
X132241690Y-116147619D02*
X132336928Y-116290476D01*
X132336928Y-116290476D02*
X132432166Y-116385714D01*
X132432166Y-116385714D02*
X132527404Y-116433333D01*
X131336928Y-116147619D02*
X131241690Y-116147619D01*
X131241690Y-116147619D02*
X131146452Y-116195238D01*
X131146452Y-116195238D02*
X131098833Y-116242857D01*
X131098833Y-116242857D02*
X131051214Y-116338095D01*
X131051214Y-116338095D02*
X131003595Y-116528571D01*
X131003595Y-116528571D02*
X131003595Y-116766666D01*
X131003595Y-116766666D02*
X131051214Y-116957142D01*
X131051214Y-116957142D02*
X131098833Y-117052380D01*
X131098833Y-117052380D02*
X131146452Y-117100000D01*
X131146452Y-117100000D02*
X131241690Y-117147619D01*
X131241690Y-117147619D02*
X131336928Y-117147619D01*
X131336928Y-117147619D02*
X131432166Y-117100000D01*
X131432166Y-117100000D02*
X131479785Y-117052380D01*
X131479785Y-117052380D02*
X131527404Y-116957142D01*
X131527404Y-116957142D02*
X131575023Y-116766666D01*
X131575023Y-116766666D02*
X131575023Y-116528571D01*
X131575023Y-116528571D02*
X131527404Y-116338095D01*
X131527404Y-116338095D02*
X131479785Y-116242857D01*
X131479785Y-116242857D02*
X131432166Y-116195238D01*
X131432166Y-116195238D02*
X131336928Y-116147619D01*
%TO.C,U1*%
X136651904Y-68571619D02*
X136651904Y-69381142D01*
X136651904Y-69381142D02*
X136604285Y-69476380D01*
X136604285Y-69476380D02*
X136556666Y-69524000D01*
X136556666Y-69524000D02*
X136461428Y-69571619D01*
X136461428Y-69571619D02*
X136270952Y-69571619D01*
X136270952Y-69571619D02*
X136175714Y-69524000D01*
X136175714Y-69524000D02*
X136128095Y-69476380D01*
X136128095Y-69476380D02*
X136080476Y-69381142D01*
X136080476Y-69381142D02*
X136080476Y-68571619D01*
X135080476Y-69571619D02*
X135651904Y-69571619D01*
X135366190Y-69571619D02*
X135366190Y-68571619D01*
X135366190Y-68571619D02*
X135461428Y-68714476D01*
X135461428Y-68714476D02*
X135556666Y-68809714D01*
X135556666Y-68809714D02*
X135651904Y-68857333D01*
%TO.C,R18*%
X146946857Y-89743619D02*
X147280190Y-89267428D01*
X147518285Y-89743619D02*
X147518285Y-88743619D01*
X147518285Y-88743619D02*
X147137333Y-88743619D01*
X147137333Y-88743619D02*
X147042095Y-88791238D01*
X147042095Y-88791238D02*
X146994476Y-88838857D01*
X146994476Y-88838857D02*
X146946857Y-88934095D01*
X146946857Y-88934095D02*
X146946857Y-89076952D01*
X146946857Y-89076952D02*
X146994476Y-89172190D01*
X146994476Y-89172190D02*
X147042095Y-89219809D01*
X147042095Y-89219809D02*
X147137333Y-89267428D01*
X147137333Y-89267428D02*
X147518285Y-89267428D01*
X145994476Y-89743619D02*
X146565904Y-89743619D01*
X146280190Y-89743619D02*
X146280190Y-88743619D01*
X146280190Y-88743619D02*
X146375428Y-88886476D01*
X146375428Y-88886476D02*
X146470666Y-88981714D01*
X146470666Y-88981714D02*
X146565904Y-89029333D01*
X145423047Y-89172190D02*
X145518285Y-89124571D01*
X145518285Y-89124571D02*
X145565904Y-89076952D01*
X145565904Y-89076952D02*
X145613523Y-88981714D01*
X145613523Y-88981714D02*
X145613523Y-88934095D01*
X145613523Y-88934095D02*
X145565904Y-88838857D01*
X145565904Y-88838857D02*
X145518285Y-88791238D01*
X145518285Y-88791238D02*
X145423047Y-88743619D01*
X145423047Y-88743619D02*
X145232571Y-88743619D01*
X145232571Y-88743619D02*
X145137333Y-88791238D01*
X145137333Y-88791238D02*
X145089714Y-88838857D01*
X145089714Y-88838857D02*
X145042095Y-88934095D01*
X145042095Y-88934095D02*
X145042095Y-88981714D01*
X145042095Y-88981714D02*
X145089714Y-89076952D01*
X145089714Y-89076952D02*
X145137333Y-89124571D01*
X145137333Y-89124571D02*
X145232571Y-89172190D01*
X145232571Y-89172190D02*
X145423047Y-89172190D01*
X145423047Y-89172190D02*
X145518285Y-89219809D01*
X145518285Y-89219809D02*
X145565904Y-89267428D01*
X145565904Y-89267428D02*
X145613523Y-89362666D01*
X145613523Y-89362666D02*
X145613523Y-89553142D01*
X145613523Y-89553142D02*
X145565904Y-89648380D01*
X145565904Y-89648380D02*
X145518285Y-89696000D01*
X145518285Y-89696000D02*
X145423047Y-89743619D01*
X145423047Y-89743619D02*
X145232571Y-89743619D01*
X145232571Y-89743619D02*
X145137333Y-89696000D01*
X145137333Y-89696000D02*
X145089714Y-89648380D01*
X145089714Y-89648380D02*
X145042095Y-89553142D01*
X145042095Y-89553142D02*
X145042095Y-89362666D01*
X145042095Y-89362666D02*
X145089714Y-89267428D01*
X145089714Y-89267428D02*
X145137333Y-89219809D01*
X145137333Y-89219809D02*
X145232571Y-89172190D01*
%TO.C,R4*%
X126150666Y-62565619D02*
X126483999Y-62089428D01*
X126722094Y-62565619D02*
X126722094Y-61565619D01*
X126722094Y-61565619D02*
X126341142Y-61565619D01*
X126341142Y-61565619D02*
X126245904Y-61613238D01*
X126245904Y-61613238D02*
X126198285Y-61660857D01*
X126198285Y-61660857D02*
X126150666Y-61756095D01*
X126150666Y-61756095D02*
X126150666Y-61898952D01*
X126150666Y-61898952D02*
X126198285Y-61994190D01*
X126198285Y-61994190D02*
X126245904Y-62041809D01*
X126245904Y-62041809D02*
X126341142Y-62089428D01*
X126341142Y-62089428D02*
X126722094Y-62089428D01*
X125293523Y-61898952D02*
X125293523Y-62565619D01*
X125531618Y-61518000D02*
X125769713Y-62232285D01*
X125769713Y-62232285D02*
X125150666Y-62232285D01*
%TO.C,C2*%
X146216666Y-69582380D02*
X146264285Y-69630000D01*
X146264285Y-69630000D02*
X146407142Y-69677619D01*
X146407142Y-69677619D02*
X146502380Y-69677619D01*
X146502380Y-69677619D02*
X146645237Y-69630000D01*
X146645237Y-69630000D02*
X146740475Y-69534761D01*
X146740475Y-69534761D02*
X146788094Y-69439523D01*
X146788094Y-69439523D02*
X146835713Y-69249047D01*
X146835713Y-69249047D02*
X146835713Y-69106190D01*
X146835713Y-69106190D02*
X146788094Y-68915714D01*
X146788094Y-68915714D02*
X146740475Y-68820476D01*
X146740475Y-68820476D02*
X146645237Y-68725238D01*
X146645237Y-68725238D02*
X146502380Y-68677619D01*
X146502380Y-68677619D02*
X146407142Y-68677619D01*
X146407142Y-68677619D02*
X146264285Y-68725238D01*
X146264285Y-68725238D02*
X146216666Y-68772857D01*
X145835713Y-68772857D02*
X145788094Y-68725238D01*
X145788094Y-68725238D02*
X145692856Y-68677619D01*
X145692856Y-68677619D02*
X145454761Y-68677619D01*
X145454761Y-68677619D02*
X145359523Y-68725238D01*
X145359523Y-68725238D02*
X145311904Y-68772857D01*
X145311904Y-68772857D02*
X145264285Y-68868095D01*
X145264285Y-68868095D02*
X145264285Y-68963333D01*
X145264285Y-68963333D02*
X145311904Y-69106190D01*
X145311904Y-69106190D02*
X145883332Y-69677619D01*
X145883332Y-69677619D02*
X145264285Y-69677619D01*
%TO.C,R9*%
X125134666Y-91521619D02*
X125467999Y-91045428D01*
X125706094Y-91521619D02*
X125706094Y-90521619D01*
X125706094Y-90521619D02*
X125325142Y-90521619D01*
X125325142Y-90521619D02*
X125229904Y-90569238D01*
X125229904Y-90569238D02*
X125182285Y-90616857D01*
X125182285Y-90616857D02*
X125134666Y-90712095D01*
X125134666Y-90712095D02*
X125134666Y-90854952D01*
X125134666Y-90854952D02*
X125182285Y-90950190D01*
X125182285Y-90950190D02*
X125229904Y-90997809D01*
X125229904Y-90997809D02*
X125325142Y-91045428D01*
X125325142Y-91045428D02*
X125706094Y-91045428D01*
X124658475Y-91521619D02*
X124467999Y-91521619D01*
X124467999Y-91521619D02*
X124372761Y-91474000D01*
X124372761Y-91474000D02*
X124325142Y-91426380D01*
X124325142Y-91426380D02*
X124229904Y-91283523D01*
X124229904Y-91283523D02*
X124182285Y-91093047D01*
X124182285Y-91093047D02*
X124182285Y-90712095D01*
X124182285Y-90712095D02*
X124229904Y-90616857D01*
X124229904Y-90616857D02*
X124277523Y-90569238D01*
X124277523Y-90569238D02*
X124372761Y-90521619D01*
X124372761Y-90521619D02*
X124563237Y-90521619D01*
X124563237Y-90521619D02*
X124658475Y-90569238D01*
X124658475Y-90569238D02*
X124706094Y-90616857D01*
X124706094Y-90616857D02*
X124753713Y-90712095D01*
X124753713Y-90712095D02*
X124753713Y-90950190D01*
X124753713Y-90950190D02*
X124706094Y-91045428D01*
X124706094Y-91045428D02*
X124658475Y-91093047D01*
X124658475Y-91093047D02*
X124563237Y-91140666D01*
X124563237Y-91140666D02*
X124372761Y-91140666D01*
X124372761Y-91140666D02*
X124277523Y-91093047D01*
X124277523Y-91093047D02*
X124229904Y-91045428D01*
X124229904Y-91045428D02*
X124182285Y-90950190D01*
%TO.C,R11*%
X126118857Y-67899619D02*
X126452190Y-67423428D01*
X126690285Y-67899619D02*
X126690285Y-66899619D01*
X126690285Y-66899619D02*
X126309333Y-66899619D01*
X126309333Y-66899619D02*
X126214095Y-66947238D01*
X126214095Y-66947238D02*
X126166476Y-66994857D01*
X126166476Y-66994857D02*
X126118857Y-67090095D01*
X126118857Y-67090095D02*
X126118857Y-67232952D01*
X126118857Y-67232952D02*
X126166476Y-67328190D01*
X126166476Y-67328190D02*
X126214095Y-67375809D01*
X126214095Y-67375809D02*
X126309333Y-67423428D01*
X126309333Y-67423428D02*
X126690285Y-67423428D01*
X125166476Y-67899619D02*
X125737904Y-67899619D01*
X125452190Y-67899619D02*
X125452190Y-66899619D01*
X125452190Y-66899619D02*
X125547428Y-67042476D01*
X125547428Y-67042476D02*
X125642666Y-67137714D01*
X125642666Y-67137714D02*
X125737904Y-67185333D01*
X124214095Y-67899619D02*
X124785523Y-67899619D01*
X124499809Y-67899619D02*
X124499809Y-66899619D01*
X124499809Y-66899619D02*
X124595047Y-67042476D01*
X124595047Y-67042476D02*
X124690285Y-67137714D01*
X124690285Y-67137714D02*
X124785523Y-67185333D01*
%TO.C,U2*%
X136651904Y-87579619D02*
X136651904Y-88389142D01*
X136651904Y-88389142D02*
X136604285Y-88484380D01*
X136604285Y-88484380D02*
X136556666Y-88532000D01*
X136556666Y-88532000D02*
X136461428Y-88579619D01*
X136461428Y-88579619D02*
X136270952Y-88579619D01*
X136270952Y-88579619D02*
X136175714Y-88532000D01*
X136175714Y-88532000D02*
X136128095Y-88484380D01*
X136128095Y-88484380D02*
X136080476Y-88389142D01*
X136080476Y-88389142D02*
X136080476Y-87579619D01*
X135651904Y-87674857D02*
X135604285Y-87627238D01*
X135604285Y-87627238D02*
X135509047Y-87579619D01*
X135509047Y-87579619D02*
X135270952Y-87579619D01*
X135270952Y-87579619D02*
X135175714Y-87627238D01*
X135175714Y-87627238D02*
X135128095Y-87674857D01*
X135128095Y-87674857D02*
X135080476Y-87770095D01*
X135080476Y-87770095D02*
X135080476Y-87865333D01*
X135080476Y-87865333D02*
X135128095Y-88008190D01*
X135128095Y-88008190D02*
X135699523Y-88579619D01*
X135699523Y-88579619D02*
X135080476Y-88579619D01*
%TO.C,C13*%
X139580857Y-71360380D02*
X139628476Y-71408000D01*
X139628476Y-71408000D02*
X139771333Y-71455619D01*
X139771333Y-71455619D02*
X139866571Y-71455619D01*
X139866571Y-71455619D02*
X140009428Y-71408000D01*
X140009428Y-71408000D02*
X140104666Y-71312761D01*
X140104666Y-71312761D02*
X140152285Y-71217523D01*
X140152285Y-71217523D02*
X140199904Y-71027047D01*
X140199904Y-71027047D02*
X140199904Y-70884190D01*
X140199904Y-70884190D02*
X140152285Y-70693714D01*
X140152285Y-70693714D02*
X140104666Y-70598476D01*
X140104666Y-70598476D02*
X140009428Y-70503238D01*
X140009428Y-70503238D02*
X139866571Y-70455619D01*
X139866571Y-70455619D02*
X139771333Y-70455619D01*
X139771333Y-70455619D02*
X139628476Y-70503238D01*
X139628476Y-70503238D02*
X139580857Y-70550857D01*
X138628476Y-71455619D02*
X139199904Y-71455619D01*
X138914190Y-71455619D02*
X138914190Y-70455619D01*
X138914190Y-70455619D02*
X139009428Y-70598476D01*
X139009428Y-70598476D02*
X139104666Y-70693714D01*
X139104666Y-70693714D02*
X139199904Y-70741333D01*
X138295142Y-70455619D02*
X137676095Y-70455619D01*
X137676095Y-70455619D02*
X138009428Y-70836571D01*
X138009428Y-70836571D02*
X137866571Y-70836571D01*
X137866571Y-70836571D02*
X137771333Y-70884190D01*
X137771333Y-70884190D02*
X137723714Y-70931809D01*
X137723714Y-70931809D02*
X137676095Y-71027047D01*
X137676095Y-71027047D02*
X137676095Y-71265142D01*
X137676095Y-71265142D02*
X137723714Y-71360380D01*
X137723714Y-71360380D02*
X137771333Y-71408000D01*
X137771333Y-71408000D02*
X137866571Y-71455619D01*
X137866571Y-71455619D02*
X138152285Y-71455619D01*
X138152285Y-71455619D02*
X138247523Y-71408000D01*
X138247523Y-71408000D02*
X138295142Y-71360380D01*
%TO.C,R6*%
X125134666Y-95077619D02*
X125467999Y-94601428D01*
X125706094Y-95077619D02*
X125706094Y-94077619D01*
X125706094Y-94077619D02*
X125325142Y-94077619D01*
X125325142Y-94077619D02*
X125229904Y-94125238D01*
X125229904Y-94125238D02*
X125182285Y-94172857D01*
X125182285Y-94172857D02*
X125134666Y-94268095D01*
X125134666Y-94268095D02*
X125134666Y-94410952D01*
X125134666Y-94410952D02*
X125182285Y-94506190D01*
X125182285Y-94506190D02*
X125229904Y-94553809D01*
X125229904Y-94553809D02*
X125325142Y-94601428D01*
X125325142Y-94601428D02*
X125706094Y-94601428D01*
X124277523Y-94077619D02*
X124467999Y-94077619D01*
X124467999Y-94077619D02*
X124563237Y-94125238D01*
X124563237Y-94125238D02*
X124610856Y-94172857D01*
X124610856Y-94172857D02*
X124706094Y-94315714D01*
X124706094Y-94315714D02*
X124753713Y-94506190D01*
X124753713Y-94506190D02*
X124753713Y-94887142D01*
X124753713Y-94887142D02*
X124706094Y-94982380D01*
X124706094Y-94982380D02*
X124658475Y-95030000D01*
X124658475Y-95030000D02*
X124563237Y-95077619D01*
X124563237Y-95077619D02*
X124372761Y-95077619D01*
X124372761Y-95077619D02*
X124277523Y-95030000D01*
X124277523Y-95030000D02*
X124229904Y-94982380D01*
X124229904Y-94982380D02*
X124182285Y-94887142D01*
X124182285Y-94887142D02*
X124182285Y-94649047D01*
X124182285Y-94649047D02*
X124229904Y-94553809D01*
X124229904Y-94553809D02*
X124277523Y-94506190D01*
X124277523Y-94506190D02*
X124372761Y-94458571D01*
X124372761Y-94458571D02*
X124563237Y-94458571D01*
X124563237Y-94458571D02*
X124658475Y-94506190D01*
X124658475Y-94506190D02*
X124706094Y-94553809D01*
X124706094Y-94553809D02*
X124753713Y-94649047D01*
%TO.C,R15*%
X125102857Y-87965619D02*
X125436190Y-87489428D01*
X125674285Y-87965619D02*
X125674285Y-86965619D01*
X125674285Y-86965619D02*
X125293333Y-86965619D01*
X125293333Y-86965619D02*
X125198095Y-87013238D01*
X125198095Y-87013238D02*
X125150476Y-87060857D01*
X125150476Y-87060857D02*
X125102857Y-87156095D01*
X125102857Y-87156095D02*
X125102857Y-87298952D01*
X125102857Y-87298952D02*
X125150476Y-87394190D01*
X125150476Y-87394190D02*
X125198095Y-87441809D01*
X125198095Y-87441809D02*
X125293333Y-87489428D01*
X125293333Y-87489428D02*
X125674285Y-87489428D01*
X124150476Y-87965619D02*
X124721904Y-87965619D01*
X124436190Y-87965619D02*
X124436190Y-86965619D01*
X124436190Y-86965619D02*
X124531428Y-87108476D01*
X124531428Y-87108476D02*
X124626666Y-87203714D01*
X124626666Y-87203714D02*
X124721904Y-87251333D01*
X123245714Y-86965619D02*
X123721904Y-86965619D01*
X123721904Y-86965619D02*
X123769523Y-87441809D01*
X123769523Y-87441809D02*
X123721904Y-87394190D01*
X123721904Y-87394190D02*
X123626666Y-87346571D01*
X123626666Y-87346571D02*
X123388571Y-87346571D01*
X123388571Y-87346571D02*
X123293333Y-87394190D01*
X123293333Y-87394190D02*
X123245714Y-87441809D01*
X123245714Y-87441809D02*
X123198095Y-87537047D01*
X123198095Y-87537047D02*
X123198095Y-87775142D01*
X123198095Y-87775142D02*
X123245714Y-87870380D01*
X123245714Y-87870380D02*
X123293333Y-87918000D01*
X123293333Y-87918000D02*
X123388571Y-87965619D01*
X123388571Y-87965619D02*
X123626666Y-87965619D01*
X123626666Y-87965619D02*
X123721904Y-87918000D01*
X123721904Y-87918000D02*
X123769523Y-87870380D01*
%TO.C,R16*%
X123404619Y-142232142D02*
X122928428Y-141898809D01*
X123404619Y-141660714D02*
X122404619Y-141660714D01*
X122404619Y-141660714D02*
X122404619Y-142041666D01*
X122404619Y-142041666D02*
X122452238Y-142136904D01*
X122452238Y-142136904D02*
X122499857Y-142184523D01*
X122499857Y-142184523D02*
X122595095Y-142232142D01*
X122595095Y-142232142D02*
X122737952Y-142232142D01*
X122737952Y-142232142D02*
X122833190Y-142184523D01*
X122833190Y-142184523D02*
X122880809Y-142136904D01*
X122880809Y-142136904D02*
X122928428Y-142041666D01*
X122928428Y-142041666D02*
X122928428Y-141660714D01*
X123404619Y-143184523D02*
X123404619Y-142613095D01*
X123404619Y-142898809D02*
X122404619Y-142898809D01*
X122404619Y-142898809D02*
X122547476Y-142803571D01*
X122547476Y-142803571D02*
X122642714Y-142708333D01*
X122642714Y-142708333D02*
X122690333Y-142613095D01*
X122404619Y-144041666D02*
X122404619Y-143851190D01*
X122404619Y-143851190D02*
X122452238Y-143755952D01*
X122452238Y-143755952D02*
X122499857Y-143708333D01*
X122499857Y-143708333D02*
X122642714Y-143613095D01*
X122642714Y-143613095D02*
X122833190Y-143565476D01*
X122833190Y-143565476D02*
X123214142Y-143565476D01*
X123214142Y-143565476D02*
X123309380Y-143613095D01*
X123309380Y-143613095D02*
X123357000Y-143660714D01*
X123357000Y-143660714D02*
X123404619Y-143755952D01*
X123404619Y-143755952D02*
X123404619Y-143946428D01*
X123404619Y-143946428D02*
X123357000Y-144041666D01*
X123357000Y-144041666D02*
X123309380Y-144089285D01*
X123309380Y-144089285D02*
X123214142Y-144136904D01*
X123214142Y-144136904D02*
X122976047Y-144136904D01*
X122976047Y-144136904D02*
X122880809Y-144089285D01*
X122880809Y-144089285D02*
X122833190Y-144041666D01*
X122833190Y-144041666D02*
X122785571Y-143946428D01*
X122785571Y-143946428D02*
X122785571Y-143755952D01*
X122785571Y-143755952D02*
X122833190Y-143660714D01*
X122833190Y-143660714D02*
X122880809Y-143613095D01*
X122880809Y-143613095D02*
X122976047Y-143565476D01*
%TO.C,R8*%
X146216666Y-66121619D02*
X146549999Y-65645428D01*
X146788094Y-66121619D02*
X146788094Y-65121619D01*
X146788094Y-65121619D02*
X146407142Y-65121619D01*
X146407142Y-65121619D02*
X146311904Y-65169238D01*
X146311904Y-65169238D02*
X146264285Y-65216857D01*
X146264285Y-65216857D02*
X146216666Y-65312095D01*
X146216666Y-65312095D02*
X146216666Y-65454952D01*
X146216666Y-65454952D02*
X146264285Y-65550190D01*
X146264285Y-65550190D02*
X146311904Y-65597809D01*
X146311904Y-65597809D02*
X146407142Y-65645428D01*
X146407142Y-65645428D02*
X146788094Y-65645428D01*
X145645237Y-65550190D02*
X145740475Y-65502571D01*
X145740475Y-65502571D02*
X145788094Y-65454952D01*
X145788094Y-65454952D02*
X145835713Y-65359714D01*
X145835713Y-65359714D02*
X145835713Y-65312095D01*
X145835713Y-65312095D02*
X145788094Y-65216857D01*
X145788094Y-65216857D02*
X145740475Y-65169238D01*
X145740475Y-65169238D02*
X145645237Y-65121619D01*
X145645237Y-65121619D02*
X145454761Y-65121619D01*
X145454761Y-65121619D02*
X145359523Y-65169238D01*
X145359523Y-65169238D02*
X145311904Y-65216857D01*
X145311904Y-65216857D02*
X145264285Y-65312095D01*
X145264285Y-65312095D02*
X145264285Y-65359714D01*
X145264285Y-65359714D02*
X145311904Y-65454952D01*
X145311904Y-65454952D02*
X145359523Y-65502571D01*
X145359523Y-65502571D02*
X145454761Y-65550190D01*
X145454761Y-65550190D02*
X145645237Y-65550190D01*
X145645237Y-65550190D02*
X145740475Y-65597809D01*
X145740475Y-65597809D02*
X145788094Y-65645428D01*
X145788094Y-65645428D02*
X145835713Y-65740666D01*
X145835713Y-65740666D02*
X145835713Y-65931142D01*
X145835713Y-65931142D02*
X145788094Y-66026380D01*
X145788094Y-66026380D02*
X145740475Y-66074000D01*
X145740475Y-66074000D02*
X145645237Y-66121619D01*
X145645237Y-66121619D02*
X145454761Y-66121619D01*
X145454761Y-66121619D02*
X145359523Y-66074000D01*
X145359523Y-66074000D02*
X145311904Y-66026380D01*
X145311904Y-66026380D02*
X145264285Y-65931142D01*
X145264285Y-65931142D02*
X145264285Y-65740666D01*
X145264285Y-65740666D02*
X145311904Y-65645428D01*
X145311904Y-65645428D02*
X145359523Y-65597809D01*
X145359523Y-65597809D02*
X145454761Y-65550190D01*
%TO.C,C15*%
X133550857Y-86092380D02*
X133598476Y-86140000D01*
X133598476Y-86140000D02*
X133741333Y-86187619D01*
X133741333Y-86187619D02*
X133836571Y-86187619D01*
X133836571Y-86187619D02*
X133979428Y-86140000D01*
X133979428Y-86140000D02*
X134074666Y-86044761D01*
X134074666Y-86044761D02*
X134122285Y-85949523D01*
X134122285Y-85949523D02*
X134169904Y-85759047D01*
X134169904Y-85759047D02*
X134169904Y-85616190D01*
X134169904Y-85616190D02*
X134122285Y-85425714D01*
X134122285Y-85425714D02*
X134074666Y-85330476D01*
X134074666Y-85330476D02*
X133979428Y-85235238D01*
X133979428Y-85235238D02*
X133836571Y-85187619D01*
X133836571Y-85187619D02*
X133741333Y-85187619D01*
X133741333Y-85187619D02*
X133598476Y-85235238D01*
X133598476Y-85235238D02*
X133550857Y-85282857D01*
X132598476Y-86187619D02*
X133169904Y-86187619D01*
X132884190Y-86187619D02*
X132884190Y-85187619D01*
X132884190Y-85187619D02*
X132979428Y-85330476D01*
X132979428Y-85330476D02*
X133074666Y-85425714D01*
X133074666Y-85425714D02*
X133169904Y-85473333D01*
X131693714Y-85187619D02*
X132169904Y-85187619D01*
X132169904Y-85187619D02*
X132217523Y-85663809D01*
X132217523Y-85663809D02*
X132169904Y-85616190D01*
X132169904Y-85616190D02*
X132074666Y-85568571D01*
X132074666Y-85568571D02*
X131836571Y-85568571D01*
X131836571Y-85568571D02*
X131741333Y-85616190D01*
X131741333Y-85616190D02*
X131693714Y-85663809D01*
X131693714Y-85663809D02*
X131646095Y-85759047D01*
X131646095Y-85759047D02*
X131646095Y-85997142D01*
X131646095Y-85997142D02*
X131693714Y-86092380D01*
X131693714Y-86092380D02*
X131741333Y-86140000D01*
X131741333Y-86140000D02*
X131836571Y-86187619D01*
X131836571Y-86187619D02*
X132074666Y-86187619D01*
X132074666Y-86187619D02*
X132169904Y-86140000D01*
X132169904Y-86140000D02*
X132217523Y-86092380D01*
%TO.C,R19*%
X146946857Y-91521619D02*
X147280190Y-91045428D01*
X147518285Y-91521619D02*
X147518285Y-90521619D01*
X147518285Y-90521619D02*
X147137333Y-90521619D01*
X147137333Y-90521619D02*
X147042095Y-90569238D01*
X147042095Y-90569238D02*
X146994476Y-90616857D01*
X146994476Y-90616857D02*
X146946857Y-90712095D01*
X146946857Y-90712095D02*
X146946857Y-90854952D01*
X146946857Y-90854952D02*
X146994476Y-90950190D01*
X146994476Y-90950190D02*
X147042095Y-90997809D01*
X147042095Y-90997809D02*
X147137333Y-91045428D01*
X147137333Y-91045428D02*
X147518285Y-91045428D01*
X145994476Y-91521619D02*
X146565904Y-91521619D01*
X146280190Y-91521619D02*
X146280190Y-90521619D01*
X146280190Y-90521619D02*
X146375428Y-90664476D01*
X146375428Y-90664476D02*
X146470666Y-90759714D01*
X146470666Y-90759714D02*
X146565904Y-90807333D01*
X145518285Y-91521619D02*
X145327809Y-91521619D01*
X145327809Y-91521619D02*
X145232571Y-91474000D01*
X145232571Y-91474000D02*
X145184952Y-91426380D01*
X145184952Y-91426380D02*
X145089714Y-91283523D01*
X145089714Y-91283523D02*
X145042095Y-91093047D01*
X145042095Y-91093047D02*
X145042095Y-90712095D01*
X145042095Y-90712095D02*
X145089714Y-90616857D01*
X145089714Y-90616857D02*
X145137333Y-90569238D01*
X145137333Y-90569238D02*
X145232571Y-90521619D01*
X145232571Y-90521619D02*
X145423047Y-90521619D01*
X145423047Y-90521619D02*
X145518285Y-90569238D01*
X145518285Y-90569238D02*
X145565904Y-90616857D01*
X145565904Y-90616857D02*
X145613523Y-90712095D01*
X145613523Y-90712095D02*
X145613523Y-90950190D01*
X145613523Y-90950190D02*
X145565904Y-91045428D01*
X145565904Y-91045428D02*
X145518285Y-91093047D01*
X145518285Y-91093047D02*
X145423047Y-91140666D01*
X145423047Y-91140666D02*
X145232571Y-91140666D01*
X145232571Y-91140666D02*
X145137333Y-91093047D01*
X145137333Y-91093047D02*
X145089714Y-91045428D01*
X145089714Y-91045428D02*
X145042095Y-90950190D01*
%TO.C,R12*%
X125161357Y-89698619D02*
X125494690Y-89222428D01*
X125732785Y-89698619D02*
X125732785Y-88698619D01*
X125732785Y-88698619D02*
X125351833Y-88698619D01*
X125351833Y-88698619D02*
X125256595Y-88746238D01*
X125256595Y-88746238D02*
X125208976Y-88793857D01*
X125208976Y-88793857D02*
X125161357Y-88889095D01*
X125161357Y-88889095D02*
X125161357Y-89031952D01*
X125161357Y-89031952D02*
X125208976Y-89127190D01*
X125208976Y-89127190D02*
X125256595Y-89174809D01*
X125256595Y-89174809D02*
X125351833Y-89222428D01*
X125351833Y-89222428D02*
X125732785Y-89222428D01*
X124208976Y-89698619D02*
X124780404Y-89698619D01*
X124494690Y-89698619D02*
X124494690Y-88698619D01*
X124494690Y-88698619D02*
X124589928Y-88841476D01*
X124589928Y-88841476D02*
X124685166Y-88936714D01*
X124685166Y-88936714D02*
X124780404Y-88984333D01*
X123828023Y-88793857D02*
X123780404Y-88746238D01*
X123780404Y-88746238D02*
X123685166Y-88698619D01*
X123685166Y-88698619D02*
X123447071Y-88698619D01*
X123447071Y-88698619D02*
X123351833Y-88746238D01*
X123351833Y-88746238D02*
X123304214Y-88793857D01*
X123304214Y-88793857D02*
X123256595Y-88889095D01*
X123256595Y-88889095D02*
X123256595Y-88984333D01*
X123256595Y-88984333D02*
X123304214Y-89127190D01*
X123304214Y-89127190D02*
X123875642Y-89698619D01*
X123875642Y-89698619D02*
X123256595Y-89698619D01*
%TO.C,C1*%
X126150666Y-64248380D02*
X126198285Y-64296000D01*
X126198285Y-64296000D02*
X126341142Y-64343619D01*
X126341142Y-64343619D02*
X126436380Y-64343619D01*
X126436380Y-64343619D02*
X126579237Y-64296000D01*
X126579237Y-64296000D02*
X126674475Y-64200761D01*
X126674475Y-64200761D02*
X126722094Y-64105523D01*
X126722094Y-64105523D02*
X126769713Y-63915047D01*
X126769713Y-63915047D02*
X126769713Y-63772190D01*
X126769713Y-63772190D02*
X126722094Y-63581714D01*
X126722094Y-63581714D02*
X126674475Y-63486476D01*
X126674475Y-63486476D02*
X126579237Y-63391238D01*
X126579237Y-63391238D02*
X126436380Y-63343619D01*
X126436380Y-63343619D02*
X126341142Y-63343619D01*
X126341142Y-63343619D02*
X126198285Y-63391238D01*
X126198285Y-63391238D02*
X126150666Y-63438857D01*
X125198285Y-64343619D02*
X125769713Y-64343619D01*
X125483999Y-64343619D02*
X125483999Y-63343619D01*
X125483999Y-63343619D02*
X125579237Y-63486476D01*
X125579237Y-63486476D02*
X125674475Y-63581714D01*
X125674475Y-63581714D02*
X125769713Y-63629333D01*
%TO.C,C12*%
X133738857Y-60692380D02*
X133786476Y-60740000D01*
X133786476Y-60740000D02*
X133929333Y-60787619D01*
X133929333Y-60787619D02*
X134024571Y-60787619D01*
X134024571Y-60787619D02*
X134167428Y-60740000D01*
X134167428Y-60740000D02*
X134262666Y-60644761D01*
X134262666Y-60644761D02*
X134310285Y-60549523D01*
X134310285Y-60549523D02*
X134357904Y-60359047D01*
X134357904Y-60359047D02*
X134357904Y-60216190D01*
X134357904Y-60216190D02*
X134310285Y-60025714D01*
X134310285Y-60025714D02*
X134262666Y-59930476D01*
X134262666Y-59930476D02*
X134167428Y-59835238D01*
X134167428Y-59835238D02*
X134024571Y-59787619D01*
X134024571Y-59787619D02*
X133929333Y-59787619D01*
X133929333Y-59787619D02*
X133786476Y-59835238D01*
X133786476Y-59835238D02*
X133738857Y-59882857D01*
X132786476Y-60787619D02*
X133357904Y-60787619D01*
X133072190Y-60787619D02*
X133072190Y-59787619D01*
X133072190Y-59787619D02*
X133167428Y-59930476D01*
X133167428Y-59930476D02*
X133262666Y-60025714D01*
X133262666Y-60025714D02*
X133357904Y-60073333D01*
X132405523Y-59882857D02*
X132357904Y-59835238D01*
X132357904Y-59835238D02*
X132262666Y-59787619D01*
X132262666Y-59787619D02*
X132024571Y-59787619D01*
X132024571Y-59787619D02*
X131929333Y-59835238D01*
X131929333Y-59835238D02*
X131881714Y-59882857D01*
X131881714Y-59882857D02*
X131834095Y-59978095D01*
X131834095Y-59978095D02*
X131834095Y-60073333D01*
X131834095Y-60073333D02*
X131881714Y-60216190D01*
X131881714Y-60216190D02*
X132453142Y-60787619D01*
X132453142Y-60787619D02*
X131834095Y-60787619D01*
%TO.C,R14*%
X147200857Y-62565619D02*
X147534190Y-62089428D01*
X147772285Y-62565619D02*
X147772285Y-61565619D01*
X147772285Y-61565619D02*
X147391333Y-61565619D01*
X147391333Y-61565619D02*
X147296095Y-61613238D01*
X147296095Y-61613238D02*
X147248476Y-61660857D01*
X147248476Y-61660857D02*
X147200857Y-61756095D01*
X147200857Y-61756095D02*
X147200857Y-61898952D01*
X147200857Y-61898952D02*
X147248476Y-61994190D01*
X147248476Y-61994190D02*
X147296095Y-62041809D01*
X147296095Y-62041809D02*
X147391333Y-62089428D01*
X147391333Y-62089428D02*
X147772285Y-62089428D01*
X146248476Y-62565619D02*
X146819904Y-62565619D01*
X146534190Y-62565619D02*
X146534190Y-61565619D01*
X146534190Y-61565619D02*
X146629428Y-61708476D01*
X146629428Y-61708476D02*
X146724666Y-61803714D01*
X146724666Y-61803714D02*
X146819904Y-61851333D01*
X145391333Y-61898952D02*
X145391333Y-62565619D01*
X145629428Y-61518000D02*
X145867523Y-62232285D01*
X145867523Y-62232285D02*
X145248476Y-62232285D01*
%TO.C,C3*%
X125134666Y-93204380D02*
X125182285Y-93252000D01*
X125182285Y-93252000D02*
X125325142Y-93299619D01*
X125325142Y-93299619D02*
X125420380Y-93299619D01*
X125420380Y-93299619D02*
X125563237Y-93252000D01*
X125563237Y-93252000D02*
X125658475Y-93156761D01*
X125658475Y-93156761D02*
X125706094Y-93061523D01*
X125706094Y-93061523D02*
X125753713Y-92871047D01*
X125753713Y-92871047D02*
X125753713Y-92728190D01*
X125753713Y-92728190D02*
X125706094Y-92537714D01*
X125706094Y-92537714D02*
X125658475Y-92442476D01*
X125658475Y-92442476D02*
X125563237Y-92347238D01*
X125563237Y-92347238D02*
X125420380Y-92299619D01*
X125420380Y-92299619D02*
X125325142Y-92299619D01*
X125325142Y-92299619D02*
X125182285Y-92347238D01*
X125182285Y-92347238D02*
X125134666Y-92394857D01*
X124801332Y-92299619D02*
X124182285Y-92299619D01*
X124182285Y-92299619D02*
X124515618Y-92680571D01*
X124515618Y-92680571D02*
X124372761Y-92680571D01*
X124372761Y-92680571D02*
X124277523Y-92728190D01*
X124277523Y-92728190D02*
X124229904Y-92775809D01*
X124229904Y-92775809D02*
X124182285Y-92871047D01*
X124182285Y-92871047D02*
X124182285Y-93109142D01*
X124182285Y-93109142D02*
X124229904Y-93204380D01*
X124229904Y-93204380D02*
X124277523Y-93252000D01*
X124277523Y-93252000D02*
X124372761Y-93299619D01*
X124372761Y-93299619D02*
X124658475Y-93299619D01*
X124658475Y-93299619D02*
X124753713Y-93252000D01*
X124753713Y-93252000D02*
X124801332Y-93204380D01*
%TO.C,R10*%
X147200857Y-64343619D02*
X147534190Y-63867428D01*
X147772285Y-64343619D02*
X147772285Y-63343619D01*
X147772285Y-63343619D02*
X147391333Y-63343619D01*
X147391333Y-63343619D02*
X147296095Y-63391238D01*
X147296095Y-63391238D02*
X147248476Y-63438857D01*
X147248476Y-63438857D02*
X147200857Y-63534095D01*
X147200857Y-63534095D02*
X147200857Y-63676952D01*
X147200857Y-63676952D02*
X147248476Y-63772190D01*
X147248476Y-63772190D02*
X147296095Y-63819809D01*
X147296095Y-63819809D02*
X147391333Y-63867428D01*
X147391333Y-63867428D02*
X147772285Y-63867428D01*
X146248476Y-64343619D02*
X146819904Y-64343619D01*
X146534190Y-64343619D02*
X146534190Y-63343619D01*
X146534190Y-63343619D02*
X146629428Y-63486476D01*
X146629428Y-63486476D02*
X146724666Y-63581714D01*
X146724666Y-63581714D02*
X146819904Y-63629333D01*
X145629428Y-63343619D02*
X145534190Y-63343619D01*
X145534190Y-63343619D02*
X145438952Y-63391238D01*
X145438952Y-63391238D02*
X145391333Y-63438857D01*
X145391333Y-63438857D02*
X145343714Y-63534095D01*
X145343714Y-63534095D02*
X145296095Y-63724571D01*
X145296095Y-63724571D02*
X145296095Y-63962666D01*
X145296095Y-63962666D02*
X145343714Y-64153142D01*
X145343714Y-64153142D02*
X145391333Y-64248380D01*
X145391333Y-64248380D02*
X145438952Y-64296000D01*
X145438952Y-64296000D02*
X145534190Y-64343619D01*
X145534190Y-64343619D02*
X145629428Y-64343619D01*
X145629428Y-64343619D02*
X145724666Y-64296000D01*
X145724666Y-64296000D02*
X145772285Y-64248380D01*
X145772285Y-64248380D02*
X145819904Y-64153142D01*
X145819904Y-64153142D02*
X145867523Y-63962666D01*
X145867523Y-63962666D02*
X145867523Y-63724571D01*
X145867523Y-63724571D02*
X145819904Y-63534095D01*
X145819904Y-63534095D02*
X145772285Y-63438857D01*
X145772285Y-63438857D02*
X145724666Y-63391238D01*
X145724666Y-63391238D02*
X145629428Y-63343619D01*
%TO.C,R2*%
X146216666Y-71455619D02*
X146549999Y-70979428D01*
X146788094Y-71455619D02*
X146788094Y-70455619D01*
X146788094Y-70455619D02*
X146407142Y-70455619D01*
X146407142Y-70455619D02*
X146311904Y-70503238D01*
X146311904Y-70503238D02*
X146264285Y-70550857D01*
X146264285Y-70550857D02*
X146216666Y-70646095D01*
X146216666Y-70646095D02*
X146216666Y-70788952D01*
X146216666Y-70788952D02*
X146264285Y-70884190D01*
X146264285Y-70884190D02*
X146311904Y-70931809D01*
X146311904Y-70931809D02*
X146407142Y-70979428D01*
X146407142Y-70979428D02*
X146788094Y-70979428D01*
X145835713Y-70550857D02*
X145788094Y-70503238D01*
X145788094Y-70503238D02*
X145692856Y-70455619D01*
X145692856Y-70455619D02*
X145454761Y-70455619D01*
X145454761Y-70455619D02*
X145359523Y-70503238D01*
X145359523Y-70503238D02*
X145311904Y-70550857D01*
X145311904Y-70550857D02*
X145264285Y-70646095D01*
X145264285Y-70646095D02*
X145264285Y-70741333D01*
X145264285Y-70741333D02*
X145311904Y-70884190D01*
X145311904Y-70884190D02*
X145883332Y-71455619D01*
X145883332Y-71455619D02*
X145264285Y-71455619D01*
%TO.C,C4*%
X125896666Y-71360380D02*
X125944285Y-71408000D01*
X125944285Y-71408000D02*
X126087142Y-71455619D01*
X126087142Y-71455619D02*
X126182380Y-71455619D01*
X126182380Y-71455619D02*
X126325237Y-71408000D01*
X126325237Y-71408000D02*
X126420475Y-71312761D01*
X126420475Y-71312761D02*
X126468094Y-71217523D01*
X126468094Y-71217523D02*
X126515713Y-71027047D01*
X126515713Y-71027047D02*
X126515713Y-70884190D01*
X126515713Y-70884190D02*
X126468094Y-70693714D01*
X126468094Y-70693714D02*
X126420475Y-70598476D01*
X126420475Y-70598476D02*
X126325237Y-70503238D01*
X126325237Y-70503238D02*
X126182380Y-70455619D01*
X126182380Y-70455619D02*
X126087142Y-70455619D01*
X126087142Y-70455619D02*
X125944285Y-70503238D01*
X125944285Y-70503238D02*
X125896666Y-70550857D01*
X125039523Y-70788952D02*
X125039523Y-71455619D01*
X125277618Y-70408000D02*
X125515713Y-71122285D01*
X125515713Y-71122285D02*
X124896666Y-71122285D01*
%TO.C,C11*%
X133924357Y-124130380D02*
X133971976Y-124178000D01*
X133971976Y-124178000D02*
X134114833Y-124225619D01*
X134114833Y-124225619D02*
X134210071Y-124225619D01*
X134210071Y-124225619D02*
X134352928Y-124178000D01*
X134352928Y-124178000D02*
X134448166Y-124082761D01*
X134448166Y-124082761D02*
X134495785Y-123987523D01*
X134495785Y-123987523D02*
X134543404Y-123797047D01*
X134543404Y-123797047D02*
X134543404Y-123654190D01*
X134543404Y-123654190D02*
X134495785Y-123463714D01*
X134495785Y-123463714D02*
X134448166Y-123368476D01*
X134448166Y-123368476D02*
X134352928Y-123273238D01*
X134352928Y-123273238D02*
X134210071Y-123225619D01*
X134210071Y-123225619D02*
X134114833Y-123225619D01*
X134114833Y-123225619D02*
X133971976Y-123273238D01*
X133971976Y-123273238D02*
X133924357Y-123320857D01*
X132971976Y-124225619D02*
X133543404Y-124225619D01*
X133257690Y-124225619D02*
X133257690Y-123225619D01*
X133257690Y-123225619D02*
X133352928Y-123368476D01*
X133352928Y-123368476D02*
X133448166Y-123463714D01*
X133448166Y-123463714D02*
X133543404Y-123511333D01*
X132019595Y-124225619D02*
X132591023Y-124225619D01*
X132305309Y-124225619D02*
X132305309Y-123225619D01*
X132305309Y-123225619D02*
X132400547Y-123368476D01*
X132400547Y-123368476D02*
X132495785Y-123463714D01*
X132495785Y-123463714D02*
X132591023Y-123511333D01*
%TO.C,C7*%
X145962666Y-86092380D02*
X146010285Y-86140000D01*
X146010285Y-86140000D02*
X146153142Y-86187619D01*
X146153142Y-86187619D02*
X146248380Y-86187619D01*
X146248380Y-86187619D02*
X146391237Y-86140000D01*
X146391237Y-86140000D02*
X146486475Y-86044761D01*
X146486475Y-86044761D02*
X146534094Y-85949523D01*
X146534094Y-85949523D02*
X146581713Y-85759047D01*
X146581713Y-85759047D02*
X146581713Y-85616190D01*
X146581713Y-85616190D02*
X146534094Y-85425714D01*
X146534094Y-85425714D02*
X146486475Y-85330476D01*
X146486475Y-85330476D02*
X146391237Y-85235238D01*
X146391237Y-85235238D02*
X146248380Y-85187619D01*
X146248380Y-85187619D02*
X146153142Y-85187619D01*
X146153142Y-85187619D02*
X146010285Y-85235238D01*
X146010285Y-85235238D02*
X145962666Y-85282857D01*
X145629332Y-85187619D02*
X144962666Y-85187619D01*
X144962666Y-85187619D02*
X145391237Y-86187619D01*
%TO.C,C5*%
X146203666Y-60692380D02*
X146251285Y-60740000D01*
X146251285Y-60740000D02*
X146394142Y-60787619D01*
X146394142Y-60787619D02*
X146489380Y-60787619D01*
X146489380Y-60787619D02*
X146632237Y-60740000D01*
X146632237Y-60740000D02*
X146727475Y-60644761D01*
X146727475Y-60644761D02*
X146775094Y-60549523D01*
X146775094Y-60549523D02*
X146822713Y-60359047D01*
X146822713Y-60359047D02*
X146822713Y-60216190D01*
X146822713Y-60216190D02*
X146775094Y-60025714D01*
X146775094Y-60025714D02*
X146727475Y-59930476D01*
X146727475Y-59930476D02*
X146632237Y-59835238D01*
X146632237Y-59835238D02*
X146489380Y-59787619D01*
X146489380Y-59787619D02*
X146394142Y-59787619D01*
X146394142Y-59787619D02*
X146251285Y-59835238D01*
X146251285Y-59835238D02*
X146203666Y-59882857D01*
X145298904Y-59787619D02*
X145775094Y-59787619D01*
X145775094Y-59787619D02*
X145822713Y-60263809D01*
X145822713Y-60263809D02*
X145775094Y-60216190D01*
X145775094Y-60216190D02*
X145679856Y-60168571D01*
X145679856Y-60168571D02*
X145441761Y-60168571D01*
X145441761Y-60168571D02*
X145346523Y-60216190D01*
X145346523Y-60216190D02*
X145298904Y-60263809D01*
X145298904Y-60263809D02*
X145251285Y-60359047D01*
X145251285Y-60359047D02*
X145251285Y-60597142D01*
X145251285Y-60597142D02*
X145298904Y-60692380D01*
X145298904Y-60692380D02*
X145346523Y-60740000D01*
X145346523Y-60740000D02*
X145441761Y-60787619D01*
X145441761Y-60787619D02*
X145679856Y-60787619D01*
X145679856Y-60787619D02*
X145775094Y-60740000D01*
X145775094Y-60740000D02*
X145822713Y-60692380D01*
%TO.C,R20*%
X146946857Y-93299619D02*
X147280190Y-92823428D01*
X147518285Y-93299619D02*
X147518285Y-92299619D01*
X147518285Y-92299619D02*
X147137333Y-92299619D01*
X147137333Y-92299619D02*
X147042095Y-92347238D01*
X147042095Y-92347238D02*
X146994476Y-92394857D01*
X146994476Y-92394857D02*
X146946857Y-92490095D01*
X146946857Y-92490095D02*
X146946857Y-92632952D01*
X146946857Y-92632952D02*
X146994476Y-92728190D01*
X146994476Y-92728190D02*
X147042095Y-92775809D01*
X147042095Y-92775809D02*
X147137333Y-92823428D01*
X147137333Y-92823428D02*
X147518285Y-92823428D01*
X146565904Y-92394857D02*
X146518285Y-92347238D01*
X146518285Y-92347238D02*
X146423047Y-92299619D01*
X146423047Y-92299619D02*
X146184952Y-92299619D01*
X146184952Y-92299619D02*
X146089714Y-92347238D01*
X146089714Y-92347238D02*
X146042095Y-92394857D01*
X146042095Y-92394857D02*
X145994476Y-92490095D01*
X145994476Y-92490095D02*
X145994476Y-92585333D01*
X145994476Y-92585333D02*
X146042095Y-92728190D01*
X146042095Y-92728190D02*
X146613523Y-93299619D01*
X146613523Y-93299619D02*
X145994476Y-93299619D01*
X145375428Y-92299619D02*
X145280190Y-92299619D01*
X145280190Y-92299619D02*
X145184952Y-92347238D01*
X145184952Y-92347238D02*
X145137333Y-92394857D01*
X145137333Y-92394857D02*
X145089714Y-92490095D01*
X145089714Y-92490095D02*
X145042095Y-92680571D01*
X145042095Y-92680571D02*
X145042095Y-92918666D01*
X145042095Y-92918666D02*
X145089714Y-93109142D01*
X145089714Y-93109142D02*
X145137333Y-93204380D01*
X145137333Y-93204380D02*
X145184952Y-93252000D01*
X145184952Y-93252000D02*
X145280190Y-93299619D01*
X145280190Y-93299619D02*
X145375428Y-93299619D01*
X145375428Y-93299619D02*
X145470666Y-93252000D01*
X145470666Y-93252000D02*
X145518285Y-93204380D01*
X145518285Y-93204380D02*
X145565904Y-93109142D01*
X145565904Y-93109142D02*
X145613523Y-92918666D01*
X145613523Y-92918666D02*
X145613523Y-92680571D01*
X145613523Y-92680571D02*
X145565904Y-92490095D01*
X145565904Y-92490095D02*
X145518285Y-92394857D01*
X145518285Y-92394857D02*
X145470666Y-92347238D01*
X145470666Y-92347238D02*
X145375428Y-92299619D01*
%TO.C,R21*%
X146946857Y-87965619D02*
X147280190Y-87489428D01*
X147518285Y-87965619D02*
X147518285Y-86965619D01*
X147518285Y-86965619D02*
X147137333Y-86965619D01*
X147137333Y-86965619D02*
X147042095Y-87013238D01*
X147042095Y-87013238D02*
X146994476Y-87060857D01*
X146994476Y-87060857D02*
X146946857Y-87156095D01*
X146946857Y-87156095D02*
X146946857Y-87298952D01*
X146946857Y-87298952D02*
X146994476Y-87394190D01*
X146994476Y-87394190D02*
X147042095Y-87441809D01*
X147042095Y-87441809D02*
X147137333Y-87489428D01*
X147137333Y-87489428D02*
X147518285Y-87489428D01*
X146565904Y-87060857D02*
X146518285Y-87013238D01*
X146518285Y-87013238D02*
X146423047Y-86965619D01*
X146423047Y-86965619D02*
X146184952Y-86965619D01*
X146184952Y-86965619D02*
X146089714Y-87013238D01*
X146089714Y-87013238D02*
X146042095Y-87060857D01*
X146042095Y-87060857D02*
X145994476Y-87156095D01*
X145994476Y-87156095D02*
X145994476Y-87251333D01*
X145994476Y-87251333D02*
X146042095Y-87394190D01*
X146042095Y-87394190D02*
X146613523Y-87965619D01*
X146613523Y-87965619D02*
X145994476Y-87965619D01*
X145042095Y-87965619D02*
X145613523Y-87965619D01*
X145327809Y-87965619D02*
X145327809Y-86965619D01*
X145327809Y-86965619D02*
X145423047Y-87108476D01*
X145423047Y-87108476D02*
X145518285Y-87203714D01*
X145518285Y-87203714D02*
X145613523Y-87251333D01*
%TO.C,R13*%
X126118857Y-69677619D02*
X126452190Y-69201428D01*
X126690285Y-69677619D02*
X126690285Y-68677619D01*
X126690285Y-68677619D02*
X126309333Y-68677619D01*
X126309333Y-68677619D02*
X126214095Y-68725238D01*
X126214095Y-68725238D02*
X126166476Y-68772857D01*
X126166476Y-68772857D02*
X126118857Y-68868095D01*
X126118857Y-68868095D02*
X126118857Y-69010952D01*
X126118857Y-69010952D02*
X126166476Y-69106190D01*
X126166476Y-69106190D02*
X126214095Y-69153809D01*
X126214095Y-69153809D02*
X126309333Y-69201428D01*
X126309333Y-69201428D02*
X126690285Y-69201428D01*
X125166476Y-69677619D02*
X125737904Y-69677619D01*
X125452190Y-69677619D02*
X125452190Y-68677619D01*
X125452190Y-68677619D02*
X125547428Y-68820476D01*
X125547428Y-68820476D02*
X125642666Y-68915714D01*
X125642666Y-68915714D02*
X125737904Y-68963333D01*
X124833142Y-68677619D02*
X124214095Y-68677619D01*
X124214095Y-68677619D02*
X124547428Y-69058571D01*
X124547428Y-69058571D02*
X124404571Y-69058571D01*
X124404571Y-69058571D02*
X124309333Y-69106190D01*
X124309333Y-69106190D02*
X124261714Y-69153809D01*
X124261714Y-69153809D02*
X124214095Y-69249047D01*
X124214095Y-69249047D02*
X124214095Y-69487142D01*
X124214095Y-69487142D02*
X124261714Y-69582380D01*
X124261714Y-69582380D02*
X124309333Y-69630000D01*
X124309333Y-69630000D02*
X124404571Y-69677619D01*
X124404571Y-69677619D02*
X124690285Y-69677619D01*
X124690285Y-69677619D02*
X124785523Y-69630000D01*
X124785523Y-69630000D02*
X124833142Y-69582380D01*
%TO.C,R5*%
X146216666Y-67899619D02*
X146549999Y-67423428D01*
X146788094Y-67899619D02*
X146788094Y-66899619D01*
X146788094Y-66899619D02*
X146407142Y-66899619D01*
X146407142Y-66899619D02*
X146311904Y-66947238D01*
X146311904Y-66947238D02*
X146264285Y-66994857D01*
X146264285Y-66994857D02*
X146216666Y-67090095D01*
X146216666Y-67090095D02*
X146216666Y-67232952D01*
X146216666Y-67232952D02*
X146264285Y-67328190D01*
X146264285Y-67328190D02*
X146311904Y-67375809D01*
X146311904Y-67375809D02*
X146407142Y-67423428D01*
X146407142Y-67423428D02*
X146788094Y-67423428D01*
X145311904Y-66899619D02*
X145788094Y-66899619D01*
X145788094Y-66899619D02*
X145835713Y-67375809D01*
X145835713Y-67375809D02*
X145788094Y-67328190D01*
X145788094Y-67328190D02*
X145692856Y-67280571D01*
X145692856Y-67280571D02*
X145454761Y-67280571D01*
X145454761Y-67280571D02*
X145359523Y-67328190D01*
X145359523Y-67328190D02*
X145311904Y-67375809D01*
X145311904Y-67375809D02*
X145264285Y-67471047D01*
X145264285Y-67471047D02*
X145264285Y-67709142D01*
X145264285Y-67709142D02*
X145311904Y-67804380D01*
X145311904Y-67804380D02*
X145359523Y-67852000D01*
X145359523Y-67852000D02*
X145454761Y-67899619D01*
X145454761Y-67899619D02*
X145692856Y-67899619D01*
X145692856Y-67899619D02*
X145788094Y-67852000D01*
X145788094Y-67852000D02*
X145835713Y-67804380D01*
%TO.C,R22*%
X146946857Y-95077619D02*
X147280190Y-94601428D01*
X147518285Y-95077619D02*
X147518285Y-94077619D01*
X147518285Y-94077619D02*
X147137333Y-94077619D01*
X147137333Y-94077619D02*
X147042095Y-94125238D01*
X147042095Y-94125238D02*
X146994476Y-94172857D01*
X146994476Y-94172857D02*
X146946857Y-94268095D01*
X146946857Y-94268095D02*
X146946857Y-94410952D01*
X146946857Y-94410952D02*
X146994476Y-94506190D01*
X146994476Y-94506190D02*
X147042095Y-94553809D01*
X147042095Y-94553809D02*
X147137333Y-94601428D01*
X147137333Y-94601428D02*
X147518285Y-94601428D01*
X146565904Y-94172857D02*
X146518285Y-94125238D01*
X146518285Y-94125238D02*
X146423047Y-94077619D01*
X146423047Y-94077619D02*
X146184952Y-94077619D01*
X146184952Y-94077619D02*
X146089714Y-94125238D01*
X146089714Y-94125238D02*
X146042095Y-94172857D01*
X146042095Y-94172857D02*
X145994476Y-94268095D01*
X145994476Y-94268095D02*
X145994476Y-94363333D01*
X145994476Y-94363333D02*
X146042095Y-94506190D01*
X146042095Y-94506190D02*
X146613523Y-95077619D01*
X146613523Y-95077619D02*
X145994476Y-95077619D01*
X145613523Y-94172857D02*
X145565904Y-94125238D01*
X145565904Y-94125238D02*
X145470666Y-94077619D01*
X145470666Y-94077619D02*
X145232571Y-94077619D01*
X145232571Y-94077619D02*
X145137333Y-94125238D01*
X145137333Y-94125238D02*
X145089714Y-94172857D01*
X145089714Y-94172857D02*
X145042095Y-94268095D01*
X145042095Y-94268095D02*
X145042095Y-94363333D01*
X145042095Y-94363333D02*
X145089714Y-94506190D01*
X145089714Y-94506190D02*
X145661142Y-95077619D01*
X145661142Y-95077619D02*
X145042095Y-95077619D01*
%TO.C,R23*%
X146946857Y-96855619D02*
X147280190Y-96379428D01*
X147518285Y-96855619D02*
X147518285Y-95855619D01*
X147518285Y-95855619D02*
X147137333Y-95855619D01*
X147137333Y-95855619D02*
X147042095Y-95903238D01*
X147042095Y-95903238D02*
X146994476Y-95950857D01*
X146994476Y-95950857D02*
X146946857Y-96046095D01*
X146946857Y-96046095D02*
X146946857Y-96188952D01*
X146946857Y-96188952D02*
X146994476Y-96284190D01*
X146994476Y-96284190D02*
X147042095Y-96331809D01*
X147042095Y-96331809D02*
X147137333Y-96379428D01*
X147137333Y-96379428D02*
X147518285Y-96379428D01*
X146565904Y-95950857D02*
X146518285Y-95903238D01*
X146518285Y-95903238D02*
X146423047Y-95855619D01*
X146423047Y-95855619D02*
X146184952Y-95855619D01*
X146184952Y-95855619D02*
X146089714Y-95903238D01*
X146089714Y-95903238D02*
X146042095Y-95950857D01*
X146042095Y-95950857D02*
X145994476Y-96046095D01*
X145994476Y-96046095D02*
X145994476Y-96141333D01*
X145994476Y-96141333D02*
X146042095Y-96284190D01*
X146042095Y-96284190D02*
X146613523Y-96855619D01*
X146613523Y-96855619D02*
X145994476Y-96855619D01*
X145661142Y-95855619D02*
X145042095Y-95855619D01*
X145042095Y-95855619D02*
X145375428Y-96236571D01*
X145375428Y-96236571D02*
X145232571Y-96236571D01*
X145232571Y-96236571D02*
X145137333Y-96284190D01*
X145137333Y-96284190D02*
X145089714Y-96331809D01*
X145089714Y-96331809D02*
X145042095Y-96427047D01*
X145042095Y-96427047D02*
X145042095Y-96665142D01*
X145042095Y-96665142D02*
X145089714Y-96760380D01*
X145089714Y-96760380D02*
X145137333Y-96808000D01*
X145137333Y-96808000D02*
X145232571Y-96855619D01*
X145232571Y-96855619D02*
X145518285Y-96855619D01*
X145518285Y-96855619D02*
X145613523Y-96808000D01*
X145613523Y-96808000D02*
X145661142Y-96760380D01*
%TO.C,R1*%
X126150666Y-60787619D02*
X126483999Y-60311428D01*
X126722094Y-60787619D02*
X126722094Y-59787619D01*
X126722094Y-59787619D02*
X126341142Y-59787619D01*
X126341142Y-59787619D02*
X126245904Y-59835238D01*
X126245904Y-59835238D02*
X126198285Y-59882857D01*
X126198285Y-59882857D02*
X126150666Y-59978095D01*
X126150666Y-59978095D02*
X126150666Y-60120952D01*
X126150666Y-60120952D02*
X126198285Y-60216190D01*
X126198285Y-60216190D02*
X126245904Y-60263809D01*
X126245904Y-60263809D02*
X126341142Y-60311428D01*
X126341142Y-60311428D02*
X126722094Y-60311428D01*
X125198285Y-60787619D02*
X125769713Y-60787619D01*
X125483999Y-60787619D02*
X125483999Y-59787619D01*
X125483999Y-59787619D02*
X125579237Y-59930476D01*
X125579237Y-59930476D02*
X125674475Y-60025714D01*
X125674475Y-60025714D02*
X125769713Y-60073333D01*
%TO.C,C14*%
X134178357Y-96715380D02*
X134225976Y-96763000D01*
X134225976Y-96763000D02*
X134368833Y-96810619D01*
X134368833Y-96810619D02*
X134464071Y-96810619D01*
X134464071Y-96810619D02*
X134606928Y-96763000D01*
X134606928Y-96763000D02*
X134702166Y-96667761D01*
X134702166Y-96667761D02*
X134749785Y-96572523D01*
X134749785Y-96572523D02*
X134797404Y-96382047D01*
X134797404Y-96382047D02*
X134797404Y-96239190D01*
X134797404Y-96239190D02*
X134749785Y-96048714D01*
X134749785Y-96048714D02*
X134702166Y-95953476D01*
X134702166Y-95953476D02*
X134606928Y-95858238D01*
X134606928Y-95858238D02*
X134464071Y-95810619D01*
X134464071Y-95810619D02*
X134368833Y-95810619D01*
X134368833Y-95810619D02*
X134225976Y-95858238D01*
X134225976Y-95858238D02*
X134178357Y-95905857D01*
X133225976Y-96810619D02*
X133797404Y-96810619D01*
X133511690Y-96810619D02*
X133511690Y-95810619D01*
X133511690Y-95810619D02*
X133606928Y-95953476D01*
X133606928Y-95953476D02*
X133702166Y-96048714D01*
X133702166Y-96048714D02*
X133797404Y-96096333D01*
X132368833Y-96143952D02*
X132368833Y-96810619D01*
X132606928Y-95763000D02*
X132845023Y-96477285D01*
X132845023Y-96477285D02*
X132225976Y-96477285D01*
%TO.C,C6*%
X125147666Y-86092380D02*
X125195285Y-86140000D01*
X125195285Y-86140000D02*
X125338142Y-86187619D01*
X125338142Y-86187619D02*
X125433380Y-86187619D01*
X125433380Y-86187619D02*
X125576237Y-86140000D01*
X125576237Y-86140000D02*
X125671475Y-86044761D01*
X125671475Y-86044761D02*
X125719094Y-85949523D01*
X125719094Y-85949523D02*
X125766713Y-85759047D01*
X125766713Y-85759047D02*
X125766713Y-85616190D01*
X125766713Y-85616190D02*
X125719094Y-85425714D01*
X125719094Y-85425714D02*
X125671475Y-85330476D01*
X125671475Y-85330476D02*
X125576237Y-85235238D01*
X125576237Y-85235238D02*
X125433380Y-85187619D01*
X125433380Y-85187619D02*
X125338142Y-85187619D01*
X125338142Y-85187619D02*
X125195285Y-85235238D01*
X125195285Y-85235238D02*
X125147666Y-85282857D01*
X124290523Y-85187619D02*
X124480999Y-85187619D01*
X124480999Y-85187619D02*
X124576237Y-85235238D01*
X124576237Y-85235238D02*
X124623856Y-85282857D01*
X124623856Y-85282857D02*
X124719094Y-85425714D01*
X124719094Y-85425714D02*
X124766713Y-85616190D01*
X124766713Y-85616190D02*
X124766713Y-85997142D01*
X124766713Y-85997142D02*
X124719094Y-86092380D01*
X124719094Y-86092380D02*
X124671475Y-86140000D01*
X124671475Y-86140000D02*
X124576237Y-86187619D01*
X124576237Y-86187619D02*
X124385761Y-86187619D01*
X124385761Y-86187619D02*
X124290523Y-86140000D01*
X124290523Y-86140000D02*
X124242904Y-86092380D01*
X124242904Y-86092380D02*
X124195285Y-85997142D01*
X124195285Y-85997142D02*
X124195285Y-85759047D01*
X124195285Y-85759047D02*
X124242904Y-85663809D01*
X124242904Y-85663809D02*
X124290523Y-85616190D01*
X124290523Y-85616190D02*
X124385761Y-85568571D01*
X124385761Y-85568571D02*
X124576237Y-85568571D01*
X124576237Y-85568571D02*
X124671475Y-85616190D01*
X124671475Y-85616190D02*
X124719094Y-85663809D01*
X124719094Y-85663809D02*
X124766713Y-85759047D01*
%TO.C,D1*%
X125198094Y-113651619D02*
X125198094Y-112651619D01*
X125198094Y-112651619D02*
X124959999Y-112651619D01*
X124959999Y-112651619D02*
X124817142Y-112699238D01*
X124817142Y-112699238D02*
X124721904Y-112794476D01*
X124721904Y-112794476D02*
X124674285Y-112889714D01*
X124674285Y-112889714D02*
X124626666Y-113080190D01*
X124626666Y-113080190D02*
X124626666Y-113223047D01*
X124626666Y-113223047D02*
X124674285Y-113413523D01*
X124674285Y-113413523D02*
X124721904Y-113508761D01*
X124721904Y-113508761D02*
X124817142Y-113604000D01*
X124817142Y-113604000D02*
X124959999Y-113651619D01*
X124959999Y-113651619D02*
X125198094Y-113651619D01*
X123674285Y-113651619D02*
X124245713Y-113651619D01*
X123959999Y-113651619D02*
X123959999Y-112651619D01*
X123959999Y-112651619D02*
X124055237Y-112794476D01*
X124055237Y-112794476D02*
X124150475Y-112889714D01*
X124150475Y-112889714D02*
X124245713Y-112937333D01*
%TO.C,R24*%
X144740619Y-142232142D02*
X144264428Y-141898809D01*
X144740619Y-141660714D02*
X143740619Y-141660714D01*
X143740619Y-141660714D02*
X143740619Y-142041666D01*
X143740619Y-142041666D02*
X143788238Y-142136904D01*
X143788238Y-142136904D02*
X143835857Y-142184523D01*
X143835857Y-142184523D02*
X143931095Y-142232142D01*
X143931095Y-142232142D02*
X144073952Y-142232142D01*
X144073952Y-142232142D02*
X144169190Y-142184523D01*
X144169190Y-142184523D02*
X144216809Y-142136904D01*
X144216809Y-142136904D02*
X144264428Y-142041666D01*
X144264428Y-142041666D02*
X144264428Y-141660714D01*
X143835857Y-142613095D02*
X143788238Y-142660714D01*
X143788238Y-142660714D02*
X143740619Y-142755952D01*
X143740619Y-142755952D02*
X143740619Y-142994047D01*
X143740619Y-142994047D02*
X143788238Y-143089285D01*
X143788238Y-143089285D02*
X143835857Y-143136904D01*
X143835857Y-143136904D02*
X143931095Y-143184523D01*
X143931095Y-143184523D02*
X144026333Y-143184523D01*
X144026333Y-143184523D02*
X144169190Y-143136904D01*
X144169190Y-143136904D02*
X144740619Y-142565476D01*
X144740619Y-142565476D02*
X144740619Y-143184523D01*
X144073952Y-144041666D02*
X144740619Y-144041666D01*
X143693000Y-143803571D02*
X144407285Y-143565476D01*
X144407285Y-143565476D02*
X144407285Y-144184523D01*
%TO.C,D2*%
X126976094Y-130859619D02*
X126976094Y-129859619D01*
X126976094Y-129859619D02*
X126737999Y-129859619D01*
X126737999Y-129859619D02*
X126595142Y-129907238D01*
X126595142Y-129907238D02*
X126499904Y-130002476D01*
X126499904Y-130002476D02*
X126452285Y-130097714D01*
X126452285Y-130097714D02*
X126404666Y-130288190D01*
X126404666Y-130288190D02*
X126404666Y-130431047D01*
X126404666Y-130431047D02*
X126452285Y-130621523D01*
X126452285Y-130621523D02*
X126499904Y-130716761D01*
X126499904Y-130716761D02*
X126595142Y-130812000D01*
X126595142Y-130812000D02*
X126737999Y-130859619D01*
X126737999Y-130859619D02*
X126976094Y-130859619D01*
X126023713Y-129954857D02*
X125976094Y-129907238D01*
X125976094Y-129907238D02*
X125880856Y-129859619D01*
X125880856Y-129859619D02*
X125642761Y-129859619D01*
X125642761Y-129859619D02*
X125547523Y-129907238D01*
X125547523Y-129907238D02*
X125499904Y-129954857D01*
X125499904Y-129954857D02*
X125452285Y-130050095D01*
X125452285Y-130050095D02*
X125452285Y-130145333D01*
X125452285Y-130145333D02*
X125499904Y-130288190D01*
X125499904Y-130288190D02*
X126071332Y-130859619D01*
X126071332Y-130859619D02*
X125452285Y-130859619D01*
%TO.C,R17*%
X128992619Y-142232142D02*
X128516428Y-141898809D01*
X128992619Y-141660714D02*
X127992619Y-141660714D01*
X127992619Y-141660714D02*
X127992619Y-142041666D01*
X127992619Y-142041666D02*
X128040238Y-142136904D01*
X128040238Y-142136904D02*
X128087857Y-142184523D01*
X128087857Y-142184523D02*
X128183095Y-142232142D01*
X128183095Y-142232142D02*
X128325952Y-142232142D01*
X128325952Y-142232142D02*
X128421190Y-142184523D01*
X128421190Y-142184523D02*
X128468809Y-142136904D01*
X128468809Y-142136904D02*
X128516428Y-142041666D01*
X128516428Y-142041666D02*
X128516428Y-141660714D01*
X128992619Y-143184523D02*
X128992619Y-142613095D01*
X128992619Y-142898809D02*
X127992619Y-142898809D01*
X127992619Y-142898809D02*
X128135476Y-142803571D01*
X128135476Y-142803571D02*
X128230714Y-142708333D01*
X128230714Y-142708333D02*
X128278333Y-142613095D01*
X127992619Y-143517857D02*
X127992619Y-144184523D01*
X127992619Y-144184523D02*
X128992619Y-143755952D01*
%TO.C,R7*%
X126150666Y-66121619D02*
X126483999Y-65645428D01*
X126722094Y-66121619D02*
X126722094Y-65121619D01*
X126722094Y-65121619D02*
X126341142Y-65121619D01*
X126341142Y-65121619D02*
X126245904Y-65169238D01*
X126245904Y-65169238D02*
X126198285Y-65216857D01*
X126198285Y-65216857D02*
X126150666Y-65312095D01*
X126150666Y-65312095D02*
X126150666Y-65454952D01*
X126150666Y-65454952D02*
X126198285Y-65550190D01*
X126198285Y-65550190D02*
X126245904Y-65597809D01*
X126245904Y-65597809D02*
X126341142Y-65645428D01*
X126341142Y-65645428D02*
X126722094Y-65645428D01*
X125817332Y-65121619D02*
X125150666Y-65121619D01*
X125150666Y-65121619D02*
X125579237Y-66121619D01*
%TO.C,R3*%
X125134666Y-96855619D02*
X125467999Y-96379428D01*
X125706094Y-96855619D02*
X125706094Y-95855619D01*
X125706094Y-95855619D02*
X125325142Y-95855619D01*
X125325142Y-95855619D02*
X125229904Y-95903238D01*
X125229904Y-95903238D02*
X125182285Y-95950857D01*
X125182285Y-95950857D02*
X125134666Y-96046095D01*
X125134666Y-96046095D02*
X125134666Y-96188952D01*
X125134666Y-96188952D02*
X125182285Y-96284190D01*
X125182285Y-96284190D02*
X125229904Y-96331809D01*
X125229904Y-96331809D02*
X125325142Y-96379428D01*
X125325142Y-96379428D02*
X125706094Y-96379428D01*
X124801332Y-95855619D02*
X124182285Y-95855619D01*
X124182285Y-95855619D02*
X124515618Y-96236571D01*
X124515618Y-96236571D02*
X124372761Y-96236571D01*
X124372761Y-96236571D02*
X124277523Y-96284190D01*
X124277523Y-96284190D02*
X124229904Y-96331809D01*
X124229904Y-96331809D02*
X124182285Y-96427047D01*
X124182285Y-96427047D02*
X124182285Y-96665142D01*
X124182285Y-96665142D02*
X124229904Y-96760380D01*
X124229904Y-96760380D02*
X124277523Y-96808000D01*
X124277523Y-96808000D02*
X124372761Y-96855619D01*
X124372761Y-96855619D02*
X124658475Y-96855619D01*
X124658475Y-96855619D02*
X124753713Y-96808000D01*
X124753713Y-96808000D02*
X124801332Y-96760380D01*
%TO.C,C8*%
X151353380Y-90384333D02*
X151401000Y-90336714D01*
X151401000Y-90336714D02*
X151448619Y-90193857D01*
X151448619Y-90193857D02*
X151448619Y-90098619D01*
X151448619Y-90098619D02*
X151401000Y-89955762D01*
X151401000Y-89955762D02*
X151305761Y-89860524D01*
X151305761Y-89860524D02*
X151210523Y-89812905D01*
X151210523Y-89812905D02*
X151020047Y-89765286D01*
X151020047Y-89765286D02*
X150877190Y-89765286D01*
X150877190Y-89765286D02*
X150686714Y-89812905D01*
X150686714Y-89812905D02*
X150591476Y-89860524D01*
X150591476Y-89860524D02*
X150496238Y-89955762D01*
X150496238Y-89955762D02*
X150448619Y-90098619D01*
X150448619Y-90098619D02*
X150448619Y-90193857D01*
X150448619Y-90193857D02*
X150496238Y-90336714D01*
X150496238Y-90336714D02*
X150543857Y-90384333D01*
X150877190Y-90955762D02*
X150829571Y-90860524D01*
X150829571Y-90860524D02*
X150781952Y-90812905D01*
X150781952Y-90812905D02*
X150686714Y-90765286D01*
X150686714Y-90765286D02*
X150639095Y-90765286D01*
X150639095Y-90765286D02*
X150543857Y-90812905D01*
X150543857Y-90812905D02*
X150496238Y-90860524D01*
X150496238Y-90860524D02*
X150448619Y-90955762D01*
X150448619Y-90955762D02*
X150448619Y-91146238D01*
X150448619Y-91146238D02*
X150496238Y-91241476D01*
X150496238Y-91241476D02*
X150543857Y-91289095D01*
X150543857Y-91289095D02*
X150639095Y-91336714D01*
X150639095Y-91336714D02*
X150686714Y-91336714D01*
X150686714Y-91336714D02*
X150781952Y-91289095D01*
X150781952Y-91289095D02*
X150829571Y-91241476D01*
X150829571Y-91241476D02*
X150877190Y-91146238D01*
X150877190Y-91146238D02*
X150877190Y-90955762D01*
X150877190Y-90955762D02*
X150924809Y-90860524D01*
X150924809Y-90860524D02*
X150972428Y-90812905D01*
X150972428Y-90812905D02*
X151067666Y-90765286D01*
X151067666Y-90765286D02*
X151258142Y-90765286D01*
X151258142Y-90765286D02*
X151353380Y-90812905D01*
X151353380Y-90812905D02*
X151401000Y-90860524D01*
X151401000Y-90860524D02*
X151448619Y-90955762D01*
X151448619Y-90955762D02*
X151448619Y-91146238D01*
X151448619Y-91146238D02*
X151401000Y-91241476D01*
X151401000Y-91241476D02*
X151353380Y-91289095D01*
X151353380Y-91289095D02*
X151258142Y-91336714D01*
X151258142Y-91336714D02*
X151067666Y-91336714D01*
X151067666Y-91336714D02*
X150972428Y-91289095D01*
X150972428Y-91289095D02*
X150924809Y-91241476D01*
X150924809Y-91241476D02*
X150877190Y-91146238D01*
%TO.C,C9*%
X145962666Y-98538380D02*
X146010285Y-98586000D01*
X146010285Y-98586000D02*
X146153142Y-98633619D01*
X146153142Y-98633619D02*
X146248380Y-98633619D01*
X146248380Y-98633619D02*
X146391237Y-98586000D01*
X146391237Y-98586000D02*
X146486475Y-98490761D01*
X146486475Y-98490761D02*
X146534094Y-98395523D01*
X146534094Y-98395523D02*
X146581713Y-98205047D01*
X146581713Y-98205047D02*
X146581713Y-98062190D01*
X146581713Y-98062190D02*
X146534094Y-97871714D01*
X146534094Y-97871714D02*
X146486475Y-97776476D01*
X146486475Y-97776476D02*
X146391237Y-97681238D01*
X146391237Y-97681238D02*
X146248380Y-97633619D01*
X146248380Y-97633619D02*
X146153142Y-97633619D01*
X146153142Y-97633619D02*
X146010285Y-97681238D01*
X146010285Y-97681238D02*
X145962666Y-97728857D01*
X145486475Y-98633619D02*
X145295999Y-98633619D01*
X145295999Y-98633619D02*
X145200761Y-98586000D01*
X145200761Y-98586000D02*
X145153142Y-98538380D01*
X145153142Y-98538380D02*
X145057904Y-98395523D01*
X145057904Y-98395523D02*
X145010285Y-98205047D01*
X145010285Y-98205047D02*
X145010285Y-97824095D01*
X145010285Y-97824095D02*
X145057904Y-97728857D01*
X145057904Y-97728857D02*
X145105523Y-97681238D01*
X145105523Y-97681238D02*
X145200761Y-97633619D01*
X145200761Y-97633619D02*
X145391237Y-97633619D01*
X145391237Y-97633619D02*
X145486475Y-97681238D01*
X145486475Y-97681238D02*
X145534094Y-97728857D01*
X145534094Y-97728857D02*
X145581713Y-97824095D01*
X145581713Y-97824095D02*
X145581713Y-98062190D01*
X145581713Y-98062190D02*
X145534094Y-98157428D01*
X145534094Y-98157428D02*
X145486475Y-98205047D01*
X145486475Y-98205047D02*
X145391237Y-98252666D01*
X145391237Y-98252666D02*
X145200761Y-98252666D01*
X145200761Y-98252666D02*
X145105523Y-98205047D01*
X145105523Y-98205047D02*
X145057904Y-98157428D01*
X145057904Y-98157428D02*
X145010285Y-98062190D01*
D12*
%TO.C,J7*%
X126850000Y-125459000D02*
X122050000Y-125459000D01*
X122050000Y-125459000D02*
X123400000Y-124259000D01*
X122050000Y-125459000D02*
X123380000Y-126619000D01*
D11*
X121390000Y-111249000D02*
X112290000Y-111249000D01*
X121390000Y-129249000D02*
X121390000Y-111249000D01*
D13*
X119440000Y-113859000D02*
X119440000Y-126679000D01*
X119440000Y-113859000D02*
X114249200Y-113859000D01*
X119440000Y-126679000D02*
X114240000Y-126679000D01*
X114240000Y-113868200D02*
X114240000Y-126679000D01*
D11*
X113260000Y-119249000D02*
X113260000Y-121249000D01*
X113260000Y-121249000D02*
X112290000Y-121249000D01*
X112290000Y-111249000D02*
X112290000Y-119249000D01*
X112290000Y-119249000D02*
X113260000Y-119249000D01*
X112290000Y-121249000D02*
X112290000Y-129249000D01*
X112290000Y-129249000D02*
X121390000Y-129249000D01*
D13*
%TO.C,C10*%
X128640500Y-114670000D02*
X129265500Y-114670000D01*
X128953000Y-114982500D02*
X128953000Y-114357500D01*
X129505500Y-111289437D02*
X129505500Y-111925000D01*
X129505500Y-111289437D02*
X130569937Y-110225000D01*
X129505500Y-114680563D02*
X129505500Y-114045000D01*
X129505500Y-114680563D02*
X130569937Y-115745000D01*
X130569937Y-110225000D02*
X135025500Y-110225000D01*
X130569937Y-115745000D02*
X135025500Y-115745000D01*
X135025500Y-110225000D02*
X135025500Y-111925000D01*
X135025500Y-115745000D02*
X135025500Y-114045000D01*
%TO.C,U1*%
X135890000Y-63049000D02*
X133690000Y-63049000D01*
X135890000Y-63049000D02*
X138090000Y-63049000D01*
X135890000Y-68269000D02*
X132290000Y-68269000D01*
X135890000Y-68269000D02*
X138090000Y-68269000D01*
%TO.C,R18*%
X143493258Y-89803500D02*
X143018742Y-89803500D01*
X143493258Y-88758500D02*
X143018742Y-88758500D01*
%TO.C,R4*%
X128507258Y-62625500D02*
X128032742Y-62625500D01*
X128507258Y-61580500D02*
X128032742Y-61580500D01*
%TO.C,C2*%
X143369420Y-68705000D02*
X143650580Y-68705000D01*
X143369420Y-69725000D02*
X143650580Y-69725000D01*
%TO.C,R9*%
X127270742Y-90536500D02*
X127745258Y-90536500D01*
X127270742Y-91581500D02*
X127745258Y-91581500D01*
%TO.C,R11*%
X128032742Y-66914500D02*
X128507258Y-66914500D01*
X128032742Y-67959500D02*
X128507258Y-67959500D01*
%TO.C,U2*%
X135890000Y-94177000D02*
X138090000Y-94177000D01*
X135890000Y-94177000D02*
X133690000Y-94177000D01*
X135890000Y-88957000D02*
X139490000Y-88957000D01*
X135890000Y-88957000D02*
X133690000Y-88957000D01*
%TO.C,C13*%
X136030580Y-71503000D02*
X135749420Y-71503000D01*
X136030580Y-70483000D02*
X135749420Y-70483000D01*
%TO.C,R6*%
X127745258Y-95137500D02*
X127270742Y-95137500D01*
X127745258Y-94092500D02*
X127270742Y-94092500D01*
%TO.C,R15*%
X127745258Y-88025500D02*
X127270742Y-88025500D01*
X127745258Y-86980500D02*
X127270742Y-86980500D01*
%TO.C,R16*%
X126577000Y-142151263D02*
X126577000Y-143598737D01*
X123867000Y-142151263D02*
X123867000Y-143598737D01*
%TO.C,R8*%
X143747258Y-66181500D02*
X143272742Y-66181500D01*
X143747258Y-65136500D02*
X143272742Y-65136500D01*
%TO.C,C15*%
X135749420Y-85215000D02*
X136030580Y-85215000D01*
X135749420Y-86235000D02*
X136030580Y-86235000D01*
%TO.C,R19*%
X143493258Y-91581500D02*
X143018742Y-91581500D01*
X143493258Y-90536500D02*
X143018742Y-90536500D01*
%TO.C,R12*%
X127270742Y-88758500D02*
X127745258Y-88758500D01*
X127270742Y-89803500D02*
X127745258Y-89803500D01*
%TO.C,C1*%
X128410580Y-64391000D02*
X128129420Y-64391000D01*
X128410580Y-63371000D02*
X128129420Y-63371000D01*
%TO.C,C12*%
X136030580Y-60835000D02*
X135749420Y-60835000D01*
X136030580Y-59815000D02*
X135749420Y-59815000D01*
%TO.C,R14*%
X143272742Y-61580500D02*
X143747258Y-61580500D01*
X143272742Y-62625500D02*
X143747258Y-62625500D01*
%TO.C,C3*%
X127648580Y-93347000D02*
X127367420Y-93347000D01*
X127648580Y-92327000D02*
X127367420Y-92327000D01*
%TO.C,R10*%
X143747258Y-64403500D02*
X143272742Y-64403500D01*
X143747258Y-63358500D02*
X143272742Y-63358500D01*
%TO.C,R2*%
X143747258Y-71515500D02*
X143272742Y-71515500D01*
X143747258Y-70470500D02*
X143272742Y-70470500D01*
%TO.C,C4*%
X128397580Y-71503000D02*
X128116420Y-71503000D01*
X128397580Y-70483000D02*
X128116420Y-70483000D01*
%TO.C,C11*%
X136906500Y-125778000D02*
X136281500Y-125778000D01*
X136594000Y-125465500D02*
X136594000Y-126090500D01*
X136041500Y-129158563D02*
X136041500Y-128523000D01*
X136041500Y-129158563D02*
X134977063Y-130223000D01*
X136041500Y-125767437D02*
X136041500Y-126403000D01*
X136041500Y-125767437D02*
X134977063Y-124703000D01*
X134977063Y-130223000D02*
X130521500Y-130223000D01*
X134977063Y-124703000D02*
X130521500Y-124703000D01*
X130521500Y-130223000D02*
X130521500Y-128523000D01*
X130521500Y-124703000D02*
X130521500Y-126403000D01*
%TO.C,C7*%
X143115420Y-85215000D02*
X143396580Y-85215000D01*
X143115420Y-86235000D02*
X143396580Y-86235000D01*
%TO.C,C5*%
X143369420Y-59815000D02*
X143650580Y-59815000D01*
X143369420Y-60835000D02*
X143650580Y-60835000D01*
%TO.C,R20*%
X143493258Y-93359500D02*
X143018742Y-93359500D01*
X143493258Y-92314500D02*
X143018742Y-92314500D01*
%TO.C,R21*%
X143018742Y-86980500D02*
X143493258Y-86980500D01*
X143018742Y-88025500D02*
X143493258Y-88025500D01*
%TO.C,R13*%
X128507258Y-69737500D02*
X128032742Y-69737500D01*
X128507258Y-68692500D02*
X128032742Y-68692500D01*
%TO.C,R5*%
X143272742Y-66914500D02*
X143747258Y-66914500D01*
X143272742Y-67959500D02*
X143747258Y-67959500D01*
%TO.C,R22*%
X143493258Y-95137500D02*
X143018742Y-95137500D01*
X143493258Y-94092500D02*
X143018742Y-94092500D01*
%TO.C,R23*%
X143493258Y-96915500D02*
X143018742Y-96915500D01*
X143493258Y-95870500D02*
X143018742Y-95870500D01*
%TO.C,R1*%
X128032742Y-59802500D02*
X128507258Y-59802500D01*
X128032742Y-60847500D02*
X128507258Y-60847500D01*
%TO.C,C14*%
X136257420Y-95883000D02*
X136538580Y-95883000D01*
X136257420Y-96903000D02*
X136538580Y-96903000D01*
%TO.C,C6*%
X127648580Y-86235000D02*
X127367420Y-86235000D01*
X127648580Y-85215000D02*
X127367420Y-85215000D01*
%TO.C,D1*%
X126820000Y-116189000D02*
X122810000Y-116189000D01*
X126820000Y-114189000D02*
X126820000Y-116189000D01*
X126820000Y-114189000D02*
X122810000Y-114189000D01*
%TO.C,R24*%
X147913000Y-142151263D02*
X147913000Y-143598737D01*
X145203000Y-142151263D02*
X145203000Y-143598737D01*
%TO.C,D2*%
X123878000Y-127397000D02*
X127888000Y-127397000D01*
X123878000Y-129397000D02*
X123878000Y-127397000D01*
X123878000Y-129397000D02*
X127888000Y-129397000D01*
%TO.C,R17*%
X132165000Y-142151263D02*
X132165000Y-143598737D01*
X129455000Y-142151263D02*
X129455000Y-143598737D01*
%TO.C,R7*%
X128032742Y-65136500D02*
X128507258Y-65136500D01*
X128032742Y-66181500D02*
X128507258Y-66181500D01*
%TO.C,R3*%
X127270742Y-95870500D02*
X127745258Y-95870500D01*
X127270742Y-96915500D02*
X127745258Y-96915500D01*
%TO.C,C8*%
X153001000Y-86926000D02*
X153001000Y-87551000D01*
X152688500Y-87238500D02*
X153313500Y-87238500D01*
X156381563Y-87791000D02*
X155746000Y-87791000D01*
X156381563Y-87791000D02*
X157446000Y-88855437D01*
X152990437Y-87791000D02*
X153626000Y-87791000D01*
X152990437Y-87791000D02*
X151926000Y-88855437D01*
X157446000Y-88855437D02*
X157446000Y-93311000D01*
X151926000Y-88855437D02*
X151926000Y-93311000D01*
X157446000Y-93311000D02*
X155746000Y-93311000D01*
X151926000Y-93311000D02*
X153626000Y-93311000D01*
%TO.C,C9*%
X143396580Y-98681000D02*
X143115420Y-98681000D01*
X143396580Y-97661000D02*
X143115420Y-97661000D01*
%TD*%
M02*
