%TF.GenerationSoftware,KiCad,Pcbnew,7.0.1*%
%TF.CreationDate,2024-08-14T21:14:33-04:00*%
%TF.ProjectId,attenuverter_mixer,61747465-6e75-4766-9572-7465725f6d69,rev?*%
%TF.SameCoordinates,Original*%
%TF.FileFunction,Soldermask,Bot*%
%TF.FilePolarity,Negative*%
%FSLAX46Y46*%
G04 Gerber Fmt 4.6, Leading zero omitted, Abs format (unit mm)*
G04 Created by KiCad (PCBNEW 7.0.1) date 2024-08-14 21:14:33*
%MOMM*%
%LPD*%
G01*
G04 APERTURE LIST*
G04 Aperture macros list*
%AMRoundRect*
0 Rectangle with rounded corners*
0 $1 Rounding radius*
0 $2 $3 $4 $5 $6 $7 $8 $9 X,Y pos of 4 corners*
0 Add a 4 corners polygon primitive as box body*
4,1,4,$2,$3,$4,$5,$6,$7,$8,$9,$2,$3,0*
0 Add four circle primitives for the rounded corners*
1,1,$1+$1,$2,$3*
1,1,$1+$1,$4,$5*
1,1,$1+$1,$6,$7*
1,1,$1+$1,$8,$9*
0 Add four rect primitives between the rounded corners*
20,1,$1+$1,$2,$3,$4,$5,0*
20,1,$1+$1,$4,$5,$6,$7,0*
20,1,$1+$1,$6,$7,$8,$9,0*
20,1,$1+$1,$8,$9,$2,$3,0*%
G04 Aperture macros list end*
%ADD10R,1.700000X1.700000*%
%ADD11O,1.700000X1.700000*%
%ADD12C,2.000000*%
%ADD13O,2.720000X3.240000*%
%ADD14R,1.800000X1.800000*%
%ADD15C,1.800000*%
%ADD16C,3.000000*%
%ADD17RoundRect,0.250000X-1.250000X-0.550000X1.250000X-0.550000X1.250000X0.550000X-1.250000X0.550000X0*%
%ADD18RoundRect,0.100000X-0.637500X-0.100000X0.637500X-0.100000X0.637500X0.100000X-0.637500X0.100000X0*%
%ADD19RoundRect,0.200000X0.200000X0.275000X-0.200000X0.275000X-0.200000X-0.275000X0.200000X-0.275000X0*%
%ADD20RoundRect,0.225000X-0.225000X-0.250000X0.225000X-0.250000X0.225000X0.250000X-0.225000X0.250000X0*%
%ADD21RoundRect,0.200000X-0.200000X-0.275000X0.200000X-0.275000X0.200000X0.275000X-0.200000X0.275000X0*%
%ADD22RoundRect,0.100000X0.637500X0.100000X-0.637500X0.100000X-0.637500X-0.100000X0.637500X-0.100000X0*%
%ADD23RoundRect,0.225000X0.225000X0.250000X-0.225000X0.250000X-0.225000X-0.250000X0.225000X-0.250000X0*%
%ADD24RoundRect,0.250000X-1.075000X0.312500X-1.075000X-0.312500X1.075000X-0.312500X1.075000X0.312500X0*%
%ADD25RoundRect,0.250000X1.250000X0.550000X-1.250000X0.550000X-1.250000X-0.550000X1.250000X-0.550000X0*%
%ADD26RoundRect,0.225000X0.225000X0.375000X-0.225000X0.375000X-0.225000X-0.375000X0.225000X-0.375000X0*%
%ADD27RoundRect,0.225000X-0.225000X-0.375000X0.225000X-0.375000X0.225000X0.375000X-0.225000X0.375000X0*%
%ADD28RoundRect,0.250000X-0.550000X1.250000X-0.550000X-1.250000X0.550000X-1.250000X0.550000X1.250000X0*%
G04 APERTURE END LIST*
D10*
%TO.C,J7*%
X118110000Y-125349000D03*
D11*
X115570000Y-125349000D03*
X118110000Y-122809000D03*
X115570000Y-122809000D03*
X118110000Y-120269000D03*
X115570000Y-120269000D03*
X118110000Y-117729000D03*
X115570000Y-117729000D03*
X118110000Y-115189000D03*
X115570000Y-115189000D03*
%TD*%
D12*
%TO.C,J5*%
X142268500Y-147955000D03*
X130868500Y-147955000D03*
X139168500Y-147955000D03*
%TD*%
D13*
%TO.C,RV3*%
X118390000Y-101593000D03*
X127990000Y-101593000D03*
D14*
X120690000Y-109093000D03*
D15*
X123190000Y-109093000D03*
X125690000Y-109093000D03*
%TD*%
D12*
%TO.C,J2*%
X142268500Y-135255000D03*
X130868500Y-135255000D03*
X139168500Y-135255000D03*
%TD*%
D13*
%TO.C,RV6*%
X143790000Y-101593000D03*
X153390000Y-101593000D03*
D14*
X146090000Y-109093000D03*
D15*
X148590000Y-109093000D03*
X151090000Y-109093000D03*
%TD*%
D13*
%TO.C,RV4*%
X143790000Y-50793000D03*
X153390000Y-50793000D03*
D14*
X146090000Y-58293000D03*
D15*
X148590000Y-58293000D03*
X151090000Y-58293000D03*
%TD*%
D12*
%TO.C,J6*%
X158016500Y-147910000D03*
X146616500Y-147910000D03*
X154916500Y-147910000D03*
%TD*%
D13*
%TO.C,RV2*%
X118390000Y-76193000D03*
X127990000Y-76193000D03*
D14*
X120690000Y-83693000D03*
D15*
X123190000Y-83693000D03*
X125690000Y-83693000D03*
%TD*%
D13*
%TO.C,RV1*%
X118390000Y-50793000D03*
X127990000Y-50793000D03*
D14*
X120690000Y-58293000D03*
D15*
X123190000Y-58293000D03*
X125690000Y-58293000D03*
%TD*%
D13*
%TO.C,RV5*%
X143790000Y-76193000D03*
X153390000Y-76193000D03*
D14*
X146090000Y-83693000D03*
D15*
X148590000Y-83693000D03*
X151090000Y-83693000D03*
%TD*%
D12*
%TO.C,J4*%
X113753500Y-147955000D03*
X125153500Y-147955000D03*
X116853500Y-147955000D03*
%TD*%
%TO.C,J1*%
X113723500Y-135255000D03*
X125123500Y-135255000D03*
X116823500Y-135255000D03*
%TD*%
%TO.C,J3*%
X158046500Y-135210000D03*
X146646500Y-135210000D03*
X154946500Y-135210000D03*
%TD*%
D16*
%TO.C,SW1*%
X140590000Y-121113000D03*
X135890000Y-121113000D03*
X131190000Y-121113000D03*
%TD*%
D17*
%TO.C,C10*%
X130065500Y-112985000D03*
X134465500Y-112985000D03*
%TD*%
D18*
%TO.C,U1*%
X133027500Y-67609000D03*
X133027500Y-66959000D03*
X133027500Y-66309000D03*
X133027500Y-65659000D03*
X133027500Y-65009000D03*
X133027500Y-64359000D03*
X133027500Y-63709000D03*
X138752500Y-63709000D03*
X138752500Y-64359000D03*
X138752500Y-65009000D03*
X138752500Y-65659000D03*
X138752500Y-66309000D03*
X138752500Y-66959000D03*
X138752500Y-67609000D03*
%TD*%
D19*
%TO.C,R18*%
X144081000Y-89281000D03*
X142431000Y-89281000D03*
%TD*%
%TO.C,R4*%
X129095000Y-62103000D03*
X127445000Y-62103000D03*
%TD*%
D20*
%TO.C,C2*%
X142735000Y-69215000D03*
X144285000Y-69215000D03*
%TD*%
D21*
%TO.C,R9*%
X126683000Y-91059000D03*
X128333000Y-91059000D03*
%TD*%
%TO.C,R11*%
X127445000Y-67437000D03*
X129095000Y-67437000D03*
%TD*%
D22*
%TO.C,U2*%
X138752500Y-89617000D03*
X138752500Y-90267000D03*
X138752500Y-90917000D03*
X138752500Y-91567000D03*
X138752500Y-92217000D03*
X138752500Y-92867000D03*
X138752500Y-93517000D03*
X133027500Y-93517000D03*
X133027500Y-92867000D03*
X133027500Y-92217000D03*
X133027500Y-91567000D03*
X133027500Y-90917000D03*
X133027500Y-90267000D03*
X133027500Y-89617000D03*
%TD*%
D23*
%TO.C,C13*%
X136665000Y-70993000D03*
X135115000Y-70993000D03*
%TD*%
D19*
%TO.C,R6*%
X128333000Y-94615000D03*
X126683000Y-94615000D03*
%TD*%
%TO.C,R15*%
X128333000Y-87503000D03*
X126683000Y-87503000D03*
%TD*%
D24*
%TO.C,R16*%
X125222000Y-141412500D03*
X125222000Y-144337500D03*
%TD*%
D19*
%TO.C,R8*%
X144335000Y-65659000D03*
X142685000Y-65659000D03*
%TD*%
D20*
%TO.C,C15*%
X135115000Y-85725000D03*
X136665000Y-85725000D03*
%TD*%
D19*
%TO.C,R19*%
X144081000Y-91059000D03*
X142431000Y-91059000D03*
%TD*%
D21*
%TO.C,R12*%
X126683000Y-89281000D03*
X128333000Y-89281000D03*
%TD*%
D23*
%TO.C,C1*%
X129045000Y-63881000D03*
X127495000Y-63881000D03*
%TD*%
%TO.C,C12*%
X136665000Y-60325000D03*
X135115000Y-60325000D03*
%TD*%
D21*
%TO.C,R14*%
X142685000Y-62103000D03*
X144335000Y-62103000D03*
%TD*%
D23*
%TO.C,C3*%
X128283000Y-92837000D03*
X126733000Y-92837000D03*
%TD*%
D19*
%TO.C,R10*%
X144335000Y-63881000D03*
X142685000Y-63881000D03*
%TD*%
%TO.C,R2*%
X144335000Y-70993000D03*
X142685000Y-70993000D03*
%TD*%
D23*
%TO.C,C4*%
X129032000Y-70993000D03*
X127482000Y-70993000D03*
%TD*%
D25*
%TO.C,C11*%
X135481500Y-127463000D03*
X131081500Y-127463000D03*
%TD*%
D20*
%TO.C,C7*%
X142481000Y-85725000D03*
X144031000Y-85725000D03*
%TD*%
%TO.C,C5*%
X142735000Y-60325000D03*
X144285000Y-60325000D03*
%TD*%
D19*
%TO.C,R20*%
X144081000Y-92837000D03*
X142431000Y-92837000D03*
%TD*%
D21*
%TO.C,R21*%
X142431000Y-87503000D03*
X144081000Y-87503000D03*
%TD*%
D19*
%TO.C,R13*%
X129095000Y-69215000D03*
X127445000Y-69215000D03*
%TD*%
D21*
%TO.C,R5*%
X142685000Y-67437000D03*
X144335000Y-67437000D03*
%TD*%
D19*
%TO.C,R22*%
X144081000Y-94615000D03*
X142431000Y-94615000D03*
%TD*%
%TO.C,R23*%
X144081000Y-96393000D03*
X142431000Y-96393000D03*
%TD*%
D21*
%TO.C,R1*%
X127445000Y-60325000D03*
X129095000Y-60325000D03*
%TD*%
D20*
%TO.C,C14*%
X135623000Y-96393000D03*
X137173000Y-96393000D03*
%TD*%
D23*
%TO.C,C6*%
X128283000Y-85725000D03*
X126733000Y-85725000D03*
%TD*%
D26*
%TO.C,D1*%
X126110000Y-115189000D03*
X122810000Y-115189000D03*
%TD*%
D24*
%TO.C,R24*%
X146558000Y-141412500D03*
X146558000Y-144337500D03*
%TD*%
D27*
%TO.C,D2*%
X124588000Y-128397000D03*
X127888000Y-128397000D03*
%TD*%
D24*
%TO.C,R17*%
X130810000Y-141412500D03*
X130810000Y-144337500D03*
%TD*%
D21*
%TO.C,R7*%
X127445000Y-65659000D03*
X129095000Y-65659000D03*
%TD*%
%TO.C,R3*%
X126683000Y-96393000D03*
X128333000Y-96393000D03*
%TD*%
D28*
%TO.C,C8*%
X154686000Y-88351000D03*
X154686000Y-92751000D03*
%TD*%
D23*
%TO.C,C9*%
X144031000Y-98171000D03*
X142481000Y-98171000D03*
%TD*%
M02*
