%TF.GenerationSoftware,KiCad,Pcbnew,7.0.1*%
%TF.CreationDate,2024-08-14T21:14:32-04:00*%
%TF.ProjectId,attenuverter_mixer,61747465-6e75-4766-9572-7465725f6d69,rev?*%
%TF.SameCoordinates,Original*%
%TF.FileFunction,Copper,L3,Inr*%
%TF.FilePolarity,Positive*%
%FSLAX46Y46*%
G04 Gerber Fmt 4.6, Leading zero omitted, Abs format (unit mm)*
G04 Created by KiCad (PCBNEW 7.0.1) date 2024-08-14 21:14:32*
%MOMM*%
%LPD*%
G01*
G04 APERTURE LIST*
%TA.AperFunction,ComponentPad*%
%ADD10R,1.700000X1.700000*%
%TD*%
%TA.AperFunction,ComponentPad*%
%ADD11O,1.700000X1.700000*%
%TD*%
%TA.AperFunction,ComponentPad*%
%ADD12C,2.000000*%
%TD*%
%TA.AperFunction,ComponentPad*%
%ADD13O,2.720000X3.240000*%
%TD*%
%TA.AperFunction,ComponentPad*%
%ADD14R,1.800000X1.800000*%
%TD*%
%TA.AperFunction,ComponentPad*%
%ADD15C,1.800000*%
%TD*%
%TA.AperFunction,ComponentPad*%
%ADD16C,3.000000*%
%TD*%
%TA.AperFunction,ViaPad*%
%ADD17C,0.800000*%
%TD*%
G04 APERTURE END LIST*
D10*
%TO.N,/Power/V-_IN*%
%TO.C,J7*%
X118110000Y-125349000D03*
D11*
X115570000Y-125349000D03*
%TO.N,GND*%
X118110000Y-122809000D03*
X115570000Y-122809000D03*
X118110000Y-120269000D03*
X115570000Y-120269000D03*
X118110000Y-117729000D03*
X115570000Y-117729000D03*
%TO.N,/Power/V+_IN*%
X118110000Y-115189000D03*
X115570000Y-115189000D03*
%TD*%
D12*
%TO.N,GND*%
%TO.C,J5*%
X142268500Y-147955000D03*
%TO.N,Net-(J5-PadT)*%
X130868500Y-147955000D03*
%TO.N,att_2_out*%
X139168500Y-147955000D03*
%TD*%
D13*
%TO.N,*%
%TO.C,RV3*%
X118390000Y-101593000D03*
X127990000Y-101593000D03*
D14*
%TO.N,GND*%
X120690000Y-109093000D03*
D15*
%TO.N,Net-(U2C-+)*%
X123190000Y-109093000D03*
%TO.N,Net-(J3-PadT)*%
X125690000Y-109093000D03*
%TD*%
D12*
%TO.N,GND*%
%TO.C,J2*%
X142268500Y-135255000D03*
%TO.N,Net-(J2-PadT)*%
X130868500Y-135255000D03*
%TO.N,unconnected-(J2-PadTN)*%
X139168500Y-135255000D03*
%TD*%
D13*
%TO.N,*%
%TO.C,RV6*%
X143790000Y-101593000D03*
X153390000Y-101593000D03*
D14*
%TO.N,+12V*%
X146090000Y-109093000D03*
D15*
%TO.N,offset_3*%
X148590000Y-109093000D03*
%TO.N,-12V*%
X151090000Y-109093000D03*
%TD*%
D13*
%TO.N,*%
%TO.C,RV4*%
X143790000Y-50793000D03*
X153390000Y-50793000D03*
D14*
%TO.N,+12V*%
X146090000Y-58293000D03*
D15*
%TO.N,offset_1*%
X148590000Y-58293000D03*
%TO.N,-12V*%
X151090000Y-58293000D03*
%TD*%
D12*
%TO.N,GND*%
%TO.C,J6*%
X158016500Y-147910000D03*
%TO.N,Net-(J6-PadT)*%
X146616500Y-147910000D03*
%TO.N,unconnected-(J6-PadTN)*%
X154916500Y-147910000D03*
%TD*%
D13*
%TO.N,*%
%TO.C,RV2*%
X118390000Y-76193000D03*
X127990000Y-76193000D03*
D14*
%TO.N,GND*%
X120690000Y-83693000D03*
D15*
%TO.N,Net-(U1D-+)*%
X123190000Y-83693000D03*
%TO.N,Net-(J2-PadT)*%
X125690000Y-83693000D03*
%TD*%
D13*
%TO.N,*%
%TO.C,RV1*%
X118390000Y-50793000D03*
X127990000Y-50793000D03*
D14*
%TO.N,GND*%
X120690000Y-58293000D03*
D15*
%TO.N,Net-(U1B-+)*%
X123190000Y-58293000D03*
%TO.N,Net-(J1-PadT)*%
X125690000Y-58293000D03*
%TD*%
D13*
%TO.N,*%
%TO.C,RV5*%
X143790000Y-76193000D03*
X153390000Y-76193000D03*
D14*
%TO.N,+12V*%
X146090000Y-83693000D03*
D15*
%TO.N,offset_2*%
X148590000Y-83693000D03*
%TO.N,-12V*%
X151090000Y-83693000D03*
%TD*%
D12*
%TO.N,GND*%
%TO.C,J4*%
X113753500Y-147955000D03*
%TO.N,Net-(J4-PadT)*%
X125153500Y-147955000D03*
%TO.N,att_1_out*%
X116853500Y-147955000D03*
%TD*%
%TO.N,GND*%
%TO.C,J1*%
X113723500Y-135255000D03*
%TO.N,Net-(J1-PadT)*%
X125123500Y-135255000D03*
%TO.N,unconnected-(J1-PadTN)*%
X116823500Y-135255000D03*
%TD*%
%TO.N,GND*%
%TO.C,J3*%
X158046500Y-135210000D03*
%TO.N,Net-(J3-PadT)*%
X146646500Y-135210000D03*
%TO.N,unconnected-(J3-PadTN)*%
X154946500Y-135210000D03*
%TD*%
D16*
%TO.N,Net-(SW1-A)*%
%TO.C,SW1*%
X140590000Y-121113000D03*
%TO.N,Net-(SW1-B)*%
X135890000Y-121113000D03*
%TO.N,Net-(SW1-C)*%
X131190000Y-121113000D03*
%TD*%
D17*
%TO.N,+12V*%
X136837500Y-58883000D03*
X135567500Y-97872000D03*
%TO.N,GND*%
X137345500Y-112985000D03*
X137218500Y-97872000D03*
X134357054Y-90692554D03*
X134043500Y-86823000D03*
X134585339Y-65999713D03*
X137091500Y-64979000D03*
X137046922Y-90808668D03*
X138036500Y-127529790D03*
X137359779Y-92785613D03*
X135186500Y-59010000D03*
X136802000Y-72368989D03*
%TO.N,-12V*%
X150934500Y-125558000D03*
X130868500Y-82505000D03*
X130868500Y-91268000D03*
X140901500Y-65614000D03*
X130868500Y-84664000D03*
%TO.N,Net-(C5-Pad2)*%
X137726500Y-141306000D03*
X140960342Y-60846842D03*
%TO.N,Net-(J2-PadT)*%
X144330500Y-72472000D03*
X141282500Y-83394000D03*
%TO.N,Net-(J3-PadT)*%
X126677500Y-138385000D03*
X125280500Y-97618000D03*
%TO.N,Net-(SW1-A)*%
X140261841Y-86691341D03*
%TO.N,offset_1*%
X124645500Y-55454000D03*
X123623786Y-67386286D03*
%TO.N,offset_2*%
X149029500Y-63963000D03*
%TO.N,Net-(U1D-+)*%
X137366951Y-67127270D03*
X136075500Y-81362000D03*
%TO.N,att_1_out*%
X148140500Y-149815000D03*
X150045500Y-89236000D03*
%TO.N,att_2_out*%
X148521500Y-91141000D03*
%TO.N,att_3_out*%
X143822500Y-83902000D03*
X149283500Y-93046000D03*
%TO.N,Net-(C4-Pad2)*%
X131043659Y-70234159D03*
X127693500Y-141306000D03*
%TO.N,Net-(SW1-C)*%
X154998500Y-117303000D03*
X154744500Y-95713000D03*
%TO.N,offset_3*%
X123248500Y-106254000D03*
X122486500Y-89236000D03*
%TO.N,Net-(SW1-B)*%
X148775500Y-94570000D03*
X144838500Y-119286000D03*
%TO.N,Net-(C9-Pad2)*%
X147632500Y-99523000D03*
X148140500Y-138893000D03*
%TO.N,Net-(U2C-+)*%
X129852500Y-107270000D03*
X129852500Y-92030000D03*
%TD*%
%TA.AperFunction,Conductor*%
%TO.N,+12V*%
G36*
X160143500Y-45437613D02*
G01*
X160188887Y-45483000D01*
X160205500Y-45545000D01*
X160205500Y-153120000D01*
X160188887Y-153182000D01*
X160143500Y-153227387D01*
X160081500Y-153244000D01*
X111688500Y-153244000D01*
X111626500Y-153227387D01*
X111581113Y-153182000D01*
X111564500Y-153120000D01*
X111564500Y-147955000D01*
X112247856Y-147955000D01*
X112268391Y-148202816D01*
X112268391Y-148202819D01*
X112268392Y-148202821D01*
X112329437Y-148443881D01*
X112329438Y-148443883D01*
X112429325Y-148671604D01*
X112429327Y-148671607D01*
X112565336Y-148879785D01*
X112733756Y-149062738D01*
X112733759Y-149062740D01*
X112929985Y-149215470D01*
X112929987Y-149215471D01*
X112929991Y-149215474D01*
X113148690Y-149333828D01*
X113383886Y-149414571D01*
X113629165Y-149455500D01*
X113877835Y-149455500D01*
X114123114Y-149414571D01*
X114358310Y-149333828D01*
X114577009Y-149215474D01*
X114773244Y-149062738D01*
X114941664Y-148879785D01*
X115077673Y-148671607D01*
X115177563Y-148443881D01*
X115183294Y-148421246D01*
X115215097Y-148364735D01*
X115271077Y-148332002D01*
X115335923Y-148332002D01*
X115391903Y-148364735D01*
X115423705Y-148421246D01*
X115429437Y-148443881D01*
X115429438Y-148443883D01*
X115529325Y-148671604D01*
X115529327Y-148671607D01*
X115665336Y-148879785D01*
X115833756Y-149062738D01*
X115833759Y-149062740D01*
X116029985Y-149215470D01*
X116029987Y-149215471D01*
X116029991Y-149215474D01*
X116248690Y-149333828D01*
X116483886Y-149414571D01*
X116729165Y-149455500D01*
X116977835Y-149455500D01*
X117223114Y-149414571D01*
X117458310Y-149333828D01*
X117677009Y-149215474D01*
X117873244Y-149062738D01*
X118041664Y-148879785D01*
X118177673Y-148671607D01*
X118277563Y-148443881D01*
X118293014Y-148382863D01*
X118323930Y-148327263D01*
X118378352Y-148294310D01*
X118441952Y-148292682D01*
X118497989Y-148322808D01*
X118531710Y-148376757D01*
X118599437Y-148596323D01*
X118713272Y-148832704D01*
X118830391Y-149004485D01*
X118861071Y-149049485D01*
X119015087Y-149215474D01*
X119039519Y-149241805D01*
X119244643Y-149405386D01*
X119471857Y-149536568D01*
X119601426Y-149587420D01*
X119701621Y-149626744D01*
X119716084Y-149632420D01*
X119971870Y-149690802D01*
X120027908Y-149695001D01*
X120168001Y-149705500D01*
X120168006Y-149705500D01*
X120298994Y-149705500D01*
X120298999Y-149705500D01*
X120421579Y-149696313D01*
X120495130Y-149690802D01*
X120750916Y-149632420D01*
X120995143Y-149536568D01*
X121222357Y-149405386D01*
X121427481Y-149241805D01*
X121593629Y-149062740D01*
X121605928Y-149049485D01*
X121605929Y-149049482D01*
X121605933Y-149049479D01*
X121753728Y-148832704D01*
X121867563Y-148596323D01*
X121944896Y-148345615D01*
X121984000Y-148086182D01*
X121984000Y-147955000D01*
X123647856Y-147955000D01*
X123668391Y-148202816D01*
X123668391Y-148202819D01*
X123668392Y-148202821D01*
X123729437Y-148443881D01*
X123729438Y-148443883D01*
X123829325Y-148671604D01*
X123829327Y-148671607D01*
X123965336Y-148879785D01*
X124133756Y-149062738D01*
X124133759Y-149062740D01*
X124329985Y-149215470D01*
X124329987Y-149215471D01*
X124329991Y-149215474D01*
X124548690Y-149333828D01*
X124783886Y-149414571D01*
X125029165Y-149455500D01*
X125277835Y-149455500D01*
X125523114Y-149414571D01*
X125758310Y-149333828D01*
X125977009Y-149215474D01*
X126173244Y-149062738D01*
X126341664Y-148879785D01*
X126477673Y-148671607D01*
X126577563Y-148443881D01*
X126638608Y-148202821D01*
X126659143Y-147955000D01*
X129362856Y-147955000D01*
X129383391Y-148202816D01*
X129383391Y-148202819D01*
X129383392Y-148202821D01*
X129444437Y-148443881D01*
X129444438Y-148443883D01*
X129544325Y-148671604D01*
X129544327Y-148671607D01*
X129680336Y-148879785D01*
X129848756Y-149062738D01*
X129848759Y-149062740D01*
X130044985Y-149215470D01*
X130044987Y-149215471D01*
X130044991Y-149215474D01*
X130263690Y-149333828D01*
X130498886Y-149414571D01*
X130744165Y-149455500D01*
X130992835Y-149455500D01*
X131238114Y-149414571D01*
X131473310Y-149333828D01*
X131692009Y-149215474D01*
X131888244Y-149062738D01*
X132056664Y-148879785D01*
X132192673Y-148671607D01*
X132292563Y-148443881D01*
X132353608Y-148202821D01*
X132363273Y-148086182D01*
X134038000Y-148086182D01*
X134077104Y-148345615D01*
X134154437Y-148596323D01*
X134268272Y-148832704D01*
X134385391Y-149004485D01*
X134416071Y-149049485D01*
X134570087Y-149215474D01*
X134594519Y-149241805D01*
X134799643Y-149405386D01*
X135026857Y-149536568D01*
X135156426Y-149587420D01*
X135256621Y-149626744D01*
X135271084Y-149632420D01*
X135526870Y-149690802D01*
X135582908Y-149695001D01*
X135723001Y-149705500D01*
X135723006Y-149705500D01*
X135853994Y-149705500D01*
X135853999Y-149705500D01*
X135976579Y-149696313D01*
X136050130Y-149690802D01*
X136305916Y-149632420D01*
X136550143Y-149536568D01*
X136777357Y-149405386D01*
X136982481Y-149241805D01*
X137148629Y-149062740D01*
X137160928Y-149049485D01*
X137160929Y-149049482D01*
X137160933Y-149049479D01*
X137308728Y-148832704D01*
X137422563Y-148596323D01*
X137490290Y-148376755D01*
X137524010Y-148322808D01*
X137580046Y-148292682D01*
X137643646Y-148294310D01*
X137698068Y-148327262D01*
X137728985Y-148382866D01*
X137744436Y-148443878D01*
X137744437Y-148443881D01*
X137744438Y-148443883D01*
X137844325Y-148671604D01*
X137844327Y-148671607D01*
X137980336Y-148879785D01*
X138148756Y-149062738D01*
X138148759Y-149062740D01*
X138344985Y-149215470D01*
X138344987Y-149215471D01*
X138344991Y-149215474D01*
X138563690Y-149333828D01*
X138798886Y-149414571D01*
X139044165Y-149455500D01*
X139292835Y-149455500D01*
X139538114Y-149414571D01*
X139773310Y-149333828D01*
X139992009Y-149215474D01*
X140188244Y-149062738D01*
X140356664Y-148879785D01*
X140492673Y-148671607D01*
X140592563Y-148443881D01*
X140598294Y-148421246D01*
X140630097Y-148364735D01*
X140686077Y-148332002D01*
X140750923Y-148332002D01*
X140806903Y-148364735D01*
X140838705Y-148421246D01*
X140844437Y-148443881D01*
X140844438Y-148443883D01*
X140944325Y-148671604D01*
X140944327Y-148671607D01*
X141080336Y-148879785D01*
X141248756Y-149062738D01*
X141248759Y-149062740D01*
X141444985Y-149215470D01*
X141444987Y-149215471D01*
X141444991Y-149215474D01*
X141663690Y-149333828D01*
X141898886Y-149414571D01*
X142144165Y-149455500D01*
X142392835Y-149455500D01*
X142638114Y-149414571D01*
X142873310Y-149333828D01*
X143092009Y-149215474D01*
X143288244Y-149062738D01*
X143456664Y-148879785D01*
X143592673Y-148671607D01*
X143692563Y-148443881D01*
X143753608Y-148202821D01*
X143774143Y-147955000D01*
X143770414Y-147910000D01*
X145110856Y-147910000D01*
X145131391Y-148157816D01*
X145131391Y-148157819D01*
X145131392Y-148157821D01*
X145192437Y-148398881D01*
X145212177Y-148443883D01*
X145292325Y-148626604D01*
X145292327Y-148626607D01*
X145428336Y-148834785D01*
X145596756Y-149017738D01*
X145596759Y-149017740D01*
X145792985Y-149170470D01*
X145792987Y-149170471D01*
X145792991Y-149170474D01*
X146011690Y-149288828D01*
X146246886Y-149369571D01*
X146492165Y-149410500D01*
X146740835Y-149410500D01*
X146986114Y-149369571D01*
X147147654Y-149314113D01*
X147215366Y-149310471D01*
X147274870Y-149342992D01*
X147308370Y-149401949D01*
X147305848Y-149469713D01*
X147254826Y-149626742D01*
X147235040Y-149815000D01*
X147254826Y-150003257D01*
X147313320Y-150183284D01*
X147407966Y-150347216D01*
X147534629Y-150487889D01*
X147687769Y-150599151D01*
X147860697Y-150676144D01*
X148045852Y-150715500D01*
X148045854Y-150715500D01*
X148235146Y-150715500D01*
X148235148Y-150715500D01*
X148358584Y-150689262D01*
X148420303Y-150676144D01*
X148593230Y-150599151D01*
X148746371Y-150487888D01*
X148873033Y-150347216D01*
X148967679Y-150183284D01*
X149026174Y-150003256D01*
X149045960Y-149815000D01*
X149026174Y-149626744D01*
X148995832Y-149533363D01*
X148967679Y-149446715D01*
X148873033Y-149282783D01*
X148746370Y-149142110D01*
X148593230Y-149030848D01*
X148420302Y-148953855D01*
X148235148Y-148914500D01*
X148235146Y-148914500D01*
X148045854Y-148914500D01*
X147999254Y-148924405D01*
X147941313Y-148922871D01*
X147890400Y-148895172D01*
X147857636Y-148847359D01*
X147850182Y-148789880D01*
X147869666Y-148735292D01*
X147940672Y-148626608D01*
X147940673Y-148626607D01*
X148040563Y-148398881D01*
X148101608Y-148157821D01*
X148111273Y-148041182D01*
X149786000Y-148041182D01*
X149825104Y-148300615D01*
X149902437Y-148551323D01*
X150016272Y-148787704D01*
X150129552Y-148953855D01*
X150164071Y-149004485D01*
X150318087Y-149170474D01*
X150342519Y-149196805D01*
X150547643Y-149360386D01*
X150774857Y-149491568D01*
X151019084Y-149587420D01*
X151274870Y-149645802D01*
X151330908Y-149650001D01*
X151471001Y-149660500D01*
X151471006Y-149660500D01*
X151601994Y-149660500D01*
X151601999Y-149660500D01*
X151724578Y-149651313D01*
X151798130Y-149645802D01*
X152053916Y-149587420D01*
X152298143Y-149491568D01*
X152525357Y-149360386D01*
X152730481Y-149196805D01*
X152867179Y-149049479D01*
X152908928Y-149004485D01*
X152908929Y-149004482D01*
X152908933Y-149004479D01*
X153056728Y-148787704D01*
X153170563Y-148551323D01*
X153238290Y-148331755D01*
X153272010Y-148277808D01*
X153328046Y-148247682D01*
X153391646Y-148249310D01*
X153446068Y-148282262D01*
X153476985Y-148337866D01*
X153492436Y-148398878D01*
X153492437Y-148398881D01*
X153502248Y-148421248D01*
X153592325Y-148626604D01*
X153592327Y-148626607D01*
X153728336Y-148834785D01*
X153896756Y-149017738D01*
X153896759Y-149017740D01*
X154092985Y-149170470D01*
X154092987Y-149170471D01*
X154092991Y-149170474D01*
X154311690Y-149288828D01*
X154546886Y-149369571D01*
X154792165Y-149410500D01*
X155040835Y-149410500D01*
X155286114Y-149369571D01*
X155521310Y-149288828D01*
X155740009Y-149170474D01*
X155936244Y-149017738D01*
X156104664Y-148834785D01*
X156240673Y-148626607D01*
X156340563Y-148398881D01*
X156346294Y-148376246D01*
X156378097Y-148319735D01*
X156434077Y-148287002D01*
X156498923Y-148287002D01*
X156554903Y-148319735D01*
X156586705Y-148376246D01*
X156592437Y-148398881D01*
X156612177Y-148443883D01*
X156692325Y-148626604D01*
X156692327Y-148626607D01*
X156828336Y-148834785D01*
X156996756Y-149017738D01*
X156996759Y-149017740D01*
X157192985Y-149170470D01*
X157192987Y-149170471D01*
X157192991Y-149170474D01*
X157411690Y-149288828D01*
X157646886Y-149369571D01*
X157892165Y-149410500D01*
X158140835Y-149410500D01*
X158386114Y-149369571D01*
X158621310Y-149288828D01*
X158840009Y-149170474D01*
X159036244Y-149017738D01*
X159204664Y-148834785D01*
X159340673Y-148626607D01*
X159440563Y-148398881D01*
X159501608Y-148157821D01*
X159522143Y-147910000D01*
X159501608Y-147662179D01*
X159440563Y-147421119D01*
X159340673Y-147193393D01*
X159204664Y-146985215D01*
X159036244Y-146802262D01*
X159014112Y-146785036D01*
X158840014Y-146649529D01*
X158840010Y-146649526D01*
X158840009Y-146649526D01*
X158621310Y-146531172D01*
X158621306Y-146531170D01*
X158621305Y-146531170D01*
X158386115Y-146450429D01*
X158140835Y-146409500D01*
X157892165Y-146409500D01*
X157646884Y-146450429D01*
X157411694Y-146531170D01*
X157192985Y-146649529D01*
X156996759Y-146802259D01*
X156996756Y-146802261D01*
X156996756Y-146802262D01*
X156955331Y-146847262D01*
X156828337Y-146985214D01*
X156692325Y-147193395D01*
X156592436Y-147421121D01*
X156586705Y-147443752D01*
X156554903Y-147500265D01*
X156498923Y-147532997D01*
X156434077Y-147532997D01*
X156378097Y-147500265D01*
X156346295Y-147443752D01*
X156343401Y-147432328D01*
X156340563Y-147421119D01*
X156240673Y-147193393D01*
X156104664Y-146985215D01*
X155936244Y-146802262D01*
X155914112Y-146785036D01*
X155740014Y-146649529D01*
X155740010Y-146649526D01*
X155740009Y-146649526D01*
X155521310Y-146531172D01*
X155521306Y-146531170D01*
X155521305Y-146531170D01*
X155286115Y-146450429D01*
X155040835Y-146409500D01*
X154792165Y-146409500D01*
X154546884Y-146450429D01*
X154311694Y-146531170D01*
X154092985Y-146649529D01*
X153896759Y-146802259D01*
X153896756Y-146802261D01*
X153896756Y-146802262D01*
X153855331Y-146847262D01*
X153728337Y-146985214D01*
X153592325Y-147193395D01*
X153492436Y-147421120D01*
X153476985Y-147482134D01*
X153446068Y-147537737D01*
X153391646Y-147570689D01*
X153328046Y-147572317D01*
X153272010Y-147542191D01*
X153238289Y-147488241D01*
X153236405Y-147482134D01*
X153170563Y-147268677D01*
X153056728Y-147032296D01*
X152908933Y-146815521D01*
X152908932Y-146815520D01*
X152908928Y-146815514D01*
X152730484Y-146623198D01*
X152730483Y-146623197D01*
X152730481Y-146623195D01*
X152525357Y-146459614D01*
X152525356Y-146459613D01*
X152298141Y-146328431D01*
X152053918Y-146232580D01*
X151798127Y-146174197D01*
X151601999Y-146159500D01*
X151601994Y-146159500D01*
X151471006Y-146159500D01*
X151471001Y-146159500D01*
X151274872Y-146174197D01*
X151019081Y-146232580D01*
X150774858Y-146328431D01*
X150547643Y-146459613D01*
X150342515Y-146623198D01*
X150164071Y-146815514D01*
X150142428Y-146847259D01*
X150016272Y-147032296D01*
X149902437Y-147268677D01*
X149825104Y-147519385D01*
X149786000Y-147778818D01*
X149786000Y-148041182D01*
X148111273Y-148041182D01*
X148122143Y-147910000D01*
X148101608Y-147662179D01*
X148040563Y-147421119D01*
X147940673Y-147193393D01*
X147804664Y-146985215D01*
X147636244Y-146802262D01*
X147614112Y-146785036D01*
X147440014Y-146649529D01*
X147440010Y-146649526D01*
X147440009Y-146649526D01*
X147221310Y-146531172D01*
X147221306Y-146531170D01*
X147221305Y-146531170D01*
X146986115Y-146450429D01*
X146740835Y-146409500D01*
X146492165Y-146409500D01*
X146246884Y-146450429D01*
X146011694Y-146531170D01*
X145792985Y-146649529D01*
X145596759Y-146802259D01*
X145596756Y-146802261D01*
X145596756Y-146802262D01*
X145555331Y-146847262D01*
X145428337Y-146985214D01*
X145292325Y-147193395D01*
X145239565Y-147313677D01*
X145192437Y-147421119D01*
X145162905Y-147537737D01*
X145131391Y-147662183D01*
X145110856Y-147910000D01*
X143770414Y-147910000D01*
X143753608Y-147707179D01*
X143692563Y-147466119D01*
X143592673Y-147238393D01*
X143456664Y-147030215D01*
X143288244Y-146847262D01*
X143230424Y-146802259D01*
X143092014Y-146694529D01*
X143092010Y-146694526D01*
X143092009Y-146694526D01*
X142873310Y-146576172D01*
X142873306Y-146576170D01*
X142873305Y-146576170D01*
X142638115Y-146495429D01*
X142392835Y-146454500D01*
X142144165Y-146454500D01*
X141898884Y-146495429D01*
X141663694Y-146576170D01*
X141444985Y-146694529D01*
X141248759Y-146847259D01*
X141248756Y-146847261D01*
X141248756Y-146847262D01*
X141080336Y-147030215D01*
X141078975Y-147032298D01*
X140944325Y-147238395D01*
X140844436Y-147466121D01*
X140838705Y-147488752D01*
X140806903Y-147545265D01*
X140750923Y-147577997D01*
X140686077Y-147577997D01*
X140630097Y-147545265D01*
X140598295Y-147488752D01*
X140595401Y-147477328D01*
X140592563Y-147466119D01*
X140492673Y-147238393D01*
X140356664Y-147030215D01*
X140188244Y-146847262D01*
X140130424Y-146802259D01*
X139992014Y-146694529D01*
X139992010Y-146694526D01*
X139992009Y-146694526D01*
X139773310Y-146576172D01*
X139773306Y-146576170D01*
X139773305Y-146576170D01*
X139538115Y-146495429D01*
X139292835Y-146454500D01*
X139044165Y-146454500D01*
X138798884Y-146495429D01*
X138563694Y-146576170D01*
X138344985Y-146694529D01*
X138148759Y-146847259D01*
X138148756Y-146847261D01*
X138148756Y-146847262D01*
X137980336Y-147030215D01*
X137978975Y-147032298D01*
X137844325Y-147238395D01*
X137744436Y-147466120D01*
X137728985Y-147527134D01*
X137698068Y-147582737D01*
X137643646Y-147615689D01*
X137580046Y-147617317D01*
X137524010Y-147587191D01*
X137490289Y-147533241D01*
X137488405Y-147527134D01*
X137422563Y-147313677D01*
X137308728Y-147077296D01*
X137160933Y-146860521D01*
X137160932Y-146860520D01*
X137160928Y-146860514D01*
X136982484Y-146668198D01*
X136982483Y-146668197D01*
X136982481Y-146668195D01*
X136777357Y-146504614D01*
X136777356Y-146504613D01*
X136550141Y-146373431D01*
X136305918Y-146277580D01*
X136050127Y-146219197D01*
X135853999Y-146204500D01*
X135853994Y-146204500D01*
X135723006Y-146204500D01*
X135723001Y-146204500D01*
X135526872Y-146219197D01*
X135271081Y-146277580D01*
X135026858Y-146373431D01*
X134799643Y-146504613D01*
X134594515Y-146668198D01*
X134416071Y-146860514D01*
X134331052Y-146985215D01*
X134268272Y-147077296D01*
X134154437Y-147313677D01*
X134077104Y-147564385D01*
X134038000Y-147823818D01*
X134038000Y-148086182D01*
X132363273Y-148086182D01*
X132374143Y-147955000D01*
X132353608Y-147707179D01*
X132292563Y-147466119D01*
X132192673Y-147238393D01*
X132056664Y-147030215D01*
X131888244Y-146847262D01*
X131830424Y-146802259D01*
X131692014Y-146694529D01*
X131692010Y-146694526D01*
X131692009Y-146694526D01*
X131473310Y-146576172D01*
X131473306Y-146576170D01*
X131473305Y-146576170D01*
X131238115Y-146495429D01*
X130992835Y-146454500D01*
X130744165Y-146454500D01*
X130498884Y-146495429D01*
X130263694Y-146576170D01*
X130044985Y-146694529D01*
X129848759Y-146847259D01*
X129848756Y-146847261D01*
X129848756Y-146847262D01*
X129680336Y-147030215D01*
X129678975Y-147032298D01*
X129544325Y-147238395D01*
X129464177Y-147421117D01*
X129444437Y-147466119D01*
X129414905Y-147582737D01*
X129383391Y-147707183D01*
X129362856Y-147955000D01*
X126659143Y-147955000D01*
X126638608Y-147707179D01*
X126577563Y-147466119D01*
X126477673Y-147238393D01*
X126341664Y-147030215D01*
X126173244Y-146847262D01*
X126115424Y-146802259D01*
X125977014Y-146694529D01*
X125977010Y-146694526D01*
X125977009Y-146694526D01*
X125758310Y-146576172D01*
X125758306Y-146576170D01*
X125758305Y-146576170D01*
X125523115Y-146495429D01*
X125277835Y-146454500D01*
X125029165Y-146454500D01*
X124783884Y-146495429D01*
X124548694Y-146576170D01*
X124329985Y-146694529D01*
X124133759Y-146847259D01*
X124133756Y-146847261D01*
X124133756Y-146847262D01*
X123965336Y-147030215D01*
X123963975Y-147032298D01*
X123829325Y-147238395D01*
X123749177Y-147421117D01*
X123729437Y-147466119D01*
X123699905Y-147582737D01*
X123668391Y-147707183D01*
X123647856Y-147955000D01*
X121984000Y-147955000D01*
X121984000Y-147823818D01*
X121944896Y-147564385D01*
X121867563Y-147313677D01*
X121753728Y-147077296D01*
X121605933Y-146860521D01*
X121605932Y-146860520D01*
X121605928Y-146860514D01*
X121427484Y-146668198D01*
X121427483Y-146668197D01*
X121427481Y-146668195D01*
X121222357Y-146504614D01*
X121222356Y-146504613D01*
X120995141Y-146373431D01*
X120750918Y-146277580D01*
X120495127Y-146219197D01*
X120298999Y-146204500D01*
X120298994Y-146204500D01*
X120168006Y-146204500D01*
X120168001Y-146204500D01*
X119971872Y-146219197D01*
X119716081Y-146277580D01*
X119471858Y-146373431D01*
X119244643Y-146504613D01*
X119039515Y-146668198D01*
X118861071Y-146860514D01*
X118713271Y-147077298D01*
X118599437Y-147313677D01*
X118531710Y-147533242D01*
X118497989Y-147587191D01*
X118441952Y-147617317D01*
X118378352Y-147615689D01*
X118323930Y-147582736D01*
X118293014Y-147527134D01*
X118277563Y-147466119D01*
X118177673Y-147238393D01*
X118041664Y-147030215D01*
X117873244Y-146847262D01*
X117815424Y-146802259D01*
X117677014Y-146694529D01*
X117677010Y-146694526D01*
X117677009Y-146694526D01*
X117458310Y-146576172D01*
X117458306Y-146576170D01*
X117458305Y-146576170D01*
X117223115Y-146495429D01*
X116977835Y-146454500D01*
X116729165Y-146454500D01*
X116483884Y-146495429D01*
X116248694Y-146576170D01*
X116029985Y-146694529D01*
X115833759Y-146847259D01*
X115833756Y-146847261D01*
X115833756Y-146847262D01*
X115665336Y-147030215D01*
X115663975Y-147032298D01*
X115529325Y-147238395D01*
X115429436Y-147466121D01*
X115423705Y-147488752D01*
X115391903Y-147545265D01*
X115335923Y-147577997D01*
X115271077Y-147577997D01*
X115215097Y-147545265D01*
X115183295Y-147488752D01*
X115180401Y-147477328D01*
X115177563Y-147466119D01*
X115077673Y-147238393D01*
X114941664Y-147030215D01*
X114773244Y-146847262D01*
X114715424Y-146802259D01*
X114577014Y-146694529D01*
X114577010Y-146694526D01*
X114577009Y-146694526D01*
X114358310Y-146576172D01*
X114358306Y-146576170D01*
X114358305Y-146576170D01*
X114123115Y-146495429D01*
X113877835Y-146454500D01*
X113629165Y-146454500D01*
X113383884Y-146495429D01*
X113148694Y-146576170D01*
X112929985Y-146694529D01*
X112733759Y-146847259D01*
X112733756Y-146847261D01*
X112733756Y-146847262D01*
X112565336Y-147030215D01*
X112563975Y-147032298D01*
X112429325Y-147238395D01*
X112349177Y-147421117D01*
X112329437Y-147466119D01*
X112299905Y-147582737D01*
X112268391Y-147707183D01*
X112247856Y-147955000D01*
X111564500Y-147955000D01*
X111564500Y-141306000D01*
X126788040Y-141306000D01*
X126807826Y-141494257D01*
X126866320Y-141674284D01*
X126960966Y-141838216D01*
X127087629Y-141978889D01*
X127240769Y-142090151D01*
X127413697Y-142167144D01*
X127598852Y-142206500D01*
X127598854Y-142206500D01*
X127788146Y-142206500D01*
X127788148Y-142206500D01*
X127911584Y-142180262D01*
X127973303Y-142167144D01*
X128146230Y-142090151D01*
X128299371Y-141978888D01*
X128426033Y-141838216D01*
X128520679Y-141674284D01*
X128579174Y-141494256D01*
X128598960Y-141306000D01*
X136821040Y-141306000D01*
X136840826Y-141494257D01*
X136899320Y-141674284D01*
X136993966Y-141838216D01*
X137120629Y-141978889D01*
X137273769Y-142090151D01*
X137446697Y-142167144D01*
X137631852Y-142206500D01*
X137631854Y-142206500D01*
X137821146Y-142206500D01*
X137821148Y-142206500D01*
X137944584Y-142180262D01*
X138006303Y-142167144D01*
X138179230Y-142090151D01*
X138332371Y-141978888D01*
X138459033Y-141838216D01*
X138553679Y-141674284D01*
X138612174Y-141494256D01*
X138631960Y-141306000D01*
X138612174Y-141117744D01*
X138553679Y-140937716D01*
X138553679Y-140937715D01*
X138459033Y-140773783D01*
X138332370Y-140633110D01*
X138179230Y-140521848D01*
X138006302Y-140444855D01*
X137821148Y-140405500D01*
X137821146Y-140405500D01*
X137631854Y-140405500D01*
X137631852Y-140405500D01*
X137446697Y-140444855D01*
X137273769Y-140521848D01*
X137120629Y-140633110D01*
X136993966Y-140773783D01*
X136899320Y-140937715D01*
X136840826Y-141117742D01*
X136821040Y-141306000D01*
X128598960Y-141306000D01*
X128579174Y-141117744D01*
X128520679Y-140937716D01*
X128520679Y-140937715D01*
X128426033Y-140773783D01*
X128299370Y-140633110D01*
X128146230Y-140521848D01*
X127973302Y-140444855D01*
X127788148Y-140405500D01*
X127788146Y-140405500D01*
X127598854Y-140405500D01*
X127598852Y-140405500D01*
X127413697Y-140444855D01*
X127240769Y-140521848D01*
X127087629Y-140633110D01*
X126960966Y-140773783D01*
X126866320Y-140937715D01*
X126807826Y-141117742D01*
X126788040Y-141306000D01*
X111564500Y-141306000D01*
X111564500Y-138385000D01*
X125772040Y-138385000D01*
X125791826Y-138573257D01*
X125850320Y-138753284D01*
X125944966Y-138917216D01*
X126071629Y-139057889D01*
X126224769Y-139169151D01*
X126397697Y-139246144D01*
X126582852Y-139285500D01*
X126582854Y-139285500D01*
X126772146Y-139285500D01*
X126772148Y-139285500D01*
X126895583Y-139259262D01*
X126957303Y-139246144D01*
X127130230Y-139169151D01*
X127283371Y-139057888D01*
X127410033Y-138917216D01*
X127424014Y-138893000D01*
X147235040Y-138893000D01*
X147254826Y-139081257D01*
X147313320Y-139261284D01*
X147407966Y-139425216D01*
X147534629Y-139565889D01*
X147687769Y-139677151D01*
X147860697Y-139754144D01*
X148045852Y-139793500D01*
X148045854Y-139793500D01*
X148235146Y-139793500D01*
X148235148Y-139793500D01*
X148358583Y-139767262D01*
X148420303Y-139754144D01*
X148593230Y-139677151D01*
X148746371Y-139565888D01*
X148873033Y-139425216D01*
X148967679Y-139261284D01*
X149026174Y-139081256D01*
X149045960Y-138893000D01*
X149026174Y-138704744D01*
X148967679Y-138524716D01*
X148967679Y-138524715D01*
X148873033Y-138360783D01*
X148746370Y-138220110D01*
X148593230Y-138108848D01*
X148420302Y-138031855D01*
X148235148Y-137992500D01*
X148235146Y-137992500D01*
X148045854Y-137992500D01*
X148045852Y-137992500D01*
X147860697Y-138031855D01*
X147687769Y-138108848D01*
X147534629Y-138220110D01*
X147407966Y-138360783D01*
X147313320Y-138524715D01*
X147254826Y-138704742D01*
X147235040Y-138893000D01*
X127424014Y-138893000D01*
X127504679Y-138753284D01*
X127563174Y-138573256D01*
X127582960Y-138385000D01*
X127563174Y-138196744D01*
X127532832Y-138103363D01*
X127504679Y-138016715D01*
X127410033Y-137852783D01*
X127283370Y-137712110D01*
X127130230Y-137600848D01*
X126957302Y-137523855D01*
X126772148Y-137484500D01*
X126772146Y-137484500D01*
X126582854Y-137484500D01*
X126582852Y-137484500D01*
X126397697Y-137523855D01*
X126224769Y-137600848D01*
X126071629Y-137712110D01*
X125944966Y-137852783D01*
X125850320Y-138016715D01*
X125791826Y-138196742D01*
X125772040Y-138385000D01*
X111564500Y-138385000D01*
X111564500Y-135255000D01*
X112217856Y-135255000D01*
X112238391Y-135502816D01*
X112238391Y-135502819D01*
X112238392Y-135502821D01*
X112299437Y-135743881D01*
X112299438Y-135743883D01*
X112399325Y-135971604D01*
X112399327Y-135971607D01*
X112535336Y-136179785D01*
X112703756Y-136362738D01*
X112703759Y-136362740D01*
X112899985Y-136515470D01*
X112899987Y-136515471D01*
X112899991Y-136515474D01*
X113118690Y-136633828D01*
X113353886Y-136714571D01*
X113599165Y-136755500D01*
X113847835Y-136755500D01*
X114093114Y-136714571D01*
X114328310Y-136633828D01*
X114547009Y-136515474D01*
X114743244Y-136362738D01*
X114911664Y-136179785D01*
X115047673Y-135971607D01*
X115147563Y-135743881D01*
X115153294Y-135721246D01*
X115185097Y-135664735D01*
X115241077Y-135632002D01*
X115305923Y-135632002D01*
X115361903Y-135664735D01*
X115393705Y-135721246D01*
X115399437Y-135743881D01*
X115399438Y-135743883D01*
X115499325Y-135971604D01*
X115499327Y-135971607D01*
X115635336Y-136179785D01*
X115803756Y-136362738D01*
X115803759Y-136362740D01*
X115999985Y-136515470D01*
X115999987Y-136515471D01*
X115999991Y-136515474D01*
X116218690Y-136633828D01*
X116453886Y-136714571D01*
X116699165Y-136755500D01*
X116947835Y-136755500D01*
X117193114Y-136714571D01*
X117428310Y-136633828D01*
X117647009Y-136515474D01*
X117843244Y-136362738D01*
X118011664Y-136179785D01*
X118147673Y-135971607D01*
X118247563Y-135743881D01*
X118263014Y-135682863D01*
X118293930Y-135627263D01*
X118348352Y-135594310D01*
X118411952Y-135592682D01*
X118467989Y-135622808D01*
X118501710Y-135676757D01*
X118569437Y-135896323D01*
X118683272Y-136132704D01*
X118800391Y-136304485D01*
X118831071Y-136349485D01*
X118985087Y-136515474D01*
X119009519Y-136541805D01*
X119214643Y-136705386D01*
X119441857Y-136836568D01*
X119686084Y-136932420D01*
X119941870Y-136990802D01*
X119997908Y-136995001D01*
X120138001Y-137005500D01*
X120138006Y-137005500D01*
X120268994Y-137005500D01*
X120268999Y-137005500D01*
X120391578Y-136996313D01*
X120465130Y-136990802D01*
X120720916Y-136932420D01*
X120965143Y-136836568D01*
X121192357Y-136705386D01*
X121397481Y-136541805D01*
X121563629Y-136362740D01*
X121575928Y-136349485D01*
X121575929Y-136349482D01*
X121575933Y-136349479D01*
X121723728Y-136132704D01*
X121837563Y-135896323D01*
X121914896Y-135645615D01*
X121954000Y-135386182D01*
X121954000Y-135254999D01*
X123617856Y-135254999D01*
X123638391Y-135502816D01*
X123638391Y-135502819D01*
X123638392Y-135502821D01*
X123699437Y-135743881D01*
X123699438Y-135743883D01*
X123799325Y-135971604D01*
X123799327Y-135971607D01*
X123935336Y-136179785D01*
X124103756Y-136362738D01*
X124103759Y-136362740D01*
X124299985Y-136515470D01*
X124299987Y-136515471D01*
X124299991Y-136515474D01*
X124518690Y-136633828D01*
X124753886Y-136714571D01*
X124999165Y-136755500D01*
X125247835Y-136755500D01*
X125493114Y-136714571D01*
X125728310Y-136633828D01*
X125947009Y-136515474D01*
X126143244Y-136362738D01*
X126311664Y-136179785D01*
X126447673Y-135971607D01*
X126547563Y-135743881D01*
X126608608Y-135502821D01*
X126629143Y-135255000D01*
X126629143Y-135254999D01*
X129362856Y-135254999D01*
X129383391Y-135502816D01*
X129383391Y-135502819D01*
X129383392Y-135502821D01*
X129444437Y-135743881D01*
X129444438Y-135743883D01*
X129544325Y-135971604D01*
X129544327Y-135971607D01*
X129680336Y-136179785D01*
X129848756Y-136362738D01*
X129848759Y-136362740D01*
X130044985Y-136515470D01*
X130044987Y-136515471D01*
X130044991Y-136515474D01*
X130263690Y-136633828D01*
X130498886Y-136714571D01*
X130744165Y-136755500D01*
X130992835Y-136755500D01*
X131238114Y-136714571D01*
X131473310Y-136633828D01*
X131692009Y-136515474D01*
X131888244Y-136362738D01*
X132056664Y-136179785D01*
X132192673Y-135971607D01*
X132292563Y-135743881D01*
X132353608Y-135502821D01*
X132363273Y-135386182D01*
X134038000Y-135386182D01*
X134077104Y-135645615D01*
X134154437Y-135896323D01*
X134268272Y-136132704D01*
X134385391Y-136304485D01*
X134416071Y-136349485D01*
X134570087Y-136515474D01*
X134594519Y-136541805D01*
X134799643Y-136705386D01*
X135026857Y-136836568D01*
X135271084Y-136932420D01*
X135526870Y-136990802D01*
X135582908Y-136995001D01*
X135723001Y-137005500D01*
X135723006Y-137005500D01*
X135853994Y-137005500D01*
X135853999Y-137005500D01*
X135976578Y-136996313D01*
X136050130Y-136990802D01*
X136305916Y-136932420D01*
X136550143Y-136836568D01*
X136777357Y-136705386D01*
X136982481Y-136541805D01*
X137148629Y-136362740D01*
X137160928Y-136349485D01*
X137160929Y-136349482D01*
X137160933Y-136349479D01*
X137308728Y-136132704D01*
X137422563Y-135896323D01*
X137490290Y-135676755D01*
X137524010Y-135622808D01*
X137580046Y-135592682D01*
X137643646Y-135594310D01*
X137698068Y-135627262D01*
X137728985Y-135682866D01*
X137744436Y-135743878D01*
X137744437Y-135743881D01*
X137744438Y-135743883D01*
X137844325Y-135971604D01*
X137844327Y-135971607D01*
X137980336Y-136179785D01*
X138148756Y-136362738D01*
X138148759Y-136362740D01*
X138344985Y-136515470D01*
X138344987Y-136515471D01*
X138344991Y-136515474D01*
X138563690Y-136633828D01*
X138798886Y-136714571D01*
X139044165Y-136755500D01*
X139292835Y-136755500D01*
X139538114Y-136714571D01*
X139773310Y-136633828D01*
X139992009Y-136515474D01*
X140188244Y-136362738D01*
X140356664Y-136179785D01*
X140492673Y-135971607D01*
X140592563Y-135743881D01*
X140598294Y-135721246D01*
X140630097Y-135664735D01*
X140686077Y-135632002D01*
X140750923Y-135632002D01*
X140806903Y-135664735D01*
X140838705Y-135721246D01*
X140844437Y-135743881D01*
X140844438Y-135743883D01*
X140944325Y-135971604D01*
X140944327Y-135971607D01*
X141080336Y-136179785D01*
X141248756Y-136362738D01*
X141248759Y-136362740D01*
X141444985Y-136515470D01*
X141444987Y-136515471D01*
X141444991Y-136515474D01*
X141663690Y-136633828D01*
X141898886Y-136714571D01*
X142144165Y-136755500D01*
X142392835Y-136755500D01*
X142638114Y-136714571D01*
X142873310Y-136633828D01*
X143092009Y-136515474D01*
X143288244Y-136362738D01*
X143456664Y-136179785D01*
X143592673Y-135971607D01*
X143692563Y-135743881D01*
X143753608Y-135502821D01*
X143774143Y-135255000D01*
X143770414Y-135210000D01*
X145140856Y-135210000D01*
X145161391Y-135457816D01*
X145161391Y-135457819D01*
X145161392Y-135457821D01*
X145222437Y-135698881D01*
X145242177Y-135743883D01*
X145322325Y-135926604D01*
X145322327Y-135926607D01*
X145458336Y-136134785D01*
X145626756Y-136317738D01*
X145626759Y-136317740D01*
X145822985Y-136470470D01*
X145822987Y-136470471D01*
X145822991Y-136470474D01*
X146041690Y-136588828D01*
X146276886Y-136669571D01*
X146522165Y-136710500D01*
X146770835Y-136710500D01*
X147016114Y-136669571D01*
X147251310Y-136588828D01*
X147470009Y-136470474D01*
X147666244Y-136317738D01*
X147834664Y-136134785D01*
X147970673Y-135926607D01*
X148070563Y-135698881D01*
X148131608Y-135457821D01*
X148141273Y-135341182D01*
X149816000Y-135341182D01*
X149855104Y-135600615D01*
X149932437Y-135851323D01*
X150046272Y-136087704D01*
X150109052Y-136179785D01*
X150194071Y-136304485D01*
X150348087Y-136470474D01*
X150372519Y-136496805D01*
X150577643Y-136660386D01*
X150804857Y-136791568D01*
X151049084Y-136887420D01*
X151304870Y-136945802D01*
X151360908Y-136950001D01*
X151501001Y-136960500D01*
X151501006Y-136960500D01*
X151631994Y-136960500D01*
X151631999Y-136960500D01*
X151754579Y-136951313D01*
X151828130Y-136945802D01*
X152083916Y-136887420D01*
X152328143Y-136791568D01*
X152555357Y-136660386D01*
X152760481Y-136496805D01*
X152926629Y-136317740D01*
X152938928Y-136304485D01*
X152938929Y-136304482D01*
X152938933Y-136304479D01*
X153086728Y-136087704D01*
X153200563Y-135851323D01*
X153268290Y-135631755D01*
X153302010Y-135577808D01*
X153358046Y-135547682D01*
X153421646Y-135549310D01*
X153476068Y-135582262D01*
X153506985Y-135637866D01*
X153522436Y-135698878D01*
X153522437Y-135698881D01*
X153532248Y-135721248D01*
X153622325Y-135926604D01*
X153622327Y-135926607D01*
X153758336Y-136134785D01*
X153926756Y-136317738D01*
X153926759Y-136317740D01*
X154122985Y-136470470D01*
X154122987Y-136470471D01*
X154122991Y-136470474D01*
X154341690Y-136588828D01*
X154576886Y-136669571D01*
X154822165Y-136710500D01*
X155070835Y-136710500D01*
X155316114Y-136669571D01*
X155551310Y-136588828D01*
X155770009Y-136470474D01*
X155966244Y-136317738D01*
X156134664Y-136134785D01*
X156270673Y-135926607D01*
X156370563Y-135698881D01*
X156376294Y-135676246D01*
X156408097Y-135619735D01*
X156464077Y-135587002D01*
X156528923Y-135587002D01*
X156584903Y-135619735D01*
X156616705Y-135676246D01*
X156622437Y-135698881D01*
X156642177Y-135743883D01*
X156722325Y-135926604D01*
X156722327Y-135926607D01*
X156858336Y-136134785D01*
X157026756Y-136317738D01*
X157026759Y-136317740D01*
X157222985Y-136470470D01*
X157222987Y-136470471D01*
X157222991Y-136470474D01*
X157441690Y-136588828D01*
X157676886Y-136669571D01*
X157922165Y-136710500D01*
X158170835Y-136710500D01*
X158416114Y-136669571D01*
X158651310Y-136588828D01*
X158870009Y-136470474D01*
X159066244Y-136317738D01*
X159234664Y-136134785D01*
X159370673Y-135926607D01*
X159470563Y-135698881D01*
X159531608Y-135457821D01*
X159552143Y-135210000D01*
X159531608Y-134962179D01*
X159470563Y-134721119D01*
X159370673Y-134493393D01*
X159234664Y-134285215D01*
X159066244Y-134102262D01*
X159044112Y-134085036D01*
X158870014Y-133949529D01*
X158870010Y-133949526D01*
X158870009Y-133949526D01*
X158651310Y-133831172D01*
X158651306Y-133831170D01*
X158651305Y-133831170D01*
X158416115Y-133750429D01*
X158170835Y-133709500D01*
X157922165Y-133709500D01*
X157676884Y-133750429D01*
X157441694Y-133831170D01*
X157222985Y-133949529D01*
X157026759Y-134102259D01*
X157026756Y-134102261D01*
X157026756Y-134102262D01*
X156985331Y-134147262D01*
X156858337Y-134285214D01*
X156722325Y-134493395D01*
X156622436Y-134721121D01*
X156616705Y-134743752D01*
X156584903Y-134800265D01*
X156528923Y-134832997D01*
X156464077Y-134832997D01*
X156408097Y-134800265D01*
X156376295Y-134743752D01*
X156373401Y-134732328D01*
X156370563Y-134721119D01*
X156270673Y-134493393D01*
X156134664Y-134285215D01*
X155966244Y-134102262D01*
X155944112Y-134085036D01*
X155770014Y-133949529D01*
X155770010Y-133949526D01*
X155770009Y-133949526D01*
X155551310Y-133831172D01*
X155551306Y-133831170D01*
X155551305Y-133831170D01*
X155316115Y-133750429D01*
X155070835Y-133709500D01*
X154822165Y-133709500D01*
X154576884Y-133750429D01*
X154341694Y-133831170D01*
X154122985Y-133949529D01*
X153926759Y-134102259D01*
X153926756Y-134102261D01*
X153926756Y-134102262D01*
X153885331Y-134147262D01*
X153758337Y-134285214D01*
X153622325Y-134493395D01*
X153522436Y-134721120D01*
X153506985Y-134782134D01*
X153476068Y-134837737D01*
X153421646Y-134870689D01*
X153358046Y-134872317D01*
X153302010Y-134842191D01*
X153268289Y-134788241D01*
X153266405Y-134782134D01*
X153200563Y-134568677D01*
X153086728Y-134332296D01*
X152938933Y-134115521D01*
X152938932Y-134115520D01*
X152938928Y-134115514D01*
X152760484Y-133923198D01*
X152760483Y-133923197D01*
X152760481Y-133923195D01*
X152555357Y-133759614D01*
X152555356Y-133759613D01*
X152328141Y-133628431D01*
X152083918Y-133532580D01*
X151828127Y-133474197D01*
X151631999Y-133459500D01*
X151631994Y-133459500D01*
X151501006Y-133459500D01*
X151501001Y-133459500D01*
X151304872Y-133474197D01*
X151049081Y-133532580D01*
X150804858Y-133628431D01*
X150577643Y-133759613D01*
X150372515Y-133923198D01*
X150194071Y-134115514D01*
X150172428Y-134147259D01*
X150046272Y-134332296D01*
X149932437Y-134568677D01*
X149855104Y-134819385D01*
X149816000Y-135078818D01*
X149816000Y-135341182D01*
X148141273Y-135341182D01*
X148152143Y-135210000D01*
X148131608Y-134962179D01*
X148070563Y-134721119D01*
X147970673Y-134493393D01*
X147834664Y-134285215D01*
X147666244Y-134102262D01*
X147644112Y-134085036D01*
X147470014Y-133949529D01*
X147470010Y-133949526D01*
X147470009Y-133949526D01*
X147251310Y-133831172D01*
X147251306Y-133831170D01*
X147251305Y-133831170D01*
X147016115Y-133750429D01*
X146770835Y-133709500D01*
X146522165Y-133709500D01*
X146276884Y-133750429D01*
X146041694Y-133831170D01*
X145822985Y-133949529D01*
X145626759Y-134102259D01*
X145626756Y-134102261D01*
X145626756Y-134102262D01*
X145585331Y-134147262D01*
X145458337Y-134285214D01*
X145322325Y-134493395D01*
X145269565Y-134613677D01*
X145222437Y-134721119D01*
X145192905Y-134837737D01*
X145161391Y-134962183D01*
X145140856Y-135210000D01*
X143770414Y-135210000D01*
X143753608Y-135007179D01*
X143692563Y-134766119D01*
X143592673Y-134538393D01*
X143456664Y-134330215D01*
X143288244Y-134147262D01*
X143230424Y-134102259D01*
X143092014Y-133994529D01*
X143092010Y-133994526D01*
X143092009Y-133994526D01*
X142873310Y-133876172D01*
X142873306Y-133876170D01*
X142873305Y-133876170D01*
X142638115Y-133795429D01*
X142392835Y-133754500D01*
X142144165Y-133754500D01*
X141898884Y-133795429D01*
X141663694Y-133876170D01*
X141444985Y-133994529D01*
X141248759Y-134147259D01*
X141248756Y-134147261D01*
X141248756Y-134147262D01*
X141080336Y-134330215D01*
X141078975Y-134332298D01*
X140944325Y-134538395D01*
X140844436Y-134766121D01*
X140838705Y-134788752D01*
X140806903Y-134845265D01*
X140750923Y-134877997D01*
X140686077Y-134877997D01*
X140630097Y-134845265D01*
X140598295Y-134788752D01*
X140595401Y-134777328D01*
X140592563Y-134766119D01*
X140492673Y-134538393D01*
X140356664Y-134330215D01*
X140188244Y-134147262D01*
X140130424Y-134102259D01*
X139992014Y-133994529D01*
X139992010Y-133994526D01*
X139992009Y-133994526D01*
X139773310Y-133876172D01*
X139773306Y-133876170D01*
X139773305Y-133876170D01*
X139538115Y-133795429D01*
X139292835Y-133754500D01*
X139044165Y-133754500D01*
X138798884Y-133795429D01*
X138563694Y-133876170D01*
X138344985Y-133994529D01*
X138148759Y-134147259D01*
X138148756Y-134147261D01*
X138148756Y-134147262D01*
X137980336Y-134330215D01*
X137978975Y-134332298D01*
X137844325Y-134538395D01*
X137744436Y-134766120D01*
X137728985Y-134827134D01*
X137698068Y-134882737D01*
X137643646Y-134915689D01*
X137580046Y-134917317D01*
X137524010Y-134887191D01*
X137490289Y-134833241D01*
X137488405Y-134827134D01*
X137422563Y-134613677D01*
X137308728Y-134377296D01*
X137160933Y-134160521D01*
X137160932Y-134160520D01*
X137160928Y-134160514D01*
X136982484Y-133968198D01*
X136982483Y-133968197D01*
X136982481Y-133968195D01*
X136777357Y-133804614D01*
X136777356Y-133804613D01*
X136550141Y-133673431D01*
X136305918Y-133577580D01*
X136050127Y-133519197D01*
X135853999Y-133504500D01*
X135853994Y-133504500D01*
X135723006Y-133504500D01*
X135723001Y-133504500D01*
X135526872Y-133519197D01*
X135271081Y-133577580D01*
X135026858Y-133673431D01*
X134799643Y-133804613D01*
X134594515Y-133968198D01*
X134416071Y-134160514D01*
X134331052Y-134285215D01*
X134268272Y-134377296D01*
X134154437Y-134613677D01*
X134077104Y-134864385D01*
X134038000Y-135123818D01*
X134038000Y-135386182D01*
X132363273Y-135386182D01*
X132374143Y-135255000D01*
X132353608Y-135007179D01*
X132292563Y-134766119D01*
X132192673Y-134538393D01*
X132056664Y-134330215D01*
X131888244Y-134147262D01*
X131830424Y-134102259D01*
X131692014Y-133994529D01*
X131692010Y-133994526D01*
X131692009Y-133994526D01*
X131473310Y-133876172D01*
X131473306Y-133876170D01*
X131473305Y-133876170D01*
X131238115Y-133795429D01*
X130992835Y-133754500D01*
X130744165Y-133754500D01*
X130498884Y-133795429D01*
X130263694Y-133876170D01*
X130044985Y-133994529D01*
X129848759Y-134147259D01*
X129848756Y-134147261D01*
X129848756Y-134147262D01*
X129680336Y-134330215D01*
X129678975Y-134332298D01*
X129544325Y-134538395D01*
X129464177Y-134721117D01*
X129444437Y-134766119D01*
X129414905Y-134882737D01*
X129383391Y-135007183D01*
X129362856Y-135254999D01*
X126629143Y-135254999D01*
X126608608Y-135007179D01*
X126547563Y-134766119D01*
X126447673Y-134538393D01*
X126311664Y-134330215D01*
X126143244Y-134147262D01*
X126085424Y-134102259D01*
X125947014Y-133994529D01*
X125947010Y-133994526D01*
X125947009Y-133994526D01*
X125728310Y-133876172D01*
X125728306Y-133876170D01*
X125728305Y-133876170D01*
X125493115Y-133795429D01*
X125247835Y-133754500D01*
X124999165Y-133754500D01*
X124753884Y-133795429D01*
X124518694Y-133876170D01*
X124299985Y-133994529D01*
X124103759Y-134147259D01*
X124103756Y-134147261D01*
X124103756Y-134147262D01*
X123935336Y-134330215D01*
X123933975Y-134332298D01*
X123799325Y-134538395D01*
X123719177Y-134721117D01*
X123699437Y-134766119D01*
X123669905Y-134882737D01*
X123638391Y-135007183D01*
X123617856Y-135254999D01*
X121954000Y-135254999D01*
X121954000Y-135123818D01*
X121914896Y-134864385D01*
X121837563Y-134613677D01*
X121723728Y-134377296D01*
X121575933Y-134160521D01*
X121575932Y-134160520D01*
X121575928Y-134160514D01*
X121397484Y-133968198D01*
X121397483Y-133968197D01*
X121397481Y-133968195D01*
X121192357Y-133804614D01*
X121192356Y-133804613D01*
X120965141Y-133673431D01*
X120720918Y-133577580D01*
X120465127Y-133519197D01*
X120268999Y-133504500D01*
X120268994Y-133504500D01*
X120138006Y-133504500D01*
X120138001Y-133504500D01*
X119941872Y-133519197D01*
X119686081Y-133577580D01*
X119441858Y-133673431D01*
X119214643Y-133804613D01*
X119009515Y-133968198D01*
X118831071Y-134160514D01*
X118683271Y-134377298D01*
X118569437Y-134613677D01*
X118501710Y-134833242D01*
X118467989Y-134887191D01*
X118411952Y-134917317D01*
X118348352Y-134915689D01*
X118293930Y-134882736D01*
X118263014Y-134827134D01*
X118247563Y-134766119D01*
X118147673Y-134538393D01*
X118011664Y-134330215D01*
X117843244Y-134147262D01*
X117785424Y-134102259D01*
X117647014Y-133994529D01*
X117647010Y-133994526D01*
X117647009Y-133994526D01*
X117428310Y-133876172D01*
X117428306Y-133876170D01*
X117428305Y-133876170D01*
X117193115Y-133795429D01*
X116947835Y-133754500D01*
X116699165Y-133754500D01*
X116453884Y-133795429D01*
X116218694Y-133876170D01*
X115999985Y-133994529D01*
X115803759Y-134147259D01*
X115803756Y-134147261D01*
X115803756Y-134147262D01*
X115635336Y-134330215D01*
X115633975Y-134332298D01*
X115499325Y-134538395D01*
X115399436Y-134766121D01*
X115393705Y-134788752D01*
X115361903Y-134845265D01*
X115305923Y-134877997D01*
X115241077Y-134877997D01*
X115185097Y-134845265D01*
X115153295Y-134788752D01*
X115150401Y-134777328D01*
X115147563Y-134766119D01*
X115047673Y-134538393D01*
X114911664Y-134330215D01*
X114743244Y-134147262D01*
X114685424Y-134102259D01*
X114547014Y-133994529D01*
X114547010Y-133994526D01*
X114547009Y-133994526D01*
X114328310Y-133876172D01*
X114328306Y-133876170D01*
X114328305Y-133876170D01*
X114093115Y-133795429D01*
X113847835Y-133754500D01*
X113599165Y-133754500D01*
X113353884Y-133795429D01*
X113118694Y-133876170D01*
X112899985Y-133994529D01*
X112703759Y-134147259D01*
X112703756Y-134147261D01*
X112703756Y-134147262D01*
X112535336Y-134330215D01*
X112533975Y-134332298D01*
X112399325Y-134538395D01*
X112319177Y-134721117D01*
X112299437Y-134766119D01*
X112269905Y-134882737D01*
X112238391Y-135007183D01*
X112217856Y-135255000D01*
X111564500Y-135255000D01*
X111564500Y-127529789D01*
X137131040Y-127529789D01*
X137150826Y-127718047D01*
X137209320Y-127898074D01*
X137303966Y-128062006D01*
X137430629Y-128202679D01*
X137583769Y-128313941D01*
X137756697Y-128390934D01*
X137941852Y-128430290D01*
X137941854Y-128430290D01*
X138131146Y-128430290D01*
X138131148Y-128430290D01*
X138254584Y-128404052D01*
X138316303Y-128390934D01*
X138489230Y-128313941D01*
X138642371Y-128202678D01*
X138769033Y-128062006D01*
X138863679Y-127898074D01*
X138922174Y-127718046D01*
X138941960Y-127529790D01*
X138922174Y-127341534D01*
X138863679Y-127161506D01*
X138863679Y-127161505D01*
X138769033Y-126997573D01*
X138642370Y-126856900D01*
X138489230Y-126745638D01*
X138316302Y-126668645D01*
X138131148Y-126629290D01*
X138131146Y-126629290D01*
X137941854Y-126629290D01*
X137941852Y-126629290D01*
X137756697Y-126668645D01*
X137583769Y-126745638D01*
X137430629Y-126856900D01*
X137303966Y-126997573D01*
X137209320Y-127161505D01*
X137150826Y-127341532D01*
X137131040Y-127529789D01*
X111564500Y-127529789D01*
X111564500Y-125349000D01*
X114214340Y-125349000D01*
X114234936Y-125584407D01*
X114278304Y-125746257D01*
X114296097Y-125812663D01*
X114395965Y-126026830D01*
X114531505Y-126220401D01*
X114698599Y-126387495D01*
X114892170Y-126523035D01*
X115106337Y-126622903D01*
X115334592Y-126684063D01*
X115570000Y-126704659D01*
X115805408Y-126684063D01*
X116033663Y-126622903D01*
X116247830Y-126523035D01*
X116441401Y-126387495D01*
X116563329Y-126265566D01*
X116616072Y-126234273D01*
X116677365Y-126232084D01*
X116732209Y-126259537D01*
X116767189Y-126309916D01*
X116816204Y-126441331D01*
X116902454Y-126556546D01*
X117017669Y-126642796D01*
X117152517Y-126693091D01*
X117212127Y-126699500D01*
X119007872Y-126699499D01*
X119067483Y-126693091D01*
X119202331Y-126642796D01*
X119317546Y-126556546D01*
X119403796Y-126441331D01*
X119454091Y-126306483D01*
X119460500Y-126246873D01*
X119460500Y-125557999D01*
X150029040Y-125557999D01*
X150048826Y-125746257D01*
X150107320Y-125926284D01*
X150201966Y-126090216D01*
X150328629Y-126230889D01*
X150481769Y-126342151D01*
X150654697Y-126419144D01*
X150839852Y-126458500D01*
X150839854Y-126458500D01*
X151029146Y-126458500D01*
X151029148Y-126458500D01*
X151152584Y-126432262D01*
X151214303Y-126419144D01*
X151387230Y-126342151D01*
X151500939Y-126259537D01*
X151540370Y-126230889D01*
X151549814Y-126220401D01*
X151667033Y-126090216D01*
X151761679Y-125926284D01*
X151820174Y-125746256D01*
X151839960Y-125558000D01*
X151820174Y-125369744D01*
X151761679Y-125189716D01*
X151761679Y-125189715D01*
X151667033Y-125025783D01*
X151540370Y-124885110D01*
X151387230Y-124773848D01*
X151214302Y-124696855D01*
X151029148Y-124657500D01*
X151029146Y-124657500D01*
X150839854Y-124657500D01*
X150839852Y-124657500D01*
X150654697Y-124696855D01*
X150481769Y-124773848D01*
X150328629Y-124885110D01*
X150201966Y-125025783D01*
X150107320Y-125189715D01*
X150048826Y-125369742D01*
X150029040Y-125557999D01*
X119460500Y-125557999D01*
X119460499Y-124451128D01*
X119454091Y-124391517D01*
X119403796Y-124256669D01*
X119317546Y-124141454D01*
X119202331Y-124055204D01*
X119140898Y-124032291D01*
X119070916Y-124006189D01*
X119020537Y-123971209D01*
X118993084Y-123916365D01*
X118995273Y-123855072D01*
X119026566Y-123802329D01*
X119148495Y-123680401D01*
X119284035Y-123486830D01*
X119383903Y-123272663D01*
X119445063Y-123044408D01*
X119465659Y-122809000D01*
X119464891Y-122800227D01*
X119445063Y-122573592D01*
X119383903Y-122345337D01*
X119284035Y-122131171D01*
X119148495Y-121937599D01*
X118981401Y-121770505D01*
X118795839Y-121640573D01*
X118756975Y-121596257D01*
X118742964Y-121539000D01*
X118756975Y-121481743D01*
X118795839Y-121437426D01*
X118981401Y-121307495D01*
X119148495Y-121140401D01*
X119167681Y-121113000D01*
X129184389Y-121113000D01*
X129204804Y-121398429D01*
X129265629Y-121678041D01*
X129365634Y-121946163D01*
X129502772Y-122197313D01*
X129588517Y-122311855D01*
X129674261Y-122426395D01*
X129876605Y-122628739D01*
X130048415Y-122757354D01*
X130105686Y-122800227D01*
X130121751Y-122808999D01*
X130356839Y-122937367D01*
X130624954Y-123037369D01*
X130624957Y-123037369D01*
X130624958Y-123037370D01*
X130657307Y-123044407D01*
X130904572Y-123098196D01*
X131190000Y-123118610D01*
X131475428Y-123098196D01*
X131755046Y-123037369D01*
X132023161Y-122937367D01*
X132274315Y-122800226D01*
X132503395Y-122628739D01*
X132705739Y-122426395D01*
X132877226Y-122197315D01*
X133014367Y-121946161D01*
X133114369Y-121678046D01*
X133175196Y-121398428D01*
X133195610Y-121113000D01*
X133884389Y-121113000D01*
X133904804Y-121398429D01*
X133965629Y-121678041D01*
X134065634Y-121946163D01*
X134202772Y-122197313D01*
X134288517Y-122311855D01*
X134374261Y-122426395D01*
X134576605Y-122628739D01*
X134748415Y-122757354D01*
X134805686Y-122800227D01*
X134821751Y-122808999D01*
X135056839Y-122937367D01*
X135324954Y-123037369D01*
X135324957Y-123037369D01*
X135324958Y-123037370D01*
X135357307Y-123044407D01*
X135604572Y-123098196D01*
X135890000Y-123118610D01*
X136175428Y-123098196D01*
X136455046Y-123037369D01*
X136723161Y-122937367D01*
X136974315Y-122800226D01*
X137203395Y-122628739D01*
X137405739Y-122426395D01*
X137577226Y-122197315D01*
X137714367Y-121946161D01*
X137814369Y-121678046D01*
X137875196Y-121398428D01*
X137895610Y-121113000D01*
X138584389Y-121113000D01*
X138604804Y-121398429D01*
X138665629Y-121678041D01*
X138765634Y-121946163D01*
X138902772Y-122197313D01*
X138988517Y-122311855D01*
X139074261Y-122426395D01*
X139276605Y-122628739D01*
X139448415Y-122757354D01*
X139505686Y-122800227D01*
X139521751Y-122808999D01*
X139756839Y-122937367D01*
X140024954Y-123037369D01*
X140024957Y-123037369D01*
X140024958Y-123037370D01*
X140057307Y-123044407D01*
X140304572Y-123098196D01*
X140590000Y-123118610D01*
X140875428Y-123098196D01*
X141155046Y-123037369D01*
X141423161Y-122937367D01*
X141674315Y-122800226D01*
X141903395Y-122628739D01*
X142105739Y-122426395D01*
X142277226Y-122197315D01*
X142414367Y-121946161D01*
X142514369Y-121678046D01*
X142575196Y-121398428D01*
X142595610Y-121113000D01*
X142575196Y-120827572D01*
X142514369Y-120547954D01*
X142414367Y-120279839D01*
X142341910Y-120147144D01*
X142277227Y-120028686D01*
X142224977Y-119958888D01*
X142105739Y-119799605D01*
X141903395Y-119597261D01*
X141739081Y-119474257D01*
X141674313Y-119425772D01*
X141423163Y-119288634D01*
X141423162Y-119288633D01*
X141423161Y-119288633D01*
X141416099Y-119285999D01*
X143933040Y-119285999D01*
X143952826Y-119474257D01*
X144011320Y-119654284D01*
X144105966Y-119818216D01*
X144232629Y-119958889D01*
X144385769Y-120070151D01*
X144558697Y-120147144D01*
X144743852Y-120186500D01*
X144743854Y-120186500D01*
X144933146Y-120186500D01*
X144933148Y-120186500D01*
X145056584Y-120160262D01*
X145118303Y-120147144D01*
X145291230Y-120070151D01*
X145444371Y-119958888D01*
X145571033Y-119818216D01*
X145665679Y-119654284D01*
X145724174Y-119474256D01*
X145743960Y-119286000D01*
X145724174Y-119097744D01*
X145665679Y-118917716D01*
X145665679Y-118917715D01*
X145571033Y-118753783D01*
X145444370Y-118613110D01*
X145291230Y-118501848D01*
X145118302Y-118424855D01*
X144933148Y-118385500D01*
X144933146Y-118385500D01*
X144743854Y-118385500D01*
X144743852Y-118385500D01*
X144558697Y-118424855D01*
X144385769Y-118501848D01*
X144232629Y-118613110D01*
X144105966Y-118753783D01*
X144011320Y-118917715D01*
X143952826Y-119097742D01*
X143933040Y-119285999D01*
X141416099Y-119285999D01*
X141155046Y-119188631D01*
X141155041Y-119188629D01*
X140875429Y-119127804D01*
X140590000Y-119107389D01*
X140304570Y-119127804D01*
X140024958Y-119188629D01*
X139756836Y-119288634D01*
X139505686Y-119425772D01*
X139276602Y-119597263D01*
X139074263Y-119799602D01*
X138902772Y-120028686D01*
X138765634Y-120279836D01*
X138665629Y-120547958D01*
X138604804Y-120827570D01*
X138584389Y-121113000D01*
X137895610Y-121113000D01*
X137875196Y-120827572D01*
X137814369Y-120547954D01*
X137714367Y-120279839D01*
X137641910Y-120147144D01*
X137577227Y-120028686D01*
X137524977Y-119958888D01*
X137405739Y-119799605D01*
X137203395Y-119597261D01*
X137039081Y-119474257D01*
X136974313Y-119425772D01*
X136723163Y-119288634D01*
X136723162Y-119288633D01*
X136723161Y-119288633D01*
X136455046Y-119188631D01*
X136455041Y-119188629D01*
X136175429Y-119127804D01*
X135890000Y-119107389D01*
X135604570Y-119127804D01*
X135324958Y-119188629D01*
X135056836Y-119288634D01*
X134805686Y-119425772D01*
X134576602Y-119597263D01*
X134374263Y-119799602D01*
X134202772Y-120028686D01*
X134065634Y-120279836D01*
X133965629Y-120547958D01*
X133904804Y-120827570D01*
X133884389Y-121113000D01*
X133195610Y-121113000D01*
X133175196Y-120827572D01*
X133114369Y-120547954D01*
X133014367Y-120279839D01*
X132941910Y-120147144D01*
X132877227Y-120028686D01*
X132824977Y-119958888D01*
X132705739Y-119799605D01*
X132503395Y-119597261D01*
X132339081Y-119474257D01*
X132274313Y-119425772D01*
X132023163Y-119288634D01*
X132023162Y-119288633D01*
X132023161Y-119288633D01*
X131755046Y-119188631D01*
X131755041Y-119188629D01*
X131475429Y-119127804D01*
X131190000Y-119107389D01*
X130904570Y-119127804D01*
X130624958Y-119188629D01*
X130356836Y-119288634D01*
X130105686Y-119425772D01*
X129876602Y-119597263D01*
X129674263Y-119799602D01*
X129502772Y-120028686D01*
X129365634Y-120279836D01*
X129265629Y-120547958D01*
X129204804Y-120827570D01*
X129184389Y-121113000D01*
X119167681Y-121113000D01*
X119284035Y-120946830D01*
X119383903Y-120732663D01*
X119445063Y-120504408D01*
X119465659Y-120269000D01*
X119445063Y-120033592D01*
X119383903Y-119805337D01*
X119284035Y-119591171D01*
X119148495Y-119397599D01*
X118981401Y-119230505D01*
X118795839Y-119100573D01*
X118756975Y-119056257D01*
X118742964Y-118999000D01*
X118756975Y-118941743D01*
X118795839Y-118897426D01*
X118981401Y-118767495D01*
X119148495Y-118600401D01*
X119284035Y-118406830D01*
X119383903Y-118192663D01*
X119445063Y-117964408D01*
X119465659Y-117729000D01*
X119445063Y-117493592D01*
X119393994Y-117302999D01*
X154093040Y-117302999D01*
X154112826Y-117491257D01*
X154171320Y-117671284D01*
X154265966Y-117835216D01*
X154392629Y-117975889D01*
X154545769Y-118087151D01*
X154718697Y-118164144D01*
X154903852Y-118203500D01*
X154903854Y-118203500D01*
X155093146Y-118203500D01*
X155093148Y-118203500D01*
X155216584Y-118177262D01*
X155278303Y-118164144D01*
X155451230Y-118087151D01*
X155604371Y-117975888D01*
X155731033Y-117835216D01*
X155825679Y-117671284D01*
X155884174Y-117491256D01*
X155903960Y-117303000D01*
X155884174Y-117114744D01*
X155825679Y-116934716D01*
X155825679Y-116934715D01*
X155731033Y-116770783D01*
X155604370Y-116630110D01*
X155451230Y-116518848D01*
X155278302Y-116441855D01*
X155093148Y-116402500D01*
X155093146Y-116402500D01*
X154903854Y-116402500D01*
X154903852Y-116402500D01*
X154718697Y-116441855D01*
X154545769Y-116518848D01*
X154392629Y-116630110D01*
X154265966Y-116770783D01*
X154171320Y-116934715D01*
X154112826Y-117114742D01*
X154093040Y-117302999D01*
X119393994Y-117302999D01*
X119383903Y-117265337D01*
X119284035Y-117051171D01*
X119148495Y-116857599D01*
X118981401Y-116690505D01*
X118795839Y-116560573D01*
X118756975Y-116516257D01*
X118742964Y-116459000D01*
X118756975Y-116401743D01*
X118795839Y-116357426D01*
X118981401Y-116227495D01*
X119148495Y-116060401D01*
X119284035Y-115866830D01*
X119383903Y-115652663D01*
X119445063Y-115424408D01*
X119465659Y-115189000D01*
X119445063Y-114953592D01*
X119383903Y-114725337D01*
X119284035Y-114511171D01*
X119148495Y-114317599D01*
X118981401Y-114150505D01*
X118787830Y-114014965D01*
X118573663Y-113915097D01*
X118512501Y-113898709D01*
X118345407Y-113853936D01*
X118110000Y-113833340D01*
X117874592Y-113853936D01*
X117646336Y-113915097D01*
X117432170Y-114014965D01*
X117238598Y-114150505D01*
X117071505Y-114317598D01*
X116941575Y-114503159D01*
X116897257Y-114542025D01*
X116840000Y-114556036D01*
X116782743Y-114542025D01*
X116738425Y-114503159D01*
X116608494Y-114317598D01*
X116441404Y-114150508D01*
X116441401Y-114150505D01*
X116247830Y-114014965D01*
X116033663Y-113915097D01*
X115972501Y-113898709D01*
X115805407Y-113853936D01*
X115570000Y-113833340D01*
X115334592Y-113853936D01*
X115106336Y-113915097D01*
X114892170Y-114014965D01*
X114698598Y-114150505D01*
X114531505Y-114317598D01*
X114395965Y-114511170D01*
X114296097Y-114725336D01*
X114234936Y-114953592D01*
X114214340Y-115189000D01*
X114234936Y-115424407D01*
X114279709Y-115591502D01*
X114296097Y-115652663D01*
X114395965Y-115866830D01*
X114531505Y-116060401D01*
X114698599Y-116227495D01*
X114884160Y-116357426D01*
X114923024Y-116401743D01*
X114937035Y-116459000D01*
X114923024Y-116516257D01*
X114884159Y-116560575D01*
X114698595Y-116690508D01*
X114531505Y-116857598D01*
X114395965Y-117051170D01*
X114296097Y-117265336D01*
X114234936Y-117493592D01*
X114214340Y-117728999D01*
X114234936Y-117964407D01*
X114238013Y-117975889D01*
X114296097Y-118192663D01*
X114395965Y-118406830D01*
X114531505Y-118600401D01*
X114698599Y-118767495D01*
X114884160Y-118897426D01*
X114923024Y-118941743D01*
X114937035Y-118999000D01*
X114923024Y-119056257D01*
X114884158Y-119100575D01*
X114758405Y-119188629D01*
X114698595Y-119230508D01*
X114531505Y-119397598D01*
X114395965Y-119591170D01*
X114296097Y-119805336D01*
X114234936Y-120033592D01*
X114214340Y-120269000D01*
X114234936Y-120504407D01*
X114246606Y-120547958D01*
X114296097Y-120732663D01*
X114395965Y-120946830D01*
X114531505Y-121140401D01*
X114698599Y-121307495D01*
X114884160Y-121437426D01*
X114923024Y-121481743D01*
X114937035Y-121539000D01*
X114923024Y-121596257D01*
X114884159Y-121640575D01*
X114698595Y-121770508D01*
X114531505Y-121937598D01*
X114395965Y-122131170D01*
X114296097Y-122345336D01*
X114234936Y-122573592D01*
X114214340Y-122808999D01*
X114234936Y-123044407D01*
X114249349Y-123098195D01*
X114296097Y-123272663D01*
X114395965Y-123486830D01*
X114531505Y-123680401D01*
X114698599Y-123847495D01*
X114884160Y-123977426D01*
X114923024Y-124021743D01*
X114937035Y-124079000D01*
X114923024Y-124136257D01*
X114884159Y-124180575D01*
X114698595Y-124310508D01*
X114531505Y-124477598D01*
X114395965Y-124671170D01*
X114296097Y-124885336D01*
X114234936Y-125113592D01*
X114214340Y-125349000D01*
X111564500Y-125349000D01*
X111564500Y-112985000D01*
X136440040Y-112985000D01*
X136459826Y-113173257D01*
X136518320Y-113353284D01*
X136612966Y-113517216D01*
X136739629Y-113657889D01*
X136892769Y-113769151D01*
X137065697Y-113846144D01*
X137250852Y-113885500D01*
X137250854Y-113885500D01*
X137440146Y-113885500D01*
X137440148Y-113885500D01*
X137563583Y-113859262D01*
X137625303Y-113846144D01*
X137798230Y-113769151D01*
X137951371Y-113657888D01*
X138078033Y-113517216D01*
X138172679Y-113353284D01*
X138231174Y-113173256D01*
X138250960Y-112985000D01*
X138231174Y-112796744D01*
X138172679Y-112616716D01*
X138172679Y-112616715D01*
X138078033Y-112452783D01*
X137951370Y-112312110D01*
X137798230Y-112200848D01*
X137625302Y-112123855D01*
X137440148Y-112084500D01*
X137440146Y-112084500D01*
X137250854Y-112084500D01*
X137250852Y-112084500D01*
X137065697Y-112123855D01*
X136892769Y-112200848D01*
X136739629Y-112312110D01*
X136612966Y-112452783D01*
X136518320Y-112616715D01*
X136459826Y-112796742D01*
X136440040Y-112985000D01*
X111564500Y-112985000D01*
X111564500Y-110040869D01*
X119289500Y-110040869D01*
X119295909Y-110100484D01*
X119310073Y-110138458D01*
X119346204Y-110235331D01*
X119432454Y-110350546D01*
X119547669Y-110436796D01*
X119682517Y-110487091D01*
X119742127Y-110493500D01*
X121637872Y-110493499D01*
X121697483Y-110487091D01*
X121832331Y-110436796D01*
X121947546Y-110350546D01*
X122033796Y-110235331D01*
X122052093Y-110186272D01*
X122084205Y-110138458D01*
X122134458Y-110110308D01*
X122192007Y-110107900D01*
X122244435Y-110131753D01*
X122421374Y-110269470D01*
X122625497Y-110379936D01*
X122735257Y-110417616D01*
X122845015Y-110455297D01*
X122845017Y-110455297D01*
X122845019Y-110455298D01*
X123073951Y-110493500D01*
X123306048Y-110493500D01*
X123306049Y-110493500D01*
X123534981Y-110455298D01*
X123754503Y-110379936D01*
X123958626Y-110269470D01*
X124141784Y-110126913D01*
X124298979Y-109956153D01*
X124336192Y-109899193D01*
X124380982Y-109857961D01*
X124440000Y-109843016D01*
X124499018Y-109857961D01*
X124543807Y-109899193D01*
X124581021Y-109956153D01*
X124738216Y-110126913D01*
X124921374Y-110269470D01*
X125125497Y-110379936D01*
X125235257Y-110417616D01*
X125345015Y-110455297D01*
X125345017Y-110455297D01*
X125345019Y-110455298D01*
X125573951Y-110493500D01*
X125806048Y-110493500D01*
X125806049Y-110493500D01*
X126034981Y-110455298D01*
X126254503Y-110379936D01*
X126458626Y-110269470D01*
X126641784Y-110126913D01*
X126798979Y-109956153D01*
X126925924Y-109761849D01*
X127019157Y-109549300D01*
X127071400Y-109343000D01*
X144690000Y-109343000D01*
X144690000Y-110040824D01*
X144696402Y-110100375D01*
X144746647Y-110235089D01*
X144832811Y-110350188D01*
X144947910Y-110436352D01*
X145082624Y-110486597D01*
X145142176Y-110493000D01*
X145840000Y-110493000D01*
X146340000Y-110493000D01*
X147037824Y-110493000D01*
X147097375Y-110486597D01*
X147232089Y-110436352D01*
X147347188Y-110350188D01*
X147433352Y-110235088D01*
X147451679Y-110185953D01*
X147483792Y-110138136D01*
X147534045Y-110109986D01*
X147591595Y-110107579D01*
X147644020Y-110131430D01*
X147821374Y-110269470D01*
X148025497Y-110379936D01*
X148135257Y-110417616D01*
X148245015Y-110455297D01*
X148245017Y-110455297D01*
X148245019Y-110455298D01*
X148473951Y-110493500D01*
X148706048Y-110493500D01*
X148706049Y-110493500D01*
X148934981Y-110455298D01*
X149154503Y-110379936D01*
X149358626Y-110269470D01*
X149541784Y-110126913D01*
X149698979Y-109956153D01*
X149736192Y-109899193D01*
X149780982Y-109857961D01*
X149840000Y-109843016D01*
X149899018Y-109857961D01*
X149943807Y-109899193D01*
X149981021Y-109956153D01*
X150138216Y-110126913D01*
X150321374Y-110269470D01*
X150525497Y-110379936D01*
X150635257Y-110417616D01*
X150745015Y-110455297D01*
X150745017Y-110455297D01*
X150745019Y-110455298D01*
X150973951Y-110493500D01*
X151206048Y-110493500D01*
X151206049Y-110493500D01*
X151434981Y-110455298D01*
X151654503Y-110379936D01*
X151858626Y-110269470D01*
X152041784Y-110126913D01*
X152198979Y-109956153D01*
X152325924Y-109761849D01*
X152419157Y-109549300D01*
X152476134Y-109324305D01*
X152495300Y-109093000D01*
X152476134Y-108861695D01*
X152419157Y-108636700D01*
X152325924Y-108424151D01*
X152198979Y-108229847D01*
X152041784Y-108059087D01*
X151858626Y-107916530D01*
X151654503Y-107806064D01*
X151654499Y-107806062D01*
X151654498Y-107806062D01*
X151434984Y-107730702D01*
X151244456Y-107698909D01*
X151206049Y-107692500D01*
X150973951Y-107692500D01*
X150935544Y-107698909D01*
X150745015Y-107730702D01*
X150525501Y-107806062D01*
X150525497Y-107806063D01*
X150525497Y-107806064D01*
X150389415Y-107879707D01*
X150321372Y-107916531D01*
X150138215Y-108059087D01*
X149992590Y-108217279D01*
X149981021Y-108229847D01*
X149943810Y-108286804D01*
X149943809Y-108286805D01*
X149899017Y-108328038D01*
X149840000Y-108342983D01*
X149780983Y-108328038D01*
X149736191Y-108286805D01*
X149698979Y-108229847D01*
X149541784Y-108059087D01*
X149358626Y-107916530D01*
X149154503Y-107806064D01*
X149154499Y-107806062D01*
X149154498Y-107806062D01*
X148934984Y-107730702D01*
X148744456Y-107698909D01*
X148706049Y-107692500D01*
X148473951Y-107692500D01*
X148435544Y-107698909D01*
X148245015Y-107730702D01*
X148025501Y-107806062D01*
X148025497Y-107806063D01*
X148025497Y-107806064D01*
X147889415Y-107879707D01*
X147821372Y-107916531D01*
X147644023Y-108054567D01*
X147591595Y-108078421D01*
X147534045Y-108076013D01*
X147483792Y-108047864D01*
X147451679Y-108000046D01*
X147433352Y-107950911D01*
X147347188Y-107835811D01*
X147232089Y-107749647D01*
X147097375Y-107699402D01*
X147037824Y-107693000D01*
X146340000Y-107693000D01*
X146340000Y-110493000D01*
X145840000Y-110493000D01*
X145840000Y-109343000D01*
X144690000Y-109343000D01*
X127071400Y-109343000D01*
X127076134Y-109324305D01*
X127095300Y-109093000D01*
X127076134Y-108861695D01*
X127071400Y-108843000D01*
X144690000Y-108843000D01*
X145840000Y-108843000D01*
X145840000Y-107693000D01*
X145142176Y-107693000D01*
X145082624Y-107699402D01*
X144947910Y-107749647D01*
X144832811Y-107835811D01*
X144746647Y-107950910D01*
X144696402Y-108085624D01*
X144690000Y-108145176D01*
X144690000Y-108843000D01*
X127071400Y-108843000D01*
X127019157Y-108636700D01*
X126925924Y-108424151D01*
X126798979Y-108229847D01*
X126641784Y-108059087D01*
X126458626Y-107916530D01*
X126254503Y-107806064D01*
X126254499Y-107806062D01*
X126254498Y-107806062D01*
X126034984Y-107730702D01*
X125844456Y-107698909D01*
X125806049Y-107692500D01*
X125573951Y-107692500D01*
X125535544Y-107698909D01*
X125345015Y-107730702D01*
X125125501Y-107806062D01*
X125125497Y-107806063D01*
X125125497Y-107806064D01*
X124989415Y-107879707D01*
X124921372Y-107916531D01*
X124738215Y-108059087D01*
X124581020Y-108229847D01*
X124543807Y-108286806D01*
X124499015Y-108328038D01*
X124439998Y-108342983D01*
X124380980Y-108328037D01*
X124336192Y-108286805D01*
X124298979Y-108229847D01*
X124141784Y-108059087D01*
X123958626Y-107916530D01*
X123754503Y-107806064D01*
X123754499Y-107806062D01*
X123754498Y-107806062D01*
X123534984Y-107730702D01*
X123344456Y-107698909D01*
X123306049Y-107692500D01*
X123073951Y-107692500D01*
X123035544Y-107698909D01*
X122845015Y-107730702D01*
X122625501Y-107806062D01*
X122625497Y-107806063D01*
X122625497Y-107806064D01*
X122489415Y-107879707D01*
X122421372Y-107916531D01*
X122244436Y-108054245D01*
X122192007Y-108078099D01*
X122134458Y-108075691D01*
X122084205Y-108047541D01*
X122052092Y-107999724D01*
X122033796Y-107950669D01*
X121947546Y-107835454D01*
X121832331Y-107749204D01*
X121697483Y-107698909D01*
X121637873Y-107692500D01*
X121637869Y-107692500D01*
X119742130Y-107692500D01*
X119682515Y-107698909D01*
X119547669Y-107749204D01*
X119432454Y-107835454D01*
X119346204Y-107950668D01*
X119298555Y-108078421D01*
X119295909Y-108085517D01*
X119291004Y-108131144D01*
X119289500Y-108145130D01*
X119289500Y-110040869D01*
X111564500Y-110040869D01*
X111564500Y-107270000D01*
X128947040Y-107270000D01*
X128966826Y-107458257D01*
X129025320Y-107638284D01*
X129119966Y-107802216D01*
X129246629Y-107942889D01*
X129399769Y-108054151D01*
X129572697Y-108131144D01*
X129757852Y-108170500D01*
X129757854Y-108170500D01*
X129947146Y-108170500D01*
X129947148Y-108170500D01*
X130070584Y-108144262D01*
X130132303Y-108131144D01*
X130305230Y-108054151D01*
X130314328Y-108047541D01*
X130458370Y-107942889D01*
X130585033Y-107802216D01*
X130679679Y-107638284D01*
X130679679Y-107638283D01*
X130738174Y-107458256D01*
X130757960Y-107270000D01*
X130738174Y-107081744D01*
X130679679Y-106901716D01*
X130679679Y-106901715D01*
X130585033Y-106737783D01*
X130458370Y-106597110D01*
X130305230Y-106485848D01*
X130132302Y-106408855D01*
X129947148Y-106369500D01*
X129947146Y-106369500D01*
X129757854Y-106369500D01*
X129757852Y-106369500D01*
X129572697Y-106408855D01*
X129399769Y-106485848D01*
X129246629Y-106597110D01*
X129119966Y-106737783D01*
X129025320Y-106901715D01*
X128966826Y-107081742D01*
X128947040Y-107270000D01*
X111564500Y-107270000D01*
X111564500Y-106253999D01*
X122343040Y-106253999D01*
X122362826Y-106442257D01*
X122421320Y-106622284D01*
X122515966Y-106786216D01*
X122642629Y-106926889D01*
X122795769Y-107038151D01*
X122968697Y-107115144D01*
X123153852Y-107154500D01*
X123153854Y-107154500D01*
X123343146Y-107154500D01*
X123343148Y-107154500D01*
X123466584Y-107128262D01*
X123528303Y-107115144D01*
X123701230Y-107038151D01*
X123854371Y-106926888D01*
X123981033Y-106786216D01*
X124075679Y-106622284D01*
X124134174Y-106442256D01*
X124153960Y-106254000D01*
X124134174Y-106065744D01*
X124075679Y-105885716D01*
X124075679Y-105885715D01*
X123981033Y-105721783D01*
X123854370Y-105581110D01*
X123701230Y-105469848D01*
X123528302Y-105392855D01*
X123343148Y-105353500D01*
X123343146Y-105353500D01*
X123153854Y-105353500D01*
X123153852Y-105353500D01*
X122968697Y-105392855D01*
X122795769Y-105469848D01*
X122642629Y-105581110D01*
X122515966Y-105721783D01*
X122421320Y-105885715D01*
X122362826Y-106065742D01*
X122343040Y-106253999D01*
X111564500Y-106253999D01*
X111564500Y-101921003D01*
X116529500Y-101921003D01*
X116544402Y-102124617D01*
X116603616Y-102390438D01*
X116652944Y-102519410D01*
X116700907Y-102644814D01*
X116834196Y-102882310D01*
X116917420Y-102990088D01*
X117000645Y-103097869D01*
X117196704Y-103286894D01*
X117418199Y-103445359D01*
X117547906Y-103512046D01*
X117660403Y-103569885D01*
X117918159Y-103657819D01*
X117918161Y-103657819D01*
X117918163Y-103657820D01*
X118185970Y-103707286D01*
X118458130Y-103717232D01*
X118458130Y-103717231D01*
X118458131Y-103717232D01*
X118728839Y-103687446D01*
X118992326Y-103618562D01*
X119242975Y-103512047D01*
X119475444Y-103370173D01*
X119684779Y-103195963D01*
X119866518Y-102993131D01*
X120016788Y-102765998D01*
X120132386Y-102519406D01*
X120210847Y-102258611D01*
X120250500Y-101989171D01*
X120250500Y-101921003D01*
X126129500Y-101921003D01*
X126144402Y-102124617D01*
X126203616Y-102390438D01*
X126252944Y-102519410D01*
X126300907Y-102644814D01*
X126434196Y-102882310D01*
X126517420Y-102990088D01*
X126600645Y-103097869D01*
X126796704Y-103286894D01*
X127018199Y-103445359D01*
X127147906Y-103512046D01*
X127260403Y-103569885D01*
X127518159Y-103657819D01*
X127518161Y-103657819D01*
X127518163Y-103657820D01*
X127785970Y-103707286D01*
X128058130Y-103717232D01*
X128058130Y-103717231D01*
X128058131Y-103717232D01*
X128328839Y-103687446D01*
X128592326Y-103618562D01*
X128842975Y-103512047D01*
X129075444Y-103370173D01*
X129284779Y-103195963D01*
X129466518Y-102993131D01*
X129616788Y-102765998D01*
X129732386Y-102519406D01*
X129810847Y-102258611D01*
X129850500Y-101989171D01*
X129850500Y-101921003D01*
X141929500Y-101921003D01*
X141944402Y-102124617D01*
X142003616Y-102390438D01*
X142052944Y-102519410D01*
X142100907Y-102644814D01*
X142234196Y-102882310D01*
X142317420Y-102990088D01*
X142400645Y-103097869D01*
X142596704Y-103286894D01*
X142818199Y-103445359D01*
X142947906Y-103512046D01*
X143060403Y-103569885D01*
X143318159Y-103657819D01*
X143318161Y-103657819D01*
X143318163Y-103657820D01*
X143585970Y-103707286D01*
X143858130Y-103717232D01*
X143858130Y-103717231D01*
X143858131Y-103717232D01*
X144128839Y-103687446D01*
X144392326Y-103618562D01*
X144642975Y-103512047D01*
X144875444Y-103370173D01*
X145084779Y-103195963D01*
X145266518Y-102993131D01*
X145416788Y-102765998D01*
X145532386Y-102519406D01*
X145610847Y-102258611D01*
X145650500Y-101989171D01*
X145650500Y-101921003D01*
X151529500Y-101921003D01*
X151544402Y-102124617D01*
X151603616Y-102390438D01*
X151652944Y-102519410D01*
X151700907Y-102644814D01*
X151834196Y-102882310D01*
X151917420Y-102990088D01*
X152000645Y-103097869D01*
X152196704Y-103286894D01*
X152418199Y-103445359D01*
X152547906Y-103512046D01*
X152660403Y-103569885D01*
X152918159Y-103657819D01*
X152918161Y-103657819D01*
X152918163Y-103657820D01*
X153185970Y-103707286D01*
X153458130Y-103717232D01*
X153458130Y-103717231D01*
X153458131Y-103717232D01*
X153728839Y-103687446D01*
X153992326Y-103618562D01*
X154242975Y-103512047D01*
X154475444Y-103370173D01*
X154684779Y-103195963D01*
X154866518Y-102993131D01*
X155016788Y-102765998D01*
X155132386Y-102519406D01*
X155210847Y-102258611D01*
X155250500Y-101989171D01*
X155250500Y-101265000D01*
X155245510Y-101196829D01*
X155235597Y-101061382D01*
X155176383Y-100795561D01*
X155127057Y-100666594D01*
X155079093Y-100541186D01*
X154945804Y-100303690D01*
X154838023Y-100164110D01*
X154779354Y-100088130D01*
X154583295Y-99899105D01*
X154361800Y-99740640D01*
X154119602Y-99616117D01*
X154119598Y-99616115D01*
X154119597Y-99616115D01*
X153976913Y-99567438D01*
X153861836Y-99528179D01*
X153594029Y-99478713D01*
X153321869Y-99468767D01*
X153051162Y-99498553D01*
X152787674Y-99567438D01*
X152537024Y-99673953D01*
X152304556Y-99815826D01*
X152095223Y-99990035D01*
X151913480Y-100192871D01*
X151763210Y-100420005D01*
X151647615Y-100666589D01*
X151569153Y-100927388D01*
X151569153Y-100927389D01*
X151549434Y-101061382D01*
X151529500Y-101196832D01*
X151529500Y-101921003D01*
X145650500Y-101921003D01*
X145650500Y-101265000D01*
X145645510Y-101196829D01*
X145635597Y-101061382D01*
X145576383Y-100795561D01*
X145527057Y-100666594D01*
X145479093Y-100541186D01*
X145345804Y-100303690D01*
X145238023Y-100164110D01*
X145179354Y-100088130D01*
X144983295Y-99899105D01*
X144761800Y-99740640D01*
X144519602Y-99616117D01*
X144519598Y-99616115D01*
X144519597Y-99616115D01*
X144376913Y-99567438D01*
X144261836Y-99528179D01*
X144233792Y-99522999D01*
X146727040Y-99522999D01*
X146746826Y-99711257D01*
X146805320Y-99891284D01*
X146899966Y-100055216D01*
X147026629Y-100195889D01*
X147179769Y-100307151D01*
X147352697Y-100384144D01*
X147537852Y-100423500D01*
X147537854Y-100423500D01*
X147727146Y-100423500D01*
X147727148Y-100423500D01*
X147850583Y-100397262D01*
X147912303Y-100384144D01*
X148085230Y-100307151D01*
X148238371Y-100195888D01*
X148365033Y-100055216D01*
X148459679Y-99891284D01*
X148518174Y-99711256D01*
X148537960Y-99523000D01*
X148518174Y-99334744D01*
X148459679Y-99154716D01*
X148459679Y-99154715D01*
X148365033Y-98990783D01*
X148238370Y-98850110D01*
X148085230Y-98738848D01*
X147912302Y-98661855D01*
X147727148Y-98622500D01*
X147727146Y-98622500D01*
X147537854Y-98622500D01*
X147537852Y-98622500D01*
X147352697Y-98661855D01*
X147179769Y-98738848D01*
X147026629Y-98850110D01*
X146899966Y-98990783D01*
X146805320Y-99154715D01*
X146746826Y-99334742D01*
X146727040Y-99522999D01*
X144233792Y-99522999D01*
X143994029Y-99478713D01*
X143721869Y-99468767D01*
X143451162Y-99498553D01*
X143187674Y-99567438D01*
X142937024Y-99673953D01*
X142704556Y-99815826D01*
X142495223Y-99990035D01*
X142313480Y-100192871D01*
X142163210Y-100420005D01*
X142047615Y-100666589D01*
X141969153Y-100927388D01*
X141969153Y-100927389D01*
X141949434Y-101061382D01*
X141929500Y-101196832D01*
X141929500Y-101921003D01*
X129850500Y-101921003D01*
X129850500Y-101265000D01*
X129845510Y-101196829D01*
X129835597Y-101061382D01*
X129776383Y-100795561D01*
X129727057Y-100666594D01*
X129679093Y-100541186D01*
X129545804Y-100303690D01*
X129438023Y-100164110D01*
X129379354Y-100088130D01*
X129183295Y-99899105D01*
X128961800Y-99740640D01*
X128719602Y-99616117D01*
X128719598Y-99616115D01*
X128719597Y-99616115D01*
X128576913Y-99567438D01*
X128461836Y-99528179D01*
X128194029Y-99478713D01*
X127921869Y-99468767D01*
X127651162Y-99498553D01*
X127387674Y-99567438D01*
X127137024Y-99673953D01*
X126904556Y-99815826D01*
X126695223Y-99990035D01*
X126513480Y-100192871D01*
X126363210Y-100420005D01*
X126247615Y-100666589D01*
X126169153Y-100927388D01*
X126169153Y-100927389D01*
X126149434Y-101061382D01*
X126129500Y-101196832D01*
X126129500Y-101921003D01*
X120250500Y-101921003D01*
X120250500Y-101265000D01*
X120245510Y-101196829D01*
X120235597Y-101061382D01*
X120176383Y-100795561D01*
X120127057Y-100666594D01*
X120079093Y-100541186D01*
X119945804Y-100303690D01*
X119838023Y-100164110D01*
X119779354Y-100088130D01*
X119583295Y-99899105D01*
X119361800Y-99740640D01*
X119119602Y-99616117D01*
X119119598Y-99616115D01*
X119119597Y-99616115D01*
X118976913Y-99567438D01*
X118861836Y-99528179D01*
X118594029Y-99478713D01*
X118321869Y-99468767D01*
X118051162Y-99498553D01*
X117787674Y-99567438D01*
X117537024Y-99673953D01*
X117304556Y-99815826D01*
X117095223Y-99990035D01*
X116913480Y-100192871D01*
X116763210Y-100420005D01*
X116647615Y-100666589D01*
X116569153Y-100927388D01*
X116569153Y-100927389D01*
X116549434Y-101061382D01*
X116529500Y-101196832D01*
X116529500Y-101921003D01*
X111564500Y-101921003D01*
X111564500Y-97618000D01*
X124375040Y-97618000D01*
X124394826Y-97806257D01*
X124453320Y-97986284D01*
X124547966Y-98150216D01*
X124674629Y-98290889D01*
X124827769Y-98402151D01*
X125000697Y-98479144D01*
X125185852Y-98518500D01*
X125185854Y-98518500D01*
X125375146Y-98518500D01*
X125375148Y-98518500D01*
X125498584Y-98492262D01*
X125560303Y-98479144D01*
X125733230Y-98402151D01*
X125886371Y-98290888D01*
X126013033Y-98150216D01*
X126107679Y-97986284D01*
X126144812Y-97872000D01*
X136313040Y-97872000D01*
X136332826Y-98060257D01*
X136391320Y-98240284D01*
X136485966Y-98404216D01*
X136612629Y-98544889D01*
X136765769Y-98656151D01*
X136938697Y-98733144D01*
X137123852Y-98772500D01*
X137123854Y-98772500D01*
X137313146Y-98772500D01*
X137313148Y-98772500D01*
X137436583Y-98746262D01*
X137498303Y-98733144D01*
X137671230Y-98656151D01*
X137824371Y-98544888D01*
X137951033Y-98404216D01*
X138045679Y-98240284D01*
X138104174Y-98060256D01*
X138123960Y-97872000D01*
X138104174Y-97683744D01*
X138045679Y-97503716D01*
X138045679Y-97503715D01*
X137951033Y-97339783D01*
X137824370Y-97199110D01*
X137671230Y-97087848D01*
X137498302Y-97010855D01*
X137313148Y-96971500D01*
X137313146Y-96971500D01*
X137123854Y-96971500D01*
X137123852Y-96971500D01*
X136938697Y-97010855D01*
X136765769Y-97087848D01*
X136612629Y-97199110D01*
X136485966Y-97339783D01*
X136391320Y-97503715D01*
X136332826Y-97683742D01*
X136313040Y-97872000D01*
X126144812Y-97872000D01*
X126166174Y-97806256D01*
X126185960Y-97618000D01*
X126166174Y-97429744D01*
X126107679Y-97249716D01*
X126107679Y-97249715D01*
X126013033Y-97085783D01*
X125886370Y-96945110D01*
X125733230Y-96833848D01*
X125560302Y-96756855D01*
X125375148Y-96717500D01*
X125375146Y-96717500D01*
X125185854Y-96717500D01*
X125185852Y-96717500D01*
X125000697Y-96756855D01*
X124827769Y-96833848D01*
X124674629Y-96945110D01*
X124547966Y-97085783D01*
X124453320Y-97249715D01*
X124394826Y-97429742D01*
X124375040Y-97618000D01*
X111564500Y-97618000D01*
X111564500Y-95713000D01*
X153839040Y-95713000D01*
X153858826Y-95901257D01*
X153917320Y-96081284D01*
X154011966Y-96245216D01*
X154138629Y-96385889D01*
X154291769Y-96497151D01*
X154464697Y-96574144D01*
X154649852Y-96613500D01*
X154649854Y-96613500D01*
X154839146Y-96613500D01*
X154839148Y-96613500D01*
X154962584Y-96587262D01*
X155024303Y-96574144D01*
X155197230Y-96497151D01*
X155350371Y-96385888D01*
X155477033Y-96245216D01*
X155571679Y-96081284D01*
X155630174Y-95901256D01*
X155649960Y-95713000D01*
X155630174Y-95524744D01*
X155571679Y-95344716D01*
X155571679Y-95344715D01*
X155477033Y-95180783D01*
X155350370Y-95040110D01*
X155197230Y-94928848D01*
X155024302Y-94851855D01*
X154839148Y-94812500D01*
X154839146Y-94812500D01*
X154649854Y-94812500D01*
X154649852Y-94812500D01*
X154464697Y-94851855D01*
X154291769Y-94928848D01*
X154138629Y-95040110D01*
X154011966Y-95180783D01*
X153917320Y-95344715D01*
X153858826Y-95524742D01*
X153839040Y-95713000D01*
X111564500Y-95713000D01*
X111564500Y-94570000D01*
X147870040Y-94570000D01*
X147889826Y-94758257D01*
X147948320Y-94938284D01*
X148042966Y-95102216D01*
X148169629Y-95242889D01*
X148322769Y-95354151D01*
X148495697Y-95431144D01*
X148680852Y-95470500D01*
X148680854Y-95470500D01*
X148870146Y-95470500D01*
X148870148Y-95470500D01*
X148993584Y-95444262D01*
X149055303Y-95431144D01*
X149228230Y-95354151D01*
X149381371Y-95242888D01*
X149508033Y-95102216D01*
X149602679Y-94938284D01*
X149661174Y-94758256D01*
X149680960Y-94570000D01*
X149661174Y-94381744D01*
X149602679Y-94201716D01*
X149602679Y-94201715D01*
X149528192Y-94072699D01*
X149511655Y-94006371D01*
X149532778Y-93941359D01*
X149585142Y-93897420D01*
X149736230Y-93830151D01*
X149736230Y-93830150D01*
X149736232Y-93830150D01*
X149889370Y-93718889D01*
X150016033Y-93578216D01*
X150110679Y-93414284D01*
X150142019Y-93317829D01*
X150169174Y-93234256D01*
X150188960Y-93046000D01*
X150169174Y-92857744D01*
X150110679Y-92677716D01*
X150110679Y-92677715D01*
X150016033Y-92513783D01*
X149889370Y-92373110D01*
X149736230Y-92261848D01*
X149563302Y-92184855D01*
X149378148Y-92145500D01*
X149378146Y-92145500D01*
X149188854Y-92145500D01*
X149188852Y-92145500D01*
X149003697Y-92184855D01*
X148830769Y-92261848D01*
X148677629Y-92373110D01*
X148550966Y-92513783D01*
X148456320Y-92677715D01*
X148397826Y-92857742D01*
X148378040Y-93046000D01*
X148397826Y-93234257D01*
X148456321Y-93414286D01*
X148530807Y-93543301D01*
X148547344Y-93609628D01*
X148526221Y-93674640D01*
X148473856Y-93718579D01*
X148322769Y-93785848D01*
X148169629Y-93897110D01*
X148042966Y-94037783D01*
X147948320Y-94201715D01*
X147889826Y-94381742D01*
X147870040Y-94570000D01*
X111564500Y-94570000D01*
X111564500Y-92029999D01*
X128947040Y-92029999D01*
X128966826Y-92218257D01*
X129025320Y-92398284D01*
X129119966Y-92562216D01*
X129246629Y-92702889D01*
X129399769Y-92814151D01*
X129572697Y-92891144D01*
X129757852Y-92930500D01*
X129757854Y-92930500D01*
X129947146Y-92930500D01*
X129947148Y-92930500D01*
X130070584Y-92904262D01*
X130132303Y-92891144D01*
X130305230Y-92814151D01*
X130458371Y-92702888D01*
X130585033Y-92562216D01*
X130679679Y-92398284D01*
X130726500Y-92254182D01*
X130752282Y-92209528D01*
X130793997Y-92179220D01*
X130844432Y-92168500D01*
X130963148Y-92168500D01*
X131086584Y-92142262D01*
X131148303Y-92129144D01*
X131321230Y-92052151D01*
X131390999Y-92001461D01*
X131474370Y-91940889D01*
X131601033Y-91800216D01*
X131695679Y-91636284D01*
X131736944Y-91509284D01*
X131754174Y-91456256D01*
X131773960Y-91268000D01*
X131754174Y-91079744D01*
X131695679Y-90899716D01*
X131695679Y-90899715D01*
X131601033Y-90735783D01*
X131562109Y-90692554D01*
X133451594Y-90692554D01*
X133471380Y-90880811D01*
X133529874Y-91060838D01*
X133624520Y-91224770D01*
X133751183Y-91365443D01*
X133904323Y-91476705D01*
X134077251Y-91553698D01*
X134262406Y-91593054D01*
X134262408Y-91593054D01*
X134451700Y-91593054D01*
X134451702Y-91593054D01*
X134575138Y-91566816D01*
X134636857Y-91553698D01*
X134809784Y-91476705D01*
X134962925Y-91365442D01*
X135089587Y-91224770D01*
X135184233Y-91060838D01*
X135242728Y-90880810D01*
X135250310Y-90808667D01*
X136141462Y-90808667D01*
X136161248Y-90996925D01*
X136219742Y-91176952D01*
X136314388Y-91340884D01*
X136441051Y-91481557D01*
X136594191Y-91592819D01*
X136767119Y-91669812D01*
X136952274Y-91709168D01*
X136980176Y-91709168D01*
X137044411Y-91727103D01*
X137090065Y-91775719D01*
X137103931Y-91840954D01*
X137081999Y-91903936D01*
X137030613Y-91946446D01*
X136996737Y-91961529D01*
X136907044Y-92001463D01*
X136753908Y-92112723D01*
X136627245Y-92253396D01*
X136532599Y-92417328D01*
X136474105Y-92597355D01*
X136454319Y-92785613D01*
X136474105Y-92973870D01*
X136532599Y-93153897D01*
X136627245Y-93317829D01*
X136753908Y-93458502D01*
X136907048Y-93569764D01*
X137079976Y-93646757D01*
X137265131Y-93686113D01*
X137265133Y-93686113D01*
X137454425Y-93686113D01*
X137454427Y-93686113D01*
X137577862Y-93659875D01*
X137639582Y-93646757D01*
X137812509Y-93569764D01*
X137965650Y-93458501D01*
X138092312Y-93317829D01*
X138186958Y-93153897D01*
X138245453Y-92973869D01*
X138265239Y-92785613D01*
X138245453Y-92597357D01*
X138186958Y-92417329D01*
X138186958Y-92417328D01*
X138092312Y-92253396D01*
X137965649Y-92112723D01*
X137812509Y-92001461D01*
X137639581Y-91924468D01*
X137454427Y-91885113D01*
X137454425Y-91885113D01*
X137426525Y-91885113D01*
X137362290Y-91867178D01*
X137316636Y-91818562D01*
X137302770Y-91753327D01*
X137324702Y-91690345D01*
X137376087Y-91647834D01*
X137499652Y-91592819D01*
X137499652Y-91592818D01*
X137499656Y-91592817D01*
X137652792Y-91481557D01*
X137779455Y-91340884D01*
X137874101Y-91176952D01*
X137876732Y-91168855D01*
X137885783Y-91140999D01*
X147616040Y-91140999D01*
X147635826Y-91329257D01*
X147694320Y-91509284D01*
X147788966Y-91673216D01*
X147915629Y-91813889D01*
X148068769Y-91925151D01*
X148241697Y-92002144D01*
X148426852Y-92041500D01*
X148426854Y-92041500D01*
X148616146Y-92041500D01*
X148616148Y-92041500D01*
X148739584Y-92015262D01*
X148801303Y-92002144D01*
X148974230Y-91925151D01*
X149029338Y-91885113D01*
X149127370Y-91813889D01*
X149181901Y-91753327D01*
X149254033Y-91673216D01*
X149348679Y-91509284D01*
X149407174Y-91329256D01*
X149426960Y-91141000D01*
X149407174Y-90952744D01*
X149348679Y-90772716D01*
X149348679Y-90772715D01*
X149254033Y-90608783D01*
X149127370Y-90468110D01*
X148974230Y-90356848D01*
X148801302Y-90279855D01*
X148616148Y-90240500D01*
X148616146Y-90240500D01*
X148426854Y-90240500D01*
X148426852Y-90240500D01*
X148241697Y-90279855D01*
X148068769Y-90356848D01*
X147915629Y-90468110D01*
X147788966Y-90608783D01*
X147694320Y-90772715D01*
X147635826Y-90952742D01*
X147616040Y-91140999D01*
X137885783Y-91140999D01*
X137932596Y-90996924D01*
X137952382Y-90808668D01*
X137932596Y-90620412D01*
X137888224Y-90483849D01*
X137874101Y-90440383D01*
X137779455Y-90276451D01*
X137652792Y-90135778D01*
X137499652Y-90024516D01*
X137326724Y-89947523D01*
X137141570Y-89908168D01*
X137141568Y-89908168D01*
X136952276Y-89908168D01*
X136952274Y-89908168D01*
X136767119Y-89947523D01*
X136594191Y-90024516D01*
X136441051Y-90135778D01*
X136314388Y-90276451D01*
X136219742Y-90440383D01*
X136161248Y-90620410D01*
X136141462Y-90808667D01*
X135250310Y-90808667D01*
X135262514Y-90692554D01*
X135242728Y-90504298D01*
X135211067Y-90406855D01*
X135184233Y-90324269D01*
X135089587Y-90160337D01*
X134962924Y-90019664D01*
X134809784Y-89908402D01*
X134636856Y-89831409D01*
X134451702Y-89792054D01*
X134451700Y-89792054D01*
X134262408Y-89792054D01*
X134262406Y-89792054D01*
X134077251Y-89831409D01*
X133904323Y-89908402D01*
X133751183Y-90019664D01*
X133624520Y-90160337D01*
X133529874Y-90324269D01*
X133471380Y-90504296D01*
X133451594Y-90692554D01*
X131562109Y-90692554D01*
X131474370Y-90595110D01*
X131321230Y-90483848D01*
X131148302Y-90406855D01*
X130963148Y-90367500D01*
X130963146Y-90367500D01*
X130773854Y-90367500D01*
X130773852Y-90367500D01*
X130588697Y-90406855D01*
X130415769Y-90483848D01*
X130262629Y-90595110D01*
X130135966Y-90735783D01*
X130041320Y-90899715D01*
X129994499Y-91043818D01*
X129968718Y-91088472D01*
X129927003Y-91118780D01*
X129876568Y-91129500D01*
X129757852Y-91129500D01*
X129572697Y-91168855D01*
X129399769Y-91245848D01*
X129246629Y-91357110D01*
X129119966Y-91497783D01*
X129025320Y-91661715D01*
X128966826Y-91841742D01*
X128947040Y-92029999D01*
X111564500Y-92029999D01*
X111564500Y-89236000D01*
X121581040Y-89236000D01*
X121600826Y-89424257D01*
X121659320Y-89604284D01*
X121753966Y-89768216D01*
X121880629Y-89908889D01*
X122033769Y-90020151D01*
X122206697Y-90097144D01*
X122391852Y-90136500D01*
X122391854Y-90136500D01*
X122581146Y-90136500D01*
X122581148Y-90136500D01*
X122704584Y-90110262D01*
X122766303Y-90097144D01*
X122939230Y-90020151D01*
X123039193Y-89947524D01*
X123092370Y-89908889D01*
X123092809Y-89908402D01*
X123219033Y-89768216D01*
X123313679Y-89604284D01*
X123372174Y-89424256D01*
X123391960Y-89236000D01*
X149140040Y-89236000D01*
X149159826Y-89424257D01*
X149218320Y-89604284D01*
X149312966Y-89768216D01*
X149439629Y-89908889D01*
X149592769Y-90020151D01*
X149765697Y-90097144D01*
X149950852Y-90136500D01*
X149950854Y-90136500D01*
X150140146Y-90136500D01*
X150140148Y-90136500D01*
X150263584Y-90110262D01*
X150325303Y-90097144D01*
X150498230Y-90020151D01*
X150598193Y-89947524D01*
X150651370Y-89908889D01*
X150651809Y-89908402D01*
X150778033Y-89768216D01*
X150872679Y-89604284D01*
X150931174Y-89424256D01*
X150950960Y-89236000D01*
X150931174Y-89047744D01*
X150872679Y-88867716D01*
X150872679Y-88867715D01*
X150778033Y-88703783D01*
X150651370Y-88563110D01*
X150498230Y-88451848D01*
X150325302Y-88374855D01*
X150140148Y-88335500D01*
X150140146Y-88335500D01*
X149950854Y-88335500D01*
X149950852Y-88335500D01*
X149765697Y-88374855D01*
X149592769Y-88451848D01*
X149439629Y-88563110D01*
X149312966Y-88703783D01*
X149218320Y-88867715D01*
X149159826Y-89047742D01*
X149140040Y-89236000D01*
X123391960Y-89236000D01*
X123372174Y-89047744D01*
X123313679Y-88867716D01*
X123313679Y-88867715D01*
X123219033Y-88703783D01*
X123092370Y-88563110D01*
X122939230Y-88451848D01*
X122766302Y-88374855D01*
X122581148Y-88335500D01*
X122581146Y-88335500D01*
X122391854Y-88335500D01*
X122391852Y-88335500D01*
X122206697Y-88374855D01*
X122033769Y-88451848D01*
X121880629Y-88563110D01*
X121753966Y-88703783D01*
X121659320Y-88867715D01*
X121600826Y-89047742D01*
X121581040Y-89236000D01*
X111564500Y-89236000D01*
X111564500Y-86823000D01*
X133138040Y-86823000D01*
X133157826Y-87011257D01*
X133216320Y-87191284D01*
X133310966Y-87355216D01*
X133437629Y-87495889D01*
X133590769Y-87607151D01*
X133763697Y-87684144D01*
X133948852Y-87723500D01*
X133948854Y-87723500D01*
X134138146Y-87723500D01*
X134138148Y-87723500D01*
X134261584Y-87697262D01*
X134323303Y-87684144D01*
X134496230Y-87607151D01*
X134496229Y-87607151D01*
X134649370Y-87495889D01*
X134776033Y-87355216D01*
X134870679Y-87191284D01*
X134870679Y-87191283D01*
X134929174Y-87011256D01*
X134948960Y-86823000D01*
X134935122Y-86691340D01*
X139356381Y-86691340D01*
X139376167Y-86879598D01*
X139434661Y-87059625D01*
X139529307Y-87223557D01*
X139655970Y-87364230D01*
X139809110Y-87475492D01*
X139982038Y-87552485D01*
X140167193Y-87591841D01*
X140167195Y-87591841D01*
X140356487Y-87591841D01*
X140356489Y-87591841D01*
X140479924Y-87565603D01*
X140541644Y-87552485D01*
X140714571Y-87475492D01*
X140867712Y-87364229D01*
X140994374Y-87223557D01*
X141089020Y-87059625D01*
X141147515Y-86879597D01*
X141167301Y-86691341D01*
X141147515Y-86503085D01*
X141089020Y-86323057D01*
X141089020Y-86323056D01*
X140994374Y-86159124D01*
X140867711Y-86018451D01*
X140714571Y-85907189D01*
X140541643Y-85830196D01*
X140356489Y-85790841D01*
X140356487Y-85790841D01*
X140167195Y-85790841D01*
X140167193Y-85790841D01*
X139982038Y-85830196D01*
X139809110Y-85907189D01*
X139655970Y-86018451D01*
X139529307Y-86159124D01*
X139434661Y-86323056D01*
X139376167Y-86503083D01*
X139356381Y-86691340D01*
X134935122Y-86691340D01*
X134929174Y-86634744D01*
X134886395Y-86503085D01*
X134870679Y-86454715D01*
X134776033Y-86290783D01*
X134649370Y-86150110D01*
X134496230Y-86038848D01*
X134323302Y-85961855D01*
X134138148Y-85922500D01*
X134138146Y-85922500D01*
X133948854Y-85922500D01*
X133948852Y-85922500D01*
X133763697Y-85961855D01*
X133590769Y-86038848D01*
X133437629Y-86150110D01*
X133310966Y-86290783D01*
X133216320Y-86454715D01*
X133157826Y-86634742D01*
X133138040Y-86823000D01*
X111564500Y-86823000D01*
X111564500Y-84640869D01*
X119289500Y-84640869D01*
X119295909Y-84700484D01*
X119310073Y-84738458D01*
X119346204Y-84835331D01*
X119432454Y-84950546D01*
X119547669Y-85036796D01*
X119682517Y-85087091D01*
X119742127Y-85093500D01*
X121637872Y-85093499D01*
X121697483Y-85087091D01*
X121832331Y-85036796D01*
X121947546Y-84950546D01*
X122033796Y-84835331D01*
X122052093Y-84786272D01*
X122084205Y-84738458D01*
X122134458Y-84710308D01*
X122192007Y-84707900D01*
X122244435Y-84731753D01*
X122421374Y-84869470D01*
X122625497Y-84979936D01*
X122735257Y-85017616D01*
X122845015Y-85055297D01*
X122845017Y-85055297D01*
X122845019Y-85055298D01*
X123073951Y-85093500D01*
X123306048Y-85093500D01*
X123306049Y-85093500D01*
X123534981Y-85055298D01*
X123754503Y-84979936D01*
X123958626Y-84869470D01*
X124141784Y-84726913D01*
X124298979Y-84556153D01*
X124336192Y-84499193D01*
X124380982Y-84457961D01*
X124440000Y-84443016D01*
X124499018Y-84457961D01*
X124543807Y-84499193D01*
X124581021Y-84556153D01*
X124738216Y-84726913D01*
X124921374Y-84869470D01*
X125125497Y-84979936D01*
X125235257Y-85017616D01*
X125345015Y-85055297D01*
X125345017Y-85055297D01*
X125345019Y-85055298D01*
X125573951Y-85093500D01*
X125806048Y-85093500D01*
X125806049Y-85093500D01*
X126034981Y-85055298D01*
X126254503Y-84979936D01*
X126458626Y-84869470D01*
X126641784Y-84726913D01*
X126699699Y-84664000D01*
X129963040Y-84664000D01*
X129982826Y-84852257D01*
X130041320Y-85032284D01*
X130135966Y-85196216D01*
X130262629Y-85336889D01*
X130415769Y-85448151D01*
X130588697Y-85525144D01*
X130773852Y-85564500D01*
X130773854Y-85564500D01*
X130963146Y-85564500D01*
X130963148Y-85564500D01*
X131086584Y-85538262D01*
X131148303Y-85525144D01*
X131321230Y-85448151D01*
X131474371Y-85336888D01*
X131601033Y-85196216D01*
X131695679Y-85032284D01*
X131754174Y-84852256D01*
X131773960Y-84664000D01*
X131754174Y-84475744D01*
X131717167Y-84361849D01*
X131695679Y-84295715D01*
X131601033Y-84131783D01*
X131474370Y-83991110D01*
X131321230Y-83879848D01*
X131148302Y-83802855D01*
X130963148Y-83763500D01*
X130963146Y-83763500D01*
X130773854Y-83763500D01*
X130773852Y-83763500D01*
X130588697Y-83802855D01*
X130415769Y-83879848D01*
X130262629Y-83991110D01*
X130135966Y-84131783D01*
X130041320Y-84295715D01*
X129982826Y-84475742D01*
X129963040Y-84664000D01*
X126699699Y-84664000D01*
X126798979Y-84556153D01*
X126925924Y-84361849D01*
X127019157Y-84149300D01*
X127076134Y-83924305D01*
X127095300Y-83693000D01*
X127076134Y-83461695D01*
X127019157Y-83236700D01*
X126925924Y-83024151D01*
X126798979Y-82829847D01*
X126641784Y-82659087D01*
X126458626Y-82516530D01*
X126437319Y-82504999D01*
X129963040Y-82504999D01*
X129982826Y-82693257D01*
X130041320Y-82873284D01*
X130135966Y-83037216D01*
X130262629Y-83177889D01*
X130415769Y-83289151D01*
X130588697Y-83366144D01*
X130773852Y-83405500D01*
X130773854Y-83405500D01*
X130963146Y-83405500D01*
X130963148Y-83405500D01*
X131017254Y-83393999D01*
X140377040Y-83393999D01*
X140396826Y-83582257D01*
X140455320Y-83762284D01*
X140549966Y-83926216D01*
X140676629Y-84066889D01*
X140829769Y-84178151D01*
X141002697Y-84255144D01*
X141187852Y-84294500D01*
X141187854Y-84294500D01*
X141377146Y-84294500D01*
X141377148Y-84294500D01*
X141500583Y-84268262D01*
X141562303Y-84255144D01*
X141735230Y-84178151D01*
X141888371Y-84066888D01*
X142015033Y-83926216D01*
X142029015Y-83901999D01*
X142917040Y-83901999D01*
X142936826Y-84090257D01*
X142995320Y-84270284D01*
X143089966Y-84434216D01*
X143216629Y-84574889D01*
X143369769Y-84686151D01*
X143542697Y-84763144D01*
X143727852Y-84802500D01*
X143727854Y-84802500D01*
X143917146Y-84802500D01*
X143917148Y-84802500D01*
X144040583Y-84776262D01*
X144102303Y-84763144D01*
X144275230Y-84686151D01*
X144337550Y-84640873D01*
X144428370Y-84574889D01*
X144473850Y-84524379D01*
X144522777Y-84491128D01*
X144581541Y-84484329D01*
X144636769Y-84505529D01*
X144675889Y-84549902D01*
X144690000Y-84607351D01*
X144690000Y-84640824D01*
X144696402Y-84700375D01*
X144746647Y-84835089D01*
X144832811Y-84950188D01*
X144947910Y-85036352D01*
X145082624Y-85086597D01*
X145142176Y-85093000D01*
X145840000Y-85093000D01*
X146340000Y-85093000D01*
X147037824Y-85093000D01*
X147097375Y-85086597D01*
X147232089Y-85036352D01*
X147347188Y-84950188D01*
X147433352Y-84835088D01*
X147451679Y-84785953D01*
X147483792Y-84738136D01*
X147534045Y-84709986D01*
X147591595Y-84707579D01*
X147644020Y-84731430D01*
X147821374Y-84869470D01*
X148025497Y-84979936D01*
X148135257Y-85017616D01*
X148245015Y-85055297D01*
X148245017Y-85055297D01*
X148245019Y-85055298D01*
X148473951Y-85093500D01*
X148706048Y-85093500D01*
X148706049Y-85093500D01*
X148934981Y-85055298D01*
X149154503Y-84979936D01*
X149358626Y-84869470D01*
X149541784Y-84726913D01*
X149698979Y-84556153D01*
X149736192Y-84499193D01*
X149780982Y-84457961D01*
X149840000Y-84443016D01*
X149899018Y-84457961D01*
X149943807Y-84499193D01*
X149981021Y-84556153D01*
X150138216Y-84726913D01*
X150321374Y-84869470D01*
X150525497Y-84979936D01*
X150635257Y-85017616D01*
X150745015Y-85055297D01*
X150745017Y-85055297D01*
X150745019Y-85055298D01*
X150973951Y-85093500D01*
X151206048Y-85093500D01*
X151206049Y-85093500D01*
X151434981Y-85055298D01*
X151654503Y-84979936D01*
X151858626Y-84869470D01*
X152041784Y-84726913D01*
X152198979Y-84556153D01*
X152325924Y-84361849D01*
X152419157Y-84149300D01*
X152476134Y-83924305D01*
X152495300Y-83693000D01*
X152476134Y-83461695D01*
X152419157Y-83236700D01*
X152325924Y-83024151D01*
X152198979Y-82829847D01*
X152041784Y-82659087D01*
X151858626Y-82516530D01*
X151654503Y-82406064D01*
X151654499Y-82406062D01*
X151654498Y-82406062D01*
X151434984Y-82330702D01*
X151244456Y-82298909D01*
X151206049Y-82292500D01*
X150973951Y-82292500D01*
X150935544Y-82298909D01*
X150745015Y-82330702D01*
X150525501Y-82406062D01*
X150525497Y-82406063D01*
X150525497Y-82406064D01*
X150389415Y-82479707D01*
X150321372Y-82516531D01*
X150138215Y-82659087D01*
X149992590Y-82817279D01*
X149981021Y-82829847D01*
X149952643Y-82873284D01*
X149943809Y-82886805D01*
X149899017Y-82928038D01*
X149840000Y-82942983D01*
X149780983Y-82928038D01*
X149736191Y-82886805D01*
X149698979Y-82829847D01*
X149541784Y-82659087D01*
X149358626Y-82516530D01*
X149154503Y-82406064D01*
X149154499Y-82406062D01*
X149154498Y-82406062D01*
X148934984Y-82330702D01*
X148744456Y-82298909D01*
X148706049Y-82292500D01*
X148473951Y-82292500D01*
X148435544Y-82298909D01*
X148245015Y-82330702D01*
X148025501Y-82406062D01*
X148025497Y-82406063D01*
X148025497Y-82406064D01*
X147889415Y-82479707D01*
X147821372Y-82516531D01*
X147644023Y-82654567D01*
X147591595Y-82678421D01*
X147534045Y-82676013D01*
X147483792Y-82647864D01*
X147451679Y-82600046D01*
X147433352Y-82550911D01*
X147347188Y-82435811D01*
X147232089Y-82349647D01*
X147097375Y-82299402D01*
X147037824Y-82293000D01*
X146340000Y-82293000D01*
X146340000Y-85093000D01*
X145840000Y-85093000D01*
X145840000Y-82293000D01*
X145142176Y-82293000D01*
X145082624Y-82299402D01*
X144947910Y-82349647D01*
X144832811Y-82435811D01*
X144746647Y-82550910D01*
X144696402Y-82685624D01*
X144690000Y-82745176D01*
X144690000Y-83196649D01*
X144675889Y-83254098D01*
X144636769Y-83298471D01*
X144581541Y-83319671D01*
X144522777Y-83312872D01*
X144473850Y-83279621D01*
X144428370Y-83229110D01*
X144275230Y-83117848D01*
X144102302Y-83040855D01*
X143917148Y-83001500D01*
X143917146Y-83001500D01*
X143727854Y-83001500D01*
X143727852Y-83001500D01*
X143542697Y-83040855D01*
X143369769Y-83117848D01*
X143216629Y-83229110D01*
X143089966Y-83369783D01*
X142995320Y-83533715D01*
X142936826Y-83713742D01*
X142917040Y-83901999D01*
X142029015Y-83901999D01*
X142109679Y-83762284D01*
X142168174Y-83582256D01*
X142187960Y-83394000D01*
X142168174Y-83205744D01*
X142119597Y-83056240D01*
X142109679Y-83025715D01*
X142015033Y-82861783D01*
X141888370Y-82721110D01*
X141735230Y-82609848D01*
X141562302Y-82532855D01*
X141377148Y-82493500D01*
X141377146Y-82493500D01*
X141187854Y-82493500D01*
X141187852Y-82493500D01*
X141002697Y-82532855D01*
X140829769Y-82609848D01*
X140676629Y-82721110D01*
X140549966Y-82861783D01*
X140455320Y-83025715D01*
X140396826Y-83205742D01*
X140377040Y-83393999D01*
X131017254Y-83393999D01*
X131086583Y-83379262D01*
X131148303Y-83366144D01*
X131321230Y-83289151D01*
X131393423Y-83236700D01*
X131474370Y-83177889D01*
X131528431Y-83117849D01*
X131601033Y-83037216D01*
X131695679Y-82873284D01*
X131754174Y-82693256D01*
X131773960Y-82505000D01*
X131754174Y-82316744D01*
X131695679Y-82136716D01*
X131695679Y-82136715D01*
X131601033Y-81972783D01*
X131474370Y-81832110D01*
X131321230Y-81720848D01*
X131148302Y-81643855D01*
X130963148Y-81604500D01*
X130963146Y-81604500D01*
X130773854Y-81604500D01*
X130773852Y-81604500D01*
X130588697Y-81643855D01*
X130415769Y-81720848D01*
X130262629Y-81832110D01*
X130135966Y-81972783D01*
X130041320Y-82136715D01*
X129982826Y-82316742D01*
X129963040Y-82504999D01*
X126437319Y-82504999D01*
X126254503Y-82406064D01*
X126254499Y-82406062D01*
X126254498Y-82406062D01*
X126034984Y-82330702D01*
X125844456Y-82298909D01*
X125806049Y-82292500D01*
X125573951Y-82292500D01*
X125535544Y-82298909D01*
X125345015Y-82330702D01*
X125125501Y-82406062D01*
X125125497Y-82406063D01*
X125125497Y-82406064D01*
X124989415Y-82479707D01*
X124921372Y-82516531D01*
X124738215Y-82659087D01*
X124592590Y-82817279D01*
X124581021Y-82829847D01*
X124552643Y-82873284D01*
X124543809Y-82886805D01*
X124499017Y-82928038D01*
X124440000Y-82942983D01*
X124380983Y-82928038D01*
X124336191Y-82886805D01*
X124298979Y-82829847D01*
X124141784Y-82659087D01*
X123958626Y-82516530D01*
X123754503Y-82406064D01*
X123754499Y-82406062D01*
X123754498Y-82406062D01*
X123534984Y-82330702D01*
X123344456Y-82298909D01*
X123306049Y-82292500D01*
X123073951Y-82292500D01*
X123035544Y-82298909D01*
X122845015Y-82330702D01*
X122625501Y-82406062D01*
X122625497Y-82406063D01*
X122625497Y-82406064D01*
X122489415Y-82479707D01*
X122421372Y-82516531D01*
X122244436Y-82654245D01*
X122192007Y-82678099D01*
X122134458Y-82675691D01*
X122084205Y-82647541D01*
X122052092Y-82599724D01*
X122033796Y-82550669D01*
X121947546Y-82435454D01*
X121832331Y-82349204D01*
X121697483Y-82298909D01*
X121637873Y-82292500D01*
X121637869Y-82292500D01*
X119742130Y-82292500D01*
X119682515Y-82298909D01*
X119547669Y-82349204D01*
X119432454Y-82435454D01*
X119346204Y-82550668D01*
X119295909Y-82685516D01*
X119289500Y-82745130D01*
X119289500Y-84640869D01*
X111564500Y-84640869D01*
X111564500Y-81362000D01*
X135170040Y-81362000D01*
X135189826Y-81550257D01*
X135248320Y-81730284D01*
X135342966Y-81894216D01*
X135469629Y-82034889D01*
X135622769Y-82146151D01*
X135795697Y-82223144D01*
X135980852Y-82262500D01*
X135980854Y-82262500D01*
X136170146Y-82262500D01*
X136170148Y-82262500D01*
X136293583Y-82236262D01*
X136355303Y-82223144D01*
X136528230Y-82146151D01*
X136681371Y-82034888D01*
X136808033Y-81894216D01*
X136902679Y-81730284D01*
X136961174Y-81550256D01*
X136980960Y-81362000D01*
X136961174Y-81173744D01*
X136902679Y-80993716D01*
X136902679Y-80993715D01*
X136808033Y-80829783D01*
X136681370Y-80689110D01*
X136528230Y-80577848D01*
X136355302Y-80500855D01*
X136170148Y-80461500D01*
X136170146Y-80461500D01*
X135980854Y-80461500D01*
X135980852Y-80461500D01*
X135795697Y-80500855D01*
X135622769Y-80577848D01*
X135469629Y-80689110D01*
X135342966Y-80829783D01*
X135248320Y-80993715D01*
X135189826Y-81173742D01*
X135170040Y-81362000D01*
X111564500Y-81362000D01*
X111564500Y-76521003D01*
X116529500Y-76521003D01*
X116544402Y-76724617D01*
X116603616Y-76990438D01*
X116652944Y-77119410D01*
X116700907Y-77244814D01*
X116834196Y-77482310D01*
X116917420Y-77590088D01*
X117000645Y-77697869D01*
X117196704Y-77886894D01*
X117418199Y-78045359D01*
X117547906Y-78112046D01*
X117660403Y-78169885D01*
X117918159Y-78257819D01*
X117918161Y-78257819D01*
X117918163Y-78257820D01*
X118185970Y-78307286D01*
X118458130Y-78317232D01*
X118458130Y-78317231D01*
X118458131Y-78317232D01*
X118728839Y-78287446D01*
X118992326Y-78218562D01*
X119242975Y-78112047D01*
X119475444Y-77970173D01*
X119684779Y-77795963D01*
X119866518Y-77593131D01*
X120016788Y-77365998D01*
X120132386Y-77119406D01*
X120210847Y-76858611D01*
X120250500Y-76589171D01*
X120250500Y-76521003D01*
X126129500Y-76521003D01*
X126144402Y-76724617D01*
X126203616Y-76990438D01*
X126252944Y-77119410D01*
X126300907Y-77244814D01*
X126434196Y-77482310D01*
X126517420Y-77590088D01*
X126600645Y-77697869D01*
X126796704Y-77886894D01*
X127018199Y-78045359D01*
X127147906Y-78112046D01*
X127260403Y-78169885D01*
X127518159Y-78257819D01*
X127518161Y-78257819D01*
X127518163Y-78257820D01*
X127785970Y-78307286D01*
X128058130Y-78317232D01*
X128058130Y-78317231D01*
X128058131Y-78317232D01*
X128328839Y-78287446D01*
X128592326Y-78218562D01*
X128842975Y-78112047D01*
X129075444Y-77970173D01*
X129284779Y-77795963D01*
X129466518Y-77593131D01*
X129616788Y-77365998D01*
X129732386Y-77119406D01*
X129810847Y-76858611D01*
X129850500Y-76589171D01*
X129850500Y-76521003D01*
X141929500Y-76521003D01*
X141944402Y-76724617D01*
X142003616Y-76990438D01*
X142052944Y-77119410D01*
X142100907Y-77244814D01*
X142234196Y-77482310D01*
X142317420Y-77590088D01*
X142400645Y-77697869D01*
X142596704Y-77886894D01*
X142818199Y-78045359D01*
X142947906Y-78112046D01*
X143060403Y-78169885D01*
X143318159Y-78257819D01*
X143318161Y-78257819D01*
X143318163Y-78257820D01*
X143585970Y-78307286D01*
X143858130Y-78317232D01*
X143858130Y-78317231D01*
X143858131Y-78317232D01*
X144128839Y-78287446D01*
X144392326Y-78218562D01*
X144642975Y-78112047D01*
X144875444Y-77970173D01*
X145084779Y-77795963D01*
X145266518Y-77593131D01*
X145416788Y-77365998D01*
X145532386Y-77119406D01*
X145610847Y-76858611D01*
X145650500Y-76589171D01*
X145650500Y-76521003D01*
X151529500Y-76521003D01*
X151544402Y-76724617D01*
X151603616Y-76990438D01*
X151652944Y-77119410D01*
X151700907Y-77244814D01*
X151834196Y-77482310D01*
X151917420Y-77590088D01*
X152000645Y-77697869D01*
X152196704Y-77886894D01*
X152418199Y-78045359D01*
X152547906Y-78112046D01*
X152660403Y-78169885D01*
X152918159Y-78257819D01*
X152918161Y-78257819D01*
X152918163Y-78257820D01*
X153185970Y-78307286D01*
X153458130Y-78317232D01*
X153458130Y-78317231D01*
X153458131Y-78317232D01*
X153728839Y-78287446D01*
X153992326Y-78218562D01*
X154242975Y-78112047D01*
X154475444Y-77970173D01*
X154684779Y-77795963D01*
X154866518Y-77593131D01*
X155016788Y-77365998D01*
X155132386Y-77119406D01*
X155210847Y-76858611D01*
X155250500Y-76589171D01*
X155250500Y-75865000D01*
X155245510Y-75796829D01*
X155235597Y-75661382D01*
X155176383Y-75395561D01*
X155127057Y-75266594D01*
X155079093Y-75141186D01*
X154945804Y-74903690D01*
X154838024Y-74764110D01*
X154779354Y-74688130D01*
X154583295Y-74499105D01*
X154361800Y-74340640D01*
X154119602Y-74216117D01*
X154119598Y-74216115D01*
X154119597Y-74216115D01*
X153976913Y-74167438D01*
X153861836Y-74128179D01*
X153594029Y-74078713D01*
X153321869Y-74068767D01*
X153051162Y-74098553D01*
X152787674Y-74167438D01*
X152537024Y-74273953D01*
X152304556Y-74415826D01*
X152095223Y-74590035D01*
X151913480Y-74792871D01*
X151763210Y-75020005D01*
X151647615Y-75266589D01*
X151569153Y-75527388D01*
X151569153Y-75527389D01*
X151549434Y-75661382D01*
X151529500Y-75796832D01*
X151529500Y-76521003D01*
X145650500Y-76521003D01*
X145650500Y-75865000D01*
X145645510Y-75796829D01*
X145635597Y-75661382D01*
X145576383Y-75395561D01*
X145527057Y-75266594D01*
X145479093Y-75141186D01*
X145345804Y-74903690D01*
X145238024Y-74764110D01*
X145179354Y-74688130D01*
X144983295Y-74499105D01*
X144761800Y-74340640D01*
X144519602Y-74216117D01*
X144519598Y-74216115D01*
X144519597Y-74216115D01*
X144376913Y-74167438D01*
X144261836Y-74128179D01*
X143994029Y-74078713D01*
X143721869Y-74068767D01*
X143451162Y-74098553D01*
X143187674Y-74167438D01*
X142937024Y-74273953D01*
X142704556Y-74415826D01*
X142495223Y-74590035D01*
X142313480Y-74792871D01*
X142163210Y-75020005D01*
X142047615Y-75266589D01*
X141969153Y-75527388D01*
X141969153Y-75527389D01*
X141949434Y-75661382D01*
X141929500Y-75796832D01*
X141929500Y-76521003D01*
X129850500Y-76521003D01*
X129850500Y-75865000D01*
X129845510Y-75796829D01*
X129835597Y-75661382D01*
X129776383Y-75395561D01*
X129727057Y-75266594D01*
X129679093Y-75141186D01*
X129545804Y-74903690D01*
X129438024Y-74764110D01*
X129379354Y-74688130D01*
X129183295Y-74499105D01*
X128961800Y-74340640D01*
X128719602Y-74216117D01*
X128719598Y-74216115D01*
X128719597Y-74216115D01*
X128576913Y-74167438D01*
X128461836Y-74128179D01*
X128194029Y-74078713D01*
X127921869Y-74068767D01*
X127651162Y-74098553D01*
X127387674Y-74167438D01*
X127137024Y-74273953D01*
X126904556Y-74415826D01*
X126695223Y-74590035D01*
X126513480Y-74792871D01*
X126363210Y-75020005D01*
X126247615Y-75266589D01*
X126169153Y-75527388D01*
X126169153Y-75527389D01*
X126149434Y-75661382D01*
X126129500Y-75796832D01*
X126129500Y-76521003D01*
X120250500Y-76521003D01*
X120250500Y-75865000D01*
X120245510Y-75796829D01*
X120235597Y-75661382D01*
X120176383Y-75395561D01*
X120127057Y-75266594D01*
X120079093Y-75141186D01*
X119945804Y-74903690D01*
X119838023Y-74764110D01*
X119779354Y-74688130D01*
X119583295Y-74499105D01*
X119361800Y-74340640D01*
X119119602Y-74216117D01*
X119119598Y-74216115D01*
X119119597Y-74216115D01*
X118976913Y-74167438D01*
X118861836Y-74128179D01*
X118594029Y-74078713D01*
X118321869Y-74068767D01*
X118051162Y-74098553D01*
X117787674Y-74167438D01*
X117537024Y-74273953D01*
X117304556Y-74415826D01*
X117095223Y-74590035D01*
X116913480Y-74792871D01*
X116763210Y-75020005D01*
X116647615Y-75266589D01*
X116569153Y-75527388D01*
X116569153Y-75527389D01*
X116549434Y-75661382D01*
X116529500Y-75796832D01*
X116529500Y-76521003D01*
X111564500Y-76521003D01*
X111564500Y-72368989D01*
X135896540Y-72368989D01*
X135916326Y-72557246D01*
X135974820Y-72737273D01*
X136069466Y-72901205D01*
X136196129Y-73041878D01*
X136349269Y-73153140D01*
X136522197Y-73230133D01*
X136707352Y-73269489D01*
X136707354Y-73269489D01*
X136896646Y-73269489D01*
X136896648Y-73269489D01*
X137020084Y-73243251D01*
X137081803Y-73230133D01*
X137254730Y-73153140D01*
X137407871Y-73041877D01*
X137534533Y-72901205D01*
X137629179Y-72737273D01*
X137687674Y-72557245D01*
X137696633Y-72472000D01*
X143425040Y-72472000D01*
X143444826Y-72660257D01*
X143503320Y-72840284D01*
X143597966Y-73004216D01*
X143724629Y-73144889D01*
X143877769Y-73256151D01*
X144050697Y-73333144D01*
X144235852Y-73372500D01*
X144235854Y-73372500D01*
X144425146Y-73372500D01*
X144425148Y-73372500D01*
X144548584Y-73346262D01*
X144610303Y-73333144D01*
X144783230Y-73256151D01*
X144936371Y-73144888D01*
X145063033Y-73004216D01*
X145157679Y-72840284D01*
X145216174Y-72660256D01*
X145235960Y-72472000D01*
X145216174Y-72283744D01*
X145185832Y-72190363D01*
X145157679Y-72103715D01*
X145063033Y-71939783D01*
X144936370Y-71799110D01*
X144783230Y-71687848D01*
X144610302Y-71610855D01*
X144425148Y-71571500D01*
X144425146Y-71571500D01*
X144235854Y-71571500D01*
X144235852Y-71571500D01*
X144050697Y-71610855D01*
X143877769Y-71687848D01*
X143724629Y-71799110D01*
X143597966Y-71939783D01*
X143503320Y-72103715D01*
X143444826Y-72283742D01*
X143425040Y-72472000D01*
X137696633Y-72472000D01*
X137707460Y-72368989D01*
X137687674Y-72180733D01*
X137629179Y-72000705D01*
X137629179Y-72000704D01*
X137534533Y-71836772D01*
X137407870Y-71696099D01*
X137254730Y-71584837D01*
X137081802Y-71507844D01*
X136896648Y-71468489D01*
X136896646Y-71468489D01*
X136707354Y-71468489D01*
X136707352Y-71468489D01*
X136522197Y-71507844D01*
X136349269Y-71584837D01*
X136196129Y-71696099D01*
X136069466Y-71836772D01*
X135974820Y-72000704D01*
X135916326Y-72180731D01*
X135896540Y-72368989D01*
X111564500Y-72368989D01*
X111564500Y-70234159D01*
X130138199Y-70234159D01*
X130157985Y-70422416D01*
X130216479Y-70602443D01*
X130311125Y-70766375D01*
X130437788Y-70907048D01*
X130590928Y-71018310D01*
X130763856Y-71095303D01*
X130949011Y-71134659D01*
X130949013Y-71134659D01*
X131138305Y-71134659D01*
X131138307Y-71134659D01*
X131261743Y-71108421D01*
X131323462Y-71095303D01*
X131496389Y-71018310D01*
X131649530Y-70907047D01*
X131776192Y-70766375D01*
X131870838Y-70602443D01*
X131929333Y-70422415D01*
X131949119Y-70234159D01*
X131929333Y-70045903D01*
X131870838Y-69865875D01*
X131870838Y-69865874D01*
X131776192Y-69701942D01*
X131649529Y-69561269D01*
X131496389Y-69450007D01*
X131323461Y-69373014D01*
X131138307Y-69333659D01*
X131138305Y-69333659D01*
X130949013Y-69333659D01*
X130949011Y-69333659D01*
X130763856Y-69373014D01*
X130590928Y-69450007D01*
X130437788Y-69561269D01*
X130311125Y-69701942D01*
X130216479Y-69865874D01*
X130157985Y-70045901D01*
X130138199Y-70234159D01*
X111564500Y-70234159D01*
X111564500Y-67386286D01*
X122718326Y-67386286D01*
X122738112Y-67574543D01*
X122796606Y-67754570D01*
X122891252Y-67918502D01*
X123017915Y-68059175D01*
X123171055Y-68170437D01*
X123343983Y-68247430D01*
X123529138Y-68286786D01*
X123529140Y-68286786D01*
X123718432Y-68286786D01*
X123718434Y-68286786D01*
X123841869Y-68260548D01*
X123903589Y-68247430D01*
X124076516Y-68170437D01*
X124229657Y-68059174D01*
X124356319Y-67918502D01*
X124450965Y-67754570D01*
X124509460Y-67574542D01*
X124529246Y-67386286D01*
X124509460Y-67198030D01*
X124486469Y-67127270D01*
X136461491Y-67127270D01*
X136481277Y-67315527D01*
X136539771Y-67495554D01*
X136634417Y-67659486D01*
X136761080Y-67800159D01*
X136914220Y-67911421D01*
X137087148Y-67988414D01*
X137272303Y-68027770D01*
X137272305Y-68027770D01*
X137461597Y-68027770D01*
X137461599Y-68027770D01*
X137585035Y-68001532D01*
X137646754Y-67988414D01*
X137819681Y-67911421D01*
X137972822Y-67800158D01*
X138099484Y-67659486D01*
X138194130Y-67495554D01*
X138252625Y-67315526D01*
X138272411Y-67127270D01*
X138252625Y-66939014D01*
X138222283Y-66845633D01*
X138194130Y-66758985D01*
X138099484Y-66595053D01*
X137972821Y-66454380D01*
X137819681Y-66343118D01*
X137646753Y-66266125D01*
X137461599Y-66226770D01*
X137461597Y-66226770D01*
X137272305Y-66226770D01*
X137272303Y-66226770D01*
X137087148Y-66266125D01*
X136914220Y-66343118D01*
X136761080Y-66454380D01*
X136634417Y-66595053D01*
X136539771Y-66758985D01*
X136481277Y-66939012D01*
X136461491Y-67127270D01*
X124486469Y-67127270D01*
X124450965Y-67018002D01*
X124450965Y-67018001D01*
X124356319Y-66854069D01*
X124229656Y-66713396D01*
X124076516Y-66602134D01*
X123903588Y-66525141D01*
X123718434Y-66485786D01*
X123718432Y-66485786D01*
X123529140Y-66485786D01*
X123529138Y-66485786D01*
X123343983Y-66525141D01*
X123171055Y-66602134D01*
X123017915Y-66713396D01*
X122891252Y-66854069D01*
X122796606Y-67018001D01*
X122738112Y-67198028D01*
X122718326Y-67386286D01*
X111564500Y-67386286D01*
X111564500Y-65999712D01*
X133679879Y-65999712D01*
X133699665Y-66187970D01*
X133758159Y-66367997D01*
X133852805Y-66531929D01*
X133979468Y-66672602D01*
X134132608Y-66783864D01*
X134305536Y-66860857D01*
X134490691Y-66900213D01*
X134490693Y-66900213D01*
X134679985Y-66900213D01*
X134679987Y-66900213D01*
X134803422Y-66873975D01*
X134865142Y-66860857D01*
X135038069Y-66783864D01*
X135135058Y-66713398D01*
X135191209Y-66672602D01*
X135317872Y-66531929D01*
X135412518Y-66367997D01*
X135420602Y-66343118D01*
X135471013Y-66187969D01*
X135490799Y-65999713D01*
X135471013Y-65811457D01*
X135412518Y-65631429D01*
X135412518Y-65631428D01*
X135317872Y-65467496D01*
X135191209Y-65326823D01*
X135038069Y-65215561D01*
X134865141Y-65138568D01*
X134679987Y-65099213D01*
X134679985Y-65099213D01*
X134490693Y-65099213D01*
X134490691Y-65099213D01*
X134305536Y-65138568D01*
X134132608Y-65215561D01*
X133979468Y-65326823D01*
X133852805Y-65467496D01*
X133758159Y-65631428D01*
X133699665Y-65811455D01*
X133679879Y-65999712D01*
X111564500Y-65999712D01*
X111564500Y-64979000D01*
X136186040Y-64979000D01*
X136205826Y-65167257D01*
X136264320Y-65347284D01*
X136358966Y-65511216D01*
X136485629Y-65651889D01*
X136638769Y-65763151D01*
X136811697Y-65840144D01*
X136996852Y-65879500D01*
X136996854Y-65879500D01*
X137186146Y-65879500D01*
X137186148Y-65879500D01*
X137309583Y-65853262D01*
X137371303Y-65840144D01*
X137544230Y-65763151D01*
X137697371Y-65651888D01*
X137731487Y-65613999D01*
X139996040Y-65613999D01*
X140015826Y-65802257D01*
X140074320Y-65982284D01*
X140168966Y-66146216D01*
X140295629Y-66286889D01*
X140448769Y-66398151D01*
X140621697Y-66475144D01*
X140806852Y-66514500D01*
X140806854Y-66514500D01*
X140996146Y-66514500D01*
X140996148Y-66514500D01*
X141131236Y-66485786D01*
X141181303Y-66475144D01*
X141354230Y-66398151D01*
X141395734Y-66367997D01*
X141507370Y-66286889D01*
X141634033Y-66146216D01*
X141728679Y-65982284D01*
X141728678Y-65982284D01*
X141787174Y-65802256D01*
X141806960Y-65614000D01*
X141787174Y-65425744D01*
X141728679Y-65245716D01*
X141728679Y-65245715D01*
X141634033Y-65081783D01*
X141507370Y-64941110D01*
X141354230Y-64829848D01*
X141181302Y-64752855D01*
X140996148Y-64713500D01*
X140996146Y-64713500D01*
X140806854Y-64713500D01*
X140806852Y-64713500D01*
X140621697Y-64752855D01*
X140448769Y-64829848D01*
X140295629Y-64941110D01*
X140168966Y-65081783D01*
X140074320Y-65245715D01*
X140015826Y-65425742D01*
X139996040Y-65613999D01*
X137731487Y-65613999D01*
X137824033Y-65511216D01*
X137918679Y-65347284D01*
X137977174Y-65167256D01*
X137996960Y-64979000D01*
X137977174Y-64790744D01*
X137918679Y-64610716D01*
X137918679Y-64610715D01*
X137824033Y-64446783D01*
X137697370Y-64306110D01*
X137544230Y-64194848D01*
X137371302Y-64117855D01*
X137186148Y-64078500D01*
X137186146Y-64078500D01*
X136996854Y-64078500D01*
X136996852Y-64078500D01*
X136811697Y-64117855D01*
X136638769Y-64194848D01*
X136485629Y-64306110D01*
X136358966Y-64446783D01*
X136264320Y-64610715D01*
X136205826Y-64790742D01*
X136186040Y-64979000D01*
X111564500Y-64979000D01*
X111564500Y-63963000D01*
X148124040Y-63963000D01*
X148143826Y-64151257D01*
X148202320Y-64331284D01*
X148296966Y-64495216D01*
X148423629Y-64635889D01*
X148576769Y-64747151D01*
X148749697Y-64824144D01*
X148934852Y-64863500D01*
X148934854Y-64863500D01*
X149124146Y-64863500D01*
X149124148Y-64863500D01*
X149247584Y-64837262D01*
X149309303Y-64824144D01*
X149482230Y-64747151D01*
X149635371Y-64635888D01*
X149762033Y-64495216D01*
X149856679Y-64331284D01*
X149915174Y-64151256D01*
X149934960Y-63963000D01*
X149915174Y-63774744D01*
X149856679Y-63594716D01*
X149856679Y-63594715D01*
X149762033Y-63430783D01*
X149635370Y-63290110D01*
X149482230Y-63178848D01*
X149309302Y-63101855D01*
X149124148Y-63062500D01*
X149124146Y-63062500D01*
X148934854Y-63062500D01*
X148934852Y-63062500D01*
X148749697Y-63101855D01*
X148576769Y-63178848D01*
X148423629Y-63290110D01*
X148296966Y-63430783D01*
X148202320Y-63594715D01*
X148143826Y-63774742D01*
X148124040Y-63963000D01*
X111564500Y-63963000D01*
X111564500Y-60846841D01*
X140054882Y-60846841D01*
X140074668Y-61035099D01*
X140133162Y-61215126D01*
X140227808Y-61379058D01*
X140354471Y-61519731D01*
X140507611Y-61630993D01*
X140680539Y-61707986D01*
X140865694Y-61747342D01*
X140865696Y-61747342D01*
X141054988Y-61747342D01*
X141054990Y-61747342D01*
X141178425Y-61721104D01*
X141240145Y-61707986D01*
X141413072Y-61630993D01*
X141566213Y-61519730D01*
X141692875Y-61379058D01*
X141787521Y-61215126D01*
X141846016Y-61035098D01*
X141865802Y-60846842D01*
X141846016Y-60658586D01*
X141787521Y-60478558D01*
X141787521Y-60478557D01*
X141692875Y-60314625D01*
X141566212Y-60173952D01*
X141413072Y-60062690D01*
X141240144Y-59985697D01*
X141054990Y-59946342D01*
X141054988Y-59946342D01*
X140865696Y-59946342D01*
X140865694Y-59946342D01*
X140680539Y-59985697D01*
X140507611Y-60062690D01*
X140354471Y-60173952D01*
X140227808Y-60314625D01*
X140133162Y-60478557D01*
X140074668Y-60658584D01*
X140054882Y-60846841D01*
X111564500Y-60846841D01*
X111564500Y-59240869D01*
X119289500Y-59240869D01*
X119295909Y-59300484D01*
X119310073Y-59338458D01*
X119346204Y-59435331D01*
X119432454Y-59550546D01*
X119547669Y-59636796D01*
X119682517Y-59687091D01*
X119742127Y-59693500D01*
X121637872Y-59693499D01*
X121697483Y-59687091D01*
X121832331Y-59636796D01*
X121947546Y-59550546D01*
X122033796Y-59435331D01*
X122052093Y-59386272D01*
X122084205Y-59338458D01*
X122134458Y-59310308D01*
X122192007Y-59307900D01*
X122244435Y-59331753D01*
X122421374Y-59469470D01*
X122625497Y-59579936D01*
X122735257Y-59617616D01*
X122845015Y-59655297D01*
X122845017Y-59655297D01*
X122845019Y-59655298D01*
X123073951Y-59693500D01*
X123306048Y-59693500D01*
X123306049Y-59693500D01*
X123534981Y-59655298D01*
X123754503Y-59579936D01*
X123958626Y-59469470D01*
X124141784Y-59326913D01*
X124298979Y-59156153D01*
X124336192Y-59099193D01*
X124380982Y-59057961D01*
X124440000Y-59043016D01*
X124499018Y-59057961D01*
X124543807Y-59099193D01*
X124581021Y-59156153D01*
X124738216Y-59326913D01*
X124921374Y-59469470D01*
X125125497Y-59579936D01*
X125235257Y-59617616D01*
X125345015Y-59655297D01*
X125345017Y-59655297D01*
X125345019Y-59655298D01*
X125573951Y-59693500D01*
X125806048Y-59693500D01*
X125806049Y-59693500D01*
X126034981Y-59655298D01*
X126254503Y-59579936D01*
X126458626Y-59469470D01*
X126641784Y-59326913D01*
X126798979Y-59156153D01*
X126894466Y-59009999D01*
X134281040Y-59009999D01*
X134300826Y-59198257D01*
X134359320Y-59378284D01*
X134453966Y-59542216D01*
X134580629Y-59682889D01*
X134733769Y-59794151D01*
X134906697Y-59871144D01*
X135091852Y-59910500D01*
X135091854Y-59910500D01*
X135281146Y-59910500D01*
X135281148Y-59910500D01*
X135404584Y-59884262D01*
X135466303Y-59871144D01*
X135639230Y-59794151D01*
X135786586Y-59687091D01*
X135792370Y-59682889D01*
X135833873Y-59636796D01*
X135919033Y-59542216D01*
X136013679Y-59378284D01*
X136072174Y-59198256D01*
X136091960Y-59010000D01*
X136072174Y-58821744D01*
X136013679Y-58641716D01*
X136013679Y-58641715D01*
X135956686Y-58543000D01*
X144690000Y-58543000D01*
X144690000Y-59240824D01*
X144696402Y-59300375D01*
X144746647Y-59435089D01*
X144832811Y-59550188D01*
X144947910Y-59636352D01*
X145082624Y-59686597D01*
X145142176Y-59693000D01*
X145840000Y-59693000D01*
X146340000Y-59693000D01*
X147037824Y-59693000D01*
X147097375Y-59686597D01*
X147232089Y-59636352D01*
X147347188Y-59550188D01*
X147433352Y-59435088D01*
X147451679Y-59385953D01*
X147483792Y-59338136D01*
X147534045Y-59309986D01*
X147591595Y-59307579D01*
X147644020Y-59331430D01*
X147821374Y-59469470D01*
X148025497Y-59579936D01*
X148135257Y-59617616D01*
X148245015Y-59655297D01*
X148245017Y-59655297D01*
X148245019Y-59655298D01*
X148473951Y-59693500D01*
X148706048Y-59693500D01*
X148706049Y-59693500D01*
X148934981Y-59655298D01*
X149154503Y-59579936D01*
X149358626Y-59469470D01*
X149541784Y-59326913D01*
X149698979Y-59156153D01*
X149736192Y-59099193D01*
X149780982Y-59057961D01*
X149840000Y-59043016D01*
X149899018Y-59057961D01*
X149943807Y-59099193D01*
X149981021Y-59156153D01*
X150138216Y-59326913D01*
X150321374Y-59469470D01*
X150525497Y-59579936D01*
X150635257Y-59617616D01*
X150745015Y-59655297D01*
X150745017Y-59655297D01*
X150745019Y-59655298D01*
X150973951Y-59693500D01*
X151206048Y-59693500D01*
X151206049Y-59693500D01*
X151434981Y-59655298D01*
X151654503Y-59579936D01*
X151858626Y-59469470D01*
X152041784Y-59326913D01*
X152198979Y-59156153D01*
X152325924Y-58961849D01*
X152419157Y-58749300D01*
X152476134Y-58524305D01*
X152495300Y-58293000D01*
X152476134Y-58061695D01*
X152419157Y-57836700D01*
X152325924Y-57624151D01*
X152198979Y-57429847D01*
X152041784Y-57259087D01*
X151858626Y-57116530D01*
X151654503Y-57006064D01*
X151654499Y-57006062D01*
X151654498Y-57006062D01*
X151434984Y-56930702D01*
X151244456Y-56898909D01*
X151206049Y-56892500D01*
X150973951Y-56892500D01*
X150935544Y-56898909D01*
X150745015Y-56930702D01*
X150525501Y-57006062D01*
X150525497Y-57006063D01*
X150525497Y-57006064D01*
X150389415Y-57079707D01*
X150321372Y-57116531D01*
X150138215Y-57259087D01*
X149992590Y-57417279D01*
X149981021Y-57429847D01*
X149981021Y-57429848D01*
X149943809Y-57486805D01*
X149899017Y-57528038D01*
X149840000Y-57542983D01*
X149780983Y-57528038D01*
X149736191Y-57486805D01*
X149698979Y-57429847D01*
X149541784Y-57259087D01*
X149358626Y-57116530D01*
X149154503Y-57006064D01*
X149154499Y-57006062D01*
X149154498Y-57006062D01*
X148934984Y-56930702D01*
X148744456Y-56898909D01*
X148706049Y-56892500D01*
X148473951Y-56892500D01*
X148435544Y-56898909D01*
X148245015Y-56930702D01*
X148025501Y-57006062D01*
X148025497Y-57006063D01*
X148025497Y-57006064D01*
X147889415Y-57079707D01*
X147821372Y-57116531D01*
X147644023Y-57254567D01*
X147591595Y-57278421D01*
X147534045Y-57276013D01*
X147483792Y-57247864D01*
X147451679Y-57200046D01*
X147433352Y-57150911D01*
X147347188Y-57035811D01*
X147232089Y-56949647D01*
X147097375Y-56899402D01*
X147037824Y-56893000D01*
X146340000Y-56893000D01*
X146340000Y-59693000D01*
X145840000Y-59693000D01*
X145840000Y-58543000D01*
X144690000Y-58543000D01*
X135956686Y-58543000D01*
X135919033Y-58477783D01*
X135792370Y-58337110D01*
X135639230Y-58225848D01*
X135466302Y-58148855D01*
X135281148Y-58109500D01*
X135281146Y-58109500D01*
X135091854Y-58109500D01*
X135091852Y-58109500D01*
X134906697Y-58148855D01*
X134733769Y-58225848D01*
X134580629Y-58337110D01*
X134453966Y-58477783D01*
X134359320Y-58641715D01*
X134300826Y-58821742D01*
X134281040Y-59009999D01*
X126894466Y-59009999D01*
X126925924Y-58961849D01*
X127019157Y-58749300D01*
X127076134Y-58524305D01*
X127095300Y-58293000D01*
X127076134Y-58061695D01*
X127071400Y-58043000D01*
X144690000Y-58043000D01*
X145840000Y-58043000D01*
X145840000Y-56893000D01*
X145142176Y-56893000D01*
X145082624Y-56899402D01*
X144947910Y-56949647D01*
X144832811Y-57035811D01*
X144746647Y-57150910D01*
X144696402Y-57285624D01*
X144690000Y-57345176D01*
X144690000Y-58043000D01*
X127071400Y-58043000D01*
X127019157Y-57836700D01*
X126925924Y-57624151D01*
X126798979Y-57429847D01*
X126641784Y-57259087D01*
X126458626Y-57116530D01*
X126254503Y-57006064D01*
X126254499Y-57006062D01*
X126254498Y-57006062D01*
X126034984Y-56930702D01*
X125844456Y-56898909D01*
X125806049Y-56892500D01*
X125573951Y-56892500D01*
X125535544Y-56898909D01*
X125345015Y-56930702D01*
X125125501Y-57006062D01*
X125125497Y-57006063D01*
X125125497Y-57006064D01*
X124989415Y-57079707D01*
X124921372Y-57116531D01*
X124738215Y-57259087D01*
X124592590Y-57417279D01*
X124581021Y-57429847D01*
X124581021Y-57429848D01*
X124543809Y-57486805D01*
X124499017Y-57528038D01*
X124440000Y-57542983D01*
X124380983Y-57528038D01*
X124336191Y-57486805D01*
X124298979Y-57429847D01*
X124141784Y-57259087D01*
X123958626Y-57116530D01*
X123754503Y-57006064D01*
X123754499Y-57006062D01*
X123754498Y-57006062D01*
X123534984Y-56930702D01*
X123344456Y-56898909D01*
X123306049Y-56892500D01*
X123073951Y-56892500D01*
X123035544Y-56898909D01*
X122845015Y-56930702D01*
X122625501Y-57006062D01*
X122625497Y-57006063D01*
X122625497Y-57006064D01*
X122489415Y-57079707D01*
X122421372Y-57116531D01*
X122244436Y-57254245D01*
X122192007Y-57278099D01*
X122134458Y-57275691D01*
X122084205Y-57247541D01*
X122052092Y-57199724D01*
X122033796Y-57150669D01*
X121947546Y-57035454D01*
X121832331Y-56949204D01*
X121697483Y-56898909D01*
X121637873Y-56892500D01*
X121637869Y-56892500D01*
X119742130Y-56892500D01*
X119682515Y-56898909D01*
X119547669Y-56949204D01*
X119432454Y-57035454D01*
X119346204Y-57150668D01*
X119295909Y-57285516D01*
X119289500Y-57345130D01*
X119289500Y-59240869D01*
X111564500Y-59240869D01*
X111564500Y-55453999D01*
X123740040Y-55453999D01*
X123759826Y-55642257D01*
X123818320Y-55822284D01*
X123912966Y-55986216D01*
X124039629Y-56126889D01*
X124192769Y-56238151D01*
X124365697Y-56315144D01*
X124550852Y-56354500D01*
X124550854Y-56354500D01*
X124740146Y-56354500D01*
X124740148Y-56354500D01*
X124863583Y-56328262D01*
X124925303Y-56315144D01*
X125098230Y-56238151D01*
X125251371Y-56126888D01*
X125378033Y-55986216D01*
X125472679Y-55822284D01*
X125531174Y-55642256D01*
X125550960Y-55454000D01*
X125531174Y-55265744D01*
X125472679Y-55085716D01*
X125472679Y-55085715D01*
X125378033Y-54921783D01*
X125251370Y-54781110D01*
X125098230Y-54669848D01*
X124925302Y-54592855D01*
X124740148Y-54553500D01*
X124740146Y-54553500D01*
X124550854Y-54553500D01*
X124550852Y-54553500D01*
X124365697Y-54592855D01*
X124192769Y-54669848D01*
X124039629Y-54781110D01*
X123912966Y-54921783D01*
X123818320Y-55085715D01*
X123759826Y-55265742D01*
X123740040Y-55453999D01*
X111564500Y-55453999D01*
X111564500Y-51121003D01*
X116529500Y-51121003D01*
X116544402Y-51324617D01*
X116603616Y-51590438D01*
X116652944Y-51719410D01*
X116700907Y-51844814D01*
X116834196Y-52082310D01*
X116917420Y-52190089D01*
X117000645Y-52297869D01*
X117196704Y-52486894D01*
X117418199Y-52645359D01*
X117547906Y-52712046D01*
X117660403Y-52769885D01*
X117918159Y-52857819D01*
X117918161Y-52857819D01*
X117918163Y-52857820D01*
X118185970Y-52907286D01*
X118458130Y-52917232D01*
X118458130Y-52917231D01*
X118458131Y-52917232D01*
X118728839Y-52887446D01*
X118992326Y-52818562D01*
X119242975Y-52712047D01*
X119475444Y-52570173D01*
X119684779Y-52395963D01*
X119866518Y-52193131D01*
X120016788Y-51965998D01*
X120132386Y-51719406D01*
X120210847Y-51458611D01*
X120250500Y-51189171D01*
X120250500Y-51121003D01*
X126129500Y-51121003D01*
X126144402Y-51324617D01*
X126203616Y-51590438D01*
X126252944Y-51719410D01*
X126300907Y-51844814D01*
X126434196Y-52082310D01*
X126517420Y-52190089D01*
X126600645Y-52297869D01*
X126796704Y-52486894D01*
X127018199Y-52645359D01*
X127147906Y-52712046D01*
X127260403Y-52769885D01*
X127518159Y-52857819D01*
X127518161Y-52857819D01*
X127518163Y-52857820D01*
X127785970Y-52907286D01*
X128058130Y-52917232D01*
X128058130Y-52917231D01*
X128058131Y-52917232D01*
X128328839Y-52887446D01*
X128592326Y-52818562D01*
X128842975Y-52712047D01*
X129075444Y-52570173D01*
X129284779Y-52395963D01*
X129466518Y-52193131D01*
X129616788Y-51965998D01*
X129732386Y-51719406D01*
X129810847Y-51458611D01*
X129850500Y-51189171D01*
X129850500Y-51121003D01*
X141929500Y-51121003D01*
X141944402Y-51324617D01*
X142003616Y-51590438D01*
X142052944Y-51719410D01*
X142100907Y-51844814D01*
X142234196Y-52082310D01*
X142317420Y-52190089D01*
X142400645Y-52297869D01*
X142596704Y-52486894D01*
X142818199Y-52645359D01*
X142947906Y-52712046D01*
X143060403Y-52769885D01*
X143318159Y-52857819D01*
X143318161Y-52857819D01*
X143318163Y-52857820D01*
X143585970Y-52907286D01*
X143858130Y-52917232D01*
X143858130Y-52917231D01*
X143858131Y-52917232D01*
X144128839Y-52887446D01*
X144392326Y-52818562D01*
X144642975Y-52712047D01*
X144875444Y-52570173D01*
X145084779Y-52395963D01*
X145266518Y-52193131D01*
X145416788Y-51965998D01*
X145532386Y-51719406D01*
X145610847Y-51458611D01*
X145650500Y-51189171D01*
X145650500Y-51121003D01*
X151529500Y-51121003D01*
X151544402Y-51324617D01*
X151603616Y-51590438D01*
X151652944Y-51719410D01*
X151700907Y-51844814D01*
X151834196Y-52082310D01*
X151917420Y-52190089D01*
X152000645Y-52297869D01*
X152196704Y-52486894D01*
X152418199Y-52645359D01*
X152547906Y-52712046D01*
X152660403Y-52769885D01*
X152918159Y-52857819D01*
X152918161Y-52857819D01*
X152918163Y-52857820D01*
X153185970Y-52907286D01*
X153458130Y-52917232D01*
X153458130Y-52917231D01*
X153458131Y-52917232D01*
X153728839Y-52887446D01*
X153992326Y-52818562D01*
X154242975Y-52712047D01*
X154475444Y-52570173D01*
X154684779Y-52395963D01*
X154866518Y-52193131D01*
X155016788Y-51965998D01*
X155132386Y-51719406D01*
X155210847Y-51458611D01*
X155250500Y-51189171D01*
X155250500Y-50465000D01*
X155245510Y-50396829D01*
X155235597Y-50261382D01*
X155176383Y-49995561D01*
X155127057Y-49866594D01*
X155079093Y-49741186D01*
X154945804Y-49503690D01*
X154838023Y-49364110D01*
X154779354Y-49288130D01*
X154583295Y-49099105D01*
X154361800Y-48940640D01*
X154119602Y-48816117D01*
X154119598Y-48816115D01*
X154119597Y-48816115D01*
X153976913Y-48767438D01*
X153861836Y-48728179D01*
X153594029Y-48678713D01*
X153321869Y-48668767D01*
X153051162Y-48698553D01*
X152787674Y-48767438D01*
X152537024Y-48873953D01*
X152304556Y-49015826D01*
X152095223Y-49190035D01*
X151913480Y-49392871D01*
X151763210Y-49620005D01*
X151647615Y-49866589D01*
X151569153Y-50127388D01*
X151569153Y-50127389D01*
X151549434Y-50261382D01*
X151529500Y-50396832D01*
X151529500Y-51121003D01*
X145650500Y-51121003D01*
X145650500Y-50465000D01*
X145645510Y-50396829D01*
X145635597Y-50261382D01*
X145576383Y-49995561D01*
X145527057Y-49866594D01*
X145479093Y-49741186D01*
X145345804Y-49503690D01*
X145238023Y-49364110D01*
X145179354Y-49288130D01*
X144983295Y-49099105D01*
X144761800Y-48940640D01*
X144519602Y-48816117D01*
X144519598Y-48816115D01*
X144519597Y-48816115D01*
X144376913Y-48767438D01*
X144261836Y-48728179D01*
X143994029Y-48678713D01*
X143721869Y-48668767D01*
X143451162Y-48698553D01*
X143187674Y-48767438D01*
X142937024Y-48873953D01*
X142704556Y-49015826D01*
X142495223Y-49190035D01*
X142313480Y-49392871D01*
X142163210Y-49620005D01*
X142047615Y-49866589D01*
X141969153Y-50127388D01*
X141969153Y-50127389D01*
X141949434Y-50261382D01*
X141929500Y-50396832D01*
X141929500Y-51121003D01*
X129850500Y-51121003D01*
X129850500Y-50465000D01*
X129845510Y-50396829D01*
X129835597Y-50261382D01*
X129776383Y-49995561D01*
X129727057Y-49866594D01*
X129679093Y-49741186D01*
X129545804Y-49503690D01*
X129438023Y-49364110D01*
X129379354Y-49288130D01*
X129183295Y-49099105D01*
X128961800Y-48940640D01*
X128719602Y-48816117D01*
X128719598Y-48816115D01*
X128719597Y-48816115D01*
X128576913Y-48767438D01*
X128461836Y-48728179D01*
X128194029Y-48678713D01*
X127921869Y-48668767D01*
X127651162Y-48698553D01*
X127387674Y-48767438D01*
X127137024Y-48873953D01*
X126904556Y-49015826D01*
X126695223Y-49190035D01*
X126513480Y-49392871D01*
X126363210Y-49620005D01*
X126247615Y-49866589D01*
X126169153Y-50127388D01*
X126169153Y-50127389D01*
X126149434Y-50261382D01*
X126129500Y-50396832D01*
X126129500Y-51121003D01*
X120250500Y-51121003D01*
X120250500Y-50465000D01*
X120245510Y-50396829D01*
X120235597Y-50261382D01*
X120176383Y-49995561D01*
X120127057Y-49866594D01*
X120079093Y-49741186D01*
X119945804Y-49503690D01*
X119838023Y-49364110D01*
X119779354Y-49288130D01*
X119583295Y-49099105D01*
X119361800Y-48940640D01*
X119119602Y-48816117D01*
X119119598Y-48816115D01*
X119119597Y-48816115D01*
X118976913Y-48767438D01*
X118861836Y-48728179D01*
X118594029Y-48678713D01*
X118321869Y-48668767D01*
X118051162Y-48698553D01*
X117787674Y-48767438D01*
X117537024Y-48873953D01*
X117304556Y-49015826D01*
X117095223Y-49190035D01*
X116913480Y-49392871D01*
X116763210Y-49620005D01*
X116647615Y-49866589D01*
X116569153Y-50127388D01*
X116569153Y-50127389D01*
X116549434Y-50261382D01*
X116529500Y-50396832D01*
X116529500Y-51121003D01*
X111564500Y-51121003D01*
X111564500Y-45545000D01*
X111581113Y-45483000D01*
X111626500Y-45437613D01*
X111688500Y-45421000D01*
X160081500Y-45421000D01*
X160143500Y-45437613D01*
G37*
%TD.AperFunction*%
%TD*%
M02*
