%TF.GenerationSoftware,KiCad,Pcbnew,7.0.1*%
%TF.CreationDate,2024-08-14T21:14:33-04:00*%
%TF.ProjectId,attenuverter_mixer,61747465-6e75-4766-9572-7465725f6d69,rev?*%
%TF.SameCoordinates,Original*%
%TF.FileFunction,Copper,L4,Bot*%
%TF.FilePolarity,Positive*%
%FSLAX46Y46*%
G04 Gerber Fmt 4.6, Leading zero omitted, Abs format (unit mm)*
G04 Created by KiCad (PCBNEW 7.0.1) date 2024-08-14 21:14:33*
%MOMM*%
%LPD*%
G01*
G04 APERTURE LIST*
G04 Aperture macros list*
%AMRoundRect*
0 Rectangle with rounded corners*
0 $1 Rounding radius*
0 $2 $3 $4 $5 $6 $7 $8 $9 X,Y pos of 4 corners*
0 Add a 4 corners polygon primitive as box body*
4,1,4,$2,$3,$4,$5,$6,$7,$8,$9,$2,$3,0*
0 Add four circle primitives for the rounded corners*
1,1,$1+$1,$2,$3*
1,1,$1+$1,$4,$5*
1,1,$1+$1,$6,$7*
1,1,$1+$1,$8,$9*
0 Add four rect primitives between the rounded corners*
20,1,$1+$1,$2,$3,$4,$5,0*
20,1,$1+$1,$4,$5,$6,$7,0*
20,1,$1+$1,$6,$7,$8,$9,0*
20,1,$1+$1,$8,$9,$2,$3,0*%
G04 Aperture macros list end*
%TA.AperFunction,ComponentPad*%
%ADD10R,1.700000X1.700000*%
%TD*%
%TA.AperFunction,ComponentPad*%
%ADD11O,1.700000X1.700000*%
%TD*%
%TA.AperFunction,ComponentPad*%
%ADD12C,2.000000*%
%TD*%
%TA.AperFunction,ComponentPad*%
%ADD13O,2.720000X3.240000*%
%TD*%
%TA.AperFunction,ComponentPad*%
%ADD14R,1.800000X1.800000*%
%TD*%
%TA.AperFunction,ComponentPad*%
%ADD15C,1.800000*%
%TD*%
%TA.AperFunction,ComponentPad*%
%ADD16C,3.000000*%
%TD*%
%TA.AperFunction,SMDPad,CuDef*%
%ADD17RoundRect,0.250000X-1.250000X-0.550000X1.250000X-0.550000X1.250000X0.550000X-1.250000X0.550000X0*%
%TD*%
%TA.AperFunction,SMDPad,CuDef*%
%ADD18RoundRect,0.100000X-0.637500X-0.100000X0.637500X-0.100000X0.637500X0.100000X-0.637500X0.100000X0*%
%TD*%
%TA.AperFunction,SMDPad,CuDef*%
%ADD19RoundRect,0.200000X0.200000X0.275000X-0.200000X0.275000X-0.200000X-0.275000X0.200000X-0.275000X0*%
%TD*%
%TA.AperFunction,SMDPad,CuDef*%
%ADD20RoundRect,0.225000X-0.225000X-0.250000X0.225000X-0.250000X0.225000X0.250000X-0.225000X0.250000X0*%
%TD*%
%TA.AperFunction,SMDPad,CuDef*%
%ADD21RoundRect,0.200000X-0.200000X-0.275000X0.200000X-0.275000X0.200000X0.275000X-0.200000X0.275000X0*%
%TD*%
%TA.AperFunction,SMDPad,CuDef*%
%ADD22RoundRect,0.100000X0.637500X0.100000X-0.637500X0.100000X-0.637500X-0.100000X0.637500X-0.100000X0*%
%TD*%
%TA.AperFunction,SMDPad,CuDef*%
%ADD23RoundRect,0.225000X0.225000X0.250000X-0.225000X0.250000X-0.225000X-0.250000X0.225000X-0.250000X0*%
%TD*%
%TA.AperFunction,SMDPad,CuDef*%
%ADD24RoundRect,0.250000X-1.075000X0.312500X-1.075000X-0.312500X1.075000X-0.312500X1.075000X0.312500X0*%
%TD*%
%TA.AperFunction,SMDPad,CuDef*%
%ADD25RoundRect,0.250000X1.250000X0.550000X-1.250000X0.550000X-1.250000X-0.550000X1.250000X-0.550000X0*%
%TD*%
%TA.AperFunction,SMDPad,CuDef*%
%ADD26RoundRect,0.225000X0.225000X0.375000X-0.225000X0.375000X-0.225000X-0.375000X0.225000X-0.375000X0*%
%TD*%
%TA.AperFunction,SMDPad,CuDef*%
%ADD27RoundRect,0.225000X-0.225000X-0.375000X0.225000X-0.375000X0.225000X0.375000X-0.225000X0.375000X0*%
%TD*%
%TA.AperFunction,SMDPad,CuDef*%
%ADD28RoundRect,0.250000X-0.550000X1.250000X-0.550000X-1.250000X0.550000X-1.250000X0.550000X1.250000X0*%
%TD*%
%TA.AperFunction,ViaPad*%
%ADD29C,0.800000*%
%TD*%
%TA.AperFunction,Conductor*%
%ADD30C,0.508000*%
%TD*%
%TA.AperFunction,Conductor*%
%ADD31C,0.250000*%
%TD*%
%TA.AperFunction,Conductor*%
%ADD32C,0.254000*%
%TD*%
G04 APERTURE END LIST*
D10*
%TO.P,J7,1,-12V*%
%TO.N,/Power/V-_IN*%
X118110000Y-125349000D03*
D11*
%TO.P,J7,2,-12V*%
X115570000Y-125349000D03*
%TO.P,J7,3,gnd*%
%TO.N,GND*%
X118110000Y-122809000D03*
%TO.P,J7,4,gnd*%
X115570000Y-122809000D03*
%TO.P,J7,5,gnd*%
X118110000Y-120269000D03*
%TO.P,J7,6,gnd*%
X115570000Y-120269000D03*
%TO.P,J7,7,gnd*%
X118110000Y-117729000D03*
%TO.P,J7,8,gnd*%
X115570000Y-117729000D03*
%TO.P,J7,9,+12V*%
%TO.N,/Power/V+_IN*%
X118110000Y-115189000D03*
%TO.P,J7,10,+12V*%
X115570000Y-115189000D03*
%TD*%
D12*
%TO.P,J5,S*%
%TO.N,GND*%
X142268500Y-147955000D03*
%TO.P,J5,T*%
%TO.N,Net-(J5-PadT)*%
X130868500Y-147955000D03*
%TO.P,J5,TN*%
%TO.N,att_2_out*%
X139168500Y-147955000D03*
%TD*%
D13*
%TO.P,RV3,*%
%TO.N,*%
X118390000Y-101593000D03*
X127990000Y-101593000D03*
D14*
%TO.P,RV3,1,1*%
%TO.N,GND*%
X120690000Y-109093000D03*
D15*
%TO.P,RV3,2,2*%
%TO.N,Net-(U2C-+)*%
X123190000Y-109093000D03*
%TO.P,RV3,3,3*%
%TO.N,Net-(J3-PadT)*%
X125690000Y-109093000D03*
%TD*%
D12*
%TO.P,J2,S*%
%TO.N,GND*%
X142268500Y-135255000D03*
%TO.P,J2,T*%
%TO.N,Net-(J2-PadT)*%
X130868500Y-135255000D03*
%TO.P,J2,TN*%
%TO.N,unconnected-(J2-PadTN)*%
X139168500Y-135255000D03*
%TD*%
D13*
%TO.P,RV6,*%
%TO.N,*%
X143790000Y-101593000D03*
X153390000Y-101593000D03*
D14*
%TO.P,RV6,1,1*%
%TO.N,+12V*%
X146090000Y-109093000D03*
D15*
%TO.P,RV6,2,2*%
%TO.N,offset_3*%
X148590000Y-109093000D03*
%TO.P,RV6,3,3*%
%TO.N,-12V*%
X151090000Y-109093000D03*
%TD*%
D13*
%TO.P,RV4,*%
%TO.N,*%
X143790000Y-50793000D03*
X153390000Y-50793000D03*
D14*
%TO.P,RV4,1,1*%
%TO.N,+12V*%
X146090000Y-58293000D03*
D15*
%TO.P,RV4,2,2*%
%TO.N,offset_1*%
X148590000Y-58293000D03*
%TO.P,RV4,3,3*%
%TO.N,-12V*%
X151090000Y-58293000D03*
%TD*%
D12*
%TO.P,J6,S*%
%TO.N,GND*%
X158016500Y-147910000D03*
%TO.P,J6,T*%
%TO.N,Net-(J6-PadT)*%
X146616500Y-147910000D03*
%TO.P,J6,TN*%
%TO.N,unconnected-(J6-PadTN)*%
X154916500Y-147910000D03*
%TD*%
D13*
%TO.P,RV2,*%
%TO.N,*%
X118390000Y-76193000D03*
X127990000Y-76193000D03*
D14*
%TO.P,RV2,1,1*%
%TO.N,GND*%
X120690000Y-83693000D03*
D15*
%TO.P,RV2,2,2*%
%TO.N,Net-(U1D-+)*%
X123190000Y-83693000D03*
%TO.P,RV2,3,3*%
%TO.N,Net-(J2-PadT)*%
X125690000Y-83693000D03*
%TD*%
D13*
%TO.P,RV1,*%
%TO.N,*%
X118390000Y-50793000D03*
X127990000Y-50793000D03*
D14*
%TO.P,RV1,1,1*%
%TO.N,GND*%
X120690000Y-58293000D03*
D15*
%TO.P,RV1,2,2*%
%TO.N,Net-(U1B-+)*%
X123190000Y-58293000D03*
%TO.P,RV1,3,3*%
%TO.N,Net-(J1-PadT)*%
X125690000Y-58293000D03*
%TD*%
D13*
%TO.P,RV5,*%
%TO.N,*%
X143790000Y-76193000D03*
X153390000Y-76193000D03*
D14*
%TO.P,RV5,1,1*%
%TO.N,+12V*%
X146090000Y-83693000D03*
D15*
%TO.P,RV5,2,2*%
%TO.N,offset_2*%
X148590000Y-83693000D03*
%TO.P,RV5,3,3*%
%TO.N,-12V*%
X151090000Y-83693000D03*
%TD*%
D12*
%TO.P,J4,S*%
%TO.N,GND*%
X113753500Y-147955000D03*
%TO.P,J4,T*%
%TO.N,Net-(J4-PadT)*%
X125153500Y-147955000D03*
%TO.P,J4,TN*%
%TO.N,att_1_out*%
X116853500Y-147955000D03*
%TD*%
%TO.P,J1,S*%
%TO.N,GND*%
X113723500Y-135255000D03*
%TO.P,J1,T*%
%TO.N,Net-(J1-PadT)*%
X125123500Y-135255000D03*
%TO.P,J1,TN*%
%TO.N,unconnected-(J1-PadTN)*%
X116823500Y-135255000D03*
%TD*%
%TO.P,J3,S*%
%TO.N,GND*%
X158046500Y-135210000D03*
%TO.P,J3,T*%
%TO.N,Net-(J3-PadT)*%
X146646500Y-135210000D03*
%TO.P,J3,TN*%
%TO.N,unconnected-(J3-PadTN)*%
X154946500Y-135210000D03*
%TD*%
D16*
%TO.P,SW1,1,A*%
%TO.N,Net-(SW1-A)*%
X140590000Y-121113000D03*
%TO.P,SW1,2,B*%
%TO.N,Net-(SW1-B)*%
X135890000Y-121113000D03*
%TO.P,SW1,3,C*%
%TO.N,Net-(SW1-C)*%
X131190000Y-121113000D03*
%TD*%
D17*
%TO.P,C10,1*%
%TO.N,+12V*%
X130065500Y-112985000D03*
%TO.P,C10,2*%
%TO.N,GND*%
X134465500Y-112985000D03*
%TD*%
D18*
%TO.P,U1,1*%
%TO.N,Net-(C4-Pad2)*%
X133027500Y-67609000D03*
%TO.P,U1,2,-*%
%TO.N,Net-(U1A--)*%
X133027500Y-66959000D03*
%TO.P,U1,3,+*%
%TO.N,GND*%
X133027500Y-66309000D03*
%TO.P,U1,4,V+*%
%TO.N,+12V*%
X133027500Y-65659000D03*
%TO.P,U1,5,+*%
%TO.N,Net-(U1B-+)*%
X133027500Y-65009000D03*
%TO.P,U1,6,-*%
%TO.N,Net-(U1B--)*%
X133027500Y-64359000D03*
%TO.P,U1,7*%
%TO.N,Net-(C1-Pad2)*%
X133027500Y-63709000D03*
%TO.P,U1,8*%
%TO.N,Net-(C5-Pad2)*%
X138752500Y-63709000D03*
%TO.P,U1,9,-*%
%TO.N,Net-(U1C--)*%
X138752500Y-64359000D03*
%TO.P,U1,10,+*%
%TO.N,GND*%
X138752500Y-65009000D03*
%TO.P,U1,11,V-*%
%TO.N,-12V*%
X138752500Y-65659000D03*
%TO.P,U1,12,+*%
%TO.N,Net-(U1D-+)*%
X138752500Y-66309000D03*
%TO.P,U1,13,-*%
%TO.N,Net-(U1D--)*%
X138752500Y-66959000D03*
%TO.P,U1,14*%
%TO.N,Net-(C2-Pad2)*%
X138752500Y-67609000D03*
%TD*%
D19*
%TO.P,R18,1*%
%TO.N,att_1_out*%
X144081000Y-89281000D03*
%TO.P,R18,2*%
%TO.N,Net-(U2A--)*%
X142431000Y-89281000D03*
%TD*%
%TO.P,R4,1*%
%TO.N,Net-(U1B--)*%
X129095000Y-62103000D03*
%TO.P,R4,2*%
%TO.N,Net-(C1-Pad2)*%
X127445000Y-62103000D03*
%TD*%
D20*
%TO.P,C2,1*%
%TO.N,Net-(U1D--)*%
X142735000Y-69215000D03*
%TO.P,C2,2*%
%TO.N,Net-(C2-Pad2)*%
X144285000Y-69215000D03*
%TD*%
D21*
%TO.P,R9,1*%
%TO.N,Net-(C3-Pad2)*%
X126683000Y-91059000D03*
%TO.P,R9,2*%
%TO.N,Net-(U2D--)*%
X128333000Y-91059000D03*
%TD*%
%TO.P,R11,1*%
%TO.N,offset_1*%
X127445000Y-67437000D03*
%TO.P,R11,2*%
%TO.N,Net-(U1A--)*%
X129095000Y-67437000D03*
%TD*%
D22*
%TO.P,U2,1*%
%TO.N,Net-(SW1-A)*%
X138752500Y-89617000D03*
%TO.P,U2,2,-*%
%TO.N,Net-(U2A--)*%
X138752500Y-90267000D03*
%TO.P,U2,3,+*%
%TO.N,GND*%
X138752500Y-90917000D03*
%TO.P,U2,4,V+*%
%TO.N,+12V*%
X138752500Y-91567000D03*
%TO.P,U2,5,+*%
%TO.N,GND*%
X138752500Y-92217000D03*
%TO.P,U2,6,-*%
%TO.N,Net-(U2B--)*%
X138752500Y-92867000D03*
%TO.P,U2,7*%
%TO.N,Net-(C9-Pad2)*%
X138752500Y-93517000D03*
%TO.P,U2,8*%
%TO.N,Net-(C3-Pad2)*%
X133027500Y-93517000D03*
%TO.P,U2,9,-*%
%TO.N,Net-(U2C--)*%
X133027500Y-92867000D03*
%TO.P,U2,10,+*%
%TO.N,Net-(U2C-+)*%
X133027500Y-92217000D03*
%TO.P,U2,11,V-*%
%TO.N,-12V*%
X133027500Y-91567000D03*
%TO.P,U2,12,+*%
%TO.N,GND*%
X133027500Y-90917000D03*
%TO.P,U2,13,-*%
%TO.N,Net-(U2D--)*%
X133027500Y-90267000D03*
%TO.P,U2,14*%
%TO.N,att_3_out*%
X133027500Y-89617000D03*
%TD*%
D23*
%TO.P,C13,1*%
%TO.N,GND*%
X136665000Y-70993000D03*
%TO.P,C13,2*%
%TO.N,-12V*%
X135115000Y-70993000D03*
%TD*%
D19*
%TO.P,R6,1*%
%TO.N,Net-(U2C--)*%
X128333000Y-94615000D03*
%TO.P,R6,2*%
%TO.N,Net-(C3-Pad2)*%
X126683000Y-94615000D03*
%TD*%
%TO.P,R15,1*%
%TO.N,Net-(U2D--)*%
X128333000Y-87503000D03*
%TO.P,R15,2*%
%TO.N,att_3_out*%
X126683000Y-87503000D03*
%TD*%
D24*
%TO.P,R16,1*%
%TO.N,Net-(C4-Pad2)*%
X125222000Y-141412500D03*
%TO.P,R16,2*%
%TO.N,Net-(J4-PadT)*%
X125222000Y-144337500D03*
%TD*%
D19*
%TO.P,R8,1*%
%TO.N,Net-(C2-Pad2)*%
X144335000Y-65659000D03*
%TO.P,R8,2*%
%TO.N,Net-(U1C--)*%
X142685000Y-65659000D03*
%TD*%
D20*
%TO.P,C15,1*%
%TO.N,GND*%
X135115000Y-85725000D03*
%TO.P,C15,2*%
%TO.N,-12V*%
X136665000Y-85725000D03*
%TD*%
D19*
%TO.P,R19,1*%
%TO.N,att_2_out*%
X144081000Y-91059000D03*
%TO.P,R19,2*%
%TO.N,Net-(U2A--)*%
X142431000Y-91059000D03*
%TD*%
D21*
%TO.P,R12,1*%
%TO.N,offset_3*%
X126683000Y-89281000D03*
%TO.P,R12,2*%
%TO.N,Net-(U2D--)*%
X128333000Y-89281000D03*
%TD*%
D23*
%TO.P,C1,1*%
%TO.N,Net-(U1B--)*%
X129045000Y-63881000D03*
%TO.P,C1,2*%
%TO.N,Net-(C1-Pad2)*%
X127495000Y-63881000D03*
%TD*%
%TO.P,C12,1*%
%TO.N,+12V*%
X136665000Y-60325000D03*
%TO.P,C12,2*%
%TO.N,GND*%
X135115000Y-60325000D03*
%TD*%
D21*
%TO.P,R14,1*%
%TO.N,Net-(U1C--)*%
X142685000Y-62103000D03*
%TO.P,R14,2*%
%TO.N,Net-(C5-Pad2)*%
X144335000Y-62103000D03*
%TD*%
D23*
%TO.P,C3,1*%
%TO.N,Net-(U2C--)*%
X128283000Y-92837000D03*
%TO.P,C3,2*%
%TO.N,Net-(C3-Pad2)*%
X126733000Y-92837000D03*
%TD*%
D19*
%TO.P,R10,1*%
%TO.N,offset_2*%
X144335000Y-63881000D03*
%TO.P,R10,2*%
%TO.N,Net-(U1C--)*%
X142685000Y-63881000D03*
%TD*%
%TO.P,R2,1*%
%TO.N,Net-(J2-PadT)*%
X144335000Y-70993000D03*
%TO.P,R2,2*%
%TO.N,Net-(U1D--)*%
X142685000Y-70993000D03*
%TD*%
D23*
%TO.P,C4,1*%
%TO.N,Net-(U1A--)*%
X129032000Y-70993000D03*
%TO.P,C4,2*%
%TO.N,Net-(C4-Pad2)*%
X127482000Y-70993000D03*
%TD*%
D25*
%TO.P,C11,1*%
%TO.N,GND*%
X135481500Y-127463000D03*
%TO.P,C11,2*%
%TO.N,-12V*%
X131081500Y-127463000D03*
%TD*%
D20*
%TO.P,C7,1*%
%TO.N,Net-(U2A--)*%
X142481000Y-85725000D03*
%TO.P,C7,2*%
%TO.N,Net-(SW1-A)*%
X144031000Y-85725000D03*
%TD*%
%TO.P,C5,1*%
%TO.N,Net-(U1C--)*%
X142735000Y-60325000D03*
%TO.P,C5,2*%
%TO.N,Net-(C5-Pad2)*%
X144285000Y-60325000D03*
%TD*%
D19*
%TO.P,R20,1*%
%TO.N,att_3_out*%
X144081000Y-92837000D03*
%TO.P,R20,2*%
%TO.N,Net-(U2A--)*%
X142431000Y-92837000D03*
%TD*%
D21*
%TO.P,R21,1*%
%TO.N,Net-(U2A--)*%
X142431000Y-87503000D03*
%TO.P,R21,2*%
%TO.N,Net-(SW1-A)*%
X144081000Y-87503000D03*
%TD*%
D19*
%TO.P,R13,1*%
%TO.N,Net-(U1A--)*%
X129095000Y-69215000D03*
%TO.P,R13,2*%
%TO.N,Net-(C4-Pad2)*%
X127445000Y-69215000D03*
%TD*%
D21*
%TO.P,R5,1*%
%TO.N,Net-(U1D--)*%
X142685000Y-67437000D03*
%TO.P,R5,2*%
%TO.N,Net-(C2-Pad2)*%
X144335000Y-67437000D03*
%TD*%
D19*
%TO.P,R22,1*%
%TO.N,Net-(SW1-B)*%
X144081000Y-94615000D03*
%TO.P,R22,2*%
%TO.N,Net-(U2B--)*%
X142431000Y-94615000D03*
%TD*%
%TO.P,R23,1*%
%TO.N,Net-(U2B--)*%
X144081000Y-96393000D03*
%TO.P,R23,2*%
%TO.N,Net-(C9-Pad2)*%
X142431000Y-96393000D03*
%TD*%
D21*
%TO.P,R1,1*%
%TO.N,Net-(J1-PadT)*%
X127445000Y-60325000D03*
%TO.P,R1,2*%
%TO.N,Net-(U1B--)*%
X129095000Y-60325000D03*
%TD*%
D20*
%TO.P,C14,1*%
%TO.N,+12V*%
X135623000Y-96393000D03*
%TO.P,C14,2*%
%TO.N,GND*%
X137173000Y-96393000D03*
%TD*%
D23*
%TO.P,C6,1*%
%TO.N,Net-(U2D--)*%
X128283000Y-85725000D03*
%TO.P,C6,2*%
%TO.N,att_3_out*%
X126733000Y-85725000D03*
%TD*%
D26*
%TO.P,D1,1,K*%
%TO.N,+12V*%
X126110000Y-115189000D03*
%TO.P,D1,2,A*%
%TO.N,/Power/V+_IN*%
X122810000Y-115189000D03*
%TD*%
D24*
%TO.P,R24,1*%
%TO.N,Net-(C9-Pad2)*%
X146558000Y-141412500D03*
%TO.P,R24,2*%
%TO.N,Net-(J6-PadT)*%
X146558000Y-144337500D03*
%TD*%
D27*
%TO.P,D2,1,K*%
%TO.N,/Power/V-_IN*%
X124588000Y-128397000D03*
%TO.P,D2,2,A*%
%TO.N,-12V*%
X127888000Y-128397000D03*
%TD*%
D24*
%TO.P,R17,1*%
%TO.N,Net-(C5-Pad2)*%
X130810000Y-141412500D03*
%TO.P,R17,2*%
%TO.N,Net-(J5-PadT)*%
X130810000Y-144337500D03*
%TD*%
D21*
%TO.P,R7,1*%
%TO.N,Net-(C1-Pad2)*%
X127445000Y-65659000D03*
%TO.P,R7,2*%
%TO.N,Net-(U1A--)*%
X129095000Y-65659000D03*
%TD*%
%TO.P,R3,1*%
%TO.N,Net-(J3-PadT)*%
X126683000Y-96393000D03*
%TO.P,R3,2*%
%TO.N,Net-(U2C--)*%
X128333000Y-96393000D03*
%TD*%
D28*
%TO.P,C8,1*%
%TO.N,Net-(SW1-A)*%
X154686000Y-88351000D03*
%TO.P,C8,2*%
%TO.N,Net-(SW1-C)*%
X154686000Y-92751000D03*
%TD*%
D23*
%TO.P,C9,1*%
%TO.N,Net-(U2B--)*%
X144031000Y-98171000D03*
%TO.P,C9,2*%
%TO.N,Net-(C9-Pad2)*%
X142481000Y-98171000D03*
%TD*%
D29*
%TO.N,+12V*%
X136837500Y-58883000D03*
X135567500Y-97872000D03*
%TO.N,GND*%
X137345500Y-112985000D03*
X137218500Y-97872000D03*
X134357054Y-90692554D03*
X134043500Y-86823000D03*
X134585339Y-65999713D03*
X137091500Y-64979000D03*
X137046922Y-90808668D03*
X138036500Y-127529790D03*
X137359779Y-92785613D03*
X135186500Y-59010000D03*
X136802000Y-72368989D03*
%TO.N,-12V*%
X150934500Y-125558000D03*
X130868500Y-82505000D03*
X130868500Y-91268000D03*
X140901500Y-65614000D03*
X130868500Y-84664000D03*
%TO.N,Net-(C5-Pad2)*%
X137726500Y-141306000D03*
X140960342Y-60846842D03*
%TO.N,Net-(J2-PadT)*%
X144330500Y-72472000D03*
X141282500Y-83394000D03*
%TO.N,Net-(J3-PadT)*%
X126677500Y-138385000D03*
X125280500Y-97618000D03*
%TO.N,Net-(SW1-A)*%
X140261841Y-86691341D03*
%TO.N,offset_1*%
X124645500Y-55454000D03*
X123623786Y-67386286D03*
%TO.N,offset_2*%
X149029500Y-63963000D03*
%TO.N,Net-(U1D-+)*%
X137366951Y-67127270D03*
X136075500Y-81362000D03*
%TO.N,att_1_out*%
X148140500Y-149815000D03*
X150045500Y-89236000D03*
%TO.N,att_2_out*%
X148521500Y-91141000D03*
%TO.N,att_3_out*%
X143822500Y-83902000D03*
X149283500Y-93046000D03*
%TO.N,Net-(C4-Pad2)*%
X131043659Y-70234159D03*
X127693500Y-141306000D03*
%TO.N,Net-(SW1-C)*%
X154998500Y-117303000D03*
X154744500Y-95713000D03*
%TO.N,offset_3*%
X123248500Y-106254000D03*
X122486500Y-89236000D03*
%TO.N,Net-(SW1-B)*%
X148775500Y-94570000D03*
X144838500Y-119286000D03*
%TO.N,Net-(C9-Pad2)*%
X147632500Y-99523000D03*
X148140500Y-138893000D03*
%TO.N,Net-(U2C-+)*%
X129852500Y-107270000D03*
X129852500Y-92030000D03*
%TD*%
D30*
%TO.N,+12V*%
X133957500Y-109093000D02*
X146090000Y-109093000D01*
D31*
X135623000Y-97816500D02*
X135567500Y-97872000D01*
X136665000Y-62710041D02*
X133716041Y-65659000D01*
X135623000Y-93497793D02*
X137553793Y-91567000D01*
D30*
X130065500Y-112985000D02*
X133957500Y-109093000D01*
D31*
X135623000Y-96393000D02*
X135623000Y-93497793D01*
D30*
X127861500Y-115189000D02*
X130065500Y-112985000D01*
D31*
X137553793Y-91567000D02*
X138752500Y-91567000D01*
X136665000Y-60325000D02*
X136665000Y-62710041D01*
D30*
X126110000Y-115189000D02*
X127861500Y-115189000D01*
D31*
X135623000Y-96393000D02*
X135623000Y-97816500D01*
X136665000Y-60325000D02*
X136665000Y-59055500D01*
X136665000Y-59055500D02*
X136837500Y-58883000D01*
X133716041Y-65659000D02*
X133027500Y-65659000D01*
%TO.N,GND*%
X136665000Y-72231989D02*
X136802000Y-72368989D01*
D32*
X134465500Y-112985000D02*
X137345500Y-112985000D01*
D31*
X133027500Y-66309000D02*
X134276052Y-66309000D01*
X137155254Y-90917000D02*
X137046922Y-90808668D01*
X135115000Y-85725000D02*
X135115000Y-85751500D01*
X133027500Y-90917000D02*
X134132608Y-90917000D01*
X137173000Y-96393000D02*
X137173000Y-97826500D01*
D32*
X137969710Y-127463000D02*
X138036500Y-127529790D01*
D31*
X135115000Y-59081500D02*
X135186500Y-59010000D01*
X136665000Y-70993000D02*
X136665000Y-72231989D01*
X137121500Y-65009000D02*
X137091500Y-64979000D01*
X135115000Y-85751500D02*
X134043500Y-86823000D01*
X134132608Y-90917000D02*
X134357054Y-90692554D01*
X134276052Y-66309000D02*
X134585339Y-65999713D01*
X137173000Y-97826500D02*
X137218500Y-97872000D01*
X135115000Y-60325000D02*
X135115000Y-59081500D01*
X138752500Y-90917000D02*
X137155254Y-90917000D01*
D32*
X135481500Y-127463000D02*
X137969710Y-127463000D01*
D31*
X138752500Y-65009000D02*
X137121500Y-65009000D01*
X137928392Y-92217000D02*
X137359779Y-92785613D01*
X138752500Y-92217000D02*
X137928392Y-92217000D01*
D32*
%TO.N,-12V*%
X135232337Y-70875663D02*
X135232337Y-68234456D01*
D30*
X128822000Y-127463000D02*
X127888000Y-128397000D01*
D32*
X131167500Y-91567000D02*
X130868500Y-91268000D01*
X140856500Y-65659000D02*
X140901500Y-65614000D01*
X133027500Y-91567000D02*
X131167500Y-91567000D01*
X149863000Y-82466000D02*
X151090000Y-83693000D01*
D30*
X131081500Y-127463000D02*
X128822000Y-127463000D01*
D32*
X130907500Y-82466000D02*
X149863000Y-82466000D01*
X135604000Y-84664000D02*
X136665000Y-85725000D01*
X137807793Y-65659000D02*
X138752500Y-65659000D01*
X138752500Y-65659000D02*
X140856500Y-65659000D01*
X130868500Y-82505000D02*
X130907500Y-82466000D01*
X130868500Y-84664000D02*
X135604000Y-84664000D01*
D30*
X132986500Y-125558000D02*
X131081500Y-127463000D01*
D32*
X135115000Y-70993000D02*
X135232337Y-70875663D01*
D30*
X150934500Y-125558000D02*
X132986500Y-125558000D01*
D32*
X135232337Y-68234456D02*
X137807793Y-65659000D01*
D31*
%TO.N,Net-(U1A--)*%
X133027500Y-66959000D02*
X129573000Y-66959000D01*
X129573000Y-66959000D02*
X129095000Y-67437000D01*
X129095000Y-65659000D02*
X129095000Y-69215000D01*
X129095000Y-70930000D02*
X129032000Y-70993000D01*
X129095000Y-69215000D02*
X129095000Y-70930000D01*
D32*
%TO.N,Net-(C5-Pad2)*%
X137726500Y-141306000D02*
X130916500Y-141306000D01*
D31*
X144285000Y-62053000D02*
X144335000Y-62103000D01*
D32*
X130916500Y-141306000D02*
X130810000Y-141412500D01*
D31*
X143485000Y-59525000D02*
X144285000Y-60325000D01*
X142282183Y-59525000D02*
X143485000Y-59525000D01*
X138752500Y-63709000D02*
X138752500Y-63054683D01*
X144285000Y-60325000D02*
X144285000Y-62053000D01*
X138752500Y-63054683D02*
X142282183Y-59525000D01*
%TO.N,Net-(U1C--)*%
X142735000Y-65609000D02*
X142685000Y-65659000D01*
X138752500Y-64359000D02*
X142207000Y-64359000D01*
X142207000Y-64359000D02*
X142685000Y-63881000D01*
X142735000Y-60325000D02*
X142735000Y-65609000D01*
%TO.N,Net-(U2A--)*%
X140427041Y-89281000D02*
X142431000Y-89281000D01*
X142431000Y-92837000D02*
X142431000Y-85775000D01*
X142431000Y-85775000D02*
X142481000Y-85725000D01*
X138752500Y-90267000D02*
X139441041Y-90267000D01*
X139441041Y-90267000D02*
X140427041Y-89281000D01*
%TO.N,Net-(U2B--)*%
X142431000Y-94743000D02*
X144081000Y-96393000D01*
X140607848Y-92867000D02*
X138752500Y-92867000D01*
X142431000Y-94615000D02*
X142431000Y-94743000D01*
X142431000Y-94615000D02*
X142355848Y-94615000D01*
X142355848Y-94615000D02*
X140607848Y-92867000D01*
X144031000Y-98171000D02*
X144031000Y-96443000D01*
X144031000Y-96443000D02*
X144081000Y-96393000D01*
%TO.N,Net-(U1D--)*%
X142685000Y-67437000D02*
X142207000Y-66959000D01*
X142207000Y-66959000D02*
X138752500Y-66959000D01*
X142685000Y-70993000D02*
X142685000Y-67437000D01*
%TO.N,Net-(U1B--)*%
X129523000Y-64359000D02*
X133027500Y-64359000D01*
X129045000Y-62153000D02*
X129095000Y-62103000D01*
X129095000Y-60325000D02*
X129095000Y-62103000D01*
X129045000Y-63881000D02*
X129523000Y-64359000D01*
X129045000Y-63881000D02*
X129045000Y-62153000D01*
D32*
%TO.N,Net-(J2-PadT)*%
X144330500Y-70997500D02*
X144335000Y-70993000D01*
X144330500Y-72472000D02*
X144330500Y-70997500D01*
X140983500Y-83693000D02*
X141282500Y-83394000D01*
X125690000Y-83693000D02*
X140983500Y-83693000D01*
%TO.N,Net-(J3-PadT)*%
X125280500Y-97618000D02*
X125458000Y-97618000D01*
X143458000Y-138385000D02*
X126677500Y-138385000D01*
X146588000Y-135255000D02*
X143458000Y-138385000D01*
X125458000Y-97618000D02*
X126683000Y-96393000D01*
%TO.N,Net-(J4-PadT)*%
X125192000Y-144367500D02*
X125192000Y-147955000D01*
X125222000Y-144337500D02*
X125192000Y-144367500D01*
%TO.N,Net-(J5-PadT)*%
X130840000Y-144367500D02*
X130840000Y-147955000D01*
X130810000Y-144337500D02*
X130840000Y-144367500D01*
%TO.N,Net-(J6-PadT)*%
X146558000Y-144337500D02*
X146588000Y-144367500D01*
X146588000Y-144367500D02*
X146588000Y-147972424D01*
D31*
%TO.N,Net-(SW1-A)*%
X138752500Y-89617000D02*
X138752500Y-88200683D01*
X144031000Y-87453000D02*
X144081000Y-87503000D01*
X153838000Y-87503000D02*
X154686000Y-88351000D01*
X144031000Y-85725000D02*
X144031000Y-87453000D01*
X140261841Y-86691341D02*
X142028183Y-84925000D01*
X144081000Y-87503000D02*
X153838000Y-87503000D01*
X143231000Y-84925000D02*
X144031000Y-85725000D01*
X138752500Y-88200683D02*
X140261841Y-86691341D01*
X142028183Y-84925000D02*
X143231000Y-84925000D01*
D32*
%TO.N,offset_1*%
X148590000Y-58293000D02*
X145751000Y-55454000D01*
X127445000Y-67437000D02*
X127400000Y-67392000D01*
X145751000Y-55454000D02*
X124645500Y-55454000D01*
X127400000Y-67392000D02*
X123629500Y-67392000D01*
X123629500Y-67392000D02*
X123623786Y-67386286D01*
%TO.N,offset_2*%
X144335000Y-63881000D02*
X148947500Y-63881000D01*
X148947500Y-63881000D02*
X149029500Y-63963000D01*
D31*
%TO.N,Net-(U1B-+)*%
X133716041Y-65009000D02*
X133027500Y-65009000D01*
X124415000Y-57068000D02*
X127725041Y-57068000D01*
X134170500Y-63513459D02*
X134170500Y-64554541D01*
X123190000Y-58293000D02*
X124415000Y-57068000D01*
X127725041Y-57068000D02*
X134170500Y-63513459D01*
X134170500Y-64554541D02*
X133716041Y-65009000D01*
D32*
%TO.N,Net-(U1D-+)*%
X136075500Y-81362000D02*
X125521000Y-81362000D01*
X125521000Y-81362000D02*
X123190000Y-83693000D01*
X138061131Y-66309000D02*
X137366951Y-67003180D01*
X138752500Y-66309000D02*
X138061131Y-66309000D01*
X137366951Y-67003180D02*
X137366951Y-67127270D01*
D31*
%TO.N,Net-(U2C--)*%
X128283000Y-92837000D02*
X128283000Y-96343000D01*
X132997500Y-92837000D02*
X133027500Y-92867000D01*
X128283000Y-96343000D02*
X128333000Y-96393000D01*
X128283000Y-92837000D02*
X132997500Y-92837000D01*
%TO.N,Net-(U2D--)*%
X129125000Y-90267000D02*
X128333000Y-91059000D01*
X133027500Y-90267000D02*
X129125000Y-90267000D01*
X128283000Y-91009000D02*
X128333000Y-91059000D01*
X128283000Y-85725000D02*
X128283000Y-91009000D01*
D32*
%TO.N,att_1_out*%
X150000500Y-89281000D02*
X150045500Y-89236000D01*
X144081000Y-89281000D02*
X150000500Y-89281000D01*
X148013500Y-149942000D02*
X148140500Y-149815000D01*
X118879000Y-149942000D02*
X148013500Y-149942000D01*
X116892000Y-147955000D02*
X118879000Y-149942000D01*
%TO.N,att_2_out*%
X144081000Y-91059000D02*
X144163000Y-91141000D01*
X144163000Y-91141000D02*
X148521500Y-91141000D01*
D31*
%TO.N,Net-(C1-Pad2)*%
X128170000Y-61378000D02*
X127445000Y-62103000D01*
X133027500Y-63709000D02*
X132011500Y-63709000D01*
X127445000Y-65659000D02*
X127445000Y-62103000D01*
X128677538Y-59525000D02*
X128170000Y-60032538D01*
X131122500Y-62820000D02*
X131122500Y-61135038D01*
X131122500Y-61135038D02*
X129512462Y-59525000D01*
X128170000Y-60032538D02*
X128170000Y-61378000D01*
X132011500Y-63709000D02*
X131122500Y-62820000D01*
X129512462Y-59525000D02*
X128677538Y-59525000D01*
%TO.N,Net-(C2-Pad2)*%
X144335000Y-65659000D02*
X144335000Y-69165000D01*
X143102462Y-71793000D02*
X143610000Y-71285462D01*
X142267538Y-71793000D02*
X143102462Y-71793000D01*
X138752500Y-68277962D02*
X142267538Y-71793000D01*
X143610000Y-69890000D02*
X144285000Y-69215000D01*
X144335000Y-69165000D02*
X144285000Y-69215000D01*
X143610000Y-71285462D02*
X143610000Y-69890000D01*
X138752500Y-67609000D02*
X138752500Y-68277962D01*
%TO.N,att_3_out*%
X127533000Y-84925000D02*
X126733000Y-85725000D01*
X130741500Y-86930683D02*
X128735817Y-84925000D01*
X128735817Y-84925000D02*
X127533000Y-84925000D01*
X142026584Y-83902000D02*
X143822500Y-83902000D01*
X149283500Y-93046000D02*
X149074500Y-92837000D01*
X136311584Y-89617000D02*
X142026584Y-83902000D01*
X126733000Y-85725000D02*
X126733000Y-87453000D01*
X126733000Y-87453000D02*
X126683000Y-87503000D01*
X149074500Y-92837000D02*
X144081000Y-92837000D01*
X130741500Y-88347000D02*
X130741500Y-86930683D01*
X133027500Y-89617000D02*
X132011500Y-89617000D01*
X133027500Y-89617000D02*
X136311584Y-89617000D01*
X132011500Y-89617000D02*
X130741500Y-88347000D01*
D32*
%TO.N,Net-(C4-Pad2)*%
X127693500Y-141306000D02*
X125328500Y-141306000D01*
D31*
X127482000Y-70993000D02*
X127482000Y-69252000D01*
X133027500Y-68250317D02*
X129484817Y-71793000D01*
D32*
X125328500Y-141306000D02*
X125222000Y-141412500D01*
D31*
X133027500Y-67609000D02*
X133027500Y-68250317D01*
X128282000Y-71793000D02*
X127482000Y-70993000D01*
X127482000Y-69252000D02*
X127445000Y-69215000D01*
X129484817Y-71793000D02*
X128282000Y-71793000D01*
%TO.N,Net-(J1-PadT)*%
X127445000Y-60048000D02*
X125690000Y-58293000D01*
X127445000Y-60325000D02*
X127445000Y-60048000D01*
D32*
%TO.N,Net-(SW1-C)*%
X154998500Y-117303000D02*
X135000000Y-117303000D01*
X135000000Y-117303000D02*
X131190000Y-121113000D01*
X154744500Y-92809500D02*
X154744500Y-95713000D01*
X154686000Y-92751000D02*
X154744500Y-92809500D01*
%TO.N,offset_3*%
X126638000Y-89236000D02*
X122486500Y-89236000D01*
X148590000Y-109093000D02*
X145751000Y-106254000D01*
X145751000Y-106254000D02*
X123248500Y-106254000D01*
X126683000Y-89281000D02*
X126638000Y-89236000D01*
%TO.N,Net-(SW1-B)*%
X148775500Y-94570000D02*
X144126000Y-94570000D01*
X144126000Y-94570000D02*
X144081000Y-94615000D01*
X135890000Y-121113000D02*
X137717000Y-119286000D01*
X137717000Y-119286000D02*
X144838500Y-119286000D01*
D31*
%TO.N,Net-(C3-Pad2)*%
X127915538Y-97193000D02*
X127408000Y-96685462D01*
X133027500Y-93517000D02*
X132426462Y-93517000D01*
X127408000Y-95340000D02*
X126683000Y-94615000D01*
X128750462Y-97193000D02*
X127915538Y-97193000D01*
X132426462Y-93517000D02*
X128750462Y-97193000D01*
X126683000Y-94615000D02*
X126683000Y-91059000D01*
X127408000Y-96685462D02*
X127408000Y-95340000D01*
%TO.N,Net-(C9-Pad2)*%
X138752500Y-93517000D02*
X139555000Y-93517000D01*
D32*
X148140500Y-139830000D02*
X148140500Y-138893000D01*
D31*
X142481000Y-96443000D02*
X142431000Y-96393000D01*
D32*
X146558000Y-141412500D02*
X148140500Y-139830000D01*
D31*
X142481000Y-98171000D02*
X142481000Y-96443000D01*
X139555000Y-93517000D02*
X142431000Y-96393000D01*
D32*
X142481000Y-98171000D02*
X143833000Y-99523000D01*
X143833000Y-99523000D02*
X147632500Y-99523000D01*
D30*
%TO.N,/Power/V+_IN*%
X118110000Y-115189000D02*
X122810000Y-115189000D01*
X115570000Y-115189000D02*
X118110000Y-115189000D01*
%TO.N,/Power/V-_IN*%
X118110000Y-125349000D02*
X121540000Y-125349000D01*
X121540000Y-125349000D02*
X124588000Y-128397000D01*
X115570000Y-125349000D02*
X118110000Y-125349000D01*
D32*
%TO.N,Net-(U2C-+)*%
X123190000Y-109093000D02*
X125013000Y-107270000D01*
X125013000Y-107270000D02*
X129852500Y-107270000D01*
X130039500Y-92217000D02*
X133027500Y-92217000D01*
X129852500Y-92030000D02*
X130039500Y-92217000D01*
%TD*%
M02*
