M48
; DRILL file {KiCad 9.0.0} date 2025-03-18T20:17:15-0400
; FORMAT={-:-/ absolute / inch / decimal}
; #@! TF.CreationDate,2025-03-18T20:17:15-04:00
; #@! TF.GenerationSoftware,Kicad,Pcbnew,9.0.0
; #@! TF.FileFunction,MixedPlating,1,2
FMAT,2
INCH
; #@! TA.AperFunction,NonPlated,NPTH,ComponentDrill
T1C0.1150
; #@! TA.AperFunction,NonPlated,NPTH,ComponentDrill
T2C0.1260
; #@! TA.AperFunction,NonPlated,NPTH,ComponentDrill
T3C0.1950
; #@! TA.AperFunction,NonPlated,NPTH,ComponentDrill
T4C0.1980
; #@! TA.AperFunction,NonPlated,NPTH,ComponentDrill
T5C0.2520
; #@! TA.AperFunction,NonPlated,NPTH,ComponentDrill
T6C0.2840
%
G90
G05
T1
X2.64Y-3.67
X2.96Y-3.67
T3
X2.6Y-3.98
X3.0Y-3.98
T4
X2.8Y-4.36
T5
X1.6899Y-4.69
X1.6899Y-5.09
X1.6899Y-5.49
X2.2299Y-5.09
X2.2299Y-5.49
X2.23Y-4.69
X2.7699Y-5.09
X2.7699Y-5.49
X3.3099Y-5.09
X3.3099Y-5.49
X3.8499Y-5.09
X3.8499Y-5.49
T6
X1.9Y-1.585
X1.9Y-2.66
X1.9Y-3.735
X2.8Y-2.16
X2.8Y-3.235
X3.7Y-1.585
X3.7Y-2.66
X3.7Y-3.735
T2
X1.653Y-1.12G85X1.827Y-1.12
G05
X1.653Y-5.94G85X1.827Y-5.94
G05
X3.773Y-1.12G85X3.947Y-1.12
G05
X3.773Y-5.94G85X3.947Y-5.94
G05
M30
