%TF.GenerationSoftware,KiCad,Pcbnew,9.0.0*%
%TF.CreationDate,2025-03-18T20:17:15-04:00*%
%TF.ProjectId,201_Blank_Faceplate,3230315f-426c-4616-9e6b-5f4661636570,rev?*%
%TF.SameCoordinates,Original*%
%TF.FileFunction,Legend,Top*%
%TF.FilePolarity,Positive*%
%FSLAX45Y45*%
G04 Gerber Fmt 4.5, Leading zero omitted, Abs format (unit mm)*
G04 Created by KiCad (PCBNEW 9.0.0) date 2025-03-18 20:17:15*
%MOMM*%
%LPD*%
G01*
G04 APERTURE LIST*
%ADD10C,0.381000*%
%ADD11C,0.200000*%
G04 APERTURE END LIST*
D10*
X5207000Y-14984545D02*
X5217886Y-14973659D01*
X5217886Y-14973659D02*
X5239657Y-14962773D01*
X5239657Y-14962773D02*
X5294086Y-14962773D01*
X5294086Y-14962773D02*
X5315857Y-14973659D01*
X5315857Y-14973659D02*
X5326743Y-14984545D01*
X5326743Y-14984545D02*
X5337629Y-15006316D01*
X5337629Y-15006316D02*
X5337629Y-15028088D01*
X5337629Y-15028088D02*
X5326743Y-15060745D01*
X5326743Y-15060745D02*
X5196114Y-15191373D01*
X5196114Y-15191373D02*
X5337629Y-15191373D01*
X5479143Y-14962773D02*
X5500914Y-14962773D01*
X5500914Y-14962773D02*
X5522686Y-14973659D01*
X5522686Y-14973659D02*
X5533572Y-14984545D01*
X5533572Y-14984545D02*
X5544457Y-15006316D01*
X5544457Y-15006316D02*
X5555343Y-15049859D01*
X5555343Y-15049859D02*
X5555343Y-15104288D01*
X5555343Y-15104288D02*
X5544457Y-15147831D01*
X5544457Y-15147831D02*
X5533572Y-15169602D01*
X5533572Y-15169602D02*
X5522686Y-15180488D01*
X5522686Y-15180488D02*
X5500914Y-15191373D01*
X5500914Y-15191373D02*
X5479143Y-15191373D01*
X5479143Y-15191373D02*
X5457372Y-15180488D01*
X5457372Y-15180488D02*
X5446486Y-15169602D01*
X5446486Y-15169602D02*
X5435600Y-15147831D01*
X5435600Y-15147831D02*
X5424714Y-15104288D01*
X5424714Y-15104288D02*
X5424714Y-15049859D01*
X5424714Y-15049859D02*
X5435600Y-15006316D01*
X5435600Y-15006316D02*
X5446486Y-14984545D01*
X5446486Y-14984545D02*
X5457372Y-14973659D01*
X5457372Y-14973659D02*
X5479143Y-14962773D01*
X5696857Y-14962773D02*
X5718629Y-14962773D01*
X5718629Y-14962773D02*
X5740400Y-14973659D01*
X5740400Y-14973659D02*
X5751286Y-14984545D01*
X5751286Y-14984545D02*
X5762171Y-15006316D01*
X5762171Y-15006316D02*
X5773057Y-15049859D01*
X5773057Y-15049859D02*
X5773057Y-15104288D01*
X5773057Y-15104288D02*
X5762171Y-15147831D01*
X5762171Y-15147831D02*
X5751286Y-15169602D01*
X5751286Y-15169602D02*
X5740400Y-15180488D01*
X5740400Y-15180488D02*
X5718629Y-15191373D01*
X5718629Y-15191373D02*
X5696857Y-15191373D01*
X5696857Y-15191373D02*
X5675086Y-15180488D01*
X5675086Y-15180488D02*
X5664200Y-15169602D01*
X5664200Y-15169602D02*
X5653314Y-15147831D01*
X5653314Y-15147831D02*
X5642429Y-15104288D01*
X5642429Y-15104288D02*
X5642429Y-15049859D01*
X5642429Y-15049859D02*
X5653314Y-15006316D01*
X5653314Y-15006316D02*
X5664200Y-14984545D01*
X5664200Y-14984545D02*
X5675086Y-14973659D01*
X5675086Y-14973659D02*
X5696857Y-14962773D01*
X6034314Y-15180488D02*
X6066971Y-15191373D01*
X6066971Y-15191373D02*
X6121400Y-15191373D01*
X6121400Y-15191373D02*
X6143171Y-15180488D01*
X6143171Y-15180488D02*
X6154057Y-15169602D01*
X6154057Y-15169602D02*
X6164943Y-15147831D01*
X6164943Y-15147831D02*
X6164943Y-15126059D01*
X6164943Y-15126059D02*
X6154057Y-15104288D01*
X6154057Y-15104288D02*
X6143171Y-15093402D01*
X6143171Y-15093402D02*
X6121400Y-15082516D01*
X6121400Y-15082516D02*
X6077857Y-15071631D01*
X6077857Y-15071631D02*
X6056086Y-15060745D01*
X6056086Y-15060745D02*
X6045200Y-15049859D01*
X6045200Y-15049859D02*
X6034314Y-15028088D01*
X6034314Y-15028088D02*
X6034314Y-15006316D01*
X6034314Y-15006316D02*
X6045200Y-14984545D01*
X6045200Y-14984545D02*
X6056086Y-14973659D01*
X6056086Y-14973659D02*
X6077857Y-14962773D01*
X6077857Y-14962773D02*
X6132286Y-14962773D01*
X6132286Y-14962773D02*
X6164943Y-14973659D01*
X6262914Y-15071631D02*
X6339114Y-15071631D01*
X6371771Y-15191373D02*
X6262914Y-15191373D01*
X6262914Y-15191373D02*
X6262914Y-14962773D01*
X6262914Y-14962773D02*
X6371771Y-14962773D01*
X6600371Y-15191373D02*
X6524171Y-15082516D01*
X6469743Y-15191373D02*
X6469743Y-14962773D01*
X6469743Y-14962773D02*
X6556829Y-14962773D01*
X6556829Y-14962773D02*
X6578600Y-14973659D01*
X6578600Y-14973659D02*
X6589486Y-14984545D01*
X6589486Y-14984545D02*
X6600371Y-15006316D01*
X6600371Y-15006316D02*
X6600371Y-15038973D01*
X6600371Y-15038973D02*
X6589486Y-15060745D01*
X6589486Y-15060745D02*
X6578600Y-15071631D01*
X6578600Y-15071631D02*
X6556829Y-15082516D01*
X6556829Y-15082516D02*
X6469743Y-15082516D01*
X6698343Y-15191373D02*
X6698343Y-14962773D01*
X6807200Y-15071631D02*
X6883400Y-15071631D01*
X6916057Y-15191373D02*
X6807200Y-15191373D01*
X6807200Y-15191373D02*
X6807200Y-14962773D01*
X6807200Y-14962773D02*
X6916057Y-14962773D01*
X7003143Y-15180488D02*
X7035800Y-15191373D01*
X7035800Y-15191373D02*
X7090229Y-15191373D01*
X7090229Y-15191373D02*
X7112000Y-15180488D01*
X7112000Y-15180488D02*
X7122886Y-15169602D01*
X7122886Y-15169602D02*
X7133771Y-15147831D01*
X7133771Y-15147831D02*
X7133771Y-15126059D01*
X7133771Y-15126059D02*
X7122886Y-15104288D01*
X7122886Y-15104288D02*
X7112000Y-15093402D01*
X7112000Y-15093402D02*
X7090229Y-15082516D01*
X7090229Y-15082516D02*
X7046686Y-15071631D01*
X7046686Y-15071631D02*
X7024914Y-15060745D01*
X7024914Y-15060745D02*
X7014029Y-15049859D01*
X7014029Y-15049859D02*
X7003143Y-15028088D01*
X7003143Y-15028088D02*
X7003143Y-15006316D01*
X7003143Y-15006316D02*
X7014029Y-14984545D01*
X7014029Y-14984545D02*
X7024914Y-14973659D01*
X7024914Y-14973659D02*
X7046686Y-14962773D01*
X7046686Y-14962773D02*
X7101114Y-14962773D01*
X7101114Y-14962773D02*
X7133771Y-14973659D01*
X7405914Y-15191373D02*
X7405914Y-14962773D01*
X7405914Y-14962773D02*
X7493000Y-14962773D01*
X7493000Y-14962773D02*
X7514771Y-14973659D01*
X7514771Y-14973659D02*
X7525657Y-14984545D01*
X7525657Y-14984545D02*
X7536543Y-15006316D01*
X7536543Y-15006316D02*
X7536543Y-15038973D01*
X7536543Y-15038973D02*
X7525657Y-15060745D01*
X7525657Y-15060745D02*
X7514771Y-15071631D01*
X7514771Y-15071631D02*
X7493000Y-15082516D01*
X7493000Y-15082516D02*
X7405914Y-15082516D01*
X7743371Y-15191373D02*
X7634514Y-15191373D01*
X7634514Y-15191373D02*
X7634514Y-14962773D01*
X7808686Y-15126059D02*
X7917543Y-15126059D01*
X7786914Y-15191373D02*
X7863114Y-14962773D01*
X7863114Y-14962773D02*
X7939314Y-15191373D01*
X7982857Y-14962773D02*
X8113486Y-14962773D01*
X8048171Y-15191373D02*
X8048171Y-14962773D01*
X8265886Y-15071631D02*
X8189686Y-15071631D01*
X8189686Y-15191373D02*
X8189686Y-14962773D01*
X8189686Y-14962773D02*
X8298543Y-14962773D01*
X8429172Y-14962773D02*
X8472714Y-14962773D01*
X8472714Y-14962773D02*
X8494486Y-14973659D01*
X8494486Y-14973659D02*
X8516257Y-14995431D01*
X8516257Y-14995431D02*
X8527143Y-15038973D01*
X8527143Y-15038973D02*
X8527143Y-15115173D01*
X8527143Y-15115173D02*
X8516257Y-15158716D01*
X8516257Y-15158716D02*
X8494486Y-15180488D01*
X8494486Y-15180488D02*
X8472714Y-15191373D01*
X8472714Y-15191373D02*
X8429172Y-15191373D01*
X8429172Y-15191373D02*
X8407400Y-15180488D01*
X8407400Y-15180488D02*
X8385629Y-15158716D01*
X8385629Y-15158716D02*
X8374743Y-15115173D01*
X8374743Y-15115173D02*
X8374743Y-15038973D01*
X8374743Y-15038973D02*
X8385629Y-14995431D01*
X8385629Y-14995431D02*
X8407400Y-14973659D01*
X8407400Y-14973659D02*
X8429172Y-14962773D01*
X8755743Y-15191373D02*
X8679543Y-15082516D01*
X8625114Y-15191373D02*
X8625114Y-14962773D01*
X8625114Y-14962773D02*
X8712200Y-14962773D01*
X8712200Y-14962773D02*
X8733972Y-14973659D01*
X8733972Y-14973659D02*
X8744857Y-14984545D01*
X8744857Y-14984545D02*
X8755743Y-15006316D01*
X8755743Y-15006316D02*
X8755743Y-15038973D01*
X8755743Y-15038973D02*
X8744857Y-15060745D01*
X8744857Y-15060745D02*
X8733972Y-15071631D01*
X8733972Y-15071631D02*
X8712200Y-15082516D01*
X8712200Y-15082516D02*
X8625114Y-15082516D01*
X8853714Y-15191373D02*
X8853714Y-14962773D01*
X8853714Y-14962773D02*
X8929914Y-15126059D01*
X8929914Y-15126059D02*
X9006114Y-14962773D01*
X9006114Y-14962773D02*
X9006114Y-15191373D01*
D11*
X7226036Y-3175760D02*
X7357247Y-3383193D01*
X7190704Y-3453281D02*
X7190704Y-3175760D01*
X7229294Y-3453281D02*
X7190704Y-3453281D01*
X7360113Y-3453281D02*
X7229294Y-3249018D01*
X7395838Y-3453281D02*
X7360113Y-3453281D01*
X7357247Y-3175760D02*
X7395838Y-3175760D01*
X7464489Y-3175760D02*
X7503454Y-3175760D01*
X7464489Y-3453469D02*
X7464489Y-3175760D01*
X7621870Y-3334098D02*
X7503454Y-3334098D01*
X7621870Y-3297042D02*
X7621870Y-3334098D01*
X6911716Y-3175760D02*
X6911716Y-3212815D01*
X6715760Y-3175760D02*
X6911716Y-3175760D01*
X6794255Y-3453469D02*
X6794255Y-3212815D01*
X6833221Y-3453469D02*
X6794255Y-3453469D01*
X6833221Y-3212815D02*
X6833221Y-3453469D01*
X6719718Y-3453469D02*
X6560801Y-3453469D01*
X6580284Y-3416414D02*
X6719718Y-3416414D01*
X6380524Y-3229432D02*
X6337221Y-3355491D01*
X6423837Y-3355491D02*
X6380524Y-3229432D01*
X6337221Y-3355491D02*
X6423837Y-3355491D01*
X6303565Y-3453469D02*
X6261545Y-3453469D01*
X6499520Y-3453469D02*
X6457501Y-3453469D01*
X6223518Y-3175760D02*
X6223518Y-3453469D01*
X5970751Y-3212815D02*
X5970751Y-3416414D01*
X6049140Y-3217102D02*
X6036360Y-3213944D01*
X6068627Y-3228767D02*
X6059776Y-3222062D01*
X6081057Y-3247333D02*
X6075815Y-3237246D01*
X6084360Y-3259352D02*
X6081057Y-3247333D01*
X6084360Y-3369878D02*
X6085534Y-3355491D01*
X6068627Y-3400462D02*
X6075815Y-3391984D01*
X6059776Y-3407167D02*
X6068627Y-3400462D01*
X6049140Y-3412128D02*
X6059776Y-3407167D01*
X6020977Y-3416414D02*
X6036360Y-3415285D01*
X5970751Y-3175760D02*
X6019834Y-3175760D01*
X5931786Y-3175760D02*
X5970751Y-3175760D01*
X5931786Y-3416414D02*
X5931786Y-3175760D01*
X6019646Y-3453469D02*
X5958144Y-3453469D01*
X6103543Y-3421358D02*
X6091605Y-3432632D01*
X6119750Y-3392421D02*
X6113035Y-3407730D01*
X6125455Y-3353956D02*
X6123967Y-3374657D01*
X6125455Y-3275273D02*
X6125455Y-3353956D01*
X6109588Y-3215684D02*
X6118147Y-3232161D01*
X6083396Y-3190879D02*
X6097851Y-3201829D01*
X6065997Y-3182772D02*
X6083396Y-3190879D01*
X6045063Y-3177607D02*
X6065997Y-3182772D01*
X7050599Y-3213283D02*
X7033902Y-3211280D01*
X7064345Y-3218985D02*
X7050599Y-3213283D01*
X7075819Y-3228374D02*
X7064345Y-3218985D01*
X7084369Y-3240623D02*
X7075819Y-3228374D01*
X7091583Y-3355304D02*
X7091583Y-3273926D01*
X7084381Y-3388461D02*
X7089695Y-3373544D01*
X7050593Y-3415937D02*
X7064338Y-3410209D01*
X7033902Y-3417949D02*
X7050593Y-3415937D01*
X7017344Y-3415945D02*
X7033902Y-3417949D01*
X7003619Y-3410224D02*
X7017344Y-3415945D01*
X6978118Y-3373537D02*
X6983459Y-3388455D01*
X6976221Y-3273926D02*
X6976221Y-3355304D01*
X6983471Y-3240630D02*
X6978124Y-3255567D01*
X7003613Y-3218971D02*
X6992070Y-3228374D01*
X7017338Y-3213275D02*
X7003613Y-3218971D01*
X6968987Y-3195198D02*
X6982516Y-3185604D01*
X6948430Y-3221311D02*
X6957681Y-3207023D01*
X6941836Y-3237079D02*
X6948430Y-3221311D01*
X6936395Y-3273926D02*
X6937733Y-3254936D01*
X6936300Y-3275273D02*
X6936395Y-3273926D01*
X6936300Y-3353956D02*
X6936300Y-3275273D01*
X6941827Y-3392002D02*
X6937728Y-3374167D01*
X6948430Y-3407832D02*
X6941827Y-3392002D01*
X6957685Y-3422176D02*
X6948430Y-3407832D01*
X6982516Y-3443642D02*
X6968992Y-3434033D01*
X7014635Y-3454847D02*
X6997633Y-3450569D01*
X7070164Y-3450568D02*
X7053169Y-3454847D01*
X7085271Y-3443642D02*
X7070164Y-3450568D01*
X7125977Y-3392002D02*
X7119374Y-3407832D01*
X7130076Y-3374167D02*
X7125977Y-3392002D01*
X7130071Y-3254936D02*
X7131504Y-3275273D01*
X7125968Y-3237079D02*
X7130071Y-3254936D01*
X7110123Y-3207025D02*
X7119374Y-3221311D01*
X7070163Y-3178668D02*
X7085271Y-3185604D01*
X7053168Y-3174384D02*
X7070163Y-3178668D01*
X6370988Y-3645152D02*
X6406320Y-3645152D01*
X6370988Y-3922673D02*
X6370988Y-3645152D01*
X6576121Y-3922673D02*
X6540397Y-3922673D01*
X6576121Y-3645152D02*
X6576121Y-3922673D01*
X6537531Y-3645152D02*
X6576121Y-3645152D01*
X7630656Y-3922861D02*
X7591691Y-3922861D01*
X7160063Y-3645152D02*
X7299498Y-3645152D01*
X7121098Y-3922861D02*
X7121098Y-3645152D01*
X7140000Y-3922861D02*
X7121098Y-3922861D01*
X7299498Y-3922861D02*
X7140000Y-3922861D01*
X7160063Y-3885806D02*
X7299498Y-3885806D01*
X7278479Y-3803490D02*
X7160063Y-3803490D01*
X7278479Y-3766434D02*
X7278479Y-3803490D01*
X7160063Y-3766434D02*
X7278479Y-3766434D01*
X7160063Y-3682207D02*
X7160063Y-3766434D01*
X7299498Y-3682207D02*
X7160063Y-3682207D01*
X6894741Y-3645152D02*
X6894741Y-3767577D01*
X6855775Y-3922861D02*
X6855775Y-3645152D01*
X6894741Y-3922861D02*
X6855775Y-3922861D01*
X6894741Y-3804633D02*
X6894741Y-3922861D01*
X7013532Y-3922861D02*
X7013532Y-3804633D01*
X6894741Y-3767577D02*
X7013532Y-3767577D01*
X6817815Y-3645152D02*
X6817815Y-3682207D01*
X6700355Y-3922861D02*
X6700355Y-3682207D01*
X6739321Y-3922861D02*
X6700355Y-3922861D01*
X6739321Y-3682207D02*
X6739321Y-3922861D01*
X6175783Y-3645152D02*
X6236535Y-3770444D01*
X6132432Y-3645152D02*
X6175783Y-3645152D01*
X6217052Y-3809990D02*
X6132432Y-3645152D01*
X6256018Y-3809990D02*
X6256018Y-3922861D01*
X6236535Y-3770444D02*
X6297270Y-3645152D01*
X7793788Y-3642286D02*
X7815871Y-3644074D01*
X7770083Y-3643823D02*
X7793788Y-3642286D01*
X7709892Y-3675118D02*
X7721008Y-3663595D01*
X7701929Y-3688668D02*
X7709892Y-3675118D01*
X7696978Y-3704646D02*
X7701929Y-3688668D01*
X7785769Y-3802534D02*
X7754156Y-3796239D01*
X7815642Y-3809324D02*
X7785769Y-3802534D01*
X7842206Y-3827933D02*
X7837701Y-3821829D01*
X7845069Y-3835835D02*
X7842206Y-3827933D01*
X7844227Y-3858891D02*
X7846112Y-3846277D01*
X7838784Y-3869200D02*
X7844227Y-3858891D01*
X7829495Y-3877787D02*
X7838784Y-3869200D01*
X7817860Y-3883698D02*
X7829495Y-3877787D01*
X7782715Y-3889047D02*
X7802589Y-3887602D01*
X7760934Y-3887288D02*
X7782715Y-3889047D01*
X7741259Y-3882172D02*
X7760934Y-3887288D01*
X7723047Y-3873620D02*
X7741259Y-3882172D01*
X7711164Y-3910441D02*
X7696148Y-3901873D01*
X7782715Y-3925727D02*
X7762818Y-3924747D01*
X7827515Y-3919977D02*
X7807250Y-3924205D01*
X7869547Y-3893267D02*
X7857952Y-3904726D01*
X7877798Y-3879841D02*
X7869547Y-3893267D01*
X7882904Y-3864057D02*
X7877798Y-3879841D01*
X7884702Y-3844929D02*
X7884702Y-3845322D01*
X7883753Y-3829904D02*
X7884702Y-3844929D01*
X7868273Y-3795346D02*
X7877145Y-3808079D01*
X7844004Y-3778714D02*
X7857099Y-3785832D01*
X7829307Y-3773412D02*
X7844004Y-3778714D01*
X7742982Y-3746576D02*
X7753223Y-3753542D01*
X7738038Y-3740520D02*
X7742982Y-3746576D01*
X7734941Y-3732735D02*
X7738038Y-3740520D01*
X7735644Y-3709433D02*
X7733820Y-3722504D01*
X7740846Y-3698917D02*
X7735644Y-3709433D01*
X7760656Y-3684337D02*
X7749567Y-3690328D01*
X7775097Y-3680412D02*
X7760656Y-3684337D01*
X7858356Y-3658363D02*
X7879158Y-3671323D01*
X7406011Y-3648097D02*
X7425600Y-3643823D01*
X7352495Y-3704646D02*
X7357446Y-3688668D01*
X7350747Y-3723647D02*
X7352495Y-3704646D01*
X7354588Y-3752595D02*
X7351777Y-3739878D01*
X7368397Y-3775541D02*
X7358868Y-3762613D01*
X7409674Y-3796239D02*
X7394264Y-3791542D01*
X7441286Y-3802534D02*
X7409674Y-3796239D01*
X7471159Y-3809324D02*
X7441286Y-3802534D01*
X7483759Y-3814642D02*
X7471159Y-3809324D01*
X7499744Y-3858891D02*
X7501629Y-3846277D01*
X7494301Y-3869200D02*
X7499744Y-3858891D01*
X7485012Y-3877787D02*
X7494301Y-3869200D01*
X7473377Y-3883698D02*
X7485012Y-3877787D01*
X7438233Y-3889047D02*
X7458107Y-3887602D01*
X7396776Y-3882172D02*
X7416451Y-3887288D01*
X7361819Y-3861546D02*
X7378564Y-3873620D01*
X7337576Y-3891350D02*
X7361819Y-3861546D01*
X7418335Y-3924747D02*
X7400120Y-3921906D01*
X7438233Y-3925727D02*
X7418335Y-3924747D01*
X7462767Y-3924205D02*
X7438233Y-3925727D01*
X7499736Y-3913420D02*
X7483032Y-3919977D01*
X7513469Y-3904726D02*
X7499736Y-3913420D01*
X7540219Y-3844929D02*
X7540219Y-3845322D01*
X7512616Y-3785832D02*
X7523790Y-3795346D01*
X7454269Y-3766059D02*
X7484824Y-3773412D01*
X7393555Y-3740520D02*
X7398499Y-3746576D01*
X7390458Y-3732735D02*
X7393555Y-3740520D01*
X7389338Y-3722692D02*
X7390458Y-3732735D01*
X7389338Y-3722504D02*
X7389338Y-3722692D01*
X7391161Y-3709433D02*
X7389338Y-3722504D01*
X7396363Y-3698917D02*
X7391161Y-3709433D01*
X7405084Y-3690328D02*
X7396363Y-3698917D01*
X7430614Y-3680412D02*
X7416173Y-3684337D01*
X7496356Y-3691762D02*
X7480901Y-3684698D01*
X7534675Y-3671323D02*
X7512513Y-3702253D01*
X7493031Y-3649452D02*
X7513873Y-3658363D01*
X7471388Y-3644074D02*
X7493031Y-3649452D01*
X5966872Y-3654744D02*
X5983040Y-3648097D01*
X5942438Y-3675118D02*
X5953555Y-3663595D01*
X5934476Y-3688668D02*
X5942438Y-3675118D01*
X5931617Y-3752595D02*
X5928806Y-3739878D01*
X5957376Y-3784877D02*
X5945426Y-3775541D01*
X5971294Y-3791542D02*
X5957376Y-3784877D01*
X6048188Y-3809324D02*
X6018316Y-3802534D01*
X6070247Y-3821829D02*
X6060788Y-3814642D01*
X6078658Y-3846072D02*
X6077615Y-3835835D01*
X6076773Y-3858891D02*
X6078658Y-3846277D01*
X6062041Y-3877787D02*
X6071330Y-3869200D01*
X6015262Y-3889047D02*
X6035136Y-3887602D01*
X5973805Y-3882172D02*
X5993480Y-3887288D01*
X5938849Y-3861546D02*
X5955593Y-3873620D01*
X5943711Y-3910441D02*
X5928695Y-3901873D01*
X5977149Y-3921906D02*
X5959755Y-3917093D01*
X6076765Y-3913420D02*
X6060061Y-3919977D01*
X6090498Y-3904726D02*
X6076765Y-3913420D01*
X6102094Y-3893267D02*
X6090498Y-3904726D01*
X6117249Y-3844929D02*
X6117249Y-3845322D01*
X6116300Y-3829904D02*
X6117249Y-3844929D01*
X6113691Y-3817795D02*
X6116300Y-3829904D01*
X6109691Y-3808079D02*
X6113691Y-3817795D01*
X6100819Y-3795346D02*
X6109691Y-3808079D01*
X6089645Y-3785832D02*
X6100819Y-3795346D01*
X5999498Y-3758706D02*
X6031299Y-3766059D01*
X5975528Y-3746576D02*
X5985769Y-3753542D01*
X5970585Y-3740520D02*
X5975528Y-3746576D01*
X5966367Y-3722692D02*
X5967487Y-3732735D01*
X5966367Y-3722504D02*
X5966367Y-3722692D01*
X5973392Y-3698917D02*
X5968190Y-3709433D01*
X5982114Y-3690328D02*
X5973392Y-3698917D01*
X5993203Y-3684337D02*
X5982114Y-3690328D01*
X6007643Y-3680412D02*
X5993203Y-3684337D01*
X6042051Y-3680380D02*
X6026334Y-3678966D01*
X6111704Y-3671323D02*
X6089543Y-3702253D01*
X6070060Y-3649452D02*
X6090903Y-3658363D01*
X6048417Y-3644074D02*
X6070060Y-3649452D01*
X5928222Y-4245254D02*
X5918304Y-4255172D01*
X5965873Y-4279791D02*
X5960506Y-4266833D01*
X5942796Y-4355864D02*
X5952714Y-4345946D01*
X5928222Y-4355864D02*
X5935509Y-4360733D01*
X5918304Y-4345946D02*
X5928222Y-4355864D01*
X5902409Y-4307572D02*
X5905145Y-4321327D01*
X5826209Y-4293546D02*
X5826209Y-4307572D01*
X5828945Y-4279791D02*
X5826209Y-4293546D01*
X5842104Y-4255172D02*
X5834312Y-4266833D01*
X5863683Y-4237462D02*
X5852022Y-4245254D01*
X5890396Y-4229359D02*
X5876641Y-4232095D01*
X5904422Y-4229359D02*
X5890396Y-4229359D01*
X5918177Y-4232095D02*
X5904422Y-4229359D01*
X5910841Y-4249046D02*
X5922096Y-4237791D01*
X5901997Y-4262282D02*
X5910841Y-4249046D01*
X5895905Y-4324130D02*
X5892800Y-4308518D01*
X5901997Y-4338836D02*
X5895905Y-4324130D01*
X5922096Y-4363327D02*
X5910841Y-4352072D01*
X5918177Y-4369023D02*
X5925858Y-4365841D01*
X5904422Y-4371759D02*
X5918177Y-4369023D01*
X5852022Y-4355864D02*
X5863683Y-4363656D01*
X7137377Y-4232095D02*
X7123622Y-4229359D01*
X7125518Y-4248484D02*
X7136774Y-4237228D01*
X7116674Y-4261719D02*
X7125518Y-4248484D01*
X7112021Y-4262282D02*
X7114231Y-4267618D01*
X7103177Y-4249046D02*
X7112021Y-4262282D01*
X7088160Y-4235277D02*
X7091922Y-4237791D01*
X6451577Y-4232095D02*
X6437822Y-4229359D01*
X6455947Y-4233905D02*
X6451577Y-4232095D01*
X6439718Y-4248484D02*
X6450974Y-4237228D01*
X6430874Y-4261719D02*
X6439718Y-4248484D01*
X6426221Y-4262282D02*
X6428431Y-4267618D01*
X6406122Y-4237791D02*
X6417377Y-4249046D01*
X6402360Y-4235277D02*
X6406122Y-4237791D01*
X6410041Y-4232095D02*
X6402360Y-4235277D01*
X6042796Y-4229359D02*
X6029041Y-4232095D01*
X6074947Y-4233905D02*
X6070577Y-4232095D01*
X6058718Y-4248484D02*
X6069974Y-4237228D01*
X6049874Y-4261719D02*
X6058718Y-4248484D01*
X6036377Y-4249046D02*
X6045221Y-4262282D01*
X6029041Y-4232095D02*
X6021360Y-4235277D01*
X7642996Y-4229359D02*
X7629241Y-4232095D01*
X7674696Y-4237791D02*
X7678458Y-4235277D01*
X7663441Y-4249046D02*
X7674696Y-4237791D01*
X7654597Y-4262282D02*
X7663441Y-4249046D01*
X7650009Y-4273358D02*
X7654597Y-4262282D01*
X7636577Y-4249046D02*
X7645421Y-4262282D01*
X7625322Y-4237791D02*
X7636577Y-4249046D01*
X7566796Y-4229359D02*
X7553041Y-4232095D01*
X7594577Y-4232095D02*
X7580822Y-4229359D01*
X7602258Y-4235277D02*
X7594577Y-4232095D01*
X7587241Y-4249046D02*
X7598496Y-4237791D01*
X7569221Y-4262282D02*
X7573809Y-4273358D01*
X7560377Y-4249046D02*
X7569221Y-4262282D01*
X7545360Y-4235277D02*
X7549122Y-4237791D01*
X7490596Y-4229359D02*
X7476841Y-4232095D01*
X7504622Y-4229359D02*
X7490596Y-4229359D01*
X7522296Y-4237791D02*
X7526058Y-4235277D01*
X7511041Y-4249046D02*
X7522296Y-4237791D01*
X7502197Y-4262282D02*
X7511041Y-4249046D01*
X7497609Y-4273358D02*
X7502197Y-4262282D01*
X7476841Y-4232095D02*
X7469160Y-4235277D01*
X7414396Y-4229359D02*
X7400641Y-4232095D01*
X7428422Y-4229359D02*
X7414396Y-4229359D01*
X7442177Y-4232095D02*
X7428422Y-4229359D01*
X7421409Y-4273358D02*
X7425997Y-4262282D01*
X7358641Y-4249046D02*
X7369896Y-4237791D01*
X7345209Y-4273358D02*
X7349797Y-4262282D01*
X7320522Y-4237791D02*
X7331777Y-4249046D01*
X7316760Y-4235277D02*
X7320522Y-4237791D01*
X7324441Y-4232095D02*
X7316760Y-4235277D01*
X7181274Y-4228797D02*
X7167518Y-4231533D01*
X7217496Y-4237791D02*
X7220047Y-4236086D01*
X7179377Y-4249046D02*
X7188221Y-4262282D01*
X7168122Y-4237791D02*
X7179377Y-4249046D01*
X7162109Y-4233773D02*
X7168122Y-4237791D01*
X7033396Y-4229359D02*
X7019641Y-4232095D01*
X7047422Y-4229359D02*
X7033396Y-4229359D01*
X7068858Y-4235277D02*
X7061177Y-4232095D01*
X7065096Y-4237791D02*
X7068858Y-4235277D01*
X7044997Y-4262282D02*
X7053841Y-4249046D01*
X7040409Y-4273358D02*
X7044997Y-4262282D01*
X7011960Y-4235277D02*
X7015722Y-4237791D01*
X6957196Y-4229359D02*
X6943441Y-4232095D01*
X6971222Y-4229359D02*
X6957196Y-4229359D01*
X6984977Y-4232095D02*
X6971222Y-4229359D01*
X6968797Y-4262282D02*
X6977641Y-4249046D01*
X6964209Y-4273358D02*
X6968797Y-4262282D01*
X6939522Y-4237791D02*
X6950777Y-4249046D01*
X6935760Y-4235277D02*
X6939522Y-4237791D01*
X6895022Y-4229359D02*
X6880996Y-4229359D01*
X6916458Y-4235277D02*
X6908777Y-4232095D01*
X6912696Y-4237791D02*
X6916458Y-4235277D01*
X6874577Y-4249046D02*
X6883421Y-4262282D01*
X6832577Y-4232095D02*
X6818822Y-4229359D01*
X6811809Y-4273358D02*
X6816397Y-4262282D01*
X6807221Y-4262282D02*
X6811809Y-4273358D01*
X6787122Y-4237791D02*
X6798377Y-4249046D01*
X6783360Y-4235277D02*
X6787122Y-4237791D01*
X6791041Y-4232095D02*
X6783360Y-4235277D01*
X6728596Y-4229359D02*
X6714841Y-4232095D01*
X6742622Y-4229359D02*
X6728596Y-4229359D01*
X6764058Y-4235277D02*
X6756377Y-4232095D01*
X6666422Y-4229359D02*
X6652396Y-4229359D01*
X6687858Y-4235277D02*
X6680177Y-4232095D01*
X6684096Y-4237791D02*
X6687858Y-4235277D01*
X6654821Y-4262282D02*
X6659409Y-4273358D01*
X6645977Y-4249046D02*
X6654821Y-4262282D01*
X6630960Y-4235277D02*
X6634722Y-4237791D01*
X6638641Y-4232095D02*
X6630960Y-4235277D01*
X6509499Y-4228797D02*
X6495474Y-4228797D01*
X6511597Y-4262282D02*
X6520441Y-4249046D01*
X6502421Y-4262282D02*
X6507009Y-4273358D01*
X6493577Y-4249046D02*
X6502421Y-4262282D01*
X6476309Y-4233773D02*
X6482322Y-4237791D01*
X6347596Y-4229359D02*
X6333841Y-4232095D01*
X6361622Y-4229359D02*
X6347596Y-4229359D01*
X6383058Y-4235277D02*
X6375377Y-4232095D01*
X6368041Y-4249046D02*
X6379296Y-4237791D01*
X6341177Y-4249046D02*
X6350021Y-4262282D01*
X6326160Y-4235277D02*
X6329922Y-4237791D01*
X6271396Y-4229359D02*
X6257641Y-4232095D01*
X6306858Y-4235277D02*
X6299177Y-4232095D01*
X6291841Y-4249046D02*
X6303096Y-4237791D01*
X6282997Y-4262282D02*
X6291841Y-4249046D01*
X6273821Y-4262282D02*
X6278409Y-4273358D01*
X6264977Y-4249046D02*
X6273821Y-4262282D01*
X6257641Y-4232095D02*
X6249960Y-4235277D01*
X6150696Y-4237791D02*
X6153247Y-4236086D01*
X6126009Y-4273358D02*
X6130597Y-4262282D01*
X6112577Y-4249046D02*
X6121421Y-4262282D01*
X6101322Y-4237791D02*
X6112577Y-4249046D01*
X6100718Y-4231533D02*
X6095309Y-4233773D01*
X5987041Y-4249046D02*
X5998296Y-4237791D01*
X5973609Y-4273358D02*
X5978197Y-4262282D01*
X5969021Y-4262282D02*
X5973609Y-4273358D01*
X5948922Y-4237791D02*
X5960177Y-4249046D01*
X5945160Y-4235277D02*
X5948922Y-4237791D01*
X5952841Y-4232095D02*
X5945160Y-4235277D01*
X7261996Y-4229359D02*
X7248241Y-4232095D01*
X7289777Y-4232095D02*
X7276022Y-4229359D01*
X7293696Y-4237791D02*
X7297458Y-4235277D01*
X7251055Y-4248484D02*
X7259898Y-4261719D01*
X7239799Y-4237228D02*
X7251055Y-4248484D01*
X7238287Y-4236218D02*
X7239799Y-4237228D01*
X6576196Y-4229359D02*
X6562441Y-4232095D01*
X6590222Y-4229359D02*
X6576196Y-4229359D01*
X6611658Y-4235277D02*
X6603977Y-4232095D01*
X6596641Y-4249046D02*
X6607896Y-4237791D01*
X6587797Y-4262282D02*
X6596641Y-4249046D01*
X6574098Y-4261719D02*
X6580190Y-4276426D01*
X6553999Y-4237228D02*
X6565255Y-4248484D01*
X6195196Y-4229359D02*
X6181441Y-4232095D01*
X6230658Y-4235277D02*
X6222977Y-4232095D01*
X6226896Y-4237791D02*
X6230658Y-4235277D01*
X6200705Y-4276988D02*
X6206797Y-4262282D01*
X6200004Y-4280516D02*
X6200705Y-4276988D01*
X6184255Y-4248484D02*
X6193098Y-4261719D01*
X8008906Y-2832359D02*
X8008905Y-2832359D01*
X8079307Y-2832359D02*
X8008906Y-2832359D01*
X8079308Y-2832359D02*
X8079307Y-2832359D01*
X8079308Y-2832359D02*
X8079308Y-2832359D01*
X8083022Y-2832816D02*
X8082415Y-2832665D01*
X8083023Y-2832816D02*
X8083022Y-2832816D01*
X8226712Y-2868739D02*
X8226712Y-2868739D01*
X8226713Y-2868739D02*
X8226713Y-2868739D01*
X8228246Y-2869125D02*
X8226713Y-2868739D01*
X8305814Y-2956681D02*
X8234628Y-2873631D01*
X8306758Y-2957897D02*
X8306396Y-2957399D01*
X8306929Y-2958153D02*
X8306758Y-2957897D01*
X8355539Y-3031068D02*
X8355539Y-3031068D01*
X8355539Y-3031068D02*
X8355539Y-3031068D01*
X8357326Y-3034721D02*
X8357111Y-3034077D01*
X8357326Y-3034722D02*
X8357326Y-3034721D01*
X8381083Y-3105992D02*
X8380823Y-3105212D01*
X8381609Y-3109233D02*
X8381433Y-3107598D01*
X8381609Y-4068661D02*
X8381609Y-3110056D01*
X8380825Y-4073503D02*
X8381083Y-4072727D01*
X8380823Y-4073506D02*
X8380825Y-4073503D01*
X8380822Y-4073508D02*
X8380823Y-4073506D01*
X8380822Y-4073508D02*
X8380822Y-4073508D01*
X8357326Y-4143996D02*
X8380822Y-4073508D01*
X8357326Y-4143997D02*
X8357326Y-4143997D01*
X8357111Y-4144642D02*
X8357326Y-4143997D01*
X8355916Y-4147085D02*
X8356568Y-4145890D01*
X8306929Y-4220565D02*
X8355539Y-4147650D01*
X8306929Y-4220565D02*
X8306929Y-4220565D01*
X8305814Y-4222037D02*
X8305814Y-4222036D01*
X8234628Y-4305087D02*
X8234628Y-4305087D01*
X8226712Y-4309979D02*
X8226713Y-4309979D01*
X8083023Y-4345902D02*
X8083023Y-4345902D01*
X8081181Y-4346257D02*
X8082416Y-4346053D01*
X8079308Y-4346359D02*
X8079934Y-4346359D01*
X8079308Y-4346359D02*
X8079308Y-4346359D01*
X8008907Y-4346359D02*
X8079307Y-4346359D01*
X8008084Y-4346359D02*
X8008907Y-4346359D01*
X8004841Y-4345833D02*
X8006448Y-4346183D01*
X8004060Y-4345572D02*
X8004060Y-4345572D01*
X7864429Y-4299029D02*
X8004060Y-4345572D01*
X7864428Y-4299028D02*
X7864429Y-4299029D01*
X7862161Y-4298279D02*
X7864428Y-4299028D01*
X7855489Y-4291607D02*
X7858305Y-4295463D01*
X7854740Y-4289340D02*
X7855489Y-4291607D01*
X7834587Y-4228881D02*
X7854739Y-4289339D01*
X7834448Y-4219635D02*
X7833998Y-4221140D01*
X7834446Y-4219635D02*
X7834448Y-4219635D01*
X7834446Y-4219634D02*
X7834446Y-4219635D01*
X7906275Y-3980206D02*
X7906275Y-3980206D01*
X7906876Y-3978198D02*
X7906275Y-3980206D01*
X7909115Y-3974654D02*
X7906876Y-3978198D01*
X7912223Y-3971842D02*
X7909115Y-3974654D01*
X7914098Y-3970905D02*
X7914098Y-3970906D01*
X7952754Y-3951576D02*
X7914098Y-3970905D01*
X7952755Y-3951576D02*
X7952755Y-3951576D01*
X7952755Y-3951576D02*
X7952755Y-3951576D01*
X7958420Y-3949958D02*
X7956076Y-3950324D01*
X8029743Y-3950325D02*
X8027398Y-3949960D01*
X8033057Y-3951571D02*
X8032004Y-3951046D01*
X8033063Y-3951576D02*
X8033057Y-3951571D01*
X8073514Y-3971802D02*
X8033063Y-3951576D01*
X8074991Y-3972538D02*
X8073514Y-3971802D01*
X8077560Y-3974608D02*
X8074991Y-3972538D01*
X8090129Y-3998179D02*
X8080366Y-3978654D01*
X8090129Y-3998179D02*
X8090129Y-3998179D01*
X8090129Y-3998180D02*
X8090129Y-3998179D01*
X8090129Y-3998180D02*
X8090129Y-3998180D01*
X8090184Y-3998251D02*
X8090129Y-3998180D01*
X8094763Y-4004643D02*
X8090184Y-3998251D01*
X8101170Y-4009353D02*
X8094763Y-4004643D01*
X8108721Y-4011844D02*
X8101170Y-4009353D01*
X8124241Y-4009429D02*
X8116673Y-4011870D01*
X8130680Y-4004759D02*
X8130679Y-4004760D01*
X8136144Y-3999295D02*
X8130680Y-4004759D01*
X8137609Y-3995759D02*
X8137228Y-3997672D01*
X8137609Y-3208359D02*
X8137609Y-3944959D01*
X8137609Y-3191376D02*
X8137609Y-3208359D01*
X8130193Y-3173473D02*
X8134217Y-3178716D01*
X8110744Y-3154023D02*
X8130193Y-3173472D01*
X8109122Y-3152940D02*
X8110744Y-3154023D01*
X8108300Y-3152940D02*
X8109122Y-3152940D01*
X8106459Y-3152940D02*
X8107563Y-3152571D01*
X8080366Y-3200064D02*
X8102737Y-3155323D01*
X8080366Y-3200064D02*
X8080366Y-3200064D01*
X8077560Y-3204110D02*
X8079630Y-3201541D01*
X8073514Y-3206916D02*
X8074991Y-3206180D01*
X8033063Y-3227142D02*
X8033063Y-3227142D01*
X8033063Y-3227142D02*
X8033063Y-3227142D01*
X8032002Y-3227672D02*
X8033063Y-3227142D01*
X7953817Y-3227671D02*
X7956077Y-3228393D01*
X7952756Y-3227141D02*
X7953817Y-3227671D01*
X7914099Y-3207814D02*
X7952754Y-3227142D01*
X7914099Y-3207814D02*
X7914099Y-3207814D01*
X7909117Y-3204065D02*
X7912224Y-3206877D01*
X7906881Y-3200521D02*
X7909117Y-3204065D01*
X7906281Y-3198513D02*
X7906881Y-3200521D01*
X7834447Y-2959084D02*
X7906275Y-3198513D01*
X7833996Y-2957578D02*
X7834446Y-2959083D01*
X7834582Y-2949844D02*
X7834090Y-2951327D01*
X7834587Y-2949837D02*
X7834582Y-2949844D01*
X7854739Y-2889378D02*
X7854739Y-2889379D01*
X7858305Y-2883255D02*
X7855489Y-2887111D01*
X7862161Y-2880439D02*
X7858305Y-2883255D01*
X7864428Y-2879689D02*
X7864428Y-2879690D01*
X8004062Y-2833145D02*
X8004062Y-2833145D01*
X8006448Y-2832535D02*
X8004842Y-2832884D01*
X8008905Y-2832359D02*
X8008905Y-2832360D01*
X7256750Y-4279229D02*
X7251383Y-4266271D01*
X7259486Y-4307009D02*
X7259486Y-4292984D01*
X7233674Y-4355301D02*
X7243591Y-4345384D01*
X7213704Y-4345946D02*
X7223622Y-4355864D01*
X7200545Y-4321327D02*
X7205912Y-4334285D01*
X7223622Y-4245254D02*
X7213704Y-4255172D01*
X6543268Y-4241615D02*
X6537822Y-4245254D01*
X6557791Y-4254609D02*
X6547874Y-4244692D01*
X6573686Y-4292984D02*
X6570950Y-4279229D01*
X6573686Y-4307009D02*
X6573686Y-4292984D01*
X6570950Y-4320765D02*
X6573686Y-4307009D01*
X6547874Y-4355301D02*
X6557791Y-4345384D01*
X6542427Y-4358941D02*
X6547874Y-4355301D01*
X6514745Y-4321327D02*
X6520112Y-4334285D01*
X6512009Y-4293546D02*
X6512009Y-4307572D01*
X6514745Y-4279791D02*
X6512009Y-4293546D01*
X6527904Y-4255172D02*
X6520112Y-4266833D01*
X6162268Y-4241615D02*
X6156822Y-4245254D01*
X6189950Y-4279229D02*
X6184583Y-4266271D01*
X6176791Y-4345384D02*
X6184583Y-4333723D01*
X6133745Y-4279791D02*
X6131009Y-4293546D01*
X6146904Y-4255172D02*
X6139112Y-4266833D01*
X7705314Y-4255172D02*
X7695396Y-4245254D01*
X7718473Y-4279791D02*
X7713106Y-4266833D01*
X7721209Y-4293546D02*
X7718473Y-4279791D01*
X7713106Y-4334285D02*
X7718473Y-4321327D01*
X7695396Y-4355864D02*
X7705314Y-4345946D01*
X7688109Y-4360733D02*
X7695396Y-4355864D01*
X7680822Y-4355864D02*
X7688109Y-4360733D01*
X7670904Y-4345946D02*
X7680822Y-4355864D01*
X7657745Y-4321327D02*
X7663112Y-4334285D01*
X7655009Y-4307572D02*
X7657745Y-4321327D01*
X7657745Y-4279791D02*
X7655009Y-4293546D01*
X7670904Y-4255172D02*
X7663112Y-4266833D01*
X7611909Y-4240385D02*
X7604622Y-4245254D01*
X7619196Y-4245254D02*
X7611909Y-4240385D01*
X7642273Y-4279791D02*
X7636906Y-4266833D01*
X7645009Y-4293546D02*
X7642273Y-4279791D01*
X7645009Y-4307572D02*
X7645009Y-4293546D01*
X7604622Y-4355864D02*
X7611909Y-4360733D01*
X7594704Y-4345946D02*
X7604622Y-4355864D01*
X7581545Y-4321327D02*
X7586912Y-4334285D01*
X7578809Y-4307572D02*
X7581545Y-4321327D01*
X7578809Y-4293546D02*
X7578809Y-4307572D01*
X7586912Y-4266833D02*
X7581545Y-4279791D01*
X7594704Y-4255172D02*
X7586912Y-4266833D01*
X7535709Y-4240385D02*
X7528422Y-4245254D01*
X7542996Y-4245254D02*
X7535709Y-4240385D01*
X7552914Y-4255172D02*
X7542996Y-4245254D01*
X7552914Y-4345946D02*
X7560706Y-4334285D01*
X7505345Y-4279791D02*
X7502609Y-4293546D01*
X7510712Y-4266833D02*
X7505345Y-4279791D01*
X7466796Y-4245254D02*
X7459509Y-4240385D01*
X7476714Y-4255172D02*
X7466796Y-4245254D01*
X7484506Y-4334285D02*
X7489873Y-4321327D01*
X7459509Y-4360733D02*
X7466796Y-4355864D01*
X7452222Y-4355864D02*
X7459509Y-4360733D01*
X7442304Y-4345946D02*
X7452222Y-4355864D01*
X7434512Y-4334285D02*
X7442304Y-4345946D01*
X7429145Y-4321327D02*
X7434512Y-4334285D01*
X7442304Y-4255172D02*
X7434512Y-4266833D01*
X7390596Y-4245254D02*
X7383309Y-4240385D01*
X7408306Y-4266833D02*
X7400514Y-4255172D01*
X7416409Y-4293546D02*
X7413673Y-4279791D01*
X7400514Y-4345946D02*
X7408306Y-4334285D01*
X7376022Y-4355864D02*
X7383309Y-4360733D01*
X7366104Y-4345946D02*
X7376022Y-4355864D01*
X7358312Y-4334285D02*
X7366104Y-4345946D01*
X7350209Y-4293546D02*
X7350209Y-4307572D01*
X7376022Y-4245254D02*
X7366104Y-4255172D01*
X7324314Y-4255172D02*
X7314396Y-4245254D01*
X7340209Y-4293546D02*
X7337473Y-4279791D01*
X7337473Y-4321327D02*
X7340209Y-4307572D01*
X7289904Y-4345946D02*
X7299822Y-4355864D01*
X7282112Y-4334285D02*
X7289904Y-4345946D01*
X7274009Y-4307572D02*
X7276745Y-4321327D01*
X7274009Y-4293546D02*
X7274009Y-4307572D01*
X7078509Y-4240385D02*
X7071222Y-4245254D01*
X7085796Y-4245254D02*
X7078509Y-4240385D01*
X7095714Y-4255172D02*
X7085796Y-4245254D01*
X7108873Y-4279791D02*
X7103506Y-4266833D01*
X7107477Y-4292038D02*
X7109393Y-4282407D01*
X7107477Y-4292984D02*
X7107477Y-4292038D01*
X7078509Y-4360733D02*
X7085796Y-4355864D01*
X7053512Y-4334285D02*
X7061304Y-4345946D01*
X7045409Y-4293546D02*
X7045409Y-4307572D01*
X7061304Y-4255172D02*
X7053512Y-4266833D01*
X7009596Y-4245254D02*
X7002309Y-4240385D01*
X7032673Y-4321327D02*
X7035409Y-4307572D01*
X6971945Y-4279791D02*
X6969209Y-4293546D01*
X6977312Y-4266833D02*
X6971945Y-4279791D01*
X6985104Y-4255172D02*
X6977312Y-4266833D01*
X6943314Y-4255172D02*
X6933396Y-4245254D01*
X6956473Y-4279791D02*
X6951106Y-4266833D01*
X6956473Y-4321327D02*
X6959209Y-4307572D01*
X6943314Y-4345946D02*
X6951106Y-4334285D01*
X6918822Y-4355864D02*
X6926109Y-4360733D01*
X6893009Y-4307572D02*
X6895745Y-4321327D01*
X6893009Y-4293546D02*
X6893009Y-4307572D01*
X6901112Y-4266833D02*
X6895745Y-4279791D01*
X6918822Y-4245254D02*
X6908904Y-4255172D01*
X6857196Y-4245254D02*
X6849909Y-4240385D01*
X6867114Y-4255172D02*
X6857196Y-4245254D01*
X6874906Y-4266833D02*
X6867114Y-4255172D01*
X6883009Y-4293546D02*
X6880273Y-4279791D01*
X6857196Y-4355864D02*
X6867114Y-4345946D01*
X6849909Y-4360733D02*
X6857196Y-4355864D01*
X6842622Y-4355864D02*
X6849909Y-4360733D01*
X6824912Y-4334285D02*
X6832704Y-4345946D01*
X6819545Y-4321327D02*
X6824912Y-4334285D01*
X6816809Y-4307572D02*
X6819545Y-4321327D01*
X6819545Y-4279791D02*
X6816809Y-4293546D01*
X6832704Y-4255172D02*
X6824912Y-4266833D01*
X6842622Y-4245254D02*
X6832704Y-4255172D01*
X6798706Y-4266833D02*
X6790914Y-4255172D01*
X6804073Y-4279791D02*
X6798706Y-4266833D01*
X6806809Y-4307572D02*
X6806809Y-4293546D01*
X6790914Y-4345946D02*
X6798706Y-4334285D01*
X6773709Y-4360733D02*
X6780996Y-4355864D01*
X6766422Y-4355864D02*
X6773709Y-4360733D01*
X6748712Y-4334285D02*
X6756504Y-4345946D01*
X6743345Y-4279791D02*
X6740609Y-4293546D01*
X6766422Y-4245254D02*
X6756504Y-4255172D01*
X6697509Y-4240385D02*
X6690222Y-4245254D01*
X6722506Y-4266833D02*
X6714714Y-4255172D01*
X6727873Y-4279791D02*
X6722506Y-4266833D01*
X6730609Y-4293546D02*
X6727873Y-4279791D01*
X6722506Y-4334285D02*
X6727873Y-4321327D01*
X6714714Y-4345946D02*
X6722506Y-4334285D01*
X6704796Y-4355864D02*
X6714714Y-4345946D01*
X6680304Y-4345946D02*
X6690222Y-4355864D01*
X6672512Y-4334285D02*
X6680304Y-4345946D01*
X6667145Y-4321327D02*
X6672512Y-4334285D01*
X6667145Y-4279791D02*
X6664409Y-4293546D01*
X6672512Y-4266833D02*
X6667145Y-4279791D01*
X6690222Y-4245254D02*
X6680304Y-4255172D01*
X6628596Y-4245254D02*
X6621309Y-4240385D01*
X6638514Y-4255172D02*
X6628596Y-4245254D01*
X6646306Y-4266833D02*
X6638514Y-4255172D01*
X6651673Y-4279791D02*
X6646306Y-4266833D01*
X6654409Y-4307572D02*
X6654409Y-4293546D01*
X6646306Y-4334285D02*
X6651673Y-4321327D01*
X6638514Y-4345946D02*
X6646306Y-4334285D01*
X6588209Y-4293546D02*
X6588209Y-4307572D01*
X6604104Y-4255172D02*
X6596312Y-4266833D01*
X6392709Y-4240385D02*
X6385422Y-4245254D01*
X6417706Y-4266833D02*
X6409914Y-4255172D01*
X6423593Y-4282407D02*
X6423073Y-4279791D01*
X6421677Y-4292038D02*
X6423593Y-4282407D01*
X6421677Y-4307956D02*
X6421677Y-4292984D01*
X6423705Y-4318149D02*
X6421677Y-4307956D01*
X6423073Y-4321327D02*
X6423705Y-4318149D01*
X6409914Y-4345946D02*
X6417706Y-4334285D01*
X6399996Y-4355864D02*
X6409914Y-4345946D01*
X6362345Y-4321327D02*
X6367712Y-4334285D01*
X6359609Y-4307572D02*
X6362345Y-4321327D01*
X6367712Y-4266833D02*
X6362345Y-4279791D01*
X6333714Y-4255172D02*
X6323796Y-4245254D01*
X6341506Y-4266833D02*
X6333714Y-4255172D01*
X6349609Y-4293546D02*
X6346873Y-4279791D01*
X6323796Y-4355864D02*
X6333714Y-4345946D01*
X6299304Y-4345946D02*
X6309222Y-4355864D01*
X6291512Y-4334285D02*
X6299304Y-4345946D01*
X6286145Y-4321327D02*
X6291512Y-4334285D01*
X6283409Y-4293546D02*
X6283409Y-4307572D01*
X6286145Y-4279791D02*
X6283409Y-4293546D01*
X6299304Y-4255172D02*
X6291512Y-4266833D01*
X6309222Y-4245254D02*
X6299304Y-4255172D01*
X6257514Y-4255172D02*
X6247596Y-4245254D01*
X6270673Y-4279791D02*
X6265306Y-4266833D01*
X6265306Y-4334285D02*
X6270673Y-4321327D01*
X6247596Y-4355864D02*
X6257514Y-4345946D01*
X6215312Y-4334285D02*
X6223104Y-4345946D01*
X6207209Y-4307572D02*
X6209945Y-4321327D01*
X6207209Y-4293546D02*
X6207209Y-4307572D01*
X6209945Y-4279791D02*
X6207209Y-4293546D01*
X6223104Y-4255172D02*
X6215312Y-4266833D01*
X6018996Y-4245254D02*
X6011709Y-4240385D01*
X6036706Y-4266833D02*
X6028914Y-4255172D01*
X6042593Y-4282407D02*
X6042073Y-4279791D01*
X6040677Y-4292038D02*
X6042593Y-4282407D01*
X6040677Y-4307956D02*
X6040677Y-4292984D01*
X6028914Y-4345946D02*
X6036706Y-4334285D01*
X6018996Y-4355864D02*
X6028914Y-4345946D01*
X6004422Y-4355864D02*
X6011709Y-4360733D01*
X5994504Y-4345946D02*
X6004422Y-4355864D01*
X5986712Y-4334285D02*
X5994504Y-4345946D01*
X5981345Y-4321327D02*
X5986712Y-4334285D01*
X5978609Y-4293546D02*
X5978609Y-4307572D01*
X5981345Y-4279791D02*
X5978609Y-4293546D01*
X5986712Y-4266833D02*
X5981345Y-4279791D01*
X5994504Y-4255172D02*
X5986712Y-4266833D01*
X7152027Y-4238593D02*
X7142899Y-4244692D01*
X7161996Y-4245254D02*
X7152027Y-4238593D01*
X7179706Y-4266833D02*
X7171914Y-4255172D01*
X7185073Y-4279791D02*
X7179706Y-4266833D01*
X7179706Y-4334285D02*
X7185073Y-4321327D01*
X7171914Y-4345946D02*
X7179706Y-4334285D01*
X7142899Y-4355301D02*
X7152868Y-4361963D01*
X7125190Y-4333723D02*
X7132982Y-4345384D01*
X7121218Y-4308518D02*
X7119302Y-4318149D01*
X7119190Y-4282407D02*
X7121218Y-4292600D01*
X7132982Y-4254609D02*
X7125190Y-4266271D01*
X7142899Y-4244692D02*
X7132982Y-4254609D01*
X6486114Y-4255172D02*
X6476196Y-4245254D01*
X6493906Y-4266833D02*
X6486114Y-4255172D01*
X6499273Y-4279791D02*
X6493906Y-4266833D01*
X6502009Y-4307572D02*
X6502009Y-4293546D01*
X6486114Y-4345946D02*
X6493906Y-4334285D01*
X6447182Y-4345384D02*
X6457099Y-4355301D01*
X6434023Y-4279229D02*
X6433390Y-4282407D01*
X6439390Y-4266271D02*
X6434023Y-4279229D01*
X6447182Y-4254609D02*
X6439390Y-4266271D01*
X6457099Y-4244692D02*
X6447182Y-4254609D01*
X6085227Y-4238593D02*
X6076099Y-4244692D01*
X6095196Y-4245254D02*
X6085227Y-4238593D01*
X6118273Y-4279791D02*
X6112906Y-4266833D01*
X6121009Y-4293546D02*
X6118273Y-4279791D01*
X6086068Y-4361963D02*
X6095196Y-4355864D01*
X6052502Y-4318149D02*
X6053023Y-4320765D01*
X6054418Y-4308518D02*
X6052502Y-4318149D01*
X6052390Y-4282407D02*
X6054418Y-4292600D01*
X6053023Y-4279229D02*
X6052390Y-4282407D01*
X6066182Y-4254609D02*
X6058390Y-4266271D01*
X6076099Y-4244692D02*
X6066182Y-4254609D01*
X7192809Y-4327760D02*
X7188221Y-4338836D01*
X7197397Y-4338836D02*
X7192809Y-4327760D01*
X7206241Y-4352072D02*
X7197397Y-4338836D01*
X7217496Y-4363327D02*
X7206241Y-4352072D01*
X7219008Y-4364338D02*
X7217496Y-4363327D01*
X7209055Y-4368461D02*
X7219008Y-4364338D01*
X7163148Y-4366651D02*
X7167518Y-4368461D01*
X7179377Y-4352072D02*
X7168122Y-4363327D01*
X7188221Y-4338836D02*
X7179377Y-4352072D01*
X6507009Y-4327760D02*
X6502421Y-4338836D01*
X6520441Y-4352072D02*
X6511597Y-4338836D01*
X6531696Y-4363327D02*
X6520441Y-4352072D01*
X6533208Y-4364338D02*
X6531696Y-4363327D01*
X6495474Y-4371197D02*
X6509499Y-4371197D01*
X6481718Y-4368461D02*
X6495474Y-4371197D01*
X6482322Y-4363327D02*
X6477348Y-4366651D01*
X6502421Y-4338836D02*
X6493577Y-4352072D01*
X6126009Y-4327760D02*
X6121421Y-4338836D01*
X6100718Y-4368461D02*
X6114474Y-4371197D01*
X6121421Y-4338836D02*
X6112577Y-4352072D01*
X7719196Y-4229359D02*
X7705441Y-4232095D01*
X7746977Y-4232095D02*
X7733222Y-4229359D01*
X7794673Y-4279791D02*
X7789306Y-4266833D01*
X7797409Y-4307572D02*
X7797409Y-4293546D01*
X7794673Y-4321327D02*
X7797409Y-4307572D01*
X7771596Y-4355864D02*
X7781514Y-4345946D01*
X7746977Y-4369023D02*
X7759935Y-4363656D01*
X7705441Y-4369023D02*
X7719196Y-4371759D01*
X7697760Y-4365841D02*
X7705441Y-4369023D01*
X7721621Y-4338836D02*
X7712777Y-4352072D01*
X7727713Y-4324130D02*
X7721621Y-4338836D01*
X7730818Y-4308518D02*
X7727713Y-4324130D01*
X7721621Y-4262282D02*
X7727713Y-4276988D01*
X7705441Y-4232095D02*
X7697760Y-4235277D01*
X7670777Y-4369023D02*
X7678458Y-4365841D01*
X7642996Y-4371759D02*
X7657022Y-4371759D01*
X7621560Y-4365841D02*
X7629241Y-4369023D01*
X7636577Y-4352072D02*
X7625322Y-4363327D01*
X7573809Y-4327760D02*
X7569221Y-4338836D01*
X7594577Y-4369023D02*
X7602258Y-4365841D01*
X7566796Y-4371759D02*
X7580822Y-4371759D01*
X7553041Y-4369023D02*
X7566796Y-4371759D01*
X7545360Y-4365841D02*
X7553041Y-4369023D01*
X7560377Y-4352072D02*
X7549122Y-4363327D01*
X7569221Y-4338836D02*
X7560377Y-4352072D01*
X7511041Y-4352072D02*
X7502197Y-4338836D01*
X7522296Y-4363327D02*
X7511041Y-4352072D01*
X7518377Y-4369023D02*
X7526058Y-4365841D01*
X7476841Y-4369023D02*
X7490596Y-4371759D01*
X7472922Y-4363327D02*
X7469160Y-4365841D01*
X7484177Y-4352072D02*
X7472922Y-4363327D01*
X7493021Y-4338836D02*
X7484177Y-4352072D01*
X7421409Y-4327760D02*
X7416821Y-4338836D01*
X7434841Y-4352072D02*
X7425997Y-4338836D01*
X7442177Y-4369023D02*
X7449858Y-4365841D01*
X7428422Y-4371759D02*
X7442177Y-4369023D01*
X7414396Y-4371759D02*
X7428422Y-4371759D01*
X7400641Y-4369023D02*
X7414396Y-4371759D01*
X7392960Y-4365841D02*
X7400641Y-4369023D01*
X7407977Y-4352072D02*
X7396722Y-4363327D01*
X7358641Y-4352072D02*
X7349797Y-4338836D01*
X7369896Y-4363327D02*
X7358641Y-4352072D01*
X7324441Y-4369023D02*
X7338196Y-4371759D01*
X7331777Y-4352072D02*
X7320522Y-4363327D01*
X7340621Y-4338836D02*
X7331777Y-4352072D01*
X7266692Y-4320040D02*
X7265990Y-4323568D01*
X7273597Y-4338836D02*
X7267505Y-4324130D01*
X7297458Y-4365841D02*
X7293696Y-4363327D01*
X7248241Y-4369023D02*
X7261996Y-4371759D01*
X7239799Y-4362765D02*
X7237248Y-4364470D01*
X7251055Y-4351510D02*
X7239799Y-4362765D01*
X7265990Y-4323568D02*
X7259898Y-4338274D01*
X7114464Y-4332938D02*
X7112021Y-4338836D01*
X7109596Y-4371759D02*
X7123622Y-4371759D01*
X7088160Y-4365841D02*
X7095841Y-4369023D01*
X7091922Y-4363327D02*
X7088160Y-4365841D01*
X7053841Y-4352072D02*
X7044997Y-4338836D01*
X7068858Y-4365841D02*
X7065096Y-4363327D01*
X7033396Y-4371759D02*
X7047422Y-4371759D01*
X7011960Y-4365841D02*
X7019641Y-4369023D01*
X6977641Y-4352072D02*
X6968797Y-4338836D01*
X6988896Y-4363327D02*
X6977641Y-4352072D01*
X6957196Y-4371759D02*
X6971222Y-4371759D01*
X6943441Y-4369023D02*
X6957196Y-4371759D01*
X6888009Y-4327760D02*
X6883421Y-4338836D01*
X6916458Y-4365841D02*
X6912696Y-4363327D01*
X6867241Y-4369023D02*
X6880996Y-4371759D01*
X6859560Y-4365841D02*
X6867241Y-4369023D01*
X6816397Y-4338836D02*
X6811809Y-4327760D01*
X6836496Y-4363327D02*
X6825241Y-4352072D01*
X6791041Y-4369023D02*
X6804796Y-4371759D01*
X6783360Y-4365841D02*
X6791041Y-4369023D01*
X6764058Y-4365841D02*
X6760296Y-4363327D01*
X6714841Y-4369023D02*
X6728596Y-4371759D01*
X6710922Y-4363327D02*
X6707160Y-4365841D01*
X6722177Y-4352072D02*
X6710922Y-4363327D01*
X6731021Y-4338836D02*
X6722177Y-4352072D01*
X6663997Y-4338836D02*
X6659409Y-4327760D01*
X6638641Y-4369023D02*
X6652396Y-4371759D01*
X6634722Y-4363327D02*
X6630960Y-4365841D01*
X6645977Y-4352072D02*
X6634722Y-4363327D01*
X6654821Y-4338836D02*
X6645977Y-4352072D01*
X6607896Y-4363327D02*
X6596641Y-4352072D01*
X6611658Y-4365841D02*
X6607896Y-4363327D01*
X6590222Y-4371759D02*
X6603977Y-4369023D01*
X6576196Y-4371759D02*
X6590222Y-4371759D01*
X6553999Y-4362765D02*
X6551448Y-4364470D01*
X6565255Y-4351510D02*
X6553999Y-4362765D01*
X6580190Y-4323568D02*
X6574098Y-4338274D01*
X6430874Y-4338274D02*
X6428664Y-4332938D01*
X6450974Y-4362765D02*
X6439718Y-4351510D01*
X6437822Y-4371759D02*
X6451577Y-4369023D01*
X6410041Y-4369023D02*
X6423796Y-4371759D01*
X6402360Y-4365841D02*
X6410041Y-4369023D01*
X6379296Y-4363327D02*
X6368041Y-4352072D01*
X6347596Y-4371759D02*
X6361622Y-4371759D01*
X6333841Y-4369023D02*
X6347596Y-4371759D01*
X6329922Y-4363327D02*
X6326160Y-4365841D01*
X6350021Y-4338836D02*
X6341177Y-4352072D01*
X6278409Y-4327760D02*
X6273821Y-4338836D01*
X6291841Y-4352072D02*
X6282997Y-4338836D01*
X6303096Y-4363327D02*
X6291841Y-4352072D01*
X6299177Y-4369023D02*
X6306858Y-4365841D01*
X6285422Y-4371759D02*
X6299177Y-4369023D01*
X6271396Y-4371759D02*
X6285422Y-4371759D01*
X6257641Y-4369023D02*
X6271396Y-4371759D01*
X6249960Y-4365841D02*
X6257641Y-4369023D01*
X6273821Y-4338836D02*
X6264977Y-4352072D01*
X6199892Y-4320040D02*
X6199190Y-4323568D01*
X6215641Y-4352072D02*
X6206797Y-4338836D01*
X6230658Y-4365841D02*
X6226896Y-4363327D01*
X6222977Y-4369023D02*
X6230658Y-4365841D01*
X6195196Y-4371759D02*
X6209222Y-4371759D01*
X6184255Y-4351510D02*
X6172999Y-4362765D01*
X6193098Y-4338274D02*
X6184255Y-4351510D01*
X6075986Y-4366782D02*
X6069974Y-4362765D01*
X6056822Y-4371759D02*
X6070577Y-4369023D01*
X6029041Y-4369023D02*
X6042796Y-4371759D01*
X6045221Y-4338836D02*
X6036377Y-4352072D01*
X5978197Y-4338836D02*
X5973609Y-4327760D01*
X5987041Y-4352072D02*
X5978197Y-4338836D01*
X6002058Y-4365841D02*
X5998296Y-4363327D01*
X5994377Y-4369023D02*
X6002058Y-4365841D01*
X5980622Y-4371759D02*
X5994377Y-4369023D01*
X5960177Y-4352072D02*
X5948922Y-4363327D01*
X5969021Y-4338836D02*
X5960177Y-4352072D01*
X8079307Y-2822359D02*
X8079308Y-2822359D01*
X8000900Y-2823658D02*
X8003517Y-2822939D01*
X7861264Y-2870204D02*
X7861266Y-2870203D01*
X7848826Y-2879289D02*
X7854339Y-2873776D01*
X7825098Y-2946675D02*
X7825100Y-2946675D01*
X7823896Y-2956884D02*
X7823973Y-2951718D01*
X7896696Y-3201384D02*
X7896696Y-3201384D01*
X7896697Y-3201386D02*
X7896696Y-3201384D01*
X7896737Y-3201462D02*
X7896697Y-3201386D01*
X7909625Y-3216757D02*
X7903960Y-3212883D01*
X7909626Y-3216757D02*
X7909625Y-3216757D01*
X7948294Y-3236089D02*
X7948282Y-3236086D01*
X8026212Y-3238759D02*
X7959606Y-3238759D01*
X8026213Y-3238760D02*
X8026213Y-3238759D01*
X8037535Y-3236086D02*
X8033915Y-3237559D01*
X8077987Y-3215860D02*
X8037536Y-3236086D01*
X8077987Y-3215860D02*
X8077987Y-3215860D01*
X8089310Y-3204537D02*
X8086381Y-3209098D01*
X8108579Y-3166000D02*
X8089310Y-3204537D01*
X8123122Y-3180543D02*
X8108579Y-3166000D01*
X8123122Y-3180543D02*
X8123122Y-3180543D01*
X8124548Y-3181969D02*
X8123122Y-3180543D01*
X8127608Y-3189358D02*
X8126564Y-3185462D01*
X8127609Y-3191375D02*
X8127609Y-3191374D01*
X8127609Y-3191376D02*
X8127609Y-3191375D01*
X8127609Y-3208359D02*
X8127609Y-3191376D01*
X8123610Y-3997687D02*
X8123610Y-3997687D01*
X8110281Y-4002235D02*
X8116142Y-4002069D01*
X8099076Y-3993704D02*
X8100399Y-3996320D01*
X8086381Y-3969620D02*
X8089310Y-3974181D01*
X8077987Y-3962858D02*
X8082548Y-3965787D01*
X8077987Y-3962858D02*
X8077987Y-3962858D01*
X8037536Y-3942632D02*
X8077987Y-3962858D01*
X8037533Y-3942631D02*
X8037534Y-3942632D01*
X8037534Y-3942629D02*
X8037533Y-3942631D01*
X8026213Y-3939959D02*
X8030109Y-3940261D01*
X8026212Y-3939959D02*
X8026213Y-3939959D01*
X8026212Y-3939959D02*
X8026212Y-3939959D01*
X7959606Y-3939959D02*
X8026212Y-3939959D01*
X7959605Y-3939958D02*
X7959605Y-3939959D01*
X7948283Y-3942632D02*
X7951903Y-3941159D01*
X7948282Y-3942632D02*
X7948283Y-3942632D01*
X7909626Y-3961960D02*
X7948282Y-3942632D01*
X7909610Y-3961973D02*
X7909626Y-3961960D01*
X7896697Y-3977332D02*
X7896697Y-3977332D01*
X7824866Y-4216780D02*
X7824868Y-4216761D01*
X7825100Y-4232043D02*
X7825100Y-4232043D01*
X7845254Y-4292504D02*
X7845253Y-4292502D01*
X7848826Y-4299429D02*
X7845254Y-4292504D01*
X7854339Y-4304942D02*
X7848826Y-4299429D01*
X8000900Y-4355060D02*
X7861266Y-4308515D01*
X8000901Y-4355061D02*
X8000901Y-4355060D01*
X8003518Y-4355779D02*
X8000901Y-4355061D01*
X8006196Y-4356213D02*
X8003518Y-4355779D01*
X8008906Y-4356359D02*
X8006196Y-4356213D01*
X8070138Y-4359521D02*
X8072309Y-4356359D01*
X8061712Y-4369035D02*
X8070138Y-4359521D01*
X8052306Y-4377398D02*
X8061712Y-4369035D01*
X8006234Y-4400554D02*
X8018870Y-4396204D01*
X7993063Y-4404009D02*
X8006234Y-4400554D01*
X7965026Y-4408548D02*
X7993063Y-4404009D01*
X7935732Y-4410203D02*
X7965026Y-4408548D01*
X7819687Y-4397320D02*
X7847060Y-4402516D01*
X7748673Y-4378483D02*
X7772387Y-4385827D01*
X7764486Y-4372171D02*
X7749780Y-4378263D01*
X7777722Y-4363327D02*
X7764486Y-4372171D01*
X7788977Y-4352072D02*
X7777722Y-4363327D01*
X7797821Y-4338836D02*
X7788977Y-4352072D01*
X7803913Y-4324130D02*
X7797821Y-4338836D01*
X7807018Y-4308518D02*
X7803913Y-4324130D01*
X7803913Y-4276988D02*
X7807018Y-4292600D01*
X7797821Y-4262282D02*
X7803913Y-4276988D01*
X7777722Y-4237791D02*
X7788977Y-4249046D01*
X7734168Y-4219750D02*
X7749780Y-4222855D01*
X7702638Y-4222855D02*
X7718250Y-4219750D01*
X7611909Y-4228874D02*
X7626438Y-4222855D01*
X7550238Y-4222855D02*
X7565850Y-4219750D01*
X7505568Y-4219750D02*
X7521180Y-4222855D01*
X7489650Y-4219750D02*
X7505568Y-4219750D01*
X7474038Y-4222855D02*
X7489650Y-4219750D01*
X7444980Y-4222855D02*
X7459509Y-4228874D01*
X7397838Y-4222855D02*
X7413450Y-4219750D01*
X7353168Y-4219750D02*
X7368780Y-4222855D01*
X7337250Y-4219750D02*
X7353168Y-4219750D01*
X7321638Y-4222855D02*
X7337250Y-4219750D01*
X7307109Y-4228874D02*
X7321638Y-4222855D01*
X7292580Y-4222855D02*
X7307109Y-4228874D01*
X7230732Y-4228947D02*
X7245438Y-4222855D01*
X7226564Y-4228385D02*
X7229068Y-4230058D01*
X7151769Y-4227656D02*
X7164715Y-4222293D01*
X7124568Y-4219750D02*
X7140180Y-4222855D01*
X7108650Y-4219750D02*
X7124568Y-4219750D01*
X7063980Y-4222855D02*
X7078509Y-4228874D01*
X7032450Y-4219750D02*
X7048368Y-4219750D01*
X6987780Y-4222855D02*
X7002309Y-4228874D01*
X6972168Y-4219750D02*
X6987780Y-4222855D01*
X6940638Y-4222855D02*
X6956250Y-4219750D01*
X6926109Y-4228874D02*
X6940638Y-4222855D01*
X6911580Y-4222855D02*
X6926109Y-4228874D01*
X6895968Y-4219750D02*
X6911580Y-4222855D01*
X6880050Y-4219750D02*
X6895968Y-4219750D01*
X6849909Y-4228874D02*
X6864438Y-4222855D01*
X6835380Y-4222855D02*
X6849909Y-4228874D01*
X6803850Y-4219750D02*
X6819768Y-4219750D01*
X6788238Y-4222855D02*
X6803850Y-4219750D01*
X6743568Y-4219750D02*
X6759180Y-4222855D01*
X6727650Y-4219750D02*
X6743568Y-4219750D01*
X6712038Y-4222855D02*
X6727650Y-4219750D01*
X6697509Y-4228874D02*
X6712038Y-4222855D01*
X6682980Y-4222855D02*
X6697509Y-4228874D01*
X6667368Y-4219750D02*
X6682980Y-4222855D01*
X6651450Y-4219750D02*
X6667368Y-4219750D01*
X6635838Y-4222855D02*
X6651450Y-4219750D01*
X6621309Y-4228874D02*
X6635838Y-4222855D01*
X6606780Y-4222855D02*
X6621309Y-4228874D01*
X6575250Y-4219750D02*
X6591168Y-4219750D01*
X6559638Y-4222855D02*
X6575250Y-4219750D01*
X6544932Y-4228947D02*
X6559638Y-4222855D01*
X6543268Y-4230058D02*
X6544932Y-4228947D01*
X6540764Y-4228385D02*
X6543268Y-4230058D01*
X6526058Y-4222293D02*
X6540764Y-4228385D01*
X6494527Y-4219188D02*
X6510445Y-4219188D01*
X6478915Y-4222293D02*
X6494527Y-4219188D01*
X6438768Y-4219750D02*
X6454380Y-4222855D01*
X6407238Y-4222855D02*
X6422850Y-4219750D01*
X6331038Y-4222855D02*
X6346650Y-4219750D01*
X6316509Y-4228874D02*
X6331038Y-4222855D01*
X6286368Y-4219750D02*
X6301980Y-4222855D01*
X6270450Y-4219750D02*
X6286368Y-4219750D01*
X6225780Y-4222855D02*
X6240309Y-4228874D01*
X6163932Y-4228947D02*
X6178638Y-4222855D01*
X6145058Y-4222293D02*
X6159764Y-4228385D01*
X6057768Y-4219750D02*
X6073380Y-4222855D01*
X6041850Y-4219750D02*
X6057768Y-4219750D01*
X5997180Y-4222855D02*
X6011709Y-4228874D01*
X5981568Y-4219750D02*
X5997180Y-4222855D01*
X5935509Y-4228874D02*
X5950038Y-4222855D01*
X5905368Y-4219750D02*
X5920980Y-4222855D01*
X5873838Y-4222855D02*
X5889450Y-4219750D01*
X5834641Y-4249046D02*
X5845896Y-4237791D01*
X5816600Y-4293546D02*
X5816600Y-4292600D01*
X5816600Y-4308518D02*
X5816600Y-4293546D01*
X5819705Y-4324130D02*
X5816600Y-4308518D01*
X5825797Y-4338836D02*
X5819705Y-4324130D01*
X5834641Y-4352072D02*
X5825797Y-4338836D01*
X5873838Y-4378263D02*
X5859132Y-4372171D01*
X5889450Y-4381368D02*
X5873838Y-4378263D01*
X5965650Y-4381368D02*
X5950038Y-4378263D01*
X5997180Y-4378263D02*
X5981568Y-4381368D01*
X6011709Y-4372244D02*
X5997180Y-4378263D01*
X6073380Y-4378263D02*
X6057768Y-4381368D01*
X6086326Y-4372900D02*
X6073380Y-4378263D01*
X6097915Y-4377700D02*
X6086326Y-4372900D01*
X6113527Y-4380806D02*
X6097915Y-4377700D01*
X6129445Y-4380806D02*
X6113527Y-4380806D01*
X6163932Y-4372171D02*
X6161427Y-4370498D01*
X6194250Y-4381368D02*
X6178638Y-4378263D01*
X6210168Y-4381368D02*
X6194250Y-4381368D01*
X6301980Y-4378263D02*
X6286368Y-4381368D01*
X6407238Y-4378263D02*
X6392709Y-4372244D01*
X6422850Y-4381368D02*
X6407238Y-4378263D01*
X6454380Y-4378263D02*
X6438768Y-4381368D01*
X6467326Y-4372900D02*
X6454380Y-4378263D01*
X6494527Y-4380806D02*
X6478915Y-4377700D01*
X6510445Y-4380806D02*
X6494527Y-4380806D01*
X6526058Y-4377700D02*
X6510445Y-4380806D01*
X6559638Y-4378263D02*
X6544932Y-4372171D01*
X6606780Y-4378263D02*
X6591168Y-4381368D01*
X6621309Y-4372244D02*
X6606780Y-4378263D01*
X6635838Y-4378263D02*
X6621309Y-4372244D01*
X6682980Y-4378263D02*
X6667368Y-4381368D01*
X6697509Y-4372244D02*
X6682980Y-4378263D01*
X6727650Y-4381368D02*
X6712038Y-4378263D01*
X6835380Y-4378263D02*
X6819768Y-4381368D01*
X6864438Y-4378263D02*
X6849909Y-4372244D01*
X6880050Y-4381368D02*
X6864438Y-4378263D01*
X6956250Y-4381368D02*
X6940638Y-4378263D01*
X6972168Y-4381368D02*
X6956250Y-4381368D01*
X6987780Y-4378263D02*
X6972168Y-4381368D01*
X7032450Y-4381368D02*
X7016838Y-4378263D01*
X7078509Y-4372244D02*
X7063980Y-4378263D01*
X7093038Y-4378263D02*
X7078509Y-4372244D01*
X7108650Y-4381368D02*
X7093038Y-4378263D01*
X7140180Y-4378263D02*
X7124568Y-4381368D01*
X7153126Y-4372900D02*
X7140180Y-4378263D01*
X7164715Y-4377700D02*
X7153126Y-4372900D01*
X7196245Y-4380806D02*
X7180327Y-4380806D01*
X7211858Y-4377700D02*
X7196245Y-4380806D01*
X7228227Y-4370498D02*
X7226564Y-4371609D01*
X7230732Y-4372171D02*
X7228227Y-4370498D01*
X7261050Y-4381368D02*
X7245438Y-4378263D01*
X7276968Y-4381368D02*
X7261050Y-4381368D01*
X7353168Y-4381368D02*
X7337250Y-4381368D01*
X7383309Y-4372244D02*
X7368780Y-4378263D01*
X7444980Y-4378263D02*
X7429368Y-4381368D01*
X7459509Y-4372244D02*
X7444980Y-4378263D01*
X7474038Y-4378263D02*
X7459509Y-4372244D01*
X7489650Y-4381368D02*
X7474038Y-4378263D01*
X7565850Y-4381368D02*
X7550238Y-4378263D01*
X7581768Y-4381368D02*
X7565850Y-4381368D01*
X7597380Y-4378263D02*
X7581768Y-4381368D01*
X7626438Y-4378263D02*
X7611909Y-4372244D01*
X7642050Y-4381368D02*
X7626438Y-4378263D01*
X7657968Y-4381368D02*
X7642050Y-4381368D01*
X7688109Y-4372244D02*
X7673580Y-4378263D01*
X7817451Y-4407067D02*
X7769875Y-4395508D01*
X7817579Y-4407073D02*
X7817451Y-4407067D01*
X7845411Y-4412360D02*
X7845300Y-4412361D01*
X7905074Y-4419410D02*
X7874979Y-4416663D01*
X7905238Y-4419393D02*
X7905074Y-4419410D01*
X7965850Y-4418518D02*
X7936090Y-4420198D01*
X7966104Y-4418452D02*
X7965850Y-4418518D01*
X7966367Y-4418461D02*
X7966104Y-4418452D01*
X7994899Y-4413842D02*
X7966367Y-4418461D01*
X7995368Y-4413742D02*
X7995126Y-4413757D01*
X8008953Y-4410179D02*
X7995368Y-4413742D01*
X8009124Y-4410096D02*
X8008953Y-4410179D01*
X8009312Y-4410070D02*
X8009124Y-4410096D01*
X8035069Y-4399980D02*
X8022717Y-4405437D01*
X8035490Y-4399770D02*
X8035264Y-4399843D01*
X8058299Y-4385409D02*
X8047533Y-4393000D01*
X8058495Y-4385203D02*
X8058299Y-4385409D01*
X8069001Y-4375888D02*
X8068762Y-4376070D01*
X8077828Y-4365920D02*
X8069001Y-4375888D01*
X8077984Y-4365653D02*
X8077828Y-4365920D01*
X8078206Y-4365436D02*
X8077984Y-4365653D01*
X8084879Y-4355721D02*
X8078206Y-4365436D01*
X8085448Y-4355603D02*
X8085448Y-4355603D01*
X8085449Y-4355603D02*
X8085448Y-4355603D01*
X8085449Y-4355603D02*
X8085449Y-4355603D01*
X8085449Y-4355603D02*
X8085449Y-4355603D01*
X8242220Y-4311596D02*
X8238449Y-4315175D01*
X8313407Y-4228544D02*
X8313407Y-4228544D01*
X8314668Y-4226947D02*
X8314054Y-4227758D01*
X8315250Y-4226112D02*
X8315250Y-4226112D01*
X8363861Y-4153196D02*
X8363860Y-4153196D01*
X8365023Y-4151273D02*
X8363861Y-4153196D01*
X8366009Y-4149256D02*
X8365023Y-4151273D01*
X8366813Y-4147158D02*
X8366813Y-4147159D01*
X8390310Y-4076667D02*
X8390310Y-4076668D01*
X8390310Y-4076667D02*
X8390310Y-4076667D01*
X8390311Y-4076667D02*
X8390310Y-4076667D01*
X8391029Y-4074050D02*
X8390311Y-4076667D01*
X8391463Y-4071372D02*
X8391029Y-4074050D01*
X8391609Y-4068662D02*
X8391463Y-4071372D01*
X8391609Y-4068661D02*
X8391609Y-4068662D01*
X8391609Y-3110056D02*
X8391609Y-4068661D01*
X8391608Y-3110050D02*
X8391609Y-3110056D01*
X8391464Y-3107347D02*
X8391608Y-3110050D01*
X8391029Y-3104667D02*
X8391464Y-3107347D01*
X8390310Y-3102050D02*
X8391029Y-3104667D01*
X8366813Y-3031559D02*
X8366813Y-3031559D01*
X8366813Y-3031559D02*
X8366813Y-3031559D01*
X8366009Y-3029462D02*
X8366813Y-3031559D01*
X8313407Y-2950174D02*
X8314053Y-2950959D01*
X8313406Y-2950173D02*
X8313407Y-2950173D01*
X8313407Y-2950173D02*
X8313406Y-2950173D01*
X8242221Y-2867123D02*
X8242221Y-2867123D01*
X8238449Y-2863543D02*
X8242221Y-2867123D01*
X8234026Y-2860809D02*
X8238449Y-2863543D01*
X8085447Y-2823115D02*
X8085448Y-2823115D01*
X8083425Y-2822696D02*
X8085447Y-2823115D01*
X7503454Y-3416414D02*
X7642889Y-3416414D01*
X7483391Y-3453469D02*
X7464489Y-3453469D01*
X7503454Y-3334098D02*
X7503454Y-3416414D01*
X7357247Y-3383193D02*
X7357247Y-3175760D01*
X6085534Y-3355491D02*
X6085534Y-3273738D01*
X6184552Y-3453469D02*
X6184552Y-3175760D01*
X6036360Y-3415285D02*
X6049140Y-3412128D01*
X6297665Y-3355491D02*
X6363925Y-3175760D01*
X6019834Y-3175760D02*
X6045063Y-3177607D01*
X6085534Y-3273738D02*
X6084360Y-3259352D01*
X6097851Y-3201829D02*
X6109588Y-3215684D01*
X6397141Y-3175760D02*
X6499520Y-3453469D01*
X7033902Y-3211280D02*
X7017338Y-3213275D01*
X6081057Y-3381896D02*
X6084360Y-3369878D01*
X7033902Y-3456335D02*
X7014635Y-3454847D01*
X6976221Y-3355304D02*
X6978118Y-3373537D01*
X7119374Y-3407832D02*
X7110118Y-3422175D01*
X6223518Y-3453469D02*
X6184552Y-3453469D01*
X7131504Y-3275273D02*
X7131504Y-3353956D01*
X7053169Y-3454847D02*
X7033902Y-3456335D01*
X7119374Y-3221311D02*
X7125968Y-3237079D01*
X6997634Y-3178668D02*
X7014635Y-3174384D01*
X7085271Y-3185604D02*
X7098811Y-3195200D01*
X7089695Y-3373544D02*
X7091583Y-3355304D01*
X6409578Y-3718410D02*
X6409578Y-3922673D01*
X6409578Y-3922673D02*
X6370988Y-3922673D01*
X6537531Y-3852585D02*
X6537531Y-3645152D01*
X6937728Y-3374167D02*
X6936300Y-3353956D01*
X7299498Y-3885806D02*
X7299498Y-3922861D01*
X7591691Y-3922861D02*
X7591691Y-3645152D01*
X7013532Y-3804633D02*
X6894741Y-3804633D01*
X6541318Y-3175760D02*
X6580284Y-3175760D01*
X6621860Y-3682207D02*
X6621860Y-3645152D01*
X6621860Y-3645152D02*
X6817815Y-3645152D01*
X7695230Y-3723835D02*
X7695230Y-3723647D01*
X6297270Y-3645152D02*
X6340620Y-3645152D01*
X7696260Y-3739878D02*
X7695230Y-3723835D01*
X6817815Y-3682207D02*
X6739321Y-3682207D01*
X6719718Y-3416414D02*
X6719718Y-3453469D01*
X7762818Y-3924747D02*
X7744603Y-3921906D01*
X7727208Y-3917093D02*
X7711164Y-3910441D01*
X7798752Y-3766059D02*
X7829307Y-3773412D01*
X7802589Y-3887602D02*
X7817860Y-3883698D01*
X7733820Y-3722504D02*
X7733820Y-3722692D01*
X7877145Y-3808079D02*
X7881145Y-3817795D01*
X7749567Y-3690328D02*
X7740846Y-3698917D01*
X7744603Y-3921906D02*
X7727208Y-3917093D01*
X7856996Y-3702253D02*
X7840839Y-3691762D01*
X7840839Y-3691762D02*
X7825383Y-3684698D01*
X7394264Y-3791542D02*
X7380347Y-3784877D01*
X7380347Y-3784877D02*
X7368397Y-3775541D01*
X7416451Y-3887288D02*
X7438233Y-3889047D01*
X7350747Y-3723835D02*
X7350747Y-3723647D01*
X7538422Y-3864057D02*
X7533315Y-3879841D01*
X7229294Y-3249018D02*
X7229294Y-3453281D01*
X7484824Y-3773412D02*
X7499521Y-3778714D01*
X7351665Y-3901873D02*
X7337576Y-3891350D01*
X7422469Y-3758706D02*
X7454269Y-3766059D01*
X7500586Y-3835835D02*
X7497723Y-3827933D01*
X7879158Y-3671323D02*
X7856996Y-3702253D01*
X7408740Y-3753542D02*
X7422469Y-3758706D01*
X7501629Y-3846072D02*
X7500586Y-3835835D01*
X7398499Y-3746576D02*
X7408740Y-3753542D01*
X7703351Y-3762613D02*
X7699071Y-3752595D01*
X6002629Y-3643823D02*
X6026334Y-3642286D01*
X7523790Y-3795346D02*
X7532662Y-3808079D01*
X6018316Y-3802534D02*
X5986703Y-3796239D01*
X7465022Y-3680380D02*
X7449305Y-3678966D01*
X6039797Y-3924205D02*
X6015262Y-3925727D01*
X5927776Y-3723647D02*
X5929524Y-3704646D01*
X6090903Y-3658363D02*
X6111704Y-3671323D01*
X6115451Y-3864057D02*
X6110345Y-3879841D01*
X5918304Y-4255172D02*
X5910512Y-4266833D01*
X5902409Y-4293546D02*
X5902409Y-4307572D01*
X5905145Y-4321327D02*
X5910512Y-4334285D01*
X5985769Y-3753542D02*
X5999498Y-3758706D01*
X5925858Y-4365841D02*
X5922096Y-4363327D01*
X6059776Y-3222062D02*
X6049140Y-3217102D01*
X7141747Y-4233905D02*
X7137377Y-4232095D01*
X7724830Y-3784877D02*
X7712880Y-3775541D01*
X6437822Y-4229359D02*
X6423796Y-4229359D01*
X5922096Y-4237791D02*
X5925858Y-4235277D01*
X6417377Y-4249046D02*
X6426221Y-4262282D01*
X7109596Y-4229359D02*
X7095841Y-4232095D01*
X6069974Y-4237228D02*
X6074947Y-4233905D01*
X7844218Y-3913420D02*
X7827515Y-3919977D01*
X7621560Y-4235277D02*
X7625322Y-4237791D01*
X5960506Y-4334285D02*
X5965873Y-4321327D01*
X6089543Y-3702253D02*
X6073385Y-3691762D01*
X7598496Y-4237791D02*
X7602258Y-4235277D01*
X7503454Y-3175760D02*
X7642889Y-3175760D01*
X7518377Y-4232095D02*
X7504622Y-4229359D01*
X7095841Y-4232095D02*
X7088160Y-4235277D01*
X7846112Y-3846277D02*
X7846112Y-3846072D01*
X7434841Y-4249046D02*
X7446096Y-4237791D01*
X6020977Y-3212815D02*
X5970751Y-3212815D01*
X7425997Y-4262282D02*
X7434841Y-4249046D01*
X7091922Y-4237791D02*
X7103177Y-4249046D01*
X7396722Y-4237791D02*
X7407977Y-4249046D01*
X7407977Y-4249046D02*
X7416821Y-4262282D01*
X7338196Y-4229359D02*
X7324441Y-4232095D01*
X7190704Y-3175760D02*
X7226036Y-3175760D01*
X7369896Y-4237791D02*
X7373658Y-4235277D01*
X7358868Y-3762613D02*
X7354588Y-3752595D01*
X7331777Y-4249046D02*
X7340621Y-4262282D01*
X7670777Y-4232095D02*
X7657022Y-4229359D01*
X7192809Y-4273358D02*
X7197397Y-4262282D01*
X7580822Y-4229359D02*
X7566796Y-4229359D01*
X7035821Y-4262282D02*
X7040409Y-4273358D01*
X7061177Y-4232095D02*
X7047422Y-4229359D01*
X6943441Y-4232095D02*
X6935760Y-4235277D01*
X7472922Y-4237791D02*
X7484177Y-4249046D01*
X6880996Y-4229359D02*
X6867241Y-4232095D01*
X7837701Y-3821829D02*
X7828242Y-3814642D01*
X6804796Y-4229359D02*
X6791041Y-4232095D01*
X6901441Y-4249046D02*
X6912696Y-4237791D01*
X6836496Y-4237791D02*
X6840258Y-4235277D01*
X7195299Y-4228797D02*
X7181274Y-4228797D01*
X6825241Y-4249046D02*
X6836496Y-4237791D01*
X6840258Y-4235277D02*
X6832577Y-4232095D01*
X5995364Y-3924747D02*
X5977149Y-3921906D01*
X6680177Y-4232095D02*
X6666422Y-4229359D01*
X6070577Y-4232095D02*
X6056822Y-4229359D01*
X6663997Y-4262282D02*
X6672841Y-4249046D01*
X7503454Y-3212815D02*
X7503454Y-3297042D01*
X6534247Y-4236086D02*
X6523255Y-4231533D01*
X6078658Y-3846277D02*
X6078658Y-3846072D01*
X6531696Y-4237791D02*
X6534247Y-4236086D01*
X7884702Y-3845322D02*
X7882904Y-3864057D01*
X6520441Y-4249046D02*
X6531696Y-4237791D01*
X6756377Y-4232095D02*
X6742622Y-4229359D01*
X6354609Y-4273358D02*
X6359197Y-4262282D01*
X5876641Y-4369023D02*
X5890396Y-4371759D01*
X6350021Y-4262282D02*
X6354609Y-4273358D01*
X6722177Y-4249046D02*
X6731021Y-4262282D01*
X7846112Y-3846072D02*
X7845069Y-3835835D01*
X6095309Y-4233773D02*
X6101322Y-4237791D01*
X6114474Y-4228797D02*
X6100718Y-4231533D01*
X6002058Y-4235277D02*
X5994377Y-4232095D01*
X7089689Y-3255561D02*
X7084369Y-3240623D01*
X6457501Y-3453469D02*
X6436568Y-3392546D01*
X7282441Y-4249046D02*
X7293696Y-4237791D01*
X7276022Y-4229359D02*
X7261996Y-4229359D01*
X7248241Y-4232095D02*
X7238287Y-4236218D01*
X5994377Y-4232095D02*
X5980622Y-4229359D01*
X6222977Y-4232095D02*
X6209222Y-4229359D01*
X6249960Y-4235277D02*
X6253722Y-4237791D01*
X6206797Y-4262282D02*
X6215641Y-4249046D01*
X6406320Y-3645152D02*
X6537531Y-3852585D01*
X6978124Y-3255567D02*
X6976221Y-3273926D01*
X6199190Y-4276426D02*
X6200004Y-4280516D01*
X6077615Y-3835835D02*
X6074752Y-3827933D01*
X6193098Y-4261719D02*
X6199190Y-4276426D01*
X6562441Y-4232095D02*
X6552487Y-4236218D01*
X6172999Y-4237228D02*
X6184255Y-4248484D01*
X7259898Y-4261719D02*
X7265990Y-4276426D01*
X8081181Y-2832461D02*
X8079933Y-2832359D01*
X7267505Y-4276988D02*
X7273597Y-4262282D01*
X8226713Y-2868739D02*
X8226712Y-2868739D01*
X8082415Y-2832665D02*
X8081181Y-2832461D01*
X8233598Y-2872432D02*
X8231093Y-2870502D01*
X6303096Y-4237791D02*
X6306858Y-4235277D01*
X8306929Y-2958153D02*
X8306929Y-2958153D01*
X6060788Y-3814642D02*
X6048188Y-3809324D01*
X8381433Y-3107598D02*
X8381083Y-3105992D01*
X8380823Y-3105212D02*
X8380823Y-3105212D01*
X8381609Y-3110055D02*
X8381609Y-3110055D01*
X7209055Y-4231533D02*
X7195299Y-4228797D01*
X8356568Y-4145890D02*
X8357111Y-4144642D01*
X6507009Y-4273358D02*
X6511597Y-4262282D01*
X8355542Y-4147646D02*
X8355916Y-4147085D01*
X5970751Y-3416414D02*
X6020977Y-3416414D01*
X8234628Y-4305087D02*
X8305814Y-4222037D01*
X6908777Y-4232095D02*
X6895022Y-4229359D01*
X8082416Y-4346053D02*
X8083023Y-4345902D01*
X6560801Y-3453469D02*
X6541318Y-3453469D01*
X8006448Y-4346183D02*
X8008084Y-4346359D01*
X6715760Y-3212815D02*
X6715760Y-3175760D01*
X8004065Y-4345575D02*
X8004841Y-4345833D01*
X6740197Y-4262282D02*
X6749041Y-4249046D01*
X8004062Y-4345573D02*
X8004065Y-4345575D01*
X6888009Y-4273358D02*
X6892597Y-4262282D01*
X8004060Y-4345572D02*
X8004062Y-4345573D01*
X6997633Y-3450569D02*
X6982516Y-3443642D01*
X7854739Y-4289340D02*
X7854740Y-4289340D01*
X8083023Y-4345902D02*
X8226712Y-4309979D01*
X7914098Y-3970906D02*
X7912223Y-3971842D01*
X7136774Y-4237228D02*
X7141747Y-4233905D01*
X8026211Y-3949959D02*
X7959607Y-3949959D01*
X7526058Y-4235277D02*
X7518377Y-4232095D01*
X6031299Y-3766059D02*
X6061854Y-3773412D01*
X7416173Y-3684337D02*
X7405084Y-3690328D01*
X8073514Y-3971802D02*
X8073514Y-3971802D01*
X7956076Y-3950324D02*
X7953816Y-3951046D01*
X8080366Y-3978654D02*
X8079630Y-3977177D01*
X6123967Y-3374657D02*
X6119750Y-3392421D01*
X5958144Y-3453469D02*
X5931786Y-3453469D01*
X8137228Y-3997672D02*
X8137228Y-3997672D01*
X8080366Y-3978654D02*
X8080366Y-3978654D01*
X8130193Y-3173472D02*
X8130193Y-3173473D01*
X6278409Y-4273358D02*
X6282997Y-4262282D01*
X8033063Y-3227142D02*
X8073514Y-3206916D01*
X6015262Y-3925727D02*
X5995364Y-3924747D01*
X8033063Y-3227142D02*
X8033063Y-3227142D01*
X8130678Y-4004761D02*
X8124241Y-4009429D01*
X7959607Y-3228759D02*
X8026212Y-3228759D01*
X8104714Y-3153521D02*
X8105296Y-3152940D01*
X7958421Y-3228758D02*
X7959607Y-3228759D01*
X8116673Y-4011870D02*
X8108721Y-4011844D01*
X7912224Y-3206877D02*
X7914099Y-3207814D01*
X5876641Y-4232095D02*
X5863683Y-4237462D01*
X7906276Y-3198515D02*
X7906281Y-3198513D01*
X7952754Y-3227142D02*
X7952755Y-3227142D01*
X8234627Y-2873629D02*
X8233598Y-2872432D01*
X8231093Y-2870502D02*
X8228246Y-2869125D01*
X7906275Y-3198513D02*
X7906275Y-3198514D01*
X5927776Y-3723835D02*
X5927776Y-3723647D01*
X7834446Y-2959083D02*
X7834446Y-2959084D01*
X7952755Y-3227142D02*
X7952756Y-3227141D01*
X7833722Y-2954448D02*
X7833996Y-2957578D01*
X7959599Y-3949958D02*
X7958420Y-3949958D01*
X7834090Y-2951327D02*
X7833722Y-2954448D01*
X5834312Y-4334285D02*
X5842104Y-4345946D01*
X7864428Y-2879690D02*
X7862161Y-2880439D01*
X8079630Y-3201541D02*
X8080366Y-3200064D01*
X8004842Y-2832884D02*
X8004062Y-2833145D01*
X7483032Y-3919977D02*
X7462767Y-3924205D01*
X8008083Y-2832359D02*
X8006448Y-2832535D01*
X8004062Y-2833145D02*
X8004062Y-2833145D01*
X8234628Y-2873631D02*
X8234627Y-2873629D01*
X8355539Y-3031068D02*
X8306929Y-2958153D01*
X6672841Y-4249046D02*
X6684096Y-4237791D01*
X6992070Y-3400769D02*
X7003619Y-3410224D01*
X7233674Y-4244692D02*
X7229068Y-4241615D01*
X7815871Y-3644074D02*
X7837513Y-3649452D01*
X7256750Y-4320765D02*
X7259486Y-4307009D01*
X7712880Y-3775541D02*
X7703351Y-3762613D01*
X7200545Y-4279791D02*
X7197809Y-4293546D01*
X6710922Y-4237791D02*
X6722177Y-4249046D01*
X6565583Y-4333723D02*
X6570950Y-4320765D01*
X8079307Y-4346359D02*
X8079308Y-4346359D01*
X6520112Y-4334285D02*
X6527904Y-4345946D01*
X8004060Y-4345572D02*
X8004060Y-4345572D01*
X6166874Y-4244692D02*
X6162268Y-4241615D01*
X6537822Y-4355864D02*
X6542427Y-4358941D01*
X5980622Y-4229359D02*
X5966596Y-4229359D01*
X6153247Y-4236086D02*
X6142255Y-4231533D01*
X6192686Y-4292984D02*
X6189950Y-4279229D01*
X7251383Y-4333723D02*
X7256750Y-4320765D01*
X6189950Y-4320765D02*
X6192686Y-4307009D01*
X7266804Y-4280516D02*
X7267505Y-4276988D01*
X6184583Y-4333723D02*
X6189950Y-4320765D01*
X7251383Y-4266271D02*
X7243591Y-4254609D01*
X6146904Y-4345946D02*
X6156822Y-4355864D01*
X6161427Y-4358941D02*
X6166874Y-4355301D01*
X6139112Y-4334285D02*
X6146904Y-4345946D01*
X5966596Y-4229359D02*
X5952841Y-4232095D01*
X6176791Y-4254609D02*
X6166874Y-4244692D01*
X6481718Y-4231533D02*
X6476309Y-4233773D01*
X7663112Y-4334285D02*
X7670904Y-4345946D01*
X6139112Y-4266833D02*
X6133745Y-4279791D01*
X7619196Y-4355864D02*
X7629114Y-4345946D01*
X7629114Y-4255172D02*
X7619196Y-4245254D01*
X7611909Y-4360733D02*
X7619196Y-4355864D01*
X7636906Y-4266833D02*
X7629114Y-4255172D01*
X7604622Y-4245254D02*
X7594704Y-4255172D01*
X6565255Y-4248484D02*
X6574098Y-4261719D01*
X7416821Y-4262282D02*
X7421409Y-4273358D01*
X7560706Y-4266833D02*
X7552914Y-4255172D01*
X6036360Y-3213944D02*
X6020977Y-3212815D01*
X7566073Y-4279791D02*
X7560706Y-4266833D01*
X7688109Y-4240385D02*
X7680822Y-4245254D01*
X7568809Y-4293546D02*
X7566073Y-4279791D01*
X7636906Y-4334285D02*
X7642273Y-4321327D01*
X7568809Y-4307572D02*
X7568809Y-4293546D01*
X7586912Y-4334285D02*
X7594704Y-4345946D01*
X7542996Y-4355864D02*
X7552914Y-4345946D01*
X7881145Y-3817795D02*
X7883753Y-3829904D01*
X7528422Y-4355864D02*
X7535709Y-4360733D01*
X6859560Y-4235277D02*
X6863322Y-4237791D01*
X7510712Y-4334285D02*
X7518504Y-4345946D01*
X7642273Y-4321327D02*
X7645009Y-4307572D01*
X7502609Y-4307572D02*
X7505345Y-4321327D01*
X7013532Y-3645152D02*
X7052498Y-3645152D01*
X7528422Y-4245254D02*
X7518504Y-4255172D01*
X6181441Y-4232095D02*
X6171487Y-4236218D01*
X7489873Y-4279791D02*
X7484506Y-4266833D01*
X6867241Y-4232095D02*
X6859560Y-4235277D01*
X7476714Y-4345946D02*
X7484506Y-4334285D01*
X7365409Y-3675118D02*
X7376525Y-3663595D01*
X7466796Y-4355864D02*
X7476714Y-4345946D01*
X7502609Y-4293546D02*
X7502609Y-4307572D01*
X7426409Y-4307572D02*
X7429145Y-4321327D01*
X8305814Y-2956681D02*
X8305814Y-2956681D01*
X7721008Y-3663595D02*
X7734326Y-3654744D01*
X7750494Y-3648097D02*
X7770083Y-3643823D01*
X7408306Y-4334285D02*
X7413673Y-4321327D01*
X7434512Y-4266833D02*
X7429145Y-4279791D01*
X7383309Y-4360733D02*
X7390596Y-4355864D01*
X6863322Y-4237791D02*
X6874577Y-4249046D01*
X7350209Y-4307572D02*
X7352945Y-4321327D01*
X7518504Y-4255172D02*
X7510712Y-4266833D01*
X7307109Y-4240385D02*
X7299822Y-4245254D01*
X7383309Y-4240385D02*
X7376022Y-4245254D01*
X7314396Y-4245254D02*
X7307109Y-4240385D01*
X7492609Y-4293546D02*
X7489873Y-4279791D01*
X7332106Y-4266833D02*
X7324314Y-4255172D01*
X7352945Y-4279791D02*
X7350209Y-4293546D01*
X7678458Y-4235277D02*
X7670777Y-4232095D01*
X6794255Y-3212815D02*
X6715760Y-3212815D01*
X7337473Y-4279791D02*
X7332106Y-4266833D01*
X7413673Y-4321327D02*
X7416409Y-4307572D01*
X7324314Y-4345946D02*
X7332106Y-4334285D01*
X7699071Y-3752595D02*
X7696260Y-3739878D01*
X7052498Y-3922861D02*
X7013532Y-3922861D01*
X7109505Y-4318149D02*
X7107477Y-4307956D01*
X8305814Y-2956682D02*
X8305814Y-2956681D01*
X7108873Y-4321327D02*
X7109505Y-4318149D01*
X8381083Y-4072727D02*
X8381433Y-4071120D01*
X7085796Y-4355864D02*
X7095714Y-4345946D01*
X5914606Y-3891350D02*
X5938849Y-3861546D01*
X7071222Y-4355864D02*
X7078509Y-4360733D01*
X7299822Y-4245254D02*
X7289904Y-4255172D01*
X8027398Y-3228759D02*
X8029742Y-3228394D01*
X5968190Y-3709433D02*
X5966367Y-3722504D01*
X7048145Y-4279791D02*
X7045409Y-4293546D01*
X8103933Y-3153782D02*
X8104714Y-3153521D01*
X8381609Y-3110055D02*
X8381608Y-3110055D01*
X7002309Y-4240385D02*
X6995022Y-4245254D01*
X6117249Y-3845322D02*
X6115451Y-3864057D01*
X7035409Y-4293546D02*
X7032673Y-4279791D01*
X5892800Y-4293546D02*
X5892800Y-4292600D01*
X6995022Y-4355864D02*
X7002309Y-4360733D01*
X7107477Y-4307956D02*
X7107477Y-4292984D01*
X6977312Y-4334285D02*
X6985104Y-4345946D01*
X7032673Y-4279791D02*
X7027306Y-4266833D01*
X6969209Y-4293546D02*
X6969209Y-4307572D01*
X7027306Y-4334285D02*
X7032673Y-4321327D01*
X6926109Y-4240385D02*
X6918822Y-4245254D01*
X7019514Y-4255172D02*
X7009596Y-4245254D01*
X6933396Y-4355864D02*
X6943314Y-4345946D01*
X8008905Y-2832359D02*
X8008905Y-2832359D01*
X6895745Y-4321327D02*
X6901112Y-4334285D01*
X7864429Y-2879689D02*
X7864428Y-2879689D01*
X7297458Y-4235277D02*
X7289777Y-4232095D01*
X6880273Y-4279791D02*
X6874906Y-4266833D01*
X7959606Y-3949959D02*
X7959599Y-3949958D01*
X7953816Y-3951046D02*
X7952755Y-3951576D01*
X6883009Y-4307572D02*
X6883009Y-4293546D01*
X6959209Y-4293546D02*
X6956473Y-4279791D01*
X6874906Y-4334285D02*
X6880273Y-4321327D01*
X7655009Y-4293546D02*
X7655009Y-4307572D01*
X6867114Y-4345946D02*
X6874906Y-4334285D01*
X6951106Y-4266833D02*
X6943314Y-4255172D01*
X6985104Y-4345946D02*
X6995022Y-4355864D01*
X7048145Y-4321327D02*
X7053512Y-4334285D01*
X7131504Y-3353956D02*
X7130076Y-3374167D01*
X6806809Y-4293546D02*
X6804073Y-4279791D01*
X7766952Y-3758706D02*
X7798752Y-3766059D01*
X6798706Y-4334285D02*
X6804073Y-4321327D01*
X6880273Y-4321327D02*
X6883009Y-4307572D01*
X7629114Y-4345946D02*
X7636906Y-4334285D01*
X6780996Y-4355864D02*
X6790914Y-4345946D01*
X8306929Y-2958153D02*
X8306929Y-2958153D01*
X6184583Y-4266271D02*
X6176791Y-4254609D01*
X7299498Y-3645152D02*
X7299498Y-3682207D01*
X6748712Y-4266833D02*
X6743345Y-4279791D01*
X7376525Y-3663595D02*
X7389843Y-3654744D01*
X7642889Y-3212815D02*
X7503454Y-3212815D01*
X6714714Y-4255172D02*
X6704796Y-4245254D01*
X5952714Y-4255172D02*
X5942796Y-4245254D01*
X6730609Y-4307572D02*
X6730609Y-4293546D01*
X6804073Y-4321327D02*
X6806809Y-4307572D01*
X6727873Y-4321327D02*
X6730609Y-4307572D01*
X6995022Y-4245254D02*
X6985104Y-4255172D01*
X6690222Y-4355864D02*
X6697509Y-4360733D01*
X6756504Y-4255172D02*
X6748712Y-4266833D01*
X6142255Y-4231533D02*
X6128499Y-4228797D01*
X6664409Y-4307572D02*
X6667145Y-4321327D01*
X7314396Y-4355864D02*
X7324314Y-4345946D01*
X6621309Y-4240385D02*
X6614022Y-4245254D01*
X7497723Y-3827933D02*
X7493218Y-3821829D01*
X6596312Y-4334285D02*
X6604104Y-4345946D01*
X6329922Y-4237791D02*
X6341177Y-4249046D01*
X6588209Y-4307572D02*
X6590945Y-4321327D01*
X6651673Y-4321327D02*
X6654409Y-4307572D01*
X6423073Y-4279791D02*
X6417706Y-4266833D01*
X7110118Y-3422175D02*
X7098806Y-3434032D01*
X6362345Y-4279791D02*
X6359609Y-4293546D01*
X7091583Y-3273926D02*
X7089689Y-3255561D01*
X6171487Y-4236218D02*
X6172999Y-4237228D01*
X7098811Y-3195200D02*
X7110123Y-3207025D01*
X6323796Y-4245254D02*
X6316509Y-4240385D01*
X6740609Y-4307572D02*
X6743345Y-4321327D01*
X6346873Y-4279791D02*
X6341506Y-4266833D01*
X6552487Y-4236218D02*
X6553999Y-4237228D01*
X6349609Y-4307572D02*
X6349609Y-4293546D01*
X7512513Y-3702253D02*
X7496356Y-3691762D01*
X6316509Y-4360733D02*
X6323796Y-4355864D01*
X7229068Y-4241615D02*
X7223622Y-4245254D01*
X8107563Y-3152571D02*
X8108300Y-3152940D01*
X7002309Y-4360733D02*
X7009596Y-4355864D01*
X7395838Y-3175760D02*
X7395838Y-3453281D01*
X6223104Y-4345946D02*
X6233022Y-4355864D01*
X7400641Y-4232095D02*
X7392960Y-4235277D01*
X7553041Y-4232095D02*
X7545360Y-4235277D01*
X6011709Y-4240385D02*
X6004422Y-4245254D01*
X6240309Y-4360733D02*
X6247596Y-4355864D01*
X7560706Y-4334285D02*
X7566073Y-4321327D01*
X6075815Y-3237246D02*
X6068627Y-3228767D01*
X6042073Y-4279791D02*
X6036706Y-4266833D01*
X6240309Y-4240385D02*
X6233022Y-4245254D01*
X7013532Y-3767577D02*
X7013532Y-3645152D01*
X6040677Y-4292984D02*
X6040677Y-4292038D01*
X7578397Y-4262282D02*
X7587241Y-4249046D01*
X6042705Y-4318149D02*
X6040677Y-4307956D01*
X6192686Y-4307009D02*
X6192686Y-4292984D01*
X6004422Y-4245254D02*
X5994504Y-4255172D01*
X8102737Y-3155323D02*
X8103933Y-3153782D01*
X5828945Y-4321327D02*
X5834312Y-4334285D01*
X6937733Y-3254936D02*
X6941836Y-3237079D01*
X6233022Y-4355864D02*
X6240309Y-4360733D01*
X7009596Y-4355864D02*
X7019514Y-4345946D01*
X7187809Y-4293546D02*
X7185073Y-4279791D01*
X6590945Y-4279791D02*
X6588209Y-4293546D01*
X7705314Y-4345946D02*
X7713106Y-4334285D01*
X8079630Y-3977177D02*
X8077560Y-3974608D01*
X7185073Y-4321327D02*
X7187809Y-4307572D01*
X7109393Y-4282407D02*
X7108873Y-4279791D01*
X8233597Y-4306286D02*
X8234628Y-4305087D01*
X8305814Y-4222036D02*
X8306014Y-4221803D01*
X6714841Y-4232095D02*
X6707160Y-4235277D01*
X7161996Y-4355864D02*
X7171914Y-4345946D01*
X6265306Y-4266833D02*
X6257514Y-4255172D01*
X7152868Y-4361963D02*
X7161996Y-4355864D01*
X7721209Y-4307572D02*
X7721209Y-4293546D01*
X8306015Y-2956915D02*
X8305814Y-2956682D01*
X7075819Y-3400769D02*
X7084381Y-3388461D01*
X7119823Y-4320765D02*
X7125190Y-4333723D01*
X5978609Y-4307572D02*
X5981345Y-4321327D01*
X7121218Y-4292600D02*
X7121218Y-4308518D01*
X6011709Y-4360733D02*
X6018996Y-4355864D01*
X7276745Y-4279791D02*
X7274009Y-4293546D01*
X7119823Y-4279229D02*
X7119190Y-4282407D01*
X6359609Y-4293546D02*
X6359609Y-4307572D01*
X7695396Y-4245254D02*
X7688109Y-4240385D01*
X8004062Y-2833145D02*
X7864429Y-2879689D01*
X6466227Y-4238593D02*
X6457099Y-4244692D01*
X6273409Y-4307572D02*
X6273409Y-4293546D01*
X6476196Y-4245254D02*
X6466227Y-4238593D01*
X5968609Y-4307572D02*
X5968609Y-4293546D01*
X6926109Y-4360733D02*
X6933396Y-4355864D01*
X7952755Y-3227142D02*
X7952755Y-3227142D01*
X6215641Y-4249046D02*
X6226896Y-4237791D01*
X7273597Y-4262282D02*
X7282441Y-4249046D01*
X6379296Y-4237791D02*
X6383058Y-4235277D01*
X5960506Y-4266833D02*
X5952714Y-4255172D01*
X5935509Y-4240385D02*
X5928222Y-4245254D01*
X6121009Y-4307572D02*
X6121009Y-4293546D01*
X6433502Y-4318149D02*
X6434023Y-4320765D01*
X6076099Y-4355301D02*
X6086068Y-4361963D01*
X7119302Y-4318149D02*
X7119823Y-4320765D01*
X6983459Y-3388455D02*
X6992070Y-3400769D01*
X6066182Y-4345384D02*
X6076099Y-4355301D01*
X6075815Y-3391984D02*
X6081057Y-3381896D01*
X6058390Y-4333723D02*
X6066182Y-4345384D01*
X7365977Y-4232095D02*
X7352222Y-4229359D01*
X6053023Y-4320765D02*
X6058390Y-4333723D01*
X6217052Y-3922861D02*
X6217052Y-3809990D01*
X6054418Y-4292600D02*
X6054418Y-4308518D01*
X7566073Y-4321327D02*
X7568809Y-4307572D01*
X7181274Y-4371197D02*
X7195299Y-4371197D01*
X7265990Y-4276426D02*
X7266804Y-4280516D01*
X6855775Y-3645152D02*
X6894741Y-3645152D01*
X7167518Y-4368461D02*
X7181274Y-4371197D01*
X6130597Y-4262282D02*
X6139441Y-4249046D01*
X7718473Y-4321327D02*
X7721209Y-4307572D01*
X7854739Y-4289339D02*
X7854739Y-4289340D01*
X5834312Y-4266833D02*
X5828945Y-4279791D01*
X6130597Y-4338836D02*
X6126009Y-4327760D01*
X7168122Y-4363327D02*
X7163148Y-4366651D01*
X6139441Y-4352072D02*
X6130597Y-4338836D01*
X6285422Y-4229359D02*
X6271396Y-4229359D01*
X6749041Y-4249046D02*
X6760296Y-4237791D01*
X6142255Y-4368461D02*
X6152208Y-4364338D01*
X7123622Y-4229359D02*
X7109596Y-4229359D01*
X5895905Y-4276988D02*
X5901997Y-4262282D01*
X6128499Y-4371197D02*
X6142255Y-4368461D01*
X6523255Y-4368461D02*
X6533208Y-4364338D01*
X6114474Y-4371197D02*
X6128499Y-4371197D01*
X6417706Y-4334285D02*
X6423073Y-4321327D01*
X6112577Y-4352072D02*
X6101322Y-4363327D01*
X7195299Y-4371197D02*
X7209055Y-4368461D01*
X7771596Y-4245254D02*
X7759935Y-4237462D01*
X6150696Y-4363327D02*
X6139441Y-4352072D01*
X7781514Y-4345946D02*
X7789306Y-4334285D01*
X6209945Y-4321327D02*
X6215312Y-4334285D01*
X7629241Y-4232095D02*
X7621560Y-4235277D01*
X6025122Y-4237791D02*
X6036377Y-4249046D01*
X7712777Y-4352072D02*
X7701522Y-4363327D01*
X7789306Y-4266833D02*
X7781514Y-4255172D01*
X7727713Y-4276988D02*
X7730818Y-4292600D01*
X7825383Y-3684698D02*
X7809504Y-3680380D01*
X7712777Y-4249046D02*
X7721621Y-4262282D01*
X6261545Y-3453469D02*
X6297665Y-3355491D01*
X7654597Y-4338836D02*
X7650009Y-4327760D01*
X5852022Y-4245254D02*
X5842104Y-4255172D01*
X7678458Y-4365841D02*
X7674696Y-4363327D01*
X7505345Y-4321327D02*
X7510712Y-4334285D01*
X7713106Y-4266833D02*
X7705314Y-4255172D01*
X7625322Y-4363327D02*
X7621560Y-4365841D01*
X6520112Y-4266833D02*
X6514745Y-4279791D01*
X6704796Y-4245254D02*
X6697509Y-4240385D01*
X6790914Y-4255172D02*
X6780996Y-4245254D01*
X7578397Y-4338836D02*
X7573809Y-4327760D01*
X7650009Y-4327760D02*
X7645421Y-4338836D01*
X7598496Y-4363327D02*
X7587241Y-4352072D01*
X7413673Y-4279791D02*
X7408306Y-4266833D01*
X7549122Y-4237791D02*
X7560377Y-4249046D01*
X7533315Y-3879841D02*
X7525065Y-3893267D01*
X7497609Y-4327760D02*
X7493021Y-4338836D01*
X6131009Y-4293546D02*
X6131009Y-4307572D01*
X7213704Y-4255172D02*
X7205912Y-4266833D01*
X7502197Y-4338836D02*
X7497609Y-4327760D01*
X7629241Y-4369023D02*
X7642996Y-4371759D01*
X7446096Y-4363327D02*
X7434841Y-4352072D01*
X7663441Y-4352072D02*
X7654597Y-4338836D01*
X7484506Y-4266833D02*
X7476714Y-4255172D01*
X7197809Y-4293546D02*
X7197809Y-4307572D01*
X8083023Y-4345902D02*
X8083023Y-4345902D01*
X8306014Y-4221803D02*
X8306396Y-4221319D01*
X5965873Y-4321327D02*
X5968609Y-4307572D01*
X6477348Y-4366651D02*
X6481718Y-4368461D01*
X5945426Y-3775541D02*
X5935897Y-3762613D01*
X7449858Y-4365841D02*
X7446096Y-4363327D01*
X6233022Y-4245254D02*
X6223104Y-4255172D01*
X6215312Y-4266833D02*
X6209945Y-4279791D01*
X7349797Y-4338836D02*
X7345209Y-4327760D01*
X8306759Y-4220821D02*
X8306929Y-4220565D01*
X8381609Y-3110056D02*
X8381609Y-3110055D01*
X7338196Y-4371759D02*
X7352222Y-4371759D01*
X6607896Y-4237791D02*
X6611658Y-4235277D01*
X6557791Y-4345384D02*
X6565583Y-4333723D01*
X7228227Y-4358941D02*
X7233674Y-4355301D01*
X7171914Y-4255172D02*
X7161996Y-4245254D01*
X8079308Y-4346359D02*
X8079308Y-4346359D01*
X8357326Y-4143997D02*
X8357326Y-4143996D01*
X7282441Y-4352072D02*
X7273597Y-4338836D01*
X7267505Y-4324130D02*
X7266692Y-4320040D01*
X7276022Y-4371759D02*
X7289777Y-4369023D01*
X7518504Y-4345946D02*
X7528422Y-4355864D01*
X7535709Y-4360733D02*
X7542996Y-4355864D01*
X7125518Y-4351510D02*
X7116674Y-4338274D01*
X7396722Y-4363327D02*
X7392960Y-4365841D01*
X7142786Y-4366782D02*
X7136774Y-4362765D01*
X6959209Y-4307572D02*
X6959209Y-4293546D01*
X7095841Y-4369023D02*
X7109596Y-4371759D01*
X7316760Y-4365841D02*
X7324441Y-4369023D01*
X6299177Y-4232095D02*
X6285422Y-4229359D01*
X7103177Y-4352072D02*
X7091922Y-4363327D01*
X7352222Y-4371759D02*
X7365977Y-4369023D01*
X6428431Y-4267618D02*
X6430874Y-4261719D01*
X7112021Y-4338836D02*
X7103177Y-4352072D01*
X7857099Y-3785832D02*
X7868273Y-3795346D01*
X7015722Y-4363327D02*
X7011960Y-4365841D01*
X6375504Y-4345946D02*
X6385422Y-4355864D01*
X7243591Y-4345384D02*
X7251383Y-4333723D01*
X7026977Y-4352072D02*
X7015722Y-4363327D01*
X7123622Y-4371759D02*
X7137377Y-4369023D01*
X6992658Y-4235277D02*
X6984977Y-4232095D01*
X7738747Y-3791542D02*
X7724830Y-3784877D01*
X6984977Y-4369023D02*
X6992658Y-4365841D01*
X6385422Y-4355864D02*
X6392709Y-4360733D01*
X6123539Y-3251787D02*
X6125455Y-3275273D01*
X6950777Y-4352072D02*
X6939522Y-4363327D01*
X7035821Y-4338836D02*
X7026977Y-4352072D01*
X6982516Y-3185604D02*
X6997634Y-3178668D01*
X6105114Y-4255172D02*
X6095196Y-4245254D01*
X6634722Y-4237791D02*
X6645977Y-4249046D01*
X6959621Y-4338836D02*
X6950777Y-4352072D01*
X6253722Y-4237791D02*
X6264977Y-4249046D01*
X6892597Y-4338836D02*
X6888009Y-4327760D01*
X7116674Y-4338274D02*
X7114464Y-4332938D01*
X6912696Y-4363327D02*
X6901441Y-4352072D01*
X7061177Y-4369023D02*
X7068858Y-4365841D01*
X6908777Y-4369023D02*
X6916458Y-4365841D01*
X6603977Y-4232095D02*
X6590222Y-4229359D01*
X6333714Y-4345946D02*
X6341506Y-4334285D01*
X7854739Y-2889379D02*
X7834587Y-2949837D01*
X7121098Y-3645152D02*
X7160063Y-3645152D01*
X6883421Y-4338836D02*
X6874577Y-4352072D01*
X7759935Y-4237462D02*
X7746977Y-4232095D01*
X6811809Y-4327760D02*
X6807221Y-4338836D01*
X8305814Y-2956682D02*
X8305814Y-2956682D01*
X7061304Y-4345946D02*
X7071222Y-4355864D01*
X8226712Y-4309979D02*
X8226712Y-4309979D01*
X8381433Y-4071120D02*
X8381609Y-4069484D01*
X6818822Y-4371759D02*
X6832577Y-4369023D01*
X6340620Y-3645152D02*
X6256018Y-3809990D01*
X7052498Y-3645152D02*
X7052498Y-3922861D01*
X7243591Y-4254609D02*
X7233674Y-4244692D01*
X5928695Y-3901873D02*
X5914606Y-3891350D01*
X7378564Y-3873620D02*
X7396776Y-3882172D01*
X6798377Y-4352072D02*
X6787122Y-4363327D01*
X6939522Y-4363327D02*
X6935760Y-4365841D01*
X7855489Y-2887111D02*
X7854740Y-2889378D01*
X8105296Y-3152940D02*
X8106459Y-3152940D01*
X6807221Y-4338836D02*
X6798377Y-4352072D01*
X6385422Y-4245254D02*
X6375504Y-4255172D01*
X6375504Y-4255172D02*
X6367712Y-4266833D01*
X6749041Y-4352072D02*
X6740197Y-4338836D01*
X6935760Y-4365841D02*
X6943441Y-4369023D01*
X6760296Y-4363327D02*
X6749041Y-4352072D01*
X7499521Y-3778714D02*
X7512616Y-3785832D01*
X6756377Y-4369023D02*
X6764058Y-4365841D01*
X7015722Y-4237791D02*
X7026977Y-4249046D01*
X7053841Y-4249046D02*
X7065096Y-4237791D01*
X7373658Y-4365841D02*
X7369896Y-4363327D01*
X6257514Y-4345946D02*
X6265306Y-4334285D01*
X7352945Y-4321327D02*
X7358312Y-4334285D01*
X7459509Y-4240385D02*
X7452222Y-4245254D01*
X6509499Y-4371197D02*
X6523255Y-4368461D01*
X8355539Y-4147650D02*
X8355542Y-4147646D01*
X8381609Y-4069484D02*
X8381609Y-4068661D01*
X6684096Y-4363327D02*
X6672841Y-4352072D01*
X6804796Y-4371759D02*
X6818822Y-4371759D01*
X7781514Y-4255172D02*
X7771596Y-4245254D01*
X6666422Y-4371759D02*
X6680177Y-4369023D01*
X6832577Y-4369023D02*
X6840258Y-4365841D01*
X6652396Y-4371759D02*
X6666422Y-4371759D01*
X6659409Y-4327760D02*
X6654821Y-4338836D01*
X6060740Y-3448048D02*
X6041812Y-3452051D01*
X6581705Y-4324130D02*
X6580892Y-4320040D01*
X6840258Y-4365841D02*
X6836496Y-4363327D01*
X5942796Y-4245254D02*
X5935509Y-4240385D01*
X6596641Y-4352072D02*
X6587797Y-4338836D01*
X6333841Y-4232095D02*
X6326160Y-4235277D01*
X6603977Y-4369023D02*
X6611658Y-4365841D01*
X6680177Y-4369023D02*
X6687858Y-4365841D01*
X6562441Y-4369023D02*
X6576196Y-4371759D01*
X6580892Y-4320040D02*
X6580190Y-4323568D01*
X5952714Y-4345946D02*
X5960506Y-4334285D01*
X6551448Y-4364470D02*
X6562441Y-4369023D01*
X6209222Y-4229359D02*
X6195196Y-4229359D01*
X6423796Y-4371759D02*
X6437822Y-4371759D01*
X7469160Y-4235277D02*
X7472922Y-4237791D01*
X6417377Y-4352072D02*
X6406122Y-4363327D01*
X6728596Y-4371759D02*
X6742622Y-4371759D01*
X6368041Y-4352072D02*
X6359197Y-4338836D01*
X7452222Y-4245254D02*
X7442304Y-4255172D01*
X6375377Y-4369023D02*
X6383058Y-4365841D01*
X6428664Y-4332938D02*
X6426221Y-4338836D01*
X6326160Y-4365841D02*
X6333841Y-4369023D01*
X6361622Y-4371759D02*
X6375377Y-4369023D01*
X6341177Y-4352072D02*
X6329922Y-4363327D01*
X8357111Y-3034077D02*
X8356568Y-3032829D01*
X6253722Y-4363327D02*
X6249960Y-4365841D01*
X7136774Y-4362765D02*
X7125518Y-4351510D01*
X6206797Y-4338836D02*
X6200705Y-4324130D01*
X6200705Y-4324130D02*
X6199892Y-4320040D01*
X6209222Y-4371759D02*
X6222977Y-4369023D01*
X6451577Y-4369023D02*
X6456986Y-4366782D01*
X7365977Y-4369023D02*
X7373658Y-4365841D01*
X7701522Y-4237791D02*
X7712777Y-4249046D01*
X6181441Y-4369023D02*
X6195196Y-4371759D01*
X6527904Y-4345946D02*
X6537822Y-4355864D01*
X8306396Y-4221319D02*
X8306759Y-4220821D01*
X6170448Y-4364470D02*
X6181441Y-4369023D01*
X6028914Y-4255172D02*
X6018996Y-4245254D01*
X6291512Y-4266833D02*
X6286145Y-4279791D01*
X6058718Y-4351510D02*
X6049874Y-4338274D01*
X8306396Y-2957399D02*
X8306015Y-2956915D01*
X8083022Y-2832816D02*
X8083022Y-2832816D01*
X6057930Y-3684698D02*
X6042051Y-3680380D01*
X6026334Y-3678966D02*
X6007643Y-3680412D01*
X6035136Y-3887602D02*
X6050406Y-3883698D01*
X6042796Y-4371759D02*
X6056822Y-4371759D01*
X6118273Y-4321327D02*
X6121009Y-4307572D01*
X8226712Y-4309979D02*
X8228246Y-4309593D01*
X5973609Y-4327760D02*
X5969021Y-4338836D01*
X6076551Y-3778714D02*
X6089645Y-3785832D01*
X6863322Y-4363327D02*
X6859560Y-4365841D01*
X7019641Y-4369023D02*
X7033396Y-4371759D01*
X6680304Y-4255172D02*
X6672512Y-4266833D01*
X8008900Y-2822360D02*
X8008906Y-2822359D01*
X6756504Y-4345946D02*
X6766422Y-4355864D01*
X6105114Y-4345946D02*
X6112906Y-4334285D01*
X7914098Y-3970905D02*
X7914098Y-3970905D01*
X8006197Y-2822504D02*
X8008900Y-2822360D01*
X6047664Y-4332938D02*
X6045221Y-4338836D01*
X8003517Y-2822939D02*
X8006197Y-2822504D01*
X7503454Y-3297042D02*
X7621870Y-3297042D01*
X7861266Y-2870203D02*
X8000900Y-2823658D01*
X6824912Y-4266833D02*
X6819545Y-4279791D01*
X7261996Y-4371759D02*
X7276022Y-4371759D01*
X6359197Y-4262282D02*
X6368041Y-4249046D01*
X6652396Y-4229359D02*
X6638641Y-4232095D01*
X7854339Y-2873776D02*
X7861264Y-2870204D01*
X5952841Y-4369023D02*
X5966596Y-4371759D01*
X7845254Y-2886214D02*
X7848826Y-2879289D01*
X8130679Y-4004760D02*
X8130678Y-4004761D01*
X7906275Y-3980206D02*
X7834447Y-4219634D01*
X5945160Y-4365841D02*
X5952841Y-4369023D01*
X7160063Y-3803490D02*
X7160063Y-3885806D01*
X7845253Y-2886216D02*
X7845254Y-2886214D01*
X6247596Y-4245254D02*
X6240309Y-4240385D01*
X7824868Y-2961957D02*
X7824868Y-2961957D01*
X5993480Y-3887288D02*
X6015262Y-3889047D01*
X7896696Y-3201384D02*
X7824868Y-2961957D01*
X8008906Y-2822359D02*
X8079307Y-2822359D01*
X7955708Y-3238457D02*
X7951903Y-3237558D01*
X7824868Y-2961957D02*
X7823896Y-2956884D01*
X6707160Y-4235277D02*
X6710922Y-4237791D01*
X7959605Y-3238759D02*
X7955708Y-3238457D01*
X6434023Y-4320765D02*
X6439390Y-4333723D01*
X7663112Y-4266833D02*
X7657745Y-4279791D01*
X7959605Y-3238759D02*
X7959605Y-3238759D01*
X6152208Y-4364338D02*
X6150696Y-4363327D01*
X8026213Y-3238759D02*
X8026212Y-3238759D01*
X6467068Y-4361963D02*
X6476196Y-4355864D01*
X7132982Y-4345384D02*
X7142899Y-4355301D01*
X7400514Y-4255172D02*
X7390596Y-4245254D01*
X6172999Y-4362765D02*
X6170448Y-4364470D01*
X7492609Y-4307572D02*
X7492609Y-4293546D01*
X8089310Y-3204537D02*
X8089310Y-3204537D01*
X7759935Y-4363656D02*
X7771596Y-4355864D01*
X6950777Y-4249046D02*
X6959621Y-4262282D01*
X7825100Y-2946675D02*
X7845253Y-2886216D01*
X8008905Y-2832360D02*
X8008083Y-2832359D01*
X8123122Y-3180543D02*
X8123122Y-3180543D01*
X6283409Y-4307572D02*
X6286145Y-4321327D01*
X8126564Y-3185462D02*
X8124548Y-3181969D01*
X7449305Y-3642286D02*
X7471388Y-3644074D01*
X6735609Y-4327760D02*
X6731021Y-4338836D01*
X7047422Y-4371759D02*
X7061177Y-4369023D01*
X8123610Y-3997687D02*
X8127609Y-3993688D01*
X6426221Y-4338836D02*
X6417377Y-4352072D01*
X6630960Y-4365841D02*
X6638641Y-4369023D01*
X7834587Y-4228881D02*
X7834587Y-4228881D01*
X8121527Y-3999750D02*
X8123610Y-3997687D01*
X7489873Y-4321327D02*
X7492609Y-4307572D01*
X6895022Y-4371759D02*
X6908777Y-4369023D01*
X6547874Y-4244692D02*
X6543268Y-4241615D01*
X7205912Y-4266833D02*
X7200545Y-4279791D01*
X8089310Y-3974181D02*
X8089310Y-3974181D01*
X8089310Y-3974181D02*
X8089310Y-3974181D01*
X6439390Y-4333723D02*
X6447182Y-4345384D01*
X7103506Y-4334285D02*
X7108873Y-4321327D01*
X5935509Y-4360733D02*
X5942796Y-4355864D01*
X8030109Y-3940261D02*
X8033913Y-3941158D01*
X8037534Y-3942632D02*
X8037536Y-3942632D01*
X6687858Y-4365841D02*
X6684096Y-4363327D01*
X6139441Y-4249046D02*
X6150696Y-4237791D01*
X8077987Y-3962858D02*
X8077987Y-3962858D01*
X7642889Y-3175760D02*
X7642889Y-3212815D01*
X7955707Y-3940260D02*
X7959605Y-3939958D01*
X6112906Y-4334285D02*
X6118273Y-4321327D01*
X7951903Y-3941159D02*
X7955707Y-3940260D01*
X8082548Y-3965787D02*
X8086381Y-3969620D01*
X7824868Y-4216761D02*
X7896697Y-3977332D01*
X7484177Y-4249046D02*
X7493021Y-4262282D01*
X7823898Y-4221834D02*
X7824866Y-4216780D01*
X6493906Y-4334285D02*
X6499273Y-4321327D01*
X7825100Y-4232043D02*
X7825100Y-4232043D01*
X7416409Y-4307572D02*
X7416409Y-4293546D01*
X8082548Y-3212931D02*
X8077987Y-3215860D01*
X6070577Y-4369023D02*
X6075986Y-4366782D01*
X6101322Y-4363327D02*
X6096348Y-4366651D01*
X7276745Y-4321327D02*
X7282112Y-4334285D01*
X7825100Y-4232043D02*
X7825100Y-4232043D01*
X8137603Y-3191344D02*
X8137609Y-3191376D01*
X8226713Y-4309979D02*
X8226712Y-4309979D01*
X7845253Y-4292502D02*
X7825100Y-4232043D01*
X8104774Y-4000224D02*
X8110281Y-4002235D01*
X8380823Y-3105212D02*
X8380823Y-3105212D01*
X6482322Y-4237791D02*
X6493577Y-4249046D01*
X7861266Y-4308515D02*
X7861264Y-4308514D01*
X6537822Y-4245254D02*
X6527904Y-4255172D01*
X7205912Y-4334285D02*
X7213704Y-4345946D01*
X7630656Y-3645152D02*
X7630656Y-3922861D01*
X8030813Y-4390928D02*
X8041983Y-4384677D01*
X5955593Y-3873620D02*
X5973805Y-3882172D01*
X6614022Y-4355864D02*
X6621309Y-4360733D01*
X5960177Y-4249046D02*
X5969021Y-4262282D01*
X7847060Y-4402516D02*
X7876020Y-4406717D01*
X7695230Y-3723647D02*
X7696978Y-3704646D01*
X6992658Y-4365841D02*
X6988896Y-4363327D01*
X7425997Y-4338836D02*
X7421409Y-4327760D01*
X6060061Y-3919977D02*
X6039797Y-3924205D01*
X7540219Y-3845322D02*
X7538422Y-3864057D01*
X7772387Y-4385827D02*
X7819687Y-4397320D01*
X7905819Y-4409437D02*
X7935732Y-4410203D01*
X7390596Y-4355864D02*
X7400514Y-4345946D01*
X7259486Y-4292984D02*
X7256750Y-4279229D01*
X7807018Y-4292600D02*
X7807018Y-4308518D01*
X7876020Y-4406717D02*
X7905819Y-4409437D01*
X7749780Y-4222855D02*
X7764486Y-4228947D01*
X7948282Y-3236086D02*
X7909626Y-3216757D01*
X7688109Y-4228874D02*
X7702638Y-4222855D01*
X6951106Y-4334285D02*
X6956473Y-4321327D01*
X5910512Y-4334285D02*
X5918304Y-4345946D01*
X6061854Y-3773412D02*
X6076551Y-3778714D01*
X7673580Y-4222855D02*
X7688109Y-4228874D01*
X8116142Y-4002069D02*
X8121527Y-3999750D01*
X7657968Y-4219750D02*
X7673580Y-4222855D01*
X7788977Y-4249046D02*
X7797821Y-4262282D01*
X7749780Y-4378263D02*
X7748673Y-4378483D01*
X7027306Y-4266833D02*
X7019514Y-4255172D01*
X7299822Y-4355864D02*
X7307109Y-4360733D01*
X6787122Y-4363327D02*
X6783360Y-4365841D01*
X7525065Y-3893267D02*
X7513469Y-3904726D01*
X7642050Y-4219750D02*
X7657968Y-4219750D01*
X8072309Y-4356359D02*
X8008906Y-4356359D01*
X7823975Y-4227000D02*
X7823898Y-4221834D01*
X7834092Y-4227391D02*
X7834587Y-4228881D01*
X7521180Y-4222855D02*
X7535709Y-4228874D01*
X6570950Y-4279229D02*
X6565583Y-4266271D01*
X7357446Y-3688668D02*
X7365409Y-3675118D01*
X7413450Y-4219750D02*
X7429368Y-4219750D01*
X8037536Y-3236086D02*
X8037535Y-3236086D01*
X7383309Y-4228874D02*
X7397838Y-4222855D01*
X5892800Y-4292600D02*
X5895905Y-4276988D01*
X7368780Y-4222855D02*
X7383309Y-4228874D01*
X7187809Y-4307572D02*
X7187809Y-4293546D01*
X7167518Y-4231533D02*
X7162109Y-4233773D01*
X7093038Y-4222855D02*
X7108650Y-4219750D01*
X6574098Y-4338274D02*
X6565255Y-4351510D01*
X8026212Y-3228759D02*
X8026219Y-3228760D01*
X8041983Y-4384677D02*
X8052306Y-4377398D01*
X7373658Y-4235277D02*
X7365977Y-4232095D01*
X7657022Y-4229359D02*
X7642996Y-4229359D01*
X7078509Y-4228874D02*
X7093038Y-4222855D01*
X7211858Y-4222293D02*
X7226564Y-4228385D01*
X6911716Y-3212815D02*
X6833221Y-3212815D01*
X7016838Y-4222855D02*
X7032450Y-4219750D01*
X7048368Y-4219750D02*
X7063980Y-4222855D01*
X5966596Y-4371759D02*
X5980622Y-4371759D01*
X6049874Y-4338274D02*
X6047664Y-4332938D01*
X7237248Y-4364470D02*
X7248241Y-4369023D01*
X7293696Y-4363327D02*
X7282441Y-4352072D01*
X7002309Y-4228874D02*
X7016838Y-4222855D01*
X8083023Y-2832816D02*
X8083023Y-2832816D01*
X6864438Y-4222855D02*
X6880050Y-4219750D01*
X7140180Y-4222855D02*
X7151769Y-4227656D01*
X7797409Y-4293546D02*
X7794673Y-4279791D01*
X7733222Y-4229359D02*
X7719196Y-4229359D01*
X6465969Y-4227656D02*
X6478915Y-4222293D01*
X7581545Y-4279791D02*
X7578809Y-4293546D01*
X6422850Y-4219750D02*
X6438768Y-4219750D01*
X7349797Y-4262282D02*
X7358641Y-4249046D01*
X6346650Y-4219750D02*
X6362568Y-4219750D01*
X6957681Y-3207023D02*
X6968987Y-3195198D01*
X7064338Y-3410209D02*
X7075819Y-3400769D01*
X8127609Y-3191374D02*
X8127607Y-3191374D01*
X6540397Y-3922673D02*
X6409578Y-3718410D01*
X6476196Y-4355864D02*
X6486114Y-4345946D01*
X6128499Y-4228797D02*
X6114474Y-4228797D01*
X8086381Y-3209098D02*
X8082548Y-3212931D01*
X7899544Y-3207630D02*
X7896737Y-3201462D01*
X6254838Y-4222855D02*
X6270450Y-4219750D01*
X6740197Y-4338836D02*
X6735609Y-4327760D01*
X7289904Y-4255172D02*
X7282112Y-4266833D01*
X7340209Y-4307572D02*
X7340209Y-4293546D01*
X6581004Y-4280516D02*
X6581705Y-4276988D01*
X6162268Y-4230058D02*
X6163932Y-4228947D01*
X7602258Y-4365841D02*
X7598496Y-4363327D01*
X7400120Y-3921906D02*
X7382725Y-3917093D01*
X6457099Y-4355301D02*
X6467068Y-4361963D01*
X8029742Y-3228394D02*
X8032002Y-3227672D01*
X8032004Y-3951046D02*
X8029743Y-3950325D01*
X5935897Y-3762613D02*
X5931617Y-3752595D01*
X6073380Y-4222855D02*
X6084969Y-4227656D01*
X6240309Y-4228874D02*
X6254838Y-4222855D01*
X6309222Y-4355864D02*
X6316509Y-4360733D01*
X7642889Y-3416414D02*
X7642889Y-3453469D01*
X7719196Y-4371759D02*
X7733222Y-4371759D01*
X6091605Y-3432632D02*
X6076935Y-3441731D01*
X6011709Y-4228874D02*
X6026238Y-4222855D01*
X6773709Y-4228874D02*
X6788238Y-4222855D01*
X5950038Y-4222855D02*
X5965650Y-4219750D01*
X6210168Y-4219750D02*
X6225780Y-4222855D01*
X7366681Y-3910441D02*
X7351665Y-3901873D01*
X6256018Y-3922861D02*
X6217052Y-3922861D01*
X5920980Y-4222855D02*
X5935509Y-4228874D01*
X6159764Y-4228385D02*
X6162268Y-4230058D01*
X6306858Y-4365841D02*
X6303096Y-4363327D01*
X6439718Y-4351510D02*
X6430874Y-4338274D01*
X6742622Y-4371759D02*
X6756377Y-4369023D01*
X6499273Y-4321327D02*
X6502009Y-4307572D01*
X8033915Y-3237559D02*
X8030110Y-3238458D01*
X6069974Y-4362765D02*
X6058718Y-4351510D01*
X5859132Y-4228947D02*
X5873838Y-4222855D01*
X8137609Y-3944959D02*
X8137609Y-3995759D01*
X5845896Y-4237791D02*
X5859132Y-4228947D01*
X6097915Y-4222293D02*
X6113527Y-4219188D01*
X5816600Y-4292600D02*
X5819705Y-4276988D01*
X6454380Y-4222855D02*
X6465969Y-4227656D01*
X6759180Y-4222855D02*
X6773709Y-4228874D01*
X7180327Y-4219188D02*
X7196245Y-4219188D01*
X7245438Y-4222855D02*
X7261050Y-4219750D01*
X7345209Y-4327760D02*
X7340621Y-4338836D01*
X6178638Y-4222855D02*
X6194250Y-4219750D01*
X6194250Y-4219750D02*
X6210168Y-4219750D01*
X5920980Y-4378263D02*
X5905368Y-4381368D01*
X7706302Y-3861546D02*
X7723047Y-3873620D01*
X5950038Y-4378263D02*
X5935509Y-4372244D01*
X7825100Y-4232043D02*
X7823975Y-4227000D01*
X6346873Y-4321327D02*
X6349609Y-4307572D01*
X7807250Y-3924205D02*
X7782715Y-3925727D01*
X6512009Y-4307572D02*
X6514745Y-4321327D01*
X7223622Y-4355864D02*
X7228227Y-4358941D01*
X5981568Y-4381368D02*
X5965650Y-4381368D01*
X6036377Y-4352072D02*
X6025122Y-4363327D01*
X6026238Y-4378263D02*
X6011709Y-4372244D01*
X6264977Y-4352072D02*
X6253722Y-4363327D01*
X6456986Y-4366782D02*
X6450974Y-4362765D01*
X7580822Y-4371759D02*
X7594577Y-4369023D01*
X7645421Y-4262282D02*
X7650009Y-4273358D01*
X6047431Y-4267618D02*
X6049874Y-4261719D01*
X5863683Y-4363656D02*
X5876641Y-4369023D01*
X6901441Y-4352072D02*
X6892597Y-4338836D01*
X7952755Y-3951576D02*
X7952754Y-3951576D01*
X5842104Y-4345946D02*
X5852022Y-4355864D01*
X7696148Y-3901873D02*
X7682059Y-3891350D01*
X6541318Y-3453469D02*
X6541318Y-3175760D01*
X6041850Y-4381368D02*
X6026238Y-4378263D01*
X5889450Y-4219750D02*
X5905368Y-4219750D01*
X6057768Y-4381368D02*
X6041850Y-4381368D01*
X7834446Y-2959084D02*
X7834447Y-2959084D01*
X8356568Y-3032829D02*
X8355916Y-3031634D01*
X7469160Y-4365841D02*
X7476841Y-4369023D01*
X7490596Y-4371759D02*
X7504622Y-4371759D01*
X7282112Y-4266833D02*
X7276745Y-4279791D01*
X6159764Y-4371609D02*
X6145058Y-4377700D01*
X7446096Y-4237791D02*
X7449858Y-4235277D01*
X6161427Y-4370498D02*
X6159764Y-4371609D01*
X7565850Y-4219750D02*
X7581768Y-4219750D01*
X6240309Y-4372244D02*
X6225780Y-4378263D01*
X6199190Y-4323568D02*
X6193098Y-4338274D01*
X6968797Y-4338836D02*
X6964209Y-4327760D01*
X6254838Y-4378263D02*
X6240309Y-4372244D01*
X6383058Y-4365841D02*
X6379296Y-4363327D01*
X6354609Y-4327760D02*
X6350021Y-4338836D01*
X6270450Y-4381368D02*
X6254838Y-4378263D01*
X7535709Y-4228874D02*
X7550238Y-4222855D01*
X6286368Y-4381368D02*
X6270450Y-4381368D01*
X6392709Y-4228874D02*
X6407238Y-4222855D01*
X6378180Y-4378263D02*
X6362568Y-4381368D01*
X6375377Y-4232095D02*
X6361622Y-4229359D01*
X6495474Y-4228797D02*
X6481718Y-4231533D01*
X6438768Y-4381368D02*
X6422850Y-4381368D01*
X7095714Y-4345946D02*
X7103506Y-4334285D01*
X8089310Y-3204537D02*
X8089310Y-3204537D01*
X6367712Y-4334285D02*
X6375504Y-4345946D01*
X6697509Y-4360733D02*
X6704796Y-4355864D01*
X8089310Y-3974181D02*
X8099073Y-3993706D01*
X7071222Y-4245254D02*
X7061304Y-4255172D01*
X8018870Y-4396204D02*
X8030813Y-4390928D01*
X7449305Y-3678966D02*
X7430614Y-3680412D01*
X8077987Y-3215860D02*
X8077987Y-3215860D01*
X6058390Y-4266271D02*
X6053023Y-4279229D01*
X7825100Y-2946675D02*
X7825100Y-2946675D01*
X6596312Y-4266833D02*
X6590945Y-4279791D01*
X6540764Y-4371609D02*
X6526058Y-4377700D01*
X5910841Y-4352072D02*
X5901997Y-4338836D01*
X7289777Y-4369023D02*
X7297458Y-4365841D01*
X6590945Y-4321327D02*
X6596312Y-4334285D01*
X6654409Y-4293546D02*
X6651673Y-4279791D01*
X8033913Y-3941158D02*
X8037534Y-3942629D01*
X5998296Y-4363327D02*
X5987041Y-4352072D01*
X6591168Y-4381368D02*
X6575250Y-4381368D01*
X6346650Y-4381368D02*
X6331038Y-4378263D01*
X8231092Y-4308216D02*
X8233597Y-4306286D01*
X6651450Y-4381368D02*
X6635838Y-4378263D01*
X8026212Y-3238759D02*
X8026212Y-3238759D01*
X6178638Y-4378263D02*
X6163932Y-4372171D01*
X6604104Y-4345946D02*
X6614022Y-4355864D01*
X6892597Y-4262282D02*
X6901441Y-4249046D01*
X7197397Y-4262282D02*
X7206241Y-4249046D01*
X7581768Y-4219750D02*
X7597380Y-4222855D01*
X6021360Y-4235277D02*
X6025122Y-4237791D01*
X5826209Y-4307572D02*
X5828945Y-4321327D01*
X6712038Y-4378263D02*
X6697509Y-4372244D01*
X6392709Y-4372244D02*
X6378180Y-4378263D01*
X6759180Y-4378263D02*
X6743568Y-4381368D01*
X6580284Y-3175760D02*
X6580284Y-3416414D01*
X6773709Y-4372244D02*
X6759180Y-4378263D01*
X6542427Y-4370498D02*
X6540764Y-4371609D01*
X6788238Y-4378263D02*
X6773709Y-4372244D01*
X7137377Y-4369023D02*
X7142786Y-4366782D01*
X6803850Y-4381368D02*
X6788238Y-4378263D01*
X6362568Y-4381368D02*
X6346650Y-4381368D01*
X8000901Y-4355060D02*
X8000900Y-4355060D01*
X6819768Y-4381368D02*
X6803850Y-4381368D01*
X7825100Y-2946675D02*
X7825100Y-2946675D01*
X6849909Y-4372244D02*
X6835380Y-4378263D01*
X6667368Y-4381368D02*
X6651450Y-4381368D01*
X7206241Y-4249046D02*
X7217496Y-4237791D01*
X7682059Y-3891350D02*
X7706302Y-3861546D01*
X5819705Y-4276988D02*
X5825797Y-4262282D01*
X7114231Y-4267618D02*
X7116674Y-4261719D01*
X6399996Y-4245254D02*
X6392709Y-4240385D01*
X6614022Y-4245254D02*
X6604104Y-4255172D01*
X7332106Y-4334285D02*
X7337473Y-4321327D01*
X7833998Y-4221140D02*
X7833724Y-4224270D01*
X7389843Y-3654744D02*
X7406011Y-3648097D01*
X6493577Y-4352072D02*
X6482322Y-4363327D01*
X8380823Y-3105212D02*
X8357326Y-3034722D01*
X6880996Y-4371759D02*
X6895022Y-4371759D01*
X6423796Y-4229359D02*
X6410041Y-4232095D01*
X5890396Y-4371759D02*
X5904422Y-4371759D01*
X6895968Y-4381368D02*
X6880050Y-4381368D01*
X6544932Y-4372171D02*
X6542427Y-4370498D01*
X5845896Y-4363327D02*
X5834641Y-4352072D01*
X6036706Y-4334285D02*
X6042073Y-4321327D01*
X6911580Y-4378263D02*
X6895968Y-4381368D01*
X6581705Y-4276988D02*
X6587797Y-4262282D01*
X7754156Y-3796239D02*
X7738747Y-3791542D01*
X6926109Y-4372244D02*
X6911580Y-4378263D01*
X6145058Y-4377700D02*
X6129445Y-4380806D01*
X7864428Y-4299028D02*
X7864428Y-4299028D01*
X5978197Y-4262282D02*
X5987041Y-4249046D01*
X7382725Y-3917093D02*
X7366681Y-3910441D01*
X6940638Y-4378263D02*
X6926109Y-4372244D01*
X6316509Y-4372244D02*
X6301980Y-4378263D01*
X7504622Y-4371759D02*
X7518377Y-4369023D01*
X7645421Y-4338836D02*
X7636577Y-4352072D01*
X7220047Y-4236086D02*
X7209055Y-4231533D01*
X8000901Y-4355060D02*
X8000901Y-4355060D01*
X6700355Y-3682207D02*
X6621860Y-3682207D01*
X6798377Y-4249046D02*
X6807221Y-4262282D01*
X6977641Y-4249046D02*
X6988896Y-4237791D01*
X8008906Y-4356359D02*
X8008906Y-4356359D01*
X6621309Y-4360733D02*
X6628596Y-4355864D01*
X7002309Y-4372244D02*
X6987780Y-4378263D01*
X7539270Y-3829904D02*
X7540219Y-3844929D01*
X7493218Y-3821829D02*
X7483759Y-3814642D01*
X7276968Y-4219750D02*
X7292580Y-4222855D01*
X6433390Y-4282407D02*
X6435418Y-4292600D01*
X6502009Y-4293546D02*
X6499273Y-4279791D01*
X6908904Y-4345946D02*
X6918822Y-4355864D01*
X6731021Y-4262282D02*
X6735609Y-4273358D01*
X5986703Y-3796239D02*
X5971294Y-3791542D01*
X5953555Y-3663595D02*
X5966872Y-3654744D01*
X6041812Y-3452051D02*
X6019646Y-3453469D01*
X7124568Y-4381368D02*
X7108650Y-4381368D01*
X5983040Y-3648097D02*
X6002629Y-3643823D01*
X5859132Y-4372171D02*
X5845896Y-4363327D01*
X8079934Y-4346359D02*
X8081181Y-4346257D01*
X7180327Y-4380806D02*
X7164715Y-4377700D01*
X6587797Y-4338836D02*
X6581705Y-4324130D01*
X7063980Y-4378263D02*
X7048368Y-4381368D01*
X7858305Y-4295463D02*
X7862161Y-4298279D01*
X7226564Y-4371609D02*
X7211858Y-4377700D01*
X7016838Y-4378263D02*
X7002309Y-4372244D01*
X7733222Y-4371759D02*
X7746977Y-4369023D01*
X6511597Y-4338836D02*
X6507009Y-4327760D01*
X7587241Y-4352072D02*
X7578397Y-4338836D01*
X7701522Y-4363327D02*
X7697760Y-4365841D01*
X7307109Y-4372244D02*
X7292580Y-4378263D01*
X7040409Y-4327760D02*
X7035821Y-4338836D01*
X7321638Y-4378263D02*
X7307109Y-4372244D01*
X7245438Y-4378263D02*
X7230732Y-4372171D01*
X8027398Y-3949960D02*
X8026211Y-3949959D01*
X7337250Y-4381368D02*
X7321638Y-4378263D01*
X6510445Y-4219188D02*
X6526058Y-4222293D01*
X7065096Y-4363327D02*
X7053841Y-4352072D01*
X7044997Y-4338836D02*
X7040409Y-4327760D01*
X7368780Y-4378263D02*
X7353168Y-4381368D01*
X6225780Y-4378263D02*
X6210168Y-4381368D01*
X6095196Y-4355864D02*
X6105114Y-4345946D01*
X6045221Y-4262282D02*
X6047431Y-4267618D01*
X7397838Y-4378263D02*
X7383309Y-4372244D01*
X6478915Y-4377700D02*
X6467326Y-4372900D01*
X6378180Y-4222855D02*
X6392709Y-4228874D01*
X7429145Y-4279791D02*
X7426409Y-4293546D01*
X7526058Y-4365841D02*
X7522296Y-4363327D01*
X7730818Y-4292600D02*
X7730818Y-4308518D01*
X7429368Y-4381368D02*
X7413450Y-4381368D01*
X6131009Y-4307572D02*
X6133745Y-4321327D01*
X6121421Y-4262282D02*
X6126009Y-4273358D01*
X6042073Y-4321327D02*
X6042705Y-4318149D01*
X6273409Y-4293546D02*
X6270673Y-4279791D01*
X6096348Y-4366651D02*
X6100718Y-4368461D01*
X7358312Y-4266833D02*
X7352945Y-4279791D01*
X6580190Y-4276426D02*
X6581004Y-4280516D01*
X5935509Y-4372244D02*
X5920980Y-4378263D01*
X6084969Y-4227656D02*
X6097915Y-4222293D01*
X7505568Y-4381368D02*
X7489650Y-4381368D01*
X7048368Y-4381368D02*
X7032450Y-4381368D01*
X5905145Y-4279791D02*
X5902409Y-4293546D01*
X6743568Y-4381368D02*
X6727650Y-4381368D01*
X5910512Y-4266833D02*
X5905145Y-4279791D01*
X7697760Y-4235277D02*
X7701522Y-4237791D01*
X6436568Y-3392546D02*
X6324493Y-3392546D01*
X8030110Y-3238458D02*
X8026213Y-3238760D01*
X7125190Y-4266271D02*
X7119823Y-4279229D01*
X7053512Y-4266833D02*
X7048145Y-4279791D01*
X7521180Y-4378263D02*
X7505568Y-4381368D01*
X7261050Y-4219750D02*
X7276968Y-4219750D01*
X6270673Y-4321327D02*
X6273409Y-4307572D01*
X6341506Y-4334285D02*
X6346873Y-4321327D01*
X7103506Y-4266833D02*
X7095714Y-4255172D01*
X7597380Y-4222855D02*
X7611909Y-4228874D01*
X7188221Y-4262282D02*
X7192809Y-4273358D01*
X6971222Y-4371759D02*
X6984977Y-4369023D01*
X6659409Y-4273358D02*
X6663997Y-4262282D01*
X5968609Y-4293546D02*
X5965873Y-4279791D01*
X5967487Y-3732735D02*
X5970585Y-3740520D01*
X8100399Y-3996320D02*
X8104774Y-4000224D01*
X6825241Y-4352072D02*
X6816397Y-4338836D01*
X7673580Y-4378263D02*
X7657968Y-4381368D01*
X7550238Y-4378263D02*
X7535709Y-4372244D01*
X7789306Y-4334285D02*
X7794673Y-4321327D01*
X7833724Y-4224270D02*
X7834092Y-4227391D01*
X6435418Y-4308518D02*
X6433502Y-4318149D01*
X6363925Y-3175760D02*
X6397141Y-3175760D01*
X7702638Y-4378263D02*
X7688109Y-4372244D01*
X7854740Y-2889378D02*
X7854739Y-2889378D01*
X7718250Y-4381368D02*
X7702638Y-4378263D01*
X6184552Y-3175760D02*
X6223518Y-3175760D01*
X7724421Y-4381368D02*
X7718250Y-4381368D01*
X7292580Y-4378263D02*
X7276968Y-4381368D01*
X7549122Y-4363327D02*
X7545360Y-4365841D01*
X7657022Y-4371759D02*
X7670777Y-4369023D01*
X6113035Y-3407730D02*
X6103543Y-3421358D01*
X7724730Y-4381535D02*
X7724421Y-4381368D01*
X6740609Y-4293546D02*
X6740609Y-4307572D01*
X6832704Y-4345946D02*
X6842622Y-4355864D01*
X7458107Y-3887602D02*
X7473377Y-3883698D01*
X7769875Y-4395508D02*
X7769733Y-4395442D01*
X7769733Y-4395442D02*
X7769576Y-4395426D01*
X7674696Y-4363327D02*
X7663441Y-4352072D01*
X7513873Y-3658363D02*
X7534675Y-3671323D01*
X7817699Y-4407121D02*
X7817579Y-4407073D01*
X6112906Y-4266833D02*
X6105114Y-4255172D01*
X7845300Y-4412361D02*
X7817699Y-4407121D01*
X8228246Y-4309593D02*
X8231092Y-4308216D01*
X7845515Y-4412397D02*
X7845411Y-4412360D01*
X7906275Y-3198514D02*
X7906276Y-3198515D01*
X7874716Y-4416632D02*
X7845515Y-4412397D01*
X7899542Y-3971086D02*
X7903960Y-3965834D01*
X7259898Y-4338274D02*
X7251055Y-4351510D01*
X7793788Y-3678966D02*
X7775097Y-3680412D01*
X8000900Y-2823658D02*
X8000900Y-2823658D01*
X6743345Y-4321327D02*
X6748712Y-4334285D01*
X7611909Y-4372244D02*
X7597380Y-4378263D01*
X6129445Y-4219188D02*
X6145058Y-4222293D01*
X7874850Y-4416625D02*
X7874716Y-4416632D01*
X7896697Y-3977331D02*
X7899542Y-3971086D01*
X6156822Y-4355864D02*
X6161427Y-4358941D01*
X7905400Y-4419430D02*
X7905238Y-4419393D01*
X7425600Y-3643823D02*
X7449305Y-3642286D01*
X7366104Y-4255172D02*
X7358312Y-4266833D01*
X7352222Y-4229359D02*
X7338196Y-4229359D01*
X7935681Y-4420205D02*
X7905400Y-4419430D01*
X6908904Y-4255172D02*
X6901112Y-4266833D01*
X7035409Y-4307572D02*
X7035409Y-4293546D01*
X8355916Y-3031634D02*
X8355539Y-3031068D01*
X7935885Y-4420169D02*
X7935681Y-4420205D01*
X7413450Y-4381368D02*
X7397838Y-4378263D01*
X7626438Y-4222855D02*
X7642050Y-4219750D01*
X7718250Y-4219750D02*
X7734168Y-4219750D01*
X6056822Y-4229359D02*
X6042796Y-4229359D01*
X6450974Y-4237228D02*
X6455947Y-4233905D01*
X7936090Y-4420198D02*
X7935885Y-4420169D01*
X6110345Y-3879841D02*
X6102094Y-3893267D01*
X7995126Y-4413757D02*
X7994899Y-4413842D01*
X7535709Y-4372244D02*
X7521180Y-4378263D01*
X6435418Y-4292600D02*
X6435418Y-4308518D01*
X7045409Y-4307572D02*
X7048145Y-4321327D01*
X6113527Y-4219188D02*
X6129445Y-4219188D01*
X7014635Y-3174384D02*
X7033902Y-3172894D01*
X6664409Y-4293546D02*
X6664409Y-4307572D01*
X6849909Y-4240385D02*
X6842622Y-4245254D01*
X8022508Y-4405483D02*
X8022324Y-4405591D01*
X7753223Y-3753542D02*
X7766952Y-3758706D01*
X8022717Y-4405437D02*
X8022508Y-4405483D01*
X6816397Y-4262282D02*
X6825241Y-4249046D01*
X6331038Y-4378263D02*
X6316509Y-4372244D01*
X7536662Y-3817795D02*
X7539270Y-3829904D01*
X8035264Y-4399843D02*
X8035069Y-4399980D01*
X6026334Y-3642286D02*
X6048417Y-3644074D01*
X6819768Y-4219750D02*
X6835380Y-4222855D01*
X6816809Y-4293546D02*
X6816809Y-4307572D01*
X6895745Y-4279791D02*
X6893009Y-4293546D01*
X5928806Y-3739878D02*
X5927776Y-3723835D01*
X8047093Y-4393277D02*
X8035490Y-4399770D01*
X8127609Y-3993688D02*
X8127609Y-3944959D01*
X6735609Y-4273358D02*
X6740197Y-4262282D01*
X6074752Y-3827933D02*
X6070247Y-3821829D01*
X5929524Y-3704646D02*
X5934476Y-3688668D01*
X6992070Y-3228374D02*
X6983471Y-3240630D01*
X8047533Y-4393000D02*
X8047293Y-4393106D01*
X7823973Y-2951718D02*
X7825098Y-2946675D01*
X8058740Y-4385059D02*
X8058495Y-4385203D01*
X8022324Y-4405591D02*
X8009312Y-4410070D01*
X7098806Y-3434032D02*
X7085271Y-3443642D01*
X8068580Y-4376310D02*
X8058740Y-4385059D01*
X6076935Y-3441731D02*
X6060740Y-3448048D01*
X8008906Y-4356359D02*
X8008906Y-4356359D01*
X6073385Y-3691762D02*
X6057930Y-3684698D01*
X8068762Y-4376070D02*
X8068580Y-4376310D01*
X7026977Y-4249046D02*
X7035821Y-4262282D01*
X7164715Y-4222293D02*
X7180327Y-4219188D01*
X7459509Y-4228874D02*
X7474038Y-4222855D01*
X6707160Y-4365841D02*
X6714841Y-4369023D01*
X6565583Y-4266271D02*
X6557791Y-4254609D01*
X7426409Y-4293546D02*
X7426409Y-4307572D01*
X6523255Y-4231533D02*
X6509499Y-4228797D01*
X7416821Y-4338836D02*
X7407977Y-4352072D01*
X7501629Y-3846277D02*
X7501629Y-3846072D01*
X8229137Y-4319681D02*
X8085449Y-4355603D01*
X6324493Y-3392546D02*
X6303565Y-3453469D01*
X8229143Y-4319678D02*
X8229137Y-4319681D01*
X7959605Y-3939959D02*
X7959605Y-3939959D01*
X8238449Y-4315175D02*
X8234026Y-4317908D01*
X7480901Y-3684698D02*
X7465022Y-3680380D01*
X7837513Y-3649452D02*
X7858356Y-3658363D01*
X8313407Y-4228544D02*
X8313407Y-4228545D01*
X5925858Y-4235277D02*
X5918177Y-4232095D01*
X8313407Y-4228545D02*
X8242221Y-4311595D01*
X8047293Y-4393106D02*
X8047093Y-4393277D01*
X6050406Y-3883698D02*
X6062041Y-3877787D01*
X6933396Y-4245254D02*
X6926109Y-4240385D01*
X6971945Y-4321327D02*
X6977312Y-4334285D01*
X8314054Y-4227758D02*
X8313407Y-4228544D01*
X8099073Y-3993706D02*
X8099076Y-3993704D01*
X8127609Y-3944959D02*
X8127609Y-3208359D01*
X8315250Y-4226112D02*
X8315250Y-4226112D01*
X7874979Y-4416663D02*
X7874850Y-4416625D01*
X6901112Y-4334285D02*
X6908904Y-4345946D01*
X6021360Y-4365841D02*
X6029041Y-4369023D01*
X5931786Y-3453469D02*
X5931786Y-3416414D01*
X8363860Y-4153197D02*
X8315250Y-4226112D01*
X8079933Y-2832359D02*
X8079308Y-2832359D01*
X8242221Y-4311595D02*
X8242220Y-4311596D01*
X8085448Y-4355603D02*
X8084879Y-4355721D01*
X6026238Y-4222855D02*
X6041850Y-4219750D01*
X5998296Y-4237791D02*
X6002058Y-4235277D01*
X8363860Y-4153196D02*
X8363860Y-4153197D01*
X7903960Y-3965834D02*
X7909610Y-3961973D01*
X8136746Y-3184823D02*
X8137603Y-3191344D01*
X7834447Y-4219634D02*
X7834446Y-4219634D01*
X6359197Y-4338836D02*
X6354609Y-4327760D01*
X6968992Y-3434033D02*
X6957685Y-3422176D01*
X8366813Y-4147159D02*
X8366009Y-4149256D01*
X8234026Y-4317908D02*
X8229143Y-4319678D01*
X7733820Y-3722692D02*
X7734941Y-3732735D01*
X6025122Y-4363327D02*
X6021360Y-4365841D01*
X6071330Y-3869200D02*
X6076773Y-3858891D01*
X7861264Y-4308514D02*
X7854339Y-4304942D01*
X6969209Y-4307572D02*
X6971945Y-4321327D01*
X6959621Y-4262282D02*
X6964209Y-4273358D01*
X6226896Y-4363327D02*
X6215641Y-4352072D01*
X8137228Y-3997672D02*
X8136144Y-3999295D01*
X5948922Y-4363327D02*
X5945160Y-4365841D01*
X6773709Y-4240385D02*
X6766422Y-4245254D01*
X8366813Y-3031559D02*
X8390310Y-3102050D01*
X6818822Y-4229359D02*
X6804796Y-4229359D01*
X6672841Y-4352072D02*
X6663997Y-4338836D01*
X7320522Y-4363327D02*
X7316760Y-4365841D01*
X6421677Y-4292984D02*
X6421677Y-4292038D01*
X6409914Y-4255172D02*
X6399996Y-4245254D01*
X8391609Y-4068662D02*
X8391609Y-4068662D01*
X6133745Y-4321327D02*
X6139112Y-4334285D01*
X7196245Y-4219188D02*
X7211858Y-4222293D01*
X7351777Y-3739878D02*
X7350747Y-3723835D01*
X8127607Y-3191374D02*
X8127608Y-3189358D01*
X7591691Y-3645152D02*
X7630656Y-3645152D01*
X8363860Y-3025522D02*
X8365022Y-3027444D01*
X7392960Y-4235277D02*
X7396722Y-4237791D01*
X8363860Y-3025521D02*
X8363860Y-3025521D01*
X8365022Y-3027444D02*
X8366009Y-3029462D01*
X8363859Y-3025521D02*
X8363860Y-3025521D01*
X8366813Y-3031559D02*
X8366813Y-3031559D01*
X8314053Y-2950959D02*
X8314668Y-2951771D01*
X7680822Y-4245254D02*
X7670904Y-4255172D01*
X7734326Y-3654744D02*
X7750494Y-3648097D01*
X8314668Y-2951771D02*
X8315250Y-2952606D01*
X7809504Y-3680380D02*
X7793788Y-3678966D01*
X8026219Y-3228760D02*
X8027398Y-3228759D01*
X6118147Y-3232161D02*
X6123539Y-3251787D01*
X8313407Y-2950173D02*
X8313407Y-2950174D01*
X7909625Y-3216757D02*
X7909625Y-3216757D01*
X7896697Y-3977332D02*
X7896697Y-3977331D01*
X7951903Y-3237558D02*
X7948294Y-3236089D01*
X8381608Y-3110055D02*
X8381609Y-3109233D01*
X8226712Y-2868739D02*
X8083023Y-2832816D01*
X7019641Y-4232095D02*
X7011960Y-4235277D01*
X6362568Y-4219750D02*
X6378180Y-4222855D01*
X6628596Y-4355864D02*
X6638514Y-4345946D01*
X7033902Y-3172894D02*
X7053168Y-3174384D01*
X8315250Y-4226112D02*
X8314668Y-4226947D01*
X6406122Y-4363327D02*
X6402360Y-4365841D01*
X7914098Y-3970905D02*
X7914098Y-3970905D01*
X7959606Y-3238759D02*
X7959605Y-3238759D01*
X7903960Y-3212883D02*
X7899544Y-3207630D01*
X7769576Y-4395426D02*
X7724730Y-4381535D01*
X6156822Y-4245254D02*
X6146904Y-4255172D01*
X8313406Y-2950173D02*
X8313407Y-2950173D01*
X7828242Y-3814642D02*
X7815642Y-3809324D01*
X5905368Y-4381368D02*
X5889450Y-4381368D01*
X7857952Y-3904726D02*
X7844218Y-3913420D01*
X7340621Y-4262282D02*
X7345209Y-4273358D01*
X7493021Y-4262282D02*
X7497609Y-4273358D01*
X7019514Y-4345946D02*
X7027306Y-4334285D01*
X6760296Y-4237791D02*
X6764058Y-4235277D01*
X8242221Y-2867123D02*
X8313406Y-2950173D01*
X8363860Y-3025521D02*
X8363860Y-3025521D01*
X8363860Y-4153196D02*
X8363860Y-4153196D01*
X7956077Y-3228393D02*
X7958421Y-3228758D01*
X7764486Y-4228947D02*
X7777722Y-4237791D01*
X6883421Y-4262282D02*
X6888009Y-4273358D01*
X7573809Y-4273358D02*
X7578397Y-4262282D01*
X5892800Y-4308518D02*
X5892800Y-4293546D01*
X8229137Y-2859037D02*
X8229138Y-2859037D01*
X7642889Y-3453469D02*
X7483391Y-3453469D01*
X6316509Y-4240385D02*
X6309222Y-4245254D01*
X6392709Y-4360733D02*
X6399996Y-4355864D01*
X6301980Y-4222855D02*
X6316509Y-4228874D01*
X8074991Y-3206180D02*
X8077560Y-3204110D01*
X8085448Y-2823115D02*
X8229137Y-2859037D01*
X6874577Y-4352072D02*
X6863322Y-4363327D01*
X6956250Y-4219750D02*
X6972168Y-4219750D01*
X7429368Y-4219750D02*
X7444980Y-4222855D01*
X6964209Y-4327760D02*
X6959621Y-4338836D01*
X6988896Y-4237791D02*
X6992658Y-4235277D01*
X8315250Y-2952606D02*
X8363859Y-3025521D01*
X5959755Y-3917093D02*
X5943711Y-3910441D01*
X6591168Y-4219750D02*
X6606780Y-4222855D01*
X7229068Y-4230058D02*
X7230732Y-4228947D01*
X7959605Y-3939959D02*
X7959606Y-3939959D01*
X6282997Y-4338836D02*
X6278409Y-4327760D01*
X8081373Y-2822443D02*
X8083425Y-2822696D01*
X7307109Y-4360733D02*
X7314396Y-4355864D01*
X5825797Y-4262282D02*
X5834641Y-4249046D01*
X5965650Y-4219750D02*
X5981568Y-4219750D01*
X8315250Y-2952606D02*
X8315250Y-2952606D01*
X7449858Y-4235277D02*
X7442177Y-4232095D01*
X8363860Y-3025521D02*
X8363860Y-3025522D01*
X6780996Y-4245254D02*
X6773709Y-4240385D01*
X8079308Y-2822359D02*
X8081373Y-2822443D01*
X8390310Y-3102050D02*
X8390310Y-3102050D01*
X7532662Y-3808079D02*
X7536662Y-3817795D01*
X6166874Y-4355301D02*
X6176791Y-4345384D01*
X7197809Y-4307572D02*
X7200545Y-4321327D01*
X8229138Y-2859037D02*
X8234026Y-2860809D01*
X8134217Y-3178716D02*
X8136746Y-3184823D01*
X7959607Y-3949959D02*
X7959606Y-3949959D01*
X8390310Y-4076668D02*
X8366813Y-4147158D01*
X6575250Y-4381368D02*
X6559638Y-4378263D01*
M02*
