<?xml version="1.0"?>
<!DOCTYPE svg PUBLIC "-//W3C//DTD SVG 1.1//EN" "http://www.w3.org/Graphics/SVG/1.1/DTD/svg11.dtd">
<svg width="72.54240000000001mm" height="129.9464mm" viewBox="0 0 72.54240000000001 129.9464" xmlns="http://www.w3.org/2000/svg" version="1.1">
<g id="Faceplate_10" transform="translate(-34.848728,-24.688710) scale(1,-1)">
<path id="Faceplate_10_f0000"  d="M 52.3965 -149.437145 L 52.940785 -149.437145 L 52.97795 -149.440805 L 53.025979 -149.457256 A 0.789428 0.789428 0 0 0 53.5466 -149.978L 53.563054 -150.025908 L 53.566714 -150.063073 L 53.563717 -150.311217 L 53.448081 -150.6676 L 53.425752 -150.713195 L 53.402061 -150.742063 L 52.420979 -151.723145 L 53.376214 -151.723145 A 0.1905 0.1905 0 1 0 53.3762 -152.104L 51.961071 -152.104145 A 0.1905 0.1905 0 0 0 51.8264 -151.779L 53.100854 -150.504453 L 53.185714 -150.249875 L 53.185714 -150.108043 A 0.405686 0.405686 0 0 1 52.8958 -149.818L 52.44147 -149.818145 L 52.291629 -149.893065 L 52.175764 -150.003754 A 0.1905 0.1905 0 0 0 51.9115 -149.74L 52.044081 -149.601798 L 52.093591 -149.566113 L 52.311307 -149.457256 L 52.359335 -149.440805 L 52.3965 -149.437145 Z " stroke="#000000" stroke-width="0.35 px" style="stroke-width:0.35;stroke-miterlimit:4;stroke-dasharray:none;stroke-linecap:square;fill:url(#shape color);fill-opacity:1;fill-rule: evenodd"/>
<path id="Faceplate_10_f0001"  d="M 54.791357 -149.437145 L 55.009071 -149.437145 L 55.046236 -149.440805 L 55.094265 -149.457257 L 55.337851 -149.582399 L 55.489743 -149.734289 L 55.622313 -149.997281 A 2.2212 2.2212 0 0 0 55.6223 -151.544L 55.489742 -151.807 L 55.337851 -151.95889 L 55.094265 -152.084033 L 55.046236 -152.100485 L 55.009071 -152.104145 L 54.791357 -152.104145 L 54.741041 -152.097381 L 54.706163 -152.084034 L 54.462572 -151.958887 L 54.310682 -151.806996 L 54.1781 -151.543968 A 2.22119 2.22119 0 0 0 54.1781 -149.997L 54.310684 -149.734289 L 54.462574 -149.5824 L 54.706163 -149.457256 L 54.754192 -149.440805 L 54.791357 -149.437145 Z M 54.621349 -149.958201 L 54.686486 -149.893065 A 0.321488 0.321488 0 0 0 55.1139 -149.893L 55.17908 -149.958204 L 55.264759 -150.129563 A 1.84541 1.84541 0 0 0 55.2648 -151.412L 55.17908 -151.583084 L 55.11394 -151.648224 A 0.321483 0.321483 0 0 0 54.6865 -151.648L 54.621348 -151.583085 L 54.535668 -151.411726 A 1.84544 1.84544 0 0 0 54.5357 -150.13L 54.621349 -149.958201 Z " stroke="#000000" stroke-width="0.35 px" style="stroke-width:0.35;stroke-miterlimit:4;stroke-dasharray:none;stroke-linecap:square;fill:url(#shape color);fill-opacity:1;fill-rule: evenodd"/>
<path id="Faceplate_10_f0002"  d="M 56.9685 -149.437145 L 57.186214 -149.437145 L 57.223379 -149.440805 L 57.271408 -149.457257 L 57.514994 -149.582399 L 57.666886 -149.734289 L 57.799456 -149.997281 A 2.2212 2.2212 0 0 0 57.7995 -151.544L 57.666885 -151.807 L 57.514994 -151.95889 L 57.271408 -152.084033 L 57.223379 -152.100485 L 57.186214 -152.104145 L 56.9685 -152.104145 L 56.918184 -152.097381 L 56.883306 -152.084034 L 56.639715 -151.958887 L 56.487825 -151.806996 L 56.355243 -151.543968 A 2.22119 2.22119 0 0 0 56.3552 -149.997L 56.487827 -149.734289 L 56.639717 -149.5824 L 56.883306 -149.457256 L 56.931335 -149.440805 L 56.9685 -149.437145 Z M 56.798492 -149.958201 L 56.863629 -149.893065 A 0.321488 0.321488 0 0 0 57.2911 -149.893L 57.356223 -149.958204 L 57.441902 -150.129563 A 1.84541 1.84541 0 0 0 57.4419 -151.412L 57.356223 -151.583084 L 57.291083 -151.648224 A 0.321483 0.321483 0 0 0 56.8636 -151.648L 56.798491 -151.583085 L 56.712811 -151.411726 A 1.84544 1.84544 0 0 0 56.7128 -150.13L 56.798492 -149.958201 Z " stroke="#000000" stroke-width="0.35 px" style="stroke-width:0.35;stroke-miterlimit:4;stroke-dasharray:none;stroke-linecap:square;fill:url(#shape color);fill-opacity:1;fill-rule: evenodd"/>
<path id="Faceplate_10_f0003"  d="M 60.693307 -149.457256 L 60.741335 -149.440805 L 60.7785 -149.437145 L 61.341589 -149.438996 L 61.383026 -149.446921 L 61.709598 -149.555778 A 0.1905 0.1905 0 1 0 61.5891 -149.917L 61.291872 -149.818145 L 60.82347 -149.818145 A 0.405683 0.405683 0 0 1 60.5336 -150.108L 60.533571 -150.235817 L 60.608491 -150.385657 L 60.673629 -150.450795 L 60.844989 -150.536475 L 61.279719 -150.647259 L 61.542712 -150.779829 L 61.694601 -150.931719 L 61.819746 -151.175308 L 61.836197 -151.223337 L 61.839857 -151.260502 L 61.839857 -151.478216 L 61.833093 -151.528532 L 61.819746 -151.56341 A 0.789434 0.789434 0 0 0 61.2991 -152.084L 61.251093 -152.100485 L 61.213928 -152.104145 L 60.639213 -152.101148 L 60.28283 -151.985512 A 0.1905 0.1905 0 1 0 60.4033 -151.624L 60.700556 -151.723145 L 61.168956 -151.723145 A 0.405689 0.405689 0 0 1 61.4589 -151.433L 61.458857 -151.305472 L 61.383936 -151.155631 L 61.318799 -151.090494 L 61.147435 -151.004812 L 60.712723 -150.894035 L 60.449716 -150.761459 L 60.297825 -150.609568 L 60.172683 -150.365982 L 60.156231 -150.317953 L 60.152571 -150.280788 L 60.152571 -150.063073 L 60.159336 -150.012757 L 60.172683 -149.977879 A 0.789416 0.789416 0 0 0 60.6933 -149.457Z " stroke="#000000" stroke-width="0.35 px" style="stroke-width:0.35;stroke-miterlimit:4;stroke-dasharray:none;stroke-linecap:square;fill:url(#shape color);fill-opacity:1;fill-rule: evenodd"/>
<path id="Faceplate_10_f0004"  d="M 62.629071 -149.437145 L 63.717643 -149.437145 A 0.1905 0.1905 0 1 0 63.7176 -149.818L 62.819571 -149.818145 L 62.819571 -150.525716 L 63.391071 -150.525716 A 0.1905 0.1905 0 1 0 63.3911 -150.907L 62.819571 -150.906716 L 62.819571 -151.723145 L 63.717643 -151.723145 A 0.1905 0.1905 0 1 0 63.7176 -152.104L 62.629071 -152.104145 A 0.1905 0.1905 0 0 0 62.4386 -151.914L 62.438571 -149.627645 A 0.1905 0.1905 0 0 0 62.6291 -149.437Z " stroke="#000000" stroke-width="0.35 px" style="stroke-width:0.35;stroke-miterlimit:4;stroke-dasharray:none;stroke-linecap:square;fill:url(#shape color);fill-opacity:1;fill-rule: evenodd"/>
<path id="Faceplate_10_f0005"  d="M 68.071928 -149.437145 L 69.1605 -149.437145 A 0.1905 0.1905 0 1 0 69.1605 -149.818L 68.262428 -149.818145 L 68.262428 -150.525716 L 68.833928 -150.525716 A 0.1905 0.1905 0 1 0 68.8339 -150.907L 68.262428 -150.906716 L 68.262428 -151.723145 L 69.1605 -151.723145 A 0.1905 0.1905 0 1 0 69.1605 -152.104L 68.071928 -152.104145 A 0.1905 0.1905 0 0 0 67.8814 -151.914L 67.881428 -149.627645 A 0.1905 0.1905 0 0 0 68.0719 -149.437Z " stroke="#000000" stroke-width="0.35 px" style="stroke-width:0.35;stroke-miterlimit:4;stroke-dasharray:none;stroke-linecap:square;fill:url(#shape color);fill-opacity:1;fill-rule: evenodd"/>
<path id="Faceplate_10_f0006"  d="M 70.381593 -149.457256 L 70.429621 -149.440805 L 70.466786 -149.437145 L 71.029875 -149.438996 L 71.071312 -149.446921 L 71.397884 -149.555778 A 0.1905 0.1905 0 1 0 71.2774 -149.917L 70.980158 -149.818145 L 70.511756 -149.818145 A 0.405683 0.405683 0 0 1 70.2219 -150.108L 70.221857 -150.235817 L 70.296777 -150.385657 L 70.361915 -150.450795 L 70.533275 -150.536475 L 70.968005 -150.647259 L 71.230998 -150.779829 L 71.382887 -150.931719 L 71.508032 -151.175308 L 71.524483 -151.223337 L 71.528143 -151.260502 L 71.528143 -151.478216 L 71.521379 -151.528532 L 71.508032 -151.56341 A 0.789434 0.789434 0 0 0 70.9874 -152.084L 70.939379 -152.100485 L 70.902214 -152.104145 L 70.327499 -152.101148 L 69.971116 -151.985512 A 0.1905 0.1905 0 1 0 70.0916 -151.624L 70.388842 -151.723145 L 70.857242 -151.723145 A 0.405689 0.405689 0 0 1 71.1471 -151.433L 71.147143 -151.305472 L 71.072222 -151.155631 L 71.007085 -151.090494 L 70.835721 -151.004812 L 70.401009 -150.894035 L 70.138002 -150.761459 L 69.986111 -150.609568 L 69.860969 -150.365982 L 69.844517 -150.317953 L 69.840857 -150.280788 L 69.840857 -150.063073 L 69.847622 -150.012757 L 69.860969 -149.977879 A 0.789416 0.789416 0 0 0 70.3816 -149.457Z " stroke="#000000" stroke-width="0.35 px" style="stroke-width:0.35;stroke-miterlimit:4;stroke-dasharray:none;stroke-linecap:square;fill:url(#shape color);fill-opacity:1;fill-rule: evenodd"/>
<path id="Faceplate_10_f0007"  d="M 77.433643 -151.723145 A 0.1905 0.1905 0 1 0 77.4336 -152.104L 76.345071 -152.104145 A 0.1905 0.1905 0 0 0 76.1546 -151.914L 76.154571 -149.627645 A 0.1905 0.1905 0 1 0 76.5356 -149.628L 76.535571 -151.723145 L 77.433643 -151.723145 Z " stroke="#000000" stroke-width="0.35 px" style="stroke-width:0.35;stroke-miterlimit:4;stroke-dasharray:none;stroke-linecap:square;fill:url(#shape color);fill-opacity:1;fill-rule: evenodd"/>
<path id="Faceplate_10_f0008"  d="M 84.291643 -149.437145 L 84.727071 -149.437145 L 84.764236 -149.440805 L 84.812265 -149.457256 L 85.055853 -149.5824 L 85.297204 -149.819512 L 85.320895 -149.84838 L 85.347312 -149.908013 A 2.67356 2.67356 0 0 0 85.3473 -151.633L 85.334748 -151.668444 L 85.297204 -151.721776 L 85.055856 -151.958887 L 84.812265 -152.084034 L 84.764236 -152.100485 L 84.727071 -152.104145 L 84.291643 -152.104145 L 84.241327 -152.097381 L 84.206449 -152.084034 L 83.962858 -151.958887 L 83.72151 -151.721777 L 83.697819 -151.692909 L 83.671402 -151.633276 A 2.67354 2.67354 0 0 0 83.6714 -149.908L 83.683966 -149.872845 L 83.72151 -149.819512 L 83.962858 -149.582402 L 84.206449 -149.457256 L 84.254478 -149.440805 L 84.291643 -149.437145 Z M 84.028228 -150.051609 L 84.186774 -149.893064 A 0.560096 0.560096 0 0 0 84.8319 -149.893L 84.990485 -150.051609 A 2.22723 2.22723 0 0 0 84.9905 -151.49L 84.831941 -151.648224 A 0.560089 0.560089 0 0 0 84.1868 -151.648L 84.028228 -151.489679 A 2.22725 2.22725 0 0 0 84.0282 -150.052Z " stroke="#000000" stroke-width="0.35 px" style="stroke-width:0.35;stroke-miterlimit:4;stroke-dasharray:none;stroke-linecap:square;fill:url(#shape color);fill-opacity:1;fill-rule: evenodd"/>
<path id="Faceplate_10_f0009"  d="M 64.697357 -149.437145 L 65.568214 -149.437145 L 65.605379 -149.440805 L 65.653408 -149.457256 A 0.789428 0.789428 0 0 0 66.174 -149.978L 66.190483 -150.025908 L 66.194143 -150.063073 L 66.194143 -150.389645 L 66.187379 -150.439961 L 66.174032 -150.474839 A 0.789436 0.789436 0 0 0 65.6534 -150.995L 65.604993 -151.011951 L 66.159707 -151.8044 A 0.1905 0.1905 0 0 0 65.8476 -152.023L 65.142458 -151.015573 L 64.887857 -151.015573 L 64.887857 -151.913645 A 0.1905 0.1905 0 1 0 64.5069 -151.914L 64.506857 -149.627645 A 0.1905 0.1905 0 0 0 64.6974 -149.437Z M 64.887857 -149.818145 L 65.523242 -149.818145 A 0.405686 0.405686 0 0 0 65.8131 -150.108L 65.813143 -150.344674 A 0.405689 0.405689 0 0 0 65.5232 -150.635L 64.887857 -150.634573 L 64.887857 -149.818145 Z " stroke="#000000" stroke-width="0.35 px" style="stroke-width:0.35;stroke-miterlimit:4;stroke-dasharray:none;stroke-linecap:square;fill:url(#shape color);fill-opacity:1;fill-rule: evenodd"/>
<path id="Faceplate_10_f0010"  d="M 86.251071 -149.437145 L 87.121928 -149.437145 L 87.159093 -149.440805 L 87.207122 -149.457256 A 0.789428 0.789428 0 0 0 87.7277 -149.978L 87.744197 -150.025908 L 87.747857 -150.063073 L 87.747857 -150.389645 L 87.741093 -150.439961 L 87.727746 -150.474839 A 0.789436 0.789436 0 0 0 87.2071 -150.995L 87.158707 -151.011951 L 87.713421 -151.8044 A 0.1905 0.1905 0 0 0 87.4013 -152.023L 86.696172 -151.015573 L 86.441571 -151.015573 L 86.441571 -151.913645 A 0.1905 0.1905 0 1 0 86.0606 -151.914L 86.060571 -149.627645 A 0.1905 0.1905 0 0 0 86.2511 -149.437Z M 86.441571 -149.818145 L 87.076956 -149.818145 A 0.405686 0.405686 0 0 0 87.3669 -150.108L 87.366857 -150.344674 A 0.405689 0.405689 0 0 0 87.077 -150.635L 86.441571 -150.634573 L 86.441571 -149.818145 Z " stroke="#000000" stroke-width="0.35 px" style="stroke-width:0.35;stroke-miterlimit:4;stroke-dasharray:none;stroke-linecap:square;fill:url(#shape color);fill-opacity:1;fill-rule: evenodd"/>
<path id="Faceplate_10_f0011"  d="M 78.654897 -149.43864 L 78.667812 -149.442945 L 78.681387 -149.44391 A 0.1905 0.1905 0 0 0 78.8118 -149.567L 79.573795 -151.853404 A 0.1905 0.1905 0 1 0 79.2123 -151.974L 79.038052 -151.451002 L 78.22409 -151.451002 L 78.049795 -151.973886 A 0.1905 0.1905 0 1 0 77.6883 -151.853L 78.450347 -149.567403 A 0.190501 0.190501 0 0 0 78.6549 -149.439Z M 78.63107 -150.230058 L 78.911052 -151.070002 L 78.35109 -151.070002 L 78.63107 -150.230058 Z " stroke="#000000" stroke-width="0.35 px" style="stroke-width:0.35;stroke-miterlimit:4;stroke-dasharray:none;stroke-linecap:square;fill:url(#shape color);fill-opacity:1;fill-rule: evenodd"/>
<path id="Faceplate_10_f0012"  d="M 66.792857 -151.913645 L 66.792857 -149.627645 A 0.1905 0.1905 0 1 0 67.1739 -149.628L 67.173857 -151.913645 A 0.1905 0.1905 0 1 0 66.7929 -151.914Z " stroke="#000000" stroke-width="0.35 px" style="stroke-width:0.35;stroke-miterlimit:4;stroke-dasharray:none;stroke-linecap:square;fill:url(#shape color);fill-opacity:1;fill-rule: evenodd"/>
<path id="Faceplate_10_f0013"  d="M 74.059071 -149.437145 L 74.929928 -149.437145 L 74.967093 -149.440805 L 75.015122 -149.457256 A 0.789428 0.789428 0 0 0 75.5357 -149.978L 75.552197 -150.025908 L 75.555857 -150.063073 L 75.555857 -150.389645 L 75.549093 -150.439961 L 75.535746 -150.474839 A 0.789436 0.789436 0 0 0 75.0151 -150.995L 74.967093 -151.011913 L 74.929928 -151.015573 L 74.249571 -151.015573 L 74.249571 -151.913645 A 0.1905 0.1905 0 1 0 73.8686 -151.914L 73.868571 -149.627645 A 0.1905 0.1905 0 0 0 74.0591 -149.437Z M 74.249571 -149.818145 L 74.884956 -149.818145 A 0.405686 0.405686 0 0 0 75.1749 -150.108L 75.174857 -150.344674 A 0.405689 0.405689 0 0 0 74.885 -150.635L 74.249571 -150.634573 L 74.249571 -149.818145 Z " stroke="#000000" stroke-width="0.35 px" style="stroke-width:0.35;stroke-miterlimit:4;stroke-dasharray:none;stroke-linecap:square;fill:url(#shape color);fill-opacity:1;fill-rule: evenodd"/>
<path id="Faceplate_10_f0014"  d="M 79.8285 -149.437145 L 81.134786 -149.437145 A 0.1905 0.1905 0 1 0 81.1348 -149.818L 80.672143 -149.818145 L 80.672143 -151.913645 A 0.1905 0.1905 0 1 0 80.2911 -151.914L 80.291143 -149.818145 L 79.8285 -149.818145 A 0.1905 0.1905 0 1 0 79.8285 -149.437Z " stroke="#000000" stroke-width="0.35 px" style="stroke-width:0.35;stroke-miterlimit:4;stroke-dasharray:none;stroke-linecap:square;fill:url(#shape color);fill-opacity:1;fill-rule: evenodd"/>
<path id="Faceplate_10_f0015"  d="M 81.896785 -149.437145 L 82.985357 -149.437145 A 0.1905 0.1905 0 1 0 82.9854 -149.818L 82.087285 -149.818145 L 82.087285 -150.525716 L 82.658785 -150.525716 A 0.1905 0.1905 0 1 0 82.6588 -150.907L 82.087285 -150.906716 L 82.087285 -151.913645 A 0.1905 0.1905 0 1 0 81.7063 -151.914L 81.706285 -149.627645 A 0.1905 0.1905 0 0 0 81.8968 -149.437Z " stroke="#000000" stroke-width="0.35 px" style="stroke-width:0.35;stroke-miterlimit:4;stroke-dasharray:none;stroke-linecap:square;fill:url(#shape color);fill-opacity:1;fill-rule: evenodd"/>
<path id="Faceplate_10_f0016"  d="M 89.962293 -149.464755 L 90.032147 -149.439354 L 90.065168 -149.440805 L 90.106405 -149.442617 A 0.188691 0.188691 0 0 0 90.2492 -149.603L 90.251571 -151.913645 A 0.1905 0.1905 0 1 0 89.8706 -151.914L 89.870571 -150.486336 L 89.458976 -151.362538 A 0.186824 0.186824 0 0 0 89.2701 -151.449L 89.200293 -151.423392 L 89.145476 -151.373192 L 89.126443 -151.341061 L 88.727571 -150.486335 L 88.727571 -151.913645 A 0.1905 0.1905 0 1 0 88.3466 -151.914L 88.34878 -149.598721 A 0.189862 0.189862 0 0 0 88.6972 -149.526L 89.299071 -150.810025 L 89.902676 -149.521809 L 89.962293 -149.464755 Z " stroke="#000000" stroke-width="0.35 px" style="stroke-width:0.35;stroke-miterlimit:4;stroke-dasharray:none;stroke-linecap:square;fill:url(#shape color);fill-opacity:1;fill-rule: evenodd"/>
<path id="Faceplate_10_f0017"  d="M 80.088993 -28.1235 L 80.793003 -28.1235 L 80.878667 -28.134046 L 82.325388 -28.496271 A 0.356223 0.356223 0 0 0 82.4981 -28.6061L 83.235633 -29.470505 L 83.739974 -30.230409 L 83.762925 -30.283882 L 84.008928 -31.030574 L 84.016018 -31.100475 L 84.013273 -40.729631 L 83.997892 -40.798217 L 83.749858 -41.536386 L 83.72173 -41.587347 L 83.209922 -42.350434 L 82.490966 -43.1884 A 0.356282 0.356282 0 0 0 82.3156 -43.2937L 80.909504 -43.645244 L 80.853074 -43.72541 A 1.28304 1.28304 0 0 0 80.5197 -44.0199L 80.391022 -44.091186 L 80.255718 -44.150371 L 80.114829 -44.198427 L 79.9649 -44.23704 L 79.664065 -44.284928 L 79.354175 -44.301924 L 79.041575 -44.2936 L 78.732737 -44.265197 L 78.434278 -44.221764 A 7.7864 7.7864 0 0 0 77.2267 -43.9136L 77.162918 -43.911668 L 76.988036 -43.874923 L 76.881018 -43.830593 L 76.755233 -43.880615 A 0.911563 0.911563 0 0 0 76.226 -43.8749L 76.119018 -43.830593 L 75.993233 -43.880615 A 0.911563 0.911563 0 0 0 75.464 -43.8749L 75.357018 -43.830593 L 75.231233 -43.880615 A 0.911563 0.911563 0 0 0 74.702 -43.8749L 74.595018 -43.830593 L 74.469233 -43.880615 A 0.911563 0.911563 0 0 0 73.94 -43.8749L 73.833018 -43.830593 L 73.707233 -43.880615 A 0.911563 0.911563 0 0 0 73.178 -43.8749L 73.071018 -43.830593 L 72.945233 -43.880615 A 0.904628 0.904628 0 0 0 72.2796 -43.8184L 72.138008 -43.874993 A 0.911558 0.911558 0 0 0 71.6088 -43.8693L 71.531191 -43.837149 L 71.421233 -43.880615 A 0.911563 0.911563 0 0 0 70.892 -43.8749L 70.785018 -43.830593 L 70.659233 -43.880615 A 0.911563 0.911563 0 0 0 70.13 -43.8749L 70.023018 -43.830593 L 69.897233 -43.880615 A 0.911563 0.911563 0 0 0 69.368 -43.8749L 69.261018 -43.830593 L 69.135233 -43.880615 A 0.911563 0.911563 0 0 0 68.606 -43.8749L 68.499018 -43.830593 L 68.373233 -43.880615 A 0.911563 0.911563 0 0 0 67.844 -43.8749L 67.737018 -43.830593 L 67.611233 -43.880615 A 0.911563 0.911563 0 0 0 67.082 -43.8749L 66.975018 -43.830593 L 66.849233 -43.880615 A 0.911563 0.911563 0 0 0 66.32 -43.8749L 66.213018 -43.830593 L 66.087233 -43.880615 A 0.904628 0.904628 0 0 0 65.4216 -43.8184L 65.280008 -43.874993 A 0.911558 0.911558 0 0 0 64.7508 -43.8693L 64.673191 -43.837149 L 64.563233 -43.880615 A 0.911563 0.911563 0 0 0 64.034 -43.8749L 63.927018 -43.830593 L 63.801233 -43.880615 A 0.911563 0.911563 0 0 0 63.272 -43.8749L 63.165018 -43.830593 L 63.039233 -43.880615 A 0.911563 0.911563 0 0 0 62.51 -43.8749L 62.403018 -43.830593 L 62.277233 -43.880615 A 0.904628 0.904628 0 0 0 61.6116 -43.8184L 61.470008 -43.874993 A 0.911558 0.911558 0 0 0 60.9408 -43.8693L 60.863191 -43.837149 L 60.753233 -43.880615 A 0.911563 0.911563 0 0 0 60.224 -43.8749L 60.117018 -43.830593 L 59.991233 -43.880615 A 0.911563 0.911563 0 0 0 59.462 -43.8749L 59.355018 -43.830593 L 59.229233 -43.880615 A 0.911571 0.911571 0 1 0 59.248 -42.1361L 59.355018 -42.180405 L 59.480798 -42.130385 A 0.911604 0.911604 0 0 0 60.01 -42.1361L 60.117018 -42.180405 L 60.242798 -42.130385 A 0.911598 0.911598 0 0 0 60.772 -42.1361L 60.849619 -42.168227 L 60.959573 -42.124763 A 0.904629 0.904629 0 0 0 61.6252 -42.187L 61.766798 -42.130385 A 0.911604 0.911604 0 0 0 62.296 -42.1361L 62.403018 -42.180405 L 62.528798 -42.130385 A 0.911604 0.911604 0 0 0 63.058 -42.1361L 63.165018 -42.180405 L 63.290798 -42.130385 A 0.911604 0.911604 0 0 0 63.82 -42.1361L 63.927018 -42.180405 L 64.052798 -42.130385 A 0.911598 0.911598 0 0 0 64.582 -42.1361L 64.659619 -42.168227 L 64.769573 -42.124763 A 0.904629 0.904629 0 0 0 65.4352 -42.187L 65.576798 -42.130385 A 0.911604 0.911604 0 0 0 66.106 -42.1361L 66.213018 -42.180405 L 66.338798 -42.130385 A 0.911604 0.911604 0 0 0 66.868 -42.1361L 66.975018 -42.180405 L 67.100798 -42.130385 A 0.911604 0.911604 0 0 0 67.63 -42.1361L 67.737018 -42.180405 L 67.862798 -42.130385 A 0.911604 0.911604 0 0 0 68.392 -42.1361L 68.499018 -42.180405 L 68.624798 -42.130385 A 0.911604 0.911604 0 0 0 69.154 -42.1361L 69.261018 -42.180405 L 69.386798 -42.130385 A 0.911604 0.911604 0 0 0 69.916 -42.1361L 70.023018 -42.180405 L 70.148798 -42.130385 A 0.911604 0.911604 0 0 0 70.678 -42.1361L 70.785018 -42.180405 L 70.910798 -42.130385 A 0.911598 0.911598 0 0 0 71.44 -42.1361L 71.517619 -42.168227 L 71.627573 -42.124763 A 0.904629 0.904629 0 0 0 72.2932 -42.187L 72.434798 -42.130385 A 0.911604 0.911604 0 0 0 72.964 -42.1361L 73.071018 -42.180405 L 73.196798 -42.130385 A 0.911604 0.911604 0 0 0 73.726 -42.1361L 73.833018 -42.180405 L 73.958798 -42.130385 A 0.911604 0.911604 0 0 0 74.488 -42.1361L 74.595018 -42.180405 L 74.720798 -42.130385 A 0.911604 0.911604 0 0 0 75.25 -42.1361L 75.357018 -42.180405 L 75.482798 -42.130385 A 0.911604 0.911604 0 0 0 76.012 -42.1361L 76.119018 -42.180405 L 76.244798 -42.130385 A 0.911604 0.911604 0 0 0 76.774 -42.1361L 76.881018 -42.180405 L 77.006798 -42.130385 A 0.911571 0.911571 0 0 0 77.8327 -43.7163L 77.76092 -43.764294 L 78.217948 -43.875335 L 78.487038 -43.926421 L 78.771851 -43.967731 L 79.063954 -43.994394 L 79.355707 -44.001863 L 79.639347 -43.985846 L 79.909832 -43.942049 L 80.033263 -43.909672 L 80.152076 -43.86877 L 80.263333 -43.819624 L 80.366381 -43.761955 L 80.460755 -43.695414 L 80.496651 -43.6635 L 80.045886 -43.660755 L 79.977301 -43.645375 L 78.56673 -43.173925 A 0.353263 0.353263 0 0 0 78.3576 -42.9565L 78.153324 -42.342104 A 0.356418 0.356418 0 0 0 78.1528 -42.1388L 78.875899 -39.731766 A 0.356098 0.356098 0 0 0 79.0515 -39.5301L 79.481262 -39.318873 L 79.549268 -39.30281 L 79.595987 -39.2995 L 80.269782 -39.299799 A 0.356463 0.356463 0 0 0 80.42 -39.3368L 80.833846 -39.544352 A 0.356314 0.356314 0 0 0 80.9825 -39.697L 81.084615 -39.901097 A 0.0542503 0.0542503 0 0 1 81.1394 -39.9212L 81.165646 -39.90574 L 81.176018 -39.895367 L 81.176 -31.906628 L 81.160436 -31.87605 L 81.11311 -31.828724 L 80.977166 -32.099328 A 0.35631 0.35631 0 0 0 80.8245 -32.248L 80.376777 -32.468125 L 80.308768 -32.48419 L 80.262049 -32.4875 L 79.588243 -32.4872 A 0.356649 0.356649 0 0 0 79.438 -32.4502L 79.03973 -32.250026 A 0.356222 0.356222 0 0 0 78.8711 -32.0425L 78.150399 -29.638305 A 0.356115 0.356115 0 0 0 78.1561 -29.435L 78.363593 -28.816212 A 0.35326 0.35326 0 0 0 78.581 -28.6071L 80.019092 -28.13059 L 80.088993 -28.1235 Z M 59.034297 -43.6175 A 0.614961 0.614961 0 1 0 59.0343 -42.3935L 59.058892 -42.398392 L 59.037623 -42.419662 A 0.91157 0.91157 0 0 1 59.0252 -43.5762L 59.058892 -43.612607 L 59.034297 -43.6175 Z M 59.787187 -43.576184 L 59.820892 -43.612607 A 0.3722 0.3722 0 0 0 59.6511 -43.6126L 59.684851 -43.57618 L 59.736018 -43.499604 L 59.787187 -43.576184 Z M 60.477283 -43.530635 L 60.503962 -43.570562 L 60.548182 -43.6175 L 60.437739 -43.6175 L 60.413142 -43.612607 L 60.446851 -43.57618 L 60.477283 -43.530635 Z M 61.997527 -43.462951 L 62.073187 -43.576184 L 62.106892 -43.612607 L 62.082297 -43.6175 L 61.961739 -43.6175 L 61.894731 -43.604171 L 61.925626 -43.570558 L 61.997527 -43.462951 Z M 62.835187 -43.576184 L 62.868892 -43.612607 A 0.3722 0.3722 0 0 0 62.6991 -43.6126L 62.732851 -43.57618 L 62.784018 -43.499604 L 62.835187 -43.576184 Z M 63.597187 -43.576184 L 63.630892 -43.612607 A 0.3722 0.3722 0 0 0 63.4611 -43.6126L 63.494851 -43.57618 L 63.546018 -43.499604 L 63.597187 -43.576184 Z M 64.287283 -43.530635 L 64.313962 -43.570562 L 64.358182 -43.6175 L 64.247739 -43.6175 L 64.223142 -43.612607 L 64.256851 -43.57618 L 64.287283 -43.530635 Z M 65.807527 -43.462951 L 65.883187 -43.576184 L 65.916892 -43.612607 L 65.892297 -43.6175 L 65.771739 -43.6175 L 65.704731 -43.604171 L 65.735626 -43.570558 L 65.807527 -43.462951 Z M 66.645187 -43.576184 L 66.678892 -43.612607 A 0.3722 0.3722 0 0 0 66.5091 -43.6126L 66.542851 -43.57618 L 66.594018 -43.499604 L 66.645187 -43.576184 Z M 67.407187 -43.576184 L 67.440892 -43.612607 A 0.3722 0.3722 0 0 0 67.2711 -43.6126L 67.304851 -43.57618 L 67.356018 -43.499604 L 67.407187 -43.576184 Z M 68.169187 -43.576184 L 68.202892 -43.612607 A 0.3722 0.3722 0 0 0 68.0331 -43.6126L 68.066851 -43.57618 L 68.118018 -43.499604 L 68.169187 -43.576184 Z M 68.931187 -43.576184 L 68.964892 -43.612607 A 0.3722 0.3722 0 0 0 68.7951 -43.6126L 68.828851 -43.57618 L 68.880018 -43.499604 L 68.931187 -43.576184 Z M 69.693187 -43.576184 L 69.726892 -43.612607 A 0.3722 0.3722 0 0 0 69.5571 -43.6126L 69.590851 -43.57618 L 69.642018 -43.499604 L 69.693187 -43.576184 Z M 70.455187 -43.576184 L 70.488892 -43.612607 A 0.3722 0.3722 0 0 0 70.3191 -43.6126L 70.352851 -43.57618 L 70.404018 -43.499604 L 70.455187 -43.576184 Z M 71.145283 -43.530635 L 71.171962 -43.570562 L 71.216182 -43.6175 L 71.105739 -43.6175 L 71.081142 -43.612607 L 71.114851 -43.57618 L 71.145283 -43.530635 Z M 72.665527 -43.462951 L 72.741187 -43.576184 L 72.774892 -43.612607 L 72.750297 -43.6175 L 72.629739 -43.6175 L 72.562731 -43.604171 L 72.593626 -43.570558 L 72.665527 -43.462951 Z M 73.503187 -43.576184 L 73.536892 -43.612607 A 0.3722 0.3722 0 0 0 73.3671 -43.6126L 73.400851 -43.57618 L 73.452018 -43.499604 L 73.503187 -43.576184 Z M 74.265187 -43.576184 L 74.298892 -43.612607 A 0.3722 0.3722 0 0 0 74.1291 -43.6126L 74.162851 -43.57618 L 74.214018 -43.499604 L 74.265187 -43.576184 Z M 75.027187 -43.576184 L 75.060892 -43.612607 A 0.3722 0.3722 0 0 0 74.8911 -43.6126L 74.924851 -43.57618 L 74.976018 -43.499604 L 75.027187 -43.576184 Z M 75.789187 -43.576184 L 75.822892 -43.612607 A 0.3722 0.3722 0 0 0 75.6531 -43.6126L 75.686851 -43.57618 L 75.738018 -43.499604 L 75.789187 -43.576184 Z M 76.551187 -43.576184 L 76.584892 -43.612607 A 0.3722 0.3722 0 0 0 76.4151 -43.6126L 76.448851 -43.57618 L 76.500018 -43.499604 L 76.551187 -43.576184 Z M 77.177142 -42.398392 L 77.201739 -42.3935 A 0.614961 0.614961 0 1 0 77.2017 -43.6175L 77.177142 -43.612607 L 77.198409 -43.59134 A 0.911567 0.911567 0 0 1 77.2109 -42.4348L 77.177142 -42.398392 Z M 61.260018 -43.499604 L 61.311187 -43.576184 L 61.332699 -43.600414 L 61.275072 -43.611878 L 61.175872 -43.611878 L 61.208851 -43.57618 L 61.260018 -43.499604 Z M 65.070018 -43.499604 L 65.121187 -43.576184 L 65.142699 -43.600414 L 65.085072 -43.611878 L 64.985872 -43.611878 L 65.018851 -43.57618 L 65.070018 -43.499604 Z M 71.928018 -43.499604 L 71.979187 -43.576184 L 72.000699 -43.600414 L 71.943072 -43.611878 L 71.843872 -43.611878 L 71.876851 -43.57618 L 71.928018 -43.499604 Z M 60.852198 -42.506109 L 60.888144 -42.530128 A 0.614958 0.614958 0 0 0 60.8881 -43.4809L 60.860611 -43.499267 L 60.824664 -43.475248 A 0.611399 0.611399 0 0 0 60.6271 -43.1803L 60.642187 -43.104599 L 60.644108 -42.92591 L 60.625791 -42.82398 A 0.612772 0.612772 0 0 0 60.8247 -42.5245L 60.852198 -42.506109 Z M 64.662198 -42.506109 L 64.698144 -42.530128 A 0.614958 0.614958 0 0 0 64.6981 -43.4809L 64.670611 -43.499267 L 64.634664 -43.475248 A 0.611399 0.611399 0 0 0 64.4371 -43.1803L 64.452187 -43.104599 L 64.454108 -42.92591 L 64.435791 -42.82398 A 0.612772 0.612772 0 0 0 64.6347 -42.5245L 64.662198 -42.506109 Z M 71.520198 -42.506109 L 71.556144 -42.530128 A 0.614958 0.614958 0 0 0 71.5561 -43.4809L 71.528611 -43.499267 L 71.492664 -43.475248 A 0.611399 0.611399 0 0 0 71.2951 -43.1803L 71.310187 -43.104599 L 71.312108 -42.92591 L 71.293791 -42.82398 A 0.612772 0.612772 0 0 0 71.4927 -42.5245L 71.520198 -42.506109 Z M 59.345889 -42.530129 L 59.355018 -42.52403 A 0.613341 0.613341 0 0 0 59.4494 -43.3956L 59.355017 -43.486969 A 0.613751 0.613751 0 0 0 59.3459 -42.5301Z M 60.107889 -42.530129 L 60.117018 -42.52403 A 0.603657 0.603657 0 0 0 60.3237 -42.825L 60.308624 -42.900778 L 60.306703 -43.079468 L 60.325018 -43.181399 L 60.278364 -43.295391 L 60.211388 -43.395628 L 60.117017 -43.486969 A 0.613751 0.613751 0 0 0 60.1079 -42.5301Z M 62.393889 -42.530129 L 62.403018 -42.52403 A 0.613341 0.613341 0 0 0 62.4974 -43.3956L 62.403017 -43.486969 A 0.613751 0.613751 0 0 0 62.3939 -42.5301Z M 63.155889 -42.530129 L 63.165018 -42.52403 A 0.613341 0.613341 0 0 0 63.2594 -43.3956L 63.165017 -43.486969 A 0.613751 0.613751 0 0 0 63.1559 -42.5301Z M 63.917889 -42.530129 L 63.927018 -42.52403 A 0.603657 0.603657 0 0 0 64.1337 -42.825L 64.118624 -42.900778 L 64.116703 -43.079468 L 64.135018 -43.181399 L 64.088364 -43.295391 L 64.021388 -43.395628 L 63.927017 -43.486969 A 0.613751 0.613751 0 0 0 63.9179 -42.5301Z M 66.203889 -42.530129 L 66.213018 -42.52403 A 0.613341 0.613341 0 0 0 66.3074 -43.3956L 66.213017 -43.486969 A 0.613751 0.613751 0 0 0 66.2039 -42.5301Z M 66.965889 -42.530129 L 66.975018 -42.52403 A 0.613341 0.613341 0 0 0 67.0694 -43.3956L 66.975017 -43.486969 A 0.613751 0.613751 0 0 0 66.9659 -42.5301Z M 67.727889 -42.530129 L 67.737018 -42.52403 A 0.613341 0.613341 0 0 0 67.8314 -43.3956L 67.737017 -43.486969 A 0.613751 0.613751 0 0 0 67.7279 -42.5301Z M 68.489889 -42.530129 L 68.499018 -42.52403 A 0.613341 0.613341 0 0 0 68.5934 -43.3956L 68.499017 -43.486969 A 0.613751 0.613751 0 0 0 68.4899 -42.5301Z M 69.251889 -42.530129 L 69.261018 -42.52403 A 0.613341 0.613341 0 0 0 69.3554 -43.3956L 69.261017 -43.486969 A 0.613751 0.613751 0 0 0 69.2519 -42.5301Z M 70.013889 -42.530129 L 70.023018 -42.52403 A 0.613341 0.613341 0 0 0 70.1174 -43.3956L 70.023017 -43.486969 A 0.613751 0.613751 0 0 0 70.0139 -42.5301Z M 70.775889 -42.530129 L 70.785018 -42.52403 A 0.603657 0.603657 0 0 0 70.9917 -42.825L 70.976624 -42.900778 L 70.974703 -43.079468 L 70.993018 -43.181399 L 70.946364 -43.295391 L 70.879388 -43.395628 L 70.785017 -43.486969 A 0.613751 0.613751 0 0 0 70.7759 -42.5301Z M 73.061889 -42.530129 L 73.071018 -42.52403 A 0.613341 0.613341 0 0 0 73.1654 -43.3956L 73.071017 -43.486969 A 0.613751 0.613751 0 0 0 73.0619 -42.5301Z M 73.823889 -42.530129 L 73.833018 -42.52403 A 0.613341 0.613341 0 0 0 73.9274 -43.3956L 73.833017 -43.486969 A 0.613751 0.613751 0 0 0 73.8239 -42.5301Z M 74.585889 -42.530129 L 74.595018 -42.52403 A 0.613341 0.613341 0 0 0 74.6894 -43.3956L 74.595017 -43.486969 A 0.613751 0.613751 0 0 0 74.5859 -42.5301Z M 75.347889 -42.530129 L 75.357018 -42.52403 A 0.613341 0.613341 0 0 0 75.4514 -43.3956L 75.357017 -43.486969 A 0.613751 0.613751 0 0 0 75.3479 -42.5301Z M 76.109889 -42.530129 L 76.119018 -42.52403 A 0.613341 0.613341 0 0 0 76.2134 -43.3956L 76.119017 -43.486969 A 0.613751 0.613751 0 0 0 76.1099 -42.5301Z M 76.871889 -42.530129 L 76.881018 -42.52403 A 0.613341 0.613341 0 0 0 76.9754 -43.3956L 76.881017 -43.486969 A 0.613751 0.613751 0 0 0 76.8719 -42.5301Z M 61.621216 -42.540802 L 61.690163 -42.609749 A 0.614959 0.614959 0 0 0 61.6902 -43.39L 61.615594 -43.464574 L 61.546646 -43.395626 A 0.61496 0.61496 0 0 0 61.5466 -42.6154L 61.621216 -42.540802 Z M 65.431216 -42.540802 L 65.500163 -42.609749 A 0.614959 0.614959 0 0 0 65.5002 -43.39L 65.425594 -43.464574 L 65.356646 -43.395626 A 0.61496 0.61496 0 0 0 65.3566 -42.6154L 65.431216 -42.540802 Z M 72.289216 -42.540802 L 72.358163 -42.609749 A 0.614959 0.614959 0 0 0 72.3582 -43.39L 72.283594 -43.464574 L 72.214646 -43.395626 A 0.61496 0.61496 0 0 0 72.2146 -42.6154L 72.289216 -42.540802 Z M 80.793003 -28.4235 L 82.258007 -28.790449 L 82.982145 -29.631803 L 83.472104 -30.366046 L 83.713289 -31.083652 L 83.716018 -40.686483 L 83.478322 -41.408244 L 82.986017 -42.150085 L 82.258 -42.996547 L 80.805905 -43.361912 L 80.089035 -43.3635 L 78.66783 -42.89268 L 78.644837 -42.869688 L 78.437682 -42.241099 L 79.160559 -39.823703 L 79.179086 -39.801678 L 79.583753 -39.600762 L 80.274336 -39.600779 L 80.704408 -39.817109 L 80.811773 -40.026421 L 80.872378 -40.111553 L 80.960378 -40.178753 A 0.351876 0.351876 0 0 1 81.3654 -40.1285L 81.432079 -40.06357 L 81.4646 -40.014906 L 81.474097 -39.977009 L 81.476018 -31.913668 A 0.356046 0.356046 0 0 1 81.3812 -31.6738L 81.178084 -31.469434 L 81.146711 -31.44616 A 0.142023 0.142023 0 0 1 81.013 -31.4397L 80.982289 -31.457306 L 80.948299 -31.491824 L 80.704408 -31.96989 L 80.274281 -32.186237 L 79.583753 -32.186223 L 79.179116 -31.985346 L 79.160619 -31.96334 L 78.437665 -29.545896 L 78.644837 -28.917311 L 78.66783 -28.894319 L 80.08889 -28.423508 L 80.793003 -28.4235 Z M 61.961739 -42.3935 L 62.082297 -42.3935 L 62.106892 -42.398392 L 62.085623 -42.419662 L 62.001283 -42.542426 L 61.925626 -42.429197 L 61.90411 -42.404963 L 61.961739 -42.3935 Z M 65.771739 -42.3935 L 65.892297 -42.3935 L 65.916892 -42.398392 L 65.895623 -42.419662 L 65.811283 -42.542426 L 65.735626 -42.429197 L 65.71411 -42.404963 L 65.771739 -42.3935 Z M 72.629739 -42.3935 L 72.750297 -42.3935 L 72.774892 -42.398392 L 72.753623 -42.419662 L 72.669283 -42.542426 L 72.593626 -42.429197 L 72.57211 -42.404963 L 72.629739 -42.3935 Z M 59.684851 -42.434819 L 59.651142 -42.398392 A 0.372273 0.372273 0 0 0 59.8209 -42.3984L 59.799623 -42.419662 L 59.736018 -42.511395 L 59.684851 -42.434819 Z M 61.164628 -42.387878 L 61.275072 -42.387878 L 61.342078 -42.401206 L 61.323623 -42.419662 L 61.260018 -42.511395 L 61.208851 -42.434819 L 61.164628 -42.387878 Z M 62.732851 -42.434819 L 62.699142 -42.398392 A 0.372273 0.372273 0 0 0 62.8689 -42.3984L 62.847623 -42.419662 L 62.784018 -42.511395 L 62.732851 -42.434819 Z M 63.494851 -42.434819 L 63.461142 -42.398392 A 0.372273 0.372273 0 0 0 63.6309 -42.3984L 63.609623 -42.419662 L 63.546018 -42.511395 L 63.494851 -42.434819 Z M 64.974628 -42.387878 L 65.085072 -42.387878 L 65.152078 -42.401206 L 65.133623 -42.419662 L 65.070018 -42.511395 L 65.018851 -42.434819 L 64.974628 -42.387878 Z M 66.542851 -42.434819 L 66.509142 -42.398392 A 0.372273 0.372273 0 0 0 66.6789 -42.3984L 66.657623 -42.419662 L 66.594018 -42.511395 L 66.542851 -42.434819 Z M 67.304851 -42.434819 L 67.271142 -42.398392 A 0.372273 0.372273 0 0 0 67.4409 -42.3984L 67.419623 -42.419662 L 67.356018 -42.511395 L 67.304851 -42.434819 Z M 68.066851 -42.434819 L 68.033142 -42.398392 A 0.372273 0.372273 0 0 0 68.2029 -42.3984L 68.181623 -42.419662 L 68.118018 -42.511395 L 68.066851 -42.434819 Z M 68.828851 -42.434819 L 68.795142 -42.398392 A 0.372273 0.372273 0 0 0 68.9649 -42.3984L 68.943623 -42.419662 L 68.880018 -42.511395 L 68.828851 -42.434819 Z M 69.590851 -42.434819 L 69.557142 -42.398392 A 0.372273 0.372273 0 0 0 69.7269 -42.3984L 69.705623 -42.419662 L 69.642018 -42.511395 L 69.590851 -42.434819 Z M 70.352851 -42.434819 L 70.319142 -42.398392 A 0.372273 0.372273 0 0 0 70.4889 -42.3984L 70.467623 -42.419662 L 70.404018 -42.511395 L 70.352851 -42.434819 Z M 71.832628 -42.387878 L 71.943072 -42.387878 L 72.010078 -42.401206 L 71.991623 -42.419662 L 71.928018 -42.511395 L 71.876851 -42.434819 L 71.832628 -42.387878 Z M 73.400851 -42.434819 L 73.367142 -42.398392 A 0.372273 0.372273 0 0 0 73.5369 -42.3984L 73.515623 -42.419662 L 73.452018 -42.511395 L 73.400851 -42.434819 Z M 74.162851 -42.434819 L 74.129142 -42.398392 A 0.372273 0.372273 0 0 0 74.2989 -42.3984L 74.277623 -42.419662 L 74.214018 -42.511395 L 74.162851 -42.434819 Z M 74.924851 -42.434819 L 74.891142 -42.398392 A 0.372273 0.372273 0 0 0 75.0609 -42.3984L 75.039623 -42.419662 L 74.976018 -42.511395 L 74.924851 -42.434819 Z M 75.686851 -42.434819 L 75.653142 -42.398392 A 0.372273 0.372273 0 0 0 75.8229 -42.3984L 75.801623 -42.419662 L 75.738018 -42.511395 L 75.686851 -42.434819 Z M 76.448851 -42.434819 L 76.415142 -42.398392 A 0.372273 0.372273 0 0 0 76.5849 -42.3984L 76.563623 -42.419662 L 76.500018 -42.511395 L 76.448851 -42.434819 Z M 60.437739 -42.3935 L 60.536938 -42.3935 L 60.516398 -42.41404 L 60.473527 -42.474742 L 60.446851 -42.434819 L 60.413142 -42.398392 L 60.437739 -42.3935 Z M 64.247739 -42.3935 L 64.346938 -42.3935 L 64.326398 -42.41404 L 64.283527 -42.474742 L 64.256851 -42.434819 L 64.223142 -42.398392 L 64.247739 -42.3935 Z M 71.105739 -42.3935 L 71.204938 -42.3935 L 71.184398 -42.41404 L 71.141527 -42.474742 L 71.114851 -42.434819 L 71.081142 -42.398392 L 71.105739 -42.3935 Z " stroke="#000000" stroke-width="0.35 px" style="stroke-width:0.35;stroke-miterlimit:4;stroke-dasharray:none;stroke-linecap:square;fill:url(#shape color);fill-opacity:1;fill-rule: evenodd"/>
<path id="Faceplate_10_f0018"  d="M 60.019751 -36.338346 L 60.26407 -36.323224 L 60.508214 -36.343599 L 60.739839 -36.402478 L 60.961833 -36.498666 L 61.187294 -36.642872 A 0.0977916 0.0977916 0 0 0 61.2081 -36.7544L 60.96372 -37.095426 A 0.0990385 0.0990385 0 0 0 60.8521 -37.1121L 60.685507 -37.005418 L 60.545091 -36.941241 L 60.4027 -36.902516 L 60.262642 -36.889917 L 60.093483 -36.903008 L 59.969326 -36.936755 L 59.8811 -36.984418 L 59.816014 -37.048509 L 59.778639 -37.124074 L 59.764255 -37.22717 L 59.772691 -37.302796 L 59.79299 -37.353817 L 59.823482 -37.391169 L 59.903994 -37.445935 L 60.023905 -37.491037 L 60.652401 -37.639966 L 60.813192 -37.699193 L 60.961206 -37.78209 A 0.694775 0.694775 0 0 0 61.2346 -38.1568L 61.262726 -38.292642 L 61.271959 -38.462678 L 61.249583 -38.671259 A 0.776172 0.776172 0 0 0 60.9584 -39.1317L 60.804118 -39.227191 L 60.620965 -39.297569 L 60.404086 -39.341771 L 60.147628 -39.35706 L 59.938156 -39.346186 L 59.744754 -39.315345 A 1.51805 1.51805 0 0 0 59.227 -39.0988L 59.068963 -38.977192 A 0.100005 0.100005 0 0 0 59.0576 -38.8667L 59.324637 -38.538347 A 0.0989788 0.0989788 0 0 0 59.4372 -38.5286L 59.60679 -38.649554 L 59.772104 -38.727177 L 59.951468 -38.773815 L 60.152943 -38.790089 L 60.335152 -38.776838 L 60.468532 -38.74274 L 60.562662 -38.694923 A 0.266024 0.266024 0 0 1 60.6859 -38.4595L 60.677851 -38.380705 L 60.658373 -38.326948 L 60.630469 -38.289139 L 60.557332 -38.233565 L 60.451051 -38.188711 L 60.162223 -38.12306 L 59.8378 -38.057954 L 59.669671 -38.00552 L 59.512123 -37.927478 A 0.678271 0.678271 0 0 0 59.2185 -37.5474L 59.188196 -37.4051 L 59.178112 -37.227222 L 59.19965 -37.016776 L 59.25847 -36.835919 L 59.352339 -36.681669 L 59.480124 -36.552571 L 59.630626 -36.45486 L 59.80901 -36.383183 L 60.019751 -36.338346 Z M 60.04019 -36.537441 L 60.262466 -36.523034 A 1.29173 1.29173 0 0 0 60.8626 -36.6725L 60.973554 -36.741608 L 60.8697 -36.886554 L 60.788239 -36.833661 L 60.620796 -36.755942 L 60.44668 -36.707213 L 60.272228 -36.689972 L 60.068644 -36.704333 L 59.905727 -36.746786 L 59.768274 -36.818758 L 59.656531 -36.926401 L 59.588729 -37.059083 L 59.564556 -37.211133 L 59.575415 -37.338343 L 59.616715 -37.449546 L 59.682605 -37.533795 L 59.801376 -37.618016 L 59.959705 -37.680569 L 60.58971 -37.829966 L 60.72435 -37.878539 L 60.839478 -37.941121 A 0.497518 0.497518 0 0 0 61.041 -38.2077L 61.063594 -38.312701 L 61.072262 -38.449931 L 61.055936 -38.620075 A 0.574743 0.574743 0 0 0 60.8423 -38.9684L 60.722153 -39.044508 L 60.571852 -39.103509 L 60.384511 -39.142601 L 60.151911 -39.157028 L 59.963762 -39.147761 L 59.792528 -39.121049 A 1.30196 1.30196 0 0 0 59.3418 -38.9348L 59.28933 -38.89566 L 59.406454 -38.751666 L 59.497369 -38.817225 L 59.695478 -38.912148 L 59.909565 -38.969571 L 60.144495 -38.990058 L 60.35854 -38.975667 L 60.528756 -38.933776 L 60.67055 -38.863801 A 0.457933 0.457933 0 0 1 60.8854 -38.4775L 60.875568 -38.348132 L 60.838522 -38.239008 L 60.778455 -38.153937 L 60.668313 -38.066707 L 60.520695 -38.001021 L 60.205249 -37.927739 L 59.891361 -37.865195 L 59.749247 -37.821877 L 59.626686 -37.763181 A 0.48337 0.48337 0 0 0 59.4117 -37.4952L 59.387293 -37.38462 L 59.377916 -37.238537 L 59.393789 -37.065964 L 59.436771 -36.927258 L 59.504516 -36.811985 L 59.59989 -36.713115 L 59.715786 -36.636092 L 59.860231 -36.576712 L 60.04019 -36.537441 Z " stroke="#000000" stroke-width="0.35 px" style="stroke-width:0.35;stroke-miterlimit:4;stroke-dasharray:none;stroke-linecap:square;fill:url(#shape color);fill-opacity:1;fill-rule: evenodd"/>
<path id="Faceplate_10_f0019"  d="M 74.249458 -36.338346 L 74.493778 -36.323224 L 74.737921 -36.343599 L 74.969547 -36.402478 L 75.19154 -36.498666 L 75.417001 -36.642872 A 0.0977916 0.0977916 0 0 0 75.4378 -36.7544L 75.193427 -37.095426 A 0.0990385 0.0990385 0 0 0 75.0818 -37.1121L 74.915214 -37.005418 L 74.774799 -36.941241 L 74.632407 -36.902516 L 74.49235 -36.889917 L 74.32319 -36.903008 L 74.199033 -36.936755 L 74.110807 -36.984418 L 74.045721 -37.048509 L 74.008346 -37.124074 L 73.993963 -37.227171 L 74.002398 -37.302796 L 74.022697 -37.353817 L 74.053188 -37.391168 L 74.133705 -37.445936 L 74.253612 -37.491037 L 74.882108 -37.639966 L 75.042899 -37.699193 L 75.190915 -37.782091 A 0.694798 0.694798 0 0 0 75.4643 -38.1568L 75.492434 -38.292643 L 75.501666 -38.462678 L 75.47929 -38.671259 A 0.776175 0.776175 0 0 0 75.1881 -39.1317L 75.033826 -39.227191 L 74.850673 -39.297569 L 74.633794 -39.341771 L 74.377336 -39.35706 L 74.167864 -39.346186 L 73.97446 -39.315345 A 1.51808 1.51808 0 0 0 73.4567 -39.0988L 73.29867 -38.977192 A 0.100005 0.100005 0 0 0 73.2873 -38.8667L 73.554344 -38.538347 A 0.098978 0.098978 0 0 0 73.6669 -38.5286L 73.836498 -38.649554 L 74.001811 -38.727177 L 74.181175 -38.773815 L 74.382651 -38.790089 L 74.564859 -38.776838 L 74.698239 -38.74274 L 74.792369 -38.694923 A 0.266024 0.266024 0 0 1 74.9156 -38.4595L 74.907558 -38.380703 L 74.888082 -38.326948 L 74.860176 -38.289139 L 74.78704 -38.233565 L 74.680759 -38.188711 L 74.391924 -38.123059 L 74.067507 -38.057954 L 73.899379 -38.00552 L 73.741831 -37.927478 A 0.678266 0.678266 0 0 0 73.4482 -37.5474L 73.417904 -37.405101 L 73.407819 -37.227222 L 73.429357 -37.016776 L 73.488177 -36.835919 L 73.582046 -36.681668 L 73.709832 -36.552571 L 73.860334 -36.45486 L 74.038718 -36.383183 L 74.249458 -36.338346 Z M 74.269898 -36.537441 L 74.492174 -36.523034 A 1.29172 1.29172 0 0 0 75.0923 -36.6725L 75.203261 -36.741608 L 75.099407 -36.886554 L 75.017946 -36.833661 L 74.850504 -36.755942 L 74.676387 -36.707213 L 74.501936 -36.689972 L 74.298351 -36.704333 L 74.135434 -36.746786 L 73.997981 -36.818758 L 73.886238 -36.926401 L 73.818435 -37.059085 L 73.794264 -37.211133 L 73.805122 -37.338343 L 73.846422 -37.449546 L 73.91231 -37.533793 L 74.031085 -37.618016 L 74.189411 -37.680569 L 74.819417 -37.829966 L 74.954057 -37.878539 L 75.069185 -37.941119 A 0.497525 0.497525 0 0 0 75.2707 -38.2077L 75.293302 -38.312701 L 75.301969 -38.449931 L 75.285643 -38.620075 A 0.57474 0.57474 0 0 0 75.072 -38.9684L 74.951861 -39.044508 L 74.80156 -39.103509 L 74.614219 -39.142601 L 74.381619 -39.157028 L 74.19347 -39.147761 L 74.022235 -39.121049 A 1.30196 1.30196 0 0 0 73.5715 -38.9348L 73.519037 -38.89566 L 73.636161 -38.751666 L 73.727077 -38.817225 L 73.925185 -38.912148 L 74.139272 -38.969571 L 74.374203 -38.990058 L 74.588247 -38.975667 L 74.758463 -38.933776 L 74.900257 -38.863801 A 0.457939 0.457939 0 0 1 75.1151 -38.4775L 75.105275 -38.348131 L 75.068229 -38.239007 L 75.008161 -38.153936 L 74.898022 -38.066708 L 74.750403 -38.001021 L 74.434957 -37.927739 L 74.121071 -37.865196 L 73.978955 -37.821877 L 73.856394 -37.763181 A 0.483358 0.483358 0 0 0 73.6414 -37.4952L 73.617001 -37.384621 L 73.607623 -37.238536 L 73.623496 -37.065964 L 73.666478 -36.927258 L 73.734222 -36.811987 L 73.829598 -36.713115 L 73.945494 -36.636092 L 74.089939 -36.576712 L 74.269898 -36.537441 Z " stroke="#000000" stroke-width="0.35 px" style="stroke-width:0.35;stroke-miterlimit:4;stroke-dasharray:none;stroke-linecap:square;fill:url(#shape color);fill-opacity:1;fill-rule: evenodd"/>
<path id="Faceplate_10_f0020"  d="M 77.694287 -36.338346 L 77.938606 -36.323224 L 78.182749 -36.343599 L 78.414375 -36.402478 L 78.636368 -36.498666 L 78.86183 -36.642872 A 0.0977916 0.0977916 0 0 0 78.8826 -36.7544L 78.638256 -37.095426 A 0.0990385 0.0990385 0 0 0 78.5267 -37.1121L 78.360043 -37.005418 L 78.219627 -36.941241 L 78.077236 -36.902516 L 77.937178 -36.889917 L 77.768019 -36.903008 L 77.64386 -36.936755 L 77.555637 -36.984417 L 77.49055 -37.048509 L 77.453175 -37.124074 L 77.438791 -37.22717 L 77.447227 -37.302796 L 77.467526 -37.353816 L 77.498016 -37.391168 L 77.578533 -37.445936 L 77.698441 -37.491037 L 78.326937 -37.639966 L 78.487728 -37.699193 L 78.635742 -37.78209 A 0.694775 0.694775 0 0 0 78.9091 -38.1568L 78.937262 -38.292642 L 78.946495 -38.462678 L 78.924119 -38.671258 A 0.776169 0.776169 0 0 0 78.6329 -39.1317L 78.478654 -39.227191 L 78.295501 -39.297569 L 78.078622 -39.341771 L 77.822164 -39.35706 L 77.612692 -39.346186 L 77.41929 -39.315345 A 1.51805 1.51805 0 0 0 76.9016 -39.0988L 76.743499 -38.977192 A 0.100005 0.100005 0 0 0 76.7321 -38.8667L 76.999173 -38.538347 A 0.0989788 0.0989788 0 0 0 77.1117 -38.5286L 77.281326 -38.649554 L 77.446639 -38.727177 L 77.626003 -38.773815 L 77.827479 -38.790089 L 78.009688 -38.776838 L 78.143066 -38.74274 L 78.2372 -38.694921 A 0.266024 0.266024 0 0 1 78.3604 -38.4595L 78.352387 -38.380705 L 78.332909 -38.326948 L 78.305005 -38.289139 L 78.231868 -38.233565 L 78.125587 -38.188711 L 77.836759 -38.12306 L 77.512336 -38.057954 L 77.344207 -38.00552 L 77.186659 -37.927478 A 0.678271 0.678271 0 0 0 76.893 -37.5474L 76.862732 -37.4051 L 76.852648 -37.227222 L 76.874185 -37.016775 L 76.933006 -36.835919 L 77.026875 -36.681669 L 77.15466 -36.552571 L 77.305162 -36.45486 L 77.483546 -36.383183 L 77.694287 -36.338346 Z M 77.714726 -36.537441 L 77.937002 -36.523034 A 1.29172 1.29172 0 0 0 78.5371 -36.6725L 78.648089 -36.741608 L 78.544236 -36.886554 L 78.462775 -36.833661 L 78.295332 -36.755942 L 78.121216 -36.707213 L 77.946764 -36.689972 L 77.74318 -36.704333 L 77.580262 -36.746786 L 77.442807 -36.818759 L 77.331067 -36.926401 L 77.263265 -37.059083 L 77.239092 -37.211133 L 77.249951 -37.338343 L 77.29125 -37.449543 L 77.357138 -37.533793 L 77.475913 -37.618016 L 77.634241 -37.680569 L 78.264246 -37.829966 L 78.398886 -37.878539 L 78.514014 -37.941121 A 0.497518 0.497518 0 0 0 78.7155 -38.2077L 78.73813 -38.312701 L 78.746798 -38.449931 L 78.730471 -38.620075 A 0.574738 0.574738 0 0 0 78.5168 -38.9684L 78.396689 -39.044508 L 78.246388 -39.103509 L 78.059047 -39.142601 L 77.826447 -39.157028 L 77.638298 -39.147761 L 77.467064 -39.121049 A 1.30196 1.30196 0 0 0 77.0163 -38.9348L 76.963866 -38.89566 L 77.08099 -38.751666 L 77.171905 -38.817225 L 77.370013 -38.912148 L 77.5841 -38.969571 L 77.819031 -38.990058 L 78.033076 -38.975667 L 78.203292 -38.933776 L 78.345082 -38.863803 A 0.457932 0.457932 0 0 1 78.5599 -38.4775L 78.550104 -38.348132 L 78.513058 -38.239008 L 78.452991 -38.153937 L 78.342849 -38.066707 L 78.195231 -38.001021 L 77.879785 -37.927739 L 77.565897 -37.865195 L 77.423783 -37.821877 L 77.301222 -37.763181 A 0.48337 0.48337 0 0 0 77.0863 -37.4952L 77.061829 -37.38462 L 77.052452 -37.238536 L 77.068324 -37.065966 L 77.111307 -36.927258 L 77.179052 -36.811985 L 77.274426 -36.713115 L 77.390322 -36.636092 L 77.534767 -36.576712 L 77.714726 -36.537441 Z " stroke="#000000" stroke-width="0.35 px" style="stroke-width:0.35;stroke-miterlimit:4;stroke-dasharray:none;stroke-linecap:square;fill:url(#shape color);fill-opacity:1;fill-rule: evenodd"/>
<path id="Faceplate_10_f0021"  d="M 61.304744 -36.353355 L 61.768893 -36.35253 L 61.813314 -36.368287 L 61.841892 -36.398263 L 62.365263 -37.475121 L 62.892879 -36.391097 L 62.922039 -36.365172 L 62.961479 -36.352531 L 63.425638 -36.353355 A 0.100001 0.100001 0 0 0 63.5023 -36.4789L 62.660106 -38.123969 L 62.658185 -39.248029 A 0.100003 0.100003 0 0 0 62.5796 -39.3266L 62.150938 -39.326599 A 0.100003 0.100003 0 0 0 62.0724 -39.248L 62.070447 -38.123973 L 61.22809 -36.47887 A 0.100001 0.100001 0 0 0 61.3047 -36.3534Z M 61.69511 -36.551434 L 62.275296 -37.747977 A 0.0999995 0.0999995 0 0 1 62.445 -37.7647L 63.03528 -36.551434 L 63.242402 -36.551434 L 62.47114 -38.054144 L 62.462027 -38.080297 L 62.460106 -39.12852 L 62.270447 -39.12852 L 62.270447 -38.099806 L 62.26661 -38.07237 L 61.487995 -36.551434 L 61.69511 -36.551434 Z " stroke="#000000" stroke-width="0.35 px" style="stroke-width:0.35;stroke-miterlimit:4;stroke-dasharray:none;stroke-linecap:square;fill:url(#shape color);fill-opacity:1;fill-rule: evenodd"/>
<path id="Faceplate_10_f0022"  d="M 66.199021 -36.353355 L 68.197592 -36.353355 A 0.100003 0.100003 0 0 0 68.2762 -36.4319L 68.276162 -36.841494 A 0.100003 0.100003 0 0 0 68.1976 -36.9201L 67.493136 -36.921985 L 67.491215 -39.248029 A 0.100003 0.100003 0 0 0 67.4126 -39.3266L 66.983968 -39.326599 A 0.100003 0.100003 0 0 0 66.9054 -39.248L 66.903477 -36.921985 L 66.199021 -36.920064 A 0.100003 0.100003 0 0 0 66.1205 -36.8415L 66.120451 -36.431925 A 0.100003 0.100003 0 0 0 66.199 -36.3534Z M 66.31853 -36.551434 L 68.078083 -36.551434 L 68.078083 -36.721985 L 67.373627 -36.723906 A 0.100003 0.100003 0 0 1 67.2951 -36.8025L 67.293136 -39.12852 L 67.103477 -39.12852 L 67.101556 -36.802476 A 0.100003 0.100003 0 0 1 67.023 -36.7239L 66.31853 -36.721985 L 66.31853 -36.551434 Z " stroke="#000000" stroke-width="0.35 px" style="stroke-width:0.35;stroke-miterlimit:4;stroke-dasharray:none;stroke-linecap:square;fill:url(#shape color);fill-opacity:1;fill-rule: evenodd"/>
<path id="Faceplate_10_f0023"  d="M 68.538167 -36.353355 L 68.966844 -36.353355 A 0.100003 0.100003 0 0 0 69.0454 -36.4319L 69.047335 -37.575685 L 70.035248 -37.575685 L 70.037169 -36.431925 A 0.100003 0.100003 0 0 0 70.1157 -36.3534L 70.544416 -36.353355 A 0.100003 0.100003 0 0 0 70.623 -36.4319L 70.622986 -39.248029 A 0.100003 0.100003 0 0 0 70.5444 -39.3266L 70.115739 -39.326599 A 0.100003 0.100003 0 0 0 70.0372 -39.248L 70.035248 -38.146236 L 69.047335 -38.146236 L 69.045414 -39.248029 A 0.100003 0.100003 0 0 0 68.9668 -39.3266L 68.538167 -39.326599 A 0.100003 0.100003 0 0 0 68.4596 -39.248L 68.459597 -36.431925 A 0.100003 0.100003 0 0 0 68.5382 -36.3534Z M 68.847335 -36.551434 L 68.849256 -37.695194 A 0.100003 0.100003 0 0 1 68.9278 -37.7738L 70.154757 -37.773764 A 0.100003 0.100003 0 0 1 70.2333 -37.6952L 70.235248 -36.551434 L 70.424907 -36.551434 L 70.424907 -39.12852 L 70.235248 -39.12852 L 70.233327 -38.026727 A 0.100003 0.100003 0 0 1 70.1548 -37.9482L 68.927826 -37.948157 A 0.100003 0.100003 0 0 1 68.8493 -38.0267L 68.847335 -39.12852 L 68.657676 -39.12852 L 68.657676 -36.551434 L 68.847335 -36.551434 Z " stroke="#000000" stroke-width="0.35 px" style="stroke-width:0.35;stroke-miterlimit:4;stroke-dasharray:none;stroke-linecap:square;fill:url(#shape color);fill-opacity:1;fill-rule: evenodd"/>
<path id="Faceplate_10_f0024"  d="M 71.191395 -36.353355 L 71.600563 -36.351434 L 73.014415 -36.353355 A 0.100003 0.100003 0 0 0 73.093 -36.4319L 73.092985 -36.841494 A 0.100003 0.100003 0 0 0 73.0144 -36.9201L 71.700563 -36.921985 L 71.700563 -37.564255 L 72.804231 -37.566176 A 0.100003 0.100003 0 0 0 72.8828 -37.6447L 72.882801 -38.054315 A 0.100003 0.100003 0 0 0 72.8042 -38.1329L 71.700563 -38.134806 L 71.700563 -38.757968 L 73.014415 -38.759889 A 0.100003 0.100003 0 0 0 73.093 -38.8385L 73.092985 -39.248029 A 0.100003 0.100003 0 0 0 73.0144 -39.3266L 71.191395 -39.326599 A 0.100003 0.100003 0 0 0 71.1128 -39.248L 71.112825 -36.431925 A 0.100003 0.100003 0 0 0 71.1914 -36.3534Z M 71.310904 -36.551434 L 72.894906 -36.551434 L 72.894906 -36.721985 L 71.581054 -36.723906 A 0.100003 0.100003 0 0 1 71.5025 -36.8025L 71.502484 -37.683764 A 0.100003 0.100003 0 0 1 71.5811 -37.7623L 72.684722 -37.764255 L 72.684722 -37.934806 L 71.581054 -37.936727 A 0.100003 0.100003 0 0 1 71.5025 -38.0153L 71.502484 -38.877477 A 0.100003 0.100003 0 0 1 71.5811 -38.956L 72.894906 -38.957968 L 72.894906 -39.12852 L 71.310904 -39.12852 L 71.310904 -36.551434 Z " stroke="#000000" stroke-width="0.35 px" style="stroke-width:0.35;stroke-miterlimit:4;stroke-dasharray:none;stroke-linecap:square;fill:url(#shape color);fill-opacity:1;fill-rule: evenodd"/>
<path id="Faceplate_10_f0025"  d="M 75.897325 -36.353355 L 76.326002 -36.353355 A 0.100003 0.100003 0 0 0 76.4046 -36.4319L 76.404572 -39.248029 A 0.100003 0.100003 0 0 0 76.326 -39.3266L 75.897325 -39.326599 A 0.100003 0.100003 0 0 0 75.8188 -39.248L 75.818755 -36.431925 A 0.100003 0.100003 0 0 0 75.8973 -36.3534Z M 76.016834 -36.551434 L 76.206493 -36.551434 L 76.206493 -39.12852 L 76.016834 -39.12852 L 76.016834 -36.551434 Z " stroke="#000000" stroke-width="0.35 px" style="stroke-width:0.35;stroke-miterlimit:4;stroke-dasharray:none;stroke-linecap:square;fill:url(#shape color);fill-opacity:1;fill-rule: evenodd"/>
<path id="Faceplate_10_f0026"  d="M 63.690295 -36.353355 L 64.064833 -36.351602 L 64.103693 -36.360033 L 64.135583 -36.382516 L 65.275236 -38.180603 L 65.277157 -36.431925 A 0.100003 0.100003 0 0 0 65.3557 -36.3534L 65.780651 -36.353355 A 0.100003 0.100003 0 0 0 65.8592 -36.4319L 65.859221 -39.246152 A 0.100003 0.100003 0 0 0 65.7807 -39.3247L 65.384389 -39.324722 L 65.348341 -39.30979 L 65.319688 -39.280575 L 64.195709 -37.525569 L 64.193788 -39.246152 A 0.100003 0.100003 0 0 0 64.1152 -39.3247L 63.690295 -39.324722 A 0.100003 0.100003 0 0 0 63.6117 -39.2462L 63.611725 -36.431925 A 0.100003 0.100003 0 0 0 63.6903 -36.3534Z M 64.008052 -36.551434 L 65.290724 -38.579215 A 0.1 0.1 0 0 1 65.4733 -38.5453L 65.475236 -36.551434 L 65.661142 -36.551434 L 65.661142 -39.126643 L 65.458604 -39.126643 L 64.179919 -37.130076 A 0.1 0.1 0 0 1 63.9976 -37.1645L 63.995709 -39.126643 L 63.809804 -39.126643 L 63.809804 -36.551434 L 64.008052 -36.551434 Z " stroke="#000000" stroke-width="0.35 px" style="stroke-width:0.35;stroke-miterlimit:4;stroke-dasharray:none;stroke-linecap:square;fill:url(#shape color);fill-opacity:1;fill-rule: evenodd"/>
<path id="Faceplate_10_f0027"  d="M 70.155871 -32.034596 L 70.347859 -32.013358 L 70.538835 -32.038736 L 70.7007 -32.108374 L 70.836356 -32.222015 L 70.935637 -32.367963 L 70.996287 -32.545259 L 71.01576 -32.739167 L 71.015229 -33.563241 L 70.991081 -33.768905 L 70.928261 -33.937272 L 70.825682 -34.08079 L 70.688181 -34.190866 L 70.523415 -34.257326 L 70.326935 -34.278679 L 70.140346 -34.253333 L 69.978667 -34.183452 L 69.842388 -34.069242 L 69.742533 -33.922736 L 69.681642 -33.74563 L 69.662138 -33.552946 L 69.662671 -32.728855 L 69.687021 -32.521884 L 69.750231 -32.353289 L 69.853374 -32.21019 L 69.991544 -32.100565 L 70.155871 -32.034596 Z M 70.338971 -32.21343 L 70.480327 -32.230391 L 70.59145 -32.276488 L 70.684059 -32.352263 L 70.75392 -32.452357 L 70.798577 -32.577745 A 4.70856 4.70856 0 0 0 70.7986 -33.7131L 70.754016 -33.838383 L 70.683929 -33.939144 L 70.591209 -34.015378 L 70.480155 -34.061659 L 70.338975 -34.078676 L 70.199098 -34.061748 L 70.088125 -34.015486 L 69.994663 -33.938977 L 69.924149 -33.838135 L 69.879319 -33.712932 A 4.70005 4.70005 0 0 0 69.8794 -32.5779L 69.924245 -32.452605 L 69.994529 -32.352434 L 70.087886 -32.276379 L 70.198929 -32.230301 L 70.338971 -32.21343 Z " stroke="#000000" stroke-width="0.35 px" style="stroke-width:0.35;stroke-miterlimit:4;stroke-dasharray:none;stroke-linecap:square;fill:url(#shape color);fill-opacity:1;fill-rule: evenodd"/>
<path id="Faceplate_10_f0028"  d="M 70.138574 -31.644047 L 70.34666 -31.62915 L 70.539323 -31.64405 L 70.743287 -31.695713 L 70.910456 -31.774363 A 0.972429 0.972429 0 0 0 71.2859 -32.1744L 71.357069 -32.348303 L 71.400394 -32.542239 L 71.414972 -32.752645 L 71.414723 -33.546519 L 71.398147 -33.763982 L 71.351993 -33.958418 L 71.277694 -34.132462 A 0.977599 0.977599 0 0 0 70.8943 -34.5272L 70.725987 -34.602568 L 70.539324 -34.648083 L 70.331251 -34.662964 L 70.12187 -34.645359 L 69.934608 -34.59651 A 0.976028 0.976028 0 0 0 69.4928 -34.2759L 69.39193 -34.116728 L 69.320741 -33.942326 L 69.277459 -33.748632 A 7.10909 7.10909 0 0 0 69.2798 -32.5269L 69.326031 -32.332116 L 69.400283 -32.158676 A 0.977856 0.977856 0 0 0 69.7834 -31.7651L 69.951839 -31.689619 L 70.138574 -31.644047 Z M 70.338947 -31.82915 L 70.515416 -31.842797 L 70.668199 -31.881311 L 70.802433 -31.942939 A 0.779411 0.779411 0 0 0 71.1049 -32.2599L 71.16406 -32.401408 L 71.201435 -32.564066 A 6.88904 6.88904 0 0 0 71.2015 -33.7268L 71.164139 -33.889258 L 71.104811 -34.031509 L 71.022219 -34.159478 A 0.77857 0.77857 0 0 0 70.6682 -34.4109L 70.515449 -34.449331 L 70.338947 -34.462963 L 70.162441 -34.449333 L 70.009573 -34.410864 L 69.875321 -34.34935 A 0.780018 0.780018 0 0 0 69.5731 -34.0315L 69.513758 -33.889259 L 69.476412 -33.726766 A 6.90882 6.90882 0 0 0 69.4765 -32.5641L 69.513837 -32.401408 L 69.573028 -32.259864 L 69.655542 -32.132422 A 0.781554 0.781554 0 0 0 70.0096 -31.8813L 70.162473 -31.842795 L 70.338947 -31.82915 Z " stroke="#000000" stroke-width="0.35 px" style="stroke-width:0.35;stroke-miterlimit:4;stroke-dasharray:none;stroke-linecap:square;fill:url(#shape color);fill-opacity:1;fill-rule: evenodd"/>
<path id="Faceplate_10_f0029"  d="M 59.687934 -32.029986 L 60.213349 -32.028424 L 60.387516 -32.04227 L 60.533598 -32.0803 L 60.658073 -32.140822 A 0.606086 0.606086 0 0 0 60.9069 -32.4467L 60.943193 -32.585293 L 60.955264 -32.73729 L 60.954933 -33.562957 L 60.93995 -33.725183 L 60.899231 -33.864986 A 0.604473 0.604473 0 0 0 60.64 -34.1622L 60.515316 -34.218267 L 60.370846 -34.252494 L 60.2097 -34.264048 L 59.687934 -34.262127 A 0.100003 0.100003 0 0 0 59.6094 -34.1836L 59.609364 -32.108556 A 0.100003 0.100003 0 0 0 59.6879 -32.03Z M 59.807443 -32.228065 L 60.206036 -32.228065 L 60.347762 -32.238463 L 60.45789 -32.265673 L 60.545785 -32.306666 A 0.405394 0.405394 0 0 0 60.7169 -32.5099L 60.744616 -32.610893 L 60.755264 -32.741366 L 60.755264 -33.550746 L 60.744616 -33.681219 L 60.716878 -33.782163 A 0.406317 0.406317 0 0 0 60.5458 -33.9854L 60.457889 -34.026441 L 60.347764 -34.053649 L 60.206036 -34.064048 L 59.807443 -34.064048 L 59.807443 -32.228065 Z " stroke="#000000" stroke-width="0.35 px" style="stroke-width:0.35;stroke-miterlimit:4;stroke-dasharray:none;stroke-linecap:square;fill:url(#shape color);fill-opacity:1;fill-rule: evenodd"/>
<path id="Faceplate_10_f0030"  d="M 59.298275 -31.659435 L 59.707443 -31.657514 L 60.20557 -31.657781 L 60.474507 -31.678894 L 60.70214 -31.736983 L 60.894269 -31.828985 A 0.925961 0.925961 0 0 0 61.2778 -32.295L 61.334983 -32.509653 A 6.48251 6.48251 0 0 0 61.3369 -33.7696L 61.289005 -33.964284 L 61.212337 -34.134362 L 61.104021 -34.286198 L 60.968691 -34.411208 L 60.805619 -34.510387 L 60.628018 -34.578231 L 60.424433 -34.620213 L 60.196393 -34.6346 L 59.298275 -34.632679 A 0.100003 0.100003 0 0 0 59.2197 -34.5541L 59.219705 -31.738005 A 0.100003 0.100003 0 0 0 59.2983 -31.6594Z M 59.417784 -31.857514 L 60.194615 -31.857514 L 60.434816 -31.875099 L 60.626494 -31.922382 L 60.781998 -31.994842 A 0.724931 0.724931 0 0 0 61.0878 -32.3582L 61.136406 -32.535248 L 61.154476 -32.756719 L 61.154476 -33.535879 L 61.140439 -33.731249 L 61.102219 -33.892222 L 61.042626 -34.028087 L 60.959201 -34.147871 L 60.854674 -34.246579 L 60.724374 -34.327401 L 60.578628 -34.384251 L 60.40444 -34.421083 L 60.193195 -34.4346 L 59.417784 -34.4346 L 59.417784 -31.857514 Z " stroke="#000000" stroke-width="0.35 px" style="stroke-width:0.35;stroke-miterlimit:4;stroke-dasharray:none;stroke-linecap:square;fill:url(#shape color);fill-opacity:1;fill-rule: evenodd"/>
<path id="Faceplate_10_f0031"  d="M 63.754851 -32.207816 L 63.791751 -32.195137 L 63.824477 -32.19716 L 63.865753 -32.214673 L 63.891588 -32.243913 L 64.337391 -33.541403 A 0.0992267 0.0992267 0 0 0 64.2491 -33.6538L 63.352634 -33.652902 A 0.0992295 0.0992295 0 0 0 63.2751 -33.5329L 63.71875 -32.243918 L 63.754851 -32.207816 Z M 63.805181 -32.602009 L 64.098199 -33.454823 L 63.51223 -33.454823 L 63.805181 -32.602009 Z " stroke="#000000" stroke-width="0.35 px" style="stroke-width:0.35;stroke-miterlimit:4;stroke-dasharray:none;stroke-linecap:square;fill:url(#shape color);fill-opacity:1;fill-rule: evenodd"/>
<path id="Faceplate_10_f0032"  d="M 63.619665 -31.659435 L 63.990848 -31.659435 L 64.030136 -31.676626 L 64.056616 -31.705284 L 65.093904 -34.518979 A 0.0993212 0.0993212 0 0 0 65.0085 -34.6333L 64.555426 -34.632679 L 64.514353 -34.614161 L 64.488518 -34.584921 L 64.294233 -34.025374 L 63.316239 -34.025374 L 63.121999 -34.584914 L 63.091135 -34.617747 L 63.055087 -34.632679 L 62.595872 -34.632679 A 0.0993238 0.0993238 0 0 0 62.5182 -34.513L 63.556027 -31.701957 L 63.583617 -31.674367 L 63.619665 -31.659435 Z M 63.708887 -31.857514 L 63.901626 -31.857514 L 64.851686 -34.4346 L 64.646315 -34.4346 L 64.452029 -33.875054 L 64.426194 -33.845814 L 64.385121 -33.827295 L 63.225345 -33.827295 L 63.189297 -33.842227 L 63.158433 -33.87506 L 62.964193 -34.4346 L 62.758826 -34.4346 L 63.708887 -31.857514 Z " stroke="#000000" stroke-width="0.35 px" style="stroke-width:0.35;stroke-miterlimit:4;stroke-dasharray:none;stroke-linecap:square;fill:url(#shape color);fill-opacity:1;fill-rule: evenodd"/>
<path id="Faceplate_10_f0033"  d="M 61.825938 -31.659435 L 62.254615 -31.659435 A 0.100003 0.100003 0 0 0 62.3332 -31.738L 62.333185 -34.554109 A 0.100003 0.100003 0 0 0 62.2546 -34.6327L 61.825938 -34.632679 A 0.100003 0.100003 0 0 0 61.7474 -34.5541L 61.747368 -31.738005 A 0.100003 0.100003 0 0 0 61.8259 -31.6594Z M 61.945447 -31.857514 L 62.135106 -31.857514 L 62.135106 -34.4346 L 61.945447 -34.4346 L 61.945447 -31.857514 Z " stroke="#000000" stroke-width="0.35 px" style="stroke-width:0.35;stroke-miterlimit:4;stroke-dasharray:none;stroke-linecap:square;fill:url(#shape color);fill-opacity:1;fill-rule: evenodd"/>
<path id="Faceplate_10_f0034"  d="M 65.393601 -31.659435 L 65.822278 -31.659435 A 0.100003 0.100003 0 0 0 65.9008 -31.738L 65.902769 -34.064048 L 67.216621 -34.065969 A 0.100003 0.100003 0 0 0 67.2952 -34.1445L 67.295191 -34.554109 A 0.100003 0.100003 0 0 0 67.2166 -34.6327L 65.393601 -34.632679 A 0.100003 0.100003 0 0 0 65.315 -34.5541L 65.315031 -31.738005 A 0.100003 0.100003 0 0 0 65.3936 -31.6594Z M 65.702769 -31.857514 L 65.70469 -34.183557 A 0.100003 0.100003 0 0 1 65.7833 -34.2621L 67.097112 -34.264048 L 67.097112 -34.4346 L 65.51311 -34.4346 L 65.51311 -31.857514 L 65.702769 -31.857514 Z " stroke="#000000" stroke-width="0.35 px" style="stroke-width:0.35;stroke-miterlimit:4;stroke-dasharray:none;stroke-linecap:square;fill:url(#shape color);fill-opacity:1;fill-rule: evenodd"/>
<path id="Faceplate_10_f0035"  d="M 67.138023 -31.659435 L 69.136595 -31.659435 A 0.100003 0.100003 0 0 0 69.2152 -31.738L 69.215165 -32.147574 A 0.100003 0.100003 0 0 0 69.1366 -32.2261L 68.432138 -32.228065 L 68.430217 -34.554109 A 0.100003 0.100003 0 0 0 68.3516 -34.6327L 67.922971 -34.632679 A 0.100003 0.100003 0 0 0 67.8444 -34.5541L 67.84248 -32.228065 L 67.138023 -32.226144 A 0.100003 0.100003 0 0 0 67.0595 -32.1476L 67.059453 -31.738005 A 0.100003 0.100003 0 0 0 67.138 -31.6594Z M 67.257532 -31.857514 L 69.017086 -31.857514 L 69.017086 -32.028065 L 68.312629 -32.029986 A 0.100003 0.100003 0 0 1 68.2341 -32.1086L 68.232138 -34.4346 L 68.04248 -34.4346 L 68.040559 -32.108556 A 0.100003 0.100003 0 0 1 67.962 -32.03L 67.257532 -32.028065 L 67.257532 -31.857514 Z " stroke="#000000" stroke-width="0.35 px" style="stroke-width:0.35;stroke-miterlimit:4;stroke-dasharray:none;stroke-linecap:square;fill:url(#shape color);fill-opacity:1;fill-rule: evenodd"/>
<path id="Faceplate_10_f0036"  d="M 74.625305 -31.659435 L 75.034473 -31.657514 L 76.448325 -31.659435 A 0.100003 0.100003 0 0 0 76.5269 -31.738L 76.526895 -32.147574 A 0.100003 0.100003 0 0 0 76.4483 -32.2261L 75.134473 -32.228065 L 75.134473 -32.870335 L 76.238141 -32.872256 A 0.100003 0.100003 0 0 0 76.3167 -32.9508L 76.316711 -33.360395 A 0.100003 0.100003 0 0 0 76.2381 -33.439L 75.134473 -33.440886 L 75.134473 -34.064048 L 76.448325 -34.065969 A 0.100003 0.100003 0 0 0 76.5269 -34.1445L 76.526895 -34.554109 A 0.100003 0.100003 0 0 0 76.4483 -34.6327L 74.625305 -34.632679 A 0.100003 0.100003 0 0 0 74.5467 -34.5541L 74.546735 -31.738005 A 0.100003 0.100003 0 0 0 74.6253 -31.6594Z M 74.744814 -31.857514 L 76.328816 -31.857514 L 76.328816 -32.028065 L 75.014964 -32.029986 A 0.100003 0.100003 0 0 1 74.9364 -32.1086L 74.936394 -32.989844 A 0.100003 0.100003 0 0 1 75.015 -33.0684L 76.118632 -33.070335 L 76.118632 -33.240886 L 75.014964 -33.242807 A 0.100003 0.100003 0 0 1 74.9364 -33.3214L 74.936394 -34.183557 A 0.100003 0.100003 0 0 1 75.015 -34.2621L 76.328816 -34.264048 L 76.328816 -34.4346 L 74.744814 -34.4346 L 74.744814 -31.857514 Z " stroke="#000000" stroke-width="0.35 px" style="stroke-width:0.35;stroke-miterlimit:4;stroke-dasharray:none;stroke-linecap:square;fill:url(#shape color);fill-opacity:1;fill-rule: evenodd"/>
<path id="Faceplate_10_f0037"  d="M 71.887458 -31.659435 L 72.261996 -31.657682 L 72.300856 -31.666113 L 72.332746 -31.688596 L 73.472399 -33.486683 L 73.47432 -31.738005 A 0.100003 0.100003 0 0 0 73.5529 -31.6594L 73.977814 -31.659435 A 0.100003 0.100003 0 0 0 74.0564 -31.738L 74.056384 -34.552232 A 0.100003 0.100003 0 0 0 73.9778 -34.6308L 73.581552 -34.630802 L 73.545504 -34.61587 L 73.516851 -34.586655 L 72.392872 -32.831649 L 72.390951 -34.552232 A 0.100003 0.100003 0 0 0 72.3124 -34.6308L 71.887458 -34.630802 A 0.100003 0.100003 0 0 0 71.8089 -34.5522L 71.808888 -31.738005 A 0.100003 0.100003 0 0 0 71.8875 -31.6594Z M 72.205215 -31.857514 L 73.487887 -33.885295 A 0.1 0.1 0 0 1 73.6705 -33.8513L 73.672399 -31.857514 L 73.858305 -31.857514 L 73.858305 -34.432723 L 73.655767 -34.432723 L 72.377082 -32.436156 A 0.1 0.1 0 0 1 72.1948 -32.4706L 72.192872 -34.432723 L 72.006967 -34.432723 L 72.006967 -31.857514 L 72.205215 -31.857514 Z " stroke="#000000" stroke-width="0.35 px" style="stroke-width:0.35;stroke-miterlimit:4;stroke-dasharray:none;stroke-linecap:square;fill:url(#shape color);fill-opacity:1;fill-rule: evenodd"/>
<path id="Faceplate_10_f0038"  d="M 106.679928 -153.92391 L 106.679928 -153.92391 L 35.559928 -153.92391 L 35.559928 -153.92391 L 106.679928 -153.92391 Z " stroke="#000000" stroke-width="0.35 px" style="stroke-width:0.35;stroke-miterlimit:4;stroke-dasharray:none;stroke-linecap:square;fill:url(#shape color);fill-opacity:1;fill-rule: evenodd"/>
<path id="Faceplate_10_f0039"  d="M 106.679928 -25.39991 L 106.679928 -25.39991 L 106.679928 -153.92391 L 106.679928 -153.92391 L 106.679928 -25.39991 Z " stroke="#000000" stroke-width="0.35 px" style="stroke-width:0.35;stroke-miterlimit:4;stroke-dasharray:none;stroke-linecap:square;fill:url(#shape color);fill-opacity:1;fill-rule: evenodd"/>
<path id="Faceplate_10_f0040"  d="M 35.559928 -153.92391 L 35.559928 -153.92391 L 35.559928 -25.39991 L 35.559928 -25.39991 L 35.559928 -153.92391 Z " stroke="#000000" stroke-width="0.35 px" style="stroke-width:0.35;stroke-miterlimit:4;stroke-dasharray:none;stroke-linecap:square;fill:url(#shape color);fill-opacity:1;fill-rule: evenodd"/>
<circle cx="42.92288" cy="-139.44591" r="3.2004" stroke="#000000" stroke-width="0.35 px" style="stroke-width:0.35;stroke-miterlimit:4;stroke-dasharray:none;stroke-linecap:square;fill:url(#shape color)"/>
<circle cx="42.92288" cy="-139.44591" r="3.2004" stroke="#000000" stroke-width="0.35 px" style="stroke-width:0.35;stroke-miterlimit:4;stroke-dasharray:none;stroke-linecap:square;fill:url(#shape color)"/>
<path id="Faceplate_10_f0043"  d="M 35.559928 -25.39991 L 35.559928 -25.39991 L 106.679928 -25.39991 L 106.679928 -25.39991 L 35.559928 -25.39991 Z " stroke="#000000" stroke-width="0.35 px" style="stroke-width:0.35;stroke-miterlimit:4;stroke-dasharray:none;stroke-linecap:square;fill:url(#shape color);fill-opacity:1;fill-rule: evenodd"/>
<path id="Faceplate_10_f0044"  d="M 46.405728 -149.27571 A 1.6002 1.6002 0 0 0 46.4057 -152.476L 46.405728 -152.47611 A 1.6002 1.6002 0 0 1 46.4057 -149.276L 46.405728 -149.27571 Z " stroke="#000000" stroke-width="0.35 px" style="stroke-width:0.35;stroke-miterlimit:4;stroke-dasharray:none;stroke-linecap:square;fill:url(#shape color);fill-opacity:1;fill-rule: evenodd"/>
<path id="Faceplate_10_f0045"  d="M 41.986128 -149.27571 L 46.405728 -149.27571 L 46.405728 -149.27571 L 41.986128 -149.27571 L 41.986128 -149.27571 Z " stroke="#000000" stroke-width="0.35 px" style="stroke-width:0.35;stroke-miterlimit:4;stroke-dasharray:none;stroke-linecap:square;fill:url(#shape color);fill-opacity:1;fill-rule: evenodd"/>
<path id="Faceplate_10_f0046"  d="M 41.986128 -152.47611 A 1.6002 1.6002 0 0 0 41.9861 -149.276L 41.986128 -149.27571 A 1.6002 1.6002 0 0 1 41.9861 -152.476L 41.986128 -152.47611 Z " stroke="#000000" stroke-width="0.35 px" style="stroke-width:0.35;stroke-miterlimit:4;stroke-dasharray:none;stroke-linecap:square;fill:url(#shape color);fill-opacity:1;fill-rule: evenodd"/>
<path id="Faceplate_10_f0047"  d="M 46.405728 -152.47611 L 41.986128 -152.47611 L 41.986128 -152.47611 L 46.405728 -152.47611 L 46.405728 -152.47611 Z " stroke="#000000" stroke-width="0.35 px" style="stroke-width:0.35;stroke-miterlimit:4;stroke-dasharray:none;stroke-linecap:square;fill:url(#shape color);fill-opacity:1;fill-rule: evenodd"/>
<circle cx="42.92288" cy="-139.44591" r="3.2004" stroke="#000000" stroke-width="0.35 px" style="stroke-width:0.35;stroke-miterlimit:4;stroke-dasharray:none;stroke-linecap:square;fill:url(#shape color)"/>
<circle cx="42.92288" cy="-129.28591" r="3.2004" stroke="#000000" stroke-width="0.35 px" style="stroke-width:0.35;stroke-miterlimit:4;stroke-dasharray:none;stroke-linecap:square;fill:url(#shape color)"/>
<circle cx="56.63888" cy="-139.44591" r="3.2004" stroke="#000000" stroke-width="0.35 px" style="stroke-width:0.35;stroke-miterlimit:4;stroke-dasharray:none;stroke-linecap:square;fill:url(#shape color)"/>
<circle cx="70.35488" cy="-139.44591" r="3.2004" stroke="#000000" stroke-width="0.35 px" style="stroke-width:0.35;stroke-miterlimit:4;stroke-dasharray:none;stroke-linecap:square;fill:url(#shape color)"/>
<circle cx="56.63888" cy="-129.28591" r="3.2004" stroke="#000000" stroke-width="0.35 px" style="stroke-width:0.35;stroke-miterlimit:4;stroke-dasharray:none;stroke-linecap:square;fill:url(#shape color)"/>
<circle cx="70.35488" cy="-129.28591" r="3.2004" stroke="#000000" stroke-width="0.35 px" style="stroke-width:0.35;stroke-miterlimit:4;stroke-dasharray:none;stroke-linecap:square;fill:url(#shape color)"/>
<circle cx="42.92288" cy="-119.12591" r="3.2004" stroke="#000000" stroke-width="0.35 px" style="stroke-width:0.35;stroke-miterlimit:4;stroke-dasharray:none;stroke-linecap:square;fill:url(#shape color)"/>
<circle cx="48.259928" cy="-94.86891" r="3.6068" stroke="#000000" stroke-width="0.35 px" style="stroke-width:0.35;stroke-miterlimit:4;stroke-dasharray:none;stroke-linecap:square;fill:url(#shape color)"/>
<circle cx="56.641928" cy="-119.12591" r="3.2004" stroke="#000000" stroke-width="0.35 px" style="stroke-width:0.35;stroke-miterlimit:4;stroke-dasharray:none;stroke-linecap:square;fill:url(#shape color)"/>
<circle cx="66.039928" cy="-101.09191" r="2.4765" stroke="#000000" stroke-width="0.35 px" style="stroke-width:0.35;stroke-miterlimit:4;stroke-dasharray:none;stroke-linecap:square;fill:url(#shape color)"/>
<circle cx="67.055928" cy="-93.21791" r="1.4605" stroke="#000000" stroke-width="0.35 px" style="stroke-width:0.35;stroke-miterlimit:4;stroke-dasharray:none;stroke-linecap:square;fill:url(#shape color)"/>
<circle cx="84.07088" cy="-139.44591" r="3.2004" stroke="#000000" stroke-width="0.35 px" style="stroke-width:0.35;stroke-miterlimit:4;stroke-dasharray:none;stroke-linecap:square;fill:url(#shape color)"/>
<circle cx="84.07088" cy="-129.28591" r="3.2004" stroke="#000000" stroke-width="0.35 px" style="stroke-width:0.35;stroke-miterlimit:4;stroke-dasharray:none;stroke-linecap:square;fill:url(#shape color)"/>
<path id="Faceplate_10_f0061"  d="M 100.253728 -149.27571 A 1.6002 1.6002 0 0 0 100.254 -152.476L 100.253728 -152.47611 A 1.6002 1.6002 0 0 1 100.254 -149.276L 100.253728 -149.27571 Z " stroke="#000000" stroke-width="0.35 px" style="stroke-width:0.35;stroke-miterlimit:4;stroke-dasharray:none;stroke-linecap:square;fill:url(#shape color);fill-opacity:1;fill-rule: evenodd"/>
<path id="Faceplate_10_f0062"  d="M 95.834128 -149.27571 L 100.253728 -149.27571 L 100.253728 -149.27571 L 95.834128 -149.27571 L 95.834128 -149.27571 Z " stroke="#000000" stroke-width="0.35 px" style="stroke-width:0.35;stroke-miterlimit:4;stroke-dasharray:none;stroke-linecap:square;fill:url(#shape color);fill-opacity:1;fill-rule: evenodd"/>
<path id="Faceplate_10_f0063"  d="M 95.834128 -152.47611 A 1.6002 1.6002 0 0 0 95.8341 -149.276L 95.834128 -149.27571 A 1.6002 1.6002 0 0 1 95.8341 -152.476L 95.834128 -152.47611 Z " stroke="#000000" stroke-width="0.35 px" style="stroke-width:0.35;stroke-miterlimit:4;stroke-dasharray:none;stroke-linecap:square;fill:url(#shape color);fill-opacity:1;fill-rule: evenodd"/>
<path id="Faceplate_10_f0064"  d="M 100.253728 -152.47611 L 95.834128 -152.47611 L 95.834128 -152.47611 L 100.253728 -152.47611 L 100.253728 -152.47611 Z " stroke="#000000" stroke-width="0.35 px" style="stroke-width:0.35;stroke-miterlimit:4;stroke-dasharray:none;stroke-linecap:square;fill:url(#shape color);fill-opacity:1;fill-rule: evenodd"/>
<circle cx="97.78688" cy="-139.44591" r="3.2004" stroke="#000000" stroke-width="0.35 px" style="stroke-width:0.35;stroke-miterlimit:4;stroke-dasharray:none;stroke-linecap:square;fill:url(#shape color)"/>
<circle cx="97.78688" cy="-129.28591" r="3.2004" stroke="#000000" stroke-width="0.35 px" style="stroke-width:0.35;stroke-miterlimit:4;stroke-dasharray:none;stroke-linecap:square;fill:url(#shape color)"/>
<circle cx="71.119928" cy="-110.74391" r="2.5146" stroke="#000000" stroke-width="0.35 px" style="stroke-width:0.35;stroke-miterlimit:4;stroke-dasharray:none;stroke-linecap:square;fill:url(#shape color)"/>
<circle cx="76.199928" cy="-101.09191" r="2.4765" stroke="#000000" stroke-width="0.35 px" style="stroke-width:0.35;stroke-miterlimit:4;stroke-dasharray:none;stroke-linecap:square;fill:url(#shape color)"/>
<circle cx="75.183928" cy="-93.21791" r="1.4605" stroke="#000000" stroke-width="0.35 px" style="stroke-width:0.35;stroke-miterlimit:4;stroke-dasharray:none;stroke-linecap:square;fill:url(#shape color)"/>
<circle cx="93.979928" cy="-94.86891" r="3.6068" stroke="#000000" stroke-width="0.35 px" style="stroke-width:0.35;stroke-miterlimit:4;stroke-dasharray:none;stroke-linecap:square;fill:url(#shape color)"/>
<circle cx="48.259928" cy="-67.56391" r="3.6068" stroke="#000000" stroke-width="0.35 px" style="stroke-width:0.35;stroke-miterlimit:4;stroke-dasharray:none;stroke-linecap:square;fill:url(#shape color)"/>
<path id="Faceplate_10_f0072"  d="M 46.405728 -26.84771 A 1.6002 1.6002 0 0 0 46.4057 -30.0481L 46.405728 -30.04811 A 1.6002 1.6002 0 0 1 46.4057 -26.8477L 46.405728 -26.84771 Z " stroke="#000000" stroke-width="0.35 px" style="stroke-width:0.35;stroke-miterlimit:4;stroke-dasharray:none;stroke-linecap:square;fill:url(#shape color);fill-opacity:1;fill-rule: evenodd"/>
<path id="Faceplate_10_f0073"  d="M 41.986128 -26.84771 L 46.405728 -26.84771 L 46.405728 -26.84771 L 41.986128 -26.84771 L 41.986128 -26.84771 Z " stroke="#000000" stroke-width="0.35 px" style="stroke-width:0.35;stroke-miterlimit:4;stroke-dasharray:none;stroke-linecap:square;fill:url(#shape color);fill-opacity:1;fill-rule: evenodd"/>
<path id="Faceplate_10_f0074"  d="M 41.986128 -30.04811 A 1.6002 1.6002 0 0 0 41.9861 -26.8477L 41.986128 -26.84771 A 1.6002 1.6002 0 0 1 41.9861 -30.0481L 41.986128 -30.04811 Z " stroke="#000000" stroke-width="0.35 px" style="stroke-width:0.35;stroke-miterlimit:4;stroke-dasharray:none;stroke-linecap:square;fill:url(#shape color);fill-opacity:1;fill-rule: evenodd"/>
<path id="Faceplate_10_f0075"  d="M 46.405728 -30.04811 L 41.986128 -30.04811 L 41.986128 -30.04811 L 46.405728 -30.04811 L 46.405728 -30.04811 Z " stroke="#000000" stroke-width="0.35 px" style="stroke-width:0.35;stroke-miterlimit:4;stroke-dasharray:none;stroke-linecap:square;fill:url(#shape color);fill-opacity:1;fill-rule: evenodd"/>
<circle cx="48.259928" cy="-40.25891" r="3.6068" stroke="#000000" stroke-width="0.35 px" style="stroke-width:0.35;stroke-miterlimit:4;stroke-dasharray:none;stroke-linecap:square;fill:url(#shape color)"/>
<circle cx="71.119928" cy="-82.16891" r="3.6068" stroke="#000000" stroke-width="0.35 px" style="stroke-width:0.35;stroke-miterlimit:4;stroke-dasharray:none;stroke-linecap:square;fill:url(#shape color)"/>
<circle cx="93.979928" cy="-67.56391" r="3.6068" stroke="#000000" stroke-width="0.35 px" style="stroke-width:0.35;stroke-miterlimit:4;stroke-dasharray:none;stroke-linecap:square;fill:url(#shape color)"/>
<circle cx="71.119928" cy="-54.86391" r="3.6068" stroke="#000000" stroke-width="0.35 px" style="stroke-width:0.35;stroke-miterlimit:4;stroke-dasharray:none;stroke-linecap:square;fill:url(#shape color)"/>
<circle cx="93.979928" cy="-40.25891" r="3.6068" stroke="#000000" stroke-width="0.35 px" style="stroke-width:0.35;stroke-miterlimit:4;stroke-dasharray:none;stroke-linecap:square;fill:url(#shape color)"/>
<path id="Faceplate_10_f0081"  d="M 100.253728 -26.84771 A 1.6002 1.6002 0 0 0 100.254 -30.0481L 100.253728 -30.04811 A 1.6002 1.6002 0 0 1 100.254 -26.8477L 100.253728 -26.84771 Z " stroke="#000000" stroke-width="0.35 px" style="stroke-width:0.35;stroke-miterlimit:4;stroke-dasharray:none;stroke-linecap:square;fill:url(#shape color);fill-opacity:1;fill-rule: evenodd"/>
<path id="Faceplate_10_f0082"  d="M 95.834128 -26.84771 L 100.253728 -26.84771 L 100.253728 -26.84771 L 95.834128 -26.84771 L 95.834128 -26.84771 Z " stroke="#000000" stroke-width="0.35 px" style="stroke-width:0.35;stroke-miterlimit:4;stroke-dasharray:none;stroke-linecap:square;fill:url(#shape color);fill-opacity:1;fill-rule: evenodd"/>
<path id="Faceplate_10_f0083"  d="M 95.834128 -30.04811 A 1.6002 1.6002 0 0 0 95.8341 -26.8477L 95.834128 -26.84771 A 1.6002 1.6002 0 0 1 95.8341 -30.0481L 95.834128 -30.04811 Z " stroke="#000000" stroke-width="0.35 px" style="stroke-width:0.35;stroke-miterlimit:4;stroke-dasharray:none;stroke-linecap:square;fill:url(#shape color);fill-opacity:1;fill-rule: evenodd"/>
<path id="Faceplate_10_f0084"  d="M 100.253728 -30.04811 L 95.834128 -30.04811 L 95.834128 -30.04811 L 100.253728 -30.04811 L 100.253728 -30.04811 Z " stroke="#000000" stroke-width="0.35 px" style="stroke-width:0.35;stroke-miterlimit:4;stroke-dasharray:none;stroke-linecap:square;fill:url(#shape color);fill-opacity:1;fill-rule: evenodd"/>
<title>b'Faceplate 10'</title>
</g>
</svg>