  0
SECTION
  2
HEADER
  9
$ANGBASE
  50
0.0
  9
$ANGDIR
  70
1
  9
$MEASUREMENT
  70
0
  0
ENDSEC
  0
SECTION
  2
TABLES
  0
TABLE
  2
LTYPE
  70
4
  0
LTYPE
  5
40F
  2
CONTINUOUS
  70
0
  3
Solid line
  72
65
  73
0
  40
0.0
  0
LTYPE
  5
410
  2
DASHDOT
 70
0
  3
Dash Dot ____ _ ____ _
 72
65
 73
4
 40
2.0
 49
1.25
 49
-0.25
 49
0.25
 49
-0.25
  0
LTYPE
  5
411
  2
DASHED
 70
0
  3
Dashed __ __ __ __ __
 72
65
 73
2
 40
0.75
 49
0.5
 49
-0.25
  0
LTYPE
  5
43B
  2
DOTTED
 70
0
  3
Dotted .  .  .  .
 72
65
 73
2
 40
0.2
 49
0.0
 49
-0.2
  0
ENDTAB
  0
TABLE
  2
STYLE
  70
4
  0
STYLE
  2
KICAD
  70
0
  40
0
  41
1
  42
1
  50
0
  71
0
  3
isocp.shx
  0
STYLE
  2
KICADB
  70
0
  40
0
  41
1
  42
1
  50
0
  71
0
  3
isocp.shx
  0
STYLE
  2
KICADI
  70
0
  40
0
  41
1
  42
1
  50
15
  71
0
  3
isocp.shx
  0
STYLE
  2
KICADBI
  70
0
  40
0
  41
1
  42
1
  50
15
  71
0
  3
isocp.shx
  0
ENDTAB
  0
TABLE
  2
LAYER
  70
1
  0
LAYER
  2
BLACK
  70
0
  62
7
  6
CONTINUOUS
  0
ENDTAB
  0
ENDSEC
  0
SECTION
  2
ENTITIES
0
LINE
8
BLACK
6
CONTINUOUS
10
4.2003766535433069
20
-0.9990906692913386
11
4.2009093307086616
21
-0.9996233464566929
0
LINE
8
BLACK
6
CONTINUOUS
10
4.2009093307086616
20
-0.9996233464566929
11
4.2009842519685039
21
-1.
0
LINE
8
BLACK
6
CONTINUOUS
10
4.2009842519685039
20
-1.
11
4.2009842519685039
21
-6.0599999999999996
0
LINE
8
BLACK
6
CONTINUOUS
10
4.2009842519685039
20
-6.0599999999999996
11
4.2009093307086616
21
-6.0603766535433072
0
LINE
8
BLACK
6
CONTINUOUS
10
4.2009093307086616
20
-6.0603766535433072
11
4.2003766535433069
21
-6.060909330708661
0
LINE
8
BLACK
6
CONTINUOUS
10
4.2003766535433069
20
-6.060909330708661
11
4.2000000000000002
21
-6.0609842519685042
0
LINE
8
BLACK
6
CONTINUOUS
10
4.2000000000000002
20
-6.0609842519685042
11
1.3999999999999999
21
-6.0609842519685042
0
LINE
8
BLACK
6
CONTINUOUS
10
1.3999999999999999
20
-6.0609842519685042
11
1.399623346456693
21
-6.060909330708661
0
LINE
8
BLACK
6
CONTINUOUS
10
1.399623346456693
20
-6.060909330708661
11
1.3990906692913385
21
-6.0603766535433072
0
LINE
8
BLACK
6
CONTINUOUS
10
1.3990906692913385
20
-6.0603766535433072
11
1.399015748031496
21
-6.0599999999999996
0
LINE
8
BLACK
6
CONTINUOUS
10
1.399015748031496
20
-6.0599999999999996
11
1.399015748031496
21
-1.
0
LINE
8
BLACK
6
CONTINUOUS
10
1.399015748031496
20
-1.
11
1.3990906692913385
21
-0.9996233464566929
0
LINE
8
BLACK
6
CONTINUOUS
10
1.3990906692913385
20
-0.9996233464566929
11
1.399623346456693
21
-0.9990906692913386
0
LINE
8
BLACK
6
CONTINUOUS
10
1.399623346456693
20
-0.9990906692913386
11
1.3999999999999999
21
-0.9990157480314961
0
LINE
8
BLACK
6
CONTINUOUS
10
1.3999999999999999
20
-0.9990157480314961
11
4.2000000000000002
21
-0.9990157480314961
0
LINE
8
BLACK
6
CONTINUOUS
10
4.2000000000000002
20
-0.9990157480314961
11
4.2003766535433069
21
-0.9990906692913386
0
LINE
8
BLACK
6
CONTINUOUS
10
1.4009842519685038
20
-1.0009842519685039
11
1.4009842519685038
21
-6.0590157480314959
0
LINE
8
BLACK
6
CONTINUOUS
10
1.4009842519685038
20
-6.0590157480314959
11
4.1990157480314956
21
-6.0590157480314959
0
LINE
8
BLACK
6
CONTINUOUS
10
4.1990157480314956
20
-6.0590157480314959
11
4.1990157480314956
21
-1.0009842519685039
0
LINE
8
BLACK
6
CONTINUOUS
10
4.1990157480314956
20
-1.0009842519685039
11
1.4009842519685038
21
-1.0009842519685039
0
CIRCLE
8
BLACK
10
1.68988
20
-4.6899999999999995
40
0.126
0
CIRCLE
8
BLACK
10
2.7698800000000001
20
-5.0899999999999999
40
0.126
0
CIRCLE
8
BLACK
10
2.6000000000000001
20
-3.98
40
0.0975
0
CIRCLE
8
BLACK
10
1.8999999999999999
20
-1.585
40
0.142
0
LINE
8
BLACK
6
CONTINUOUS
10
3.9519429133858268
20
-1.0571942125984253
11
3.9617070472440945
21
-1.0587407086614173
0
LINE
8
BLACK
6
CONTINUOUS
10
3.9617070472440945
20
-1.0587407086614173
11
3.9711090551181103
21
-1.0617955905511811
0
LINE
8
BLACK
6
CONTINUOUS
10
3.9711090551181103
20
-1.0617955905511811
11
3.9799174015748031
21
-1.0662836614173228
0
LINE
8
BLACK
6
CONTINUOUS
10
3.9799174015748031
20
-1.0662836614173228
11
3.9879152362204722
21
-1.072094409448819
0
LINE
8
BLACK
6
CONTINUOUS
10
3.9879152362204722
20
-1.072094409448819
11
3.994905590551181
21
-1.0790847637795276
0
LINE
8
BLACK
6
CONTINUOUS
10
3.994905590551181
20
-1.0790847637795276
11
4.0007163385826772
21
-1.0870825984251968
0
LINE
8
BLACK
6
CONTINUOUS
10
4.0007163385826772
20
-1.0870825984251968
11
4.0052044094488188
21
-1.0958909448818897
0
LINE
8
BLACK
6
CONTINUOUS
10
4.0052044094488188
20
-1.0958909448818897
11
4.0082592913385824
21
-1.1052929527559054
0
LINE
8
BLACK
6
CONTINUOUS
10
4.0082592913385824
20
-1.1052929527559054
11
4.0098057874015751
21
-1.1150570866141731
0
LINE
8
BLACK
6
CONTINUOUS
10
4.0098057874015751
20
-1.1150570866141731
11
4.0098057874015751
21
-1.1249429133858266
0
LINE
8
BLACK
6
CONTINUOUS
10
4.0098057874015751
20
-1.1249429133858266
11
4.0082592913385824
21
-1.1347070472440945
0
LINE
8
BLACK
6
CONTINUOUS
10
4.0082592913385824
20
-1.1347070472440945
11
4.0052044094488188
21
-1.1441090551181101
0
LINE
8
BLACK
6
CONTINUOUS
10
4.0052044094488188
20
-1.1441090551181101
11
4.0007163385826772
21
-1.1529174015748032
0
LINE
8
BLACK
6
CONTINUOUS
10
4.0007163385826772
20
-1.1529174015748032
11
3.994905590551181
21
-1.1609152362204724
0
LINE
8
BLACK
6
CONTINUOUS
10
3.994905590551181
20
-1.1609152362204724
11
3.9879152362204722
21
-1.167905590551181
0
LINE
8
BLACK
6
CONTINUOUS
10
3.9879152362204722
20
-1.167905590551181
11
3.9799174015748031
21
-1.1737163385826772
0
LINE
8
BLACK
6
CONTINUOUS
10
3.9799174015748031
20
-1.1737163385826772
11
3.9711090551181103
21
-1.1782044094488189
0
LINE
8
BLACK
6
CONTINUOUS
10
3.9711090551181103
20
-1.1782044094488189
11
3.9617070472440945
21
-1.1812592913385827
0
LINE
8
BLACK
6
CONTINUOUS
10
3.9617070472440945
20
-1.1812592913385827
11
3.9519429133858268
21
-1.1828057874015747
0
LINE
8
BLACK
6
CONTINUOUS
10
3.9519429133858268
20
-1.1828057874015747
11
3.9470000000000001
21
-1.1830000000000001
0
LINE
8
BLACK
6
CONTINUOUS
10
3.9470000000000001
20
-1.1830000000000001
11
3.7730000000000001
21
-1.1830000000000001
0
LINE
8
BLACK
6
CONTINUOUS
10
3.7730000000000001
20
-1.1830000000000001
11
3.7680570866141729
21
-1.1828057874015747
0
LINE
8
BLACK
6
CONTINUOUS
10
3.7680570866141729
20
-1.1828057874015747
11
3.7582929527559052
21
-1.1812592913385827
0
LINE
8
BLACK
6
CONTINUOUS
10
3.7582929527559052
20
-1.1812592913385827
11
3.7488909448818899
21
-1.1782044094488189
0
LINE
8
BLACK
6
CONTINUOUS
10
3.7488909448818899
20
-1.1782044094488189
11
3.7400825984251966
21
-1.1737163385826772
0
LINE
8
BLACK
6
CONTINUOUS
10
3.7400825984251966
20
-1.1737163385826772
11
3.7320847637795276
21
-1.167905590551181
0
LINE
8
BLACK
6
CONTINUOUS
10
3.7320847637795276
20
-1.167905590551181
11
3.7250944094488188
21
-1.1609152362204724
0
LINE
8
BLACK
6
CONTINUOUS
10
3.7250944094488188
20
-1.1609152362204724
11
3.7192836614173226
21
-1.1529174015748032
0
LINE
8
BLACK
6
CONTINUOUS
10
3.7192836614173226
20
-1.1529174015748032
11
3.7147955905511809
21
-1.1441090551181101
0
LINE
8
BLACK
6
CONTINUOUS
10
3.7147955905511809
20
-1.1441090551181101
11
3.7117407086614174
21
-1.1347070472440945
0
LINE
8
BLACK
6
CONTINUOUS
10
3.7117407086614174
20
-1.1347070472440945
11
3.7101942125984251
21
-1.1249429133858266
0
LINE
8
BLACK
6
CONTINUOUS
10
3.7101942125984251
20
-1.1249429133858266
11
3.7101942125984251
21
-1.1150570866141731
0
LINE
8
BLACK
6
CONTINUOUS
10
3.7101942125984251
20
-1.1150570866141731
11
3.7117407086614174
21
-1.1052929527559054
0
LINE
8
BLACK
6
CONTINUOUS
10
3.7117407086614174
20
-1.1052929527559054
11
3.7147955905511809
21
-1.0958909448818897
0
LINE
8
BLACK
6
CONTINUOUS
10
3.7147955905511809
20
-1.0958909448818897
11
3.7192836614173226
21
-1.0870825984251968
0
LINE
8
BLACK
6
CONTINUOUS
10
3.7192836614173226
20
-1.0870825984251968
11
3.7250944094488188
21
-1.0790847637795276
0
LINE
8
BLACK
6
CONTINUOUS
10
3.7250944094488188
20
-1.0790847637795276
11
3.7320847637795276
21
-1.072094409448819
0
LINE
8
BLACK
6
CONTINUOUS
10
3.7320847637795276
20
-1.072094409448819
11
3.7400825984251966
21
-1.0662836614173228
0
LINE
8
BLACK
6
CONTINUOUS
10
3.7400825984251966
20
-1.0662836614173228
11
3.7488909448818899
21
-1.0617955905511811
0
LINE
8
BLACK
6
CONTINUOUS
10
3.7488909448818899
20
-1.0617955905511811
11
3.7582929527559052
21
-1.0587407086614173
0
LINE
8
BLACK
6
CONTINUOUS
10
3.7582929527559052
20
-1.0587407086614173
11
3.7680570866141729
21
-1.0571942125984253
0
LINE
8
BLACK
6
CONTINUOUS
10
3.7680570866141729
20
-1.0571942125984253
11
3.7730000000000001
21
-1.0569999999999999
0
LINE
8
BLACK
6
CONTINUOUS
10
3.7730000000000001
20
-1.0569999999999999
11
3.9470000000000001
21
-1.0569999999999999
0
LINE
8
BLACK
6
CONTINUOUS
10
3.9470000000000001
20
-1.0569999999999999
11
3.9519429133858268
21
-1.0571942125984253
0
CIRCLE
8
BLACK
10
2.7999999999999998
20
-3.2349999999999999
40
0.142
0
CIRCLE
8
BLACK
10
3.6999999999999997
20
-2.6600000000000001
40
0.142
0
LINE
8
BLACK
6
CONTINUOUS
10
3.9519429133858268
20
-5.8771942125984253
11
3.9617070472440945
21
-5.8787407086614172
0
LINE
8
BLACK
6
CONTINUOUS
10
3.9617070472440945
20
-5.8787407086614172
11
3.9711090551181103
21
-5.8817955905511807
0
LINE
8
BLACK
6
CONTINUOUS
10
3.9711090551181103
20
-5.8817955905511807
11
3.9799174015748031
21
-5.8862836614173224
0
LINE
8
BLACK
6
CONTINUOUS
10
3.9799174015748031
20
-5.8862836614173224
11
3.9879152362204722
21
-5.892094409448819
0
LINE
8
BLACK
6
CONTINUOUS
10
3.9879152362204722
20
-5.892094409448819
11
3.994905590551181
21
-5.8990847637795278
0
LINE
8
BLACK
6
CONTINUOUS
10
3.994905590551181
20
-5.8990847637795278
11
4.0007163385826772
21
-5.9070825984251965
0
LINE
8
BLACK
6
CONTINUOUS
10
4.0007163385826772
20
-5.9070825984251965
11
4.0052044094488188
21
-5.9158909448818893
0
LINE
8
BLACK
6
CONTINUOUS
10
4.0052044094488188
20
-5.9158909448818893
11
4.0082592913385824
21
-5.9252929527559051
0
LINE
8
BLACK
6
CONTINUOUS
10
4.0082592913385824
20
-5.9252929527559051
11
4.0098057874015751
21
-5.9350570866141732
0
LINE
8
BLACK
6
CONTINUOUS
10
4.0098057874015751
20
-5.9350570866141732
11
4.0098057874015751
21
-5.9449429133858267
0
LINE
8
BLACK
6
CONTINUOUS
10
4.0098057874015751
20
-5.9449429133858267
11
4.0082592913385824
21
-5.9547070472440939
0
LINE
8
BLACK
6
CONTINUOUS
10
4.0082592913385824
20
-5.9547070472440939
11
4.0052044094488188
21
-5.9641090551181097
0
LINE
8
BLACK
6
CONTINUOUS
10
4.0052044094488188
20
-5.9641090551181097
11
4.0007163385826772
21
-5.9729174015748034
0
LINE
8
BLACK
6
CONTINUOUS
10
4.0007163385826772
20
-5.9729174015748034
11
3.994905590551181
21
-5.9809152362204721
0
LINE
8
BLACK
6
CONTINUOUS
10
3.994905590551181
20
-5.9809152362204721
11
3.9879152362204722
21
-5.9879055905511809
0
LINE
8
BLACK
6
CONTINUOUS
10
3.9879152362204722
20
-5.9879055905511809
11
3.9799174015748031
21
-5.9937163385826766
0
LINE
8
BLACK
6
CONTINUOUS
10
3.9799174015748031
20
-5.9937163385826766
11
3.9711090551181103
21
-5.9982044094488192
0
LINE
8
BLACK
6
CONTINUOUS
10
3.9711090551181103
20
-5.9982044094488192
11
3.9617070472440945
21
-6.0012592913385827
0
LINE
8
BLACK
6
CONTINUOUS
10
3.9617070472440945
20
-6.0012592913385827
11
3.9519429133858268
21
-6.0028057874015746
0
LINE
8
BLACK
6
CONTINUOUS
10
3.9519429133858268
20
-6.0028057874015746
11
3.9470000000000001
21
-6.0030000000000001
0
LINE
8
BLACK
6
CONTINUOUS
10
3.9470000000000001
20
-6.0030000000000001
11
3.7730000000000001
21
-6.0030000000000001
0
LINE
8
BLACK
6
CONTINUOUS
10
3.7730000000000001
20
-6.0030000000000001
11
3.7680570866141729
21
-6.0028057874015746
0
LINE
8
BLACK
6
CONTINUOUS
10
3.7680570866141729
20
-6.0028057874015746
11
3.7582929527559052
21
-6.0012592913385827
0
LINE
8
BLACK
6
CONTINUOUS
10
3.7582929527559052
20
-6.0012592913385827
11
3.7488909448818899
21
-5.9982044094488192
0
LINE
8
BLACK
6
CONTINUOUS
10
3.7488909448818899
20
-5.9982044094488192
11
3.7400825984251966
21
-5.9937163385826766
0
LINE
8
BLACK
6
CONTINUOUS
10
3.7400825984251966
20
-5.9937163385826766
11
3.7320847637795276
21
-5.9879055905511809
0
LINE
8
BLACK
6
CONTINUOUS
10
3.7320847637795276
20
-5.9879055905511809
11
3.7250944094488188
21
-5.9809152362204721
0
LINE
8
BLACK
6
CONTINUOUS
10
3.7250944094488188
20
-5.9809152362204721
11
3.7192836614173226
21
-5.9729174015748034
0
LINE
8
BLACK
6
CONTINUOUS
10
3.7192836614173226
20
-5.9729174015748034
11
3.7147955905511809
21
-5.9641090551181097
0
LINE
8
BLACK
6
CONTINUOUS
10
3.7147955905511809
20
-5.9641090551181097
11
3.7117407086614174
21
-5.9547070472440939
0
LINE
8
BLACK
6
CONTINUOUS
10
3.7117407086614174
20
-5.9547070472440939
11
3.7101942125984251
21
-5.9449429133858267
0
LINE
8
BLACK
6
CONTINUOUS
10
3.7101942125984251
20
-5.9449429133858267
11
3.7101942125984251
21
-5.9350570866141732
0
LINE
8
BLACK
6
CONTINUOUS
10
3.7101942125984251
20
-5.9350570866141732
11
3.7117407086614174
21
-5.9252929527559051
0
LINE
8
BLACK
6
CONTINUOUS
10
3.7117407086614174
20
-5.9252929527559051
11
3.7147955905511809
21
-5.9158909448818893
0
LINE
8
BLACK
6
CONTINUOUS
10
3.7147955905511809
20
-5.9158909448818893
11
3.7192836614173226
21
-5.9070825984251965
0
LINE
8
BLACK
6
CONTINUOUS
10
3.7192836614173226
20
-5.9070825984251965
11
3.7250944094488188
21
-5.8990847637795278
0
LINE
8
BLACK
6
CONTINUOUS
10
3.7250944094488188
20
-5.8990847637795278
11
3.7320847637795276
21
-5.892094409448819
0
LINE
8
BLACK
6
CONTINUOUS
10
3.7320847637795276
20
-5.892094409448819
11
3.7400825984251966
21
-5.8862836614173224
0
LINE
8
BLACK
6
CONTINUOUS
10
3.7400825984251966
20
-5.8862836614173224
11
3.7488909448818899
21
-5.8817955905511807
0
LINE
8
BLACK
6
CONTINUOUS
10
3.7488909448818899
20
-5.8817955905511807
11
3.7582929527559052
21
-5.8787407086614172
0
LINE
8
BLACK
6
CONTINUOUS
10
3.7582929527559052
20
-5.8787407086614172
11
3.7680570866141729
21
-5.8771942125984253
0
LINE
8
BLACK
6
CONTINUOUS
10
3.7680570866141729
20
-5.8771942125984253
11
3.7730000000000001
21
-5.8769999999999998
0
LINE
8
BLACK
6
CONTINUOUS
10
3.7730000000000001
20
-5.8769999999999998
11
3.9470000000000001
21
-5.8769999999999998
0
LINE
8
BLACK
6
CONTINUOUS
10
3.9470000000000001
20
-5.8769999999999998
11
3.9519429133858268
21
-5.8771942125984253
0
CIRCLE
8
BLACK
10
3.6999999999999997
20
-3.7349999999999999
40
0.142
0
CIRCLE
8
BLACK
10
1.68988
20
-5.0899999999999999
40
0.126
0
CIRCLE
8
BLACK
10
2.2298800000000001
20
-5.0899999999999999
40
0.126
0
CIRCLE
8
BLACK
10
2.7999999999999998
20
-2.1600000000000001
40
0.142
0
CIRCLE
8
BLACK
10
2.23
20
-4.6899999999999995
40
0.126
0
LINE
8
BLACK
6
CONTINUOUS
10
1.8319429133858267
20
-5.8771942125984253
11
1.8417070472440944
21
-5.8787407086614172
0
LINE
8
BLACK
6
CONTINUOUS
10
1.8417070472440944
20
-5.8787407086614172
11
1.8511090551181102
21
-5.8817955905511807
0
LINE
8
BLACK
6
CONTINUOUS
10
1.8511090551181102
20
-5.8817955905511807
11
1.859917401574803
21
-5.8862836614173224
0
LINE
8
BLACK
6
CONTINUOUS
10
1.859917401574803
20
-5.8862836614173224
11
1.8679152362204725
21
-5.892094409448819
0
LINE
8
BLACK
6
CONTINUOUS
10
1.8679152362204725
20
-5.892094409448819
11
1.8749055905511811
21
-5.8990847637795278
0
LINE
8
BLACK
6
CONTINUOUS
10
1.8749055905511811
20
-5.8990847637795278
11
1.8807163385826771
21
-5.9070825984251965
0
LINE
8
BLACK
6
CONTINUOUS
10
1.8807163385826771
20
-5.9070825984251965
11
1.885204409448819
21
-5.9158909448818893
0
LINE
8
BLACK
6
CONTINUOUS
10
1.885204409448819
20
-5.9158909448818893
11
1.8882592913385827
21
-5.9252929527559051
0
LINE
8
BLACK
6
CONTINUOUS
10
1.8882592913385827
20
-5.9252929527559051
11
1.8898057874015748
21
-5.9350570866141732
0
LINE
8
BLACK
6
CONTINUOUS
10
1.8898057874015748
20
-5.9350570866141732
11
1.8898057874015748
21
-5.9449429133858267
0
LINE
8
BLACK
6
CONTINUOUS
10
1.8898057874015748
20
-5.9449429133858267
11
1.8882592913385827
21
-5.9547070472440939
0
LINE
8
BLACK
6
CONTINUOUS
10
1.8882592913385827
20
-5.9547070472440939
11
1.885204409448819
21
-5.9641090551181097
0
LINE
8
BLACK
6
CONTINUOUS
10
1.885204409448819
20
-5.9641090551181097
11
1.8807163385826771
21
-5.9729174015748034
0
LINE
8
BLACK
6
CONTINUOUS
10
1.8807163385826771
20
-5.9729174015748034
11
1.8749055905511811
21
-5.9809152362204721
0
LINE
8
BLACK
6
CONTINUOUS
10
1.8749055905511811
20
-5.9809152362204721
11
1.8679152362204725
21
-5.9879055905511809
0
LINE
8
BLACK
6
CONTINUOUS
10
1.8679152362204725
20
-5.9879055905511809
11
1.859917401574803
21
-5.9937163385826766
0
LINE
8
BLACK
6
CONTINUOUS
10
1.859917401574803
20
-5.9937163385826766
11
1.8511090551181102
21
-5.9982044094488192
0
LINE
8
BLACK
6
CONTINUOUS
10
1.8511090551181102
20
-5.9982044094488192
11
1.8417070472440944
21
-6.0012592913385827
0
LINE
8
BLACK
6
CONTINUOUS
10
1.8417070472440944
20
-6.0012592913385827
11
1.8319429133858267
21
-6.0028057874015746
0
LINE
8
BLACK
6
CONTINUOUS
10
1.8319429133858267
20
-6.0028057874015746
11
1.827
21
-6.0030000000000001
0
LINE
8
BLACK
6
CONTINUOUS
10
1.827
20
-6.0030000000000001
11
1.653
21
-6.0030000000000001
0
LINE
8
BLACK
6
CONTINUOUS
10
1.653
20
-6.0030000000000001
11
1.6480570866141733
21
-6.0028057874015746
0
LINE
8
BLACK
6
CONTINUOUS
10
1.6480570866141733
20
-6.0028057874015746
11
1.6382929527559056
21
-6.0012592913385827
0
LINE
8
BLACK
6
CONTINUOUS
10
1.6382929527559056
20
-6.0012592913385827
11
1.6288909448818898
21
-5.9982044094488192
0
LINE
8
BLACK
6
CONTINUOUS
10
1.6288909448818898
20
-5.9982044094488192
11
1.6200825984251968
21
-5.9937163385826766
0
LINE
8
BLACK
6
CONTINUOUS
10
1.6200825984251968
20
-5.9937163385826766
11
1.6120847637795275
21
-5.9879055905511809
0
LINE
8
BLACK
6
CONTINUOUS
10
1.6120847637795275
20
-5.9879055905511809
11
1.6050944094488189
21
-5.9809152362204721
0
LINE
8
BLACK
6
CONTINUOUS
10
1.6050944094488189
20
-5.9809152362204721
11
1.5992836614173227
21
-5.9729174015748034
0
LINE
8
BLACK
6
CONTINUOUS
10
1.5992836614173227
20
-5.9729174015748034
11
1.594795590551181
21
-5.9641090551181097
0
LINE
8
BLACK
6
CONTINUOUS
10
1.594795590551181
20
-5.9641090551181097
11
1.5917407086614173
21
-5.9547070472440939
0
LINE
8
BLACK
6
CONTINUOUS
10
1.5917407086614173
20
-5.9547070472440939
11
1.5901942125984252
21
-5.9449429133858267
0
LINE
8
BLACK
6
CONTINUOUS
10
1.5901942125984252
20
-5.9449429133858267
11
1.5901942125984252
21
-5.9350570866141732
0
LINE
8
BLACK
6
CONTINUOUS
10
1.5901942125984252
20
-5.9350570866141732
11
1.5917407086614173
21
-5.9252929527559051
0
LINE
8
BLACK
6
CONTINUOUS
10
1.5917407086614173
20
-5.9252929527559051
11
1.594795590551181
21
-5.9158909448818893
0
LINE
8
BLACK
6
CONTINUOUS
10
1.594795590551181
20
-5.9158909448818893
11
1.5992836614173227
21
-5.9070825984251965
0
LINE
8
BLACK
6
CONTINUOUS
10
1.5992836614173227
20
-5.9070825984251965
11
1.6050944094488189
21
-5.8990847637795278
0
LINE
8
BLACK
6
CONTINUOUS
10
1.6050944094488189
20
-5.8990847637795278
11
1.6120847637795275
21
-5.892094409448819
0
LINE
8
BLACK
6
CONTINUOUS
10
1.6120847637795275
20
-5.892094409448819
11
1.6200825984251968
21
-5.8862836614173224
0
LINE
8
BLACK
6
CONTINUOUS
10
1.6200825984251968
20
-5.8862836614173224
11
1.6288909448818898
21
-5.8817955905511807
0
LINE
8
BLACK
6
CONTINUOUS
10
1.6288909448818898
20
-5.8817955905511807
11
1.6382929527559056
21
-5.8787407086614172
0
LINE
8
BLACK
6
CONTINUOUS
10
1.6382929527559056
20
-5.8787407086614172
11
1.6480570866141733
21
-5.8771942125984253
0
LINE
8
BLACK
6
CONTINUOUS
10
1.6480570866141733
20
-5.8771942125984253
11
1.653
21
-5.8769999999999998
0
LINE
8
BLACK
6
CONTINUOUS
10
1.653
20
-5.8769999999999998
11
1.827
21
-5.8769999999999998
0
LINE
8
BLACK
6
CONTINUOUS
10
1.827
20
-5.8769999999999998
11
1.8319429133858267
21
-5.8771942125984253
0
CIRCLE
8
BLACK
10
3.3098799999999997
20
-5.0899999999999999
40
0.126
0
LINE
8
BLACK
6
CONTINUOUS
10
1.8319429133858267
20
-1.0571942125984253
11
1.8417070472440944
21
-1.0587407086614173
0
LINE
8
BLACK
6
CONTINUOUS
10
1.8417070472440944
20
-1.0587407086614173
11
1.8511090551181102
21
-1.0617955905511811
0
LINE
8
BLACK
6
CONTINUOUS
10
1.8511090551181102
20
-1.0617955905511811
11
1.859917401574803
21
-1.0662836614173228
0
LINE
8
BLACK
6
CONTINUOUS
10
1.859917401574803
20
-1.0662836614173228
11
1.8679152362204725
21
-1.072094409448819
0
LINE
8
BLACK
6
CONTINUOUS
10
1.8679152362204725
20
-1.072094409448819
11
1.8749055905511811
21
-1.0790847637795276
0
LINE
8
BLACK
6
CONTINUOUS
10
1.8749055905511811
20
-1.0790847637795276
11
1.8807163385826771
21
-1.0870825984251968
0
LINE
8
BLACK
6
CONTINUOUS
10
1.8807163385826771
20
-1.0870825984251968
11
1.885204409448819
21
-1.0958909448818897
0
LINE
8
BLACK
6
CONTINUOUS
10
1.885204409448819
20
-1.0958909448818897
11
1.8882592913385827
21
-1.1052929527559054
0
LINE
8
BLACK
6
CONTINUOUS
10
1.8882592913385827
20
-1.1052929527559054
11
1.8898057874015748
21
-1.1150570866141731
0
LINE
8
BLACK
6
CONTINUOUS
10
1.8898057874015748
20
-1.1150570866141731
11
1.8898057874015748
21
-1.1249429133858266
0
LINE
8
BLACK
6
CONTINUOUS
10
1.8898057874015748
20
-1.1249429133858266
11
1.8882592913385827
21
-1.1347070472440945
0
LINE
8
BLACK
6
CONTINUOUS
10
1.8882592913385827
20
-1.1347070472440945
11
1.885204409448819
21
-1.1441090551181101
0
LINE
8
BLACK
6
CONTINUOUS
10
1.885204409448819
20
-1.1441090551181101
11
1.8807163385826771
21
-1.1529174015748032
0
LINE
8
BLACK
6
CONTINUOUS
10
1.8807163385826771
20
-1.1529174015748032
11
1.8749055905511811
21
-1.1609152362204724
0
LINE
8
BLACK
6
CONTINUOUS
10
1.8749055905511811
20
-1.1609152362204724
11
1.8679152362204725
21
-1.167905590551181
0
LINE
8
BLACK
6
CONTINUOUS
10
1.8679152362204725
20
-1.167905590551181
11
1.859917401574803
21
-1.1737163385826772
0
LINE
8
BLACK
6
CONTINUOUS
10
1.859917401574803
20
-1.1737163385826772
11
1.8511090551181102
21
-1.1782044094488189
0
LINE
8
BLACK
6
CONTINUOUS
10
1.8511090551181102
20
-1.1782044094488189
11
1.8417070472440944
21
-1.1812592913385827
0
LINE
8
BLACK
6
CONTINUOUS
10
1.8417070472440944
20
-1.1812592913385827
11
1.8319429133858267
21
-1.1828057874015747
0
LINE
8
BLACK
6
CONTINUOUS
10
1.8319429133858267
20
-1.1828057874015747
11
1.827
21
-1.1830000000000001
0
LINE
8
BLACK
6
CONTINUOUS
10
1.827
20
-1.1830000000000001
11
1.653
21
-1.1830000000000001
0
LINE
8
BLACK
6
CONTINUOUS
10
1.653
20
-1.1830000000000001
11
1.6480570866141733
21
-1.1828057874015747
0
LINE
8
BLACK
6
CONTINUOUS
10
1.6480570866141733
20
-1.1828057874015747
11
1.6382929527559056
21
-1.1812592913385827
0
LINE
8
BLACK
6
CONTINUOUS
10
1.6382929527559056
20
-1.1812592913385827
11
1.6288909448818898
21
-1.1782044094488189
0
LINE
8
BLACK
6
CONTINUOUS
10
1.6288909448818898
20
-1.1782044094488189
11
1.6200825984251968
21
-1.1737163385826772
0
LINE
8
BLACK
6
CONTINUOUS
10
1.6200825984251968
20
-1.1737163385826772
11
1.6120847637795275
21
-1.167905590551181
0
LINE
8
BLACK
6
CONTINUOUS
10
1.6120847637795275
20
-1.167905590551181
11
1.6050944094488189
21
-1.1609152362204724
0
LINE
8
BLACK
6
CONTINUOUS
10
1.6050944094488189
20
-1.1609152362204724
11
1.5992836614173227
21
-1.1529174015748032
0
LINE
8
BLACK
6
CONTINUOUS
10
1.5992836614173227
20
-1.1529174015748032
11
1.594795590551181
21
-1.1441090551181101
0
LINE
8
BLACK
6
CONTINUOUS
10
1.594795590551181
20
-1.1441090551181101
11
1.5917407086614173
21
-1.1347070472440945
0
LINE
8
BLACK
6
CONTINUOUS
10
1.5917407086614173
20
-1.1347070472440945
11
1.5901942125984252
21
-1.1249429133858266
0
LINE
8
BLACK
6
CONTINUOUS
10
1.5901942125984252
20
-1.1249429133858266
11
1.5901942125984252
21
-1.1150570866141731
0
LINE
8
BLACK
6
CONTINUOUS
10
1.5901942125984252
20
-1.1150570866141731
11
1.5917407086614173
21
-1.1052929527559054
0
LINE
8
BLACK
6
CONTINUOUS
10
1.5917407086614173
20
-1.1052929527559054
11
1.594795590551181
21
-1.0958909448818897
0
LINE
8
BLACK
6
CONTINUOUS
10
1.594795590551181
20
-1.0958909448818897
11
1.5992836614173227
21
-1.0870825984251968
0
LINE
8
BLACK
6
CONTINUOUS
10
1.5992836614173227
20
-1.0870825984251968
11
1.6050944094488189
21
-1.0790847637795276
0
LINE
8
BLACK
6
CONTINUOUS
10
1.6050944094488189
20
-1.0790847637795276
11
1.6120847637795275
21
-1.072094409448819
0
LINE
8
BLACK
6
CONTINUOUS
10
1.6120847637795275
20
-1.072094409448819
11
1.6200825984251968
21
-1.0662836614173228
0
LINE
8
BLACK
6
CONTINUOUS
10
1.6200825984251968
20
-1.0662836614173228
11
1.6288909448818898
21
-1.0617955905511811
0
LINE
8
BLACK
6
CONTINUOUS
10
1.6288909448818898
20
-1.0617955905511811
11
1.6382929527559056
21
-1.0587407086614173
0
LINE
8
BLACK
6
CONTINUOUS
10
1.6382929527559056
20
-1.0587407086614173
11
1.6480570866141733
21
-1.0571942125984253
0
LINE
8
BLACK
6
CONTINUOUS
10
1.6480570866141733
20
-1.0571942125984253
11
1.653
21
-1.0569999999999999
0
LINE
8
BLACK
6
CONTINUOUS
10
1.653
20
-1.0569999999999999
11
1.827
21
-1.0569999999999999
0
LINE
8
BLACK
6
CONTINUOUS
10
1.827
20
-1.0569999999999999
11
1.8319429133858267
21
-1.0571942125984253
0
CIRCLE
8
BLACK
10
1.8999999999999999
20
-3.7349999999999999
40
0.142
0
CIRCLE
8
BLACK
10
3.8498799999999997
20
-5.4900000000000002
40
0.126
0
CIRCLE
8
BLACK
10
1.8999999999999999
20
-2.6600000000000001
40
0.142
0
CIRCLE
8
BLACK
10
2.2298800000000001
20
-5.4900000000000002
40
0.126
0
CIRCLE
8
BLACK
10
2.96
20
-3.6699999999999999
40
0.0575
0
CIRCLE
8
BLACK
10
3.
20
-3.98
40
0.0975
0
CIRCLE
8
BLACK
10
2.7999999999999998
20
-4.3600000000000003
40
0.099
0
CIRCLE
8
BLACK
10
1.68988
20
-5.4900000000000002
40
0.126
0
CIRCLE
8
BLACK
10
2.6400000000000001
20
-3.6699999999999999
40
0.0575
0
CIRCLE
8
BLACK
10
3.3098799999999997
20
-5.4900000000000002
40
0.126
0
CIRCLE
8
BLACK
10
3.6999999999999997
20
-1.585
40
0.142
0
CIRCLE
8
BLACK
10
2.7698800000000001
20
-5.4900000000000002
40
0.126
0
CIRCLE
8
BLACK
10
3.8498799999999997
20
-5.0899999999999999
40
0.126
0
CIRCLE
8
WHITE
10
1.68988
20
-4.6899999999999995
40
0.1259999606299212
0
CIRCLE
8
WHITE
10
2.7698800000000001
20
-5.0899999999999999
40
0.1259999606299212
0
CIRCLE
8
WHITE
10
2.6000000000000001
20
-3.98
40
0.0974999606299213
0
CIRCLE
8
WHITE
10
1.8999999999999999
20
-1.585
40
0.1419999606299213
0
LINE
8
WHITE
6
CONTINUOUS
10
3.7730000000000001
20
-1.1829999606299213
11
3.9470000000000001
21
-1.1829999606299213
0
ARC
8
WHITE
10
3.9470000000000001
20
-1.1199999999999999
40
0.0629999606299213
50
-90.00000000
51
90.00000000
0
LINE
8
WHITE
6
CONTINUOUS
10
3.9470000000000001
20
-1.0570000393700787
11
3.7730000000000001
21
-1.0570000393700787
0
ARC
8
WHITE
10
3.7730000000000001
20
-1.1199999999999999
40
0.0629999606299213
50
90.00000000
51
270.00000000
0
CIRCLE
8
WHITE
10
2.7999999999999998
20
-3.2349999999999999
40
0.1419999606299213
0
CIRCLE
8
WHITE
10
3.6999999999999997
20
-2.6600000000000001
40
0.1419999606299213
0
LINE
8
WHITE
6
CONTINUOUS
10
3.7730000000000001
20
-6.0029999606299214
11
3.9470000000000001
21
-6.0029999606299214
0
ARC
8
WHITE
10
3.9470000000000001
20
-5.9399999999999995
40
0.0629999606299213
50
-90.00000000
51
90.00000000
0
LINE
8
WHITE
6
CONTINUOUS
10
3.9470000000000001
20
-5.8770000393700785
11
3.7730000000000001
21
-5.8770000393700785
0
ARC
8
WHITE
10
3.7730000000000001
20
-5.9399999999999995
40
0.0629999606299213
50
90.00000000
51
270.00000000
0
CIRCLE
8
WHITE
10
3.6999999999999997
20
-3.7349999999999999
40
0.1419999606299213
0
CIRCLE
8
WHITE
10
1.68988
20
-5.0899999999999999
40
0.1259999606299212
0
CIRCLE
8
WHITE
10
2.2298800000000001
20
-5.0899999999999999
40
0.1259999606299212
0
CIRCLE
8
WHITE
10
2.7999999999999998
20
-2.1600000000000001
40
0.1419999606299213
0
CIRCLE
8
WHITE
10
2.23
20
-4.6899999999999995
40
0.1259999606299212
0
LINE
8
WHITE
6
CONTINUOUS
10
1.653
20
-6.0029999606299214
11
1.827
21
-6.0029999606299214
0
ARC
8
WHITE
10
1.827
20
-5.9399999999999995
40
0.0629999606299213
50
-90.00000000
51
90.00000000
0
LINE
8
WHITE
6
CONTINUOUS
10
1.827
20
-5.8770000393700785
11
1.653
21
-5.8770000393700785
0
ARC
8
WHITE
10
1.653
20
-5.9399999999999995
40
0.0629999606299213
50
90.00000000
51
270.00000000
0
CIRCLE
8
WHITE
10
3.3098799999999997
20
-5.0899999999999999
40
0.1259999606299212
0
LINE
8
WHITE
6
CONTINUOUS
10
1.653
20
-1.1829999606299213
11
1.827
21
-1.1829999606299213
0
ARC
8
WHITE
10
1.827
20
-1.1199999999999999
40
0.0629999606299213
50
-90.00000000
51
90.00000000
0
LINE
8
WHITE
6
CONTINUOUS
10
1.827
20
-1.0570000393700787
11
1.653
21
-1.0570000393700787
0
ARC
8
WHITE
10
1.653
20
-1.1199999999999999
40
0.0629999606299213
50
90.00000000
51
270.00000000
0
CIRCLE
8
WHITE
10
1.8999999999999999
20
-3.7349999999999999
40
0.1419999606299213
0
CIRCLE
8
WHITE
10
3.8498799999999997
20
-5.4900000000000002
40
0.1259999606299212
0
CIRCLE
8
WHITE
10
1.8999999999999999
20
-2.6600000000000001
40
0.1419999606299213
0
CIRCLE
8
WHITE
10
2.2298800000000001
20
-5.4900000000000002
40
0.1259999606299212
0
CIRCLE
8
WHITE
10
2.96
20
-3.6699999999999999
40
0.0574999606299213
0
CIRCLE
8
WHITE
10
3.
20
-3.98
40
0.0974999606299213
0
CIRCLE
8
WHITE
10
2.7999999999999998
20
-4.3600000000000003
40
0.0989999606299213
0
CIRCLE
8
WHITE
10
1.68988
20
-5.4900000000000002
40
0.1259999606299212
0
CIRCLE
8
WHITE
10
2.6400000000000001
20
-3.6699999999999999
40
0.0574999606299213
0
CIRCLE
8
WHITE
10
3.3098799999999997
20
-5.4900000000000002
40
0.1259999606299212
0
CIRCLE
8
WHITE
10
3.6999999999999997
20
-1.585
40
0.1419999606299213
0
CIRCLE
8
WHITE
10
2.7698800000000001
20
-5.4900000000000002
40
0.1259999606299212
0
CIRCLE
8
WHITE
10
3.8498799999999997
20
-5.0899999999999999
40
0.1259999606299212
  0
ENDSEC
  0
EOF
