%TF.GenerationSoftware,KiCad,Pcbnew,9.0.0*%
%TF.CreationDate,2025-03-18T19:24:19-04:00*%
%TF.ProjectId,200_Plattform,3230305f-506c-4617-9474-666f726d2e6b,A1*%
%TF.SameCoordinates,Original*%
%TF.FileFunction,Legend,Bot*%
%TF.FilePolarity,Positive*%
%FSLAX45Y45*%
G04 Gerber Fmt 4.5, Leading zero omitted, Abs format (unit mm)*
G04 Created by KiCad (PCBNEW 9.0.0) date 2025-03-18 19:24:19*
%MOMM*%
%LPD*%
G01*
G04 APERTURE LIST*
%ADD10C,0.120000*%
%ADD11C,0.300000*%
%ADD12C,0.100000*%
G04 APERTURE END LIST*
D10*
X7574280Y-4403183D02*
X7572638Y-4411436D01*
X7993535Y-4447461D02*
X8002903Y-4445598D01*
X7764935Y-4447461D02*
X7774303Y-4445598D01*
X7700527Y-4083964D02*
X7706245Y-4076208D01*
X8248937Y-4352353D02*
X8241984Y-4355233D01*
X7709798Y-4411436D02*
X7706578Y-4419211D01*
X8521867Y-4073864D02*
X8502786Y-4078275D01*
X8057340Y-4355964D02*
X8048623Y-4352353D01*
X7849672Y-4386177D02*
X7850051Y-4388084D01*
X8142990Y-4359806D02*
X8140732Y-4361314D01*
X7864137Y-4371743D02*
X7870088Y-4365793D01*
X8267855Y-4447461D02*
X8277223Y-4445598D01*
X7426505Y-4357866D02*
X7426505Y-4357866D01*
X7272857Y-4426394D02*
X7272116Y-4426272D01*
X7778593Y-4360371D02*
X7777686Y-4360977D01*
X7722499Y-4429883D02*
X7729252Y-4436636D01*
X7957852Y-4361314D02*
X7951099Y-4368068D01*
X7701556Y-4164905D02*
X7710566Y-4159764D01*
X7345802Y-4182615D02*
X7345802Y-4182615D01*
X8508750Y-4438145D02*
X8504141Y-4440054D01*
X7548630Y-4359806D02*
X7546372Y-4361314D01*
X7684063Y-3724096D02*
X7684063Y-3890609D01*
X7087380Y-4264640D02*
X7087380Y-4264641D01*
X8554310Y-4083964D02*
X8560027Y-4076208D01*
X7493702Y-4378740D02*
X7498377Y-4371743D01*
X7184618Y-4404396D02*
X7182910Y-4403569D01*
X8585885Y-4403751D02*
X8585885Y-4394768D01*
X7843523Y-3771601D02*
X7842663Y-3783804D01*
X7440012Y-4151201D02*
X7430850Y-4148859D01*
X7897320Y-4382655D02*
X7894567Y-4376009D01*
X8491641Y-4421605D02*
X8492967Y-4418403D01*
X8019668Y-4436636D02*
X8026421Y-4429883D01*
X7984118Y-4411436D02*
X7980898Y-4419211D01*
X8539115Y-3724096D02*
X8509665Y-3724096D01*
X7897320Y-4415296D02*
X7900073Y-4421942D01*
X7808880Y-4394768D02*
X7810522Y-4386514D01*
X7797821Y-4368068D02*
X7791068Y-4361314D01*
X8606086Y-4441943D02*
X8614028Y-4436636D01*
X7714440Y-4415296D02*
X7717193Y-4421942D01*
X8046941Y-4357897D02*
X8051550Y-4359806D01*
X7352596Y-4184219D02*
X7350424Y-4183335D01*
X7302363Y-4189268D02*
X7303719Y-4188835D01*
X7548443Y-3796865D02*
X7548443Y-3819099D01*
X7843520Y-3843140D02*
X7845979Y-3853841D01*
X7324344Y-4466885D02*
X7324490Y-4466894D01*
X7107170Y-3639472D02*
X7107299Y-3639086D01*
X7856375Y-4350490D02*
X7846825Y-4350490D01*
X8321261Y-4440054D02*
X8313008Y-4441695D01*
X7581922Y-4411436D02*
X7580280Y-4403183D01*
X8404448Y-4441695D02*
X8396032Y-4441695D01*
X8367955Y-4172357D02*
X8391334Y-4172357D01*
X7880250Y-4438145D02*
X7882508Y-4436636D01*
X7685432Y-4062952D02*
X7682466Y-4066586D01*
X7523698Y-4419211D02*
X7519023Y-4426208D01*
X7133521Y-3588744D02*
X7133521Y-3588744D01*
X7798018Y-4378740D02*
X7801238Y-4386514D01*
X7911159Y-3868207D02*
X7901224Y-3869410D01*
X7086948Y-4263070D02*
X7087379Y-4264640D01*
X7245001Y-3732255D02*
X7245627Y-3729917D01*
X7651650Y-4359806D02*
X7656259Y-4357897D01*
X8339426Y-3890721D02*
X8364638Y-3890721D01*
X8196109Y-4434005D02*
X8192841Y-4431821D01*
X7581488Y-4441695D02*
X7573072Y-4441695D01*
X7349912Y-3754924D02*
X7349275Y-3755242D01*
X8220360Y-4394768D02*
X8222002Y-4386514D01*
X7938398Y-4386514D02*
X7940040Y-4394768D01*
X7300271Y-4458502D02*
X7300407Y-4458546D01*
X8421441Y-4431821D02*
X8415491Y-4425871D01*
X7494867Y-4164905D02*
X7503876Y-4159764D01*
X8367057Y-4426208D02*
X8362382Y-4419211D01*
X8499739Y-4429883D02*
X8506492Y-4436636D01*
X7947248Y-4356255D02*
X7955501Y-4357897D01*
X8562494Y-3868488D02*
X8562494Y-3724096D01*
X7619493Y-3724096D02*
X7535832Y-3724096D01*
X8616303Y-4371743D02*
X8620978Y-4378740D01*
X8002903Y-4445598D02*
X8011620Y-4441987D01*
X8545459Y-4368068D02*
X8540153Y-4376009D01*
X7681181Y-4357897D02*
X7685790Y-4359806D01*
X8533192Y-4441695D02*
X8524939Y-4440054D01*
X8386097Y-4352353D02*
X8377380Y-4355964D01*
X7837565Y-4172357D02*
X7848907Y-4172357D01*
X7092600Y-4259837D02*
X7092600Y-3684674D01*
X7132415Y-3590204D02*
X7103250Y-3633953D01*
X7528807Y-4421942D02*
X7531560Y-4415296D01*
X8209498Y-4419211D02*
X8204823Y-4426208D01*
X8247374Y-4438709D02*
X8250981Y-4436299D01*
X7711440Y-4403183D02*
X7709798Y-4411436D01*
X8209498Y-4378740D02*
X8212718Y-4386514D01*
X7138077Y-3592649D02*
X7138077Y-3592649D01*
X7319129Y-4425983D02*
X7319128Y-4425984D01*
X8560260Y-4435080D02*
X8555888Y-4432158D01*
X7444762Y-4386514D02*
X7447982Y-4378740D01*
X7471825Y-4032837D02*
X7477058Y-4037990D01*
X7580033Y-4421942D02*
X7585339Y-4429883D01*
X8017410Y-4359806D02*
X8022019Y-4357897D01*
X8007248Y-4432158D02*
X8001297Y-4426208D01*
X8190696Y-4437322D02*
X8184101Y-4440054D01*
X8094343Y-4352353D02*
X8084975Y-4350490D01*
X7955577Y-4426208D02*
X7950902Y-4419211D01*
X7645860Y-4362871D02*
X7650232Y-4365793D01*
X8316662Y-4419211D02*
X8313442Y-4411436D01*
X7399837Y-4154600D02*
X7406794Y-4161475D01*
X8042342Y-4419211D02*
X8039122Y-4411436D01*
X8539115Y-3746329D02*
X8539115Y-3868488D01*
X7435863Y-4026868D02*
X7445293Y-4026020D01*
X7246836Y-3727821D02*
X7247692Y-3726966D01*
X7426506Y-4357866D02*
X7426505Y-4357866D01*
X7458133Y-4450136D02*
X7429753Y-4457032D01*
X8261152Y-4386177D02*
X8261531Y-4388084D01*
X8397240Y-4394768D02*
X8397240Y-4403183D01*
X7316223Y-3518056D02*
X7316716Y-3518055D01*
X7426645Y-4348708D02*
X7426644Y-4348696D01*
X8489752Y-4386177D02*
X8490131Y-4388084D01*
X7940040Y-4403183D02*
X7938398Y-4411436D01*
X8304158Y-4386514D02*
X8305800Y-4394768D01*
X7926323Y-3859102D02*
X7919394Y-3864774D01*
X7408722Y-4392244D02*
X7408722Y-4392244D01*
X7437215Y-4173163D02*
X7451936Y-4174076D01*
X8485529Y-4170626D02*
X8497687Y-4173163D01*
X8267722Y-4386514D02*
X8270942Y-4378740D01*
X7951099Y-4368068D02*
X7945793Y-4376009D01*
X8472931Y-3767040D02*
X8476077Y-3760987D01*
X8051550Y-4359806D02*
X8049292Y-4361314D01*
X8412701Y-4357897D02*
X8418673Y-4360371D01*
X7912132Y-4361314D02*
X7905379Y-4368068D01*
X8173030Y-4410664D02*
X8173451Y-4412781D01*
X8048623Y-4445598D02*
X8057340Y-4441987D01*
X8247306Y-4431821D02*
X8241324Y-4435818D01*
X8467267Y-4161475D02*
X8475507Y-4166692D01*
X7408722Y-3552267D02*
X7420813Y-3588542D01*
X8486905Y-4447461D02*
X8496455Y-4447461D01*
X8097270Y-4438145D02*
X8092661Y-4440054D01*
X8419296Y-4437322D02*
X8412701Y-4440054D01*
X8225419Y-4368068D02*
X8220113Y-4376009D01*
X8011620Y-4355964D02*
X8002903Y-4352353D01*
X7345802Y-4182615D02*
X7345802Y-4182615D01*
X8464380Y-4358904D02*
X8460772Y-4361314D01*
X7645860Y-4355964D02*
X7637143Y-4352353D01*
X8232534Y-4439716D02*
X8224281Y-4441358D01*
X7671473Y-4376009D02*
X7668720Y-4382655D01*
X7102552Y-3635106D02*
X7101960Y-3636317D01*
X7770735Y-4378403D02*
X7775411Y-4371406D01*
X8290312Y-4432158D02*
X8285940Y-4435080D01*
X8316662Y-4378740D02*
X8321337Y-4371743D01*
X8177353Y-4402846D02*
X8177353Y-4394431D01*
X8377380Y-4435080D02*
X8373008Y-4432158D01*
X8277223Y-4352353D02*
X8267855Y-4350490D01*
X8346461Y-4368068D02*
X8339708Y-4361314D01*
X7947682Y-4386514D02*
X7950902Y-4378740D01*
X7493899Y-4368068D02*
X7488593Y-4376009D01*
X7176234Y-4405598D02*
X7178496Y-4407745D01*
X7277457Y-3742790D02*
X7276571Y-3742348D01*
X7345801Y-4188615D02*
X7345802Y-4188615D01*
X7272037Y-4198112D02*
X7269737Y-4200412D01*
X7560210Y-4438145D02*
X7562468Y-4436636D01*
X7341745Y-4469717D02*
X7341903Y-4469711D01*
X7272116Y-3518239D02*
X7272857Y-3518117D01*
X8205931Y-4445260D02*
X8215298Y-4447124D01*
X8253256Y-4425871D02*
X8247306Y-4431821D01*
X8337450Y-4359806D02*
X8342059Y-4357897D01*
X7694427Y-4142812D02*
X7683500Y-4147943D01*
X7471697Y-4445598D02*
X7472361Y-4445730D01*
X7420813Y-3588542D02*
X7420816Y-3588547D01*
X7267979Y-4203148D02*
X7267979Y-4203149D01*
X7841776Y-4425871D02*
X7835826Y-4431821D01*
X8339708Y-4361314D02*
X8337450Y-4359806D01*
X7528560Y-4403183D02*
X7526918Y-4411436D01*
X8395465Y-4350490D02*
X8386097Y-4352353D01*
X8529341Y-4429883D02*
X8534647Y-4421942D01*
X7396655Y-4468615D02*
X7396736Y-4468619D01*
X8128920Y-4394768D02*
X8130562Y-4386514D01*
X8082953Y-4421942D02*
X8088259Y-4429883D01*
X7637812Y-4436636D02*
X7640070Y-4438145D01*
X7442873Y-4421942D02*
X7448179Y-4429883D01*
X7415163Y-4085868D02*
X7407306Y-4090139D01*
X7087380Y-3679870D02*
X7086948Y-3681440D01*
X8433423Y-4371743D02*
X8438098Y-4378740D01*
X8509778Y-3890721D02*
X8546679Y-3890721D01*
X8512408Y-4174076D02*
X8524347Y-4173488D01*
X7087380Y-3679870D02*
X7087380Y-3679870D01*
X7732928Y-4365793D02*
X7737300Y-4362871D01*
X8541442Y-4011486D02*
X8531741Y-4007498D01*
X8138457Y-4371743D02*
X8144408Y-4365793D01*
X8464448Y-4365793D02*
X8470429Y-4361796D01*
X8350312Y-4441695D02*
X8342059Y-4440054D01*
X7930503Y-4426208D02*
X7924552Y-4432158D01*
X7346513Y-4188615D02*
X7347920Y-4188834D01*
X7408272Y-3550907D02*
X7408722Y-3552267D01*
X7420813Y-4355969D02*
X7408722Y-4392244D01*
X8038688Y-4441695D02*
X8030272Y-4441695D01*
X8620978Y-4378740D02*
X8624198Y-4386514D01*
X7938398Y-4411436D02*
X7935178Y-4419211D01*
X8396032Y-4356255D02*
X8404448Y-4356255D01*
X8306047Y-4376009D02*
X8300741Y-4368068D01*
X7450104Y-4100160D02*
X7469071Y-4096383D01*
X7761483Y-4386950D02*
X7761062Y-4384833D01*
X7273981Y-3518055D02*
X7316221Y-3518055D01*
X7846254Y-4367731D02*
X7839501Y-4360977D01*
X7402908Y-3546454D02*
X7402908Y-3546454D01*
X7813939Y-4429883D02*
X7820692Y-4436636D01*
X7794451Y-4445260D02*
X7803818Y-4447124D01*
X8505765Y-4026020D02*
X8516980Y-4026887D01*
X7132416Y-4354307D02*
X7132764Y-4354808D01*
X7430850Y-4148859D02*
X7423868Y-4145312D01*
X8448960Y-4394768D02*
X8450602Y-4386514D01*
X7598512Y-4137074D02*
X7601576Y-4146545D01*
X7300407Y-4458546D02*
X7300524Y-4458628D01*
X7580033Y-4376009D02*
X7577280Y-4382655D01*
X7813369Y-4447124D02*
X7822736Y-4445260D01*
X8499542Y-4419211D02*
X8496322Y-4411436D01*
X8445960Y-4415296D02*
X8448713Y-4421942D01*
X7280308Y-4444282D02*
X7280417Y-4444426D01*
X7925970Y-4359806D02*
X7930579Y-4357897D01*
X7935178Y-4378740D02*
X7938398Y-4386514D01*
X7746017Y-4445598D02*
X7755385Y-4447461D01*
X8122920Y-4394768D02*
X8122920Y-4403183D01*
X8488915Y-4403751D02*
X8490064Y-4409529D01*
X7595768Y-4365793D02*
X7600140Y-4362871D01*
X8267288Y-4441695D02*
X8258872Y-4441695D01*
X8154570Y-4359806D02*
X8159179Y-4357897D01*
X8092737Y-4426208D02*
X8088062Y-4419211D01*
X8423206Y-4441943D02*
X8424709Y-4440939D01*
X8480389Y-3858917D02*
X8476077Y-3853830D01*
X7627208Y-4356255D02*
X7635461Y-4357897D01*
X7957183Y-4445598D02*
X7965900Y-4441987D01*
X8568308Y-4436636D02*
X8575061Y-4429883D01*
X8250619Y-4357897D02*
X8258872Y-4356255D01*
X7133133Y-4355295D02*
X7133521Y-4355767D01*
X7273981Y-3518055D02*
X7273981Y-3518055D01*
X8443898Y-4447124D02*
X8453449Y-4447124D01*
X7504427Y-4052828D02*
X7503379Y-4041428D01*
X8499749Y-3747006D02*
X8508979Y-3746329D01*
X7614057Y-4039992D02*
X7623752Y-4033697D01*
X7305838Y-4182615D02*
X7305838Y-4182615D01*
X7856242Y-4386514D02*
X7859462Y-4378740D01*
X7257027Y-3710183D02*
X7256586Y-3710404D01*
X7531560Y-4415296D02*
X7534313Y-4421942D01*
X7390744Y-4125833D02*
X7391823Y-4137074D01*
X8082953Y-4376009D02*
X8080200Y-4382655D01*
X7316221Y-3512055D02*
X7273981Y-3512055D01*
X7755518Y-4411436D02*
X7752298Y-4419211D01*
X8177106Y-4421605D02*
X8182412Y-4429546D01*
X8138381Y-4357897D02*
X8142990Y-4359806D01*
X7500408Y-4031841D02*
X7495630Y-4023711D01*
X8207612Y-4357560D02*
X8215866Y-4355918D01*
X7267979Y-4203149D02*
X7262122Y-4214864D01*
X8261531Y-4388084D02*
X8260315Y-4394200D01*
X7582055Y-4447461D02*
X7591423Y-4445598D01*
X8067663Y-4371743D02*
X8072338Y-4378740D01*
X7316194Y-4464747D02*
X7324344Y-4466885D01*
X8373008Y-4432158D02*
X8367057Y-4426208D01*
X7947815Y-4447461D02*
X7957183Y-4445598D01*
X8241170Y-4442380D02*
X8248937Y-4445598D01*
X8167432Y-4356255D02*
X8175848Y-4356255D01*
X7415029Y-4133975D02*
X7413898Y-4126406D01*
X7864061Y-4357897D02*
X7868670Y-4359806D01*
X8570583Y-4426208D02*
X8564632Y-4432158D01*
X8469770Y-4442380D02*
X8477537Y-4445598D01*
X7086687Y-3683048D02*
X7086601Y-3684670D01*
X8156828Y-4436636D02*
X8163581Y-4429883D01*
X8500484Y-4151201D02*
X8491322Y-4148859D01*
X7345806Y-4188615D02*
X7346513Y-4188615D01*
X7465005Y-4151013D02*
X7451936Y-4152068D01*
X8444466Y-4355918D02*
X8452881Y-4355918D01*
X7274773Y-4196355D02*
X7272037Y-4198112D01*
X8026618Y-4378740D02*
X8029838Y-4386514D01*
X7543171Y-4172357D02*
X7566551Y-4172357D01*
X8450677Y-3757937D02*
X8447442Y-3769712D01*
X7485240Y-4168896D02*
X7494867Y-4164905D01*
X8039122Y-4386514D02*
X8042342Y-4378740D01*
X7274773Y-4196355D02*
X7274773Y-4196355D01*
X8065388Y-4436636D02*
X8072141Y-4429883D01*
X7654577Y-4352353D02*
X7645860Y-4355964D01*
X7429753Y-4457032D02*
X7413330Y-4460150D01*
X8470584Y-4355233D02*
X8462816Y-4352016D01*
X8492515Y-4005084D02*
X8479530Y-4008311D01*
X7408722Y-4392244D02*
X7408722Y-4392244D01*
X8265833Y-4376009D02*
X8264507Y-4379211D01*
X7959729Y-3782995D02*
X7958926Y-3771601D01*
X7133521Y-4355767D02*
X7133521Y-4355767D01*
X7531560Y-4382655D02*
X7528807Y-4376009D01*
X7905182Y-4378740D02*
X7909857Y-4371743D01*
X8247306Y-4365455D02*
X8253256Y-4371406D01*
X7108242Y-3637281D02*
X7108242Y-3637281D01*
X7488593Y-4421942D02*
X7493899Y-4429883D01*
X7103249Y-4310558D02*
X7103249Y-4310557D01*
X7901962Y-4411436D02*
X7900320Y-4403183D01*
X8340377Y-4445598D02*
X8349745Y-4447461D01*
X7722302Y-4419211D02*
X7719082Y-4411436D01*
X8167432Y-4441695D02*
X8159179Y-4440054D01*
X7305127Y-3755896D02*
X7303720Y-3755676D01*
X7498377Y-4426208D02*
X7493702Y-4419211D01*
X7315978Y-4464682D02*
X7316091Y-4464697D01*
X7185538Y-4404628D02*
X7185538Y-4404627D01*
X7459640Y-4455945D02*
X7459726Y-4455905D01*
X7488840Y-4403183D02*
X7488840Y-4394768D01*
X7274869Y-4438192D02*
X7280165Y-4444173D01*
X7133521Y-3588744D02*
X7133133Y-3589216D01*
X8461135Y-4439716D02*
X8452881Y-4441358D01*
X7274773Y-4196355D02*
X7274773Y-4196355D01*
X7138077Y-3592649D02*
X7138077Y-3592649D01*
X8434531Y-4352016D02*
X8425707Y-4355671D01*
X8075425Y-4350490D02*
X8066057Y-4352353D01*
X7499983Y-4445598D02*
X7508700Y-4441987D01*
X8626087Y-4421942D02*
X8629742Y-4413118D01*
X7245000Y-3733464D02*
X7245001Y-3733464D01*
X8039255Y-4350490D02*
X8029705Y-4350490D01*
X8156828Y-4361314D02*
X8154570Y-4359806D01*
X7490615Y-4447461D02*
X7499983Y-4445598D01*
X7772621Y-4440054D02*
X7764368Y-4441695D01*
X7660661Y-4368068D02*
X7653908Y-4361314D01*
X8522588Y-4361314D02*
X8520330Y-4359806D01*
X7412270Y-4398298D02*
X7414413Y-4394142D01*
X8337450Y-4438145D02*
X8339708Y-4436636D01*
X7757160Y-4394768D02*
X7757160Y-4403183D01*
X7181407Y-3542099D02*
X7182910Y-3540941D01*
X7107625Y-3638337D02*
X7108015Y-3637621D01*
X7528560Y-4394768D02*
X7528560Y-4403183D01*
X8587895Y-4447461D02*
X8597263Y-4445598D01*
X7859462Y-4378740D02*
X7864137Y-4371743D01*
X7182910Y-3540941D02*
X7184618Y-3540115D01*
X8311553Y-4421942D02*
X8316859Y-4429883D01*
X7558792Y-4432158D02*
X7554420Y-4435080D01*
X8496478Y-3889870D02*
X8509778Y-3890721D01*
X7993402Y-4411436D02*
X7991760Y-4403183D01*
X8451216Y-4125597D02*
X8451216Y-4125833D01*
X7251880Y-4219882D02*
X7248649Y-4218490D01*
X7310243Y-4456362D02*
X7303078Y-4453197D01*
X8523257Y-4352353D02*
X8514540Y-4355964D01*
X8558256Y-4135568D02*
X8548210Y-4142812D01*
X8475974Y-4438709D02*
X8479581Y-4436299D01*
X7635461Y-4440054D02*
X7627208Y-4441695D01*
X7765873Y-4394431D02*
X7767515Y-4386177D01*
X7931490Y-3851713D02*
X7926323Y-3859102D01*
X8341983Y-4426208D02*
X8336032Y-4432158D01*
X7695952Y-4432158D02*
X7691580Y-4435080D01*
X8580120Y-4394768D02*
X8580120Y-4403183D01*
X7245000Y-3733465D02*
X7245000Y-3733464D01*
X8214360Y-4403183D02*
X8212718Y-4411436D01*
X7569221Y-4429883D02*
X7574527Y-4421942D01*
X7870088Y-4365793D02*
X7874460Y-4362871D01*
X8103060Y-4435080D02*
X8098688Y-4432158D01*
X8575061Y-4429883D02*
X8580367Y-4421942D01*
X8057340Y-4435080D02*
X8052968Y-4432158D01*
X7498301Y-4440054D02*
X7490048Y-4441695D01*
X8215298Y-4350153D02*
X8205931Y-4352016D01*
X7752101Y-4429883D02*
X7757407Y-4421942D01*
X7961528Y-4432158D02*
X7955577Y-4426208D01*
X7846825Y-4447461D02*
X7856375Y-4447461D01*
X8303211Y-3724096D02*
X8283281Y-3724096D01*
X7101960Y-4308193D02*
X7102552Y-4309404D01*
X8275617Y-4371743D02*
X8281568Y-4365793D01*
X8524939Y-4440054D02*
X8520330Y-4438145D01*
X8522588Y-4436636D02*
X8529341Y-4429883D01*
X7600140Y-4355964D02*
X7591423Y-4352353D01*
X7580280Y-4403183D02*
X7580280Y-4394768D01*
X7913446Y-4079186D02*
X7913446Y-4005731D01*
X7414256Y-4466078D02*
X7414319Y-4466056D01*
X7319128Y-4425984D02*
X7319126Y-4425985D01*
X7462874Y-4441943D02*
X7471697Y-4445598D01*
X7402908Y-3546454D02*
X7404269Y-3546903D01*
X7256092Y-3710404D02*
X7255119Y-3711054D01*
X8323612Y-4361314D02*
X8316859Y-4368068D01*
X8461135Y-4357560D02*
X8464380Y-4358904D01*
X7378422Y-4470276D02*
X7378521Y-4470286D01*
X7717193Y-4376009D02*
X7714440Y-4382655D01*
X7695650Y-4016797D02*
X7687660Y-4011486D01*
X7408272Y-4393604D02*
X7406582Y-4395918D01*
X8275541Y-4357897D02*
X8280150Y-4359806D01*
X7605930Y-4438145D02*
X7608188Y-4436636D01*
X8140063Y-4445598D02*
X8148780Y-4441987D01*
X7913446Y-4101420D02*
X7984721Y-4101420D01*
X8506492Y-4361314D02*
X8499739Y-4368068D01*
X8331660Y-4435080D02*
X8327288Y-4432158D01*
X7280165Y-4444173D02*
X7280308Y-4444282D01*
X8015992Y-4432158D02*
X8011620Y-4435080D01*
X8253256Y-4371406D02*
X8257931Y-4378403D01*
X8560260Y-4355964D02*
X8551543Y-4352353D01*
X7866412Y-4436636D02*
X7868670Y-4438145D01*
X8448960Y-4403183D02*
X8448960Y-4394768D01*
X8371590Y-4359806D02*
X8369332Y-4361314D01*
X8178995Y-4386177D02*
X8182215Y-4378403D01*
X8197107Y-4441605D02*
X8205931Y-4445260D01*
X7915808Y-4432158D02*
X7909857Y-4426208D01*
X8452295Y-4137074D02*
X8455359Y-4146545D01*
X7737300Y-4435080D02*
X7732928Y-4432158D01*
X7373107Y-4201183D02*
X7373107Y-4201183D01*
X8366981Y-4440054D02*
X8358728Y-4441695D01*
X8497159Y-4403414D02*
X8497159Y-4394431D01*
X7375790Y-3748694D02*
X7375790Y-3748694D01*
X7581488Y-4356255D02*
X7589741Y-4357897D01*
X7934981Y-4368068D02*
X7928228Y-4361314D01*
X7685790Y-4438145D02*
X7681181Y-4440054D01*
X8257734Y-4429546D02*
X8263041Y-4421605D01*
X7558792Y-4365793D02*
X7564743Y-4371743D01*
X8381752Y-4365793D02*
X8387703Y-4371743D01*
X7458608Y-4365793D02*
X7465604Y-4361117D01*
X8497159Y-4394431D02*
X8497159Y-4393863D01*
X7803818Y-4350153D02*
X7794451Y-4352016D01*
X7870088Y-4432158D02*
X7864137Y-4426208D01*
X8397487Y-4376009D02*
X8392181Y-4368068D01*
X7093072Y-3681767D02*
X7093072Y-3681767D01*
X7709665Y-4447461D02*
X7719215Y-4447461D01*
X8424709Y-4434005D02*
X8421441Y-4431821D01*
X8616303Y-4426208D02*
X8610352Y-4432158D01*
X7421331Y-4353202D02*
X7421110Y-4355074D01*
X7536202Y-4411436D02*
X7534560Y-4403183D01*
X8103060Y-4441987D02*
X8111777Y-4445598D01*
X8529538Y-4419211D02*
X8524863Y-4426208D01*
X8008100Y-4172357D02*
X8008100Y-4005731D01*
X7563137Y-4352353D02*
X7554420Y-4355964D01*
X7931483Y-3763018D02*
X7934691Y-3771980D01*
X8564349Y-4159764D02*
X8572802Y-4153450D01*
X7986007Y-4376009D02*
X7980701Y-4368068D01*
X7349912Y-3754925D02*
X7349912Y-3754925D01*
X7316091Y-4464697D02*
X7316194Y-4464747D01*
X7273981Y-4426455D02*
X7273605Y-4426455D01*
X7445293Y-4004012D02*
X7432043Y-4005084D01*
X8296263Y-4426208D02*
X8290312Y-4432158D01*
X8148780Y-4435080D02*
X8144408Y-4432158D01*
X7474804Y-4171783D02*
X7485240Y-4168896D01*
X7093072Y-4262745D02*
X7093072Y-4262745D01*
X7829844Y-4435818D02*
X7824368Y-4432158D01*
X8545713Y-4168896D02*
X8555339Y-4164905D01*
X7946040Y-4394768D02*
X7947682Y-4386514D01*
X8524939Y-4357897D02*
X8533192Y-4356255D01*
X7377440Y-4205559D02*
X7377800Y-4206763D01*
X8533192Y-4356255D02*
X8541608Y-4356255D01*
X7267979Y-4203149D02*
X7267979Y-4203149D01*
X7383547Y-4205039D02*
X7381840Y-4201292D01*
X8496322Y-4411436D02*
X8495942Y-4409529D01*
X7945793Y-4376009D02*
X7943040Y-4382655D01*
X7706578Y-4378740D02*
X7709798Y-4386514D01*
X7884859Y-4357897D02*
X7893112Y-4356255D01*
X7938832Y-4441695D02*
X7930579Y-4440054D01*
X7321025Y-3512835D02*
X7319455Y-3512403D01*
X8263041Y-4421605D02*
X8264367Y-4418403D01*
X8417766Y-4436299D02*
X8419296Y-4437322D01*
X8485121Y-3887469D02*
X8496478Y-3889870D01*
X8197107Y-4355671D02*
X8195604Y-4356675D01*
X8470429Y-4361796D02*
X8475906Y-4365455D01*
X7478742Y-4062952D02*
X7475776Y-4066586D01*
X7855494Y-3871945D02*
X7862282Y-3879059D01*
X8415491Y-4371406D02*
X8421441Y-4365455D01*
X8492081Y-3748901D02*
X8499749Y-3747006D01*
X7770932Y-4367731D02*
X7765626Y-4375672D01*
X7481273Y-4052255D02*
X7480601Y-4058281D01*
X7719082Y-4411436D02*
X7717440Y-4403183D01*
X7818417Y-4371743D02*
X7824368Y-4365793D01*
X7837457Y-4445598D02*
X7846825Y-4447461D01*
X7985760Y-4403183D02*
X7984118Y-4411436D01*
X8157497Y-4445598D02*
X8166865Y-4447461D01*
X7548630Y-4438145D02*
X7544021Y-4440054D01*
X8541745Y-4052255D02*
X8541073Y-4058281D01*
X7101478Y-3637576D02*
X7101478Y-3637576D01*
X7271752Y-3518330D02*
X7271752Y-3518330D01*
X7601968Y-4103487D02*
X7599568Y-4109317D01*
X8313442Y-4386514D02*
X8316662Y-4378740D01*
X7463875Y-4173488D02*
X7474804Y-4171783D01*
X7741672Y-4432158D02*
X7737300Y-4435080D01*
X8138457Y-4426208D02*
X8133782Y-4419211D01*
X8128673Y-4421942D02*
X8133979Y-4429883D01*
X7445293Y-4026020D02*
X7456507Y-4026887D01*
X7807143Y-3890609D02*
X7807143Y-3724096D01*
X7554420Y-4441987D02*
X7563137Y-4445598D01*
X8130695Y-4447461D02*
X8140063Y-4445598D01*
X7996622Y-4378740D02*
X8001297Y-4371743D01*
X7426335Y-4029459D02*
X7435863Y-4026868D01*
X7857079Y-4393863D02*
X7855929Y-4388084D01*
X8505823Y-4445598D02*
X8514540Y-4441987D01*
X7761971Y-4384495D02*
X7761483Y-4386950D01*
X7783126Y-4441943D02*
X7784629Y-4440939D01*
X7883177Y-4445598D02*
X7892545Y-4447461D01*
X7086948Y-3681440D02*
X7086687Y-3683048D01*
X8144408Y-4365793D02*
X8148780Y-4362871D01*
X8564900Y-4052941D02*
X8564900Y-4052828D01*
X8097270Y-4359806D02*
X8095012Y-4361314D01*
X7092600Y-3684673D02*
X7092600Y-3684673D01*
X8373008Y-4365793D02*
X8377380Y-4362871D01*
X7608857Y-4352353D02*
X7600140Y-4355964D01*
X8222002Y-4386514D02*
X8225222Y-4378740D01*
X7971690Y-4359806D02*
X7976299Y-4357897D01*
X7375799Y-4195824D02*
X7375790Y-4195816D01*
X8580367Y-4376009D02*
X8575061Y-4368068D01*
X8313575Y-4447461D02*
X8322943Y-4445598D01*
X8481967Y-3728303D02*
X8471528Y-3733167D01*
X8195604Y-4363609D02*
X8198872Y-4365793D01*
X8359295Y-4447461D02*
X8368663Y-4445598D01*
X7620588Y-4126283D02*
X7621214Y-4120141D01*
X8568977Y-4445598D02*
X8578345Y-4447461D01*
X7719215Y-4350490D02*
X7709665Y-4350490D01*
X7420816Y-3588547D02*
X7421111Y-3589436D01*
X7745348Y-4361314D02*
X7743090Y-4359806D01*
X8516980Y-4026887D02*
X8525644Y-4029242D01*
X7490048Y-4356255D02*
X7498301Y-4357897D01*
X7255119Y-3711054D02*
X7243450Y-3722723D01*
X7465604Y-4436833D02*
X7458608Y-4432158D01*
X7185538Y-3539883D02*
X7271751Y-3518330D01*
X7864137Y-4426208D02*
X7859462Y-4419211D01*
X7267488Y-4217547D02*
X7273346Y-4205832D01*
X7093071Y-4262742D02*
X7092916Y-4262276D01*
X7958928Y-3843140D02*
X7959786Y-3831013D01*
X7974536Y-3724096D02*
X7974536Y-3746329D01*
X7737300Y-4362871D02*
X7741672Y-4365793D01*
X8416096Y-4005731D02*
X8379644Y-4080906D01*
X8204823Y-4371743D02*
X8209498Y-4378740D01*
X8214607Y-4376009D02*
X8209301Y-4368068D01*
X7874460Y-4441987D02*
X7883177Y-4445598D01*
X7641488Y-4432158D02*
X7635537Y-4426208D01*
X7108242Y-3637281D02*
X7137408Y-3593532D01*
X7619493Y-3746329D02*
X7619493Y-3796865D01*
X8540400Y-4394768D02*
X8542042Y-4386514D01*
X7623752Y-4033697D02*
X7633025Y-4029459D01*
X7626000Y-4403183D02*
X7626000Y-4394768D01*
X7980898Y-4419211D02*
X7976223Y-4426208D01*
X8379644Y-4080906D02*
X8343204Y-4005731D01*
X8478767Y-4140160D02*
X8475502Y-4133975D01*
X8631605Y-4403751D02*
X8631605Y-4394768D01*
X8267855Y-4350490D02*
X8258305Y-4350490D01*
X7855862Y-4409529D02*
X7857079Y-4403414D01*
X7427180Y-4354840D02*
X7427227Y-4351741D01*
X7938265Y-4447461D02*
X7947815Y-4447461D01*
X8261152Y-4411099D02*
X8257931Y-4418874D01*
X8481856Y-4371406D02*
X8486532Y-4378403D01*
X7729252Y-4361314D02*
X7722499Y-4368068D01*
X7273981Y-4426455D02*
X7273981Y-4426455D01*
X8257931Y-4378403D02*
X8261152Y-4386177D01*
X8405706Y-4421605D02*
X8411013Y-4429546D01*
X8529544Y-4096383D02*
X8538789Y-4093565D01*
X7912132Y-4436636D02*
X7914390Y-4438145D01*
X7710068Y-4041428D02*
X7707098Y-4031841D01*
X7465172Y-4029242D02*
X7471825Y-4032837D01*
X8051550Y-4438145D02*
X8046941Y-4440054D01*
X7608857Y-4445598D02*
X7618225Y-4447461D01*
X7303499Y-3761715D02*
X7305838Y-3761896D01*
X8341983Y-4371743D02*
X8346658Y-4378740D01*
X8542175Y-4447461D02*
X8551543Y-4445598D01*
X8537282Y-4147943D02*
X8525477Y-4151013D01*
X7755518Y-4386514D02*
X7757160Y-4394768D01*
X8629742Y-4384833D02*
X8626087Y-4376009D01*
X7421110Y-4355074D02*
X7420813Y-4355969D01*
X8485700Y-3862940D02*
X8480389Y-3858917D01*
X7913446Y-4172357D02*
X7913446Y-4101420D01*
X7483075Y-4403751D02*
X7484938Y-4413118D01*
X8392181Y-4429883D02*
X8397487Y-4421942D01*
X7305838Y-3761895D02*
X7305838Y-3761895D01*
X8080200Y-4415296D02*
X8082953Y-4421942D01*
X7854353Y-4421942D02*
X7859659Y-4429883D01*
X8512408Y-4152068D02*
X8500484Y-4151201D01*
X8321261Y-4357897D02*
X8325870Y-4359806D01*
X7526785Y-4350490D02*
X7517417Y-4352353D01*
X8476077Y-3760987D02*
X8480389Y-3755900D01*
X7722302Y-4378740D02*
X7726977Y-4371743D01*
X7087379Y-4264640D02*
X7087379Y-4264640D01*
X8496322Y-4386514D02*
X8499542Y-4378740D01*
X7714440Y-4382655D02*
X7711687Y-4376009D01*
X7308171Y-4461994D02*
X7315978Y-4464682D01*
X7402908Y-3546454D02*
X7402908Y-3546454D01*
X7839139Y-4440054D02*
X7835894Y-4438709D01*
X8316859Y-4429883D02*
X8323612Y-4436636D01*
X8455359Y-4146545D02*
X8460309Y-4154600D01*
X7681493Y-4171783D02*
X7691930Y-4168896D01*
X7307935Y-4461902D02*
X7308060Y-4461930D01*
X7512330Y-4153450D02*
X7497784Y-4135568D01*
X7829690Y-4442380D02*
X7837457Y-4445598D01*
X8280150Y-4438145D02*
X8275541Y-4440054D01*
X8175848Y-4441695D02*
X8167432Y-4441695D01*
X7914390Y-4438145D02*
X7909781Y-4440054D01*
X8075425Y-4447461D02*
X8084975Y-4447461D01*
X7623000Y-4382655D02*
X7620247Y-4376009D01*
X7789537Y-4360292D02*
X7796132Y-4357560D01*
X7595768Y-4432158D02*
X7589817Y-4426208D01*
X8410834Y-3890721D02*
X8410834Y-3724096D01*
X7620588Y-4126406D02*
X7620588Y-4126283D01*
X7572638Y-4386514D02*
X7574280Y-4394768D01*
X7504328Y-4432158D02*
X7498377Y-4426208D01*
X8075558Y-4386514D02*
X8077200Y-4394768D01*
X7349913Y-3754925D02*
X7349912Y-3754925D01*
X8405954Y-4402846D02*
X8405954Y-4394431D01*
X7321025Y-4431676D02*
X7321026Y-4431676D01*
X7569418Y-4419211D02*
X7564743Y-4426208D01*
X8313008Y-4356255D02*
X8321261Y-4357897D01*
X7717193Y-4421942D02*
X7722499Y-4429883D01*
X8052968Y-4432158D02*
X8047017Y-4426208D01*
X7825527Y-4078501D02*
X7754478Y-4078501D01*
X7420898Y-4350421D02*
X7420898Y-4350421D01*
X7621853Y-4085868D02*
X7613996Y-4090139D01*
X7855929Y-4388084D02*
X7856242Y-4386514D01*
X7820692Y-4361314D02*
X7813939Y-4368068D01*
X8568977Y-4352353D02*
X8560260Y-4355964D01*
X7687208Y-4365793D02*
X7691580Y-4362871D01*
X8423206Y-4356008D02*
X8414383Y-4352353D01*
X7554420Y-4362871D02*
X7558792Y-4365793D01*
X7317847Y-3512143D02*
X7316225Y-3512056D01*
X8580120Y-4403183D02*
X8578478Y-4411436D01*
X8247997Y-4358983D02*
X8250619Y-4357897D01*
X7615138Y-4419211D02*
X7610463Y-4426208D01*
X8541073Y-4058281D02*
X8539215Y-4062952D01*
X7804386Y-4441358D02*
X7796132Y-4439716D01*
X7137728Y-4351432D02*
X7137510Y-4351132D01*
X8250981Y-4436299D02*
X8257734Y-4429546D01*
X7272742Y-3512106D02*
X7271510Y-3512258D01*
X7764935Y-4350490D02*
X7755385Y-4350490D01*
X7420898Y-3594090D02*
X7420897Y-3594090D01*
X7912785Y-3891548D02*
X7922985Y-3888981D01*
X7793343Y-4426208D02*
X7787392Y-4432158D01*
X8446293Y-3831013D02*
X8447185Y-3843434D01*
X7592092Y-4436636D02*
X7594350Y-4438145D01*
X7408722Y-3552267D02*
X7408722Y-3552267D01*
X7924552Y-4432158D02*
X7920180Y-4435080D01*
X8148449Y-4027964D02*
X8148449Y-4005731D01*
X7239000Y-4185615D02*
X7239000Y-4216095D01*
X8476077Y-3853830D02*
X8472931Y-3847778D01*
X7534313Y-4421942D02*
X7539619Y-4429883D01*
X7618358Y-4411436D02*
X7615138Y-4419211D01*
X8461074Y-4095847D02*
X8455751Y-4103487D01*
X8349745Y-4350490D02*
X8340377Y-4352353D01*
X7864061Y-4440054D02*
X7855808Y-4441695D01*
X8429617Y-4360292D02*
X8436213Y-4357560D01*
X8470950Y-3840567D02*
X8470245Y-3831935D01*
X8505823Y-4352353D02*
X8496455Y-4350490D01*
X7752101Y-4368068D02*
X7745348Y-4361314D01*
X7481632Y-4356255D02*
X7490048Y-4356255D01*
X7747699Y-4357897D02*
X7755952Y-4356255D01*
X7973948Y-4436636D02*
X7980701Y-4429883D01*
X7940170Y-3879060D02*
X7946954Y-3871945D01*
X7631746Y-4170626D02*
X7643905Y-4173163D01*
X8495942Y-4409529D02*
X8497159Y-4403414D01*
X7414413Y-3550369D02*
X7412270Y-3546213D01*
X7752298Y-4378740D02*
X7755518Y-4386514D01*
X7103250Y-3633953D02*
X7103250Y-3633953D01*
X7846254Y-4429546D02*
X7851561Y-4421605D01*
X8453449Y-4350153D02*
X8443898Y-4350153D01*
X7747623Y-4426208D02*
X7741672Y-4432158D01*
X8304592Y-4441695D02*
X8296339Y-4440054D01*
X8342059Y-4440054D02*
X8337450Y-4438145D01*
X7275029Y-4203405D02*
X7276571Y-4202163D01*
X7947682Y-4411436D02*
X7946040Y-4403183D01*
X7273981Y-3512055D02*
X7273981Y-3512055D01*
X7480179Y-4044300D02*
X7481273Y-4052142D01*
X8436213Y-4357560D02*
X8444466Y-4355918D01*
X7239879Y-4218217D02*
X7243158Y-4221496D01*
X8182412Y-4429546D02*
X8189166Y-4436299D01*
X8026618Y-4419211D02*
X8021943Y-4426208D01*
X8088062Y-4419211D02*
X8084842Y-4411436D01*
X7974617Y-4445598D02*
X7983985Y-4447461D01*
X7884783Y-4426208D02*
X7878832Y-4432158D01*
X7426505Y-3586645D02*
X7414414Y-3550370D01*
X8459439Y-3871455D02*
X8466602Y-3878219D01*
X7086600Y-4259837D02*
X7086600Y-4259837D01*
X8411013Y-4429546D02*
X8417766Y-4436299D01*
X8011620Y-4435080D02*
X8007248Y-4432158D01*
X7454932Y-4436636D02*
X7462874Y-4441943D01*
X8407595Y-4411099D02*
X8405954Y-4402846D01*
X7813939Y-4368068D02*
X7808633Y-4376009D01*
X8357273Y-4421942D02*
X8362579Y-4429883D01*
X8011620Y-4441987D02*
X8020337Y-4445598D01*
X8495888Y-4356255D02*
X8504141Y-4357897D01*
X7879467Y-3888981D02*
X7889664Y-3891548D01*
X8490131Y-4388084D02*
X8488915Y-4394200D01*
X7755952Y-4356255D02*
X7764368Y-4356255D01*
X7919394Y-3864774D02*
X7911159Y-3868207D01*
X8387703Y-4426208D02*
X8381752Y-4432158D01*
X7536202Y-4386514D02*
X7539422Y-4378740D01*
X7176233Y-4405597D02*
X7176234Y-4405598D01*
X8268559Y-4393863D02*
X8267409Y-4388084D01*
X8477534Y-4033697D02*
X8486808Y-4029459D01*
X7718648Y-4356255D02*
X7726901Y-4357897D01*
X8031727Y-4376009D02*
X8026421Y-4368068D01*
X7808880Y-4403183D02*
X7808880Y-4394768D01*
X8450602Y-4386514D02*
X8453822Y-4378740D01*
X7959786Y-3831013D02*
X7959786Y-3783804D01*
X8277223Y-4445598D02*
X8285940Y-4441987D01*
X8578345Y-4447461D02*
X8587895Y-4447461D01*
X8504217Y-4426208D02*
X8499542Y-4419211D01*
X7478317Y-4093565D02*
X7486668Y-4089566D01*
X7848907Y-4005731D02*
X7825527Y-4005731D01*
X8534400Y-4403183D02*
X8532758Y-4411436D01*
X7316221Y-4426455D02*
X7273981Y-4426455D01*
X8367057Y-4371743D02*
X8373008Y-4365793D01*
X8532297Y-4032837D02*
X8537530Y-4037990D01*
X8424709Y-4440939D02*
X8425707Y-4441605D01*
X8173451Y-4384495D02*
X8172963Y-4386950D01*
X7775411Y-4371406D02*
X7781361Y-4365455D01*
X7585142Y-4378740D02*
X7589817Y-4371743D01*
X7625753Y-4376009D02*
X7623000Y-4382655D01*
X7594350Y-4438145D02*
X7589741Y-4440054D01*
X8525477Y-4151013D02*
X8512408Y-4152068D01*
X7271751Y-4426181D02*
X7185538Y-4404628D01*
X7909781Y-4440054D02*
X7901528Y-4441695D01*
X7943040Y-4415296D02*
X7945793Y-4421942D01*
X7813369Y-4350153D02*
X7803818Y-4350153D01*
X7743090Y-4438145D02*
X7745348Y-4436636D01*
X7108242Y-4307230D02*
X7108240Y-4307228D01*
X7700297Y-4445598D02*
X7709665Y-4447461D01*
X8163778Y-4378740D02*
X8166998Y-4386514D01*
X8351767Y-4421942D02*
X8354520Y-4415296D01*
X7673495Y-4350490D02*
X7663945Y-4350490D01*
X7651982Y-4026020D02*
X7663197Y-4026887D01*
X7600140Y-4441987D02*
X7608857Y-4445598D01*
X8538789Y-4093565D02*
X8547140Y-4089566D01*
X8387455Y-3890721D02*
X8410834Y-3890721D01*
X7618792Y-4356255D02*
X7627208Y-4356255D01*
X8549433Y-4016797D02*
X8541442Y-4011486D01*
X8159179Y-4440054D02*
X8154570Y-4438145D01*
X7502910Y-4438145D02*
X7498301Y-4440054D01*
X7874460Y-4355964D02*
X7865743Y-4352353D01*
X7475776Y-4066586D02*
X7469632Y-4070765D01*
X7427228Y-3592770D02*
X7427181Y-3589671D01*
X8168887Y-4421942D02*
X8172542Y-4413118D01*
X7516748Y-4436636D02*
X7523501Y-4429883D01*
X8290312Y-4365793D02*
X8296263Y-4371743D01*
X7796132Y-4357560D02*
X7804386Y-4355918D01*
X7658626Y-4152068D02*
X7646701Y-4151201D01*
X7293046Y-4454440D02*
X7293190Y-4454504D01*
X7691580Y-4362871D02*
X7695952Y-4365793D01*
X7857079Y-4403414D02*
X7857079Y-4394431D01*
X7279483Y-4434353D02*
X7278180Y-4432455D01*
X7408722Y-4392244D02*
X7408272Y-4393604D01*
X8548210Y-4142812D02*
X8537282Y-4147943D01*
X8584022Y-4384833D02*
X8580367Y-4376009D01*
X8092109Y-3724096D02*
X7974536Y-3724096D01*
X7180788Y-3542819D02*
X7180789Y-3542817D01*
X7591423Y-4445598D02*
X7600140Y-4441987D01*
X7273981Y-4426455D02*
X7273981Y-4426455D01*
X7654577Y-4445598D02*
X7663945Y-4447461D01*
X8172963Y-4386950D02*
X8172542Y-4384833D01*
X7270297Y-3512509D02*
X7270296Y-3512509D01*
X7341903Y-4469711D02*
X7342055Y-4469751D01*
X8454543Y-4021434D02*
X8467840Y-4039992D01*
X7711687Y-4376009D02*
X7706381Y-4368068D01*
X7846451Y-4378403D02*
X7849672Y-4386177D01*
X8037480Y-4403183D02*
X8037480Y-4394768D01*
X7901962Y-4386514D02*
X7905182Y-4378740D01*
X7947815Y-4350490D02*
X7938265Y-4350490D01*
X7138077Y-4351862D02*
X7138077Y-4351862D01*
X7418295Y-4140160D02*
X7415029Y-4133975D01*
X8357273Y-4376009D02*
X8354520Y-4382655D01*
X7938265Y-4350490D02*
X7928897Y-4352353D01*
X7671720Y-4394768D02*
X7673362Y-4386514D01*
X7973948Y-4361314D02*
X7971690Y-4359806D01*
X7416242Y-4115400D02*
X7418945Y-4111738D01*
X8098688Y-4432158D02*
X8092737Y-4426208D01*
X8057340Y-4441987D02*
X8066057Y-4445598D01*
X8496010Y-4388084D02*
X8496322Y-4386514D01*
X8555888Y-4432158D02*
X8549937Y-4426208D01*
X8362579Y-4429883D02*
X8369332Y-4436636D01*
X7842663Y-3783804D02*
X7842663Y-3831013D01*
X7653908Y-4361314D02*
X7651650Y-4359806D01*
X7726901Y-4440054D02*
X7718648Y-4441695D01*
X7656259Y-4357897D02*
X7664512Y-4356255D01*
X8117861Y-4429883D02*
X8123167Y-4421942D01*
X8039122Y-4411436D02*
X8037480Y-4403183D01*
X7900320Y-4403183D02*
X7900320Y-4394768D01*
X7971690Y-4438145D02*
X7973948Y-4436636D01*
X7671720Y-4403183D02*
X7671720Y-4394768D01*
X8084842Y-4386514D02*
X8088062Y-4378740D01*
X7707217Y-3848556D02*
X7707217Y-3724096D01*
X8072141Y-4429883D02*
X8077447Y-4421942D01*
X8092737Y-4371743D02*
X8098688Y-4365793D01*
X7608188Y-4436636D02*
X7614941Y-4429883D01*
X7526785Y-4447461D02*
X7536335Y-4447461D01*
X8540651Y-4044300D02*
X8541745Y-4052142D01*
X7574527Y-4376009D02*
X7569221Y-4368068D01*
X8438098Y-4419211D02*
X8433423Y-4426208D01*
X7984118Y-4386514D02*
X7985760Y-4394768D01*
X7830349Y-4361796D02*
X7835826Y-4365455D01*
X7539619Y-4368068D02*
X7534313Y-4376009D01*
X7672928Y-4356255D02*
X7681181Y-4357897D01*
X7346513Y-3755895D02*
X7345801Y-3755895D01*
X8077973Y-4027964D02*
X8077973Y-4172357D01*
X7414414Y-4394141D02*
X7426505Y-4357866D01*
X7660858Y-4378740D02*
X7664078Y-4386514D01*
X8220360Y-4403183D02*
X8220360Y-4394768D01*
X8130562Y-4411436D02*
X8128920Y-4403183D01*
X7391313Y-4116582D02*
X7390744Y-4125597D01*
X7592092Y-4361314D02*
X7585339Y-4368068D01*
X8121145Y-4350490D02*
X8111777Y-4352353D01*
X8534400Y-4394768D02*
X8534400Y-4403183D01*
X7857079Y-4394431D02*
X7857079Y-4393863D01*
X7710232Y-4441695D02*
X7701979Y-4440054D01*
X8570659Y-4357897D02*
X8578912Y-4356255D01*
X8434531Y-4445260D02*
X8443898Y-4447124D01*
X7133522Y-3588744D02*
X7133521Y-3588744D01*
X7573072Y-4356255D02*
X7581488Y-4356255D01*
X7960110Y-4438145D02*
X7955501Y-4440054D01*
X7286586Y-4449885D02*
X7293046Y-4454440D01*
X8270942Y-4419211D02*
X8267722Y-4411436D01*
X7473379Y-4357897D02*
X7481632Y-4356255D01*
X8530104Y-4070765D02*
X8521867Y-4073864D01*
X7383547Y-3739470D02*
X7426644Y-3595814D01*
X7665720Y-4394768D02*
X7665720Y-4403183D01*
X7757407Y-4421942D02*
X7761062Y-4413118D01*
X8536248Y-4066586D02*
X8530104Y-4070765D01*
X7876074Y-3859102D02*
X7870937Y-3851717D01*
X7180789Y-3542817D02*
X7181407Y-3542099D01*
X7697370Y-4359806D02*
X7701979Y-4357897D01*
X7673362Y-4411436D02*
X7671720Y-4403183D01*
X7564819Y-4357897D02*
X7573072Y-4356255D01*
X8510168Y-4432158D02*
X8504217Y-4426208D01*
X7767515Y-4411099D02*
X7765873Y-4402846D01*
X8029705Y-4447461D02*
X8039255Y-4447461D01*
X7874460Y-4362871D02*
X7878832Y-4365793D01*
X7319128Y-3518527D02*
X7402908Y-3546454D01*
X8148780Y-4355964D02*
X8140063Y-4352353D01*
X7502123Y-4070197D02*
X7503809Y-4062567D01*
X7615138Y-4378740D02*
X7618358Y-4386514D01*
X8475906Y-4365455D02*
X8481856Y-4371406D01*
X7359911Y-4470759D02*
X7360034Y-4470742D01*
X8395598Y-4386514D02*
X8397240Y-4394768D01*
X7585339Y-4429883D02*
X7592092Y-4436636D01*
X8534647Y-4421942D02*
X8537400Y-4415296D01*
X7459819Y-4455895D02*
X7486728Y-4447561D01*
X7950902Y-4419211D02*
X7947682Y-4411436D01*
X7589741Y-4440054D02*
X7581488Y-4441695D01*
X7620247Y-4376009D02*
X7614941Y-4368068D01*
X7874460Y-4435080D02*
X7870088Y-4432158D01*
X7649004Y-4078275D02*
X7630671Y-4082687D01*
X7092600Y-3684673D02*
X7092600Y-3684180D01*
X7848835Y-4394200D02*
X7848835Y-4403751D01*
X7743090Y-4359806D02*
X7747699Y-4357897D01*
X7627775Y-4350490D02*
X7618225Y-4350490D01*
X7625634Y-4111738D02*
X7631310Y-4107425D01*
X8415491Y-4425871D02*
X8410816Y-4418874D01*
X8224849Y-4350153D02*
X8215298Y-4350153D01*
X7952508Y-3751427D02*
X7946957Y-3742854D01*
X7395953Y-4462670D02*
X7378074Y-4464302D01*
X7447982Y-4419211D02*
X7444762Y-4411436D01*
X8034480Y-4415296D02*
X8037233Y-4421942D01*
X7701903Y-4371743D02*
X7706578Y-4378740D01*
X7092706Y-4261312D02*
X7092600Y-4260330D01*
X7544021Y-4357897D02*
X7548630Y-4359806D01*
X8072338Y-4378740D02*
X8075558Y-4386514D01*
X7619493Y-3868488D02*
X7535832Y-3868488D01*
X7866615Y-3782995D02*
X7867752Y-3771977D01*
X8395598Y-4411436D02*
X8392378Y-4419211D01*
X7851561Y-4421605D02*
X7852887Y-4418403D01*
X7519099Y-4357897D02*
X7527352Y-4356255D01*
X7610463Y-4426208D02*
X7604512Y-4432158D01*
X8486335Y-4429546D02*
X8491641Y-4421605D01*
X7406582Y-3548593D02*
X7408272Y-3550907D01*
X8304158Y-4411436D02*
X8300938Y-4419211D01*
X7256586Y-3710404D02*
X7256092Y-3710404D01*
X7137957Y-4351722D02*
X7137728Y-4351432D01*
X8367955Y-4104634D02*
X8367955Y-4172357D01*
X7245000Y-3733465D02*
X7245000Y-3733465D01*
X8397487Y-4421942D02*
X8401142Y-4413118D01*
X7319126Y-4425985D02*
X7318661Y-4426140D01*
X7375790Y-3748694D02*
X7375790Y-3748694D01*
X7534560Y-4403183D02*
X7534560Y-4394768D01*
X7087380Y-4264641D02*
X7101478Y-4306935D01*
X7665720Y-4403183D02*
X7664078Y-4411436D01*
X8489752Y-4411099D02*
X8486532Y-4418874D01*
X7820692Y-4436636D02*
X7823676Y-4438630D01*
X7408962Y-4401605D02*
X7412270Y-4398298D01*
X7087379Y-4264640D02*
X7087380Y-4264640D01*
X7983985Y-4350490D02*
X7974617Y-4352353D01*
X7379189Y-4198140D02*
X7375799Y-4195824D01*
X8148780Y-4362871D02*
X8153152Y-4365793D01*
X8472931Y-3847778D02*
X8470950Y-3840567D01*
X7319129Y-4425983D02*
X7319129Y-4425983D01*
X7093071Y-3681767D02*
X7093072Y-3681767D01*
X8182412Y-4367731D02*
X8177106Y-4375672D01*
X8475635Y-4085868D02*
X8467778Y-4090139D01*
X7516748Y-4361314D02*
X7514490Y-4359806D01*
X7666205Y-4004934D02*
X7651982Y-4004012D01*
X8470245Y-3831935D02*
X8470245Y-3782883D01*
X7705497Y-3890609D02*
X7783989Y-3768051D01*
X7717440Y-4394768D02*
X7719082Y-4386514D01*
X8349878Y-4386514D02*
X8351520Y-4394768D01*
X7086600Y-4259837D02*
X7086600Y-4259837D01*
X7955577Y-4371743D02*
X7961528Y-4365793D01*
X7103249Y-4310558D02*
X7103250Y-4310558D01*
X8267288Y-4356255D02*
X8275541Y-4357897D01*
X7991760Y-4403183D02*
X7991760Y-4394768D01*
X8121712Y-4441695D02*
X8113459Y-4440054D01*
X7684063Y-3890609D02*
X7705497Y-3890609D01*
X7664078Y-4411436D02*
X7660858Y-4419211D01*
X7637539Y-4148859D02*
X7630558Y-4145312D01*
X7375790Y-4195816D02*
X7352596Y-4184219D01*
X8466602Y-3878219D02*
X8475404Y-3883679D01*
X8514540Y-4435080D02*
X8510168Y-4432158D01*
X8217360Y-4415296D02*
X8220113Y-4421942D01*
X7092915Y-3682235D02*
X7093071Y-3681767D01*
X7847392Y-4441695D02*
X7839139Y-4440054D01*
X7608188Y-4361314D02*
X7605930Y-4359806D01*
X7920180Y-4362871D02*
X7924552Y-4365793D01*
X7092705Y-3683199D02*
X7092915Y-3682235D01*
X7270638Y-4432073D02*
X7274642Y-4437902D01*
X7181407Y-4402412D02*
X7180788Y-4401692D01*
X7092600Y-3684674D02*
X7092600Y-3684673D01*
X8541608Y-4356255D02*
X8549861Y-4357897D01*
X7500652Y-4361314D02*
X7493899Y-4368068D01*
X8189166Y-4436299D02*
X8190696Y-4437322D01*
X7859659Y-4368068D02*
X7854353Y-4376009D01*
X8349745Y-4447461D02*
X8359295Y-4447461D01*
X8304025Y-4447461D02*
X8313575Y-4447461D01*
X8052968Y-4365793D02*
X8057340Y-4362871D01*
X7495630Y-4023711D02*
X7488960Y-4016797D01*
X7991513Y-4421942D02*
X7996819Y-4429883D01*
X8401563Y-4386950D02*
X8401142Y-4384833D01*
X7383547Y-4205039D02*
X7383547Y-4205039D01*
X7414413Y-4394142D02*
X7414414Y-4394141D01*
X8153152Y-4432158D02*
X8148780Y-4435080D01*
X7305839Y-4188615D02*
X7345801Y-4188615D01*
X8479219Y-4440054D02*
X8475974Y-4438709D01*
X8387703Y-4371743D02*
X8392378Y-4378740D01*
X7761971Y-4412781D02*
X7765626Y-4421605D01*
X7642552Y-4026868D02*
X7651982Y-4026020D01*
X8209301Y-4368068D02*
X8202548Y-4361314D01*
X7765626Y-4421605D02*
X7770932Y-4429546D01*
X7443120Y-4403183D02*
X7443120Y-4394768D01*
X7317825Y-4458972D02*
X7310243Y-4456362D01*
X8443207Y-4376009D02*
X8437901Y-4368068D01*
X7176233Y-3538914D02*
X7176233Y-3538914D01*
X7508700Y-4435080D02*
X7504328Y-4432158D01*
X7656183Y-4426208D02*
X7650232Y-4432158D01*
X7406794Y-4161475D02*
X7415034Y-4166692D01*
X8259624Y-3854168D02*
X8326870Y-3854168D01*
X7103250Y-4310558D02*
X7132415Y-4354307D01*
X7683532Y-4361314D02*
X7676779Y-4368068D01*
X7707098Y-4031841D02*
X7702320Y-4023711D01*
X7132416Y-3590204D02*
X7132415Y-3590204D01*
X7303719Y-4188835D02*
X7305126Y-4188616D01*
X8207612Y-4439716D02*
X8201640Y-4437243D01*
X7245000Y-3743655D02*
X7245000Y-3733465D01*
X8030272Y-4441695D02*
X8022019Y-4440054D01*
X7239518Y-3729534D02*
X7239004Y-3733447D01*
X7955501Y-4357897D02*
X7960110Y-4359806D01*
X7373107Y-4201183D02*
X7373107Y-4201183D01*
X8168640Y-4403183D02*
X8166998Y-4411436D01*
X7180788Y-4401692D02*
X7180788Y-4401692D01*
X8063130Y-4359806D02*
X8067739Y-4357897D01*
X8296339Y-4357897D02*
X8304592Y-4356255D01*
X7932056Y-3884825D02*
X7940170Y-3879060D01*
X7381839Y-3743218D02*
X7383523Y-3739517D01*
X7984721Y-4005731D02*
X7984721Y-4079186D01*
X8298973Y-4005731D02*
X8277774Y-4005731D01*
X8275818Y-4172244D02*
X8298973Y-4172244D01*
X8075992Y-4356255D02*
X8084408Y-4356255D01*
X7892678Y-4411436D02*
X7889458Y-4419211D01*
X7270296Y-4432002D02*
X7270296Y-4432002D01*
X8103060Y-4355964D02*
X8094343Y-4352353D01*
X7402908Y-4398057D02*
X7402908Y-4398057D01*
X7785944Y-3724096D02*
X7707217Y-3848556D01*
X8184101Y-4357897D02*
X8190073Y-4360371D01*
X7299044Y-4184219D02*
X7274773Y-4196355D01*
X7951099Y-4429883D02*
X7957852Y-4436636D01*
X8556102Y-4023711D02*
X8549433Y-4016797D01*
X7928897Y-4352353D02*
X7920180Y-4355964D01*
X7528807Y-4376009D02*
X7523501Y-4368068D01*
X8532758Y-4411436D02*
X8529538Y-4419211D01*
X7319455Y-4432108D02*
X7321025Y-4431677D01*
X7638870Y-4104234D02*
X7656793Y-4100160D01*
X7108015Y-3637621D02*
X7108242Y-3637281D01*
X7394071Y-4021434D02*
X7407368Y-4039992D01*
X7682863Y-4445598D02*
X7691580Y-4441987D01*
X7255397Y-4219981D02*
X7251880Y-4219882D01*
X8159179Y-4357897D02*
X8167432Y-4356255D01*
X7508700Y-4362871D02*
X7513072Y-4365793D01*
X7498301Y-4357897D02*
X7502910Y-4359806D01*
X7984721Y-4101420D02*
X7984721Y-4172357D01*
X7606527Y-4154600D02*
X7613484Y-4161475D01*
X7761550Y-4410664D02*
X7761971Y-4412781D01*
X7930503Y-4371743D02*
X7935178Y-4378740D01*
X7572505Y-4447461D02*
X7582055Y-4447461D01*
X7824368Y-4432158D02*
X7818417Y-4426208D01*
X7589817Y-4426208D02*
X7585142Y-4419211D01*
X8157497Y-4352353D02*
X8148780Y-4355964D01*
X7988760Y-4415296D02*
X7991513Y-4421942D01*
X7901224Y-3722376D02*
X7889664Y-3723270D01*
X7239228Y-4217243D02*
X7239228Y-4217244D01*
X8235848Y-4432158D02*
X8229897Y-4426208D01*
X8022019Y-4357897D02*
X8030272Y-4356255D01*
X8614028Y-4361314D02*
X8606086Y-4356008D01*
X7442873Y-4376009D02*
X7439218Y-4384833D01*
X8453351Y-4109317D02*
X8451786Y-4116582D01*
X8148780Y-4441987D02*
X8157497Y-4445598D01*
X8427472Y-4365793D02*
X8433423Y-4371743D01*
X7360034Y-4470742D02*
X7360157Y-4470763D01*
X7960110Y-4359806D02*
X7957852Y-4361314D01*
X7660661Y-4429883D02*
X7665967Y-4421942D01*
X8442960Y-4394768D02*
X8442960Y-4403183D01*
X7928228Y-4361314D02*
X7925970Y-4359806D01*
X7577280Y-4382655D02*
X7574527Y-4376009D01*
X8475906Y-4431821D02*
X8469924Y-4435818D01*
X7473379Y-4440054D02*
X7465604Y-4436833D01*
X7986007Y-4421942D02*
X7988760Y-4415296D01*
X7687660Y-4011486D02*
X7677959Y-4007498D01*
X7702320Y-4023711D02*
X7695650Y-4016797D01*
X8620978Y-4419211D02*
X8616303Y-4426208D01*
X8296339Y-4440054D02*
X8291730Y-4438145D01*
X7765626Y-4375672D02*
X7761971Y-4384495D01*
X8260315Y-4394200D02*
X8260315Y-4403751D01*
X7392878Y-4109317D02*
X7391313Y-4116582D01*
X7107170Y-4305038D02*
X7107170Y-4305038D01*
X7892545Y-4350490D02*
X7883177Y-4352353D01*
X8629742Y-4413118D02*
X8631605Y-4403751D01*
X8166998Y-4386514D02*
X8168640Y-4394768D01*
X7247400Y-4217252D02*
X7247399Y-4217252D01*
X7719215Y-4447461D02*
X7728583Y-4445598D01*
X8449716Y-3854092D02*
X8453745Y-3863278D01*
X7107299Y-4305425D02*
X7107170Y-4305038D01*
X8323612Y-4436636D02*
X8325870Y-4438145D01*
X8606086Y-4356008D02*
X8597263Y-4352353D01*
X7133521Y-4355767D02*
X7133521Y-4355767D01*
X7683748Y-4037990D02*
X7686869Y-4044300D01*
X7866615Y-3831822D02*
X7866615Y-3782995D01*
X8497159Y-4393863D02*
X8496010Y-4388084D01*
X7905182Y-4419211D02*
X7901962Y-4411436D01*
X7707217Y-3724096D02*
X7684063Y-3724096D01*
X7894320Y-4403183D02*
X7892678Y-4411436D01*
X8351520Y-4403183D02*
X8349878Y-4411436D01*
X7383547Y-3739471D02*
X7383547Y-3739470D01*
X8578478Y-4386514D02*
X8580120Y-4394768D01*
X7277457Y-4201721D02*
X7301727Y-4189586D01*
X7101478Y-3637576D02*
X7087380Y-3679870D01*
X7600140Y-4435080D02*
X7595768Y-4432158D01*
X8275818Y-4049686D02*
X8275818Y-4172244D01*
X8241324Y-4435818D02*
X8235848Y-4432158D01*
X7417062Y-4033697D02*
X7426335Y-4029459D01*
X8450602Y-4411436D02*
X8448960Y-4403183D01*
X7915808Y-4365793D02*
X7920180Y-4362871D01*
X8192841Y-4365455D02*
X8195604Y-4363609D01*
X7958926Y-3771601D02*
X7956464Y-3760887D01*
X7848907Y-4172357D02*
X7848907Y-4005731D01*
X7940173Y-3735759D02*
X7932056Y-3730002D01*
X8001297Y-4371743D02*
X8007248Y-4365793D01*
X7709798Y-4386514D02*
X7711440Y-4394768D01*
X7490048Y-4441695D02*
X7481632Y-4441695D01*
X7318661Y-4426140D02*
X7317696Y-4426350D01*
X8490064Y-4409529D02*
X8489752Y-4411099D01*
X8107432Y-4365793D02*
X8113383Y-4371743D01*
X7574280Y-4394768D02*
X7574280Y-4403183D01*
X8133979Y-4368068D02*
X8128673Y-4376009D01*
X7414385Y-4466057D02*
X7430946Y-4462913D01*
X8316859Y-4368068D02*
X8311553Y-4376009D01*
X7262120Y-4214863D02*
X7261326Y-4216432D01*
X7349913Y-4189586D02*
X7373107Y-4201183D01*
X8578478Y-4411436D02*
X8575258Y-4419211D01*
X8088259Y-4368068D02*
X8082953Y-4376009D01*
X7274775Y-4438032D02*
X7274869Y-4438192D01*
X7774303Y-4352353D02*
X7764935Y-4350490D01*
X7286321Y-4449675D02*
X7286468Y-4449762D01*
X8595581Y-4440054D02*
X8587328Y-4441695D01*
X8460309Y-4154600D02*
X8467267Y-4161475D01*
X7865743Y-4445598D02*
X7874460Y-4441987D01*
X8368663Y-4352353D02*
X8359295Y-4350490D01*
X8587328Y-4441695D02*
X8578912Y-4441695D01*
X7347920Y-4188834D02*
X7349276Y-4189268D01*
X8214607Y-4421942D02*
X8217360Y-4415296D01*
X8486808Y-4029459D02*
X8496335Y-4026868D01*
X7695952Y-4365793D02*
X7701903Y-4371743D01*
X8118058Y-4378740D02*
X8121278Y-4386514D01*
X8518912Y-4365793D02*
X8524863Y-4371743D01*
X7404805Y-4403749D02*
X7404807Y-4403749D01*
X7452657Y-4371743D02*
X7458608Y-4365793D01*
X7870937Y-3851717D02*
X7867748Y-3842766D01*
X7342055Y-4469751D02*
X7359911Y-4470759D01*
X7426505Y-4357866D02*
X7426506Y-4357866D01*
X8425707Y-4441605D02*
X8434531Y-4445260D01*
X8113383Y-4371743D02*
X8118058Y-4378740D01*
X7651982Y-4004012D02*
X7638733Y-4005084D01*
X7625753Y-4421942D02*
X7631059Y-4429883D01*
X7621214Y-4120141D02*
X7622932Y-4115400D01*
X7993535Y-4350490D02*
X7983985Y-4350490D01*
X7710566Y-4159764D02*
X7719019Y-4153450D01*
X7653908Y-4436636D02*
X7660661Y-4429883D01*
X7731510Y-4438145D02*
X7726901Y-4440054D01*
X8585885Y-4394768D02*
X8585885Y-4394200D01*
X8460772Y-4361314D02*
X8454019Y-4368068D01*
X7514490Y-4359806D02*
X7519099Y-4357897D01*
X7413898Y-4126406D02*
X7413898Y-4126283D01*
X7658626Y-4174076D02*
X7670564Y-4173488D01*
X7447982Y-4378740D02*
X7452657Y-4371743D01*
X7803127Y-4421942D02*
X7805880Y-4415296D01*
X7633025Y-4029459D02*
X7642552Y-4026868D01*
X7627642Y-4386514D02*
X7630862Y-4378740D01*
X7835826Y-4431821D02*
X7829844Y-4435818D01*
X8224849Y-4447124D02*
X8234216Y-4445260D01*
X8504141Y-4440054D02*
X8495888Y-4441695D01*
X8410816Y-4378403D02*
X8415491Y-4371406D01*
X7481273Y-4052142D02*
X7481273Y-4052255D01*
X8077447Y-4376009D02*
X8072141Y-4368068D01*
X7880250Y-4359806D02*
X7884859Y-4357897D01*
X8443207Y-4421942D02*
X8445960Y-4415296D01*
X7892545Y-4447461D02*
X7902095Y-4447461D01*
X8021633Y-3890721D02*
X8045012Y-3890721D01*
X8325870Y-4438145D02*
X8321261Y-4440054D01*
X8065388Y-4361314D02*
X8063130Y-4359806D01*
X8532625Y-4350490D02*
X8523257Y-4352353D01*
X8487472Y-4441695D02*
X8479219Y-4440054D01*
X7627208Y-4441695D02*
X7618792Y-4441695D01*
X8442106Y-4005731D02*
X8416096Y-4005731D01*
X7271752Y-3518330D02*
X7271752Y-3518330D01*
X7623000Y-4415296D02*
X7625753Y-4421942D01*
X7377800Y-4206763D02*
X7420897Y-4350420D01*
X7825527Y-4100734D02*
X7825527Y-4150123D01*
X7711117Y-4052828D02*
X7710068Y-4041428D01*
X7924552Y-4365793D02*
X7930503Y-4371743D01*
X8002903Y-4352353D02*
X7993535Y-4350490D01*
X7627642Y-4411436D02*
X7626000Y-4403183D01*
X7462874Y-4356008D02*
X7454932Y-4361314D01*
X8475502Y-4133975D02*
X8474371Y-4126406D01*
X7600140Y-4362871D02*
X7604512Y-4365793D01*
X8350312Y-4356255D02*
X8358728Y-4356255D01*
X7980701Y-4368068D02*
X7973948Y-4361314D01*
X7132764Y-4354808D02*
X7133133Y-4355295D01*
X8493107Y-4379211D02*
X8491641Y-4375672D01*
X8479581Y-4360977D02*
X8476597Y-4358983D01*
X7992968Y-4441695D02*
X7984552Y-4441695D01*
X7132415Y-4354307D02*
X7132416Y-4354307D01*
X8001221Y-4440054D02*
X7992968Y-4441695D01*
X7846451Y-4418874D02*
X7841776Y-4425871D01*
X7618225Y-4447461D02*
X7627775Y-4447461D01*
X7352596Y-4184219D02*
X7352596Y-4184219D01*
X7787392Y-4432158D02*
X7784629Y-4434005D01*
X8385428Y-4436636D02*
X8392181Y-4429883D01*
X7272116Y-4426272D02*
X7271752Y-4426181D01*
X8610352Y-4365793D02*
X8616303Y-4371743D01*
X7305126Y-4188616D02*
X7305839Y-4188615D01*
X7239000Y-3733465D02*
X7239000Y-3743655D01*
X7269737Y-3744099D02*
X7272037Y-3746398D01*
X7717440Y-4403183D02*
X7717440Y-4394768D01*
X8340377Y-4352353D02*
X8331660Y-4355964D01*
X7614941Y-4368068D02*
X7608188Y-4361314D01*
X7943040Y-4382655D02*
X7940287Y-4376009D01*
X8554470Y-4359806D02*
X8552212Y-4361314D01*
X8346658Y-4378740D02*
X8349878Y-4386514D01*
X8529341Y-4368068D02*
X8522588Y-4361314D01*
X7676779Y-4429883D02*
X7683532Y-4436636D01*
X7374231Y-3742766D02*
X7373106Y-3743328D01*
X8275617Y-4426208D02*
X8270942Y-4419211D01*
X7867752Y-3771977D02*
X7870944Y-3763014D01*
X7272037Y-3746398D02*
X7274773Y-3748156D01*
X7970272Y-4432158D02*
X7965900Y-4435080D01*
X7984552Y-4441695D02*
X7976299Y-4440054D01*
X7544021Y-4440054D02*
X7535768Y-4441695D01*
X8175893Y-4172244D02*
X8197327Y-4172244D01*
X8103060Y-4362871D02*
X8107432Y-4365793D01*
X7184083Y-4410448D02*
X7270296Y-4432002D01*
X8566050Y-4438145D02*
X8568308Y-4436636D01*
X8133782Y-4378740D02*
X8138457Y-4371743D01*
X8564632Y-4365793D02*
X8570583Y-4371743D01*
X8477537Y-4445598D02*
X8486905Y-4447461D01*
X7245627Y-3729917D02*
X7246836Y-3727821D01*
X8285940Y-4355964D02*
X8277223Y-4352353D01*
X8089734Y-3868488D02*
X8089734Y-3890721D01*
X7884783Y-4371743D02*
X7889458Y-4378740D01*
X7280417Y-4444426D02*
X7286321Y-4449675D01*
X7683500Y-4147943D02*
X7671695Y-4151013D01*
X8185783Y-4352353D02*
X8176415Y-4350490D01*
X7818417Y-4426208D02*
X7813742Y-4419211D01*
X8194606Y-4441943D02*
X8196109Y-4440939D01*
X7383547Y-3739472D02*
X7383547Y-3739471D01*
X7591423Y-4352353D02*
X7582055Y-4350490D01*
X7107170Y-3639473D02*
X7107170Y-3639472D01*
X7513072Y-4365793D02*
X7519023Y-4371743D01*
X8020337Y-4445598D02*
X8029705Y-4447461D01*
X8447442Y-3769712D02*
X8446293Y-3783804D01*
X7301727Y-3754925D02*
X7277457Y-3742790D01*
X8154570Y-4438145D02*
X8156828Y-4436636D01*
X7890067Y-4172357D02*
X7913446Y-4172357D01*
X7839139Y-4357897D02*
X7847392Y-4356255D01*
X8022019Y-4440054D02*
X8017410Y-4438145D01*
X8479530Y-4008311D02*
X8467024Y-4013658D01*
X7976299Y-4357897D02*
X7984552Y-4356255D01*
X7420898Y-4350421D02*
X7420896Y-4350421D01*
X8067663Y-4426208D02*
X8061712Y-4432158D01*
X7390744Y-4125597D02*
X7390744Y-4125833D01*
X7267488Y-4217548D02*
X7267488Y-4217548D01*
X8267409Y-4388084D02*
X8267722Y-4386514D01*
X7258388Y-3710404D02*
X7257690Y-3710404D01*
X8401142Y-4413118D02*
X8401630Y-4410664D01*
X8107432Y-4432158D02*
X8103060Y-4435080D01*
X8281568Y-4365793D02*
X8285940Y-4362871D01*
X7178496Y-3536766D02*
X7176233Y-3538914D01*
X8232172Y-4436636D02*
X8235156Y-4438630D01*
X7420897Y-4350420D02*
X7420898Y-4350421D01*
X8508750Y-4359806D02*
X8506492Y-4361314D01*
X7373106Y-3743328D02*
X7349913Y-3754925D01*
X7630558Y-4145312D02*
X7624985Y-4140160D01*
X7862282Y-3879059D02*
X7870403Y-3884825D01*
X7564743Y-4371743D02*
X7569418Y-4378740D01*
X8514540Y-4362871D02*
X8518912Y-4365793D01*
X7580280Y-4394768D02*
X7581922Y-4386514D01*
X7349275Y-3755242D02*
X7347919Y-3755676D01*
X8447185Y-3843434D02*
X8449716Y-3854092D01*
X8488915Y-4394200D02*
X8488915Y-4403751D01*
X7493899Y-4429883D02*
X7500652Y-4436636D01*
X7184083Y-3534062D02*
X7184083Y-3534062D01*
X7459726Y-4455905D02*
X7459819Y-4455895D01*
X8133782Y-4419211D02*
X8130562Y-4411436D01*
X8277774Y-4005731D02*
X8199047Y-4130191D01*
X8402051Y-4412781D02*
X8405706Y-4421605D01*
X7267488Y-4217548D02*
X7267488Y-4217547D01*
X8470950Y-3774251D02*
X8472931Y-3767040D01*
X7101478Y-3637575D02*
X7101478Y-3637576D01*
X7427227Y-4351741D02*
X7426645Y-4348708D01*
X8258305Y-4350490D02*
X8248937Y-4352353D01*
X8153152Y-4365793D02*
X8159103Y-4371743D01*
X7741867Y-4150123D02*
X7741867Y-4172357D01*
X7350423Y-3761175D02*
X7352589Y-3760293D01*
X8258872Y-4356255D02*
X8267288Y-4356255D01*
X7185538Y-4404627D02*
X7184618Y-4404396D01*
X7594350Y-4359806D02*
X7592092Y-4361314D01*
X8308800Y-4415296D02*
X8311553Y-4421942D01*
X7604512Y-4365793D02*
X7610463Y-4371743D01*
X7499983Y-4352353D02*
X7490615Y-4350490D01*
X7383523Y-3739517D02*
X7383547Y-3739472D01*
X8182215Y-4378403D02*
X8186891Y-4371406D01*
X8524347Y-4173488D02*
X8535276Y-4171783D01*
X7374232Y-4201745D02*
X7376096Y-4203433D01*
X7535832Y-3746329D02*
X7619493Y-3746329D01*
X7108015Y-4306891D02*
X7107625Y-4306174D01*
X8354520Y-4382655D02*
X8351767Y-4376009D01*
X8205931Y-4352016D02*
X8197107Y-4355671D01*
X7377797Y-3737748D02*
X7377437Y-3738952D01*
X7103250Y-3633953D02*
X7103249Y-3633953D01*
X8108850Y-4359806D02*
X8113459Y-4357897D01*
X7181150Y-4409385D02*
X7184080Y-4410447D01*
X7572505Y-4350490D02*
X7563137Y-4352353D01*
X7883177Y-4352353D02*
X7874460Y-4355964D01*
X8336032Y-4432158D02*
X8331660Y-4435080D01*
X7184080Y-4410447D02*
X7184083Y-4410448D01*
X7421167Y-4351324D02*
X7421331Y-4353202D01*
X7296376Y-4449446D02*
X7290182Y-4445079D01*
X7317696Y-4426350D02*
X7316715Y-4426455D01*
X7691580Y-4441987D02*
X7700297Y-4445598D01*
X7822736Y-4445260D02*
X7829690Y-4442380D01*
X7865743Y-4352353D02*
X7856375Y-4350490D01*
X7305838Y-4182615D02*
X7305838Y-4182615D01*
X8542175Y-4350490D02*
X8532625Y-4350490D01*
X7498377Y-4371743D02*
X7504328Y-4365793D01*
X8017410Y-4438145D02*
X8019668Y-4436636D01*
X7251561Y-4225762D02*
X7256333Y-4225746D01*
X7988760Y-4382655D02*
X7986007Y-4376009D01*
X8532625Y-4447461D02*
X8542175Y-4447461D01*
X8088062Y-4378740D02*
X8092737Y-4371743D01*
X8250981Y-4360977D02*
X8247997Y-4358983D01*
X7645860Y-4435080D02*
X7641488Y-4432158D01*
X7996622Y-4419211D02*
X7993402Y-4411436D01*
X8042342Y-4378740D02*
X8047017Y-4371743D01*
X8190073Y-4360371D02*
X8189166Y-4360977D01*
X8542042Y-4411436D02*
X8540400Y-4403183D01*
X7741867Y-4172357D02*
X7837565Y-4172357D01*
X7783126Y-4356008D02*
X7774303Y-4352353D01*
X7934695Y-3842762D02*
X7931490Y-3851713D01*
X8229897Y-4371743D02*
X8235848Y-4365793D01*
X8178995Y-4411099D02*
X8177353Y-4402846D01*
X8257734Y-4367731D02*
X8250981Y-4360977D01*
X8392378Y-4419211D02*
X8387703Y-4426208D01*
X8570583Y-4371743D02*
X8575258Y-4378740D01*
X7319129Y-4425983D02*
X7319129Y-4425983D01*
X8029705Y-4350490D02*
X8020337Y-4352353D01*
X7418945Y-4111738D02*
X7424620Y-4107425D01*
X7642872Y-3890721D02*
X7642872Y-3724096D01*
X7620000Y-4394768D02*
X7620000Y-4403183D01*
X8140732Y-4436636D02*
X8142990Y-4438145D01*
X8138381Y-4440054D02*
X8130128Y-4441695D01*
X7668720Y-4382655D02*
X7665967Y-4376009D01*
X8267342Y-4409529D02*
X8268559Y-4403414D01*
X7622932Y-4115400D02*
X7625634Y-4111738D01*
X7486668Y-4089566D02*
X7493837Y-4083964D01*
X8039255Y-4447461D02*
X8048623Y-4445598D01*
X7348141Y-3761714D02*
X7350423Y-3761175D01*
X7909857Y-4426208D02*
X7905182Y-4419211D01*
X8168640Y-4394768D02*
X8168640Y-4403183D01*
X7378325Y-4470298D02*
X7378422Y-4470276D01*
X7421332Y-3591309D02*
X7421168Y-3593187D01*
X7914390Y-4359806D02*
X7912132Y-4361314D01*
X7324626Y-4466945D02*
X7341745Y-4469717D01*
X7458608Y-4432158D02*
X7452657Y-4426208D01*
X7101960Y-3636317D02*
X7101478Y-3637575D01*
X8261464Y-4409529D02*
X8261152Y-4411099D01*
X7544097Y-4371743D02*
X7550048Y-4365793D01*
X8377380Y-4441987D02*
X8386097Y-4445598D01*
X8496455Y-4447461D02*
X8505823Y-4445598D01*
X8519988Y-4004934D02*
X8505765Y-4004012D01*
X7347919Y-3755676D02*
X7346513Y-3755895D01*
X8029838Y-4411436D02*
X8026618Y-4419211D01*
X7178496Y-4407745D02*
X7181150Y-4409385D01*
X7709665Y-4350490D02*
X7700297Y-4352353D01*
X7503809Y-4062567D02*
X7504427Y-4052941D01*
X7889458Y-4378740D02*
X7892678Y-4386514D01*
X7604512Y-4432158D02*
X7600140Y-4435080D01*
X7681257Y-4426208D02*
X7676582Y-4419211D01*
X8506492Y-4436636D02*
X8508750Y-4438145D01*
X8418673Y-4360371D02*
X8417766Y-4360977D01*
X7613996Y-4090139D02*
X7607291Y-4095847D01*
X7560210Y-4359806D02*
X7564819Y-4357897D01*
X7755385Y-4350490D02*
X7746017Y-4352353D01*
X7670564Y-4173488D02*
X7681493Y-4171783D01*
X7610539Y-4440054D02*
X7605930Y-4438145D01*
X7920180Y-4441987D02*
X7928897Y-4445598D01*
X7132764Y-3589703D02*
X7132416Y-3590204D01*
X7273981Y-3512055D02*
X7272742Y-3512106D01*
X8026421Y-4429883D02*
X8031727Y-4421942D01*
X8547140Y-4089566D02*
X8554310Y-4083964D01*
X7299045Y-4184218D02*
X7299045Y-4184219D01*
X7911162Y-3746605D02*
X7919398Y-3750022D01*
X7426644Y-3595814D02*
X7426644Y-3595814D01*
X8084975Y-4447461D02*
X8094343Y-4445598D01*
X8452881Y-4355918D02*
X8461135Y-4357560D01*
X8277892Y-4361314D02*
X8271139Y-4368068D01*
X7884859Y-4440054D02*
X7880250Y-4438145D01*
X7637143Y-4352353D02*
X7627775Y-4350490D01*
X7319128Y-3518527D02*
X7319128Y-3518527D01*
X7535768Y-4441695D02*
X7527352Y-4441695D01*
X7813742Y-4378740D02*
X7818417Y-4371743D01*
X8464448Y-4432158D02*
X8458497Y-4426208D01*
X7267979Y-3741362D02*
X7269737Y-3744099D01*
X7803127Y-4376009D02*
X7797821Y-4368068D01*
X8397240Y-4403183D02*
X8395598Y-4411436D01*
X8537400Y-4382655D02*
X8534647Y-4376009D01*
X8572802Y-4153450D02*
X8558256Y-4135568D01*
X8442960Y-4403183D02*
X8441318Y-4411436D01*
X7900073Y-4421942D02*
X7905379Y-4429883D01*
X8163581Y-4368068D02*
X8156828Y-4361314D01*
X8391334Y-4104634D02*
X8442106Y-4005731D01*
X8529538Y-4378740D02*
X8532758Y-4386514D01*
X7539422Y-4378740D02*
X7544097Y-4371743D01*
X8294657Y-4445598D02*
X8304025Y-4447461D01*
X8471528Y-3733167D02*
X8462855Y-3739737D01*
X7894567Y-4376009D02*
X7889261Y-4368068D01*
X7638733Y-4005084D02*
X7625747Y-4008311D01*
X7619493Y-3796865D02*
X7548443Y-3796865D01*
X8411013Y-4367731D02*
X8405706Y-4375672D01*
X8186891Y-4371406D02*
X8192841Y-4365455D01*
X8092661Y-4357897D02*
X8097270Y-4359806D01*
X8258872Y-4441695D02*
X8250619Y-4440054D01*
X8300938Y-4419211D02*
X8296263Y-4426208D01*
X8587895Y-4350490D02*
X8578345Y-4350490D01*
X7598003Y-4116582D02*
X7597434Y-4125597D01*
X7493837Y-4083964D02*
X7499555Y-4076208D01*
X7867748Y-3842766D02*
X7866615Y-3831822D01*
X8387779Y-4440054D02*
X8383170Y-4438145D01*
X7092916Y-4262276D02*
X7092706Y-4261312D01*
X7889261Y-4368068D02*
X7882508Y-4361314D01*
X8196109Y-4440939D02*
X8197107Y-4441605D01*
X7624985Y-4140160D02*
X7621719Y-4133975D01*
X7934691Y-3771980D02*
X7935833Y-3782995D01*
X7774303Y-4445598D02*
X7783126Y-4441943D01*
X7882508Y-4361314D02*
X7880250Y-4359806D01*
X7273605Y-4426455D02*
X7272857Y-4426394D01*
X7420898Y-3594090D02*
X7420898Y-3594090D01*
X7360157Y-4470763D02*
X7378325Y-4470298D01*
X8042539Y-4429883D02*
X8049292Y-4436636D01*
X8325870Y-4359806D02*
X8323612Y-4361314D01*
X7825527Y-4027964D02*
X7825527Y-4078501D01*
X8130695Y-4350490D02*
X8121145Y-4350490D01*
X8405015Y-4447461D02*
X8414383Y-4445598D01*
X7785627Y-4441605D02*
X7794451Y-4445260D01*
X7396736Y-4468619D02*
X7414256Y-4466078D01*
X8034480Y-4382655D02*
X8031727Y-4376009D01*
X7691580Y-4435080D02*
X7687208Y-4432158D01*
X7745348Y-4436636D02*
X7752101Y-4429883D01*
X7461394Y-4073864D02*
X7442314Y-4078275D01*
X8479219Y-4357897D02*
X8487472Y-4356255D01*
X7184083Y-3534062D02*
X7181150Y-3535126D01*
X7276571Y-4202163D02*
X7277457Y-4201721D01*
X7618225Y-4350490D02*
X7608857Y-4352353D01*
X8331660Y-4362871D02*
X8336032Y-4365793D01*
X7480970Y-4011486D02*
X7471269Y-4007498D01*
X8057340Y-4362871D02*
X8061712Y-4365793D01*
X8562494Y-3890721D02*
X8562494Y-3868488D01*
X7093072Y-4262744D02*
X7093071Y-4262742D01*
X8336032Y-4365793D02*
X8341983Y-4371743D01*
X8487472Y-4356255D02*
X8495888Y-4356255D01*
X8235780Y-4358904D02*
X8232172Y-4361314D01*
X7316222Y-4432455D02*
X7316222Y-4432455D01*
X8185783Y-4445598D02*
X8194606Y-4441943D01*
X8029838Y-4386514D02*
X8031480Y-4394768D01*
X8121145Y-4447461D02*
X8130695Y-4447461D01*
X8508979Y-3746329D02*
X8539115Y-3746329D01*
X8540153Y-4376009D02*
X8537400Y-4382655D01*
X7432043Y-4005084D02*
X7419057Y-4008311D01*
X7319455Y-3512403D02*
X7317847Y-3512143D01*
X7284538Y-4440061D02*
X7279483Y-4434353D01*
X7841776Y-4371406D02*
X7846451Y-4378403D01*
X7902095Y-4350490D02*
X7892545Y-4350490D01*
X7305838Y-4182615D02*
X7303500Y-4182796D01*
X7273787Y-4204946D02*
X7275029Y-4203405D01*
X8285940Y-4441987D02*
X8294657Y-4445598D01*
X8084408Y-4441695D02*
X8075992Y-4441695D01*
X7853027Y-4379211D02*
X7851561Y-4375672D01*
X8173451Y-4412781D02*
X8177106Y-4421605D01*
X7402908Y-4398057D02*
X7319129Y-4425983D01*
X7504427Y-4052941D02*
X7504427Y-4052828D01*
X7777686Y-4436299D02*
X7779216Y-4437322D01*
X7822736Y-4352016D02*
X7813369Y-4350153D01*
X7846825Y-4350490D02*
X7837457Y-4352353D01*
X7687963Y-4052255D02*
X7687291Y-4058281D01*
X7980898Y-4378740D02*
X7984118Y-4386514D01*
X8045012Y-3890721D02*
X8045012Y-3746329D01*
X8514540Y-4355964D02*
X8505823Y-4352353D01*
X8268559Y-4394431D02*
X8268559Y-4393863D01*
X7093072Y-4262745D02*
X7093072Y-4262744D01*
X8570659Y-4440054D02*
X8566050Y-4438145D01*
X8462855Y-3739737D02*
X8455813Y-3748050D01*
X7911463Y-4445598D02*
X7920180Y-4441987D01*
X8049292Y-4361314D02*
X8042539Y-4368068D01*
X7848835Y-4403751D02*
X7849984Y-4409529D01*
X7562468Y-4361314D02*
X7560210Y-4359806D01*
X7691930Y-4168896D02*
X7701556Y-4164905D01*
X8467024Y-4013658D02*
X8454543Y-4021434D01*
X8285940Y-4362871D02*
X8290312Y-4365793D01*
X7245000Y-4214853D02*
X7245000Y-4185615D01*
X7396578Y-4468638D02*
X7396655Y-4468615D01*
X7534560Y-4394768D02*
X7536202Y-4386514D01*
X7486728Y-4447561D02*
X7486913Y-4447461D01*
X8322943Y-4445598D02*
X8331660Y-4441987D01*
X8534647Y-4376009D02*
X8529341Y-4368068D01*
X7421111Y-3589436D02*
X7421332Y-3591309D01*
X8098688Y-4365793D02*
X8103060Y-4362871D01*
X7404269Y-3546903D02*
X7406582Y-3548593D01*
X7544097Y-4426208D02*
X7539422Y-4419211D01*
X8304025Y-4350490D02*
X8294657Y-4352353D01*
X7101478Y-4306935D02*
X7101478Y-4306935D01*
X7802880Y-4403183D02*
X7801238Y-4411436D01*
X7710232Y-4356255D02*
X7718648Y-4356255D01*
X7706245Y-4076208D02*
X7708813Y-4070197D01*
X7940040Y-4394768D02*
X7940040Y-4403183D01*
X7137408Y-4350979D02*
X7108242Y-4307230D01*
X8392378Y-4378740D02*
X8395598Y-4386514D01*
X7303500Y-4182796D02*
X7301217Y-4183335D01*
X7836517Y-4358983D02*
X7839139Y-4357897D01*
X8455751Y-4103487D02*
X8453351Y-4109317D01*
X8541745Y-4052142D02*
X8541745Y-4052255D01*
X7664512Y-4441695D02*
X7656259Y-4440054D01*
X7784124Y-4363609D02*
X7787392Y-4365793D01*
X7500652Y-4436636D02*
X7502910Y-4438145D01*
X7668720Y-4415296D02*
X7671473Y-4421942D01*
X7675761Y-4096383D02*
X7685007Y-4093565D01*
X8504141Y-4357897D02*
X8508750Y-4359806D01*
X7348141Y-4182796D02*
X7345802Y-4182615D01*
X8005830Y-4438145D02*
X8001221Y-4440054D01*
X8177106Y-4375672D02*
X8173451Y-4384495D01*
X8185085Y-3890721D02*
X8196774Y-3890721D01*
X8121278Y-4411436D02*
X8118058Y-4419211D01*
X7901528Y-4356255D02*
X7909781Y-4357897D01*
X8311553Y-4376009D02*
X8308800Y-4382655D01*
X7523698Y-4378740D02*
X7526918Y-4386514D01*
X8173395Y-3868488D02*
X8089734Y-3868488D01*
X7316716Y-3518055D02*
X7317696Y-3518161D01*
X7301728Y-3754925D02*
X7301728Y-3754925D01*
X7783989Y-3768051D02*
X7783989Y-3890609D01*
X7984721Y-4079186D02*
X7913446Y-4079186D01*
X8475507Y-4166692D02*
X8485529Y-4170626D01*
X7137510Y-3593378D02*
X7137727Y-3593079D01*
X8614028Y-4436636D02*
X8620781Y-4429883D01*
X7870403Y-3730002D02*
X7862279Y-3735760D01*
X8130128Y-4441695D02*
X8121712Y-4441695D01*
X7184618Y-3540115D02*
X7185538Y-3539883D01*
X7901224Y-3892441D02*
X7912785Y-3891548D01*
X8159103Y-4371743D02*
X8163778Y-4378740D01*
X8484453Y-4082687D02*
X8475635Y-4085868D01*
X7133521Y-3588744D02*
X7133521Y-3588744D01*
X7701979Y-4357897D02*
X7710232Y-4356255D01*
X7264708Y-4221426D02*
X7267455Y-4217591D01*
X7770932Y-4429546D02*
X7777686Y-4436299D01*
X7650232Y-4432158D02*
X7645860Y-4435080D01*
X7290182Y-4445079D02*
X7284538Y-4440061D01*
X8042539Y-4368068D02*
X8037233Y-4376009D01*
X7637143Y-4445598D02*
X7645860Y-4441987D01*
X7378521Y-4470286D02*
X7396578Y-4468638D01*
X7305838Y-3761896D02*
X7305838Y-3761895D01*
X7133521Y-3588744D02*
X7133521Y-3588744D01*
X7920180Y-4355964D02*
X7911463Y-4352353D01*
X7599568Y-4109317D02*
X7598003Y-4116582D01*
X8437901Y-4429883D02*
X8443207Y-4421942D01*
X8175848Y-4356255D02*
X8184101Y-4357897D01*
X7870403Y-3884825D02*
X7879467Y-3888981D01*
X7258701Y-4218774D02*
X7255397Y-4219981D01*
X7935178Y-4419211D02*
X7930503Y-4426208D01*
X7394886Y-4146545D02*
X7399837Y-4154600D01*
X7852887Y-4418403D02*
X7854353Y-4421942D01*
X7757407Y-4376009D02*
X7752101Y-4368068D01*
X8159103Y-4426208D02*
X8153152Y-4432158D01*
X8387455Y-3724096D02*
X8387455Y-3890721D01*
X7976223Y-4371743D02*
X7980898Y-4378740D01*
X8080200Y-4382655D02*
X8077447Y-4376009D01*
X7646701Y-4151201D02*
X7637539Y-4148859D01*
X7349912Y-4189586D02*
X7349912Y-4189586D01*
X8291730Y-4438145D02*
X8293988Y-4436636D01*
X8562595Y-4070197D02*
X8564282Y-4062567D01*
X8030876Y-4005731D02*
X8030876Y-4027964D01*
X8424204Y-4356675D02*
X8423206Y-4356008D01*
X8624198Y-4386514D02*
X8625840Y-4394768D01*
X7480601Y-4058281D02*
X7478742Y-4062952D01*
X7909857Y-4371743D02*
X7915808Y-4365793D01*
X7299045Y-4184219D02*
X7299044Y-4184219D01*
X7301217Y-4183335D02*
X7299045Y-4184218D01*
X8003572Y-4361314D02*
X7996819Y-4368068D01*
X8192841Y-4431821D02*
X8186891Y-4425871D01*
X7404807Y-3540762D02*
X7404805Y-3540762D01*
X8202548Y-4436636D02*
X8209301Y-4429883D01*
X8241829Y-4361796D02*
X8247306Y-4365455D01*
X7737300Y-4441987D02*
X7746017Y-4445598D01*
X8067739Y-4440054D02*
X8063130Y-4438145D01*
X7321026Y-4431676D02*
X7404805Y-4403749D01*
X7137727Y-3593079D02*
X7137956Y-3592789D01*
X8113459Y-4357897D02*
X8121712Y-4356255D01*
X8232172Y-4361314D02*
X8225419Y-4368068D01*
X8545459Y-4429883D02*
X8552212Y-4436636D01*
X7459516Y-4004934D02*
X7445293Y-4004012D01*
X7345801Y-3755895D02*
X7305838Y-3755895D01*
X8532758Y-4386514D02*
X8534400Y-4394768D01*
X7870944Y-3763014D02*
X7876074Y-3755665D01*
X8357520Y-4394768D02*
X8359162Y-4386514D01*
X7404807Y-4403749D02*
X7408962Y-4401605D01*
X7271510Y-3512258D02*
X7270297Y-3512509D01*
X8524863Y-4426208D02*
X8518912Y-4432158D01*
X8555888Y-4365793D02*
X8560260Y-4362871D01*
X7741672Y-4365793D02*
X7747623Y-4371743D01*
X7526918Y-4411436D02*
X7523698Y-4419211D01*
X7377800Y-4206763D02*
X7377800Y-4206763D01*
X7803818Y-4447124D02*
X7813369Y-4447124D01*
X8520330Y-4438145D02*
X8522588Y-4436636D01*
X7569418Y-4378740D02*
X7572638Y-4386514D01*
X8496335Y-4026868D02*
X8505765Y-4026020D01*
X7376095Y-3741079D02*
X7374231Y-3742766D01*
X7614941Y-4429883D02*
X7620247Y-4421942D01*
X7582055Y-4350490D02*
X7572505Y-4350490D01*
X7414319Y-4466056D02*
X7414385Y-4466057D01*
X7947248Y-4441695D02*
X7938832Y-4441695D01*
X8061712Y-4365793D02*
X8067663Y-4371743D01*
X7676321Y-4070765D02*
X7668084Y-4073864D01*
X8410834Y-3724096D02*
X8387455Y-3724096D01*
X8469924Y-4435818D02*
X8464448Y-4432158D01*
X7523501Y-4368068D02*
X7516748Y-4361314D01*
X8322943Y-4352353D02*
X8313575Y-4350490D01*
X7301731Y-4189583D02*
X7302363Y-4189268D01*
X7270296Y-4432002D02*
X7270638Y-4432073D01*
X7137510Y-4351132D02*
X7137408Y-4350979D01*
X8248937Y-4445598D02*
X8258305Y-4447461D01*
X7894567Y-4421942D02*
X7897320Y-4415296D01*
X7605930Y-4359806D02*
X7610539Y-4357897D01*
X8554470Y-4438145D02*
X8549861Y-4440054D01*
X7965900Y-4435080D02*
X7961528Y-4432158D01*
X7755952Y-4441695D02*
X7747699Y-4440054D01*
X7946040Y-4403183D02*
X7946040Y-4394768D01*
X8225419Y-4429883D02*
X8232172Y-4436636D01*
X8083200Y-4394768D02*
X8084842Y-4386514D01*
X7909781Y-4357897D02*
X7914390Y-4359806D01*
X8089734Y-3890721D02*
X8185085Y-3890721D01*
X8458497Y-4371743D02*
X8464448Y-4365793D01*
X8545262Y-4378740D02*
X8549937Y-4371743D01*
X7754478Y-4078501D02*
X7754478Y-4100734D01*
X8235156Y-4438630D02*
X8232534Y-4439716D01*
X8452881Y-4441358D02*
X8444466Y-4441358D01*
X8474371Y-4126406D02*
X8474371Y-4126283D01*
X8479417Y-4111738D02*
X8485092Y-4107425D01*
X8445960Y-4382655D02*
X8443207Y-4376009D01*
X8454019Y-4368068D02*
X8448713Y-4376009D01*
X8331660Y-4441987D02*
X8340377Y-4445598D01*
X7926323Y-3755665D02*
X7931483Y-3763018D01*
X7601576Y-4146545D02*
X7606527Y-4154600D01*
X8492081Y-3865917D02*
X8485700Y-3862940D01*
X8381752Y-4432158D02*
X8377380Y-4435080D01*
X7889664Y-3723270D02*
X7879467Y-3725841D01*
X7349912Y-3754925D02*
X7349912Y-3754924D01*
X8603356Y-4436833D02*
X8595581Y-4440054D01*
X7274642Y-4437902D02*
X7274775Y-4438032D01*
X8077200Y-4394768D02*
X8077200Y-4403183D01*
X8362382Y-4378740D02*
X8367057Y-4371743D01*
X7182910Y-4403569D02*
X7181407Y-4402412D01*
X8546679Y-3890721D02*
X8562494Y-3890721D01*
X7487737Y-4142812D02*
X7476810Y-4147943D01*
X8383170Y-4438145D02*
X8385428Y-4436636D01*
X7706578Y-4419211D02*
X7701903Y-4426208D01*
X7414414Y-3550370D02*
X7414413Y-3550369D01*
X8610352Y-4432158D02*
X8603356Y-4436833D01*
X8031480Y-4394768D02*
X8031480Y-4403183D01*
X8294657Y-4352353D02*
X8285940Y-4355964D01*
X7868670Y-4359806D02*
X7866412Y-4361314D01*
X7645860Y-4441987D02*
X7654577Y-4445598D01*
X7275029Y-3741106D02*
X7273787Y-3739564D01*
X7243158Y-4221496D02*
X7247021Y-4224297D01*
X7564819Y-4440054D02*
X7560210Y-4438145D01*
X8624198Y-4411436D02*
X8620978Y-4419211D01*
X7107299Y-3639086D02*
X7107625Y-3638337D01*
X8030876Y-4027964D02*
X8077973Y-4027964D01*
X7259923Y-3711834D02*
X7259206Y-3710909D01*
X7108242Y-3637281D02*
X7108242Y-3637281D01*
X7299044Y-3760291D02*
X7299044Y-3760292D01*
X7324490Y-4466894D02*
X7324626Y-4466945D01*
X7676779Y-4368068D02*
X7671473Y-4376009D01*
X8306047Y-4421942D02*
X8308800Y-4415296D01*
X8366981Y-4357897D02*
X8371590Y-4359806D01*
X8321337Y-4426208D02*
X8316662Y-4419211D01*
X7543171Y-4005731D02*
X7543171Y-4172357D01*
X7855808Y-4356255D02*
X7864061Y-4357897D01*
X7686869Y-4044300D02*
X7687963Y-4052142D01*
X7273346Y-3738679D02*
X7259923Y-3711834D01*
X8424204Y-4363609D02*
X8427472Y-4365793D01*
X8220113Y-4421942D02*
X8225419Y-4429883D01*
X7381840Y-4201292D02*
X7379189Y-4198140D01*
X7554420Y-4355964D02*
X7545703Y-4352353D01*
X7377437Y-3738952D02*
X7376095Y-3741079D01*
X8448713Y-4421942D02*
X8454019Y-4429883D01*
X8084408Y-4356255D02*
X8092661Y-4357897D01*
X8066057Y-4352353D02*
X8057340Y-4355964D01*
X8578345Y-4350490D02*
X8568977Y-4352353D01*
X8562494Y-3724096D02*
X8539115Y-3724096D01*
X8385428Y-4361314D02*
X8383170Y-4359806D01*
X8300741Y-4429883D02*
X8306047Y-4421942D01*
X8173395Y-3724096D02*
X8173395Y-3868488D01*
X8484341Y-4145312D02*
X8478767Y-4140160D01*
X7539619Y-4429883D02*
X7546372Y-4436636D01*
X7408722Y-3552267D02*
X7408722Y-3552267D01*
X8552212Y-4436636D02*
X8554470Y-4438145D01*
X8234216Y-4352016D02*
X8224849Y-4350153D01*
X7271752Y-4426181D02*
X7271752Y-4426181D01*
X8111108Y-4436636D02*
X8117861Y-4429883D01*
X8343204Y-4005731D02*
X8317193Y-4005731D01*
X8327288Y-4432158D02*
X8321337Y-4426208D01*
X7620000Y-4403183D02*
X7618358Y-4411436D01*
X7752298Y-4419211D02*
X7747623Y-4426208D01*
X7845979Y-3853841D02*
X7849941Y-3863339D01*
X7535832Y-3890721D02*
X7631530Y-3890721D01*
X7837457Y-4352353D02*
X7830504Y-4355233D01*
X8198872Y-4432158D02*
X8196109Y-4434005D01*
X8485092Y-4107425D02*
X8492652Y-4104234D01*
X7301728Y-3754925D02*
X7301727Y-3754925D01*
X7517417Y-4445598D02*
X7526785Y-4447461D01*
X7484938Y-4413118D02*
X7488593Y-4421942D01*
X7305838Y-3761895D02*
X7345802Y-3761895D01*
X7600760Y-4021434D02*
X7614057Y-4039992D01*
X8552212Y-4361314D02*
X8545459Y-4368068D01*
X7585339Y-4368068D02*
X7580033Y-4376009D01*
X7935833Y-3782995D02*
X7935833Y-3831822D01*
X7404269Y-4397608D02*
X7402908Y-4398057D01*
X8038688Y-4356255D02*
X8046941Y-4357897D01*
X7378074Y-4464302D02*
X7360126Y-4464762D01*
X7993402Y-4386514D02*
X7996622Y-4378740D01*
X7272857Y-3518117D02*
X7273605Y-3518055D01*
X7137408Y-3593532D02*
X7137408Y-3593532D01*
X8369332Y-4361314D02*
X8362579Y-4368068D01*
X8313008Y-4441695D02*
X8304592Y-4441695D01*
X7839501Y-4436299D02*
X7846254Y-4429546D01*
X7305838Y-3761895D02*
X7305838Y-3761895D01*
X8229897Y-4426208D02*
X8225222Y-4419211D01*
X8564900Y-4052828D02*
X8563851Y-4041428D01*
X7269737Y-4200412D02*
X7267979Y-4203148D01*
X7483075Y-4394200D02*
X7483075Y-4403751D01*
X7630671Y-4082687D02*
X7621853Y-4085868D01*
X8362579Y-4368068D02*
X8357273Y-4376009D01*
X7137408Y-3593532D02*
X7137510Y-3593378D01*
X7911463Y-4352353D02*
X7902095Y-4350490D01*
X8072141Y-4368068D02*
X8065388Y-4361314D01*
X7383547Y-4205039D02*
X7383547Y-4205039D01*
X8225222Y-4378740D02*
X8229897Y-4371743D01*
X7613241Y-4013658D02*
X7600760Y-4021434D01*
X8580367Y-4421942D02*
X8584022Y-4413118D01*
X7185538Y-3539883D02*
X7185538Y-3539883D01*
X7239000Y-4216095D02*
X7239228Y-4217243D01*
X8575258Y-4378740D02*
X8578478Y-4386514D01*
X8020337Y-4352353D02*
X8011620Y-4355964D01*
X7597434Y-4125833D02*
X7598512Y-4137074D01*
X7607291Y-4095847D02*
X7601968Y-4103487D01*
X8474996Y-4120141D02*
X8476714Y-4115400D01*
X8172542Y-4384833D02*
X8168887Y-4376009D01*
X8587328Y-4356255D02*
X8595581Y-4357897D01*
X7775411Y-4425871D02*
X7770735Y-4418874D01*
X8224281Y-4355918D02*
X8232534Y-4357560D01*
X7488960Y-4016797D02*
X7480970Y-4011486D01*
X7527352Y-4356255D02*
X7535768Y-4356255D01*
X8555339Y-4164905D02*
X8564349Y-4159764D01*
X7564743Y-4426208D02*
X7558792Y-4432158D01*
X8005830Y-4359806D02*
X8003572Y-4361314D01*
X7267979Y-3741362D02*
X7267979Y-3741362D01*
X8113383Y-4426208D02*
X8107432Y-4432158D01*
X8537400Y-4415296D02*
X8540153Y-4421942D01*
X7316223Y-3518055D02*
X7316223Y-3518056D01*
X7241035Y-3725869D02*
X7239518Y-3729534D01*
X7273346Y-4205832D02*
X7273787Y-4204946D01*
X8497687Y-4173163D02*
X8512408Y-4174076D01*
X7572638Y-4411436D02*
X7569418Y-4419211D01*
X8463756Y-4438630D02*
X8461135Y-4439716D01*
X8142990Y-4438145D02*
X8138381Y-4440054D01*
X8296263Y-4371743D02*
X8300938Y-4378740D01*
X7801238Y-4386514D02*
X7802880Y-4394768D01*
X7850051Y-4388084D02*
X7848835Y-4394200D01*
X7637812Y-4361314D02*
X7631059Y-4368068D01*
X7239004Y-3733447D02*
X7239000Y-3733465D01*
X8486532Y-4378403D02*
X8489752Y-4386177D01*
X7502910Y-4359806D02*
X7500652Y-4361314D01*
X8387779Y-4357897D02*
X8396032Y-4356255D01*
X8560260Y-4441987D02*
X8568977Y-4445598D01*
X7488593Y-4376009D02*
X7484938Y-4384833D01*
X7349276Y-4189268D02*
X7349912Y-4189586D01*
X7797821Y-4429883D02*
X7803127Y-4421942D01*
X8111777Y-4352353D02*
X8103060Y-4355964D01*
X8454019Y-4429883D02*
X8460772Y-4436636D01*
X7300524Y-4458628D02*
X7307935Y-4461902D01*
X7303078Y-4453197D02*
X7296376Y-4449446D01*
X7247692Y-3726966D02*
X7256418Y-3718240D01*
X7900073Y-4376009D02*
X7897320Y-4382655D01*
X7847392Y-4356255D02*
X7855808Y-4356255D01*
X7554420Y-4435080D02*
X7550048Y-4432158D01*
X7839501Y-4360977D02*
X7836517Y-4358983D01*
X8603356Y-4361117D02*
X8610352Y-4365793D01*
X7976223Y-4426208D02*
X7970272Y-4432158D01*
X7764368Y-4441695D02*
X7755952Y-4441695D01*
X7784629Y-4434005D02*
X7781361Y-4431821D01*
X7493702Y-4419211D02*
X7490482Y-4411436D01*
X7919398Y-3750022D02*
X7926323Y-3755665D01*
X7849941Y-3863339D02*
X7855494Y-3871945D01*
X8305800Y-4403183D02*
X8304158Y-4411436D01*
X7849941Y-3751427D02*
X7845984Y-3760887D01*
X8166998Y-4411436D02*
X8163778Y-4419211D01*
X8508979Y-3868488D02*
X8499749Y-3867811D01*
X8260315Y-4403751D02*
X8261464Y-4409529D01*
X7700297Y-4352353D02*
X7691580Y-4355964D01*
X8520330Y-4359806D02*
X8524939Y-4357897D01*
X7946957Y-3742854D02*
X7940173Y-3735759D01*
X8331660Y-4355964D02*
X8322943Y-4352353D01*
X7676582Y-4419211D02*
X7673362Y-4411436D01*
X7765873Y-4402846D02*
X7765873Y-4394431D01*
X7137408Y-4350979D02*
X7137408Y-4350979D01*
X7626000Y-4394768D02*
X7627642Y-4386514D01*
X7573072Y-4441695D02*
X7564819Y-4440054D01*
X7420896Y-4350421D02*
X7421167Y-4351324D01*
X7267979Y-3741362D02*
X7267979Y-3741362D01*
X7699628Y-4436636D02*
X7706381Y-4429883D01*
X7631059Y-4429883D02*
X7637812Y-4436636D01*
X7970272Y-4365793D02*
X7976223Y-4371743D01*
X8549861Y-4440054D02*
X8541608Y-4441695D01*
X8011620Y-4362871D02*
X8015992Y-4365793D01*
X7093072Y-3681767D02*
X7107170Y-3639473D01*
X8575061Y-4368068D02*
X8568308Y-4361314D01*
X8117861Y-4368068D02*
X8111108Y-4361314D01*
X8499739Y-4368068D02*
X8494433Y-4376009D01*
X7519023Y-4426208D02*
X7513072Y-4432158D01*
X7610463Y-4371743D02*
X7615138Y-4378740D01*
X8084975Y-4350490D02*
X8075425Y-4350490D01*
X7317848Y-4432368D02*
X7319455Y-4432108D01*
X7513072Y-4432158D02*
X7508700Y-4435080D01*
X7893112Y-4441695D02*
X7884859Y-4440054D01*
X7257690Y-3710404D02*
X7257027Y-3710183D01*
X7270296Y-4432002D02*
X7270296Y-4432002D01*
X8095012Y-4436636D02*
X8097270Y-4438145D01*
X8015992Y-4365793D02*
X8021943Y-4371743D01*
X7101478Y-4306935D02*
X7101960Y-4308193D01*
X7772621Y-4357897D02*
X7778593Y-4360371D01*
X8349878Y-4411436D02*
X8346658Y-4419211D01*
X8476597Y-4358983D02*
X8479219Y-4357897D01*
X7581922Y-4386514D02*
X7585142Y-4378740D01*
X8209301Y-4429883D02*
X8214607Y-4421942D01*
X8215298Y-4447124D02*
X8224849Y-4447124D01*
X7259206Y-3710909D02*
X7258737Y-3710753D01*
X8019668Y-4361314D02*
X8017410Y-4359806D01*
X8101352Y-4027964D02*
X8148449Y-4027964D01*
X7974536Y-3746329D02*
X8021633Y-3746329D01*
X8460772Y-4436636D02*
X8463756Y-4438630D01*
X7685007Y-4093565D02*
X7693357Y-4089566D01*
X8505765Y-4004012D02*
X8492515Y-4005084D01*
X8140732Y-4361314D02*
X8133979Y-4368068D01*
X8462816Y-4445260D02*
X8469770Y-4442380D01*
X8003572Y-4436636D02*
X8005830Y-4438145D01*
X7618358Y-4386514D02*
X7620000Y-4394768D01*
X7550048Y-4365793D02*
X7554420Y-4362871D01*
X8597263Y-4445598D02*
X8606086Y-4441943D01*
X7902095Y-4447461D02*
X7911463Y-4445598D01*
X7526918Y-4386514D02*
X7528560Y-4394768D01*
X8214360Y-4394768D02*
X8214360Y-4403183D01*
X7379189Y-3746370D02*
X7381839Y-3743218D01*
X8620781Y-4368068D02*
X8614028Y-4361314D01*
X7635537Y-4426208D02*
X7630862Y-4419211D01*
X7420897Y-3594090D02*
X7377800Y-3737748D01*
X8215866Y-4441358D02*
X8207612Y-4439716D01*
X7835826Y-4365455D02*
X7841776Y-4371406D01*
X8075992Y-4441695D02*
X8067739Y-4440054D01*
X8175893Y-4005731D02*
X8175893Y-4172244D01*
X7732928Y-4432158D02*
X7726977Y-4426208D01*
X7764368Y-4356255D02*
X7772621Y-4357897D01*
X7407306Y-4090139D02*
X7400602Y-4095847D01*
X7239228Y-4217244D02*
X7239879Y-4218217D01*
X8584022Y-4413118D02*
X8585885Y-4403751D01*
X8549861Y-4357897D02*
X8554470Y-4359806D01*
X8578912Y-4441695D02*
X8570659Y-4440054D01*
X7508700Y-4355964D02*
X7499983Y-4352353D01*
X7103250Y-3633953D02*
X7103250Y-3633953D01*
X8597263Y-4352353D02*
X8587895Y-4350490D01*
X7377800Y-3737749D02*
X7377797Y-3737748D01*
X8177353Y-4394431D02*
X8178995Y-4386177D01*
X7325728Y-4461045D02*
X7317825Y-4458972D01*
X7316221Y-4432455D02*
X7316222Y-4432455D01*
X7807143Y-3724096D02*
X7785944Y-3724096D01*
X8045012Y-3746329D02*
X8092109Y-3746329D01*
X7905379Y-4368068D02*
X7900073Y-4376009D01*
X7545703Y-4445598D02*
X7554420Y-4441987D01*
X8031480Y-4403183D02*
X8029838Y-4411436D01*
X7092600Y-3684673D02*
X7092600Y-3684673D01*
X8458497Y-4426208D02*
X8453822Y-4419211D01*
X8539115Y-3868488D02*
X8508979Y-3868488D01*
X7548443Y-3819099D02*
X7619493Y-3819099D01*
X7413330Y-4460150D02*
X7395953Y-4462670D01*
X7426506Y-3586645D02*
X7426505Y-3586645D01*
X7882962Y-3864765D02*
X7876074Y-3859102D01*
X7256418Y-3718240D02*
X7267979Y-3741362D01*
X7349912Y-4189586D02*
X7349913Y-4189586D01*
X7631310Y-4107425D02*
X7638870Y-4104234D01*
X8545262Y-4419211D02*
X8542042Y-4411436D01*
X7138077Y-4351862D02*
X7137957Y-4351722D01*
X8404448Y-4356255D02*
X8412701Y-4357897D01*
X7176233Y-3538914D02*
X7133522Y-3588744D01*
X8401142Y-4384833D02*
X8397487Y-4376009D01*
X7415034Y-4166692D02*
X7425057Y-4170626D01*
X8595581Y-4357897D02*
X8603356Y-4361117D01*
X7635537Y-4371743D02*
X7641488Y-4365793D01*
X8359162Y-4386514D02*
X8362382Y-4378740D01*
X7866412Y-4361314D02*
X7859659Y-4368068D01*
X8176415Y-4447461D02*
X8185783Y-4445598D01*
X8438098Y-4378740D02*
X8441318Y-4386514D01*
X8194606Y-4356008D02*
X8185783Y-4352353D01*
X8477537Y-4352353D02*
X8470584Y-4355233D01*
X7376096Y-4203433D02*
X7377440Y-4205559D01*
X8509665Y-3724096D02*
X8494528Y-3725204D01*
X8201640Y-4437243D02*
X8202548Y-4436636D01*
X8313575Y-4350490D02*
X8304025Y-4350490D01*
X7258737Y-3710753D02*
X7258388Y-3710404D01*
X7317696Y-3518161D02*
X7318660Y-3518371D01*
X7711687Y-4421942D02*
X7714440Y-4415296D01*
X8111777Y-4445598D02*
X8121145Y-4447461D01*
X8421441Y-4365455D02*
X8424204Y-4363609D01*
X7469071Y-4096383D02*
X7478317Y-4093565D01*
X8026421Y-4368068D02*
X8019668Y-4361314D01*
X7893112Y-4356255D02*
X7901528Y-4356255D01*
X8402051Y-4384495D02*
X8401563Y-4386950D01*
X8327288Y-4365793D02*
X8331660Y-4362871D01*
X7685790Y-4359806D02*
X7683532Y-4361314D01*
X7432180Y-4104234D02*
X7450104Y-4100160D01*
X7876074Y-3755665D02*
X7882959Y-3750031D01*
X7805880Y-4415296D02*
X7808633Y-4421942D01*
X8130128Y-4356255D02*
X8138381Y-4357897D01*
X8092109Y-3746329D02*
X8092109Y-3724096D01*
X7270296Y-3512509D02*
X7184083Y-3534062D01*
X7781361Y-4431821D02*
X7775411Y-4425871D01*
X7274773Y-3748156D02*
X7274773Y-3748156D01*
X7621719Y-4133975D02*
X7620588Y-4126406D01*
X7610539Y-4357897D02*
X7618792Y-4356255D01*
X8560260Y-4362871D02*
X8564632Y-4365793D01*
X7957852Y-4436636D02*
X7960110Y-4438145D01*
X8300741Y-4368068D02*
X8293988Y-4361314D01*
X7805880Y-4382655D02*
X7803127Y-4376009D01*
X7107625Y-4306174D02*
X7107299Y-4305425D01*
X7472361Y-4445730D02*
X7458133Y-4450136D01*
X8215866Y-4355918D02*
X8224281Y-4355918D01*
X8540153Y-4421942D02*
X8545459Y-4429883D01*
X8311800Y-4394768D02*
X8313442Y-4386514D01*
X7180788Y-4401692D02*
X7138077Y-4351862D01*
X7783989Y-3890609D02*
X7807143Y-3890609D01*
X8257931Y-4418874D02*
X8253256Y-4425871D01*
X8293988Y-4436636D02*
X8300741Y-4429883D01*
X7574527Y-4421942D02*
X7577280Y-4415296D01*
X7375790Y-3748694D02*
X7379189Y-3746370D01*
X8128920Y-4403183D02*
X8128920Y-4394768D01*
X7395279Y-4103487D02*
X7392878Y-4109317D01*
X7821054Y-4357560D02*
X7824300Y-4358904D01*
X8346658Y-4419211D02*
X8341983Y-4426208D01*
X7928897Y-4445598D02*
X7938265Y-4447461D01*
X8491322Y-4148859D02*
X8484341Y-4145312D01*
X7391823Y-4137074D02*
X7394886Y-4146545D01*
X7345802Y-4188615D02*
X7345806Y-4188615D01*
X8441318Y-4411436D02*
X8438098Y-4419211D01*
X7299044Y-3760292D02*
X7301216Y-3761176D01*
X8625840Y-4403183D02*
X8624198Y-4411436D01*
X7345802Y-3761895D02*
X7345802Y-3761895D01*
X7938832Y-4356255D02*
X7947248Y-4356255D01*
X7301728Y-3754925D02*
X7301728Y-3754925D01*
X7664512Y-4356255D02*
X7672928Y-4356255D01*
X7663945Y-4447461D02*
X7673495Y-4447461D01*
X7497784Y-4135568D02*
X7487737Y-4142812D01*
X7270296Y-4432002D02*
X7270296Y-4432002D01*
X7316222Y-3518055D02*
X7316223Y-3518055D01*
X7373107Y-4201183D02*
X7373106Y-4201184D01*
X8163778Y-4419211D02*
X8159103Y-4426208D01*
X7992968Y-4356255D02*
X8001221Y-4357897D01*
X7671695Y-4151013D02*
X7658626Y-4152068D01*
X8195604Y-4356675D02*
X8194606Y-4356008D01*
X8486532Y-4418874D02*
X8481856Y-4425871D01*
X7956464Y-3760887D02*
X7952508Y-3751427D01*
X8405954Y-4394431D02*
X8407595Y-4386177D01*
X7345802Y-3761895D02*
X7345802Y-3761895D01*
X7086601Y-3684670D02*
X7086600Y-3684674D01*
X7519023Y-4371743D02*
X7523698Y-4378740D01*
X7631059Y-4368068D02*
X7625753Y-4376009D01*
X7892678Y-4386514D02*
X7894320Y-4394768D01*
X7421168Y-3593187D02*
X7420898Y-3594090D01*
X7687291Y-4058281D02*
X7685432Y-4062952D01*
X7092600Y-3684180D02*
X7092705Y-3683199D01*
X8321337Y-4371743D02*
X8327288Y-4365793D01*
X7879467Y-3725841D02*
X7870403Y-3730002D01*
X8444466Y-4441358D02*
X8436213Y-4439716D01*
X8182215Y-4418874D02*
X8178995Y-4411099D01*
X7431095Y-4462880D02*
X7459640Y-4455945D01*
X7631530Y-3890721D02*
X7642872Y-3890721D01*
X8467840Y-4039992D02*
X8477534Y-4033697D01*
X7349912Y-4189586D02*
X7349912Y-4189586D01*
X7976299Y-4440054D02*
X7971690Y-4438145D01*
X8386097Y-4445598D02*
X8395465Y-4447461D01*
X7691580Y-4355964D02*
X7682863Y-4352353D01*
X8021943Y-4426208D02*
X8015992Y-4432158D01*
X7851561Y-4375672D02*
X7846254Y-4367731D01*
X7889261Y-4429883D02*
X7894567Y-4421942D01*
X8339708Y-4436636D02*
X8346461Y-4429883D01*
X7808633Y-4376009D02*
X7805880Y-4382655D01*
X7946954Y-3871945D02*
X7952508Y-3863339D01*
X7471269Y-4007498D02*
X7459516Y-4004934D01*
X7985760Y-4394768D02*
X7985760Y-4403183D01*
X7755385Y-4447461D02*
X7764935Y-4447461D01*
X7671473Y-4421942D02*
X7676779Y-4429883D01*
X7849984Y-4409529D02*
X7849672Y-4411099D01*
X7996819Y-4429883D02*
X8003572Y-4436636D01*
X7708813Y-4070197D02*
X7710499Y-4062567D01*
X7983985Y-4447461D02*
X7993535Y-4447461D01*
X7503379Y-4041428D02*
X7500408Y-4031841D01*
X7665967Y-4376009D02*
X7660661Y-4368068D01*
X7360126Y-4464762D02*
X7342550Y-4463769D01*
X8510576Y-4100160D02*
X8529544Y-4096383D01*
X7308060Y-4461930D02*
X7308171Y-4461994D01*
X7643905Y-4173163D02*
X7658626Y-4174076D01*
X7965900Y-4441987D02*
X7974617Y-4445598D01*
X7718648Y-4441695D02*
X7710232Y-4441695D01*
X8001297Y-4426208D02*
X7996622Y-4419211D01*
X7974617Y-4352353D02*
X7965900Y-4355964D01*
X8144408Y-4432158D02*
X8138457Y-4426208D01*
X7934981Y-4429883D02*
X7940287Y-4421942D01*
X8351767Y-4376009D02*
X8346461Y-4368068D01*
X7701979Y-4440054D02*
X7697370Y-4438145D01*
X8305800Y-4394768D02*
X8305800Y-4403183D01*
X7107170Y-4305038D02*
X7107170Y-4305038D01*
X7316715Y-4426455D02*
X7316221Y-4426455D01*
X7425057Y-4170626D02*
X7437215Y-4173163D01*
X7728583Y-4445598D02*
X7737300Y-4441987D01*
X7650232Y-4365793D02*
X7656183Y-4371743D01*
X7905379Y-4429883D02*
X7912132Y-4436636D01*
X7627775Y-4447461D02*
X7637143Y-4445598D01*
X7273981Y-4426455D02*
X7273981Y-4426455D01*
X7452657Y-4426208D02*
X7447982Y-4419211D01*
X8232534Y-4357560D02*
X8235780Y-4358904D01*
X7316225Y-3512056D02*
X7316221Y-3512055D01*
X7630862Y-4419211D02*
X7627642Y-4411436D01*
X8453822Y-4378740D02*
X8458497Y-4371743D01*
X7663945Y-4350490D02*
X7654577Y-4352353D01*
X8358728Y-4441695D02*
X8350312Y-4441695D01*
X7481065Y-4350490D02*
X7471697Y-4352353D01*
X8300938Y-4378740D02*
X8304158Y-4386514D01*
X8326870Y-3854168D02*
X8339426Y-3890721D01*
X7488840Y-4394768D02*
X7490482Y-4386514D01*
X7546372Y-4361314D02*
X7539619Y-4368068D01*
X7408962Y-3542906D02*
X7404807Y-3540762D01*
X7855808Y-4441695D02*
X7847392Y-4441695D01*
X8176415Y-4350490D02*
X8166865Y-4350490D01*
X7402908Y-4398057D02*
X7402908Y-4398057D01*
X8502786Y-4078275D02*
X8484453Y-4082687D01*
X7737300Y-4355964D02*
X7728583Y-4352353D01*
X7613484Y-4161475D02*
X7621724Y-4166692D01*
X8431148Y-4361314D02*
X8429617Y-4360292D01*
X8049292Y-4436636D02*
X8051550Y-4438145D01*
X7781361Y-4365455D02*
X7784124Y-4363609D01*
X8267263Y-3831935D02*
X8293251Y-3756299D01*
X7681181Y-4440054D02*
X7672928Y-4441695D01*
X7849672Y-4411099D02*
X7846451Y-4418874D01*
X7824300Y-4358904D02*
X7820692Y-4361314D01*
X7243450Y-3722723D02*
X7243449Y-3722724D01*
X7706381Y-4368068D02*
X7699628Y-4361314D01*
X8148449Y-4005731D02*
X8030876Y-4005731D01*
X8437901Y-4368068D02*
X8431148Y-4361314D01*
X8427472Y-4432158D02*
X8424709Y-4434005D01*
X8525644Y-4029242D02*
X8532297Y-4032837D01*
X7856375Y-4447461D02*
X7865743Y-4445598D01*
X7761062Y-4384833D02*
X7757407Y-4376009D01*
X8281568Y-4432158D02*
X8275617Y-4426208D01*
X7984721Y-4172357D02*
X8008100Y-4172357D01*
X8224281Y-4441358D02*
X8215866Y-4441358D01*
X7181150Y-3535126D02*
X7178496Y-3536766D01*
X8451216Y-4125833D02*
X8452295Y-4137074D01*
X7412270Y-3546213D02*
X7408962Y-3542906D01*
X7801238Y-4411436D02*
X7798018Y-4419211D01*
X8492652Y-4104234D02*
X8510576Y-4100160D01*
X7414524Y-4120141D02*
X7416242Y-4115400D01*
X7878832Y-4432158D02*
X7874460Y-4435080D01*
X7701903Y-4426208D02*
X7695952Y-4432158D01*
X8453745Y-3863278D02*
X8459439Y-3871455D01*
X7345802Y-3761895D02*
X7348141Y-3761714D01*
X7950902Y-4378740D02*
X7955577Y-4371743D01*
X7262122Y-4214864D02*
X7262120Y-4214863D01*
X7961528Y-4365793D02*
X7965900Y-4362871D01*
X8108850Y-4438145D02*
X8111108Y-4436636D01*
X7423981Y-4082687D02*
X7415163Y-4085868D01*
X7642872Y-3724096D02*
X7619493Y-3724096D01*
X7663197Y-4026887D02*
X7671861Y-4029242D01*
X7757160Y-4403183D02*
X7755518Y-4411436D01*
X8285940Y-4435080D02*
X8281568Y-4432158D01*
X8201017Y-4360292D02*
X8207612Y-4357560D01*
X7980701Y-4429883D02*
X7986007Y-4421942D01*
X7086600Y-4259837D02*
X7086687Y-4261463D01*
X8620781Y-4429883D02*
X8626087Y-4421942D01*
X8267722Y-4411436D02*
X8267342Y-4409529D01*
X7247399Y-4217252D02*
X7245000Y-4214853D01*
X7668084Y-4073864D02*
X7649004Y-4078275D01*
X7247021Y-4224297D02*
X7251561Y-4225762D01*
X8494528Y-3725204D02*
X8481967Y-3728303D01*
X8453449Y-4447124D02*
X8462816Y-4445260D01*
X7321026Y-3512835D02*
X7321025Y-3512835D01*
X8436213Y-4439716D02*
X8430240Y-4437243D01*
X7656793Y-4100160D02*
X7675761Y-4096383D01*
X8480389Y-3755900D02*
X8485700Y-3751877D01*
X7671861Y-4029242D02*
X7678515Y-4032837D01*
X8264507Y-4379211D02*
X8263041Y-4375672D01*
X8066057Y-4445598D02*
X8075425Y-4447461D01*
X8474371Y-4126283D02*
X8474996Y-4120141D01*
X8311800Y-4403183D02*
X8311800Y-4394768D01*
X8578912Y-4356255D02*
X8587328Y-4356255D01*
X8523257Y-4445598D02*
X8532625Y-4447461D01*
X8441318Y-4386514D02*
X8442960Y-4394768D01*
X8625840Y-4394768D02*
X8625840Y-4403183D01*
X7678515Y-4032837D02*
X7683748Y-4037990D01*
X7377800Y-3737748D02*
X7377800Y-3737749D01*
X7726977Y-4426208D02*
X7722302Y-4419211D01*
X8125920Y-4382655D02*
X8123167Y-4376009D01*
X8084842Y-4411436D02*
X8083200Y-4403183D01*
X8047017Y-4426208D02*
X8042342Y-4419211D01*
X8220113Y-4376009D02*
X8217360Y-4382655D01*
X8075558Y-4411436D02*
X8072338Y-4419211D01*
X7656183Y-4371743D02*
X7660858Y-4378740D01*
X7777686Y-4360977D02*
X7770932Y-4367731D01*
X7486913Y-4447461D02*
X7490615Y-4447461D01*
X7519099Y-4440054D02*
X7514490Y-4438145D01*
X8537530Y-4037990D02*
X8540651Y-4044300D01*
X7305834Y-3755896D02*
X7305127Y-3755896D01*
X7271752Y-4426181D02*
X7271751Y-4426181D01*
X8476714Y-4115400D02*
X8479417Y-4111738D01*
X7901224Y-3745408D02*
X7911162Y-3746605D01*
X7243158Y-4221496D02*
X7243158Y-4221496D01*
X7137408Y-3593532D02*
X7137408Y-3593532D01*
X7451936Y-4174076D02*
X7463875Y-4173488D01*
X7589817Y-4371743D02*
X7595768Y-4365793D01*
X7426644Y-4348696D02*
X7383547Y-4205039D01*
X7318660Y-3518371D02*
X7319128Y-3518527D01*
X8123167Y-4376009D02*
X8117861Y-4368068D01*
X7352596Y-3760291D02*
X7375790Y-3748694D01*
X8186891Y-4425871D02*
X8182215Y-4418874D01*
X8037233Y-4421942D02*
X8042539Y-4429883D01*
X7683532Y-4436636D02*
X7685790Y-4438145D01*
X7597434Y-4125597D02*
X7597434Y-4125833D01*
X8491641Y-4375672D02*
X8486335Y-4367731D01*
X7845984Y-3760887D02*
X7843523Y-3771601D01*
X7794451Y-4352016D02*
X7785627Y-4355671D01*
X8163581Y-4429883D02*
X8168887Y-4421942D01*
X8225222Y-4419211D02*
X8222002Y-4411436D01*
X7273787Y-3739564D02*
X7273346Y-3738679D01*
X7681257Y-4371743D02*
X7687208Y-4365793D01*
X7859659Y-4429883D02*
X7866412Y-4436636D01*
X8494433Y-4376009D02*
X8493107Y-4379211D01*
X7901528Y-4441695D02*
X7893112Y-4441695D01*
X7321025Y-4431676D02*
X7321025Y-4431676D01*
X7889458Y-4419211D02*
X7884783Y-4426208D01*
X7747699Y-4440054D02*
X7743090Y-4438145D01*
X8494433Y-4421942D02*
X8499739Y-4429883D01*
X7345802Y-4182615D02*
X7345802Y-4182615D01*
X7406582Y-4395918D02*
X7404269Y-4397608D01*
X7527352Y-4441695D02*
X7519099Y-4440054D01*
X7682863Y-4352353D02*
X7673495Y-4350490D01*
X7726977Y-4371743D02*
X7732928Y-4365793D01*
X8485700Y-3751877D02*
X8492081Y-3748901D01*
X8291730Y-4359806D02*
X8296339Y-4357897D01*
X8395465Y-4447461D02*
X8405015Y-4447461D01*
X7965900Y-4362871D02*
X7970272Y-4365793D01*
X7426644Y-3595814D02*
X7427228Y-3592770D01*
X8410816Y-4418874D02*
X8407595Y-4411099D01*
X8140063Y-4352353D02*
X8130695Y-4350490D01*
X7922985Y-3888981D02*
X7932056Y-3884825D01*
X7247692Y-3726966D02*
X7247692Y-3726966D01*
X8234216Y-4445260D02*
X8241170Y-4442380D01*
X8568308Y-4361314D02*
X8566050Y-4359806D01*
X8396032Y-4441695D02*
X8387779Y-4440054D01*
X8298973Y-4172244D02*
X8298973Y-4005731D01*
X8030272Y-4356255D02*
X8038688Y-4356255D01*
X7793343Y-4371743D02*
X7798018Y-4378740D01*
X8280150Y-4359806D02*
X8277892Y-4361314D01*
X7274773Y-3748156D02*
X7299044Y-3760291D01*
X7302364Y-3755243D02*
X7301728Y-3754925D01*
X8551543Y-4352353D02*
X8542175Y-4350490D01*
X7640070Y-4438145D02*
X7635461Y-4440054D01*
X7823676Y-4438630D02*
X7821054Y-4439716D01*
X7465604Y-4361117D02*
X7473379Y-4357897D01*
X8123167Y-4421942D02*
X8125920Y-4415296D01*
X7882508Y-4436636D02*
X7889261Y-4429883D01*
X7301216Y-3761176D02*
X7303499Y-3761715D01*
X7286468Y-4449762D02*
X7286586Y-4449885D01*
X7431018Y-4462884D02*
X7431095Y-4462880D01*
X8263041Y-4375672D02*
X8257734Y-4367731D01*
X8172542Y-4413118D02*
X8173030Y-4410664D01*
X7665967Y-4421942D02*
X7668720Y-4415296D01*
X7699628Y-4361314D02*
X7697370Y-4359806D01*
X8111108Y-4361314D02*
X8108850Y-4359806D01*
X7687208Y-4432158D02*
X7681257Y-4426208D01*
X7321025Y-4431677D02*
X7321025Y-4431676D01*
X7719019Y-4153450D02*
X7704474Y-4135568D01*
X7490482Y-4411436D02*
X7488840Y-4403183D01*
X7523501Y-4429883D02*
X7528807Y-4421942D01*
X8001221Y-4357897D02*
X8005830Y-4359806D01*
X8271139Y-4368068D02*
X8265833Y-4376009D01*
X7448179Y-4368068D02*
X7442873Y-4376009D01*
X7293190Y-4454504D02*
X7293309Y-4454606D01*
X8407595Y-4386177D02*
X8410816Y-4378403D01*
X7687963Y-4052142D02*
X7687963Y-4052255D01*
X7377800Y-3737748D02*
X7377800Y-3737748D01*
X7731510Y-4359806D02*
X7729252Y-4361314D01*
X7448179Y-4429883D02*
X7454932Y-4436636D01*
X7878832Y-4365793D02*
X7884783Y-4371743D01*
X7319128Y-3518527D02*
X7319128Y-3518527D01*
X8479581Y-4436299D02*
X8486335Y-4429546D01*
X7664078Y-4386514D02*
X7665720Y-4394768D01*
X8631605Y-4394768D02*
X8631605Y-4394200D01*
X7534313Y-4376009D02*
X7531560Y-4382655D01*
X7536335Y-4350490D02*
X7526785Y-4350490D01*
X7274773Y-3748156D02*
X7274773Y-3748156D01*
X8475404Y-3883679D02*
X8485121Y-3887469D01*
X8425707Y-4355671D02*
X8424204Y-4356675D01*
X7243158Y-4221496D02*
X7243158Y-4221496D01*
X8271139Y-4429883D02*
X8277892Y-4436636D01*
X8368663Y-4445598D02*
X8377380Y-4441987D01*
X7719082Y-4386514D02*
X7722302Y-4378740D01*
X8265833Y-4421942D02*
X8271139Y-4429883D01*
X8524863Y-4371743D02*
X8529538Y-4378740D01*
X8518912Y-4432158D02*
X8514540Y-4435080D01*
X7955501Y-4440054D02*
X7947248Y-4441695D01*
X8371590Y-4438145D02*
X8366981Y-4440054D01*
X7546372Y-4436636D02*
X7548630Y-4438145D01*
X7424620Y-4107425D02*
X7432180Y-4104234D01*
X8392181Y-4368068D02*
X8385428Y-4361314D01*
X7682466Y-4066586D02*
X7676321Y-4070765D01*
X7086687Y-4261463D02*
X7086948Y-4263070D01*
X8405015Y-4350490D02*
X8395465Y-4350490D01*
X7293309Y-4454606D02*
X7300271Y-4458502D01*
X8575258Y-4419211D02*
X8570583Y-4426208D01*
X8354520Y-4415296D02*
X8357273Y-4421942D01*
X7443120Y-4394768D02*
X7444762Y-4386514D01*
X7301727Y-4189586D02*
X7301731Y-4189583D01*
X7767515Y-4386177D02*
X7770735Y-4378403D01*
X7630862Y-4378740D02*
X7635537Y-4371743D01*
X7439218Y-4384833D02*
X7437355Y-4394200D01*
X7959786Y-3783804D02*
X7959729Y-3782995D01*
X8342966Y-3831935D02*
X8303211Y-3724096D01*
X7825527Y-4150123D02*
X7741867Y-4150123D01*
X8535276Y-4171783D02*
X8545713Y-4168896D01*
X7373106Y-4201184D02*
X7374232Y-4201745D01*
X7741867Y-4027964D02*
X7825527Y-4027964D01*
X7621724Y-4166692D02*
X7631746Y-4170626D01*
X7185538Y-4404628D02*
X7185538Y-4404628D01*
X7741867Y-4005731D02*
X7741867Y-4027964D01*
X8631605Y-4394200D02*
X8629742Y-4384833D01*
X8430240Y-4437243D02*
X8431148Y-4436636D01*
X7271751Y-3518330D02*
X7271752Y-3518330D01*
X7499555Y-4076208D02*
X7502123Y-4070197D01*
X7784629Y-4440939D02*
X7785627Y-4441605D01*
X7108240Y-4307228D02*
X7108015Y-4306891D01*
X7798018Y-4419211D02*
X7793343Y-4426208D01*
X8168887Y-4376009D02*
X8163581Y-4368068D01*
X7830504Y-4355233D02*
X7822736Y-4352016D01*
X7812801Y-4441358D02*
X7804386Y-4441358D01*
X7437355Y-4394200D02*
X7437355Y-4403751D01*
X8499542Y-4378740D02*
X8504217Y-4371743D01*
X7889664Y-3891548D02*
X7901224Y-3892441D01*
X8481856Y-4425871D02*
X8475906Y-4431821D01*
X7545703Y-4352353D02*
X7536335Y-4350490D01*
X8359295Y-4350490D02*
X8349745Y-4350490D01*
X8268559Y-4403414D02*
X8268559Y-4394431D01*
X8566050Y-4359806D02*
X8570659Y-4357897D01*
X8462816Y-4352016D02*
X8453449Y-4350153D01*
X7270296Y-4432002D02*
X7270296Y-4432002D01*
X8351520Y-4394768D02*
X8351520Y-4403183D01*
X7804386Y-4355918D02*
X7812801Y-4355918D01*
X8414383Y-4445598D02*
X8423206Y-4441943D01*
X8551543Y-4445598D02*
X8560260Y-4441987D01*
X8222002Y-4411436D02*
X8220360Y-4403183D01*
X8277892Y-4436636D02*
X8280150Y-4438145D01*
X7930579Y-4440054D02*
X7925970Y-4438145D01*
X7711117Y-4052941D02*
X7711117Y-4052828D01*
X8499749Y-3867811D02*
X8492081Y-3865917D01*
X7984552Y-4356255D02*
X7992968Y-4356255D01*
X8250619Y-4440054D02*
X8247374Y-4438709D01*
X7245000Y-4185615D02*
X7245000Y-3743655D01*
X8283281Y-3724096D02*
X8221853Y-3890721D01*
X8313442Y-4411436D02*
X8311800Y-4403183D01*
X7444762Y-4411436D02*
X7443120Y-4403183D01*
X8247065Y-3890721D02*
X8259624Y-3854168D01*
X7651650Y-4438145D02*
X7653908Y-4436636D01*
X8304592Y-4356255D02*
X8313008Y-4356255D01*
X8504217Y-4371743D02*
X8510168Y-4365793D01*
X7790160Y-4437243D02*
X7791068Y-4436636D01*
X8443898Y-4350153D02*
X8434531Y-4352016D01*
X8077447Y-4421942D02*
X8080200Y-4415296D01*
X8133979Y-4429883D02*
X8140732Y-4436636D01*
X7862279Y-3735760D02*
X7855492Y-3742855D01*
X8510168Y-4365793D02*
X8514540Y-4362871D01*
X7299045Y-4184218D02*
X7299045Y-4184218D01*
X8166865Y-4350490D02*
X8157497Y-4352353D01*
X8048623Y-4352353D02*
X8039255Y-4350490D01*
X8541608Y-4441695D02*
X8533192Y-4441695D01*
X7824368Y-4365793D02*
X7830349Y-4361796D01*
X8197327Y-4172244D02*
X8275818Y-4049686D01*
X8221853Y-3890721D02*
X8247065Y-3890721D01*
X8008100Y-4005731D02*
X7984721Y-4005731D01*
X7932056Y-3730002D02*
X7922985Y-3725841D01*
X8235848Y-4365793D02*
X8241829Y-4361796D01*
X7796132Y-4439716D02*
X7790160Y-4437243D01*
X8217360Y-4382655D02*
X8214607Y-4376009D01*
X7890067Y-4005731D02*
X7890067Y-4172357D01*
X8585885Y-4394200D02*
X8584022Y-4384833D01*
X7952508Y-3863339D02*
X7956469Y-3853841D01*
X7660858Y-4419211D02*
X7656183Y-4426208D01*
X7855492Y-3742855D02*
X7849941Y-3751427D01*
X8492967Y-4418403D02*
X8494433Y-4421942D01*
X7454932Y-4361314D02*
X7448179Y-4368068D01*
X7303720Y-3755676D02*
X7302364Y-3755243D01*
X7477058Y-4037990D02*
X7480179Y-4044300D01*
X7352589Y-3760293D02*
X7352596Y-3760291D01*
X8470245Y-3782883D02*
X8470950Y-3774251D01*
X7912784Y-3723270D02*
X7901224Y-3722376D01*
X7722499Y-4368068D02*
X7717193Y-4376009D01*
X7316222Y-4432455D02*
X7317848Y-4432368D01*
X8184101Y-4440054D02*
X8175848Y-4441695D01*
X8549937Y-4426208D02*
X8545262Y-4419211D01*
X7928228Y-4436636D02*
X7934981Y-4429883D01*
X7697370Y-4438145D02*
X7699628Y-4436636D01*
X7729252Y-4436636D02*
X7731510Y-4438145D01*
X8258305Y-4447461D02*
X8267855Y-4447461D01*
X7471697Y-4352353D02*
X7462874Y-4356008D01*
X7267488Y-4217548D02*
X7267488Y-4217548D01*
X7261326Y-4216432D02*
X7258701Y-4218774D01*
X8130562Y-4386514D02*
X8133782Y-4378740D01*
X7710499Y-4062567D02*
X7711117Y-4052941D01*
X8293251Y-3756299D02*
X8319232Y-3831935D01*
X7535768Y-4356255D02*
X7544021Y-4357897D01*
X7103249Y-3633953D02*
X7102552Y-3635106D01*
X7451936Y-4152068D02*
X7440012Y-4151201D01*
X7569221Y-4368068D02*
X7562468Y-4361314D01*
X8405706Y-4375672D02*
X8402051Y-4384495D01*
X7133521Y-4355767D02*
X7176233Y-4405597D01*
X7842663Y-3831013D02*
X7843520Y-3843140D01*
X7779216Y-4437322D02*
X7772621Y-4440054D01*
X7957183Y-4352353D02*
X7947815Y-4350490D01*
X8486905Y-4350490D02*
X8477537Y-4352353D01*
X7891210Y-3868202D02*
X7882962Y-3864765D01*
X8088259Y-4429883D02*
X8095012Y-4436636D01*
X8061712Y-4432158D02*
X8057340Y-4435080D01*
X7350424Y-4183335D02*
X7348141Y-4182796D01*
X7407368Y-4039992D02*
X7417062Y-4033697D01*
X8198872Y-4365793D02*
X8204823Y-4371743D01*
X8121278Y-4386514D02*
X8122920Y-4394768D01*
X7278180Y-4432455D02*
X7316221Y-4432455D01*
X7754478Y-4100734D02*
X7825527Y-4100734D01*
X8196774Y-3890721D02*
X8196774Y-3724096D01*
X7677959Y-4007498D02*
X7666205Y-4004934D01*
X7856242Y-4411436D02*
X7855862Y-4409529D01*
X7271752Y-3518330D02*
X7272116Y-3518239D01*
X8118058Y-4419211D02*
X8113383Y-4426208D01*
X7484938Y-4384833D02*
X7483075Y-4394200D01*
X7400602Y-4095847D02*
X7395279Y-4103487D01*
X7913446Y-4005731D02*
X7890067Y-4005731D01*
X7854353Y-4376009D02*
X7853027Y-4379211D01*
X7625747Y-4008311D02*
X7613241Y-4013658D01*
X8317193Y-4005731D02*
X8367955Y-4104634D01*
X7791068Y-4436636D02*
X7797821Y-4429883D01*
X8293988Y-4361314D02*
X8291730Y-4359806D01*
X8564282Y-4062567D02*
X8564900Y-4052941D01*
X7935833Y-3831822D02*
X7934695Y-3842762D01*
X7102552Y-4309404D02*
X7103249Y-4310558D01*
X7439218Y-4413118D02*
X7442873Y-4421942D01*
X8196774Y-3724096D02*
X8173395Y-3724096D01*
X7711440Y-4394768D02*
X7711440Y-4403183D01*
X7260864Y-4224252D02*
X7264708Y-4221426D01*
X7706381Y-4429883D02*
X7711687Y-4421942D01*
X8077973Y-4172357D02*
X8101352Y-4172357D01*
X7243449Y-3722724D02*
X7241035Y-3725869D01*
X7726901Y-4357897D02*
X7731510Y-4359806D01*
X7342550Y-4463769D02*
X7325728Y-4461045D01*
X7239000Y-3743655D02*
X7239000Y-4185615D01*
X8446293Y-3783804D02*
X8446293Y-3831013D01*
X7673362Y-4386514D02*
X7676582Y-4378740D01*
X8121712Y-4356255D02*
X8130128Y-4356255D01*
X8495888Y-4441695D02*
X8487472Y-4441695D01*
X7808633Y-4421942D02*
X7813939Y-4429883D01*
X8451786Y-4116582D02*
X8451216Y-4125597D01*
X8204823Y-4426208D02*
X8198872Y-4432158D01*
X8563851Y-4041428D02*
X8560880Y-4031841D01*
X7185538Y-3539883D02*
X7185538Y-3539883D01*
X8342059Y-4357897D02*
X8350312Y-4356255D01*
X8486335Y-4367731D02*
X8479581Y-4360977D01*
X7404805Y-3540762D02*
X7321026Y-3512835D01*
X7535832Y-3868488D02*
X7535832Y-3890721D01*
X8101352Y-4172357D02*
X8101352Y-4027964D01*
X8433423Y-4426208D02*
X8427472Y-4432158D01*
X8308800Y-4382655D02*
X8306047Y-4376009D01*
X7406552Y-4013658D02*
X7394071Y-4021434D01*
X8377380Y-4362871D02*
X8381752Y-4365793D01*
X7894320Y-4394768D02*
X7894320Y-4403183D01*
X7640070Y-4359806D02*
X7637812Y-4361314D01*
X7437355Y-4403751D02*
X7439218Y-4413118D01*
X7267455Y-4217591D02*
X7267488Y-4217548D01*
X7185538Y-4404628D02*
X7185538Y-4404628D01*
X8467778Y-4090139D02*
X8461074Y-4095847D01*
X8453822Y-4419211D02*
X8450602Y-4411436D01*
X7550048Y-4432158D02*
X7544097Y-4426208D01*
X7940287Y-4376009D02*
X7934981Y-4368068D01*
X8270942Y-4378740D02*
X8275617Y-4371743D01*
X8414383Y-4352353D02*
X8405015Y-4350490D01*
X8202548Y-4361314D02*
X8201017Y-4360292D01*
X8241984Y-4355233D02*
X8234216Y-4352016D01*
X7770735Y-4418874D02*
X7767515Y-4411099D01*
X7728583Y-4352353D02*
X7719215Y-4350490D01*
X8095012Y-4361314D02*
X8088259Y-4368068D01*
X7101478Y-3637575D02*
X7101478Y-3637575D01*
X7103249Y-4310557D02*
X7103249Y-4310558D01*
X7539422Y-4419211D02*
X7536202Y-4411436D01*
X8549937Y-4371743D02*
X8555888Y-4365793D01*
X7619493Y-3819099D02*
X7619493Y-3868488D01*
X7247692Y-3726966D02*
X7247692Y-3726966D01*
X7785627Y-4355671D02*
X7784124Y-4356675D01*
X8067739Y-4357897D02*
X8075992Y-4356255D01*
X7305838Y-3755895D02*
X7305834Y-3755896D01*
X7991760Y-4394768D02*
X7993402Y-4386514D01*
X7481632Y-4441695D02*
X7473379Y-4440054D01*
X8128673Y-4376009D02*
X8125920Y-4382655D01*
X7900320Y-4394768D02*
X7901962Y-4386514D01*
X7133133Y-3589216D02*
X7132764Y-3589703D01*
X7635461Y-4357897D02*
X7640070Y-4359806D01*
X7566551Y-4172357D02*
X7566551Y-4005731D01*
X7802880Y-4394768D02*
X7802880Y-4403183D01*
X8448713Y-4376009D02*
X8445960Y-4382655D01*
X7256333Y-4225746D02*
X7260864Y-4224252D01*
X8199047Y-4130191D02*
X8199047Y-4005731D01*
X7456507Y-4026887D02*
X7465172Y-4029242D01*
X7930579Y-4357897D02*
X7938832Y-4356255D01*
X8199047Y-4005731D02*
X8175893Y-4005731D01*
X8412701Y-4440054D02*
X8404448Y-4441695D01*
X7535832Y-3724096D02*
X7535832Y-3746329D01*
X8264367Y-4418403D02*
X8265833Y-4421942D01*
X7426506Y-3586645D02*
X7426506Y-3586645D01*
X8319232Y-3831935D02*
X8267263Y-3831935D01*
X8189166Y-4360977D02*
X8182412Y-4367731D01*
X7138077Y-3592649D02*
X7180788Y-3542819D01*
X8092661Y-4440054D02*
X8084408Y-4441695D01*
X7746017Y-4352353D02*
X7737300Y-4355964D01*
X8540400Y-4403183D02*
X8540400Y-4394768D01*
X7676582Y-4378740D02*
X7681257Y-4371743D01*
X7825527Y-4005731D02*
X7741867Y-4005731D01*
X8364638Y-3890721D02*
X8342966Y-3831935D01*
X7273981Y-3518055D02*
X7273981Y-3518055D01*
X7812801Y-4355918D02*
X7821054Y-4357560D01*
X7589741Y-4357897D02*
X7594350Y-4359806D01*
X7672928Y-4441695D02*
X7664512Y-4441695D01*
X8357520Y-4403183D02*
X8357520Y-4394768D01*
X8212718Y-4386514D02*
X8214360Y-4394768D01*
X7426505Y-3586645D02*
X7426505Y-3586645D01*
X8212718Y-4411436D02*
X8209498Y-4419211D01*
X8383170Y-4359806D02*
X8387779Y-4357897D01*
X7920180Y-4435080D02*
X7915808Y-4432158D01*
X8564632Y-4432158D02*
X8560260Y-4435080D01*
X7835894Y-4438709D02*
X7839501Y-4436299D01*
X7868670Y-4438145D02*
X7864061Y-4440054D01*
X8125920Y-4415296D02*
X8128673Y-4421942D01*
X7813742Y-4419211D02*
X7810522Y-4411436D01*
X7673495Y-4447461D02*
X7682863Y-4445598D01*
X8401630Y-4410664D02*
X8402051Y-4412781D01*
X8626087Y-4376009D02*
X8620781Y-4368068D01*
X7996819Y-4368068D02*
X7991513Y-4376009D01*
X7891206Y-3746610D02*
X7901224Y-3745408D01*
X8021943Y-4371743D02*
X8026618Y-4378740D01*
X7784124Y-4356675D02*
X7783126Y-4356008D01*
X8560027Y-4076208D02*
X8562595Y-4070197D01*
X7810522Y-4386514D02*
X7813742Y-4378740D01*
X8047017Y-4371743D02*
X8052968Y-4365793D01*
X7517417Y-4352353D02*
X7508700Y-4355964D01*
X7504328Y-4365793D02*
X7508700Y-4362871D01*
X8531741Y-4007498D02*
X8519988Y-4004934D01*
X7882959Y-3750031D02*
X7891206Y-3746610D01*
X8007248Y-4365793D02*
X8011620Y-4362871D01*
X8369332Y-4436636D02*
X8371590Y-4438145D01*
X7566551Y-4005731D02*
X7543171Y-4005731D01*
X8083200Y-4403183D02*
X8083200Y-4394768D01*
X7562468Y-4436636D02*
X7569221Y-4429883D01*
X7620247Y-4421942D02*
X7623000Y-4415296D01*
X7086600Y-3684674D02*
X7086600Y-4259837D01*
X7577280Y-4415296D02*
X7580033Y-4421942D01*
X7430946Y-4462913D02*
X7431018Y-4462884D01*
X7419057Y-4008311D02*
X7406552Y-4013658D01*
X8542042Y-4386514D02*
X8545262Y-4378740D01*
X7791068Y-4361314D02*
X7789537Y-4360292D01*
X8346461Y-4429883D02*
X8351767Y-4421942D01*
X7901224Y-3869410D02*
X7891210Y-3868202D01*
X7945793Y-4421942D02*
X7951099Y-4429883D01*
X7761062Y-4413118D02*
X7761550Y-4410664D01*
X7536335Y-4447461D02*
X7545703Y-4445598D01*
X7821054Y-4439716D02*
X7812801Y-4441358D01*
X7859462Y-4419211D02*
X7856242Y-4411436D01*
X8362382Y-4419211D02*
X8359162Y-4411436D01*
X8417766Y-4360977D02*
X8411013Y-4367731D01*
X8275541Y-4440054D02*
X8267288Y-4441695D01*
X7585142Y-4419211D02*
X7581922Y-4411436D01*
X7092600Y-4260330D02*
X7092600Y-4259837D01*
X8514540Y-4441987D02*
X8523257Y-4445598D01*
X7345802Y-4182615D02*
X7305838Y-4182615D01*
X7693357Y-4089566D02*
X7700527Y-4083964D01*
X7656259Y-4440054D02*
X7651650Y-4438145D01*
X7508700Y-4441987D02*
X7517417Y-4445598D01*
X7490615Y-4350490D02*
X7481065Y-4350490D01*
X7423868Y-4145312D02*
X7418295Y-4140160D01*
X8496455Y-4350490D02*
X8486905Y-4350490D01*
X7490482Y-4386514D02*
X7493702Y-4378740D01*
X7940287Y-4421942D02*
X7943040Y-4415296D01*
X8431148Y-4436636D02*
X8437901Y-4429883D01*
X7922985Y-3725841D02*
X7912784Y-3723270D01*
X8377380Y-4355964D02*
X8368663Y-4352353D01*
X7810522Y-4411436D02*
X7808880Y-4403183D01*
X8455813Y-3748050D02*
X8450677Y-3757937D01*
X7787392Y-4365793D02*
X7793343Y-4371743D01*
X7413898Y-4126283D02*
X7414524Y-4120141D01*
X7273605Y-3518055D02*
X7273981Y-3518055D01*
X7426505Y-4357866D02*
X7427180Y-4354840D01*
X7245001Y-3733464D02*
X7245001Y-3732255D01*
X8122920Y-4403183D02*
X8121278Y-4411436D01*
X7641488Y-4365793D02*
X7645860Y-4362871D01*
X8094343Y-4445598D02*
X8103060Y-4441987D01*
X7956469Y-3853841D02*
X7958928Y-3843140D01*
X8077200Y-4403183D02*
X8075558Y-4411436D01*
X8072338Y-4419211D02*
X8067663Y-4426208D01*
X7137956Y-3592789D02*
X7138077Y-3592649D01*
X7427181Y-3589671D02*
X7426506Y-3586645D01*
X7965900Y-4355964D02*
X7957183Y-4352353D01*
X7107170Y-4305038D02*
X7093072Y-4262745D01*
X7991513Y-4376009D02*
X7988760Y-4382655D01*
X7563137Y-4445598D02*
X7572505Y-4447461D01*
X8113459Y-4440054D02*
X8108850Y-4438145D01*
X8037480Y-4394768D02*
X8039122Y-4386514D01*
X7248649Y-4218490D02*
X7247400Y-4217252D01*
X7514490Y-4438145D02*
X7516748Y-4436636D01*
X8358728Y-4356255D02*
X8366981Y-4357897D01*
X8037233Y-4376009D02*
X8034480Y-4382655D01*
X7316221Y-3518055D02*
X7316222Y-3518055D01*
X7476810Y-4147943D02*
X7465005Y-4151013D01*
X8539215Y-4062952D02*
X8536248Y-4066586D01*
X8063130Y-4438145D02*
X8065388Y-4436636D01*
X7925970Y-4438145D02*
X7928228Y-4436636D01*
X7276571Y-3742348D02*
X7275029Y-3741106D01*
X7747623Y-4371743D02*
X7752298Y-4378740D01*
X8166865Y-4447461D02*
X8176415Y-4447461D01*
X8021633Y-3746329D02*
X8021633Y-3890721D01*
X7442314Y-4078275D02*
X7423981Y-4082687D01*
X8046941Y-4440054D02*
X8038688Y-4441695D01*
X7469632Y-4070765D02*
X7461394Y-4073864D01*
X8560880Y-4031841D02*
X8556102Y-4023711D01*
X8031727Y-4421942D02*
X8034480Y-4415296D01*
X7618792Y-4441695D02*
X7610539Y-4440054D01*
X8359162Y-4411436D02*
X8357520Y-4403183D01*
X7704474Y-4135568D02*
X7694427Y-4142812D01*
X7503876Y-4159764D02*
X7512330Y-4153450D01*
X8391334Y-4172357D02*
X8391334Y-4104634D01*
D11*
X4530477Y-4569508D02*
X4523334Y-4576651D01*
X4523334Y-4576651D02*
X4516191Y-4590937D01*
X4516191Y-4590937D02*
X4516191Y-4626651D01*
X4516191Y-4626651D02*
X4523334Y-4640937D01*
X4523334Y-4640937D02*
X4530477Y-4648080D01*
X4530477Y-4648080D02*
X4544763Y-4655223D01*
X4544763Y-4655223D02*
X4559048Y-4655223D01*
X4559048Y-4655223D02*
X4580477Y-4648080D01*
X4580477Y-4648080D02*
X4666191Y-4562365D01*
X4666191Y-4562365D02*
X4666191Y-4655223D01*
X4516191Y-4748080D02*
X4516191Y-4762365D01*
X4516191Y-4762365D02*
X4523334Y-4776651D01*
X4523334Y-4776651D02*
X4530477Y-4783794D01*
X4530477Y-4783794D02*
X4544763Y-4790937D01*
X4544763Y-4790937D02*
X4573334Y-4798080D01*
X4573334Y-4798080D02*
X4609048Y-4798080D01*
X4609048Y-4798080D02*
X4637620Y-4790937D01*
X4637620Y-4790937D02*
X4651906Y-4783794D01*
X4651906Y-4783794D02*
X4659048Y-4776651D01*
X4659048Y-4776651D02*
X4666191Y-4762365D01*
X4666191Y-4762365D02*
X4666191Y-4748080D01*
X4666191Y-4748080D02*
X4659048Y-4733794D01*
X4659048Y-4733794D02*
X4651906Y-4726651D01*
X4651906Y-4726651D02*
X4637620Y-4719508D01*
X4637620Y-4719508D02*
X4609048Y-4712365D01*
X4609048Y-4712365D02*
X4573334Y-4712365D01*
X4573334Y-4712365D02*
X4544763Y-4719508D01*
X4544763Y-4719508D02*
X4530477Y-4726651D01*
X4530477Y-4726651D02*
X4523334Y-4733794D01*
X4523334Y-4733794D02*
X4516191Y-4748080D01*
X4516191Y-4890937D02*
X4516191Y-4905222D01*
X4516191Y-4905222D02*
X4523334Y-4919508D01*
X4523334Y-4919508D02*
X4530477Y-4926651D01*
X4530477Y-4926651D02*
X4544763Y-4933794D01*
X4544763Y-4933794D02*
X4573334Y-4940937D01*
X4573334Y-4940937D02*
X4609048Y-4940937D01*
X4609048Y-4940937D02*
X4637620Y-4933794D01*
X4637620Y-4933794D02*
X4651906Y-4926651D01*
X4651906Y-4926651D02*
X4659048Y-4919508D01*
X4659048Y-4919508D02*
X4666191Y-4905222D01*
X4666191Y-4905222D02*
X4666191Y-4890937D01*
X4666191Y-4890937D02*
X4659048Y-4876651D01*
X4659048Y-4876651D02*
X4651906Y-4869508D01*
X4651906Y-4869508D02*
X4637620Y-4862365D01*
X4637620Y-4862365D02*
X4609048Y-4855222D01*
X4609048Y-4855222D02*
X4573334Y-4855222D01*
X4573334Y-4855222D02*
X4544763Y-4862365D01*
X4544763Y-4862365D02*
X4530477Y-4869508D01*
X4530477Y-4869508D02*
X4523334Y-4876651D01*
X4523334Y-4876651D02*
X4516191Y-4890937D01*
X4659048Y-5112365D02*
X4666191Y-5133794D01*
X4666191Y-5133794D02*
X4666191Y-5169508D01*
X4666191Y-5169508D02*
X4659048Y-5183794D01*
X4659048Y-5183794D02*
X4651906Y-5190937D01*
X4651906Y-5190937D02*
X4637620Y-5198080D01*
X4637620Y-5198080D02*
X4623334Y-5198080D01*
X4623334Y-5198080D02*
X4609048Y-5190937D01*
X4609048Y-5190937D02*
X4601906Y-5183794D01*
X4601906Y-5183794D02*
X4594763Y-5169508D01*
X4594763Y-5169508D02*
X4587620Y-5140937D01*
X4587620Y-5140937D02*
X4580477Y-5126651D01*
X4580477Y-5126651D02*
X4573334Y-5119508D01*
X4573334Y-5119508D02*
X4559048Y-5112365D01*
X4559048Y-5112365D02*
X4544763Y-5112365D01*
X4544763Y-5112365D02*
X4530477Y-5119508D01*
X4530477Y-5119508D02*
X4523334Y-5126651D01*
X4523334Y-5126651D02*
X4516191Y-5140937D01*
X4516191Y-5140937D02*
X4516191Y-5176651D01*
X4516191Y-5176651D02*
X4523334Y-5198080D01*
X4659048Y-5319508D02*
X4666191Y-5305222D01*
X4666191Y-5305222D02*
X4666191Y-5276651D01*
X4666191Y-5276651D02*
X4659048Y-5262365D01*
X4659048Y-5262365D02*
X4644763Y-5255222D01*
X4644763Y-5255222D02*
X4587620Y-5255222D01*
X4587620Y-5255222D02*
X4573334Y-5262365D01*
X4573334Y-5262365D02*
X4566191Y-5276651D01*
X4566191Y-5276651D02*
X4566191Y-5305222D01*
X4566191Y-5305222D02*
X4573334Y-5319508D01*
X4573334Y-5319508D02*
X4587620Y-5326651D01*
X4587620Y-5326651D02*
X4601906Y-5326651D01*
X4601906Y-5326651D02*
X4616191Y-5255222D01*
X4666191Y-5390937D02*
X4566191Y-5390937D01*
X4594763Y-5390937D02*
X4580477Y-5398079D01*
X4580477Y-5398079D02*
X4573334Y-5405222D01*
X4573334Y-5405222D02*
X4566191Y-5419508D01*
X4566191Y-5419508D02*
X4566191Y-5433794D01*
X4666191Y-5483794D02*
X4566191Y-5483794D01*
X4516191Y-5483794D02*
X4523334Y-5476651D01*
X4523334Y-5476651D02*
X4530477Y-5483794D01*
X4530477Y-5483794D02*
X4523334Y-5490937D01*
X4523334Y-5490937D02*
X4516191Y-5483794D01*
X4516191Y-5483794D02*
X4530477Y-5483794D01*
X4659048Y-5612365D02*
X4666191Y-5598079D01*
X4666191Y-5598079D02*
X4666191Y-5569508D01*
X4666191Y-5569508D02*
X4659048Y-5555222D01*
X4659048Y-5555222D02*
X4644763Y-5548079D01*
X4644763Y-5548079D02*
X4587620Y-5548079D01*
X4587620Y-5548079D02*
X4573334Y-5555222D01*
X4573334Y-5555222D02*
X4566191Y-5569508D01*
X4566191Y-5569508D02*
X4566191Y-5598079D01*
X4566191Y-5598079D02*
X4573334Y-5612365D01*
X4573334Y-5612365D02*
X4587620Y-5619508D01*
X4587620Y-5619508D02*
X4601906Y-5619508D01*
X4601906Y-5619508D02*
X4616191Y-5548079D01*
X4659048Y-5676651D02*
X4666191Y-5690936D01*
X4666191Y-5690936D02*
X4666191Y-5719508D01*
X4666191Y-5719508D02*
X4659048Y-5733794D01*
X4659048Y-5733794D02*
X4644763Y-5740936D01*
X4644763Y-5740936D02*
X4637620Y-5740936D01*
X4637620Y-5740936D02*
X4623334Y-5733794D01*
X4623334Y-5733794D02*
X4616191Y-5719508D01*
X4616191Y-5719508D02*
X4616191Y-5698079D01*
X4616191Y-5698079D02*
X4609048Y-5683794D01*
X4609048Y-5683794D02*
X4594763Y-5676651D01*
X4594763Y-5676651D02*
X4587620Y-5676651D01*
X4587620Y-5676651D02*
X4573334Y-5683794D01*
X4573334Y-5683794D02*
X4566191Y-5698079D01*
X4566191Y-5698079D02*
X4566191Y-5719508D01*
X4566191Y-5719508D02*
X4573334Y-5733794D01*
X4666191Y-5919508D02*
X4516191Y-5919508D01*
X4516191Y-5919508D02*
X4516191Y-5976651D01*
X4516191Y-5976651D02*
X4523334Y-5990936D01*
X4523334Y-5990936D02*
X4530477Y-5998079D01*
X4530477Y-5998079D02*
X4544763Y-6005222D01*
X4544763Y-6005222D02*
X4566191Y-6005222D01*
X4566191Y-6005222D02*
X4580477Y-5998079D01*
X4580477Y-5998079D02*
X4587620Y-5990936D01*
X4587620Y-5990936D02*
X4594763Y-5976651D01*
X4594763Y-5976651D02*
X4594763Y-5919508D01*
X4666191Y-6090936D02*
X4659048Y-6076651D01*
X4659048Y-6076651D02*
X4644763Y-6069508D01*
X4644763Y-6069508D02*
X4516191Y-6069508D01*
X4666191Y-6212365D02*
X4587620Y-6212365D01*
X4587620Y-6212365D02*
X4573334Y-6205222D01*
X4573334Y-6205222D02*
X4566191Y-6190936D01*
X4566191Y-6190936D02*
X4566191Y-6162365D01*
X4566191Y-6162365D02*
X4573334Y-6148079D01*
X4659048Y-6212365D02*
X4666191Y-6198079D01*
X4666191Y-6198079D02*
X4666191Y-6162365D01*
X4666191Y-6162365D02*
X4659048Y-6148079D01*
X4659048Y-6148079D02*
X4644763Y-6140936D01*
X4644763Y-6140936D02*
X4630477Y-6140936D01*
X4630477Y-6140936D02*
X4616191Y-6148079D01*
X4616191Y-6148079D02*
X4609048Y-6162365D01*
X4609048Y-6162365D02*
X4609048Y-6198079D01*
X4609048Y-6198079D02*
X4601906Y-6212365D01*
X4566191Y-6262365D02*
X4566191Y-6319508D01*
X4516191Y-6283794D02*
X4644763Y-6283794D01*
X4644763Y-6283794D02*
X4659048Y-6290936D01*
X4659048Y-6290936D02*
X4666191Y-6305222D01*
X4666191Y-6305222D02*
X4666191Y-6319508D01*
X4566191Y-6348079D02*
X4566191Y-6405222D01*
X4666191Y-6369508D02*
X4537620Y-6369508D01*
X4537620Y-6369508D02*
X4523334Y-6376651D01*
X4523334Y-6376651D02*
X4516191Y-6390936D01*
X4516191Y-6390936D02*
X4516191Y-6405222D01*
X4666191Y-6476651D02*
X4659048Y-6462365D01*
X4659048Y-6462365D02*
X4651906Y-6455222D01*
X4651906Y-6455222D02*
X4637620Y-6448079D01*
X4637620Y-6448079D02*
X4594763Y-6448079D01*
X4594763Y-6448079D02*
X4580477Y-6455222D01*
X4580477Y-6455222D02*
X4573334Y-6462365D01*
X4573334Y-6462365D02*
X4566191Y-6476651D01*
X4566191Y-6476651D02*
X4566191Y-6498079D01*
X4566191Y-6498079D02*
X4573334Y-6512365D01*
X4573334Y-6512365D02*
X4580477Y-6519508D01*
X4580477Y-6519508D02*
X4594763Y-6526651D01*
X4594763Y-6526651D02*
X4637620Y-6526651D01*
X4637620Y-6526651D02*
X4651906Y-6519508D01*
X4651906Y-6519508D02*
X4659048Y-6512365D01*
X4659048Y-6512365D02*
X4666191Y-6498079D01*
X4666191Y-6498079D02*
X4666191Y-6476651D01*
X4666191Y-6590936D02*
X4566191Y-6590936D01*
X4594763Y-6590936D02*
X4580477Y-6598079D01*
X4580477Y-6598079D02*
X4573334Y-6605222D01*
X4573334Y-6605222D02*
X4566191Y-6619508D01*
X4566191Y-6619508D02*
X4566191Y-6633794D01*
X4666191Y-6683794D02*
X4566191Y-6683794D01*
X4580477Y-6683794D02*
X4573334Y-6690936D01*
X4573334Y-6690936D02*
X4566191Y-6705222D01*
X4566191Y-6705222D02*
X4566191Y-6726651D01*
X4566191Y-6726651D02*
X4573334Y-6740936D01*
X4573334Y-6740936D02*
X4587620Y-6748079D01*
X4587620Y-6748079D02*
X4666191Y-6748079D01*
X4587620Y-6748079D02*
X4573334Y-6755222D01*
X4573334Y-6755222D02*
X4566191Y-6769508D01*
X4566191Y-6769508D02*
X4566191Y-6790936D01*
X4566191Y-6790936D02*
X4573334Y-6805222D01*
X4573334Y-6805222D02*
X4587620Y-6812365D01*
X4587620Y-6812365D02*
X4666191Y-6812365D01*
X4907683Y-4662365D02*
X4836254Y-4612365D01*
X4907683Y-4576651D02*
X4757683Y-4576651D01*
X4757683Y-4576651D02*
X4757683Y-4633794D01*
X4757683Y-4633794D02*
X4764826Y-4648080D01*
X4764826Y-4648080D02*
X4771969Y-4655223D01*
X4771969Y-4655223D02*
X4786254Y-4662365D01*
X4786254Y-4662365D02*
X4807683Y-4662365D01*
X4807683Y-4662365D02*
X4821969Y-4655223D01*
X4821969Y-4655223D02*
X4829111Y-4648080D01*
X4829111Y-4648080D02*
X4836254Y-4633794D01*
X4836254Y-4633794D02*
X4836254Y-4576651D01*
X4900540Y-4783794D02*
X4907683Y-4769508D01*
X4907683Y-4769508D02*
X4907683Y-4740937D01*
X4907683Y-4740937D02*
X4900540Y-4726651D01*
X4900540Y-4726651D02*
X4886254Y-4719508D01*
X4886254Y-4719508D02*
X4829111Y-4719508D01*
X4829111Y-4719508D02*
X4814826Y-4726651D01*
X4814826Y-4726651D02*
X4807683Y-4740937D01*
X4807683Y-4740937D02*
X4807683Y-4769508D01*
X4807683Y-4769508D02*
X4814826Y-4783794D01*
X4814826Y-4783794D02*
X4829111Y-4790937D01*
X4829111Y-4790937D02*
X4843397Y-4790937D01*
X4843397Y-4790937D02*
X4857683Y-4719508D01*
X4807683Y-4840937D02*
X4907683Y-4876651D01*
X4907683Y-4876651D02*
X4807683Y-4912365D01*
X4893397Y-4969508D02*
X4900540Y-4976651D01*
X4900540Y-4976651D02*
X4907683Y-4969508D01*
X4907683Y-4969508D02*
X4900540Y-4962365D01*
X4900540Y-4962365D02*
X4893397Y-4969508D01*
X4893397Y-4969508D02*
X4907683Y-4969508D01*
X4814826Y-4969508D02*
X4821969Y-4976651D01*
X4821969Y-4976651D02*
X4829111Y-4969508D01*
X4829111Y-4969508D02*
X4821969Y-4962365D01*
X4821969Y-4962365D02*
X4814826Y-4969508D01*
X4814826Y-4969508D02*
X4829111Y-4969508D01*
X4864826Y-5148080D02*
X4864826Y-5219508D01*
X4907683Y-5133794D02*
X4757683Y-5183794D01*
X4757683Y-5183794D02*
X4907683Y-5233794D01*
X4907683Y-5362365D02*
X4907683Y-5276651D01*
X4907683Y-5319508D02*
X4757683Y-5319508D01*
X4757683Y-5319508D02*
X4779111Y-5305222D01*
X4779111Y-5305222D02*
X4793397Y-5290937D01*
X4793397Y-5290937D02*
X4800540Y-5276651D01*
D12*
X10995173Y-10751680D02*
X10980888Y-10756442D01*
X10980888Y-10756442D02*
X10957078Y-10756442D01*
X10957078Y-10756442D02*
X10947554Y-10751680D01*
X10947554Y-10751680D02*
X10942793Y-10746918D01*
X10942793Y-10746918D02*
X10938031Y-10737394D01*
X10938031Y-10737394D02*
X10938031Y-10727870D01*
X10938031Y-10727870D02*
X10942793Y-10718347D01*
X10942793Y-10718347D02*
X10947554Y-10713585D01*
X10947554Y-10713585D02*
X10957078Y-10708823D01*
X10957078Y-10708823D02*
X10976126Y-10704061D01*
X10976126Y-10704061D02*
X10985650Y-10699299D01*
X10985650Y-10699299D02*
X10990412Y-10694537D01*
X10990412Y-10694537D02*
X10995173Y-10685013D01*
X10995173Y-10685013D02*
X10995173Y-10675490D01*
X10995173Y-10675490D02*
X10990412Y-10665966D01*
X10990412Y-10665966D02*
X10985650Y-10661204D01*
X10985650Y-10661204D02*
X10976126Y-10656442D01*
X10976126Y-10656442D02*
X10952316Y-10656442D01*
X10952316Y-10656442D02*
X10938031Y-10661204D01*
X10909459Y-10689775D02*
X10871364Y-10689775D01*
X10895173Y-10656442D02*
X10895173Y-10742156D01*
X10895173Y-10742156D02*
X10890412Y-10751680D01*
X10890412Y-10751680D02*
X10880888Y-10756442D01*
X10880888Y-10756442D02*
X10871364Y-10756442D01*
X10838031Y-10756442D02*
X10838031Y-10689775D01*
X10838031Y-10708823D02*
X10833269Y-10699299D01*
X10833269Y-10699299D02*
X10828507Y-10694537D01*
X10828507Y-10694537D02*
X10818983Y-10689775D01*
X10818983Y-10689775D02*
X10809459Y-10689775D01*
X10776126Y-10756442D02*
X10776126Y-10689775D01*
X10776126Y-10656442D02*
X10780888Y-10661204D01*
X10780888Y-10661204D02*
X10776126Y-10665966D01*
X10776126Y-10665966D02*
X10771364Y-10661204D01*
X10771364Y-10661204D02*
X10776126Y-10656442D01*
X10776126Y-10656442D02*
X10776126Y-10665966D01*
X10728507Y-10689775D02*
X10728507Y-10789775D01*
X10728507Y-10694537D02*
X10718983Y-10689775D01*
X10718983Y-10689775D02*
X10699935Y-10689775D01*
X10699935Y-10689775D02*
X10690412Y-10694537D01*
X10690412Y-10694537D02*
X10685650Y-10699299D01*
X10685650Y-10699299D02*
X10680888Y-10708823D01*
X10680888Y-10708823D02*
X10680888Y-10737394D01*
X10680888Y-10737394D02*
X10685650Y-10746918D01*
X10685650Y-10746918D02*
X10690412Y-10751680D01*
X10690412Y-10751680D02*
X10699935Y-10756442D01*
X10699935Y-10756442D02*
X10718983Y-10756442D01*
X10718983Y-10756442D02*
X10728507Y-10751680D01*
X10599935Y-10751680D02*
X10609459Y-10756442D01*
X10609459Y-10756442D02*
X10628507Y-10756442D01*
X10628507Y-10756442D02*
X10638031Y-10751680D01*
X10638031Y-10751680D02*
X10642792Y-10742156D01*
X10642792Y-10742156D02*
X10642792Y-10704061D01*
X10642792Y-10704061D02*
X10638031Y-10694537D01*
X10638031Y-10694537D02*
X10628507Y-10689775D01*
X10628507Y-10689775D02*
X10609459Y-10689775D01*
X10609459Y-10689775D02*
X10599935Y-10694537D01*
X10599935Y-10694537D02*
X10595173Y-10704061D01*
X10595173Y-10704061D02*
X10595173Y-10713585D01*
X10595173Y-10713585D02*
X10642792Y-10723109D01*
X10476126Y-10756442D02*
X10476126Y-10656442D01*
X10476126Y-10704061D02*
X10418983Y-10704061D01*
X10418983Y-10756442D02*
X10418983Y-10656442D01*
X10333269Y-10751680D02*
X10342792Y-10756442D01*
X10342792Y-10756442D02*
X10361840Y-10756442D01*
X10361840Y-10756442D02*
X10371364Y-10751680D01*
X10371364Y-10751680D02*
X10376126Y-10742156D01*
X10376126Y-10742156D02*
X10376126Y-10704061D01*
X10376126Y-10704061D02*
X10371364Y-10694537D01*
X10371364Y-10694537D02*
X10361840Y-10689775D01*
X10361840Y-10689775D02*
X10342792Y-10689775D01*
X10342792Y-10689775D02*
X10333269Y-10694537D01*
X10333269Y-10694537D02*
X10328507Y-10704061D01*
X10328507Y-10704061D02*
X10328507Y-10713585D01*
X10328507Y-10713585D02*
X10376126Y-10723109D01*
X10285650Y-10756442D02*
X10285650Y-10689775D01*
X10285650Y-10708823D02*
X10280888Y-10699299D01*
X10280888Y-10699299D02*
X10276126Y-10694537D01*
X10276126Y-10694537D02*
X10266602Y-10689775D01*
X10266602Y-10689775D02*
X10257078Y-10689775D01*
X10185650Y-10751680D02*
X10195173Y-10756442D01*
X10195173Y-10756442D02*
X10214221Y-10756442D01*
X10214221Y-10756442D02*
X10223745Y-10751680D01*
X10223745Y-10751680D02*
X10228507Y-10742156D01*
X10228507Y-10742156D02*
X10228507Y-10704061D01*
X10228507Y-10704061D02*
X10223745Y-10694537D01*
X10223745Y-10694537D02*
X10214221Y-10689775D01*
X10214221Y-10689775D02*
X10195173Y-10689775D01*
X10195173Y-10689775D02*
X10185650Y-10694537D01*
X10185650Y-10694537D02*
X10180888Y-10704061D01*
X10180888Y-10704061D02*
X10180888Y-10713585D01*
X10180888Y-10713585D02*
X10228507Y-10723109D01*
X10040412Y-10708347D02*
X9964221Y-10708347D01*
X9864221Y-10746442D02*
X9921364Y-10746442D01*
X9892793Y-10746442D02*
X9892793Y-10646442D01*
X9892793Y-10646442D02*
X9902316Y-10660728D01*
X9902316Y-10660728D02*
X9911840Y-10670251D01*
X9911840Y-10670251D02*
X9921364Y-10675013D01*
X9826126Y-10655966D02*
X9821364Y-10651204D01*
X9821364Y-10651204D02*
X9811840Y-10646442D01*
X9811840Y-10646442D02*
X9788031Y-10646442D01*
X9788031Y-10646442D02*
X9778507Y-10651204D01*
X9778507Y-10651204D02*
X9773745Y-10655966D01*
X9773745Y-10655966D02*
X9768983Y-10665490D01*
X9768983Y-10665490D02*
X9768983Y-10675013D01*
X9768983Y-10675013D02*
X9773745Y-10689299D01*
X9773745Y-10689299D02*
X9830888Y-10746442D01*
X9830888Y-10746442D02*
X9768983Y-10746442D01*
X9740412Y-10646442D02*
X9707078Y-10746442D01*
X9707078Y-10746442D02*
X9673745Y-10646442D01*
X10020412Y-12058347D02*
X9944221Y-12058347D01*
X9982316Y-12096442D02*
X9982316Y-12020251D01*
X9844221Y-12096442D02*
X9901364Y-12096442D01*
X9872793Y-12096442D02*
X9872793Y-11996442D01*
X9872793Y-11996442D02*
X9882316Y-12010728D01*
X9882316Y-12010728D02*
X9891840Y-12020251D01*
X9891840Y-12020251D02*
X9901364Y-12025013D01*
X9806126Y-12005966D02*
X9801364Y-12001204D01*
X9801364Y-12001204D02*
X9791840Y-11996442D01*
X9791840Y-11996442D02*
X9768031Y-11996442D01*
X9768031Y-11996442D02*
X9758507Y-12001204D01*
X9758507Y-12001204D02*
X9753745Y-12005966D01*
X9753745Y-12005966D02*
X9748983Y-12015489D01*
X9748983Y-12015489D02*
X9748983Y-12025013D01*
X9748983Y-12025013D02*
X9753745Y-12039299D01*
X9753745Y-12039299D02*
X9810888Y-12096442D01*
X9810888Y-12096442D02*
X9748983Y-12096442D01*
X9720412Y-11996442D02*
X9687078Y-12096442D01*
X9687078Y-12096442D02*
X9653745Y-11996442D01*
X9442804Y-11301969D02*
X9438042Y-11292445D01*
X9438042Y-11292445D02*
X9438042Y-11278160D01*
X9438042Y-11278160D02*
X9442804Y-11263874D01*
X9442804Y-11263874D02*
X9452328Y-11254350D01*
X9452328Y-11254350D02*
X9461851Y-11249588D01*
X9461851Y-11249588D02*
X9480899Y-11244826D01*
X9480899Y-11244826D02*
X9495185Y-11244826D01*
X9495185Y-11244826D02*
X9514232Y-11249588D01*
X9514232Y-11249588D02*
X9523756Y-11254350D01*
X9523756Y-11254350D02*
X9533280Y-11263874D01*
X9533280Y-11263874D02*
X9538042Y-11278160D01*
X9538042Y-11278160D02*
X9538042Y-11287684D01*
X9538042Y-11287684D02*
X9533280Y-11301969D01*
X9533280Y-11301969D02*
X9528518Y-11306731D01*
X9528518Y-11306731D02*
X9495185Y-11306731D01*
X9495185Y-11306731D02*
X9495185Y-11287684D01*
X9538042Y-11349588D02*
X9438042Y-11349588D01*
X9438042Y-11349588D02*
X9538042Y-11406731D01*
X9538042Y-11406731D02*
X9438042Y-11406731D01*
X9538042Y-11454350D02*
X9438042Y-11454350D01*
X9438042Y-11454350D02*
X9438042Y-11478160D01*
X9438042Y-11478160D02*
X9442804Y-11492445D01*
X9442804Y-11492445D02*
X9452328Y-11501969D01*
X9452328Y-11501969D02*
X9461851Y-11506731D01*
X9461851Y-11506731D02*
X9480899Y-11511493D01*
X9480899Y-11511493D02*
X9495185Y-11511493D01*
X9495185Y-11511493D02*
X9514232Y-11506731D01*
X9514232Y-11506731D02*
X9523756Y-11501969D01*
X9523756Y-11501969D02*
X9533280Y-11492445D01*
X9533280Y-11492445D02*
X9538042Y-11478160D01*
X9538042Y-11478160D02*
X9538042Y-11454350D01*
%TO.C,J17*%
X9560800Y-11029200D02*
X9560800Y-11749200D01*
X9560800Y-11749200D02*
X9620800Y-11749200D01*
X9620800Y-11029200D02*
X9560800Y-11029200D01*
X10175800Y-10819200D02*
X11025800Y-10819200D01*
X11025800Y-10899200D01*
X10175800Y-10899200D01*
X10175800Y-10819200D01*
G36*
X10175800Y-10819200D02*
G01*
X11025800Y-10819200D01*
X11025800Y-10899200D01*
X10175800Y-10899200D01*
X10175800Y-10819200D01*
G37*
X10175800Y-10934756D02*
X11025800Y-10934756D01*
X11025800Y-11014756D01*
X10175800Y-11014756D01*
X10175800Y-10934756D01*
X10175800Y-11050311D02*
X11025800Y-11050311D01*
X11025800Y-11130311D01*
X10175800Y-11130311D01*
X10175800Y-11050311D01*
X10175800Y-11165867D02*
X11025800Y-11165867D01*
X11025800Y-11245866D01*
X10175800Y-11245866D01*
X10175800Y-11165867D01*
X10175800Y-11281422D02*
X11025800Y-11281422D01*
X11025800Y-11361422D01*
X10175800Y-11361422D01*
X10175800Y-11281422D01*
X10175800Y-11396977D02*
X11025800Y-11396977D01*
X11025800Y-11476977D01*
X10175800Y-11476977D01*
X10175800Y-11396977D01*
X10175800Y-11512533D02*
X11025800Y-11512533D01*
X11025800Y-11592533D01*
X10175800Y-11592533D01*
X10175800Y-11512533D01*
X10175800Y-11628088D02*
X11025800Y-11628088D01*
X11025800Y-11708088D01*
X10175800Y-11708088D01*
X10175800Y-11628088D01*
X10175800Y-11743644D02*
X11025800Y-11743644D01*
X11025800Y-11823644D01*
X10175800Y-11823644D01*
X10175800Y-11743644D01*
X10175800Y-11859200D02*
X11025800Y-11859200D01*
X11025800Y-11939200D01*
X10175800Y-11939200D01*
X10175800Y-11859200D01*
%TD*%
M02*
