M48
; DRILL file {KiCad 9.0.0} date 2025-03-18T19:24:19-0400
; FORMAT={-:-/ absolute / inch / decimal}
; #@! TF.CreationDate,2025-03-18T19:24:19-04:00
; #@! TF.GenerationSoftware,Kicad,Pcbnew,9.0.0
; #@! TF.FileFunction,MixedPlating,1,4
FMAT,2
INCH
; #@! TA.AperFunction,Plated,PTH,ViaDrill
T1C0.0118
; #@! TA.AperFunction,Plated,PTH,ViaDrill
T2C0.0236
; #@! TA.AperFunction,Plated,PTH,ComponentDrill
T3C0.0236
; #@! TA.AperFunction,Plated,PTH,ComponentDrill
T4C0.0394
; #@! TA.AperFunction,Plated,PTH,ComponentDrill
T5C0.0433
; #@! TA.AperFunction,Plated,PTH,ComponentDrill
T6C0.0512
; #@! TA.AperFunction,NonPlated,NPTH,ComponentDrill
T7C0.0472
; #@! TA.AperFunction,NonPlated,NPTH,ComponentDrill
T8C0.1181
%
G90
G05
T1
X1.9Y-3.93
X2.2Y-4.08
X2.24Y-4.52
X2.25Y-2.07
X2.27Y-2.17
X2.4Y-4.57
X2.43Y-5.345
X2.49Y-4.53
X2.53Y-2.62
X2.59Y-3.62
X2.7Y-4.12
X2.71Y-3.79
X2.77Y-3.69
X2.77Y-4.41
X2.81Y-2.69
X2.84Y-2.84
X2.8735Y-2.7744
X2.94Y-3.75
X3.0887Y-2.7687
X3.1191Y-2.2191
X3.14Y-2.07
X3.18Y-2.85
X3.21Y-3.76
X3.26Y-2.81
X3.27Y-4.51
X3.3279Y-4.1501
X3.34Y-2.27
X3.35Y-2.01
X3.4Y-2.46
X3.4018Y-4.5982
X3.405Y-5.595
X3.42Y-2.58
X3.42Y-3.2
X3.45Y-3.75
X3.45Y-3.8
X3.4795Y-4.0905
X3.4955Y-5.013
X3.5Y-4.54
X3.5076Y-3.1146
X3.52Y-3.73
X3.53Y-4.99
X3.53Y-2.78
X3.53Y-3.97
X3.53Y-4.59
X3.58Y-2.49
X3.64Y-2.74
X3.72Y-4.53
X3.72Y-4.99
X3.75Y-2.27
X3.8Y-3.42
X3.92Y-2.01
X3.93Y-3.26
X4.0Y-3.21
X4.03Y-3.65
X4.08Y-3.13
X4.12Y-3.42
T2
X1.8Y-3.73
X2.15Y-2.22
X2.68Y-2.26
X2.69Y-1.9
X2.8032Y-3.0148
X2.8544Y-4.6042
X2.98Y-1.78
X3.24Y-4.651
X3.24Y-4.75
X3.34Y-2.55
X3.8Y-1.99
X3.8Y-2.93
X3.89Y-2.58
X3.93Y-4.83
X3.98Y-3.47
X4.11Y-4.82
X4.16Y-2.37
X4.24Y-3.62
X4.31Y-1.94
X4.3808Y-3.62
T4
X2.0916Y-1.87
X2.0916Y-2.945
X2.0916Y-4.02
X2.19Y-1.87
X2.19Y-2.945
X2.19Y-4.02
X2.2884Y-1.87
X2.2884Y-2.945
X2.2884Y-4.02
X2.9916Y-2.445
X2.9916Y-3.52
X3.09Y-2.445
X3.09Y-3.52
X3.1884Y-2.445
X3.1884Y-3.52
X3.8916Y-1.87
X3.8916Y-2.945
X3.8916Y-4.02
X3.99Y-1.87
X3.99Y-2.945
X3.99Y-4.02
X4.0884Y-1.87
X4.0884Y-2.945
X4.0884Y-4.02
T5
X2.89Y-3.87
X2.89Y-3.97
X2.89Y-4.07
X3.0014Y-4.222
X3.0014Y-4.478
X3.1786Y-4.222
X3.1786Y-4.478
X3.29Y-3.87
X3.29Y-3.97
X3.29Y-4.07
X3.8263Y-4.2808
X3.8263Y-4.3808
X3.8263Y-4.4808
X3.8263Y-4.5808
X3.8263Y-4.6808
X3.9263Y-4.2808
X3.9263Y-4.3808
X3.9263Y-4.4808
X3.9263Y-4.5808
X3.9263Y-4.6808
T7
X2.2964Y-4.28
X2.2964Y-4.38
X2.3964Y-4.28
X2.3964Y-4.38
X2.407Y-1.9646
X2.407Y-2.0646
X2.407Y-2.1646
X2.407Y-2.2646
X2.407Y-2.3646
X2.4964Y-4.28
X2.4964Y-4.38
X2.507Y-1.9646
X2.507Y-2.0646
X2.507Y-2.1646
X2.507Y-2.2646
X2.507Y-2.3646
X2.5964Y-4.28
X2.5964Y-4.38
X2.6964Y-4.28
X2.6964Y-4.38
X3.32Y-4.28
X3.32Y-4.38
X3.42Y-4.28
X3.42Y-4.38
X3.5094Y-1.9646
X3.5094Y-2.0646
X3.5094Y-2.1646
X3.5094Y-2.2646
X3.5094Y-2.3646
X3.52Y-4.28
X3.52Y-4.38
X3.6094Y-1.9646
X3.6094Y-2.0646
X3.6094Y-2.1646
X3.6094Y-2.2646
X3.6094Y-2.3646
X3.62Y-4.28
X3.62Y-4.38
X3.72Y-4.28
X3.72Y-4.38
T8
X1.9799Y-4.68
X1.9799Y-5.08
X1.9799Y-5.48
X2.5199Y-4.68
X2.5199Y-5.08
X2.5199Y-5.48
X3.0599Y-5.08
X3.0599Y-5.48
X3.5999Y-5.08
X3.5999Y-5.48
X4.1399Y-5.08
X4.1399Y-5.48
T3
X1.7862Y-4.6977G85X1.7862Y-4.6623
G05
X1.7862Y-5.0977G85X1.7862Y-5.0623
G05
X1.7862Y-5.4977G85X1.7862Y-5.4623
G05
X2.113Y-4.6977G85X2.113Y-4.6623
G05
X2.113Y-5.0977G85X2.113Y-5.0623
G05
X2.113Y-5.4977G85X2.113Y-5.4623
G05
X2.235Y-4.6938G85X2.235Y-4.6662
G05
X2.235Y-5.0938G85X2.235Y-5.0662
G05
X2.235Y-5.4938G85X2.235Y-5.4662
G05
X2.3262Y-4.6977G85X2.3262Y-4.6623
G05
X2.3262Y-5.0977G85X2.3262Y-5.0623
G05
X2.3262Y-5.4977G85X2.3262Y-5.4623
G05
X2.653Y-4.6977G85X2.653Y-4.6623
G05
X2.653Y-5.0977G85X2.653Y-5.0623
G05
X2.653Y-5.4977G85X2.653Y-5.4623
G05
X2.775Y-4.6938G85X2.775Y-4.6662
G05
X2.775Y-5.0938G85X2.775Y-5.0662
G05
X2.775Y-5.4938G85X2.775Y-5.4662
G05
X2.8662Y-5.0977G85X2.8662Y-5.0623
G05
X2.8662Y-5.4977G85X2.8662Y-5.4623
G05
X3.193Y-5.0977G85X3.193Y-5.0623
G05
X3.193Y-5.4977G85X3.193Y-5.4623
G05
X3.315Y-5.0938G85X3.315Y-5.0662
G05
X3.315Y-5.4938G85X3.315Y-5.4662
G05
X3.4062Y-5.0977G85X3.4062Y-5.0623
G05
X3.4062Y-5.4977G85X3.4062Y-5.4623
G05
X3.733Y-5.0977G85X3.733Y-5.0623
G05
X3.733Y-5.4977G85X3.733Y-5.4623
G05
X3.855Y-5.0938G85X3.855Y-5.0662
G05
X3.855Y-5.4938G85X3.855Y-5.4662
G05
X3.9462Y-5.0977G85X3.9462Y-5.0623
G05
X3.9462Y-5.4977G85X3.9462Y-5.4623
G05
X4.273Y-5.0977G85X4.273Y-5.0623
G05
X4.273Y-5.4977G85X4.273Y-5.4623
G05
X4.395Y-5.0938G85X4.395Y-5.0662
G05
X4.395Y-5.4938G85X4.395Y-5.4662
G05
T6
X2.0069Y-1.5747G85X1.9872Y-1.5747
G05
X2.0069Y-2.6497G85X1.9872Y-2.6497
G05
X2.0069Y-3.7247G85X1.9872Y-3.7247
G05
X2.3928Y-1.5747G85X2.3731Y-1.5747
G05
X2.3928Y-2.6497G85X2.3731Y-2.6497
G05
X2.3928Y-3.7247G85X2.3731Y-3.7247
G05
X2.9069Y-2.1497G85X2.8872Y-2.1497
G05
X2.9069Y-3.2247G85X2.8872Y-3.2247
G05
X3.2928Y-2.1497G85X3.2731Y-2.1497
G05
X3.2928Y-3.2247G85X3.2731Y-3.2247
G05
X3.8069Y-1.5747G85X3.7872Y-1.5747
G05
X3.8069Y-2.6497G85X3.7872Y-2.6497
G05
X3.8069Y-3.7247G85X3.7872Y-3.7247
G05
X4.1928Y-1.5747G85X4.1731Y-1.5747
G05
X4.1928Y-2.6497G85X4.1731Y-2.6497
G05
X4.1928Y-3.7247G85X4.1731Y-3.7247
G05
M30
