%TF.GenerationSoftware,KiCad,Pcbnew,7.0.1*%
%TF.CreationDate,2024-01-09T19:15:50-05:00*%
%TF.ProjectId,daisy_euro,64616973-795f-4657-9572-6f2e6b696361,rev?*%
%TF.SameCoordinates,Original*%
%TF.FileFunction,Copper,L4,Bot*%
%TF.FilePolarity,Positive*%
%FSLAX46Y46*%
G04 Gerber Fmt 4.6, Leading zero omitted, Abs format (unit mm)*
G04 Created by KiCad (PCBNEW 7.0.1) date 2024-01-09 19:15:50*
%MOMM*%
%LPD*%
G01*
G04 APERTURE LIST*
G04 Aperture macros list*
%AMRoundRect*
0 Rectangle with rounded corners*
0 $1 Rounding radius*
0 $2 $3 $4 $5 $6 $7 $8 $9 X,Y pos of 4 corners*
0 Add a 4 corners polygon primitive as box body*
4,1,4,$2,$3,$4,$5,$6,$7,$8,$9,$2,$3,0*
0 Add four circle primitives for the rounded corners*
1,1,$1+$1,$2,$3*
1,1,$1+$1,$4,$5*
1,1,$1+$1,$6,$7*
1,1,$1+$1,$8,$9*
0 Add four rect primitives between the rounded corners*
20,1,$1+$1,$2,$3,$4,$5,0*
20,1,$1+$1,$4,$5,$6,$7,0*
20,1,$1+$1,$6,$7,$8,$9,0*
20,1,$1+$1,$8,$9,$2,$3,0*%
G04 Aperture macros list end*
%TA.AperFunction,ComponentPad*%
%ADD10C,2.000000*%
%TD*%
%TA.AperFunction,ComponentPad*%
%ADD11R,1.800000X1.800000*%
%TD*%
%TA.AperFunction,ComponentPad*%
%ADD12C,1.800000*%
%TD*%
%TA.AperFunction,ComponentPad*%
%ADD13R,1.700000X1.700000*%
%TD*%
%TA.AperFunction,ComponentPad*%
%ADD14C,1.700000*%
%TD*%
%TA.AperFunction,ComponentPad*%
%ADD15O,2.720000X3.240000*%
%TD*%
%TA.AperFunction,ComponentPad*%
%ADD16C,2.032000*%
%TD*%
%TA.AperFunction,ComponentPad*%
%ADD17O,1.700000X1.700000*%
%TD*%
%TA.AperFunction,SMDPad,CuDef*%
%ADD18RoundRect,0.200000X0.275000X-0.200000X0.275000X0.200000X-0.275000X0.200000X-0.275000X-0.200000X0*%
%TD*%
%TA.AperFunction,SMDPad,CuDef*%
%ADD19RoundRect,0.225000X0.250000X-0.225000X0.250000X0.225000X-0.250000X0.225000X-0.250000X-0.225000X0*%
%TD*%
%TA.AperFunction,SMDPad,CuDef*%
%ADD20RoundRect,0.225000X-0.250000X0.225000X-0.250000X-0.225000X0.250000X-0.225000X0.250000X0.225000X0*%
%TD*%
%TA.AperFunction,SMDPad,CuDef*%
%ADD21RoundRect,0.200000X-0.275000X0.200000X-0.275000X-0.200000X0.275000X-0.200000X0.275000X0.200000X0*%
%TD*%
%TA.AperFunction,SMDPad,CuDef*%
%ADD22RoundRect,0.100000X0.637500X0.100000X-0.637500X0.100000X-0.637500X-0.100000X0.637500X-0.100000X0*%
%TD*%
%TA.AperFunction,SMDPad,CuDef*%
%ADD23RoundRect,0.250000X1.100000X-0.325000X1.100000X0.325000X-1.100000X0.325000X-1.100000X-0.325000X0*%
%TD*%
%TA.AperFunction,SMDPad,CuDef*%
%ADD24RoundRect,0.225000X0.225000X0.250000X-0.225000X0.250000X-0.225000X-0.250000X0.225000X-0.250000X0*%
%TD*%
%TA.AperFunction,SMDPad,CuDef*%
%ADD25RoundRect,0.225000X-0.225000X-0.250000X0.225000X-0.250000X0.225000X0.250000X-0.225000X0.250000X0*%
%TD*%
%TA.AperFunction,SMDPad,CuDef*%
%ADD26RoundRect,0.150000X0.587500X0.150000X-0.587500X0.150000X-0.587500X-0.150000X0.587500X-0.150000X0*%
%TD*%
%TA.AperFunction,SMDPad,CuDef*%
%ADD27RoundRect,0.250000X-1.100000X0.325000X-1.100000X-0.325000X1.100000X-0.325000X1.100000X0.325000X0*%
%TD*%
%TA.AperFunction,SMDPad,CuDef*%
%ADD28RoundRect,0.225000X-0.225000X-0.375000X0.225000X-0.375000X0.225000X0.375000X-0.225000X0.375000X0*%
%TD*%
%TA.AperFunction,SMDPad,CuDef*%
%ADD29RoundRect,0.100000X0.100000X-0.637500X0.100000X0.637500X-0.100000X0.637500X-0.100000X-0.637500X0*%
%TD*%
%TA.AperFunction,SMDPad,CuDef*%
%ADD30RoundRect,0.200000X0.200000X0.275000X-0.200000X0.275000X-0.200000X-0.275000X0.200000X-0.275000X0*%
%TD*%
%TA.AperFunction,SMDPad,CuDef*%
%ADD31RoundRect,0.250000X1.250000X0.550000X-1.250000X0.550000X-1.250000X-0.550000X1.250000X-0.550000X0*%
%TD*%
%TA.AperFunction,SMDPad,CuDef*%
%ADD32RoundRect,0.250000X-0.550000X1.250000X-0.550000X-1.250000X0.550000X-1.250000X0.550000X1.250000X0*%
%TD*%
%TA.AperFunction,SMDPad,CuDef*%
%ADD33RoundRect,0.225000X0.225000X0.375000X-0.225000X0.375000X-0.225000X-0.375000X0.225000X-0.375000X0*%
%TD*%
%TA.AperFunction,ComponentPad*%
%ADD34C,1.524000*%
%TD*%
%TA.AperFunction,ViaPad*%
%ADD35C,0.800000*%
%TD*%
%TA.AperFunction,Conductor*%
%ADD36C,0.203200*%
%TD*%
%TA.AperFunction,Conductor*%
%ADD37C,0.508000*%
%TD*%
%TA.AperFunction,Conductor*%
%ADD38C,0.762000*%
%TD*%
G04 APERTURE END LIST*
D10*
%TO.P,J2,S*%
%TO.N,GND*%
X49530000Y-121790000D03*
%TO.P,J2,T*%
%TO.N,cv_in_2*%
X49530000Y-133190000D03*
%TO.P,J2,TN*%
%TO.N,unconnected-(J2-PadTN)*%
X49530000Y-124890000D03*
%TD*%
D11*
%TO.P,D3,1,K*%
%TO.N,GND*%
X59055000Y-105415000D03*
D12*
%TO.P,D3,2,A*%
%TO.N,Net-(D3-A)*%
X59055000Y-102875000D03*
%TD*%
D13*
%TO.P,SW1,1,1*%
%TO.N,D10*%
X60250000Y-108748000D03*
D14*
X66750000Y-108748000D03*
%TO.P,SW1,2,2*%
%TO.N,GND*%
X60250000Y-113248000D03*
X66750000Y-113248000D03*
%TD*%
D15*
%TO.P,RV2,*%
%TO.N,*%
X33340000Y-76708000D03*
X42940000Y-76708000D03*
D11*
%TO.P,RV2,1,1*%
%TO.N,+3.3VA*%
X35640000Y-84208000D03*
D12*
%TO.P,RV2,2,2*%
%TO.N,/cv/pot_5*%
X38140000Y-84208000D03*
%TO.P,RV2,3,3*%
%TO.N,GND*%
X40640000Y-84208000D03*
%TD*%
D10*
%TO.P,J7,S*%
%TO.N,GND*%
X49530000Y-148560000D03*
%TO.P,J7,T*%
%TO.N,cv_in_3*%
X49530000Y-137160000D03*
%TO.P,J7,TN*%
%TO.N,unconnected-(J7-PadTN)*%
X49530000Y-145460000D03*
%TD*%
%TO.P,J1,S*%
%TO.N,GND*%
X35560000Y-121790000D03*
%TO.P,J1,T*%
%TO.N,J1_cv_a_in*%
X35560000Y-133190000D03*
%TO.P,J1,TN*%
%TO.N,unconnected-(J1-PadTN)*%
X35560000Y-124890000D03*
%TD*%
%TO.P,J8,S*%
%TO.N,GND*%
X63500000Y-148560000D03*
%TO.P,J8,T*%
%TO.N,cv_in_5*%
X63500000Y-137160000D03*
%TO.P,J8,TN*%
%TO.N,unconnected-(J8-PadTN)*%
X63500000Y-145460000D03*
%TD*%
D15*
%TO.P,RV6,*%
%TO.N,*%
X84100000Y-48795000D03*
X93700000Y-48795000D03*
D11*
%TO.P,RV6,1,1*%
%TO.N,+3.3VA*%
X86400000Y-56295000D03*
D12*
%TO.P,RV6,2,2*%
%TO.N,/cv/pot_7*%
X88900000Y-56295000D03*
%TO.P,RV6,3,3*%
%TO.N,GND*%
X91400000Y-56295000D03*
%TD*%
D10*
%TO.P,J4,S*%
%TO.N,GND*%
X77470000Y-121790000D03*
%TO.P,J4,T*%
%TO.N,Net-(J4-PadT)*%
X77470000Y-133190000D03*
%TO.P,J4,TN*%
%TO.N,unconnected-(J4-PadTN)*%
X77470000Y-124890000D03*
%TD*%
D15*
%TO.P,RV3,*%
%TO.N,*%
X33274000Y-104648000D03*
X42874000Y-104648000D03*
D11*
%TO.P,RV3,1,1*%
%TO.N,+3.3VA*%
X35574000Y-112148000D03*
D12*
%TO.P,RV3,2,2*%
%TO.N,/cv/pot_2*%
X38074000Y-112148000D03*
%TO.P,RV3,3,3*%
%TO.N,GND*%
X40574000Y-112148000D03*
%TD*%
D16*
%TO.P,SW2,1,1*%
%TO.N,D8*%
X53086000Y-104648000D03*
%TO.P,SW2,2,2*%
%TO.N,GND*%
X53086000Y-107188000D03*
%TO.P,SW2,3,3*%
%TO.N,D9*%
X53086000Y-109728000D03*
%TD*%
%TO.P,SW3,1,1*%
%TO.N,D13*%
X73914000Y-104648000D03*
%TO.P,SW3,2,2*%
%TO.N,GND*%
X73914000Y-107188000D03*
%TO.P,SW3,3,3*%
%TO.N,D14*%
X73914000Y-109728000D03*
%TD*%
D10*
%TO.P,J10,S*%
%TO.N,GND*%
X91440000Y-148560000D03*
%TO.P,J10,T*%
%TO.N,Net-(J10-PadT)*%
X91440000Y-137160000D03*
%TO.P,J10,TN*%
%TO.N,unconnected-(J10-PadTN)*%
X91440000Y-145460000D03*
%TD*%
%TO.P,J6,S*%
%TO.N,GND*%
X35560000Y-148560000D03*
%TO.P,J6,T*%
%TO.N,J6_cv_a_in*%
X35560000Y-137160000D03*
%TO.P,J6,TN*%
%TO.N,unconnected-(J6-PadTN)*%
X35560000Y-145460000D03*
%TD*%
D15*
%TO.P,RV7,*%
%TO.N,*%
X84126000Y-76711000D03*
X93726000Y-76711000D03*
D11*
%TO.P,RV7,1,1*%
%TO.N,+3.3VA*%
X86426000Y-84211000D03*
D12*
%TO.P,RV7,2,2*%
%TO.N,/cv/pot_4*%
X88926000Y-84211000D03*
%TO.P,RV7,3,3*%
%TO.N,GND*%
X91426000Y-84211000D03*
%TD*%
D11*
%TO.P,D4,1,K*%
%TO.N,GND*%
X67945000Y-105410000D03*
D12*
%TO.P,D4,2,A*%
%TO.N,Net-(D4-A)*%
X67945000Y-102870000D03*
%TD*%
D15*
%TO.P,RV4,*%
%TO.N,*%
X58726000Y-62741000D03*
X68326000Y-62741000D03*
D11*
%TO.P,RV4,1,1*%
%TO.N,+3.3VA*%
X61026000Y-70241000D03*
D12*
%TO.P,RV4,2,2*%
%TO.N,/cv/pot_6*%
X63526000Y-70241000D03*
%TO.P,RV4,3,3*%
%TO.N,GND*%
X66026000Y-70241000D03*
%TD*%
D10*
%TO.P,J9,S*%
%TO.N,GND*%
X77470000Y-148560000D03*
%TO.P,J9,T*%
%TO.N,Net-(J9-PadT)*%
X77470000Y-137160000D03*
%TO.P,J9,TN*%
%TO.N,unconnected-(J9-PadTN)*%
X77470000Y-145460000D03*
%TD*%
%TO.P,J5,S*%
%TO.N,GND*%
X91440000Y-121790000D03*
%TO.P,J5,T*%
%TO.N,Net-(J5-PadT)*%
X91440000Y-133190000D03*
%TO.P,J5,TN*%
%TO.N,unconnected-(J5-PadTN)*%
X91440000Y-124890000D03*
%TD*%
D15*
%TO.P,RV1,*%
%TO.N,*%
X33300000Y-48795000D03*
X42900000Y-48795000D03*
D11*
%TO.P,RV1,1,1*%
%TO.N,+3.3VA*%
X35600000Y-56295000D03*
D12*
%TO.P,RV1,2,2*%
%TO.N,/cv/pot_1*%
X38100000Y-56295000D03*
%TO.P,RV1,3,3*%
%TO.N,GND*%
X40600000Y-56295000D03*
%TD*%
D15*
%TO.P,RV5,*%
%TO.N,*%
X58700000Y-90681000D03*
X68300000Y-90681000D03*
D11*
%TO.P,RV5,1,1*%
%TO.N,+3.3VA*%
X61000000Y-98181000D03*
D12*
%TO.P,RV5,2,2*%
%TO.N,/cv/pot_3*%
X63500000Y-98181000D03*
%TO.P,RV5,3,3*%
%TO.N,GND*%
X66000000Y-98181000D03*
%TD*%
D10*
%TO.P,J3,S*%
%TO.N,GND*%
X63500000Y-121790000D03*
%TO.P,J3,T*%
%TO.N,cv_in_4*%
X63500000Y-133190000D03*
%TO.P,J3,TN*%
%TO.N,unconnected-(J3-PadTN)*%
X63500000Y-124890000D03*
%TD*%
D15*
%TO.P,RV8,*%
%TO.N,*%
X84074000Y-104648000D03*
X93674000Y-104648000D03*
D11*
%TO.P,RV8,1,1*%
%TO.N,+3.3VA*%
X86374000Y-112148000D03*
D12*
%TO.P,RV8,2,2*%
%TO.N,/cv/pot_8*%
X88874000Y-112148000D03*
%TO.P,RV8,3,3*%
%TO.N,GND*%
X91374000Y-112148000D03*
%TD*%
D13*
%TO.P,J11,1,-12V*%
%TO.N,Net-(D2-K)*%
X36810000Y-70158000D03*
D17*
%TO.P,J11,2,-12V*%
X34270000Y-70158000D03*
%TO.P,J11,3,gnd*%
%TO.N,GND*%
X36810000Y-67618000D03*
%TO.P,J11,4,gnd*%
X34270000Y-67618000D03*
%TO.P,J11,5,gnd*%
X36810000Y-65078000D03*
%TO.P,J11,6,gnd*%
X34270000Y-65078000D03*
%TO.P,J11,7,gnd*%
X36810000Y-62538000D03*
%TO.P,J11,8,gnd*%
X34270000Y-62538000D03*
%TO.P,J11,9,+12V*%
%TO.N,Net-(D1-A)*%
X36810000Y-59998000D03*
%TO.P,J11,10,+12V*%
X34270000Y-59998000D03*
%TD*%
D18*
%TO.P,R51,1*%
%TO.N,Net-(D3-A)*%
X62484000Y-102933000D03*
%TO.P,R51,2*%
%TO.N,D11*%
X62484000Y-101283000D03*
%TD*%
%TO.P,R49,1*%
%TO.N,Net-(U9D--)*%
X33528000Y-99123000D03*
%TO.P,R49,2*%
%TO.N,Net-(C39-Pad1)*%
X33528000Y-97473000D03*
%TD*%
%TO.P,R45,1*%
%TO.N,cv_in_3*%
X87884000Y-121729000D03*
%TO.P,R45,2*%
%TO.N,Net-(U6B--)*%
X87884000Y-120079000D03*
%TD*%
D19*
%TO.P,C11,1*%
%TO.N,A4_D19*%
X91821000Y-94869000D03*
%TO.P,C11,2*%
%TO.N,Net-(U3B--)*%
X91821000Y-93319000D03*
%TD*%
D20*
%TO.P,C15,1*%
%TO.N,cv_out_0*%
X50419000Y-97587000D03*
%TO.P,C15,2*%
%TO.N,Net-(U9A--)*%
X50419000Y-99137000D03*
%TD*%
D18*
%TO.P,R43,1*%
%TO.N,Net-(U6A--)*%
X89535000Y-118528600D03*
%TO.P,R43,2*%
%TO.N,A1_D16*%
X89535000Y-116878600D03*
%TD*%
D21*
%TO.P,R30,1*%
%TO.N,J1_cv_a_in*%
X93480625Y-90107000D03*
%TO.P,R30,2*%
%TO.N,Net-(U3A--)*%
X93480625Y-91757000D03*
%TD*%
D22*
%TO.P,U5,1*%
%TO.N,Net-(C5-Pad1)*%
X45026500Y-117303000D03*
%TO.P,U5,2,-*%
%TO.N,Net-(U5A--)*%
X45026500Y-117953000D03*
%TO.P,U5,3,+*%
%TO.N,GND*%
X45026500Y-118603000D03*
%TO.P,U5,4,V+*%
%TO.N,+12V*%
X45026500Y-119253000D03*
%TO.P,U5,5,+*%
%TO.N,GND*%
X45026500Y-119903000D03*
%TO.P,U5,6,-*%
%TO.N,Net-(U5B--)*%
X45026500Y-120553000D03*
%TO.P,U5,7*%
%TO.N,audio_out_0*%
X45026500Y-121203000D03*
%TO.P,U5,8*%
%TO.N,audio_out_1*%
X39301500Y-121203000D03*
%TO.P,U5,9,-*%
%TO.N,Net-(U5C--)*%
X39301500Y-120553000D03*
%TO.P,U5,10,+*%
%TO.N,GND*%
X39301500Y-119903000D03*
%TO.P,U5,11,V-*%
%TO.N,-12V*%
X39301500Y-119253000D03*
%TO.P,U5,12,+*%
%TO.N,GND*%
X39301500Y-118603000D03*
%TO.P,U5,13,-*%
%TO.N,Net-(U5D--)*%
X39301500Y-117953000D03*
%TO.P,U5,14*%
%TO.N,Net-(C6-Pad1)*%
X39301500Y-117303000D03*
%TD*%
D18*
%TO.P,R31,1*%
%TO.N,Net-(U3A--)*%
X90161375Y-91757000D03*
%TO.P,R31,2*%
%TO.N,A0_D15*%
X90161375Y-90107000D03*
%TD*%
D23*
%TO.P,R50,1*%
%TO.N,Net-(C39-Pad1)*%
X67437000Y-147906000D03*
%TO.P,R50,2*%
%TO.N,gate_out_1*%
X67437000Y-144956000D03*
%TD*%
D20*
%TO.P,C38,1*%
%TO.N,Net-(C38-Pad1)*%
X38100000Y-104762000D03*
%TO.P,C38,2*%
%TO.N,Net-(U9C--)*%
X38100000Y-106312000D03*
%TD*%
D22*
%TO.P,U9,1*%
%TO.N,cv_out_0*%
X43502500Y-95586000D03*
%TO.P,U9,2,-*%
%TO.N,Net-(U9A--)*%
X43502500Y-96236000D03*
%TO.P,U9,3,+*%
%TO.N,GND*%
X43502500Y-96886000D03*
%TO.P,U9,4,V+*%
%TO.N,+12V*%
X43502500Y-97536000D03*
%TO.P,U9,5,+*%
%TO.N,GND*%
X43502500Y-98186000D03*
%TO.P,U9,6,-*%
%TO.N,Net-(U9B--)*%
X43502500Y-98836000D03*
%TO.P,U9,7*%
%TO.N,cv_out_1*%
X43502500Y-99486000D03*
%TO.P,U9,8*%
%TO.N,Net-(C38-Pad1)*%
X37777500Y-99486000D03*
%TO.P,U9,9,-*%
%TO.N,Net-(U9C--)*%
X37777500Y-98836000D03*
%TO.P,U9,10,+*%
%TO.N,D0*%
X37777500Y-98186000D03*
%TO.P,U9,11,V-*%
%TO.N,-12V*%
X37777500Y-97536000D03*
%TO.P,U9,12,+*%
%TO.N,D1*%
X37777500Y-96886000D03*
%TO.P,U9,13,-*%
%TO.N,Net-(U9D--)*%
X37777500Y-96236000D03*
%TO.P,U9,14*%
%TO.N,Net-(C39-Pad1)*%
X37777500Y-95586000D03*
%TD*%
D21*
%TO.P,R37,1*%
%TO.N,Net-(U3B--)*%
X90161375Y-93269000D03*
%TO.P,R37,2*%
%TO.N,A4_D19*%
X90161375Y-94919000D03*
%TD*%
D24*
%TO.P,C26,1*%
%TO.N,+12V*%
X48075000Y-49400000D03*
%TO.P,C26,2*%
%TO.N,GND*%
X46525000Y-49400000D03*
%TD*%
D19*
%TO.P,C24,1*%
%TO.N,+12V*%
X85482332Y-134125000D03*
%TO.P,C24,2*%
%TO.N,GND*%
X85482332Y-132575000D03*
%TD*%
D18*
%TO.P,R34,1*%
%TO.N,Net-(U6D--)*%
X68362286Y-119380000D03*
%TO.P,R34,2*%
%TO.N,A3_D18*%
X68362286Y-117730000D03*
%TD*%
%TO.P,R21,1*%
%TO.N,Net-(U5A--)*%
X53213000Y-118046000D03*
%TO.P,R21,2*%
%TO.N,Net-(C5-Pad1)*%
X53213000Y-116396000D03*
%TD*%
D21*
%TO.P,R54,1*%
%TO.N,-10V*%
X48768000Y-97537000D03*
%TO.P,R54,2*%
%TO.N,Net-(U9A--)*%
X48768000Y-99187000D03*
%TD*%
D18*
%TO.P,R35,1*%
%TO.N,-10V*%
X95140250Y-94919000D03*
%TO.P,R35,2*%
%TO.N,Net-(U3B--)*%
X95140250Y-93269000D03*
%TD*%
%TO.P,R58,1*%
%TO.N,-10V*%
X50419000Y-102362000D03*
%TO.P,R58,2*%
%TO.N,Net-(U9B--)*%
X50419000Y-100712000D03*
%TD*%
D25*
%TO.P,C19,1*%
%TO.N,+12V*%
X42278000Y-101092000D03*
%TO.P,C19,2*%
%TO.N,GND*%
X43828000Y-101092000D03*
%TD*%
D18*
%TO.P,R8,1*%
%TO.N,Net-(C1-Pad1)*%
X48133000Y-87058000D03*
%TO.P,R8,2*%
%TO.N,Net-(U4B--)*%
X48133000Y-85408000D03*
%TD*%
D19*
%TO.P,C1,1*%
%TO.N,Net-(C1-Pad1)*%
X49784000Y-87008000D03*
%TO.P,C1,2*%
%TO.N,Net-(U4A--)*%
X49784000Y-85458000D03*
%TD*%
%TO.P,C14,1*%
%TO.N,A5_D20*%
X86233000Y-121679000D03*
%TO.P,C14,2*%
%TO.N,Net-(U6B--)*%
X86233000Y-120129000D03*
%TD*%
D18*
%TO.P,R3,1*%
%TO.N,J1_cv_a_in*%
X53086000Y-87058000D03*
%TO.P,R3,2*%
%TO.N,Net-(U4A--)*%
X53086000Y-85408000D03*
%TD*%
D20*
%TO.P,C10,1*%
%TO.N,A3_D18*%
X66729429Y-117780000D03*
%TO.P,C10,2*%
%TO.N,Net-(U6D--)*%
X66729429Y-119330000D03*
%TD*%
D22*
%TO.P,U4,1*%
%TO.N,Net-(C1-Pad1)*%
X45534500Y-86442000D03*
%TO.P,U4,2,-*%
%TO.N,Net-(U4A--)*%
X45534500Y-87092000D03*
%TO.P,U4,3,+*%
%TO.N,GND*%
X45534500Y-87742000D03*
%TO.P,U4,4,V+*%
%TO.N,+12V*%
X45534500Y-88392000D03*
%TO.P,U4,5,+*%
%TO.N,GND*%
X45534500Y-89042000D03*
%TO.P,U4,6,-*%
%TO.N,Net-(U4B--)*%
X45534500Y-89692000D03*
%TO.P,U4,7*%
%TO.N,Net-(C3-Pad1)*%
X45534500Y-90342000D03*
%TO.P,U4,8*%
%TO.N,Net-(C4-Pad1)*%
X39809500Y-90342000D03*
%TO.P,U4,9,-*%
%TO.N,Net-(U4C--)*%
X39809500Y-89692000D03*
%TO.P,U4,10,+*%
%TO.N,GND*%
X39809500Y-89042000D03*
%TO.P,U4,11,V-*%
%TO.N,-12V*%
X39809500Y-88392000D03*
%TO.P,U4,12,+*%
%TO.N,GND*%
X39809500Y-87742000D03*
%TO.P,U4,13,-*%
%TO.N,Net-(U4D--)*%
X39809500Y-87092000D03*
%TO.P,U4,14*%
%TO.N,Net-(C2-Pad1)*%
X39809500Y-86442000D03*
%TD*%
D19*
%TO.P,C35,1*%
%TO.N,+3.3V*%
X68055000Y-132842000D03*
%TO.P,C35,2*%
%TO.N,GND*%
X68055000Y-131292000D03*
%TD*%
D25*
%TO.P,C33,1*%
%TO.N,+12V*%
X43802000Y-115570000D03*
%TO.P,C33,2*%
%TO.N,GND*%
X45352000Y-115570000D03*
%TD*%
D21*
%TO.P,R9,1*%
%TO.N,Net-(U4B--)*%
X53086000Y-88583000D03*
%TO.P,R9,2*%
%TO.N,Net-(C3-Pad1)*%
X53086000Y-90233000D03*
%TD*%
%TO.P,R24,1*%
%TO.N,-10V*%
X76049429Y-89980000D03*
%TO.P,R24,2*%
%TO.N,Net-(U3D--)*%
X76049429Y-91630000D03*
%TD*%
D23*
%TO.P,R60,1*%
%TO.N,Net-(R60-Pad1)*%
X88011000Y-133555000D03*
%TO.P,R60,2*%
%TO.N,Net-(J10-PadT)*%
X88011000Y-130605000D03*
%TD*%
D20*
%TO.P,C27,1*%
%TO.N,GND*%
X48000000Y-68025000D03*
%TO.P,C27,2*%
%TO.N,-12V*%
X48000000Y-69575000D03*
%TD*%
D19*
%TO.P,C2,1*%
%TO.N,Net-(C2-Pad1)*%
X34163000Y-88723000D03*
%TO.P,C2,2*%
%TO.N,Net-(U4D--)*%
X34163000Y-87173000D03*
%TD*%
D24*
%TO.P,C21,1*%
%TO.N,+3.3VA*%
X86259000Y-96520000D03*
%TO.P,C21,2*%
%TO.N,GND*%
X84709000Y-96520000D03*
%TD*%
D26*
%TO.P,U7,1,K*%
%TO.N,GND*%
X48054500Y-73853000D03*
%TO.P,U7,2,A*%
%TO.N,-10V*%
X48054500Y-75753000D03*
%TO.P,U7,3*%
%TO.N,N/C*%
X46179500Y-74803000D03*
%TD*%
D27*
%TO.P,R61,1*%
%TO.N,Net-(C38-Pad1)*%
X73660000Y-130478000D03*
%TO.P,R61,2*%
%TO.N,gate_out_0*%
X73660000Y-133428000D03*
%TD*%
D19*
%TO.P,C31,1*%
%TO.N,audio_out_1*%
X43002200Y-126442000D03*
%TO.P,C31,2*%
%TO.N,Net-(U5C--)*%
X43002200Y-124892000D03*
%TD*%
%TO.P,C25,1*%
%TO.N,GND*%
X84912200Y-146063000D03*
%TO.P,C25,2*%
%TO.N,-12V*%
X84912200Y-144513000D03*
%TD*%
D18*
%TO.P,R22,1*%
%TO.N,Net-(U5D--)*%
X36002666Y-118922000D03*
%TO.P,R22,2*%
%TO.N,Net-(C6-Pad1)*%
X36002666Y-117272000D03*
%TD*%
D21*
%TO.P,R23,1*%
%TO.N,cv_in_6*%
X74374858Y-89980000D03*
%TO.P,R23,2*%
%TO.N,Net-(U3D--)*%
X74374858Y-91630000D03*
%TD*%
%TO.P,R2,1*%
%TO.N,Net-(U5C--)*%
X41275000Y-124842000D03*
%TO.P,R2,2*%
%TO.N,audio_out_1*%
X41275000Y-126492000D03*
%TD*%
D19*
%TO.P,C23,1*%
%TO.N,+3.3V*%
X83554666Y-134125000D03*
%TO.P,C23,2*%
%TO.N,GND*%
X83554666Y-132575000D03*
%TD*%
D21*
%TO.P,R12,1*%
%TO.N,Net-(C4-Pad1)*%
X32512000Y-90234000D03*
%TO.P,R12,2*%
%TO.N,in_1*%
X32512000Y-91884000D03*
%TD*%
%TO.P,R46,1*%
%TO.N,Net-(U6B--)*%
X84582000Y-120079000D03*
%TO.P,R46,2*%
%TO.N,A5_D20*%
X84582000Y-121729000D03*
%TD*%
D22*
%TO.P,U2,1,Y0*%
%TO.N,/cv/pot_5*%
X86174500Y-62368000D03*
%TO.P,U2,2,Y2*%
%TO.N,/cv/pot_7*%
X86174500Y-63018000D03*
%TO.P,U2,3,Y*%
%TO.N,A10_D25*%
X86174500Y-63668000D03*
%TO.P,U2,4,Y3*%
%TO.N,/cv/pot_4*%
X86174500Y-64318000D03*
%TO.P,U2,5,Y1*%
%TO.N,/cv/pot_8*%
X86174500Y-64968000D03*
%TO.P,U2,6,INH*%
%TO.N,GND*%
X86174500Y-65618000D03*
%TO.P,U2,7,VEE*%
X86174500Y-66268000D03*
%TO.P,U2,8,VSS*%
X86174500Y-66918000D03*
%TO.P,U2,9,B*%
%TO.N,D7*%
X80449500Y-66918000D03*
%TO.P,U2,10,A*%
%TO.N,D6*%
X80449500Y-66268000D03*
%TO.P,U2,11,X3*%
%TO.N,/cv/pot_6*%
X80449500Y-65618000D03*
%TO.P,U2,12,X0*%
%TO.N,/cv/pot_1*%
X80449500Y-64968000D03*
%TO.P,U2,13,X*%
%TO.N,A11_D28*%
X80449500Y-64318000D03*
%TO.P,U2,14,X1*%
%TO.N,/cv/pot_2*%
X80449500Y-63668000D03*
%TO.P,U2,15,X2*%
%TO.N,/cv/pot_3*%
X80449500Y-63018000D03*
%TO.P,U2,16,VDD*%
%TO.N,+3.3V*%
X80449500Y-62368000D03*
%TD*%
D18*
%TO.P,R44,1*%
%TO.N,-10V*%
X89535000Y-121729000D03*
%TO.P,R44,2*%
%TO.N,Net-(U6B--)*%
X89535000Y-120079000D03*
%TD*%
D21*
%TO.P,R40,1*%
%TO.N,Net-(U3C--)*%
X74374858Y-93155000D03*
%TO.P,R40,2*%
%TO.N,A9_D24*%
X74374858Y-94805000D03*
%TD*%
D20*
%TO.P,C13,1*%
%TO.N,A1_D16*%
X87884000Y-116928600D03*
%TO.P,C13,2*%
%TO.N,Net-(U6A--)*%
X87884000Y-118478600D03*
%TD*%
D21*
%TO.P,R32,1*%
%TO.N,-10V*%
X69995143Y-117730000D03*
%TO.P,R32,2*%
%TO.N,Net-(U6D--)*%
X69995143Y-119380000D03*
%TD*%
D28*
%TO.P,D2,1,K*%
%TO.N,Net-(D2-K)*%
X36958000Y-73406000D03*
%TO.P,D2,2,A*%
%TO.N,-12V*%
X40258000Y-73406000D03*
%TD*%
D18*
%TO.P,R39,1*%
%TO.N,cv_in_4*%
X79398574Y-94805000D03*
%TO.P,R39,2*%
%TO.N,Net-(U3C--)*%
X79398574Y-93155000D03*
%TD*%
D29*
%TO.P,U8,1*%
%TO.N,D2*%
X87466600Y-142156100D03*
%TO.P,U8,2*%
%TO.N,cv_out_0*%
X86816600Y-142156100D03*
%TO.P,U8,3*%
%TO.N,Net-(R13-Pad1)*%
X86166600Y-142156100D03*
%TO.P,U8,4,V-*%
%TO.N,-12V*%
X85516600Y-142156100D03*
%TO.P,U8,5,GND*%
%TO.N,GND*%
X84866600Y-142156100D03*
%TO.P,U8,6*%
%TO.N,audio_out_0*%
X84216600Y-142156100D03*
%TO.P,U8,7*%
%TO.N,Net-(R56-Pad1)*%
X83566600Y-142156100D03*
%TO.P,U8,8*%
%TO.N,D3*%
X82916600Y-142156100D03*
%TO.P,U8,9*%
%TO.N,D4*%
X82916600Y-136431100D03*
%TO.P,U8,10*%
%TO.N,cv_out_1*%
X83566600Y-136431100D03*
%TO.P,U8,11*%
%TO.N,Net-(R14-Pad1)*%
X84216600Y-136431100D03*
%TO.P,U8,12,VL*%
%TO.N,+3.3V*%
X84866600Y-136431100D03*
%TO.P,U8,13,V+*%
%TO.N,+12V*%
X85516600Y-136431100D03*
%TO.P,U8,14*%
%TO.N,Net-(R60-Pad1)*%
X86166600Y-136431100D03*
%TO.P,U8,15*%
%TO.N,audio_out_1*%
X86816600Y-136431100D03*
%TO.P,U8,16*%
%TO.N,D5*%
X87466600Y-136431100D03*
%TD*%
D18*
%TO.P,R36,1*%
%TO.N,cv_in_2*%
X93480625Y-94919000D03*
%TO.P,R36,2*%
%TO.N,Net-(U3B--)*%
X93480625Y-93269000D03*
%TD*%
%TO.P,R11,1*%
%TO.N,Net-(C3-Pad1)*%
X49784000Y-90233000D03*
%TO.P,R11,2*%
%TO.N,in_0*%
X49784000Y-88583000D03*
%TD*%
D23*
%TO.P,R14,1*%
%TO.N,Net-(R14-Pad1)*%
X80518000Y-133555000D03*
%TO.P,R14,2*%
%TO.N,Net-(J10-PadT)*%
X80518000Y-130605000D03*
%TD*%
D21*
%TO.P,R16,1*%
%TO.N,Net-(U5B--)*%
X54940200Y-119584000D03*
%TO.P,R16,2*%
%TO.N,audio_out_0*%
X54940200Y-121234000D03*
%TD*%
%TO.P,R29,1*%
%TO.N,-10V*%
X95140250Y-90107000D03*
%TO.P,R29,2*%
%TO.N,Net-(U3A--)*%
X95140250Y-91757000D03*
%TD*%
D30*
%TO.P,R47,1*%
%TO.N,-12V*%
X52260000Y-75692000D03*
%TO.P,R47,2*%
%TO.N,-10V*%
X50610000Y-75692000D03*
%TD*%
D31*
%TO.P,C28,1*%
%TO.N,+12V*%
X49500000Y-54000000D03*
%TO.P,C28,2*%
%TO.N,GND*%
X45100000Y-54000000D03*
%TD*%
D19*
%TO.P,C12,1*%
%TO.N,A9_D24*%
X76049429Y-94755000D03*
%TO.P,C12,2*%
%TO.N,Net-(U3C--)*%
X76049429Y-93205000D03*
%TD*%
D20*
%TO.P,C4,1*%
%TO.N,Net-(C4-Pad1)*%
X34163000Y-90284000D03*
%TO.P,C4,2*%
%TO.N,Net-(U4C--)*%
X34163000Y-91834000D03*
%TD*%
%TO.P,C5,1*%
%TO.N,Net-(C5-Pad1)*%
X54906333Y-116446000D03*
%TO.P,C5,2*%
%TO.N,Net-(U5A--)*%
X54906333Y-117996000D03*
%TD*%
D18*
%TO.P,R15,1*%
%TO.N,Net-(C5-Pad1)*%
X51485800Y-121234000D03*
%TO.P,R15,2*%
%TO.N,Net-(U5B--)*%
X51485800Y-119584000D03*
%TD*%
D27*
%TO.P,R13,1*%
%TO.N,Net-(R13-Pad1)*%
X88265000Y-145337000D03*
%TO.P,R13,2*%
%TO.N,Net-(J5-PadT)*%
X88265000Y-148287000D03*
%TD*%
D25*
%TO.P,C34,1*%
%TO.N,GND*%
X38989000Y-115570000D03*
%TO.P,C34,2*%
%TO.N,-12V*%
X40539000Y-115570000D03*
%TD*%
%TO.P,C17,1*%
%TO.N,+12V*%
X44310000Y-91948000D03*
%TO.P,C17,2*%
%TO.N,GND*%
X45860000Y-91948000D03*
%TD*%
D20*
%TO.P,C7,1*%
%TO.N,A6_D21*%
X79398571Y-90030000D03*
%TO.P,C7,2*%
%TO.N,Net-(U3D--)*%
X79398571Y-91580000D03*
%TD*%
D25*
%TO.P,C30,1*%
%TO.N,+3.3V*%
X81902000Y-60706000D03*
%TO.P,C30,2*%
%TO.N,GND*%
X83452000Y-60706000D03*
%TD*%
D18*
%TO.P,R38,1*%
%TO.N,-10V*%
X77724000Y-94805000D03*
%TO.P,R38,2*%
%TO.N,Net-(U3C--)*%
X77724000Y-93155000D03*
%TD*%
D21*
%TO.P,R48,1*%
%TO.N,GND*%
X35179000Y-97473000D03*
%TO.P,R48,2*%
%TO.N,Net-(U9D--)*%
X35179000Y-99123000D03*
%TD*%
D18*
%TO.P,R7,1*%
%TO.N,Net-(C2-Pad1)*%
X35814000Y-88773000D03*
%TO.P,R7,2*%
%TO.N,Net-(U4C--)*%
X35814000Y-87123000D03*
%TD*%
D29*
%TO.P,U10,1*%
%TO.N,D29*%
X71871000Y-142308500D03*
%TO.P,U10,2*%
%TO.N,Net-(J9-PadT)*%
X71221000Y-142308500D03*
%TO.P,U10,3*%
%TO.N,cv_in_7*%
X70571000Y-142308500D03*
%TO.P,U10,4,V-*%
%TO.N,-12V*%
X69921000Y-142308500D03*
%TO.P,U10,5,GND*%
%TO.N,GND*%
X69271000Y-142308500D03*
%TO.P,U10,6*%
%TO.N,gate_out_1*%
X68621000Y-142308500D03*
%TO.P,U10,7*%
%TO.N,Net-(J9-PadT)*%
X67971000Y-142308500D03*
%TO.P,U10,8*%
%TO.N,D30*%
X67321000Y-142308500D03*
%TO.P,U10,9*%
%TO.N,D26*%
X67321000Y-136583500D03*
%TO.P,U10,10*%
%TO.N,Net-(J4-PadT)*%
X67971000Y-136583500D03*
%TO.P,U10,11*%
%TO.N,cv_in_6*%
X68621000Y-136583500D03*
%TO.P,U10,12,VL*%
%TO.N,+3.3V*%
X69271000Y-136583500D03*
%TO.P,U10,13,V+*%
%TO.N,+12V*%
X69921000Y-136583500D03*
%TO.P,U10,14*%
%TO.N,Net-(J4-PadT)*%
X70571000Y-136583500D03*
%TO.P,U10,15*%
%TO.N,gate_out_0*%
X71221000Y-136583500D03*
%TO.P,U10,16*%
%TO.N,D27*%
X71871000Y-136583500D03*
%TD*%
D25*
%TO.P,C18,1*%
%TO.N,GND*%
X39484000Y-91948000D03*
%TO.P,C18,2*%
%TO.N,-12V*%
X41034000Y-91948000D03*
%TD*%
D18*
%TO.P,R25,1*%
%TO.N,Net-(U3D--)*%
X77724000Y-91630000D03*
%TO.P,R25,2*%
%TO.N,A6_D21*%
X77724000Y-89980000D03*
%TD*%
D19*
%TO.P,C8,1*%
%TO.N,A2_D17*%
X71609858Y-122441000D03*
%TO.P,C8,2*%
%TO.N,Net-(U6C--)*%
X71609858Y-120891000D03*
%TD*%
D21*
%TO.P,R42,1*%
%TO.N,J6_cv_a_in*%
X86233000Y-116878600D03*
%TO.P,R42,2*%
%TO.N,Net-(U6A--)*%
X86233000Y-118528600D03*
%TD*%
D20*
%TO.P,C6,1*%
%TO.N,Net-(C6-Pad1)*%
X34290000Y-117322000D03*
%TO.P,C6,2*%
%TO.N,Net-(U5D--)*%
X34290000Y-118872000D03*
%TD*%
D21*
%TO.P,R52,1*%
%TO.N,A7_D22*%
X47117000Y-97537000D03*
%TO.P,R52,2*%
%TO.N,Net-(U9A--)*%
X47117000Y-99187000D03*
%TD*%
%TO.P,R20,1*%
%TO.N,out_1*%
X32635332Y-117272000D03*
%TO.P,R20,2*%
%TO.N,Net-(U5D--)*%
X32635332Y-118922000D03*
%TD*%
D20*
%TO.P,C9,1*%
%TO.N,A0_D15*%
X91821000Y-90157000D03*
%TO.P,C9,2*%
%TO.N,Net-(U3A--)*%
X91821000Y-91707000D03*
%TD*%
D24*
%TO.P,C22,1*%
%TO.N,+3.3VA*%
X79388000Y-114046000D03*
%TO.P,C22,2*%
%TO.N,GND*%
X77838000Y-114046000D03*
%TD*%
D32*
%TO.P,C29,1*%
%TO.N,GND*%
X44000000Y-65100000D03*
%TO.P,C29,2*%
%TO.N,-12V*%
X44000000Y-69500000D03*
%TD*%
D20*
%TO.P,C39,1*%
%TO.N,Net-(C39-Pad1)*%
X31877000Y-97523000D03*
%TO.P,C39,2*%
%TO.N,Net-(U9D--)*%
X31877000Y-99073000D03*
%TD*%
D18*
%TO.P,R53,1*%
%TO.N,Net-(U9A--)*%
X52070000Y-99187000D03*
%TO.P,R53,2*%
%TO.N,cv_out_0*%
X52070000Y-97537000D03*
%TD*%
D21*
%TO.P,R17,1*%
%TO.N,GND*%
X36449000Y-104712000D03*
%TO.P,R17,2*%
%TO.N,Net-(U9C--)*%
X36449000Y-106362000D03*
%TD*%
D22*
%TO.P,U6,1*%
%TO.N,A1_D16*%
X81348500Y-115652000D03*
%TO.P,U6,2,-*%
%TO.N,Net-(U6A--)*%
X81348500Y-116302000D03*
%TO.P,U6,3,+*%
%TO.N,GND*%
X81348500Y-116952000D03*
%TO.P,U6,4,V+*%
%TO.N,+3.3VA*%
X81348500Y-117602000D03*
%TO.P,U6,5,+*%
%TO.N,GND*%
X81348500Y-118252000D03*
%TO.P,U6,6,-*%
%TO.N,Net-(U6B--)*%
X81348500Y-118902000D03*
%TO.P,U6,7*%
%TO.N,A5_D20*%
X81348500Y-119552000D03*
%TO.P,U6,8*%
%TO.N,A2_D17*%
X75623500Y-119552000D03*
%TO.P,U6,9,-*%
%TO.N,Net-(U6C--)*%
X75623500Y-118902000D03*
%TO.P,U6,10,+*%
%TO.N,GND*%
X75623500Y-118252000D03*
%TO.P,U6,11,V-*%
X75623500Y-117602000D03*
%TO.P,U6,12,+*%
X75623500Y-116952000D03*
%TO.P,U6,13,-*%
%TO.N,Net-(U6D--)*%
X75623500Y-116302000D03*
%TO.P,U6,14*%
%TO.N,A3_D18*%
X75623500Y-115652000D03*
%TD*%
D18*
%TO.P,R18,1*%
%TO.N,Net-(U9C--)*%
X39751000Y-106362000D03*
%TO.P,R18,2*%
%TO.N,Net-(C38-Pad1)*%
X39751000Y-104712000D03*
%TD*%
D21*
%TO.P,R19,1*%
%TO.N,out_0*%
X51519667Y-116396000D03*
%TO.P,R19,2*%
%TO.N,Net-(U5A--)*%
X51519667Y-118046000D03*
%TD*%
%TO.P,R6,1*%
%TO.N,Net-(U4D--)*%
X32512000Y-87123000D03*
%TO.P,R6,2*%
%TO.N,Net-(C2-Pad1)*%
X32512000Y-88773000D03*
%TD*%
%TO.P,R59,1*%
%TO.N,Net-(U9B--)*%
X47117000Y-100712000D03*
%TO.P,R59,2*%
%TO.N,cv_out_1*%
X47117000Y-102362000D03*
%TD*%
D18*
%TO.P,R55,1*%
%TO.N,Net-(D4-A)*%
X64770000Y-102933000D03*
%TO.P,R55,2*%
%TO.N,D12*%
X64770000Y-101283000D03*
%TD*%
D19*
%TO.P,C3,1*%
%TO.N,Net-(C3-Pad1)*%
X51435000Y-90183000D03*
%TO.P,C3,2*%
%TO.N,Net-(U4B--)*%
X51435000Y-88633000D03*
%TD*%
D18*
%TO.P,R1,1*%
%TO.N,Net-(C6-Pad1)*%
X39547800Y-126492000D03*
%TO.P,R1,2*%
%TO.N,Net-(U5C--)*%
X39547800Y-124842000D03*
%TD*%
D21*
%TO.P,R33,1*%
%TO.N,cv_in_7*%
X71628000Y-117730000D03*
%TO.P,R33,2*%
%TO.N,Net-(U6D--)*%
X71628000Y-119380000D03*
%TD*%
D19*
%TO.P,C32,1*%
%TO.N,audio_out_0*%
X53213000Y-121184000D03*
%TO.P,C32,2*%
%TO.N,Net-(U5B--)*%
X53213000Y-119634000D03*
%TD*%
D18*
%TO.P,R26,1*%
%TO.N,-10V*%
X66711286Y-122491000D03*
%TO.P,R26,2*%
%TO.N,Net-(U6C--)*%
X66711286Y-120841000D03*
%TD*%
D21*
%TO.P,R28,1*%
%TO.N,Net-(U6C--)*%
X69977000Y-120841000D03*
%TO.P,R28,2*%
%TO.N,A2_D17*%
X69977000Y-122491000D03*
%TD*%
D18*
%TO.P,R57,1*%
%TO.N,A8_D23*%
X52070000Y-102362000D03*
%TO.P,R57,2*%
%TO.N,Net-(U9B--)*%
X52070000Y-100712000D03*
%TD*%
D22*
%TO.P,U3,1*%
%TO.N,A0_D15*%
X87571500Y-90887000D03*
%TO.P,U3,2,-*%
%TO.N,Net-(U3A--)*%
X87571500Y-91537000D03*
%TO.P,U3,3,+*%
%TO.N,GND*%
X87571500Y-92187000D03*
%TO.P,U3,4,V+*%
%TO.N,+3.3VA*%
X87571500Y-92837000D03*
%TO.P,U3,5,+*%
%TO.N,GND*%
X87571500Y-93487000D03*
%TO.P,U3,6,-*%
%TO.N,Net-(U3B--)*%
X87571500Y-94137000D03*
%TO.P,U3,7*%
%TO.N,A4_D19*%
X87571500Y-94787000D03*
%TO.P,U3,8*%
%TO.N,A9_D24*%
X81846500Y-94787000D03*
%TO.P,U3,9,-*%
%TO.N,Net-(U3C--)*%
X81846500Y-94137000D03*
%TO.P,U3,10,+*%
%TO.N,GND*%
X81846500Y-93487000D03*
%TO.P,U3,11,V-*%
X81846500Y-92837000D03*
%TO.P,U3,12,+*%
X81846500Y-92187000D03*
%TO.P,U3,13,-*%
%TO.N,Net-(U3D--)*%
X81846500Y-91537000D03*
%TO.P,U3,14*%
%TO.N,A6_D21*%
X81846500Y-90887000D03*
%TD*%
D21*
%TO.P,R41,1*%
%TO.N,-10V*%
X84582000Y-116878600D03*
%TO.P,R41,2*%
%TO.N,Net-(U6A--)*%
X84582000Y-118528600D03*
%TD*%
D33*
%TO.P,D1,1,K*%
%TO.N,+12V*%
X43560000Y-59436000D03*
%TO.P,D1,2,A*%
%TO.N,Net-(D1-A)*%
X40260000Y-59436000D03*
%TD*%
D34*
%TO.P,U1,1,D0*%
%TO.N,D0*%
X71120000Y-46990000D03*
%TO.P,U1,2,D1*%
%TO.N,D1*%
X71120000Y-49530000D03*
%TO.P,U1,3,D2*%
%TO.N,D2*%
X71120000Y-52070000D03*
%TO.P,U1,4,D3*%
%TO.N,D3*%
X71120000Y-54610000D03*
%TO.P,U1,5,D4*%
%TO.N,D4*%
X71120000Y-57150000D03*
%TO.P,U1,6,D5*%
%TO.N,D5*%
X71120000Y-59690000D03*
%TO.P,U1,7,D6*%
%TO.N,D6*%
X71120000Y-62230000D03*
%TO.P,U1,8,D7*%
%TO.N,D7*%
X71120000Y-64770000D03*
%TO.P,U1,9,D8*%
%TO.N,D8*%
X71120000Y-67310000D03*
%TO.P,U1,10,D9*%
%TO.N,D9*%
X71120000Y-69850000D03*
%TO.P,U1,11,D10*%
%TO.N,D10*%
X71120000Y-72390000D03*
%TO.P,U1,12,D11*%
%TO.N,D11*%
X71120000Y-74930000D03*
%TO.P,U1,13,D12*%
%TO.N,D12*%
X71120000Y-77470000D03*
%TO.P,U1,14,D13*%
%TO.N,D13*%
X71120000Y-80010000D03*
%TO.P,U1,15,D14*%
%TO.N,D14*%
X71120000Y-82550000D03*
%TO.P,U1,16,in[0]*%
%TO.N,in_0*%
X71120000Y-85090000D03*
%TO.P,U1,17,in[1]*%
%TO.N,in_1*%
X71120000Y-87630000D03*
%TO.P,U1,18,out[0]*%
%TO.N,out_0*%
X71120000Y-90170000D03*
%TO.P,U1,19,out[1]*%
%TO.N,out_1*%
X71120000Y-92710000D03*
%TO.P,U1,20,AGND*%
%TO.N,GND*%
X71120000Y-95250000D03*
%TO.P,U1,21,3V3_Analog*%
%TO.N,+3.3VA*%
X55880000Y-95250000D03*
%TO.P,U1,22,A0/D15*%
%TO.N,A0_D15*%
X55880000Y-92710000D03*
%TO.P,U1,23,A1/D16*%
%TO.N,A1_D16*%
X55880000Y-90170000D03*
%TO.P,U1,24,A2/D17*%
%TO.N,A2_D17*%
X55880000Y-87630000D03*
%TO.P,U1,25,A3/D18*%
%TO.N,A3_D18*%
X55880000Y-85090000D03*
%TO.P,U1,26,A4/D19*%
%TO.N,A4_D19*%
X55880000Y-82550000D03*
%TO.P,U1,27,A5/D20*%
%TO.N,A5_D20*%
X55880000Y-80010000D03*
%TO.P,U1,28,A6/D21*%
%TO.N,A6_D21*%
X55880000Y-77470000D03*
%TO.P,U1,29,A7/D22*%
%TO.N,A7_D22*%
X55880000Y-74930000D03*
%TO.P,U1,30,A8/D23*%
%TO.N,A8_D23*%
X55880000Y-72390000D03*
%TO.P,U1,31,A9/D24*%
%TO.N,A9_D24*%
X55880000Y-69850000D03*
%TO.P,U1,32,A10/D25*%
%TO.N,A10_D25*%
X55880000Y-67310000D03*
%TO.P,U1,33,D26*%
%TO.N,D26*%
X55880000Y-64770000D03*
%TO.P,U1,34,D27*%
%TO.N,D27*%
X55880000Y-62230000D03*
%TO.P,U1,35,A11/D28*%
%TO.N,A11_D28*%
X55880000Y-59690000D03*
%TO.P,U1,36,D29*%
%TO.N,D29*%
X55880000Y-57150000D03*
%TO.P,U1,37,D30*%
%TO.N,D30*%
X55880000Y-54610000D03*
%TO.P,U1,38,3V3_Digital*%
%TO.N,+3.3V*%
X55880000Y-52070000D03*
%TO.P,U1,39,VIN*%
%TO.N,+12V*%
X55880000Y-49530000D03*
%TO.P,U1,40,DGND*%
%TO.N,GND*%
X55880000Y-46990000D03*
%TD*%
D18*
%TO.P,R27,1*%
%TO.N,cv_in_5*%
X68344143Y-122491000D03*
%TO.P,R27,2*%
%TO.N,Net-(U6C--)*%
X68344143Y-120841000D03*
%TD*%
D19*
%TO.P,C36,1*%
%TO.N,+12V*%
X70104000Y-132842000D03*
%TO.P,C36,2*%
%TO.N,GND*%
X70104000Y-131292000D03*
%TD*%
%TO.P,C37,1*%
%TO.N,GND*%
X70713600Y-146621800D03*
%TO.P,C37,2*%
%TO.N,-12V*%
X70713600Y-145071800D03*
%TD*%
D21*
%TO.P,R5,1*%
%TO.N,Net-(U4A--)*%
X51435000Y-85408000D03*
%TO.P,R5,2*%
%TO.N,Net-(C1-Pad1)*%
X51435000Y-87058000D03*
%TD*%
D27*
%TO.P,R56,1*%
%TO.N,Net-(R56-Pad1)*%
X81534000Y-144575000D03*
%TO.P,R56,2*%
%TO.N,Net-(J5-PadT)*%
X81534000Y-147525000D03*
%TD*%
D18*
%TO.P,R10,1*%
%TO.N,Net-(U4C--)*%
X35814000Y-91884000D03*
%TO.P,R10,2*%
%TO.N,Net-(C4-Pad1)*%
X35814000Y-90234000D03*
%TD*%
D25*
%TO.P,C20,1*%
%TO.N,GND*%
X37452000Y-101092000D03*
%TO.P,C20,2*%
%TO.N,-12V*%
X39002000Y-101092000D03*
%TD*%
D18*
%TO.P,R4,1*%
%TO.N,J6_cv_a_in*%
X30861000Y-88773000D03*
%TO.P,R4,2*%
%TO.N,Net-(U4D--)*%
X30861000Y-87123000D03*
%TD*%
D19*
%TO.P,C16,1*%
%TO.N,cv_out_1*%
X48768000Y-102312000D03*
%TO.P,C16,2*%
%TO.N,Net-(U9B--)*%
X48768000Y-100762000D03*
%TD*%
D35*
%TO.N,J1_cv_a_in*%
X45720000Y-85598000D03*
X44462600Y-127508000D03*
%TO.N,J6_cv_a_in*%
X94107000Y-138176000D03*
X94107000Y-128397000D03*
%TO.N,D0*%
X39370000Y-46990000D03*
X39624000Y-98171000D03*
%TO.N,D8*%
X53086000Y-68326000D03*
%TO.N,D9*%
X54102000Y-68961000D03*
%TO.N,D10*%
X66929000Y-72390000D03*
X68605400Y-108762800D03*
%TO.N,D11*%
X62103000Y-75184000D03*
X61468000Y-100076000D03*
%TO.N,D1*%
X39116000Y-96774000D03*
X40700000Y-47800000D03*
%TO.N,D2*%
X93345000Y-140716000D03*
X92964000Y-52197000D03*
%TO.N,D26*%
X56896000Y-131572000D03*
%TO.N,Net-(J5-PadT)*%
X90297000Y-147066000D03*
%TO.N,Net-(J10-PadT)*%
X90170000Y-130937000D03*
%TO.N,+3.3VA*%
X86400000Y-100584000D03*
X87757000Y-96520000D03*
X43600000Y-51600000D03*
X85344000Y-92837000D03*
%TO.N,GND*%
X69342000Y-140860502D03*
X36195000Y-101092000D03*
X44958000Y-97790000D03*
X70739000Y-148209000D03*
X82677000Y-118237000D03*
X38227000Y-88392000D03*
X46990000Y-91948000D03*
X46092232Y-102745751D03*
X46736000Y-115570000D03*
X69088000Y-129667000D03*
X38100000Y-91948000D03*
X46482000Y-119253000D03*
X87669800Y-66791013D03*
X36202400Y-103378000D03*
X45300000Y-50200000D03*
X43877657Y-62728100D03*
X76454000Y-114046000D03*
X84888500Y-140856500D03*
X82937900Y-92964998D03*
X45972587Y-52380500D03*
X84455000Y-131064000D03*
X37719000Y-115570000D03*
X37966100Y-119118090D03*
X47117000Y-88519000D03*
X46202600Y-73710800D03*
X85978160Y-147658900D03*
X77216000Y-117602000D03*
X82937900Y-96668655D03*
X48000000Y-66400000D03*
X89027000Y-92837000D03*
X36195000Y-96266000D03*
X84836000Y-60071000D03*
%TO.N,+3.3V*%
X76200000Y-131445000D03*
X78867000Y-62738000D03*
X78867000Y-53467000D03*
X78867000Y-60706000D03*
%TO.N,audio_out_0*%
X84201000Y-127635000D03*
X84174105Y-140201100D03*
%TO.N,Net-(U4B--)*%
X46895493Y-84969900D03*
X48260000Y-88519000D03*
%TO.N,/cv/pot_1*%
X51800000Y-62100000D03*
X51816000Y-65786000D03*
%TO.N,/cv/pot_5*%
X84201000Y-62357000D03*
X83439000Y-74168000D03*
%TO.N,/cv/pot_2*%
X50927000Y-63600000D03*
X50927000Y-110363000D03*
%TO.N,/cv/pot_6*%
X77978000Y-71374000D03*
X77978000Y-65659000D03*
%TO.N,/cv/pot_3*%
X82296000Y-62992000D03*
X81857300Y-98587557D03*
%TO.N,/cv/pot_8*%
X88265000Y-68580000D03*
%TO.N,A3_D18*%
X73406000Y-115697000D03*
X75184000Y-82550000D03*
%TO.N,A2_D17*%
X70071900Y-114060938D03*
X69088000Y-86614000D03*
%TO.N,Net-(C6-Pad1)*%
X37338000Y-117272000D03*
X37719000Y-126492000D03*
%TO.N,out_0*%
X51562000Y-112395000D03*
X52451000Y-93218000D03*
%TO.N,out_1*%
X33528000Y-94996000D03*
X34290000Y-100965000D03*
%TO.N,-10V*%
X82550000Y-97663000D03*
X49530000Y-75753000D03*
X45847000Y-104902000D03*
X46101000Y-111252000D03*
X83297449Y-116489822D03*
X82408885Y-89675120D03*
X46348100Y-96393000D03*
X83057434Y-121285566D03*
%TO.N,-12V*%
X41069500Y-97536000D03*
X42164000Y-91948000D03*
X42037000Y-143764000D03*
X41069500Y-101092000D03*
X41600000Y-71900000D03*
X42164000Y-88392000D03*
X42037000Y-115570000D03*
X42037000Y-119253000D03*
%TO.N,A1_D16*%
X83566000Y-87630000D03*
X83693000Y-115652000D03*
%TO.N,A4_D19*%
X84582000Y-94742000D03*
X84455000Y-82296000D03*
%TO.N,A5_D20*%
X78359000Y-119507000D03*
X78359000Y-80137000D03*
%TO.N,A7_D22*%
X55746100Y-97705268D03*
%TO.N,A8_D23*%
X55118000Y-102616000D03*
%TO.N,A9_D24*%
X59055000Y-70104000D03*
X60245500Y-95377000D03*
%TO.N,+12V*%
X52600000Y-55200000D03*
X50500000Y-48900000D03*
X42164000Y-97536000D03*
X49300000Y-59400000D03*
X43307000Y-117221000D03*
X43434000Y-119253000D03*
X52600000Y-54100000D03*
X47800000Y-59400000D03*
X52600000Y-53000000D03*
X69899131Y-134503186D03*
X50500000Y-50100000D03*
X44069000Y-88392000D03*
X50900000Y-59400000D03*
X52700000Y-48900000D03*
X51600000Y-48900000D03*
X85482332Y-135128000D03*
%TO.N,cv_in_6*%
X68326000Y-135128000D03*
X72898000Y-90043000D03*
%TO.N,cv_in_5*%
X62236900Y-118991822D03*
%TO.N,cv_in_7*%
X73723134Y-142938134D03*
X72898000Y-117475000D03*
%TO.N,cv_in_4*%
X64643001Y-96774001D03*
%TO.N,cv_in_3*%
X58045900Y-122846639D03*
X58293000Y-137033000D03*
%TO.N,cv_out_0*%
X86741000Y-140716000D03*
X87502600Y-103632000D03*
%TO.N,cv_out_1*%
X80772000Y-104013000D03*
X80772000Y-137668000D03*
%TO.N,A6_D21*%
X80255571Y-90887000D03*
X80264000Y-76454000D03*
%TO.N,Net-(U9C--)*%
X37465000Y-103505000D03*
X36322000Y-98933000D03*
%TO.N,D3*%
X93980000Y-54610000D03*
X95250000Y-138811000D03*
%TO.N,Net-(J9-PadT)*%
X75692000Y-140201100D03*
%TO.N,D29*%
X66040000Y-57531000D03*
X66414100Y-140971677D03*
%TO.N,D30*%
X65786000Y-142367000D03*
X64897000Y-56896000D03*
%TO.N,D4*%
X80899000Y-57277000D03*
X81534000Y-136652000D03*
%TO.N,D12*%
X64389000Y-77343000D03*
X67818000Y-100838000D03*
%TO.N,D5*%
X94869000Y-135382000D03*
X77216000Y-62738000D03*
X77216000Y-109220000D03*
X94488000Y-109220000D03*
%TO.N,Net-(C39-Pad1)*%
X32131000Y-131572000D03*
X32131000Y-137160000D03*
%TO.N,Net-(J4-PadT)*%
X70993000Y-134493000D03*
X72873134Y-135103134D03*
%TO.N,Net-(C38-Pad1)*%
X70700000Y-109600000D03*
X71247000Y-129667000D03*
%TO.N,D27*%
X65913000Y-64516000D03*
X67056000Y-137929400D03*
%TD*%
D36*
%TO.N,J1_cv_a_in*%
X35560000Y-133190000D02*
X38780600Y-133190000D01*
X54038000Y-86106000D02*
X53086000Y-87058000D01*
X56264920Y-86106000D02*
X54038000Y-86106000D01*
X76352400Y-84099400D02*
X58271520Y-84099400D01*
X38780600Y-133190000D02*
X44462600Y-127508000D01*
X52164600Y-86136600D02*
X47780468Y-86136600D01*
X47780468Y-86136600D02*
X47241868Y-85598000D01*
X58271520Y-84099400D02*
X56264920Y-86106000D01*
X90013025Y-86639400D02*
X78892400Y-86639400D01*
X47241868Y-85598000D02*
X45720000Y-85598000D01*
X78892400Y-86639400D02*
X76352400Y-84099400D01*
X53086000Y-87058000D02*
X52164600Y-86136600D01*
X93480625Y-90107000D02*
X90013025Y-86639400D01*
%TO.N,J6_cv_a_in*%
X30607000Y-89027000D02*
X30607000Y-132207000D01*
X87083400Y-117729000D02*
X90238533Y-117729000D01*
X86233000Y-116878600D02*
X87083400Y-117729000D01*
X94107000Y-121597467D02*
X94107000Y-128397000D01*
X37973000Y-139573000D02*
X82718732Y-139573000D01*
X35560000Y-137160000D02*
X37973000Y-139573000D01*
X30607000Y-132207000D02*
X35560000Y-137160000D01*
X83607732Y-138684000D02*
X93599000Y-138684000D01*
X82718732Y-139573000D02*
X83607732Y-138684000D01*
X90238533Y-117729000D02*
X94107000Y-121597467D01*
X93599000Y-138684000D02*
X94107000Y-138176000D01*
X30861000Y-88773000D02*
X30607000Y-89027000D01*
%TO.N,D0*%
X71120000Y-46990000D02*
X69130000Y-45000000D01*
X41360000Y-45000000D02*
X39370000Y-46990000D01*
X39609000Y-98186000D02*
X39624000Y-98171000D01*
X69130000Y-45000000D02*
X41360000Y-45000000D01*
X37777500Y-98186000D02*
X39609000Y-98186000D01*
%TO.N,D8*%
X71120000Y-67310000D02*
X70104000Y-68326000D01*
X70104000Y-68326000D02*
X53086000Y-68326000D01*
%TO.N,D9*%
X54102000Y-68961000D02*
X54203600Y-68859400D01*
X54203600Y-68859400D02*
X70129400Y-68859400D01*
X70129400Y-68859400D02*
X71120000Y-69850000D01*
%TO.N,D10*%
X68605400Y-108762800D02*
X66764800Y-108762800D01*
X66929000Y-72390000D02*
X71120000Y-72390000D01*
X66764800Y-108762800D02*
X66750000Y-108748000D01*
X60250000Y-108748000D02*
X66750000Y-108748000D01*
%TO.N,D11*%
X62484000Y-101092000D02*
X61468000Y-100076000D01*
X62357000Y-74930000D02*
X71120000Y-74930000D01*
X62103000Y-75184000D02*
X62357000Y-74930000D01*
X62484000Y-101283000D02*
X62484000Y-101092000D01*
%TO.N,D1*%
X39004000Y-96886000D02*
X39116000Y-96774000D01*
X40700000Y-47800000D02*
X42500600Y-45999400D01*
X37777500Y-96886000D02*
X39004000Y-96886000D01*
X42500600Y-45999400D02*
X67589400Y-45999400D01*
X67589400Y-45999400D02*
X71120000Y-49530000D01*
%TO.N,D2*%
X71120000Y-52070000D02*
X92837000Y-52070000D01*
X87466600Y-142156100D02*
X89414700Y-140208000D01*
X92837000Y-140208000D02*
X93345000Y-140716000D01*
X89414700Y-140208000D02*
X92837000Y-140208000D01*
X92837000Y-52070000D02*
X92964000Y-52197000D01*
%TO.N,D26*%
X61255400Y-135931400D02*
X56896000Y-131572000D01*
X67321000Y-136583500D02*
X66668900Y-135931400D01*
X66668900Y-135931400D02*
X61255400Y-135931400D01*
%TO.N,Net-(J5-PadT)*%
X89076000Y-148287000D02*
X90297000Y-147066000D01*
X88265000Y-148287000D02*
X82296000Y-148287000D01*
X88265000Y-148287000D02*
X89076000Y-148287000D01*
X82296000Y-148287000D02*
X81534000Y-147525000D01*
%TO.N,Net-(J10-PadT)*%
X80518000Y-130605000D02*
X80687100Y-130435900D01*
X89838000Y-130605000D02*
X90170000Y-130937000D01*
X88011000Y-130605000D02*
X89838000Y-130605000D01*
X87841900Y-130435900D02*
X88011000Y-130605000D01*
X80518000Y-130605000D02*
X80567000Y-130556000D01*
X80687100Y-130435900D02*
X87841900Y-130435900D01*
%TO.N,+3.3VA*%
X81348500Y-117602000D02*
X80796289Y-117602000D01*
D37*
X67240706Y-100003085D02*
X67240692Y-100003099D01*
D36*
X87571500Y-92837000D02*
X87019289Y-92837000D01*
X87019289Y-92837000D02*
X85344000Y-92837000D01*
D37*
X41733000Y-53467000D02*
X43600000Y-51600000D01*
X81286000Y-112148000D02*
X86374000Y-112148000D01*
X35600000Y-56295000D02*
X38428000Y-53467000D01*
X86400000Y-100584000D02*
X85819085Y-100003085D01*
D36*
X79388000Y-116193711D02*
X79388000Y-114046000D01*
D37*
X58069000Y-95250000D02*
X61000000Y-98181000D01*
D36*
X86259000Y-96520000D02*
X87757000Y-96520000D01*
D37*
X38428000Y-53467000D02*
X41733000Y-53467000D01*
X55880000Y-95250000D02*
X58069000Y-95250000D01*
X62822099Y-100003099D02*
X61000000Y-98181000D01*
D36*
X80796289Y-117602000D02*
X79388000Y-116193711D01*
D37*
X85819085Y-100003085D02*
X67240706Y-100003085D01*
X67240692Y-100003099D02*
X62822099Y-100003099D01*
X79388000Y-114046000D02*
X81286000Y-112148000D01*
D36*
%TO.N,GND*%
X45352000Y-115570000D02*
X46736000Y-115570000D01*
X48054500Y-73853000D02*
X46344800Y-73853000D01*
X45860000Y-91948000D02*
X46990000Y-91948000D01*
D37*
X44000000Y-65100000D02*
X44000000Y-62850443D01*
X46100000Y-49400000D02*
X45300000Y-50200000D01*
D36*
X87571500Y-93487000D02*
X88377000Y-93487000D01*
X69088000Y-131292000D02*
X68055000Y-131292000D01*
X81846500Y-92187000D02*
X81846500Y-92837000D01*
X84866600Y-140878400D02*
X84888500Y-140856500D01*
X81900711Y-116952000D02*
X82677000Y-117728289D01*
D37*
X45100000Y-54000000D02*
X45100000Y-53253087D01*
D36*
X36195000Y-96457000D02*
X36195000Y-96266000D01*
X88377000Y-92187000D02*
X89027000Y-92837000D01*
X38877000Y-89042000D02*
X38227000Y-88392000D01*
X38481190Y-118603000D02*
X37966100Y-119118090D01*
X43828000Y-101092000D02*
X44438481Y-101092000D01*
X84912200Y-146063000D02*
X84912200Y-146592940D01*
X86174500Y-66918000D02*
X86174500Y-65618000D01*
X38749289Y-119903000D02*
X37966100Y-119119811D01*
X45026500Y-119903000D02*
X45832000Y-119903000D01*
X69271000Y-142308500D02*
X69271000Y-140931502D01*
X86174500Y-66268000D02*
X87146787Y-66268000D01*
X44958000Y-97789289D02*
X44958000Y-97790000D01*
X82677000Y-117728289D02*
X82677000Y-118237000D01*
X46344800Y-73853000D02*
X46202600Y-73710800D01*
X81348500Y-116952000D02*
X81900711Y-116952000D01*
X75623500Y-117602000D02*
X77216000Y-117602000D01*
X43502500Y-96886000D02*
X44054711Y-96886000D01*
X84455000Y-132575000D02*
X84455000Y-131064000D01*
X84709000Y-96520000D02*
X83185000Y-96520000D01*
X84201000Y-60706000D02*
X84836000Y-60071000D01*
X75623500Y-116952000D02*
X75623500Y-118252000D01*
X45832000Y-119903000D02*
X46482000Y-119253000D01*
X43502500Y-98186000D02*
X44562000Y-98186000D01*
X77838000Y-114046000D02*
X76454000Y-114046000D01*
D37*
X44000000Y-62850443D02*
X43877657Y-62728100D01*
D36*
X36449000Y-103624600D02*
X36202400Y-103378000D01*
X84866600Y-142156100D02*
X84866600Y-140878400D01*
D37*
X46525000Y-49400000D02*
X46100000Y-49400000D01*
D36*
X87571500Y-92187000D02*
X88377000Y-92187000D01*
X46340000Y-87742000D02*
X47117000Y-88519000D01*
X36449000Y-104712000D02*
X36449000Y-103624600D01*
X84455000Y-132575000D02*
X84582000Y-132575000D01*
X83452000Y-60706000D02*
X84201000Y-60706000D01*
X70104000Y-131292000D02*
X69088000Y-131292000D01*
X84912200Y-146592940D02*
X85978160Y-147658900D01*
D37*
X45100000Y-53253087D02*
X45972587Y-52380500D01*
D36*
X45832000Y-118603000D02*
X46482000Y-119253000D01*
X70713600Y-146621800D02*
X70713600Y-148183600D01*
X45534500Y-89042000D02*
X46594000Y-89042000D01*
X44054711Y-96886000D02*
X44958000Y-97789289D01*
X44562000Y-98186000D02*
X44958000Y-97790000D01*
X81846500Y-92837000D02*
X81846500Y-93487000D01*
X38877000Y-87742000D02*
X38227000Y-88392000D01*
X83185000Y-96520000D02*
X83036345Y-96668655D01*
X37966100Y-119119811D02*
X37966100Y-119118090D01*
X69088000Y-131292000D02*
X69088000Y-129667000D01*
X84582000Y-132575000D02*
X85482332Y-132575000D01*
X39301500Y-119903000D02*
X38749289Y-119903000D01*
X81348500Y-118252000D02*
X82662000Y-118252000D01*
X82662000Y-118252000D02*
X82677000Y-118237000D01*
X39301500Y-118603000D02*
X38481190Y-118603000D01*
X38989000Y-115570000D02*
X37719000Y-115570000D01*
X39809500Y-87742000D02*
X38877000Y-87742000D01*
X44438481Y-101092000D02*
X46092232Y-102745751D01*
X45534500Y-87742000D02*
X46340000Y-87742000D01*
X35179000Y-97473000D02*
X36195000Y-96457000D01*
X45026500Y-118603000D02*
X45832000Y-118603000D01*
X39809500Y-89042000D02*
X38877000Y-89042000D01*
X87146787Y-66268000D02*
X87669800Y-66791013D01*
X70713600Y-148183600D02*
X70739000Y-148209000D01*
X39484000Y-91948000D02*
X38100000Y-91948000D01*
X88377000Y-93487000D02*
X89027000Y-92837000D01*
X37452000Y-101092000D02*
X36195000Y-101092000D01*
X82809902Y-92837000D02*
X82937900Y-92964998D01*
X83036345Y-96668655D02*
X82937900Y-96668655D01*
D37*
X48000000Y-68025000D02*
X48000000Y-66400000D01*
D36*
X69271000Y-140931502D02*
X69342000Y-140860502D01*
X83554666Y-132575000D02*
X84455000Y-132575000D01*
X81846500Y-92837000D02*
X82809902Y-92837000D01*
X46594000Y-89042000D02*
X47117000Y-88519000D01*
%TO.N,+3.3V*%
X68961000Y-52070000D02*
X70330640Y-53439640D01*
X83554666Y-134125000D02*
X84866600Y-135436934D01*
X69271000Y-136583500D02*
X69271000Y-134058000D01*
X80449500Y-62368000D02*
X79237000Y-62368000D01*
X84866600Y-135436934D02*
X84866600Y-136431100D01*
X82223600Y-132777757D02*
X81525843Y-132080000D01*
X78097503Y-132080000D02*
X77462503Y-131445000D01*
X75481600Y-132163400D02*
X76200000Y-131445000D01*
X78839640Y-53439640D02*
X78867000Y-53467000D01*
X81902000Y-60706000D02*
X78867000Y-60706000D01*
X83554666Y-134125000D02*
X82223600Y-132793934D01*
X82223600Y-132793934D02*
X82223600Y-132777757D01*
X68055000Y-132842000D02*
X68733600Y-132163400D01*
X69271000Y-134058000D02*
X68055000Y-132842000D01*
X77462503Y-131445000D02*
X76200000Y-131445000D01*
X81525843Y-132080000D02*
X78097503Y-132080000D01*
X79237000Y-62368000D02*
X78867000Y-62738000D01*
X70330640Y-53439640D02*
X78839640Y-53439640D01*
X68733600Y-132163400D02*
X75481600Y-132163400D01*
X55880000Y-52070000D02*
X68961000Y-52070000D01*
%TO.N,Net-(U9A--)*%
X47117000Y-99187000D02*
X52070000Y-99187000D01*
X47117000Y-99060732D02*
X44292268Y-96236000D01*
X44292268Y-96236000D02*
X43502500Y-96236000D01*
X47117000Y-99187000D02*
X47117000Y-99060732D01*
%TO.N,audio_out_0*%
X84216600Y-140243595D02*
X84174105Y-140201100D01*
X46842100Y-123018600D02*
X51378400Y-123018600D01*
X53213000Y-121184000D02*
X54890200Y-121184000D01*
X59824800Y-126118600D02*
X82684600Y-126118600D01*
X54890200Y-121184000D02*
X54940200Y-121234000D01*
X84216600Y-142156100D02*
X84216600Y-140243595D01*
X45026500Y-121203000D02*
X46842100Y-123018600D01*
X54940200Y-121234000D02*
X59824800Y-126118600D01*
X51378400Y-123018600D02*
X53213000Y-121184000D01*
X82684600Y-126118600D02*
X84201000Y-127635000D01*
%TO.N,audio_out_1*%
X45466000Y-127508000D02*
X45466000Y-131285505D01*
X38735000Y-125110332D02*
X38735000Y-121769500D01*
X43002200Y-126442000D02*
X44400000Y-126442000D01*
X85877911Y-137922000D02*
X86816600Y-136983311D01*
X48680395Y-134499900D02*
X58299900Y-134499900D01*
X58299900Y-134499900D02*
X62357500Y-138557500D01*
X38735000Y-121769500D02*
X39301500Y-121203000D01*
X41275000Y-126492000D02*
X40253600Y-125470600D01*
X39095268Y-125470600D02*
X38735000Y-125110332D01*
X62357500Y-138557500D02*
X82803500Y-138557500D01*
X40253600Y-125470600D02*
X39095268Y-125470600D01*
X44400000Y-126442000D02*
X45466000Y-127508000D01*
X86816600Y-136983311D02*
X86816600Y-136431100D01*
X42952200Y-126492000D02*
X43002200Y-126442000D01*
X82803500Y-138557500D02*
X83439000Y-137922000D01*
X45466000Y-131285505D02*
X48680395Y-134499900D01*
X41275000Y-126492000D02*
X42952200Y-126492000D01*
X83439000Y-137922000D02*
X85877911Y-137922000D01*
%TO.N,Net-(U4A--)*%
X46001932Y-84341800D02*
X44568400Y-85775332D01*
X44801000Y-87092000D02*
X45534500Y-87092000D01*
X44568400Y-86859400D02*
X44801000Y-87092000D01*
X49784000Y-85458000D02*
X48914400Y-84588400D01*
X53086000Y-85408000D02*
X49834000Y-85408000D01*
X49834000Y-85408000D02*
X49784000Y-85458000D01*
X44568400Y-85775332D02*
X44568400Y-86859400D01*
X47155661Y-84341800D02*
X46001932Y-84341800D01*
X48914400Y-84588400D02*
X47402261Y-84588400D01*
X47402261Y-84588400D02*
X47155661Y-84341800D01*
%TO.N,Net-(U4C--)*%
X34163000Y-91834000D02*
X33584400Y-91255400D01*
X32319868Y-87884000D02*
X35053000Y-87884000D01*
X32327400Y-91255400D02*
X31808400Y-90736400D01*
X40583111Y-90770600D02*
X40775600Y-90578111D01*
X31808400Y-88395468D02*
X32319868Y-87884000D01*
X40416000Y-89692000D02*
X39809500Y-89692000D01*
X34163000Y-91834000D02*
X35764000Y-91834000D01*
X33584400Y-91255400D02*
X32327400Y-91255400D01*
X35053000Y-87884000D02*
X35814000Y-87123000D01*
X35814000Y-91884000D02*
X36927400Y-90770600D01*
X36927400Y-90770600D02*
X40583111Y-90770600D01*
X40775600Y-90051600D02*
X40416000Y-89692000D01*
X40775600Y-90578111D02*
X40775600Y-90051600D01*
X35764000Y-91834000D02*
X35814000Y-91884000D01*
X31808400Y-90736400D02*
X31808400Y-88395468D01*
%TO.N,Net-(C1-Pad1)*%
X51435000Y-87058000D02*
X48133000Y-87058000D01*
X47517000Y-86442000D02*
X48133000Y-87058000D01*
X45534500Y-86442000D02*
X47517000Y-86442000D01*
%TO.N,Net-(C2-Pad1)*%
X38145000Y-86442000D02*
X39809500Y-86442000D01*
X32512000Y-88773000D02*
X35814000Y-88773000D01*
X35814000Y-88773000D02*
X38145000Y-86442000D01*
%TO.N,Net-(U4D--)*%
X40548711Y-85979000D02*
X40894000Y-86324289D01*
X40361711Y-87092000D02*
X39809500Y-87092000D01*
X35357000Y-85979000D02*
X40548711Y-85979000D01*
X30861000Y-87123000D02*
X34113000Y-87123000D01*
X34113000Y-87123000D02*
X34163000Y-87173000D01*
X34163000Y-87173000D02*
X35357000Y-85979000D01*
X40894000Y-86559711D02*
X40361711Y-87092000D01*
X40894000Y-86324289D02*
X40894000Y-86559711D01*
%TO.N,Net-(U4B--)*%
X53086000Y-88583000D02*
X51485000Y-88583000D01*
X48952600Y-89211600D02*
X48260000Y-88519000D01*
X51485000Y-88583000D02*
X51435000Y-88633000D01*
X48260000Y-88519000D02*
X47087000Y-89692000D01*
X47193892Y-85268299D02*
X46895493Y-84969900D01*
X47518136Y-85408000D02*
X47378435Y-85268299D01*
X47087000Y-89692000D02*
X45534500Y-89692000D01*
X48133000Y-85408000D02*
X47518136Y-85408000D01*
X51435000Y-88633000D02*
X50856400Y-89211600D01*
X47378435Y-85268299D02*
X47193892Y-85268299D01*
X50856400Y-89211600D02*
X48952600Y-89211600D01*
%TO.N,Net-(C3-Pad1)*%
X49784000Y-90233000D02*
X53086000Y-90233000D01*
X49675000Y-90342000D02*
X49784000Y-90233000D01*
X45534500Y-90342000D02*
X49675000Y-90342000D01*
%TO.N,Net-(C4-Pad1)*%
X39809500Y-90342000D02*
X35922000Y-90342000D01*
X34213000Y-90234000D02*
X34163000Y-90284000D01*
X32512000Y-90234000D02*
X35814000Y-90234000D01*
X35922000Y-90342000D02*
X35814000Y-90234000D01*
%TO.N,in_0*%
X54154680Y-87954400D02*
X55469680Y-86639400D01*
X58588732Y-85090000D02*
X71120000Y-85090000D01*
X57039332Y-86639400D02*
X58588732Y-85090000D01*
X50412600Y-87954400D02*
X54154680Y-87954400D01*
X55469680Y-86639400D02*
X57039332Y-86639400D01*
X49784000Y-88583000D02*
X50412600Y-87954400D01*
%TO.N,in_1*%
X51435000Y-93091000D02*
X33719000Y-93091000D01*
X71120000Y-87630000D02*
X57743268Y-87630000D01*
X55372000Y-89154000D02*
X51435000Y-93091000D01*
X33719000Y-93091000D02*
X32512000Y-91884000D01*
X57743268Y-87630000D02*
X56219268Y-89154000D01*
X56219268Y-89154000D02*
X55372000Y-89154000D01*
%TO.N,/cv/pot_1*%
X71377920Y-61087000D02*
X69178620Y-61087000D01*
X68984020Y-60892400D02*
X67667980Y-60892400D01*
X38360487Y-56295000D02*
X38100000Y-56295000D01*
X69178620Y-61087000D02*
X68984020Y-60892400D01*
X56772920Y-65278000D02*
X56264920Y-65786000D01*
X67667980Y-60892400D02*
X66675000Y-61885380D01*
X41400000Y-59334513D02*
X38360487Y-56295000D01*
X66675000Y-64642975D02*
X66039975Y-65278000D01*
X41400000Y-61200000D02*
X41400000Y-59334513D01*
X80449500Y-64968000D02*
X75258920Y-64968000D01*
X66039975Y-65278000D02*
X56772920Y-65278000D01*
X66675000Y-61885380D02*
X66675000Y-64642975D01*
X75258920Y-64968000D02*
X71377920Y-61087000D01*
X56264920Y-65786000D02*
X51816000Y-65786000D01*
X42300000Y-62100000D02*
X41400000Y-61200000D01*
X51800000Y-62100000D02*
X42300000Y-62100000D01*
%TO.N,/cv/pot_5*%
X43608000Y-78740000D02*
X64770000Y-78740000D01*
X64770000Y-78740000D02*
X78867000Y-78740000D01*
X38140000Y-84208000D02*
X43608000Y-78740000D01*
X86163500Y-62357000D02*
X86174500Y-62368000D01*
X84201000Y-62357000D02*
X86163500Y-62357000D01*
X78867000Y-78740000D02*
X83439000Y-74168000D01*
%TO.N,/cv/pot_2*%
X56956000Y-60900000D02*
X55300000Y-60900000D01*
X74425188Y-63668000D02*
X71514487Y-60757299D01*
X55300000Y-60900000D02*
X52600000Y-63600000D01*
X57912000Y-59944000D02*
X56956000Y-60900000D01*
X52600000Y-63600000D02*
X50927000Y-63600000D01*
X50927000Y-110363000D02*
X39859000Y-110363000D01*
X71514487Y-60757299D02*
X69315187Y-60757299D01*
X39859000Y-110363000D02*
X38074000Y-112148000D01*
X68501888Y-59944000D02*
X57912000Y-59944000D01*
X80449500Y-63668000D02*
X74425188Y-63668000D01*
X69315187Y-60757299D02*
X68501888Y-59944000D01*
%TO.N,/cv/pot_6*%
X80449500Y-65618000D02*
X78019000Y-65618000D01*
X63526000Y-70241000D02*
X64659000Y-71374000D01*
X78019000Y-65618000D02*
X77978000Y-65659000D01*
X64659000Y-71374000D02*
X77978000Y-71374000D01*
%TO.N,/cv/pot_3*%
X64628600Y-99309600D02*
X81135257Y-99309600D01*
X82270000Y-63018000D02*
X82296000Y-62992000D01*
X80449500Y-63018000D02*
X82270000Y-63018000D01*
X81135257Y-99309600D02*
X81857300Y-98587557D01*
X63500000Y-98181000D02*
X64628600Y-99309600D01*
%TO.N,/cv/pot_7*%
X86726711Y-63018000D02*
X88900000Y-60844711D01*
X88900000Y-60844711D02*
X88900000Y-56295000D01*
X86174500Y-63018000D02*
X86726711Y-63018000D01*
%TO.N,/cv/pot_4*%
X87686000Y-64318000D02*
X88926000Y-65558000D01*
X86174500Y-64318000D02*
X87686000Y-64318000D01*
X88926000Y-65558000D02*
X88926000Y-84211000D01*
%TO.N,/cv/pot_8*%
X86910443Y-64968000D02*
X88297900Y-66355457D01*
X86174500Y-64968000D02*
X86910443Y-64968000D01*
X88297900Y-68492221D02*
X88297900Y-68547100D01*
X88297900Y-66355457D02*
X88297900Y-68492221D01*
X88297900Y-68547100D02*
X88265000Y-68580000D01*
%TO.N,A3_D18*%
X55880000Y-85090000D02*
X58039000Y-82931000D01*
X74193400Y-83540600D02*
X75184000Y-82550000D01*
X68362286Y-117730000D02*
X70395286Y-115697000D01*
X69570600Y-83540600D02*
X74193400Y-83540600D01*
X73406000Y-115697000D02*
X75578500Y-115697000D01*
X68961000Y-82931000D02*
X69570600Y-83540600D01*
X70395286Y-115697000D02*
X73406000Y-115697000D01*
X68312286Y-117780000D02*
X68362286Y-117730000D01*
X75578500Y-115697000D02*
X75623500Y-115652000D01*
X58039000Y-82931000D02*
X68961000Y-82931000D01*
X66729429Y-117780000D02*
X68312286Y-117780000D01*
%TO.N,A2_D17*%
X78105000Y-118110000D02*
X78105000Y-116931289D01*
X57912000Y-86614000D02*
X69088000Y-86614000D01*
X75623500Y-119552000D02*
X74498858Y-119552000D01*
X78105000Y-116931289D02*
X75234649Y-114060938D01*
X69977000Y-122491000D02*
X71559858Y-122491000D01*
X71559858Y-122491000D02*
X71609858Y-122441000D01*
X75623500Y-119552000D02*
X76663000Y-119552000D01*
X56896000Y-87630000D02*
X57912000Y-86614000D01*
X76663000Y-119552000D02*
X78105000Y-118110000D01*
X55880000Y-87630000D02*
X56896000Y-87630000D01*
X75234649Y-114060938D02*
X70071900Y-114060938D01*
X74498858Y-119552000D02*
X71609858Y-122441000D01*
%TO.N,Net-(C5-Pad1)*%
X53213000Y-116396000D02*
X54856333Y-116396000D01*
X45026500Y-117303000D02*
X52306000Y-117303000D01*
X51485800Y-121234000D02*
X52407200Y-120312600D01*
X55292732Y-120312600D02*
X55643800Y-119961532D01*
X54856333Y-116396000D02*
X54906333Y-116446000D01*
X55643800Y-119961532D02*
X55643800Y-117183467D01*
X52306000Y-117303000D02*
X53213000Y-116396000D01*
X52407200Y-120312600D02*
X55292732Y-120312600D01*
X55643800Y-117183467D02*
X54906333Y-116446000D01*
%TO.N,Net-(C6-Pad1)*%
X39547800Y-126492000D02*
X37719000Y-126492000D01*
X34290000Y-117322000D02*
X35952666Y-117322000D01*
X35952666Y-117322000D02*
X36002666Y-117272000D01*
X36002666Y-117272000D02*
X37338000Y-117272000D01*
X39270500Y-117272000D02*
X39301500Y-117303000D01*
X37338000Y-117272000D02*
X39270500Y-117272000D01*
%TO.N,out_0*%
X51562000Y-116353667D02*
X51519667Y-116396000D01*
X69022630Y-93345000D02*
X56645920Y-93345000D01*
X56645920Y-93345000D02*
X56290320Y-93700600D01*
X52933600Y-93700600D02*
X52451000Y-93218000D01*
X51562000Y-112395000D02*
X51562000Y-116353667D01*
X71120000Y-90170000D02*
X71120000Y-91247630D01*
X56290320Y-93700600D02*
X52933600Y-93700600D01*
X71120000Y-91247630D02*
X69022630Y-93345000D01*
%TO.N,Net-(U5A--)*%
X51569667Y-117996000D02*
X51519667Y-118046000D01*
X51519667Y-118046000D02*
X51426667Y-117953000D01*
X54906333Y-117996000D02*
X51569667Y-117996000D01*
X51426667Y-117953000D02*
X45026500Y-117953000D01*
%TO.N,out_1*%
X34290000Y-94234000D02*
X33528000Y-94996000D01*
X35161000Y-101836000D02*
X34290000Y-100965000D01*
X32635332Y-108215289D02*
X35161000Y-105689621D01*
X35161000Y-105689621D02*
X35161000Y-101836000D01*
X71120000Y-92710000D02*
X69596000Y-94234000D01*
X69596000Y-94234000D02*
X34290000Y-94234000D01*
X32635332Y-117272000D02*
X32635332Y-108215289D01*
%TO.N,Net-(U5B--)*%
X50516800Y-120553000D02*
X45026500Y-120553000D01*
X51485800Y-119584000D02*
X54940200Y-119584000D01*
X51485800Y-119584000D02*
X50516800Y-120553000D01*
%TO.N,Net-(U3D--)*%
X81846500Y-91537000D02*
X74467858Y-91537000D01*
X74467858Y-91537000D02*
X74374858Y-91630000D01*
%TO.N,-10V*%
X90410557Y-97663000D02*
X82550000Y-97663000D01*
X93028093Y-94290400D02*
X92525957Y-94792536D01*
X88837000Y-121031000D02*
X89535000Y-121729000D01*
X62185367Y-117732633D02*
X65407169Y-117732633D01*
X48768000Y-97537000D02*
X47624000Y-96393000D01*
X87180400Y-121861600D02*
X87180400Y-121351468D01*
X95140250Y-94919000D02*
X95843850Y-94215400D01*
X66133136Y-118458600D02*
X69266543Y-118458600D01*
X46101000Y-111252000D02*
X54252800Y-111252000D01*
X95843850Y-94215400D02*
X95843850Y-90810600D01*
X67640543Y-122758543D02*
X67640543Y-122868532D01*
X76678029Y-89351400D02*
X82085165Y-89351400D01*
X92525957Y-94792536D02*
X92525957Y-95547600D01*
X61459400Y-118458600D02*
X62185367Y-117732633D01*
X66711286Y-122491000D02*
X67373000Y-122491000D01*
X47879000Y-104902000D02*
X45847000Y-104902000D01*
X82294868Y-120523000D02*
X83057434Y-121285566D01*
X54252800Y-111252000D02*
X61459400Y-118458600D01*
X47624000Y-96393000D02*
X46348100Y-96393000D01*
X82550000Y-97663000D02*
X80582000Y-97663000D01*
X69266543Y-118458600D02*
X69995143Y-117730000D01*
X67640543Y-122868532D02*
X67891611Y-123119600D01*
X74643640Y-120523000D02*
X82294868Y-120523000D01*
X94511650Y-94290400D02*
X93028093Y-94290400D01*
X92525957Y-95547600D02*
X90410557Y-97663000D01*
X50419000Y-102362000D02*
X47879000Y-104902000D01*
X86684400Y-122357600D02*
X87180400Y-121861600D01*
X84129468Y-122357600D02*
X86684400Y-122357600D01*
X83686227Y-116878600D02*
X83297449Y-116489822D01*
X82085165Y-89351400D02*
X82408885Y-89675120D01*
X65407169Y-117732633D02*
X66133136Y-118458600D01*
X61459400Y-119102590D02*
X61976732Y-119619922D01*
X84582000Y-116878600D02*
X83686227Y-116878600D01*
X80582000Y-97663000D02*
X77724000Y-94805000D01*
X87500868Y-121031000D02*
X88837000Y-121031000D01*
X83057434Y-121285566D02*
X84129468Y-122357600D01*
X76049429Y-89980000D02*
X76678029Y-89351400D01*
X61459400Y-118458600D02*
X61459400Y-119102590D01*
X72047040Y-123119600D02*
X74643640Y-120523000D01*
X61976732Y-119619922D02*
X63840208Y-119619922D01*
X67891611Y-123119600D02*
X72047040Y-123119600D01*
D37*
X48054500Y-75753000D02*
X50549000Y-75753000D01*
D36*
X87180400Y-121351468D02*
X87500868Y-121031000D01*
X67373000Y-122491000D02*
X67640543Y-122758543D01*
X95140250Y-94919000D02*
X94511650Y-94290400D01*
D37*
X50549000Y-75753000D02*
X50610000Y-75692000D01*
D36*
X95843850Y-90810600D02*
X95140250Y-90107000D01*
X63840208Y-119619922D02*
X66711286Y-122491000D01*
%TO.N,Net-(U6C--)*%
X66711286Y-120841000D02*
X71559858Y-120841000D01*
X71609858Y-120891000D02*
X73598858Y-118902000D01*
X73598858Y-118902000D02*
X75623500Y-118902000D01*
X71559858Y-120841000D02*
X71609858Y-120891000D01*
%TO.N,Net-(U3A--)*%
X90161375Y-91757000D02*
X95140250Y-91757000D01*
X89941375Y-91537000D02*
X90161375Y-91757000D01*
X87571500Y-91537000D02*
X89941375Y-91537000D01*
%TO.N,Net-(U6D--)*%
X71993289Y-119380000D02*
X71628000Y-119380000D01*
X66729429Y-119330000D02*
X71578000Y-119330000D01*
X75071289Y-116302000D02*
X71993289Y-119380000D01*
X71578000Y-119330000D02*
X71628000Y-119380000D01*
X75623500Y-116302000D02*
X75071289Y-116302000D01*
%TO.N,Net-(U3B--)*%
X89293375Y-94137000D02*
X90161375Y-93269000D01*
X90161375Y-93269000D02*
X95140250Y-93269000D01*
X87571500Y-94137000D02*
X89293375Y-94137000D01*
%TO.N,Net-(U3C--)*%
X80380574Y-94137000D02*
X79398574Y-93155000D01*
X81846500Y-94137000D02*
X80380574Y-94137000D01*
X74374858Y-93155000D02*
X79398574Y-93155000D01*
%TO.N,Net-(U6A--)*%
X81900711Y-116302000D02*
X84127311Y-118528600D01*
X84127311Y-118528600D02*
X84582000Y-118528600D01*
X81348500Y-116302000D02*
X81900711Y-116302000D01*
X89535000Y-118528600D02*
X84582000Y-118528600D01*
%TO.N,Net-(U6B--)*%
X84582000Y-120079000D02*
X83405000Y-118902000D01*
X83405000Y-118902000D02*
X81348500Y-118902000D01*
X89535000Y-120079000D02*
X84582000Y-120079000D01*
D37*
%TO.N,-12V*%
X52260000Y-73835000D02*
X48000000Y-69575000D01*
X40258000Y-73242000D02*
X41600000Y-71900000D01*
X47925000Y-69500000D02*
X48000000Y-69575000D01*
D36*
X40539000Y-115570000D02*
X42037000Y-115570000D01*
X39809500Y-88392000D02*
X42164000Y-88392000D01*
X84912200Y-144513000D02*
X85516600Y-143908600D01*
X72330400Y-146688600D02*
X70713600Y-145071800D01*
D37*
X41600000Y-71900000D02*
X44000000Y-69500000D01*
D36*
X69816497Y-145968903D02*
X65958903Y-145968903D01*
X83375200Y-146050000D02*
X79502000Y-146050000D01*
D37*
X52260000Y-75692000D02*
X52260000Y-73835000D01*
D36*
X79502000Y-146050000D02*
X78863400Y-146688600D01*
X65958903Y-145968903D02*
X64135000Y-144145000D01*
D37*
X40258000Y-73406000D02*
X40258000Y-73242000D01*
D36*
X37777500Y-97536000D02*
X41069500Y-97536000D01*
X39002000Y-101092000D02*
X41069500Y-101092000D01*
X70713600Y-145071800D02*
X69921000Y-144279200D01*
X78863400Y-146688600D02*
X72330400Y-146688600D01*
D37*
X44000000Y-69500000D02*
X47925000Y-69500000D01*
D36*
X84912200Y-144513000D02*
X83375200Y-146050000D01*
X70713600Y-145071800D02*
X69816497Y-145968903D01*
X41034000Y-91948000D02*
X42164000Y-91948000D01*
X85516600Y-143908600D02*
X85516600Y-142156100D01*
X69921000Y-144279200D02*
X69921000Y-142308500D01*
X64135000Y-144145000D02*
X42418000Y-144145000D01*
X42418000Y-144145000D02*
X42037000Y-143764000D01*
X39301500Y-119253000D02*
X42037000Y-119253000D01*
%TO.N,A0_D15*%
X67641980Y-88832400D02*
X65542380Y-90932000D01*
X70573113Y-88950301D02*
X70455212Y-88832400D01*
X71666887Y-88950301D02*
X70573113Y-88950301D01*
X72098188Y-88519000D02*
X71666887Y-88950301D01*
X87571500Y-90887000D02*
X89381375Y-90887000D01*
X59309000Y-92583000D02*
X56007000Y-92583000D01*
X85203500Y-88519000D02*
X72098188Y-88519000D01*
X90211375Y-90157000D02*
X90161375Y-90107000D01*
X91821000Y-90157000D02*
X90211375Y-90157000D01*
X65542380Y-90932000D02*
X60960000Y-90932000D01*
X60960000Y-90932000D02*
X59309000Y-92583000D01*
X56007000Y-92583000D02*
X55880000Y-92710000D01*
X89381375Y-90887000D02*
X90161375Y-90107000D01*
X87571500Y-90887000D02*
X85203500Y-88519000D01*
X70455212Y-88832400D02*
X67641980Y-88832400D01*
%TO.N,A1_D16*%
X81348500Y-115652000D02*
X86607400Y-115652000D01*
X89535000Y-116878600D02*
X87934000Y-116878600D01*
X55880000Y-90170000D02*
X57683868Y-88366132D01*
X72520920Y-87630000D02*
X83566000Y-87630000D01*
X86607400Y-115652000D02*
X87884000Y-116928600D01*
X71530320Y-88620600D02*
X72520920Y-87630000D01*
X57683868Y-88366132D02*
X70455212Y-88366132D01*
X70709680Y-88620600D02*
X71530320Y-88620600D01*
X70455212Y-88366132D02*
X70709680Y-88620600D01*
X87934000Y-116878600D02*
X87884000Y-116928600D01*
%TO.N,A4_D19*%
X83718400Y-81559400D02*
X56870600Y-81559400D01*
X84455000Y-82296000D02*
X83718400Y-81559400D01*
X56870600Y-81559400D02*
X55880000Y-82550000D01*
X91739000Y-94787000D02*
X91821000Y-94869000D01*
X87571500Y-94787000D02*
X91739000Y-94787000D01*
X87571500Y-94787000D02*
X84627000Y-94787000D01*
X84627000Y-94787000D02*
X84582000Y-94742000D01*
%TO.N,A5_D20*%
X81348500Y-119552000D02*
X82405000Y-119552000D01*
X56870600Y-81000600D02*
X55880000Y-80010000D01*
X81348500Y-119552000D02*
X78404000Y-119552000D01*
X77495400Y-81000600D02*
X56870600Y-81000600D01*
X86233000Y-121679000D02*
X84632000Y-121679000D01*
X78404000Y-119552000D02*
X78359000Y-119507000D01*
X78359000Y-80137000D02*
X77495400Y-81000600D01*
X82405000Y-119552000D02*
X84582000Y-121729000D01*
X84632000Y-121679000D02*
X84582000Y-121729000D01*
%TO.N,A7_D22*%
X47117000Y-97537000D02*
X48038400Y-98458400D01*
X54992968Y-98458400D02*
X55746100Y-97705268D01*
X48038400Y-98458400D02*
X54992968Y-98458400D01*
%TO.N,A8_D23*%
X52070000Y-102362000D02*
X54864000Y-102362000D01*
X54864000Y-102362000D02*
X55118000Y-102616000D01*
%TO.N,A9_D24*%
X74374858Y-94805000D02*
X75999429Y-94805000D01*
X76049429Y-94755000D02*
X76957730Y-93846699D01*
X58801000Y-69850000D02*
X55880000Y-69850000D01*
X79622699Y-93846699D02*
X80563000Y-94787000D01*
X74374858Y-94805000D02*
X73829258Y-94259400D01*
X80563000Y-94787000D02*
X81846500Y-94787000D01*
X70586600Y-94259400D02*
X69469000Y-95377000D01*
X59055000Y-70104000D02*
X58801000Y-69850000D01*
X69469000Y-95377000D02*
X60245500Y-95377000D01*
X75999429Y-94805000D02*
X76049429Y-94755000D01*
X73829258Y-94259400D02*
X70586600Y-94259400D01*
X76957730Y-93846699D02*
X79622699Y-93846699D01*
%TO.N,A10_D25*%
X73025000Y-67814080D02*
X81410920Y-67814080D01*
X81410920Y-67814080D02*
X85557000Y-63668000D01*
X56870600Y-66319400D02*
X71530320Y-66319400D01*
X85557000Y-63668000D02*
X86174500Y-63668000D01*
X55880000Y-67310000D02*
X56870600Y-66319400D01*
X71530320Y-66319400D02*
X73025000Y-67814080D01*
%TO.N,+12V*%
X43802000Y-116726000D02*
X43307000Y-117221000D01*
X69921000Y-133025000D02*
X70104000Y-132842000D01*
X85482332Y-134125000D02*
X85482332Y-136396832D01*
X85482332Y-136396832D02*
X85516600Y-136431100D01*
X44310000Y-91948000D02*
X44069000Y-91707000D01*
X43802000Y-115570000D02*
X43802000Y-116726000D01*
X45534500Y-88392000D02*
X44069000Y-88392000D01*
X44069000Y-91707000D02*
X44069000Y-88392000D01*
X42278000Y-101092000D02*
X42278000Y-97650000D01*
X43502500Y-97536000D02*
X42164000Y-97536000D01*
X45026500Y-119253000D02*
X43434000Y-119253000D01*
X42278000Y-97650000D02*
X42164000Y-97536000D01*
X69921000Y-136583500D02*
X69921000Y-133025000D01*
%TO.N,cv_in_6*%
X68621000Y-136583500D02*
X68621000Y-135423000D01*
X68621000Y-135423000D02*
X68326000Y-135128000D01*
X74311858Y-90043000D02*
X74374858Y-89980000D01*
X72898000Y-90043000D02*
X74311858Y-90043000D01*
%TO.N,cv_in_5*%
X67715543Y-121862400D02*
X66616668Y-121862400D01*
X63746090Y-118991822D02*
X62236900Y-118991822D01*
X68344143Y-122491000D02*
X67715543Y-121862400D01*
X66616668Y-121862400D02*
X63746090Y-118991822D01*
%TO.N,cv_in_7*%
X71314590Y-143604301D02*
X73056967Y-143604301D01*
X72643000Y-117730000D02*
X72898000Y-117475000D01*
X73056967Y-143604301D02*
X73723134Y-142938134D01*
X70571000Y-142308500D02*
X70571000Y-142860711D01*
X70571000Y-142860711D02*
X71314590Y-143604301D01*
X71628000Y-117730000D02*
X72643000Y-117730000D01*
%TO.N,cv_in_2*%
X78236958Y-130121600D02*
X76703042Y-130121600D01*
X95262600Y-128638400D02*
X93726000Y-130175000D01*
X93472000Y-98933000D02*
X95262600Y-100723600D01*
X67252600Y-130613400D02*
X52106600Y-130613400D01*
X93472000Y-94927625D02*
X93472000Y-98933000D01*
X88948442Y-128397000D02*
X79961558Y-128397000D01*
X90726442Y-130175000D02*
X88948442Y-128397000D01*
X75232442Y-128651000D02*
X69215000Y-128651000D01*
X52106600Y-130613400D02*
X49530000Y-133190000D01*
X79961558Y-128397000D02*
X78236958Y-130121600D01*
X95262600Y-100723600D02*
X95262600Y-128638400D01*
X76703042Y-130121600D02*
X75232442Y-128651000D01*
X93480625Y-94919000D02*
X93472000Y-94927625D01*
X93726000Y-130175000D02*
X90726442Y-130175000D01*
X69215000Y-128651000D02*
X67252600Y-130613400D01*
%TO.N,cv_in_4*%
X77020400Y-95064600D02*
X75310999Y-96774001D01*
X78769974Y-94176400D02*
X77271468Y-94176400D01*
X79398574Y-94805000D02*
X78769974Y-94176400D01*
X77271468Y-94176400D02*
X77020400Y-94427468D01*
X75310999Y-96774001D02*
X64643001Y-96774001D01*
X77020400Y-94427468D02*
X77020400Y-95064600D01*
%TO.N,cv_in_3*%
X86042000Y-123571000D02*
X76962000Y-123571000D01*
X76962000Y-123571000D02*
X75438000Y-125095000D01*
X58166000Y-137160000D02*
X58293000Y-137033000D01*
X64135000Y-123571000D02*
X58770261Y-123571000D01*
X58770261Y-123571000D02*
X58045900Y-122846639D01*
X65659000Y-125095000D02*
X64135000Y-123571000D01*
X87884000Y-121729000D02*
X86042000Y-123571000D01*
X49530000Y-137160000D02*
X58166000Y-137160000D01*
X75438000Y-125095000D02*
X65659000Y-125095000D01*
%TO.N,cv_out_0*%
X52529832Y-97077168D02*
X52070000Y-97537000D01*
X48418000Y-95586000D02*
X43502500Y-95586000D01*
X50419000Y-97587000D02*
X52020000Y-97587000D01*
X86816600Y-142156100D02*
X86816600Y-140791600D01*
X85531132Y-101660532D02*
X66359736Y-101660532D01*
X50419000Y-97587000D02*
X48418000Y-95586000D01*
X60840700Y-101911600D02*
X56006268Y-97077168D01*
X87502600Y-103632000D02*
X85531132Y-101660532D01*
X56006268Y-97077168D02*
X52529832Y-97077168D01*
X52020000Y-97587000D02*
X52070000Y-97537000D01*
X66108668Y-101911600D02*
X60840700Y-101911600D01*
X66359736Y-101660532D02*
X66108668Y-101911600D01*
X86816600Y-140791600D02*
X86741000Y-140716000D01*
%TO.N,cv_out_1*%
X53190600Y-102990600D02*
X51590600Y-102990600D01*
X47117000Y-102362000D02*
X48718000Y-102362000D01*
X69822100Y-105028100D02*
X69822100Y-105790100D01*
X51122600Y-101984468D02*
X50871532Y-101733400D01*
X51590600Y-102990600D02*
X51122600Y-102522600D01*
X49346600Y-101733400D02*
X48768000Y-102312000D01*
X82881911Y-137668000D02*
X80772000Y-137668000D01*
X69068600Y-106543600D02*
X56743600Y-106543600D01*
X83566600Y-136983311D02*
X82881911Y-137668000D01*
X79883000Y-103124000D02*
X71726200Y-103124000D01*
X83566600Y-136431100D02*
X83566600Y-136983311D01*
X71726200Y-103124000D02*
X69822100Y-105028100D01*
X69822100Y-105790100D02*
X69068600Y-106543600D01*
X47117000Y-102362000D02*
X44241000Y-99486000D01*
X56743600Y-106543600D02*
X53190600Y-102990600D01*
X50871532Y-101733400D02*
X49346600Y-101733400D01*
X51122600Y-102522600D02*
X51122600Y-101984468D01*
X80772000Y-104013000D02*
X79883000Y-103124000D01*
X48718000Y-102362000D02*
X48768000Y-102312000D01*
X44241000Y-99486000D02*
X43502500Y-99486000D01*
%TO.N,A6_D21*%
X80238600Y-76479400D02*
X80264000Y-76454000D01*
X79398571Y-90030000D02*
X80255571Y-90887000D01*
X77724000Y-89980000D02*
X79348571Y-89980000D01*
X56870600Y-76479400D02*
X80238600Y-76479400D01*
X79348571Y-89980000D02*
X79398571Y-90030000D01*
X55880000Y-77470000D02*
X56870600Y-76479400D01*
X80255571Y-90887000D02*
X81846500Y-90887000D01*
%TO.N,A11_D28*%
X81915000Y-61595000D02*
X83185000Y-62865000D01*
X83185000Y-63754000D02*
X82621000Y-64318000D01*
X75209400Y-58699400D02*
X78105000Y-61595000D01*
X83185000Y-62865000D02*
X83185000Y-63754000D01*
X82621000Y-64318000D02*
X80449500Y-64318000D01*
X55880000Y-59690000D02*
X56870600Y-58699400D01*
X78105000Y-61595000D02*
X81915000Y-61595000D01*
X56870600Y-58699400D02*
X75209400Y-58699400D01*
%TO.N,Net-(U5D--)*%
X36002666Y-118922000D02*
X36971666Y-117953000D01*
X36971666Y-117953000D02*
X39301500Y-117953000D01*
X32635332Y-118922000D02*
X36002666Y-118922000D01*
%TO.N,Net-(U5C--)*%
X39853711Y-120553000D02*
X39301500Y-120553000D01*
X41275000Y-124842000D02*
X41275000Y-121974289D01*
X39547800Y-124842000D02*
X42952200Y-124842000D01*
X42952200Y-124842000D02*
X43002200Y-124892000D01*
X41275000Y-121974289D02*
X39853711Y-120553000D01*
%TO.N,Net-(U9B--)*%
X45241000Y-98836000D02*
X47117000Y-100712000D01*
X47117000Y-100712000D02*
X52070000Y-100712000D01*
X43502500Y-98836000D02*
X45241000Y-98836000D01*
D38*
%TO.N,Net-(D1-A)*%
X34270000Y-59998000D02*
X36810000Y-59998000D01*
X40260000Y-59436000D02*
X37372000Y-59436000D01*
X37372000Y-59436000D02*
X36810000Y-59998000D01*
%TO.N,Net-(D2-K)*%
X34270000Y-70158000D02*
X36810000Y-70158000D01*
X36958000Y-70306000D02*
X36810000Y-70158000D01*
X36958000Y-73406000D02*
X36958000Y-70306000D01*
D36*
%TO.N,Net-(U9C--)*%
X37396400Y-103573600D02*
X37396400Y-105608400D01*
X36449000Y-106362000D02*
X39751000Y-106362000D01*
X37396400Y-105608400D02*
X38100000Y-106312000D01*
X37465000Y-103505000D02*
X37396400Y-103573600D01*
X37777500Y-98836000D02*
X36419000Y-98836000D01*
X36419000Y-98836000D02*
X36322000Y-98933000D01*
%TO.N,Net-(U9D--)*%
X35129000Y-99073000D02*
X35179000Y-99123000D01*
X35882600Y-97467400D02*
X37114000Y-96236000D01*
X35882600Y-98419400D02*
X35882600Y-97467400D01*
X35179000Y-99123000D02*
X35882600Y-98419400D01*
X37114000Y-96236000D02*
X37777500Y-96236000D01*
X31877000Y-99073000D02*
X35129000Y-99073000D01*
%TO.N,D3*%
X95250000Y-138811000D02*
X94488000Y-139573000D01*
X94488000Y-139573000D02*
X83820000Y-139573000D01*
X82931000Y-142141700D02*
X82916600Y-142156100D01*
X82931000Y-140462000D02*
X82931000Y-142141700D01*
X71120000Y-54610000D02*
X93980000Y-54610000D01*
X83820000Y-139573000D02*
X82931000Y-140462000D01*
%TO.N,Net-(D3-A)*%
X62426000Y-102875000D02*
X59055000Y-102875000D01*
X62484000Y-102933000D02*
X62426000Y-102875000D01*
%TO.N,Net-(D4-A)*%
X64833000Y-102870000D02*
X67945000Y-102870000D01*
X64770000Y-102933000D02*
X64833000Y-102870000D01*
%TO.N,Net-(J9-PadT)*%
X75571900Y-140201100D02*
X75692000Y-140201100D01*
X71221000Y-142308500D02*
X71221000Y-142860711D01*
X71221000Y-141756289D02*
X69697113Y-140232402D01*
X72498400Y-143274600D02*
X75571900Y-140201100D01*
X69697113Y-140232402D02*
X68682598Y-140232402D01*
X71221000Y-142308500D02*
X71221000Y-141756289D01*
X71634889Y-143274600D02*
X72498400Y-143274600D01*
X71221000Y-142860711D02*
X71634889Y-143274600D01*
X67971000Y-140944000D02*
X67971000Y-142308500D01*
X68682598Y-140232402D02*
X67971000Y-140944000D01*
%TO.N,D29*%
X56261000Y-57531000D02*
X55880000Y-57150000D01*
X71871000Y-142308500D02*
X71871000Y-141021497D01*
X67483076Y-139902701D02*
X66414100Y-140971677D01*
X70752204Y-139902701D02*
X67483076Y-139902701D01*
X66040000Y-57531000D02*
X56261000Y-57531000D01*
X71871000Y-141021497D02*
X70752204Y-139902701D01*
%TO.N,D30*%
X64897000Y-56896000D02*
X58166000Y-56896000D01*
X58166000Y-56896000D02*
X55880000Y-54610000D01*
X67321000Y-142308500D02*
X65844500Y-142308500D01*
X65844500Y-142308500D02*
X65786000Y-142367000D01*
%TO.N,D4*%
X80772000Y-57150000D02*
X71120000Y-57150000D01*
X82916600Y-136431100D02*
X81754900Y-136431100D01*
X81754900Y-136431100D02*
X81534000Y-136652000D01*
X80899000Y-57277000D02*
X80772000Y-57150000D01*
%TO.N,D12*%
X67818000Y-100838000D02*
X65215000Y-100838000D01*
X64516000Y-77470000D02*
X71120000Y-77470000D01*
X64389000Y-77343000D02*
X64516000Y-77470000D01*
X65215000Y-100838000D02*
X64770000Y-101283000D01*
%TO.N,D5*%
X71120000Y-59690000D02*
X74168000Y-62738000D01*
X74168000Y-62738000D02*
X77216000Y-62738000D01*
X94869000Y-135382000D02*
X88515700Y-135382000D01*
X77216000Y-109220000D02*
X94488000Y-109220000D01*
X88515700Y-135382000D02*
X87466600Y-136431100D01*
%TO.N,D6*%
X75177100Y-66287100D02*
X80430400Y-66287100D01*
X80430400Y-66287100D02*
X80449500Y-66268000D01*
X71120000Y-62230000D02*
X75177100Y-66287100D01*
%TO.N,D7*%
X73268000Y-66918000D02*
X80449500Y-66918000D01*
X71120000Y-64770000D02*
X73268000Y-66918000D01*
%TO.N,gate_out_0*%
X71221000Y-135867000D02*
X71221000Y-136583500D01*
X73660000Y-133428000D02*
X71221000Y-135867000D01*
%TO.N,Net-(C39-Pad1)*%
X31623000Y-99935487D02*
X31173400Y-99485887D01*
X66219600Y-146688600D02*
X35051097Y-146688600D01*
X32131000Y-131572000D02*
X31623000Y-131064000D01*
X32131000Y-143768503D02*
X32131000Y-143002000D01*
X32131000Y-143002000D02*
X32131000Y-137160000D01*
X31623000Y-131064000D02*
X31623000Y-99935487D01*
X35051097Y-146688600D02*
X32131000Y-143768503D01*
X35415000Y-95586000D02*
X33528000Y-97473000D01*
X31173400Y-98226600D02*
X31877000Y-97523000D01*
X31173400Y-99485887D02*
X31173400Y-98226600D01*
X31877000Y-97523000D02*
X33478000Y-97523000D01*
X37777500Y-95586000D02*
X35415000Y-95586000D01*
X33478000Y-97523000D02*
X33528000Y-97473000D01*
X67437000Y-147906000D02*
X66219600Y-146688600D01*
%TO.N,Net-(J4-PadT)*%
X70571000Y-134915000D02*
X70993000Y-134493000D01*
X70349400Y-137549600D02*
X70571000Y-137328000D01*
X68384889Y-137549600D02*
X70349400Y-137549600D01*
X70571000Y-136583500D02*
X70571000Y-134915000D01*
X77470000Y-133190000D02*
X75556866Y-135103134D01*
X75556866Y-135103134D02*
X72873134Y-135103134D01*
X67971000Y-136583500D02*
X67971000Y-137135711D01*
X70571000Y-137328000D02*
X70571000Y-136583500D01*
X67971000Y-137135711D02*
X68384889Y-137549600D01*
%TO.N,Net-(R13-Pad1)*%
X88265000Y-145337000D02*
X86166600Y-143238600D01*
X86166600Y-143238600D02*
X86166600Y-142156100D01*
%TO.N,Net-(R14-Pad1)*%
X84216600Y-136431100D02*
X84216600Y-135878889D01*
X83141311Y-134803600D02*
X81766600Y-134803600D01*
X81766600Y-134803600D02*
X80518000Y-133555000D01*
X84216600Y-135878889D02*
X83141311Y-134803600D01*
%TO.N,gate_out_1*%
X68621000Y-143772000D02*
X68621000Y-142308500D01*
X67437000Y-144956000D02*
X68621000Y-143772000D01*
%TO.N,Net-(R56-Pad1)*%
X81534000Y-144575000D02*
X81699911Y-144575000D01*
X81699911Y-144575000D02*
X83566600Y-142708311D01*
X83566600Y-142708311D02*
X83566600Y-142156100D01*
%TO.N,Net-(R60-Pad1)*%
X88011000Y-134034489D02*
X86166600Y-135878889D01*
X88011000Y-133555000D02*
X88011000Y-134034489D01*
X86166600Y-135878889D02*
X86166600Y-136431100D01*
%TO.N,Net-(C38-Pad1)*%
X39701000Y-104762000D02*
X39751000Y-104712000D01*
X55219600Y-108432600D02*
X51247300Y-108432600D01*
X70473400Y-109826600D02*
X56613600Y-109826600D01*
X72849000Y-129667000D02*
X73660000Y-130478000D01*
X49311300Y-106496600D02*
X41535600Y-106496600D01*
X41535600Y-106496600D02*
X39751000Y-104712000D01*
X37777500Y-99486000D02*
X38130600Y-99839100D01*
X38130600Y-104731400D02*
X38100000Y-104762000D01*
X71247000Y-129667000D02*
X72849000Y-129667000D01*
X70700000Y-109600000D02*
X70473400Y-109826600D01*
X51247300Y-108432600D02*
X49311300Y-106496600D01*
X38100000Y-104762000D02*
X39701000Y-104762000D01*
X38130600Y-99839100D02*
X38130600Y-104731400D01*
X56613600Y-109826600D02*
X55219600Y-108432600D01*
%TO.N,D27*%
X58067980Y-64589600D02*
X55880000Y-62401620D01*
X65913000Y-64516000D02*
X65839400Y-64589600D01*
X70950811Y-138055900D02*
X67182500Y-138055900D01*
X71871000Y-136583500D02*
X71871000Y-137135711D01*
X71871000Y-137135711D02*
X70950811Y-138055900D01*
X65839400Y-64589600D02*
X58067980Y-64589600D01*
X67182500Y-138055900D02*
X67056000Y-137929400D01*
X55880000Y-62401620D02*
X55880000Y-62230000D01*
%TD*%
%TA.AperFunction,Conductor*%
%TO.N,+12V*%
G36*
X55297986Y-48111617D02*
G01*
X55323625Y-48123573D01*
X55375780Y-48147894D01*
X55427956Y-48193651D01*
X55447375Y-48260276D01*
X55427956Y-48326901D01*
X55375780Y-48372658D01*
X55246589Y-48432900D01*
X55181811Y-48478258D01*
X55900000Y-49196447D01*
X55900000Y-49863553D01*
X55181811Y-50581741D01*
X55182291Y-50587220D01*
X55211691Y-50621643D01*
X55224070Y-50682490D01*
X55205398Y-50741710D01*
X55160356Y-50784453D01*
X55100240Y-50800000D01*
X53900000Y-50800000D01*
X53900000Y-60976000D01*
X53883387Y-61038000D01*
X53838000Y-61083387D01*
X53776000Y-61100000D01*
X42424000Y-61100000D01*
X42362000Y-61083387D01*
X42316613Y-61038000D01*
X42300000Y-60976000D01*
X42300000Y-59686000D01*
X42610001Y-59686000D01*
X42610001Y-59859315D01*
X42620143Y-59958605D01*
X42673453Y-60119486D01*
X42762426Y-60263732D01*
X42882267Y-60383573D01*
X43026513Y-60472546D01*
X43187393Y-60525856D01*
X43286685Y-60536000D01*
X43310000Y-60536000D01*
X43310000Y-59686000D01*
X43810000Y-59686000D01*
X43810000Y-60535999D01*
X43833315Y-60535999D01*
X43932605Y-60525856D01*
X44093486Y-60472546D01*
X44237732Y-60383573D01*
X44357573Y-60263732D01*
X44446546Y-60119486D01*
X44499856Y-59958606D01*
X44510000Y-59859315D01*
X44510000Y-59686000D01*
X43810000Y-59686000D01*
X43310000Y-59686000D01*
X42610001Y-59686000D01*
X42300000Y-59686000D01*
X42300000Y-59186000D01*
X42610000Y-59186000D01*
X43310000Y-59186000D01*
X43310000Y-58336001D01*
X43286685Y-58336001D01*
X43187394Y-58346143D01*
X43026513Y-58399453D01*
X42882267Y-58488426D01*
X42762426Y-58608267D01*
X42673453Y-58752513D01*
X42620143Y-58913393D01*
X42610000Y-59012685D01*
X42610000Y-59186000D01*
X42300000Y-59186000D01*
X42300000Y-58336000D01*
X43810000Y-58336000D01*
X43810000Y-59186000D01*
X44509999Y-59186000D01*
X44509999Y-59012685D01*
X44499856Y-58913394D01*
X44446546Y-58752513D01*
X44357573Y-58608267D01*
X44237732Y-58488426D01*
X44093486Y-58399453D01*
X43932606Y-58346143D01*
X43833315Y-58336000D01*
X43810000Y-58336000D01*
X42300000Y-58336000D01*
X42300000Y-56024000D01*
X42316613Y-55962000D01*
X42362000Y-55916613D01*
X42424000Y-55900000D01*
X47300000Y-55900000D01*
X47300000Y-54835891D01*
X47319226Y-54769570D01*
X47370942Y-54723816D01*
X47439112Y-54712815D01*
X47502595Y-54739980D01*
X47541706Y-54796887D01*
X47565642Y-54869122D01*
X47657683Y-55018345D01*
X47781654Y-55142316D01*
X47930877Y-55234357D01*
X48097303Y-55289506D01*
X48200021Y-55300000D01*
X49250000Y-55300000D01*
X49250000Y-54250000D01*
X49750000Y-54250000D01*
X49750000Y-55299999D01*
X50799979Y-55299999D01*
X50902695Y-55289506D01*
X51069122Y-55234357D01*
X51218345Y-55142316D01*
X51342316Y-55018345D01*
X51434357Y-54869122D01*
X51489506Y-54702696D01*
X51500000Y-54599979D01*
X51500000Y-54250000D01*
X49750000Y-54250000D01*
X49250000Y-54250000D01*
X49250000Y-52700001D01*
X48200021Y-52700001D01*
X48097304Y-52710493D01*
X47930877Y-52765642D01*
X47781654Y-52857683D01*
X47657683Y-52981654D01*
X47565642Y-53130877D01*
X47541706Y-53203112D01*
X47502594Y-53260019D01*
X47439111Y-53287184D01*
X47370942Y-53276183D01*
X47319226Y-53230429D01*
X47300000Y-53164108D01*
X47300000Y-52700000D01*
X49750000Y-52700000D01*
X49750000Y-53750000D01*
X51499999Y-53750000D01*
X51499999Y-53400021D01*
X51489506Y-53297304D01*
X51434357Y-53130877D01*
X51342316Y-52981654D01*
X51218345Y-52857683D01*
X51069122Y-52765642D01*
X50902696Y-52710493D01*
X50799979Y-52700000D01*
X49750000Y-52700000D01*
X47300000Y-52700000D01*
X47300000Y-50384753D01*
X47317067Y-50321974D01*
X47363568Y-50276475D01*
X47426705Y-50260783D01*
X47489097Y-50279215D01*
X47541513Y-50311546D01*
X47702393Y-50364856D01*
X47801685Y-50375000D01*
X47825000Y-50375000D01*
X47825000Y-49650000D01*
X48325000Y-49650000D01*
X48325000Y-50374999D01*
X48348315Y-50374999D01*
X48447605Y-50364856D01*
X48608486Y-50311546D01*
X48752732Y-50222573D01*
X48872573Y-50102732D01*
X48961546Y-49958486D01*
X49014856Y-49797606D01*
X49025000Y-49698315D01*
X49025000Y-49650000D01*
X48325000Y-49650000D01*
X47825000Y-49650000D01*
X47825000Y-49529999D01*
X54613178Y-49529999D01*
X54632424Y-49749978D01*
X54689579Y-49963281D01*
X54782898Y-50163406D01*
X54828258Y-50228187D01*
X55526446Y-49529999D01*
X55526446Y-49529998D01*
X54828258Y-48831812D01*
X54782900Y-48896589D01*
X54689578Y-49096719D01*
X54632424Y-49310021D01*
X54613178Y-49529999D01*
X47825000Y-49529999D01*
X47825000Y-48425001D01*
X47801685Y-48425001D01*
X47702394Y-48435143D01*
X47541513Y-48488453D01*
X47489097Y-48520785D01*
X47426705Y-48539217D01*
X47363568Y-48523525D01*
X47317067Y-48478026D01*
X47302651Y-48425000D01*
X48325000Y-48425000D01*
X48325000Y-49150000D01*
X49024999Y-49150000D01*
X49024999Y-49101685D01*
X49014856Y-49002394D01*
X48961546Y-48841513D01*
X48872573Y-48697267D01*
X48752732Y-48577426D01*
X48608486Y-48488453D01*
X48447606Y-48435143D01*
X48348315Y-48425000D01*
X48325000Y-48425000D01*
X47302651Y-48425000D01*
X47300000Y-48415247D01*
X47300000Y-48224000D01*
X47316613Y-48162000D01*
X47362000Y-48116613D01*
X47424000Y-48100000D01*
X55245582Y-48100000D01*
X55297986Y-48111617D01*
G37*
%TD.AperFunction*%
%TD*%
M02*
