M48
; DRILL file {KiCad 7.0.1} date Tue Jan  9 19:15:47 2024
; FORMAT={-:-/ absolute / inch / decimal}
; #@! TF.CreationDate,2024-01-09T19:15:47-05:00
; #@! TF.GenerationSoftware,Kicad,Pcbnew,7.0.1
; #@! TF.FileFunction,Plated,1,4,PTH
FMAT,2
INCH
; #@! TA.AperFunction,Plated,PTH,ViaDrill
T1C0.0157
; #@! TA.AperFunction,Plated,PTH,ComponentDrill
T2C0.0300
; #@! TA.AperFunction,Plated,PTH,ComponentDrill
T3C0.0354
; #@! TA.AperFunction,Plated,PTH,ComponentDrill
T4C0.0394
; #@! TA.AperFunction,Plated,PTH,ComponentDrill
T5C0.0430
; #@! TA.AperFunction,Plated,PTH,ComponentDrill
T6C0.0433
; #@! TA.AperFunction,Plated,PTH,ComponentDrill
T7C0.0472
%
G90
G05
T1
X1.265Y-5.18
X1.265Y-5.4
X1.32Y-3.74
X1.35Y-3.975
X1.425Y-3.79
X1.425Y-3.98
X1.4253Y-4.07
X1.43Y-3.895
X1.47Y-4.617
X1.475Y-4.075
X1.485Y-4.55
X1.485Y-4.98
X1.4947Y-4.6897
X1.5Y-3.62
X1.505Y-3.48
X1.54Y-3.81
X1.55Y-1.85
X1.56Y-3.865
X1.6024Y-1.8819
X1.6169Y-3.84
X1.6169Y-3.98
X1.6378Y-2.8307
X1.655Y-4.55
X1.655Y-4.695
X1.655Y-5.66
X1.66Y-3.48
X1.66Y-3.62
X1.66Y-3.84
X1.705Y-4.615
X1.71Y-4.695
X1.7165Y-2.0315
X1.7275Y-2.4696
X1.735Y-3.48
X1.7505Y-5.02
X1.77Y-3.85
X1.7835Y-1.9764
X1.8Y-3.37
X1.805Y-4.13
X1.8099Y-2.0622
X1.8147Y-4.0451
X1.815Y-4.38
X1.819Y-2.902
X1.8247Y-3.795
X1.83Y-4.695
X1.84Y-4.55
X1.8463Y-3.3453
X1.85Y-3.62
X1.855Y-3.485
X1.8819Y-2.3386
X1.8898Y-2.6142
X1.9Y-3.485
X1.9409Y-2.3386
X1.95Y-2.9824
X1.9882Y-1.9252
X1.9882Y-1.9724
X2.0039Y-2.3386
X2.005Y-2.5039
X2.005Y-4.345
X2.03Y-4.425
X2.0315Y-1.9252
X2.0394Y-2.4449
X2.04Y-2.59
X2.065Y-3.67
X2.0709Y-2.0866
X2.0709Y-2.1299
X2.0709Y-2.1732
X2.0748Y-1.9252
X2.09Y-2.69
X2.13Y-2.715
X2.17Y-4.04
X2.1947Y-3.8467
X2.24Y-5.18
X2.2853Y-4.8365
X2.295Y-5.395
X2.325Y-2.76
X2.3719Y-3.755
X2.42Y-3.94
X2.445Y-2.96
X2.4503Y-4.6847
X2.535Y-3.045
X2.545Y-3.81
X2.555Y-2.24
X2.59Y-5.605
X2.595Y-2.54
X2.6Y-2.265
X2.6147Y-5.5501
X2.635Y-2.85
X2.64Y-5.4303
X2.67Y-3.97
X2.69Y-5.32
X2.701Y-4.282
X2.72Y-3.41
X2.72Y-5.105
X2.73Y-5.5457
X2.7519Y-5.2954
X2.7587Y-4.4906
X2.7835Y-4.315
X2.785Y-5.835
X2.795Y-5.295
X2.805Y-5.105
X2.869Y-5.319
X2.87Y-3.545
X2.87Y-4.625
X2.89Y-4.555
X2.9025Y-5.6275
X2.96Y-3.25
X2.98Y-5.5197
X3.0Y-5.175
X3.01Y-4.49
X3.04Y-2.47
X3.04Y-4.3
X3.04Y-4.63
X3.07Y-2.585
X3.07Y-2.81
X3.085Y-3.155
X3.085Y-4.705
X3.105Y-2.105
X3.105Y-2.39
X3.105Y-2.47
X3.1597Y-3.5782
X3.16Y-3.01
X3.18Y-4.095
X3.18Y-5.42
X3.185Y-2.255
X3.21Y-5.38
X3.2227Y-3.8814
X3.24Y-2.48
X3.2444Y-3.5305
X3.25Y-3.845
X3.255Y-4.655
X3.2653Y-3.66
X3.2653Y-3.8059
X3.27Y-4.775
X3.2794Y-4.5862
X3.285Y-2.92
X3.29Y-3.45
X3.295Y-4.5532
X3.3139Y-5.5197
X3.315Y-2.455
X3.315Y-5.025
X3.325Y-3.24
X3.325Y-5.16
X3.33Y-3.73
X3.34Y-2.365
X3.3421Y-5.5455
X3.36Y-3.655
X3.3654Y-5.32
X3.385Y-5.8133
X3.4016Y-3.96
X3.415Y-5.54
X3.445Y-4.08
X3.4516Y-2.6296
X3.455Y-3.8
X3.475Y-2.7
X3.505Y-3.655
X3.55Y-5.155
X3.555Y-5.79
X3.66Y-2.055
X3.675Y-5.54
X3.7Y-2.15
X3.705Y-5.055
X3.705Y-5.44
X3.72Y-4.3
X3.735Y-5.33
X3.75Y-5.465
T2
X2.2Y-1.85
X2.2Y-1.95
X2.2Y-2.05
X2.2Y-2.15
X2.2Y-2.25
X2.2Y-2.35
X2.2Y-2.45
X2.2Y-2.55
X2.2Y-2.65
X2.2Y-2.75
X2.2Y-2.85
X2.2Y-2.95
X2.2Y-3.05
X2.2Y-3.15
X2.2Y-3.25
X2.2Y-3.35
X2.2Y-3.45
X2.2Y-3.55
X2.2Y-3.65
X2.2Y-3.75
X2.8Y-1.85
X2.8Y-1.95
X2.8Y-2.05
X2.8Y-2.15
X2.8Y-2.25
X2.8Y-2.35
X2.8Y-2.45
X2.8Y-2.55
X2.8Y-2.65
X2.8Y-2.75
X2.8Y-2.85
X2.8Y-2.95
X2.8Y-3.05
X2.8Y-3.15
X2.8Y-3.25
X2.8Y-3.35
X2.8Y-3.45
X2.8Y-3.55
X2.8Y-3.65
X2.8Y-3.75
T3
X2.325Y-4.0502
X2.325Y-4.1502
X2.675Y-4.05
X2.675Y-4.15
T4
X1.3492Y-2.3621
X1.3492Y-2.4621
X1.3492Y-2.5621
X1.3492Y-2.6621
X1.3492Y-2.7621
X1.4006Y-4.4153
X1.4016Y-2.2163
X1.4031Y-3.3153
X1.4492Y-2.3621
X1.4492Y-2.4621
X1.4492Y-2.5621
X1.4492Y-2.6621
X1.4492Y-2.7621
X1.499Y-4.4153
X1.5Y-2.2163
X1.5016Y-3.3153
X1.5974Y-4.4153
X1.5984Y-2.2163
X1.6Y-3.3153
X2.372Y-4.2814
X2.372Y-4.4586
X2.4016Y-3.8654
X2.4026Y-2.7654
X2.5Y-3.8654
X2.501Y-2.7654
X2.5984Y-3.8654
X2.5994Y-2.7654
X2.628Y-4.2814
X2.628Y-4.4586
X3.4006Y-4.4153
X3.4016Y-2.2163
X3.4026Y-3.3154
X3.499Y-4.4153
X3.5Y-2.2163
X3.501Y-3.3154
X3.5974Y-4.4153
X3.5984Y-2.2163
X3.5994Y-3.3154
T5
X2.09Y-4.12
X2.09Y-4.22
X2.09Y-4.32
X2.91Y-4.12
X2.91Y-4.22
X2.91Y-4.32
T7
X1.4Y-4.7949
X1.4Y-4.9169
X1.4Y-5.2437
X1.4Y-5.4
X1.4Y-5.7268
X1.4Y-5.8488
X1.95Y-4.7949
X1.95Y-4.9169
X1.95Y-5.2437
X1.95Y-5.4
X1.95Y-5.7268
X1.95Y-5.8488
X2.5Y-4.7949
X2.5Y-4.9169
X2.5Y-5.2437
X2.5Y-5.4
X2.5Y-5.7268
X2.5Y-5.8488
X3.05Y-4.7949
X3.05Y-4.9169
X3.05Y-5.2437
X3.05Y-5.4
X3.05Y-5.7268
X3.05Y-5.8488
X3.6Y-4.7949
X3.6Y-4.9169
X3.6Y-5.2437
X3.6Y-5.4
X3.6Y-5.7268
X3.6Y-5.8488
T6
G00X1.31Y-4.1338
M15
G01X1.31Y-4.1062
M16
G05
G00X1.311Y-1.9348
M15
G01X1.311Y-1.9073
M16
G05
G00X1.3126Y-3.0338
M15
G01X1.3126Y-3.0062
M16
G05
G00X1.688Y-4.1338
M15
G01X1.688Y-4.1062
M16
G05
G00X1.689Y-1.9348
M15
G01X1.689Y-1.9073
M16
G05
G00X1.6906Y-3.0338
M15
G01X1.6906Y-3.0062
M16
G05
G00X2.311Y-3.5839
M15
G01X2.311Y-3.5563
M16
G05
G00X2.312Y-2.4839
M15
G01X2.312Y-2.4563
M16
G05
G00X2.689Y-3.5839
M15
G01X2.689Y-3.5563
M16
G05
G00X2.69Y-2.4839
M15
G01X2.69Y-2.4563
M16
G05
G00X3.31Y-4.1338
M15
G01X3.31Y-4.1062
M16
G05
G00X3.311Y-1.9348
M15
G01X3.311Y-1.9073
M16
G05
G00X3.312Y-3.0339
M15
G01X3.312Y-3.0063
M16
G05
G00X3.688Y-4.1338
M15
G01X3.688Y-4.1062
M16
G05
G00X3.689Y-1.9348
M15
G01X3.689Y-1.9073
M16
G05
G00X3.69Y-3.0339
M15
G01X3.69Y-3.0063
M16
G05
T0
M30
