%TF.GenerationSoftware,KiCad,Pcbnew,7.0.1*%
%TF.CreationDate,2024-01-09T19:15:50-05:00*%
%TF.ProjectId,daisy_euro,64616973-795f-4657-9572-6f2e6b696361,rev?*%
%TF.SameCoordinates,Original*%
%TF.FileFunction,Paste,Bot*%
%TF.FilePolarity,Positive*%
%FSLAX46Y46*%
G04 Gerber Fmt 4.6, Leading zero omitted, Abs format (unit mm)*
G04 Created by KiCad (PCBNEW 7.0.1) date 2024-01-09 19:15:50*
%MOMM*%
%LPD*%
G01*
G04 APERTURE LIST*
G04 Aperture macros list*
%AMRoundRect*
0 Rectangle with rounded corners*
0 $1 Rounding radius*
0 $2 $3 $4 $5 $6 $7 $8 $9 X,Y pos of 4 corners*
0 Add a 4 corners polygon primitive as box body*
4,1,4,$2,$3,$4,$5,$6,$7,$8,$9,$2,$3,0*
0 Add four circle primitives for the rounded corners*
1,1,$1+$1,$2,$3*
1,1,$1+$1,$4,$5*
1,1,$1+$1,$6,$7*
1,1,$1+$1,$8,$9*
0 Add four rect primitives between the rounded corners*
20,1,$1+$1,$2,$3,$4,$5,0*
20,1,$1+$1,$4,$5,$6,$7,0*
20,1,$1+$1,$6,$7,$8,$9,0*
20,1,$1+$1,$8,$9,$2,$3,0*%
G04 Aperture macros list end*
%ADD10RoundRect,0.200000X0.275000X-0.200000X0.275000X0.200000X-0.275000X0.200000X-0.275000X-0.200000X0*%
%ADD11RoundRect,0.225000X0.250000X-0.225000X0.250000X0.225000X-0.250000X0.225000X-0.250000X-0.225000X0*%
%ADD12RoundRect,0.225000X-0.250000X0.225000X-0.250000X-0.225000X0.250000X-0.225000X0.250000X0.225000X0*%
%ADD13RoundRect,0.200000X-0.275000X0.200000X-0.275000X-0.200000X0.275000X-0.200000X0.275000X0.200000X0*%
%ADD14RoundRect,0.100000X0.637500X0.100000X-0.637500X0.100000X-0.637500X-0.100000X0.637500X-0.100000X0*%
%ADD15RoundRect,0.250000X1.100000X-0.325000X1.100000X0.325000X-1.100000X0.325000X-1.100000X-0.325000X0*%
%ADD16RoundRect,0.225000X0.225000X0.250000X-0.225000X0.250000X-0.225000X-0.250000X0.225000X-0.250000X0*%
%ADD17RoundRect,0.225000X-0.225000X-0.250000X0.225000X-0.250000X0.225000X0.250000X-0.225000X0.250000X0*%
%ADD18RoundRect,0.150000X0.587500X0.150000X-0.587500X0.150000X-0.587500X-0.150000X0.587500X-0.150000X0*%
%ADD19RoundRect,0.250000X-1.100000X0.325000X-1.100000X-0.325000X1.100000X-0.325000X1.100000X0.325000X0*%
%ADD20RoundRect,0.225000X-0.225000X-0.375000X0.225000X-0.375000X0.225000X0.375000X-0.225000X0.375000X0*%
%ADD21RoundRect,0.100000X0.100000X-0.637500X0.100000X0.637500X-0.100000X0.637500X-0.100000X-0.637500X0*%
%ADD22RoundRect,0.200000X0.200000X0.275000X-0.200000X0.275000X-0.200000X-0.275000X0.200000X-0.275000X0*%
%ADD23RoundRect,0.250000X1.250000X0.550000X-1.250000X0.550000X-1.250000X-0.550000X1.250000X-0.550000X0*%
%ADD24RoundRect,0.250000X-0.550000X1.250000X-0.550000X-1.250000X0.550000X-1.250000X0.550000X1.250000X0*%
%ADD25RoundRect,0.225000X0.225000X0.375000X-0.225000X0.375000X-0.225000X-0.375000X0.225000X-0.375000X0*%
G04 APERTURE END LIST*
D10*
%TO.C,R51*%
X62484000Y-102933000D03*
X62484000Y-101283000D03*
%TD*%
%TO.C,R49*%
X33528000Y-99123000D03*
X33528000Y-97473000D03*
%TD*%
%TO.C,R45*%
X87884000Y-121729000D03*
X87884000Y-120079000D03*
%TD*%
D11*
%TO.C,C11*%
X91821000Y-94869000D03*
X91821000Y-93319000D03*
%TD*%
D12*
%TO.C,C15*%
X50419000Y-97587000D03*
X50419000Y-99137000D03*
%TD*%
D10*
%TO.C,R43*%
X89535000Y-118528600D03*
X89535000Y-116878600D03*
%TD*%
D13*
%TO.C,R30*%
X93480625Y-90107000D03*
X93480625Y-91757000D03*
%TD*%
D14*
%TO.C,U5*%
X45026500Y-117303000D03*
X45026500Y-117953000D03*
X45026500Y-118603000D03*
X45026500Y-119253000D03*
X45026500Y-119903000D03*
X45026500Y-120553000D03*
X45026500Y-121203000D03*
X39301500Y-121203000D03*
X39301500Y-120553000D03*
X39301500Y-119903000D03*
X39301500Y-119253000D03*
X39301500Y-118603000D03*
X39301500Y-117953000D03*
X39301500Y-117303000D03*
%TD*%
D10*
%TO.C,R31*%
X90161375Y-91757000D03*
X90161375Y-90107000D03*
%TD*%
D15*
%TO.C,R50*%
X67437000Y-147906000D03*
X67437000Y-144956000D03*
%TD*%
D12*
%TO.C,C38*%
X38100000Y-104762000D03*
X38100000Y-106312000D03*
%TD*%
D14*
%TO.C,U9*%
X43502500Y-95586000D03*
X43502500Y-96236000D03*
X43502500Y-96886000D03*
X43502500Y-97536000D03*
X43502500Y-98186000D03*
X43502500Y-98836000D03*
X43502500Y-99486000D03*
X37777500Y-99486000D03*
X37777500Y-98836000D03*
X37777500Y-98186000D03*
X37777500Y-97536000D03*
X37777500Y-96886000D03*
X37777500Y-96236000D03*
X37777500Y-95586000D03*
%TD*%
D13*
%TO.C,R37*%
X90161375Y-93269000D03*
X90161375Y-94919000D03*
%TD*%
D16*
%TO.C,C26*%
X48075000Y-49400000D03*
X46525000Y-49400000D03*
%TD*%
D11*
%TO.C,C24*%
X85482332Y-134125000D03*
X85482332Y-132575000D03*
%TD*%
D10*
%TO.C,R34*%
X68362286Y-119380000D03*
X68362286Y-117730000D03*
%TD*%
%TO.C,R21*%
X53213000Y-118046000D03*
X53213000Y-116396000D03*
%TD*%
D13*
%TO.C,R54*%
X48768000Y-97537000D03*
X48768000Y-99187000D03*
%TD*%
D10*
%TO.C,R35*%
X95140250Y-94919000D03*
X95140250Y-93269000D03*
%TD*%
%TO.C,R58*%
X50419000Y-102362000D03*
X50419000Y-100712000D03*
%TD*%
D17*
%TO.C,C19*%
X42278000Y-101092000D03*
X43828000Y-101092000D03*
%TD*%
D10*
%TO.C,R8*%
X48133000Y-87058000D03*
X48133000Y-85408000D03*
%TD*%
D11*
%TO.C,C1*%
X49784000Y-87008000D03*
X49784000Y-85458000D03*
%TD*%
%TO.C,C14*%
X86233000Y-121679000D03*
X86233000Y-120129000D03*
%TD*%
D10*
%TO.C,R3*%
X53086000Y-87058000D03*
X53086000Y-85408000D03*
%TD*%
D12*
%TO.C,C10*%
X66729429Y-117780000D03*
X66729429Y-119330000D03*
%TD*%
D14*
%TO.C,U4*%
X45534500Y-86442000D03*
X45534500Y-87092000D03*
X45534500Y-87742000D03*
X45534500Y-88392000D03*
X45534500Y-89042000D03*
X45534500Y-89692000D03*
X45534500Y-90342000D03*
X39809500Y-90342000D03*
X39809500Y-89692000D03*
X39809500Y-89042000D03*
X39809500Y-88392000D03*
X39809500Y-87742000D03*
X39809500Y-87092000D03*
X39809500Y-86442000D03*
%TD*%
D11*
%TO.C,C35*%
X68055000Y-132842000D03*
X68055000Y-131292000D03*
%TD*%
D17*
%TO.C,C33*%
X43802000Y-115570000D03*
X45352000Y-115570000D03*
%TD*%
D13*
%TO.C,R9*%
X53086000Y-88583000D03*
X53086000Y-90233000D03*
%TD*%
%TO.C,R24*%
X76049429Y-89980000D03*
X76049429Y-91630000D03*
%TD*%
D15*
%TO.C,R60*%
X88011000Y-133555000D03*
X88011000Y-130605000D03*
%TD*%
D12*
%TO.C,C27*%
X48000000Y-68025000D03*
X48000000Y-69575000D03*
%TD*%
D11*
%TO.C,C2*%
X34163000Y-88723000D03*
X34163000Y-87173000D03*
%TD*%
D16*
%TO.C,C21*%
X86259000Y-96520000D03*
X84709000Y-96520000D03*
%TD*%
D18*
%TO.C,U7*%
X48054500Y-73853000D03*
X48054500Y-75753000D03*
X46179500Y-74803000D03*
%TD*%
D19*
%TO.C,R61*%
X73660000Y-130478000D03*
X73660000Y-133428000D03*
%TD*%
D11*
%TO.C,C31*%
X43002200Y-126442000D03*
X43002200Y-124892000D03*
%TD*%
%TO.C,C25*%
X84912200Y-146063000D03*
X84912200Y-144513000D03*
%TD*%
D10*
%TO.C,R22*%
X36002666Y-118922000D03*
X36002666Y-117272000D03*
%TD*%
D13*
%TO.C,R23*%
X74374858Y-89980000D03*
X74374858Y-91630000D03*
%TD*%
%TO.C,R2*%
X41275000Y-124842000D03*
X41275000Y-126492000D03*
%TD*%
D11*
%TO.C,C23*%
X83554666Y-134125000D03*
X83554666Y-132575000D03*
%TD*%
D13*
%TO.C,R12*%
X32512000Y-90234000D03*
X32512000Y-91884000D03*
%TD*%
%TO.C,R46*%
X84582000Y-120079000D03*
X84582000Y-121729000D03*
%TD*%
D14*
%TO.C,U2*%
X86174500Y-62368000D03*
X86174500Y-63018000D03*
X86174500Y-63668000D03*
X86174500Y-64318000D03*
X86174500Y-64968000D03*
X86174500Y-65618000D03*
X86174500Y-66268000D03*
X86174500Y-66918000D03*
X80449500Y-66918000D03*
X80449500Y-66268000D03*
X80449500Y-65618000D03*
X80449500Y-64968000D03*
X80449500Y-64318000D03*
X80449500Y-63668000D03*
X80449500Y-63018000D03*
X80449500Y-62368000D03*
%TD*%
D10*
%TO.C,R44*%
X89535000Y-121729000D03*
X89535000Y-120079000D03*
%TD*%
D13*
%TO.C,R40*%
X74374858Y-93155000D03*
X74374858Y-94805000D03*
%TD*%
D12*
%TO.C,C13*%
X87884000Y-116928600D03*
X87884000Y-118478600D03*
%TD*%
D13*
%TO.C,R32*%
X69995143Y-117730000D03*
X69995143Y-119380000D03*
%TD*%
D20*
%TO.C,D2*%
X36958000Y-73406000D03*
X40258000Y-73406000D03*
%TD*%
D10*
%TO.C,R39*%
X79398574Y-94805000D03*
X79398574Y-93155000D03*
%TD*%
D21*
%TO.C,U8*%
X87466600Y-142156100D03*
X86816600Y-142156100D03*
X86166600Y-142156100D03*
X85516600Y-142156100D03*
X84866600Y-142156100D03*
X84216600Y-142156100D03*
X83566600Y-142156100D03*
X82916600Y-142156100D03*
X82916600Y-136431100D03*
X83566600Y-136431100D03*
X84216600Y-136431100D03*
X84866600Y-136431100D03*
X85516600Y-136431100D03*
X86166600Y-136431100D03*
X86816600Y-136431100D03*
X87466600Y-136431100D03*
%TD*%
D10*
%TO.C,R36*%
X93480625Y-94919000D03*
X93480625Y-93269000D03*
%TD*%
%TO.C,R11*%
X49784000Y-90233000D03*
X49784000Y-88583000D03*
%TD*%
D15*
%TO.C,R14*%
X80518000Y-133555000D03*
X80518000Y-130605000D03*
%TD*%
D13*
%TO.C,R16*%
X54940200Y-119584000D03*
X54940200Y-121234000D03*
%TD*%
%TO.C,R29*%
X95140250Y-90107000D03*
X95140250Y-91757000D03*
%TD*%
D22*
%TO.C,R47*%
X52260000Y-75692000D03*
X50610000Y-75692000D03*
%TD*%
D23*
%TO.C,C28*%
X49500000Y-54000000D03*
X45100000Y-54000000D03*
%TD*%
D11*
%TO.C,C12*%
X76049429Y-94755000D03*
X76049429Y-93205000D03*
%TD*%
D12*
%TO.C,C4*%
X34163000Y-90284000D03*
X34163000Y-91834000D03*
%TD*%
%TO.C,C5*%
X54906333Y-116446000D03*
X54906333Y-117996000D03*
%TD*%
D10*
%TO.C,R15*%
X51485800Y-121234000D03*
X51485800Y-119584000D03*
%TD*%
D19*
%TO.C,R13*%
X88265000Y-145337000D03*
X88265000Y-148287000D03*
%TD*%
D17*
%TO.C,C34*%
X38989000Y-115570000D03*
X40539000Y-115570000D03*
%TD*%
%TO.C,C17*%
X44310000Y-91948000D03*
X45860000Y-91948000D03*
%TD*%
D12*
%TO.C,C7*%
X79398571Y-90030000D03*
X79398571Y-91580000D03*
%TD*%
D17*
%TO.C,C30*%
X81902000Y-60706000D03*
X83452000Y-60706000D03*
%TD*%
D10*
%TO.C,R38*%
X77724000Y-94805000D03*
X77724000Y-93155000D03*
%TD*%
D13*
%TO.C,R48*%
X35179000Y-97473000D03*
X35179000Y-99123000D03*
%TD*%
D10*
%TO.C,R7*%
X35814000Y-88773000D03*
X35814000Y-87123000D03*
%TD*%
D21*
%TO.C,U10*%
X71871000Y-142308500D03*
X71221000Y-142308500D03*
X70571000Y-142308500D03*
X69921000Y-142308500D03*
X69271000Y-142308500D03*
X68621000Y-142308500D03*
X67971000Y-142308500D03*
X67321000Y-142308500D03*
X67321000Y-136583500D03*
X67971000Y-136583500D03*
X68621000Y-136583500D03*
X69271000Y-136583500D03*
X69921000Y-136583500D03*
X70571000Y-136583500D03*
X71221000Y-136583500D03*
X71871000Y-136583500D03*
%TD*%
D17*
%TO.C,C18*%
X39484000Y-91948000D03*
X41034000Y-91948000D03*
%TD*%
D10*
%TO.C,R25*%
X77724000Y-91630000D03*
X77724000Y-89980000D03*
%TD*%
D11*
%TO.C,C8*%
X71609858Y-122441000D03*
X71609858Y-120891000D03*
%TD*%
D13*
%TO.C,R42*%
X86233000Y-116878600D03*
X86233000Y-118528600D03*
%TD*%
D12*
%TO.C,C6*%
X34290000Y-117322000D03*
X34290000Y-118872000D03*
%TD*%
D13*
%TO.C,R52*%
X47117000Y-97537000D03*
X47117000Y-99187000D03*
%TD*%
%TO.C,R20*%
X32635332Y-117272000D03*
X32635332Y-118922000D03*
%TD*%
D12*
%TO.C,C9*%
X91821000Y-90157000D03*
X91821000Y-91707000D03*
%TD*%
D16*
%TO.C,C22*%
X79388000Y-114046000D03*
X77838000Y-114046000D03*
%TD*%
D24*
%TO.C,C29*%
X44000000Y-65100000D03*
X44000000Y-69500000D03*
%TD*%
D12*
%TO.C,C39*%
X31877000Y-97523000D03*
X31877000Y-99073000D03*
%TD*%
D10*
%TO.C,R53*%
X52070000Y-99187000D03*
X52070000Y-97537000D03*
%TD*%
D13*
%TO.C,R17*%
X36449000Y-104712000D03*
X36449000Y-106362000D03*
%TD*%
D14*
%TO.C,U6*%
X81348500Y-115652000D03*
X81348500Y-116302000D03*
X81348500Y-116952000D03*
X81348500Y-117602000D03*
X81348500Y-118252000D03*
X81348500Y-118902000D03*
X81348500Y-119552000D03*
X75623500Y-119552000D03*
X75623500Y-118902000D03*
X75623500Y-118252000D03*
X75623500Y-117602000D03*
X75623500Y-116952000D03*
X75623500Y-116302000D03*
X75623500Y-115652000D03*
%TD*%
D10*
%TO.C,R18*%
X39751000Y-106362000D03*
X39751000Y-104712000D03*
%TD*%
D13*
%TO.C,R19*%
X51519667Y-116396000D03*
X51519667Y-118046000D03*
%TD*%
%TO.C,R6*%
X32512000Y-87123000D03*
X32512000Y-88773000D03*
%TD*%
%TO.C,R59*%
X47117000Y-100712000D03*
X47117000Y-102362000D03*
%TD*%
D10*
%TO.C,R55*%
X64770000Y-102933000D03*
X64770000Y-101283000D03*
%TD*%
D11*
%TO.C,C3*%
X51435000Y-90183000D03*
X51435000Y-88633000D03*
%TD*%
D10*
%TO.C,R1*%
X39547800Y-126492000D03*
X39547800Y-124842000D03*
%TD*%
D13*
%TO.C,R33*%
X71628000Y-117730000D03*
X71628000Y-119380000D03*
%TD*%
D11*
%TO.C,C32*%
X53213000Y-121184000D03*
X53213000Y-119634000D03*
%TD*%
D10*
%TO.C,R26*%
X66711286Y-122491000D03*
X66711286Y-120841000D03*
%TD*%
D13*
%TO.C,R28*%
X69977000Y-120841000D03*
X69977000Y-122491000D03*
%TD*%
D10*
%TO.C,R57*%
X52070000Y-102362000D03*
X52070000Y-100712000D03*
%TD*%
D14*
%TO.C,U3*%
X87571500Y-90887000D03*
X87571500Y-91537000D03*
X87571500Y-92187000D03*
X87571500Y-92837000D03*
X87571500Y-93487000D03*
X87571500Y-94137000D03*
X87571500Y-94787000D03*
X81846500Y-94787000D03*
X81846500Y-94137000D03*
X81846500Y-93487000D03*
X81846500Y-92837000D03*
X81846500Y-92187000D03*
X81846500Y-91537000D03*
X81846500Y-90887000D03*
%TD*%
D13*
%TO.C,R41*%
X84582000Y-116878600D03*
X84582000Y-118528600D03*
%TD*%
D25*
%TO.C,D1*%
X43560000Y-59436000D03*
X40260000Y-59436000D03*
%TD*%
D10*
%TO.C,R27*%
X68344143Y-122491000D03*
X68344143Y-120841000D03*
%TD*%
D11*
%TO.C,C36*%
X70104000Y-132842000D03*
X70104000Y-131292000D03*
%TD*%
%TO.C,C37*%
X70713600Y-146621800D03*
X70713600Y-145071800D03*
%TD*%
D13*
%TO.C,R5*%
X51435000Y-85408000D03*
X51435000Y-87058000D03*
%TD*%
D19*
%TO.C,R56*%
X81534000Y-144575000D03*
X81534000Y-147525000D03*
%TD*%
D10*
%TO.C,R10*%
X35814000Y-91884000D03*
X35814000Y-90234000D03*
%TD*%
D17*
%TO.C,C20*%
X37452000Y-101092000D03*
X39002000Y-101092000D03*
%TD*%
D10*
%TO.C,R4*%
X30861000Y-88773000D03*
X30861000Y-87123000D03*
%TD*%
D11*
%TO.C,C16*%
X48768000Y-102312000D03*
X48768000Y-100762000D03*
%TD*%
M02*
