%TF.GenerationSoftware,KiCad,Pcbnew,7.0.1*%
%TF.CreationDate,2024-01-09T19:04:09-05:00*%
%TF.ProjectId,common_faceplate,636f6d6d-6f6e-45f6-9661-6365706c6174,rev?*%
%TF.SameCoordinates,Original*%
%TF.FileFunction,Copper,L1,Top*%
%TF.FilePolarity,Positive*%
%FSLAX46Y46*%
G04 Gerber Fmt 4.6, Leading zero omitted, Abs format (unit mm)*
G04 Created by KiCad (PCBNEW 7.0.1) date 2024-01-09 19:04:09*
%MOMM*%
%LPD*%
G01*
G04 APERTURE LIST*
%TA.AperFunction,ComponentPad*%
%ADD10C,7.924800*%
%TD*%
%TA.AperFunction,ComponentPad*%
%ADD11C,11.430000*%
%TD*%
%TA.AperFunction,ComponentPad*%
%ADD12C,6.299200*%
%TD*%
%TA.AperFunction,ComponentPad*%
%ADD13C,6.223000*%
%TD*%
%TA.AperFunction,ComponentPad*%
%ADD14C,3.810000*%
%TD*%
%TA.AperFunction,ComponentPad*%
%ADD15O,10.160000X5.740400*%
%TD*%
G04 APERTURE END LIST*
D10*
%TO.P,REF\u002A\u002A,*%
%TO.N,front*%
X75514200Y-139192000D03*
%TD*%
%TO.P,REF\u002A\u002A,*%
%TO.N,front*%
X103454200Y-139192000D03*
%TD*%
D11*
%TO.P,REF\u002A\u002A,1*%
%TO.N,front*%
X50088800Y-101752400D03*
%TD*%
%TO.P,REF\u002A\u002A,1*%
%TO.N,front*%
X100888800Y-101752400D03*
%TD*%
D10*
%TO.P,REF\u002A\u002A,*%
%TO.N,front*%
X89484200Y-139192000D03*
%TD*%
%TO.P,REF\u002A\u002A,*%
%TO.N,front*%
X75514200Y-125349000D03*
%TD*%
D12*
%TO.P,REF\u002A\u002A,*%
%TO.N,front*%
X75488800Y-108102400D03*
%TD*%
D13*
%TO.P,REF\u002A\u002A,*%
%TO.N,front*%
X85902800Y-104292400D03*
%TD*%
D10*
%TO.P,REF\u002A\u002A,*%
%TO.N,front*%
X47574200Y-139192000D03*
%TD*%
D14*
%TO.P,REF\u002A\u002A,*%
%TO.N,front*%
X79933800Y-101244400D03*
%TD*%
D15*
%TO.P,REF\u002A\u002A,1*%
%TO.N,front*%
X50088800Y-32969200D03*
%TD*%
%TO.P,REF\u002A\u002A,1*%
%TO.N,front*%
X50088800Y-155524200D03*
%TD*%
D11*
%TO.P,REF\u002A\u002A,1*%
%TO.N,front*%
X100888800Y-73812400D03*
%TD*%
D10*
%TO.P,REF\u002A\u002A,*%
%TO.N,front*%
X61544200Y-125349000D03*
%TD*%
D13*
%TO.P,REF\u002A\u002A,*%
%TO.N,front*%
X65074800Y-104292400D03*
%TD*%
D10*
%TO.P,REF\u002A\u002A,*%
%TO.N,front*%
X75514200Y-139192000D03*
%TD*%
D11*
%TO.P,REF\u002A\u002A,1*%
%TO.N,front*%
X100888800Y-45872400D03*
%TD*%
D10*
%TO.P,REF\u002A\u002A,*%
%TO.N,front*%
X47574200Y-125349000D03*
%TD*%
D15*
%TO.P,REF\u002A\u002A,1*%
%TO.N,front*%
X100888800Y-155524200D03*
%TD*%
%TO.P,REF\u002A\u002A,1*%
%TO.N,front*%
X100888800Y-32969200D03*
%TD*%
D11*
%TO.P,REF\u002A\u002A,1*%
%TO.N,front*%
X50088800Y-73812400D03*
%TD*%
D10*
%TO.P,REF\u002A\u002A,*%
%TO.N,front*%
X89484200Y-125349000D03*
%TD*%
%TO.P,REF\u002A\u002A,*%
%TO.N,front*%
X103454200Y-125349000D03*
%TD*%
D14*
%TO.P,REF\u002A\u002A,*%
%TO.N,front*%
X71043800Y-101244400D03*
%TD*%
D11*
%TO.P,REF\u002A\u002A,1*%
%TO.N,front*%
X75488800Y-87782400D03*
%TD*%
D10*
%TO.P,REF\u002A\u002A,*%
%TO.N,front*%
X75514200Y-125349000D03*
%TD*%
%TO.P,REF\u002A\u002A,*%
%TO.N,front*%
X61544200Y-139192000D03*
%TD*%
D11*
%TO.P,REF\u002A\u002A,1*%
%TO.N,front*%
X50088800Y-45872400D03*
%TD*%
%TO.P,REF\u002A\u002A,1*%
%TO.N,front*%
X75488800Y-59842400D03*
%TD*%
%TA.AperFunction,Conductor*%
%TO.N,front*%
G36*
X110834400Y-30017113D02*
G01*
X110879787Y-30062500D01*
X110896400Y-30124500D01*
X110896400Y-158372000D01*
X110879787Y-158434000D01*
X110834400Y-158479387D01*
X110772400Y-158496000D01*
X40230600Y-158496000D01*
X40168600Y-158479387D01*
X40123213Y-158434000D01*
X40106600Y-158372000D01*
X40106600Y-30124500D01*
X40123213Y-30062500D01*
X40168600Y-30017113D01*
X40230600Y-30000500D01*
X110772400Y-30000500D01*
X110834400Y-30017113D01*
G37*
%TD.AperFunction*%
%TD*%
M02*
