%TF.GenerationSoftware,KiCad,Pcbnew,8.0.7*%
%TF.CreationDate,2025-01-10T16:02:57-05:00*%
%TF.ProjectId,output module,6f757470-7574-4206-9d6f-64756c652e6b,B*%
%TF.SameCoordinates,Original*%
%TF.FileFunction,Paste,Bot*%
%TF.FilePolarity,Positive*%
%FSLAX46Y46*%
G04 Gerber Fmt 4.6, Leading zero omitted, Abs format (unit mm)*
G04 Created by KiCad (PCBNEW 8.0.7) date 2025-01-10 16:02:57*
%MOMM*%
%LPD*%
G01*
G04 APERTURE LIST*
G04 Aperture macros list*
%AMRoundRect*
0 Rectangle with rounded corners*
0 $1 Rounding radius*
0 $2 $3 $4 $5 $6 $7 $8 $9 X,Y pos of 4 corners*
0 Add a 4 corners polygon primitive as box body*
4,1,4,$2,$3,$4,$5,$6,$7,$8,$9,$2,$3,0*
0 Add four circle primitives for the rounded corners*
1,1,$1+$1,$2,$3*
1,1,$1+$1,$4,$5*
1,1,$1+$1,$6,$7*
1,1,$1+$1,$8,$9*
0 Add four rect primitives between the rounded corners*
20,1,$1+$1,$2,$3,$4,$5,0*
20,1,$1+$1,$4,$5,$6,$7,0*
20,1,$1+$1,$6,$7,$8,$9,0*
20,1,$1+$1,$8,$9,$2,$3,0*%
G04 Aperture macros list end*
%ADD10RoundRect,0.200000X0.200000X0.275000X-0.200000X0.275000X-0.200000X-0.275000X0.200000X-0.275000X0*%
%ADD11RoundRect,0.200000X-0.200000X-0.275000X0.200000X-0.275000X0.200000X0.275000X-0.200000X0.275000X0*%
%ADD12RoundRect,0.200000X0.275000X-0.200000X0.275000X0.200000X-0.275000X0.200000X-0.275000X-0.200000X0*%
%ADD13RoundRect,0.112500X0.112500X-0.187500X0.112500X0.187500X-0.112500X0.187500X-0.112500X-0.187500X0*%
%ADD14RoundRect,0.100000X0.100000X-0.637500X0.100000X0.637500X-0.100000X0.637500X-0.100000X-0.637500X0*%
%ADD15RoundRect,0.250000X0.312500X1.075000X-0.312500X1.075000X-0.312500X-1.075000X0.312500X-1.075000X0*%
%ADD16RoundRect,0.200000X-0.275000X0.200000X-0.275000X-0.200000X0.275000X-0.200000X0.275000X0.200000X0*%
%ADD17RoundRect,0.225000X0.225000X0.250000X-0.225000X0.250000X-0.225000X-0.250000X0.225000X-0.250000X0*%
%ADD18RoundRect,0.250000X-0.550000X1.250000X-0.550000X-1.250000X0.550000X-1.250000X0.550000X1.250000X0*%
%ADD19RoundRect,0.225000X0.250000X-0.225000X0.250000X0.225000X-0.250000X0.225000X-0.250000X-0.225000X0*%
%ADD20RoundRect,0.225000X-0.225000X-0.250000X0.225000X-0.250000X0.225000X0.250000X-0.225000X0.250000X0*%
%ADD21RoundRect,0.125000X-0.125000X-0.125000X0.125000X-0.125000X0.125000X0.125000X-0.125000X0.125000X0*%
%ADD22RoundRect,0.062500X-0.350000X-0.062500X0.350000X-0.062500X0.350000X0.062500X-0.350000X0.062500X0*%
%ADD23RoundRect,0.062500X-0.062500X-0.350000X0.062500X-0.350000X0.062500X0.350000X-0.062500X0.350000X0*%
%ADD24RoundRect,0.100000X-0.637500X-0.100000X0.637500X-0.100000X0.637500X0.100000X-0.637500X0.100000X0*%
%ADD25RoundRect,0.250000X0.550000X-1.250000X0.550000X1.250000X-0.550000X1.250000X-0.550000X-1.250000X0*%
%ADD26RoundRect,0.100000X0.637500X0.100000X-0.637500X0.100000X-0.637500X-0.100000X0.637500X-0.100000X0*%
%ADD27RoundRect,0.112500X0.187500X0.112500X-0.187500X0.112500X-0.187500X-0.112500X0.187500X-0.112500X0*%
%ADD28RoundRect,0.225000X-0.250000X0.225000X-0.250000X-0.225000X0.250000X-0.225000X0.250000X0.225000X0*%
G04 APERTURE END LIST*
D10*
%TO.C,R27*%
X102044000Y-107188000D03*
X100394000Y-107188000D03*
%TD*%
D11*
%TO.C,R26*%
X100419400Y-98425000D03*
X102069400Y-98425000D03*
%TD*%
D12*
%TO.C,R16*%
X94234000Y-91896000D03*
X94234000Y-90246000D03*
%TD*%
%TO.C,R19*%
X100965000Y-91884000D03*
X100965000Y-90234000D03*
%TD*%
D10*
%TO.C,R39*%
X78041000Y-100584000D03*
X76391000Y-100584000D03*
%TD*%
D13*
%TO.C,D4*%
X107188000Y-113191000D03*
X107188000Y-111091000D03*
%TD*%
D11*
%TO.C,R46*%
X91377000Y-103886000D03*
X93027000Y-103886000D03*
%TD*%
D14*
%TO.C,U5*%
X98597000Y-87825500D03*
X97947000Y-87825500D03*
X97297000Y-87825500D03*
X96647000Y-87825500D03*
X95997000Y-87825500D03*
X95347000Y-87825500D03*
X94697000Y-87825500D03*
X94697000Y-82100500D03*
X95347000Y-82100500D03*
X95997000Y-82100500D03*
X96647000Y-82100500D03*
X97297000Y-82100500D03*
X97947000Y-82100500D03*
X98597000Y-82100500D03*
%TD*%
D15*
%TO.C,R33*%
X116905500Y-119253000D03*
X113980500Y-119253000D03*
%TD*%
D16*
%TO.C,R11*%
X112014000Y-85789000D03*
X112014000Y-87439000D03*
%TD*%
D17*
%TO.C,C2*%
X90691000Y-72009000D03*
X89141000Y-72009000D03*
%TD*%
D15*
%TO.C,R31*%
X104967500Y-119253000D03*
X102042500Y-119253000D03*
%TD*%
D18*
%TO.C,C23*%
X111810800Y-71129800D03*
X111810800Y-75529800D03*
%TD*%
D16*
%TO.C,R14*%
X104648000Y-112776000D03*
X104648000Y-114426000D03*
%TD*%
D13*
%TO.C,D9*%
X84074000Y-113191000D03*
X84074000Y-111091000D03*
%TD*%
D10*
%TO.C,R8*%
X85026000Y-136495000D03*
X83376000Y-136495000D03*
%TD*%
D12*
%TO.C,R22*%
X103124000Y-87693000D03*
X103124000Y-86043000D03*
%TD*%
D10*
%TO.C,R7*%
X85026000Y-134747000D03*
X83376000Y-134747000D03*
%TD*%
%TO.C,R35*%
X78041000Y-102235000D03*
X76391000Y-102235000D03*
%TD*%
%TO.C,R40*%
X78041000Y-95631000D03*
X76391000Y-95631000D03*
%TD*%
D19*
%TO.C,C14*%
X104775000Y-87643000D03*
X104775000Y-86093000D03*
%TD*%
D12*
%TO.C,R20*%
X99314000Y-91884000D03*
X99314000Y-90234000D03*
%TD*%
D20*
%TO.C,C10*%
X97764000Y-144272000D03*
X99314000Y-144272000D03*
%TD*%
D10*
%TO.C,R23*%
X102044000Y-105537000D03*
X100394000Y-105537000D03*
%TD*%
D17*
%TO.C,C13*%
X90818000Y-86614000D03*
X89268000Y-86614000D03*
%TD*%
D10*
%TO.C,R2*%
X90741000Y-70231000D03*
X89091000Y-70231000D03*
%TD*%
D20*
%TO.C,C24*%
X115684000Y-99060000D03*
X117234000Y-99060000D03*
%TD*%
D13*
%TO.C,D11*%
X86360000Y-113191000D03*
X86360000Y-111091000D03*
%TD*%
D15*
%TO.C,R43*%
X91505500Y-119253000D03*
X88580500Y-119253000D03*
%TD*%
D12*
%TO.C,R18*%
X97663000Y-91884000D03*
X97663000Y-90234000D03*
%TD*%
D11*
%TO.C,R28*%
X115634000Y-97409000D03*
X117284000Y-97409000D03*
%TD*%
D10*
%TO.C,R13*%
X116649000Y-115824000D03*
X114999000Y-115824000D03*
%TD*%
D12*
%TO.C,R17*%
X92583000Y-91884000D03*
X92583000Y-90234000D03*
%TD*%
D11*
%TO.C,R10*%
X102222800Y-65049400D03*
X103872800Y-65049400D03*
%TD*%
D21*
%TO.C,U2*%
X93416000Y-145867000D03*
X93416000Y-146487000D03*
X94036000Y-145867000D03*
X94036000Y-146487000D03*
D22*
X92288500Y-146927000D03*
X92288500Y-146427000D03*
X92288500Y-145927000D03*
X92288500Y-145427000D03*
D23*
X92976000Y-144739500D03*
X93476000Y-144739500D03*
X93976000Y-144739500D03*
X94476000Y-144739500D03*
D22*
X95163500Y-145427000D03*
X95163500Y-145927000D03*
X95163500Y-146427000D03*
X95163500Y-146927000D03*
D23*
X94476000Y-147614500D03*
X93976000Y-147614500D03*
X93476000Y-147614500D03*
X92976000Y-147614500D03*
%TD*%
D24*
%TO.C,U1*%
X79941500Y-73832000D03*
X79941500Y-73182000D03*
X79941500Y-72532000D03*
X79941500Y-71882000D03*
X79941500Y-71232000D03*
X79941500Y-70582000D03*
X79941500Y-69932000D03*
X85666500Y-69932000D03*
X85666500Y-70582000D03*
X85666500Y-71232000D03*
X85666500Y-71882000D03*
X85666500Y-72532000D03*
X85666500Y-73182000D03*
X85666500Y-73832000D03*
%TD*%
D13*
%TO.C,D2*%
X109474000Y-113191000D03*
X109474000Y-111091000D03*
%TD*%
D10*
%TO.C,R41*%
X93027000Y-107188000D03*
X91377000Y-107188000D03*
%TD*%
D11*
%TO.C,R25*%
X115634000Y-100711000D03*
X117284000Y-100711000D03*
%TD*%
D25*
%TO.C,C21*%
X109474000Y-61001000D03*
X109474000Y-56601000D03*
%TD*%
D20*
%TO.C,C25*%
X105143000Y-94869000D03*
X106693000Y-94869000D03*
%TD*%
D10*
%TO.C,R38*%
X93027000Y-98425000D03*
X91377000Y-98425000D03*
%TD*%
D17*
%TO.C,C9*%
X91961000Y-142113000D03*
X90411000Y-142113000D03*
%TD*%
D13*
%TO.C,D3*%
X111760000Y-113191000D03*
X111760000Y-111091000D03*
%TD*%
D26*
%TO.C,U4*%
X112336500Y-97872000D03*
X112336500Y-98522000D03*
X112336500Y-99172000D03*
X112336500Y-99822000D03*
X112336500Y-100472000D03*
X112336500Y-101122000D03*
X112336500Y-101772000D03*
X106611500Y-101772000D03*
X106611500Y-101122000D03*
X106611500Y-100472000D03*
X106611500Y-99822000D03*
X106611500Y-99172000D03*
X106611500Y-98522000D03*
X106611500Y-97872000D03*
%TD*%
D11*
%TO.C,R30*%
X100394000Y-96748600D03*
X102044000Y-96748600D03*
%TD*%
D15*
%TO.C,R44*%
X85536500Y-119253000D03*
X82611500Y-119253000D03*
%TD*%
D25*
%TO.C,C22*%
X84074000Y-61255000D03*
X84074000Y-56855000D03*
%TD*%
D17*
%TO.C,C18*%
X85484000Y-77724000D03*
X83934000Y-77724000D03*
%TD*%
D16*
%TO.C,R12*%
X108712000Y-85789000D03*
X108712000Y-87439000D03*
%TD*%
D10*
%TO.C,R5*%
X90741000Y-73787000D03*
X89091000Y-73787000D03*
%TD*%
D27*
%TO.C,D8*%
X93252000Y-100330000D03*
X91152000Y-100330000D03*
%TD*%
D17*
%TO.C,C1*%
X77229000Y-76581000D03*
X75679000Y-76581000D03*
%TD*%
D11*
%TO.C,R37*%
X91377000Y-105537000D03*
X93027000Y-105537000D03*
%TD*%
D19*
%TO.C,C19*%
X91694000Y-84468000D03*
X91694000Y-82918000D03*
%TD*%
D26*
%TO.C,U3*%
X86936500Y-97872000D03*
X86936500Y-98522000D03*
X86936500Y-99172000D03*
X86936500Y-99822000D03*
X86936500Y-100472000D03*
X86936500Y-101122000D03*
X86936500Y-101772000D03*
X81211500Y-101772000D03*
X81211500Y-101122000D03*
X81211500Y-100472000D03*
X81211500Y-99822000D03*
X81211500Y-99172000D03*
X81211500Y-98522000D03*
X81211500Y-97872000D03*
%TD*%
D13*
%TO.C,D10*%
X81788000Y-113191000D03*
X81788000Y-111091000D03*
%TD*%
D10*
%TO.C,R42*%
X93027000Y-96901000D03*
X91377000Y-96901000D03*
%TD*%
D28*
%TO.C,C11*%
X98933000Y-146418000D03*
X98933000Y-147968000D03*
%TD*%
D10*
%TO.C,R3*%
X77279000Y-71247000D03*
X75629000Y-71247000D03*
%TD*%
D20*
%TO.C,C27*%
X76441000Y-98933000D03*
X77991000Y-98933000D03*
%TD*%
D27*
%TO.C,D1*%
X102269000Y-100330000D03*
X100169000Y-100330000D03*
%TD*%
D28*
%TO.C,C20*%
X101727000Y-82664000D03*
X101727000Y-84214000D03*
%TD*%
D17*
%TO.C,C17*%
X81547000Y-77724000D03*
X79997000Y-77724000D03*
%TD*%
D28*
%TO.C,C8*%
X89662000Y-144894000D03*
X89662000Y-146444000D03*
%TD*%
D15*
%TO.C,R45*%
X79506000Y-119253000D03*
X76581000Y-119253000D03*
%TD*%
D17*
%TO.C,C16*%
X92977000Y-102235000D03*
X91427000Y-102235000D03*
%TD*%
D10*
%TO.C,R9*%
X116649000Y-65024000D03*
X114999000Y-65024000D03*
%TD*%
%TO.C,R6*%
X77279000Y-69469000D03*
X75629000Y-69469000D03*
%TD*%
D11*
%TO.C,R24*%
X115634000Y-95758000D03*
X117284000Y-95758000D03*
%TD*%
%TO.C,R34*%
X100394000Y-103886000D03*
X102044000Y-103886000D03*
%TD*%
D10*
%TO.C,R1*%
X77279000Y-73025000D03*
X75629000Y-73025000D03*
%TD*%
%TO.C,R4*%
X77279000Y-74803000D03*
X75629000Y-74803000D03*
%TD*%
D17*
%TO.C,C15*%
X101994000Y-102235000D03*
X100444000Y-102235000D03*
%TD*%
D15*
%TO.C,R32*%
X110936500Y-119253000D03*
X108011500Y-119253000D03*
%TD*%
D20*
%TO.C,C26*%
X85712000Y-95504000D03*
X87262000Y-95504000D03*
%TD*%
D17*
%TO.C,C3*%
X77229000Y-67691000D03*
X75679000Y-67691000D03*
%TD*%
D10*
%TO.C,R36*%
X78041000Y-97282000D03*
X76391000Y-97282000D03*
%TD*%
D11*
%TO.C,R29*%
X115634000Y-102362000D03*
X117284000Y-102362000D03*
%TD*%
D12*
%TO.C,R15*%
X95885000Y-91896000D03*
X95885000Y-90246000D03*
%TD*%
D10*
%TO.C,R21*%
X90868000Y-88265000D03*
X89218000Y-88265000D03*
%TD*%
D28*
%TO.C,C12*%
X90424000Y-149593000D03*
X90424000Y-151143000D03*
%TD*%
M02*
